<svg width="32" height="32" viewBox="0 0 32 32" fill="none" xmlns="http://www.w3.org/2000/svg">
<rect x="0.5" y="0.5" width="31" height="31" rx="15.5" stroke="white"/>
<path d="M12.7384 11C13.2175 11 13.6548 11.0424 14.0504 11.1262C14.4459 11.2101 14.7837 11.3478 15.0654 11.5393C15.3472 11.7309 15.5658 11.9851 15.7214 12.3029C15.8769 12.6206 15.9543 13.0125 15.9543 13.4795C15.9543 13.9835 15.8387 14.4037 15.6085 14.74C15.3783 15.0763 15.037 15.3517 14.5863 15.5662C15.2067 15.7436 15.6698 16.0543 15.9756 16.4974C16.2814 16.9405 16.4342 17.4754 16.4342 18.1012C16.4342 18.6053 16.3356 19.0422 16.1382 19.4111C15.9409 19.7801 15.6752 20.0811 15.341 20.3141C15.0068 20.5481 14.6263 20.7202 14.1988 20.8323C13.7686 20.9444 13.3251 21.0009 12.8806 21H8V11H12.7384ZM12.4567 15.0471C12.8513 15.0471 13.1757 14.9536 13.4299 14.7673C13.6842 14.5802 13.8113 14.2774 13.8104 13.8573C13.8104 13.6242 13.7677 13.4327 13.6833 13.2835C13.5988 13.1343 13.4859 13.0169 13.3446 12.9331C13.2033 12.8492 13.0415 12.791 12.8584 12.7583C12.67 12.7257 12.4789 12.7089 12.2869 12.7098H10.215V15.0489L12.4567 15.0471ZM12.5838 19.2902C12.7926 19.2911 13.0006 19.2699 13.2042 19.2275C13.4015 19.1852 13.5757 19.1154 13.7259 19.0175C13.8761 18.9195 13.9961 18.7862 14.0859 18.6185C14.1748 18.4508 14.2201 18.2354 14.2201 17.9741C14.2201 17.4613 14.0744 17.0941 13.7828 16.8752C13.4913 16.6554 13.1055 16.5459 12.6264 16.5459H10.215V19.2911L12.5838 19.2902ZM19.2199 19.0801C19.5203 19.3697 19.9532 19.5144 20.5176 19.5144C20.922 19.5144 21.2695 19.4138 21.5611 19.2134C21.8526 19.0131 22.0313 18.8003 22.0971 18.5761H23.8596C23.5779 19.4447 23.145 20.0652 22.5619 20.4386C21.9788 20.812 21.274 20.9991 20.4465 20.9991C19.8732 20.9991 19.3559 20.9082 18.8954 20.7264C18.435 20.5445 18.0448 20.285 17.7248 19.9487C17.4048 19.6124 17.1578 19.2117 16.9844 18.7447C16.8111 18.2778 16.724 17.7641 16.724 17.2044C16.724 16.6633 16.8129 16.1593 16.9915 15.6924C17.1702 15.2254 17.4244 14.822 17.7533 14.4813C18.0821 14.1406 18.475 13.8723 18.931 13.6763C19.387 13.4804 19.8927 13.3824 20.4474 13.3824C21.0678 13.3824 21.6082 13.5015 22.0695 13.7399C22.5299 13.9782 22.9086 14.2977 23.2046 14.6994C23.5005 15.101 23.7147 15.5582 23.8463 16.0719C23.9778 16.5857 24.025 17.1223 23.9876 17.6828H18.7274C18.755 18.3246 18.9194 18.7915 19.2199 19.0801ZM21.4838 15.2713C21.2438 15.0101 20.8793 14.8794 20.3905 14.8794C20.0705 14.8794 19.8047 14.9333 19.5941 15.0401C19.3825 15.1478 19.2136 15.2802 19.0865 15.439C18.9594 15.5979 18.8706 15.7656 18.819 15.9431C18.7674 16.1205 18.7363 16.2794 18.7274 16.4188H21.9851C21.89 15.9157 21.7228 15.5326 21.4838 15.2713ZM18.3844 11.5075H22.4544V12.6286H18.3844V11.5075Z" fill="white"/>
</svg>
