<svg width="123" height="32" viewBox="0 0 123 32" fill="none" xmlns="http://www.w3.org/2000/svg">
<rect x="0.5" y="0.5" width="122" height="31" rx="15.5" stroke="#525252"/>
<g clip-path="url(#clip0_95_37)">
<path d="M24.1429 9V9.98C24.1429 10.0021 24.1429 10.0231 24.1429 10.043C24.1429 10.2403 23.983 10.4 23.7857 10.4V10.4C23.7857 10.4 23.4715 10.4 23.0714 10.4H20.9286C20.5285 10.4 20.2143 10.4 20.2143 10.4V10.4C20.017 10.4 19.8571 10.2403 19.8571 10.043C19.8571 10.0231 19.8571 10.0021 19.8571 9.98V9M19.2857 23H24.7143C25.5144 23 25.9144 23 26.22 22.8474C26.4888 22.7132 26.7073 22.499 26.8443 22.2356C27 21.9361 27 21.5441 27 20.76V11.24C27 10.4559 27 10.0639 26.8443 9.76441C26.7073 9.50099 26.4888 9.28681 26.22 9.15259C25.9144 9 25.5144 9 24.7143 9H19.2857C18.4856 9 18.0856 9 17.78 9.15259C17.5112 9.28681 17.2927 9.50099 17.1557 9.76441C17 10.0639 17 10.4559 17 11.24V20.76C17 21.5441 17 21.9361 17.1557 22.2356C17.2927 22.499 17.5112 22.7132 17.78 22.8474C18.0856 23 18.4856 23 19.2857 23Z" stroke="white" stroke-linecap="round" stroke-linejoin="round"/>
<path d="M22 20.5H22.01M22.5 20.5C22.5 20.7761 22.2761 21 22 21C21.7239 21 21.5 20.7761 21.5 20.5C21.5 20.2239 21.7239 20 22 20C22.2761 20 22.5 20.2239 22.5 20.5Z" stroke="white" stroke-width="0.5" stroke-linecap="round" stroke-linejoin="round"/>
</g>
<path d="M39.5852 11.2727V20H38.5284V12.2102H34.1307V20H33.0739V11.2727H39.5852ZM41.5806 22.4545V13.4545H42.5522V14.4943H42.6715C42.7454 14.3807 42.8477 14.2358 42.9783 14.0597C43.1119 13.8807 43.3022 13.7216 43.5494 13.5824C43.7994 13.4403 44.1374 13.3693 44.5636 13.3693C45.1147 13.3693 45.6005 13.5071 46.021 13.7827C46.4414 14.0582 46.7695 14.4489 47.0053 14.9545C47.2411 15.4602 47.359 16.0568 47.359 16.7443C47.359 17.4375 47.2411 18.0384 47.0053 18.5469C46.7695 19.0526 46.4428 19.4446 46.0252 19.723C45.6076 19.9986 45.1261 20.1364 44.5806 20.1364C44.1602 20.1364 43.8235 20.0668 43.5707 19.9276C43.3178 19.7855 43.1232 19.625 42.9869 19.446C42.8505 19.2642 42.7454 19.1136 42.6715 18.9943H42.5863V22.4545H41.5806ZM42.5692 16.7273C42.5692 17.2216 42.6417 17.6577 42.7866 18.0355C42.9315 18.4105 43.1431 18.7045 43.4215 18.9176C43.6999 19.1278 44.0408 19.233 44.4442 19.233C44.8647 19.233 45.2156 19.1222 45.4968 18.9006C45.7809 18.6761 45.994 18.375 46.136 17.9972C46.2809 17.6165 46.3533 17.1932 46.3533 16.7273C46.3533 16.267 46.2823 15.8523 46.1403 15.483C46.0011 15.1108 45.7894 14.8168 45.5053 14.6009C45.2241 14.3821 44.8704 14.2727 44.4442 14.2727C44.0352 14.2727 43.6914 14.3764 43.413 14.5838C43.1346 14.7884 42.9244 15.0753 42.7823 15.4446C42.6403 15.8111 42.5692 16.2386 42.5692 16.7273ZM49.8988 18.517L53.0522 13.4545H54.2113V20H53.2056V14.9375L50.0692 20H48.8931V13.4545H49.8988V18.517ZM55.4737 20V19.0625H55.7124C55.9084 19.0625 56.0717 19.0241 56.2024 18.9474C56.3331 18.8679 56.4382 18.7301 56.5178 18.5341C56.6001 18.3352 56.6626 18.0597 56.7053 17.7074C56.7507 17.3523 56.7834 16.9006 56.8033 16.3523L56.9226 13.4545H61.2862V20H60.2805V14.392H57.8771L57.7749 16.7273C57.7521 17.2642 57.7038 17.7372 57.63 18.1463C57.5589 18.5526 57.4496 18.8935 57.3018 19.169C57.157 19.4446 56.9638 19.652 56.7223 19.7912C56.4808 19.9304 56.1783 20 55.8146 20H55.4737ZM65.7905 20.1364C65.1996 20.1364 64.6811 19.9957 64.2351 19.7145C63.7919 19.4332 63.4453 19.0398 63.1953 18.5341C62.9482 18.0284 62.8246 17.4375 62.8246 16.7614C62.8246 16.0795 62.9482 15.4844 63.1953 14.9759C63.4453 14.4673 63.7919 14.0724 64.2351 13.7912C64.6811 13.5099 65.1996 13.3693 65.7905 13.3693C66.3814 13.3693 66.8984 13.5099 67.3416 13.7912C67.7876 14.0724 68.1342 14.4673 68.3814 14.9759C68.6314 15.4844 68.7564 16.0795 68.7564 16.7614C68.7564 17.4375 68.6314 18.0284 68.3814 18.5341C68.1342 19.0398 67.7876 19.4332 67.3416 19.7145C66.8984 19.9957 66.3814 20.1364 65.7905 20.1364ZM65.7905 19.233C66.2393 19.233 66.6087 19.1179 66.8984 18.8878C67.1882 18.6577 67.4027 18.3551 67.5419 17.9801C67.6811 17.6051 67.7507 17.1989 67.7507 16.7614C67.7507 16.3239 67.6811 15.9162 67.5419 15.5384C67.4027 15.1605 67.1882 14.8551 66.8984 14.6222C66.6087 14.3892 66.2393 14.2727 65.7905 14.2727C65.3416 14.2727 64.9723 14.3892 64.6825 14.6222C64.3928 14.8551 64.1783 15.1605 64.0391 15.5384C63.8999 15.9162 63.8303 16.3239 63.8303 16.7614C63.8303 17.1989 63.8999 17.6051 64.0391 17.9801C64.1783 18.3551 64.3928 18.6577 64.6825 18.8878C64.9723 19.1179 65.3416 19.233 65.7905 19.233ZM69.6129 20L72.272 16.6761L69.647 13.4545H70.8402L73.022 16.25H73.5675V13.4545H74.5732V16.25H75.1016L77.2834 13.4545H78.4766L75.8686 16.6761L78.5107 20H77.3004L75.0845 17.1875H74.5732V20H73.5675V17.1875H73.0561L70.8232 20H69.6129ZM82.4226 20.1364C81.7919 20.1364 81.2479 19.9972 80.7905 19.7188C80.3359 19.4375 79.9851 19.0455 79.7379 18.5426C79.4936 18.0369 79.3714 17.4489 79.3714 16.7784C79.3714 16.108 79.4936 15.517 79.7379 15.0057C79.9851 14.4915 80.3288 14.0909 80.7692 13.804C81.2124 13.5142 81.7294 13.3693 82.3203 13.3693C82.6612 13.3693 82.9979 13.4261 83.3303 13.5398C83.6626 13.6534 83.9652 13.8381 84.2379 14.0938C84.5107 14.3466 84.728 14.6818 84.8899 15.0994C85.0518 15.517 85.1328 16.0312 85.1328 16.642V17.0682H80.0874V16.1989H84.1101C84.1101 15.8295 84.0362 15.5 83.8885 15.2102C83.7436 14.9205 83.5362 14.6918 83.2663 14.5241C82.9993 14.3565 82.6839 14.2727 82.3203 14.2727C81.9197 14.2727 81.5732 14.3722 81.2805 14.571C80.9908 14.767 80.7678 15.0227 80.6115 15.3381C80.4553 15.6534 80.3771 15.9915 80.3771 16.3523V16.9318C80.3771 17.4261 80.4624 17.8452 80.6328 18.1889C80.8061 18.5298 81.0462 18.7898 81.353 18.9688C81.6598 19.1449 82.0163 19.233 82.4226 19.233C82.6868 19.233 82.9254 19.196 83.1385 19.1222C83.3544 19.0455 83.5405 18.9318 83.6967 18.7812C83.853 18.6278 83.9737 18.4375 84.0589 18.2102L85.0305 18.483C84.9283 18.8125 84.7564 19.1023 84.5149 19.3523C84.2734 19.5994 83.9751 19.7926 83.62 19.9318C83.2649 20.0682 82.8658 20.1364 82.4226 20.1364ZM91.0433 16.267V17.2045H87.4297V16.267H91.0433ZM87.6683 13.4545V20H86.6626V13.4545H87.6683ZM91.8104 13.4545V20H90.8047V13.4545H91.8104ZM94.6527 18.517L97.8061 13.4545H98.9652V20H97.9595V14.9375L94.8232 20H93.647V13.4545H94.6527V18.517ZM104.745 20V14.375H103.006C102.614 14.375 102.306 14.4659 102.081 14.6477C101.857 14.8295 101.745 15.0795 101.745 15.3977C101.745 15.7102 101.846 15.956 102.047 16.1349C102.252 16.3139 102.532 16.4034 102.887 16.4034H105V17.3409H102.887C102.444 17.3409 102.061 17.2628 101.74 17.1065C101.419 16.9503 101.172 16.7273 100.999 16.4375C100.826 16.1449 100.739 15.7983 100.739 15.3977C100.739 14.9943 100.83 14.6477 101.012 14.358C101.194 14.0682 101.453 13.8452 101.792 13.6889C102.132 13.5327 102.537 13.4545 103.006 13.4545H105.699V20H104.745ZM100.381 20L102.239 16.7443H103.33L101.472 20H100.381Z" fill="white"/>
<defs>
<clipPath id="clip0_95_37">
<rect width="12" height="16" fill="white" transform="translate(16 8)"/>
</clipPath>
</defs>
</svg>
