<svg width="116" height="32" viewBox="0 0 116 32" fill="none" xmlns="http://www.w3.org/2000/svg">
<rect x="0.5" y="0.5" width="115" height="31" rx="15.5" stroke="#525252"/>
<path d="M21.3333 16.6667V19.3333M26.6667 15.3333V19.3333M24 12.6667V19.3333M21.2 22H26.8C27.9201 22 28.4802 22 28.908 21.782C29.2843 21.5903 29.5903 21.2843 29.782 20.908C30 20.4802 30 19.9201 30 18.8V13.2C30 12.0799 30 11.5198 29.782 11.092C29.5903 10.7157 29.2843 10.4097 28.908 10.218C28.4802 10 27.9201 10 26.8 10H21.2C20.0799 10 19.5198 10 19.092 10.218C18.7157 10.4097 18.4097 10.7157 18.218 11.092C18 11.5198 18 12.0799 18 13.2V18.8C18 19.9201 18 20.4802 18.218 20.908C18.4097 21.2843 18.7157 21.5903 19.092 21.782C19.5198 22 20.0799 22 21.2 22Z" stroke="white" stroke-linecap="round" stroke-linejoin="round"/>
<path d="M36.3068 22.1136V19.0625H36.8693C37.0625 18.8864 37.2443 18.6378 37.4148 18.3168C37.5881 17.9929 37.7344 17.5611 37.8537 17.0213C37.9759 16.4787 38.0568 15.7898 38.0966 14.9545L38.2841 11.2727H43.4659V19.0625H44.4716V22.0966H43.4659V20H37.3125V22.1136H36.3068ZM38.1307 19.0625H42.4602V12.2102H39.2386L39.1023 14.9545C39.0682 15.5909 39.0085 16.1676 38.9233 16.6847C38.8381 17.1989 38.7287 17.6548 38.5952 18.0526C38.4616 18.4474 38.3068 18.7841 38.1307 19.0625ZM47.8583 20.1534C47.4435 20.1534 47.0671 20.0753 46.729 19.919C46.391 19.7599 46.1225 19.5312 45.9237 19.233C45.7248 18.9318 45.6254 18.5682 45.6254 18.142C45.6254 17.767 45.6992 17.4631 45.8469 17.2301C45.9947 16.9943 46.1921 16.8097 46.4393 16.6761C46.6864 16.5426 46.9592 16.4432 47.2575 16.3778C47.5586 16.3097 47.8612 16.2557 48.1651 16.2159C48.5629 16.1648 48.8853 16.1264 49.1325 16.1009C49.3825 16.0724 49.5643 16.0256 49.6779 15.9602C49.7944 15.8949 49.8526 15.7812 49.8526 15.6193V15.5852C49.8526 15.1648 49.7376 14.8381 49.5075 14.6051C49.2802 14.3722 48.935 14.2557 48.4719 14.2557C47.9918 14.2557 47.6154 14.3608 47.3427 14.571C47.07 14.7812 46.8782 15.0057 46.7674 15.2443L45.8129 14.9034C45.9833 14.5057 46.2106 14.196 46.4947 13.9744C46.7816 13.75 47.0941 13.5937 47.4322 13.5057C47.7731 13.4148 48.1083 13.3693 48.4379 13.3693C48.6481 13.3693 48.8896 13.3949 49.1623 13.446C49.4379 13.4943 49.7035 13.5952 49.9592 13.7486C50.2177 13.902 50.4322 14.1335 50.6026 14.4432C50.7731 14.7528 50.8583 15.1676 50.8583 15.6875V20H49.8526V19.1136H49.8015C49.7333 19.2557 49.6197 19.4077 49.4606 19.5696C49.3015 19.7315 49.0898 19.8693 48.8256 19.983C48.5614 20.0966 48.239 20.1534 47.8583 20.1534ZM48.0117 19.25C48.4094 19.25 48.7447 19.1719 49.0174 19.0156C49.293 18.8594 49.5004 18.6577 49.6396 18.4105C49.7816 18.1634 49.8526 17.9034 49.8526 17.6307V16.7102C49.81 16.7614 49.7163 16.8082 49.5714 16.8509C49.4293 16.8906 49.2646 16.9261 49.0771 16.9574C48.8924 16.9858 48.712 17.0114 48.5359 17.0341C48.3626 17.054 48.2219 17.071 48.114 17.0852C47.8526 17.1193 47.6083 17.1747 47.381 17.2514C47.1566 17.3253 46.9748 17.4375 46.8356 17.5881C46.6992 17.7358 46.631 17.9375 46.631 18.1932C46.631 18.5426 46.7603 18.8068 47.0188 18.9858C47.2802 19.1619 47.6112 19.25 48.0117 19.25ZM52.6939 13.4545H53.6996V19.0625H56.1712V13.4545H57.1768V19.0625H59.6484V13.4545H60.6541V20H52.6939V13.4545ZM67.3487 11L67.8601 11.6136C67.6612 11.8068 67.4311 11.9418 67.1697 12.0185C66.9084 12.0952 66.6129 12.142 66.2834 12.1591C65.9538 12.1761 65.5874 12.1932 65.1839 12.2102C64.7294 12.2273 64.353 12.3381 64.0547 12.5426C63.7564 12.7472 63.5263 13.0426 63.3643 13.429C63.2024 13.8153 63.0987 14.2898 63.0533 14.8523H63.1385C63.3601 14.4432 63.6669 14.142 64.0589 13.9489C64.451 13.7557 64.8714 13.6591 65.3203 13.6591C65.8317 13.6591 66.2919 13.7784 66.701 14.017C67.1101 14.2557 67.4339 14.6094 67.6726 15.0781C67.9112 15.5469 68.0305 16.125 68.0305 16.8125C68.0305 17.4972 67.9084 18.0881 67.6641 18.5852C67.4226 19.0824 67.0831 19.4659 66.6456 19.7358C66.2109 20.0028 65.701 20.1364 65.1158 20.1364C64.5305 20.1364 64.0178 19.9986 63.5774 19.723C63.1371 19.4446 62.7947 19.0327 62.5504 18.4872C62.3061 17.9389 62.1839 17.2614 62.1839 16.4545V15.7557C62.1839 14.2983 62.4311 13.1932 62.9254 12.4403C63.4226 11.6875 64.1697 11.2983 65.1669 11.2727C65.5192 11.2614 65.8331 11.2585 66.1087 11.2642C66.3842 11.2699 66.6243 11.2571 66.8288 11.2259C67.0334 11.1946 67.2067 11.1193 67.3487 11ZM65.1158 19.233C65.5107 19.233 65.8501 19.1335 66.1342 18.9347C66.4212 18.7358 66.6413 18.456 66.7947 18.0952C66.9482 17.7315 67.0249 17.304 67.0249 16.8125C67.0249 16.3352 66.9467 15.929 66.7905 15.5938C66.6371 15.2585 66.4169 15.0028 66.13 14.8267C65.843 14.6506 65.4993 14.5625 65.0987 14.5625C64.8061 14.5625 64.5433 14.6122 64.3104 14.7116C64.0774 14.8111 63.8786 14.9574 63.7138 15.1506C63.549 15.3437 63.4212 15.5795 63.3303 15.858C63.2422 16.1364 63.1953 16.4545 63.1896 16.8125C63.1896 17.5455 63.3615 18.1321 63.7053 18.5724C64.049 19.0128 64.5192 19.233 65.1158 19.233ZM72.228 20.1364C71.6371 20.1364 71.1186 19.9957 70.6726 19.7145C70.2294 19.4332 69.8828 19.0398 69.6328 18.5341C69.3857 18.0284 69.2621 17.4375 69.2621 16.7614C69.2621 16.0795 69.3857 15.4844 69.6328 14.9759C69.8828 14.4673 70.2294 14.0724 70.6726 13.7912C71.1186 13.5099 71.6371 13.3693 72.228 13.3693C72.8189 13.3693 73.3359 13.5099 73.7791 13.7912C74.2251 14.0724 74.5717 14.4673 74.8189 14.9759C75.0689 15.4844 75.1939 16.0795 75.1939 16.7614C75.1939 17.4375 75.0689 18.0284 74.8189 18.5341C74.5717 19.0398 74.2251 19.4332 73.7791 19.7145C73.3359 19.9957 72.8189 20.1364 72.228 20.1364ZM72.228 19.233C72.6768 19.233 73.0462 19.1179 73.3359 18.8878C73.6257 18.6577 73.8402 18.3551 73.9794 17.9801C74.1186 17.6051 74.1882 17.1989 74.1882 16.7614C74.1882 16.3239 74.1186 15.9162 73.9794 15.5384C73.8402 15.1605 73.6257 14.8551 73.3359 14.6222C73.0462 14.3892 72.6768 14.2727 72.228 14.2727C71.7791 14.2727 71.4098 14.3892 71.12 14.6222C70.8303 14.8551 70.6158 15.1605 70.4766 15.5384C70.3374 15.9162 70.2678 16.3239 70.2678 16.7614C70.2678 17.1989 70.3374 17.6051 70.4766 17.9801C70.6158 18.3551 70.8303 18.6577 71.12 18.8878C71.4098 19.1179 71.7791 19.233 72.228 19.233ZM76.729 22.4545V13.4545H77.7006V14.4943H77.82C77.8938 14.3807 77.9961 14.2358 78.1268 14.0597C78.2603 13.8807 78.4506 13.7216 78.6978 13.5824C78.9478 13.4403 79.2859 13.3693 79.712 13.3693C80.2631 13.3693 80.7489 13.5071 81.1694 13.7827C81.5898 14.0582 81.918 14.4489 82.1538 14.9545C82.3896 15.4602 82.5075 16.0568 82.5075 16.7443C82.5075 17.4375 82.3896 18.0384 82.1538 18.5469C81.918 19.0526 81.5913 19.4446 81.1737 19.723C80.756 19.9986 80.2745 20.1364 79.729 20.1364C79.3086 20.1364 78.9719 20.0668 78.7191 19.9276C78.4663 19.7855 78.2717 19.625 78.1353 19.446C77.9989 19.2642 77.8938 19.1136 77.82 18.9943H77.7347V22.4545H76.729ZM77.7177 16.7273C77.7177 17.2216 77.7901 17.6577 77.935 18.0355C78.0799 18.4105 78.2915 18.7045 78.57 18.9176C78.8484 19.1278 79.1893 19.233 79.5927 19.233C80.0131 19.233 80.364 19.1222 80.6452 18.9006C80.9293 18.6761 81.1424 18.375 81.2844 17.9972C81.4293 17.6165 81.5018 17.1932 81.5018 16.7273C81.5018 16.267 81.4308 15.8523 81.2887 15.483C81.1495 15.1108 80.9379 14.8168 80.6538 14.6009C80.3725 14.3821 80.0188 14.2727 79.5927 14.2727C79.1836 14.2727 78.8398 14.3764 78.5614 14.5838C78.283 14.7884 78.0728 15.0753 77.9308 15.4446C77.7887 15.8111 77.7177 16.2386 77.7177 16.7273ZM83.3427 21.875V19.0625H83.8881C84.0217 18.9233 84.1367 18.7727 84.2333 18.6108C84.3299 18.4489 84.4137 18.2571 84.4847 18.0355C84.5586 17.8111 84.6211 17.5384 84.6722 17.2173C84.7234 16.8935 84.7688 16.5028 84.8086 16.0455L85.0302 13.4545H89.1893V19.0625H90.195V21.875H89.1893V20H84.3484V21.875H83.3427ZM85.0302 19.0625H88.1836V14.392H85.9677L85.7972 16.0455C85.7262 16.7301 85.6381 17.3281 85.533 17.8395C85.4279 18.3509 85.2603 18.7585 85.0302 19.0625ZM92.3991 15.8239H94.2741C95.0412 15.8239 95.6278 16.0185 96.0341 16.4077C96.4403 16.7969 96.6435 17.2898 96.6435 17.8864C96.6435 18.2784 96.5526 18.6349 96.3707 18.956C96.1889 19.2741 95.9219 19.5284 95.5696 19.7188C95.2173 19.9062 94.7855 20 94.2741 20H91.5298V13.4545H92.5355V19.0625H94.2741C94.6719 19.0625 94.9986 18.9574 95.2543 18.7472C95.5099 18.5369 95.6378 18.267 95.6378 17.9375C95.6378 17.5909 95.5099 17.3082 95.2543 17.0895C94.9986 16.8707 94.6719 16.7614 94.2741 16.7614H92.3991V15.8239ZM97.6832 20V13.4545H98.6889V20H97.6832Z" fill="white"/>
</svg>
