<svg width="153" height="32" viewBox="0 0 153 32" fill="none" xmlns="http://www.w3.org/2000/svg">
<rect x="0.5" y="0.5" width="152" height="31" rx="15.5" stroke="#525252"/>
<path d="M18.0003 18.7499C18.0003 16.1665 18.0003 13.5835 18.0003 11.0001C18.0349 10.8818 18.0558 10.7559 18.1071 10.6463C18.3141 10.2027 18.6625 10.0004 19.1207 10.0004C21.2842 10.0004 23.448 10.0004 25.6115 10.0004C26.7052 10.0004 27.7986 9.99916 28.8922 10.001C29.5447 10.0023 29.9988 10.4841 29.9991 11.1792C30.0005 13.6455 30 16.1117 29.9994 18.578C29.9994 18.8385 29.9395 19.0805 29.7898 19.2912C29.5632 19.6109 29.2559 19.7502 28.8858 19.7502C27.9327 19.7499 26.9799 19.7502 26.0269 19.7502H25.8939C26.0477 20.2424 26.1939 20.7161 26.3465 21.187C26.3562 21.2174 26.4152 21.2468 26.4516 21.2472C26.7912 21.2519 27.1311 21.249 27.471 21.2503C27.7079 21.2512 27.8675 21.4053 27.8658 21.6282C27.864 21.8464 27.7064 21.9995 27.4769 21.9995C25.1569 22.0002 22.8372 22.0002 20.5172 21.9995C20.2897 21.9995 20.1321 21.8411 20.1336 21.6226C20.1351 21.4043 20.2927 21.2519 20.5219 21.2506C20.8069 21.249 21.0922 21.2503 21.3772 21.2503C21.5504 21.2503 21.6638 21.1648 21.7174 20.9939C21.8454 20.5843 21.9728 20.1745 22.1049 19.7502C22.0506 19.7502 22.0089 19.7502 21.9672 19.7502C21.0142 19.7502 20.0614 19.7502 19.1083 19.7502C18.7379 19.7502 18.4203 19.6156 18.2113 19.2834C18.1124 19.1262 18.0687 18.9293 18 18.7502L18.0003 18.7499ZM20.133 17.4938C20.133 17.4399 20.133 17.3948 20.133 17.3497C20.133 17.0332 20.1312 16.7163 20.1336 16.3998C20.1356 16.1553 20.2786 16.0047 20.5081 16.0003C20.6056 15.9984 20.7033 16 20.8011 16C21.0309 16 21.0282 15.9987 21.1166 15.7777C21.1451 15.7066 21.1418 15.6587 21.0861 15.6042C20.9798 15.5 20.8785 15.3897 20.7787 15.2783C20.6308 15.113 20.6217 14.9023 20.7691 14.7413C21.0963 14.3835 21.428 14.03 21.7632 13.6805C21.9141 13.5234 22.1119 13.5315 22.2669 13.6874C22.3409 13.7616 22.411 13.8402 22.4826 13.9166C22.6476 14.0926 22.6461 14.0891 22.8642 13.9936C22.9314 13.9642 22.9479 13.9238 22.9461 13.8531C22.942 13.695 22.942 13.5362 22.9461 13.3781C22.9517 13.1621 23.0932 13.0043 23.2939 13.0024C23.7627 12.9977 24.2314 12.998 24.6999 13.0024C24.9065 13.0043 25.0474 13.1627 25.0533 13.3856C25.0562 13.498 25.0539 13.6107 25.0542 13.7231C25.0542 13.9583 25.0556 13.9548 25.2599 14.0494C25.3327 14.0832 25.3785 14.0732 25.4316 14.0106C25.5288 13.8966 25.6321 13.7886 25.7375 13.6831C25.8878 13.5325 26.0859 13.5249 26.2323 13.6774C26.5705 14.0297 26.9048 14.386 27.2344 14.7473C27.3741 14.9004 27.3668 15.1086 27.2315 15.2654C27.1575 15.3512 27.078 15.4317 27.0008 15.514C26.8446 15.6806 26.8481 15.679 26.9297 15.9001C26.9588 15.979 26.997 16.0065 27.0762 16.0025C27.2165 15.995 27.3574 15.9981 27.498 16.0009C27.7196 16.0053 27.8634 16.1578 27.8658 16.3951C27.8687 16.7076 27.8667 17.02 27.8667 17.3325C27.8667 17.3851 27.8667 17.438 27.8667 17.4916H29.2961V17.3466C29.2961 15.3052 29.2961 13.2635 29.2961 11.2221C29.2961 10.8849 29.1719 10.7509 28.859 10.7509C25.6212 10.7509 22.3831 10.7509 19.1453 10.7509C18.8289 10.7509 18.7033 10.8833 18.7033 11.2171C18.7033 13.2629 18.7033 15.3083 18.7033 17.3541C18.7033 17.3989 18.7033 17.4437 18.7033 17.4944H20.1327L20.133 17.4938ZM27.159 16.7599C27.1402 16.7548 27.1329 16.7514 27.1252 16.7514C27.0043 16.7508 26.8831 16.7514 26.7621 16.7498C26.5435 16.7473 26.4396 16.6587 26.3633 16.4392C26.2919 16.2332 26.2124 16.0297 26.1255 15.8306C26.0301 15.6111 26.0445 15.4768 26.2077 15.3018C26.2978 15.205 26.3914 15.112 26.476 15.025C26.3031 14.8399 26.1414 14.6668 25.9688 14.4818C25.8831 14.5766 25.7938 14.6806 25.6999 14.7792C25.5432 14.9439 25.4125 14.9574 25.2121 14.8575C25.0289 14.7661 24.8425 14.6809 24.6529 14.607C24.4334 14.5218 24.3526 14.4148 24.3515 14.1646C24.3509 14.029 24.3515 13.8931 24.3515 13.7598H23.6485C23.6485 13.9069 23.6497 14.0441 23.6485 14.1812C23.6461 14.4085 23.5631 14.5218 23.3658 14.6011C23.1695 14.68 22.9746 14.7648 22.7841 14.8584C22.583 14.957 22.4559 14.9426 22.2971 14.7758C22.2035 14.6774 22.1134 14.5757 22.0324 14.4871C21.8589 14.6721 21.6969 14.845 21.5255 15.0278C21.6074 15.1114 21.6989 15.2016 21.787 15.2955C21.9587 15.479 21.9719 15.6139 21.8677 15.8456C21.7838 16.0325 21.708 16.2245 21.6429 16.4195C21.5619 16.6619 21.4618 16.7486 21.2223 16.7498C21.0952 16.7505 20.9681 16.7498 20.8427 16.7498V17.49H22.2689C22.0679 16.3218 22.8818 15.3312 23.8677 15.2561C24.3359 15.2204 24.7595 15.3587 25.1176 15.6825C25.6418 16.1568 25.8314 16.7714 25.7307 17.4928H27.1599V16.7599H27.159ZM18.7033 18.2543C18.7033 18.3501 18.7033 18.433 18.7033 18.5157C18.7033 18.8704 18.823 18.9998 19.1515 18.9998C22.3843 18.9998 25.6171 18.9998 28.8499 18.9998C28.889 18.9998 28.9283 19.0013 28.9671 18.9979C29.1267 18.9838 29.2653 18.8673 29.2847 18.6998C29.3017 18.5542 29.2882 18.4046 29.2882 18.2543H18.7033ZM22.3814 21.2409H25.618C25.4668 20.7572 25.3204 20.2838 25.1683 19.8126C25.1589 19.7837 25.107 19.7527 25.0744 19.7524C24.3562 19.749 23.6379 19.7493 22.9197 19.7524C22.8894 19.7524 22.8407 19.7794 22.8322 19.8053C22.6796 20.2803 22.5319 20.7575 22.3811 21.2412L22.3814 21.2409ZM23.9963 17.5C24.2928 17.5 24.5892 17.4959 24.8857 17.5025C24.9743 17.5044 25.0072 17.4722 25.0245 17.3842C25.0823 17.0946 25.0442 16.8234 24.91 16.5651C24.6603 16.0842 24.077 15.8725 23.5924 16.0886C23.116 16.3012 22.8498 16.8766 22.979 17.4014C22.9995 17.4844 23.0333 17.5025 23.1067 17.5013C23.4031 17.4972 23.6996 17.4997 23.996 17.4997L23.9963 17.5Z" fill="white"/>
<path d="M36.3068 22.1136V19.0625H36.8693C37.0625 18.8864 37.2443 18.6378 37.4148 18.3168C37.5881 17.9929 37.7344 17.5611 37.8537 17.0213C37.9759 16.4787 38.0568 15.7898 38.0966 14.9545L38.2841 11.2727H43.4659V19.0625H44.4716V22.0966H43.4659V20H37.3125V22.1136H36.3068ZM38.1307 19.0625H42.4602V12.2102H39.2386L39.1023 14.9545C39.0682 15.5909 39.0085 16.1676 38.9233 16.6847C38.8381 17.1989 38.7287 17.6548 38.5952 18.0526C38.4616 18.4474 38.3068 18.7841 38.1307 19.0625ZM46.9379 18.517L50.0913 13.4545H51.2504V20H50.2447V14.9375L47.1083 20H45.9322V13.4545H46.9379V18.517ZM52.6832 18.3295H53.7571C53.7798 18.625 53.9134 18.8494 54.1577 19.0028C54.4048 19.1562 54.7259 19.233 55.1207 19.233C55.5241 19.233 55.8693 19.1506 56.1562 18.9858C56.4432 18.8182 56.5866 18.5483 56.5866 18.1761C56.5866 17.9574 56.5327 17.767 56.4247 17.6051C56.3168 17.4403 56.1648 17.3125 55.9688 17.2216C55.7727 17.1307 55.5412 17.0852 55.2741 17.0852H54.1491V16.1818H55.2741C55.6747 16.1818 55.9702 16.0909 56.1605 15.9091C56.3537 15.7273 56.4503 15.5 56.4503 15.2273C56.4503 14.9347 56.3466 14.7003 56.1392 14.5241C55.9318 14.3452 55.6378 14.2557 55.2571 14.2557C54.8736 14.2557 54.554 14.3423 54.2983 14.5156C54.0426 14.6861 53.9077 14.9062 53.8935 15.1761H52.8366C52.848 14.8239 52.956 14.5128 53.1605 14.2429C53.3651 13.9702 53.6435 13.7571 53.9957 13.6037C54.348 13.4474 54.7514 13.3693 55.206 13.3693C55.6662 13.3693 56.0653 13.4503 56.4034 13.6122C56.7443 13.7713 57.0071 13.9886 57.1918 14.2642C57.3793 14.5369 57.473 14.8466 57.473 15.1932C57.473 15.5625 57.3693 15.8608 57.1619 16.0881C56.9545 16.3153 56.6946 16.4773 56.3821 16.5739V16.642C56.6293 16.6591 56.8438 16.7386 57.0256 16.8807C57.2102 17.0199 57.3537 17.2031 57.456 17.4304C57.5582 17.6548 57.6094 17.9034 57.6094 18.1761C57.6094 18.5739 57.5028 18.9205 57.2898 19.2159C57.0767 19.5085 56.7841 19.7358 56.4119 19.8977C56.0398 20.0568 55.6151 20.1364 55.1378 20.1364C54.6747 20.1364 54.2599 20.0611 53.8935 19.9105C53.527 19.7571 53.2358 19.5455 53.0199 19.2756C52.8068 19.0028 52.6946 18.6875 52.6832 18.3295ZM60.9482 20.1534C60.5334 20.1534 60.157 20.0753 59.8189 19.919C59.4808 19.7599 59.2124 19.5312 59.0135 19.233C58.8146 18.9318 58.7152 18.5682 58.7152 18.142C58.7152 17.767 58.7891 17.4631 58.9368 17.2301C59.0845 16.9943 59.282 16.8097 59.5291 16.6761C59.7763 16.5426 60.049 16.4432 60.3473 16.3778C60.6484 16.3097 60.951 16.2557 61.255 16.2159C61.6527 16.1648 61.9751 16.1264 62.2223 16.1009C62.4723 16.0724 62.6541 16.0256 62.7678 15.9602C62.8842 15.8949 62.9425 15.7812 62.9425 15.6193V15.5852C62.9425 15.1648 62.8274 14.8381 62.5973 14.6051C62.37 14.3722 62.0249 14.2557 61.5618 14.2557C61.0817 14.2557 60.7053 14.3608 60.4325 14.571C60.1598 14.7812 59.968 15.0057 59.8572 15.2443L58.9027 14.9034C59.0732 14.5057 59.3004 14.196 59.5845 13.9744C59.8714 13.75 60.1839 13.5937 60.522 13.5057C60.8629 13.4148 61.1982 13.3693 61.5277 13.3693C61.7379 13.3693 61.9794 13.3949 62.2521 13.446C62.5277 13.4943 62.7933 13.5952 63.049 13.7486C63.3075 13.902 63.522 14.1335 63.6925 14.4432C63.8629 14.7528 63.9482 15.1676 63.9482 15.6875V20H62.9425V19.1136H62.8913C62.8232 19.2557 62.7095 19.4077 62.5504 19.5696C62.3913 19.7315 62.1797 19.8693 61.9155 19.983C61.6513 20.0966 61.3288 20.1534 60.9482 20.1534ZM61.1016 19.25C61.4993 19.25 61.8345 19.1719 62.1072 19.0156C62.3828 18.8594 62.5902 18.6577 62.7294 18.4105C62.8714 18.1634 62.9425 17.9034 62.9425 17.6307V16.7102C62.8999 16.7614 62.8061 16.8082 62.6612 16.8509C62.5192 16.8906 62.3544 16.9261 62.1669 16.9574C61.9822 16.9858 61.8018 17.0114 61.6257 17.0341C61.4524 17.054 61.3118 17.071 61.2038 17.0852C60.9425 17.1193 60.6982 17.1747 60.4709 17.2514C60.2464 17.3253 60.0646 17.4375 59.9254 17.5881C59.7891 17.7358 59.7209 17.9375 59.7209 18.1932C59.7209 18.5426 59.8501 18.8068 60.1087 18.9858C60.37 19.1619 60.701 19.25 61.1016 19.25ZM66.7894 18.517L69.9428 13.4545H71.1019V20H70.0962V14.9375L66.9599 20H65.7837V13.4545H66.7894V18.517ZM69.2781 11.2727H70.2156C70.2156 11.733 70.0565 12.1094 69.7383 12.402C69.4201 12.6946 68.9883 12.8409 68.4428 12.8409C67.9059 12.8409 67.4783 12.6946 67.1602 12.402C66.8448 12.1094 66.6871 11.733 66.6871 11.2727H67.6246C67.6246 11.4943 67.6857 11.6889 67.8079 11.8565C67.9329 12.0241 68.1445 12.108 68.4428 12.108C68.7411 12.108 68.9542 12.0241 69.082 11.8565C69.2127 11.6889 69.2781 11.4943 69.2781 11.2727ZM77.3246 16.267V17.2045H73.7109V16.267H77.3246ZM73.9496 13.4545V20H72.9439V13.4545H73.9496ZM78.0916 13.4545V20H77.0859V13.4545H78.0916ZM83.6783 15.7898V16.7273H79.8601V15.7898H83.6783ZM88.1069 20.1364C87.4933 20.1364 86.9648 19.9915 86.5217 19.7017C86.0785 19.4119 85.7376 19.0128 85.4989 18.5043C85.2603 17.9957 85.141 17.4148 85.141 16.7614C85.141 16.0966 85.2631 15.5099 85.5075 15.0014C85.7546 14.4901 86.0984 14.0909 86.5387 13.804C86.9819 13.5142 87.4989 13.3693 88.0898 13.3693C88.5501 13.3693 88.9648 13.4545 89.3342 13.625C89.7035 13.7955 90.006 14.0341 90.2418 14.3409C90.4776 14.6477 90.6239 15.0057 90.6808 15.4148H89.6751C89.5984 15.1165 89.4279 14.8523 89.1637 14.6222C88.9023 14.3892 88.5501 14.2727 88.1069 14.2727C87.7148 14.2727 87.3711 14.375 87.0756 14.5795C86.783 14.7812 86.5543 15.0668 86.3896 15.4361C86.2276 15.8026 86.1467 16.233 86.1467 16.7273C86.1467 17.233 86.2262 17.6733 86.3853 18.0483C86.5472 18.4233 86.7745 18.7145 87.0671 18.9219C87.3626 19.1293 87.7092 19.233 88.1069 19.233C88.3683 19.233 88.6055 19.1875 88.8185 19.0966C89.0316 19.0057 89.212 18.875 89.3597 18.7045C89.5075 18.5341 89.6126 18.3295 89.6751 18.0909H90.6808C90.6239 18.4773 90.4833 18.8253 90.2589 19.1349C90.0373 19.4418 89.7433 19.6861 89.3768 19.8679C89.0131 20.0469 88.5898 20.1364 88.1069 20.1364ZM93.1566 18.517L96.31 13.4545H97.4691V20H96.4634V14.9375L93.3271 20H92.1509V13.4545H93.1566V18.517ZM101.97 20.1364C101.357 20.1364 100.828 19.9915 100.385 19.7017C99.9418 19.4119 99.6009 19.0128 99.3622 18.5043C99.1236 17.9957 99.0043 17.4148 99.0043 16.7614C99.0043 16.0966 99.1264 15.5099 99.3707 15.0014C99.6179 14.4901 99.9616 14.0909 100.402 13.804C100.845 13.5142 101.362 13.3693 101.953 13.3693C102.413 13.3693 102.828 13.4545 103.197 13.625C103.567 13.7955 103.869 14.0341 104.105 14.3409C104.341 14.6477 104.487 15.0057 104.544 15.4148H103.538C103.462 15.1165 103.291 14.8523 103.027 14.6222C102.766 14.3892 102.413 14.2727 101.97 14.2727C101.578 14.2727 101.234 14.375 100.939 14.5795C100.646 14.7812 100.418 15.0668 100.253 15.4361C100.091 15.8026 100.01 16.233 100.01 16.7273C100.01 17.233 100.089 17.6733 100.249 18.0483C100.411 18.4233 100.638 18.7145 100.93 18.9219C101.226 19.1293 101.572 19.233 101.97 19.233C102.232 19.233 102.469 19.1875 102.682 19.0966C102.895 19.0057 103.075 18.875 103.223 18.7045C103.371 18.5341 103.476 18.3295 103.538 18.0909H104.544C104.487 18.4773 104.347 18.8253 104.122 19.1349C103.901 19.4418 103.607 19.6861 103.24 19.8679C102.876 20.0469 102.453 20.1364 101.97 20.1364ZM105.499 14.392V13.4545H110.817V14.392H108.669V20H107.663V14.392H105.499ZM114.688 20.1364C114.058 20.1364 113.513 19.9972 113.056 19.7188C112.602 19.4375 112.251 19.0455 112.004 18.5426C111.759 18.0369 111.637 17.4489 111.637 16.7784C111.637 16.108 111.759 15.517 112.004 15.0057C112.251 14.4915 112.594 14.0909 113.035 13.804C113.478 13.5142 113.995 13.3693 114.586 13.3693C114.927 13.3693 115.263 13.4261 115.596 13.5398C115.928 13.6534 116.231 13.8381 116.504 14.0938C116.776 14.3466 116.994 14.6818 117.156 15.0994C117.317 15.517 117.398 16.0312 117.398 16.642V17.0682H112.353V16.1989H116.376C116.376 15.8295 116.302 15.5 116.154 15.2102C116.009 14.9205 115.802 14.6918 115.532 14.5241C115.265 14.3565 114.95 14.2727 114.586 14.2727C114.185 14.2727 113.839 14.3722 113.546 14.571C113.256 14.767 113.033 15.0227 112.877 15.3381C112.721 15.6534 112.643 15.9915 112.643 16.3523V16.9318C112.643 17.4261 112.728 17.8452 112.898 18.1889C113.072 18.5298 113.312 18.7898 113.619 18.9688C113.925 19.1449 114.282 19.233 114.688 19.233C114.952 19.233 115.191 19.196 115.404 19.1222C115.62 19.0455 115.806 18.9318 115.962 18.7812C116.119 18.6278 116.239 18.4375 116.325 18.2102L117.296 18.483C117.194 18.8125 117.022 19.1023 116.781 19.3523C116.539 19.5994 116.241 19.7926 115.886 19.9318C115.531 20.0682 115.131 20.1364 114.688 20.1364ZM122.508 18.6364L124.792 13.4545H125.746L122.917 20H122.099L119.32 13.4545H120.258L122.508 18.6364ZM119.934 13.4545V20H118.928V13.4545H119.934ZM125.082 20V13.4545H126.087V20H125.082ZM128.798 15.8239H130.673C131.44 15.8239 132.026 16.0185 132.433 16.4077C132.839 16.7969 133.042 17.2898 133.042 17.8864C133.042 18.2784 132.951 18.6349 132.769 18.956C132.587 19.2741 132.32 19.5284 131.968 19.7188C131.616 19.9062 131.184 20 130.673 20H127.928V13.4545H128.934V19.0625H130.673C131.07 19.0625 131.397 18.9574 131.653 18.7472C131.908 18.5369 132.036 18.267 132.036 17.9375C132.036 17.5909 131.908 17.3082 131.653 17.0895C131.397 16.8707 131.07 16.7614 130.673 16.7614H128.798V15.8239ZM134.082 20V13.4545H135.087V20H134.082Z" fill="white"/>
</svg>
