<svg width="145" height="32" viewBox="0 0 145 32" fill="none" xmlns="http://www.w3.org/2000/svg">
<rect x="0.5" y="0.5" width="144" height="31" rx="15.5" stroke="#525252"/>
<path d="M24.7 15.3333H28.06C28.8441 15.3333 29.2361 15.3333 29.5356 15.4787C29.799 15.6065 30.0132 15.8105 30.1474 16.0613C30.3 16.3466 30.3 16.7199 30.3 17.4667V22M24.7 22V12.1333C24.7 11.3866 24.7 11.0132 24.5474 10.728C24.4132 10.4771 24.199 10.2732 23.9356 10.1453C23.6361 10 23.2441 10 22.46 10H19.94C19.1559 10 18.7639 10 18.4644 10.1453C18.201 10.2732 17.9868 10.4771 17.8526 10.728C17.7 11.0132 17.7 11.3866 17.7 12.1333V22M31 22H17M20.15 12.6667H22.25M20.15 15.3333H22.25M20.15 18H22.25" stroke="white" stroke-linecap="round" stroke-linejoin="round"/>
<path d="M42.1875 20L39.1875 15.9943H38.1136V20H37.0568V11.2727H38.1136V15.0568H38.5739L42.0682 11.2727H43.3295L39.8011 15.108L43.4489 20H42.1875ZM46.8569 20.1364C46.266 20.1364 45.7475 19.9957 45.3015 19.7145C44.8583 19.4332 44.5117 19.0398 44.2617 18.5341C44.0146 18.0284 43.891 17.4375 43.891 16.7614C43.891 16.0795 44.0146 15.4844 44.2617 14.9759C44.5117 14.4673 44.8583 14.0724 45.3015 13.7912C45.7475 13.5099 46.266 13.3693 46.8569 13.3693C47.4478 13.3693 47.9648 13.5099 48.408 13.7912C48.854 14.0724 49.2006 14.4673 49.4478 14.9759C49.6978 15.4844 49.8228 16.0795 49.8228 16.7614C49.8228 17.4375 49.6978 18.0284 49.4478 18.5341C49.2006 19.0398 48.854 19.4332 48.408 19.7145C47.9648 19.9957 47.4478 20.1364 46.8569 20.1364ZM46.8569 19.233C47.3058 19.233 47.6751 19.1179 47.9648 18.8878C48.2546 18.6577 48.4691 18.3551 48.6083 17.9801C48.7475 17.6051 48.8171 17.1989 48.8171 16.7614C48.8171 16.3239 48.7475 15.9162 48.6083 15.5384C48.4691 15.1605 48.2546 14.8551 47.9648 14.6222C47.6751 14.3892 47.3058 14.2727 46.8569 14.2727C46.408 14.2727 46.0387 14.3892 45.7489 14.6222C45.4592 14.8551 45.2447 15.1605 45.1055 15.5384C44.9663 15.9162 44.8967 16.3239 44.8967 16.7614C44.8967 17.1989 44.9663 17.6051 45.1055 17.9801C45.2447 18.3551 45.4592 18.6577 45.7489 18.8878C46.0387 19.1179 46.408 19.233 46.8569 19.233ZM51.358 22.4545V13.4545H52.3295V14.4943H52.4489C52.5227 14.3807 52.625 14.2358 52.7557 14.0597C52.8892 13.8807 53.0795 13.7216 53.3267 13.5824C53.5767 13.4403 53.9148 13.3693 54.3409 13.3693C54.892 13.3693 55.3778 13.5071 55.7983 13.7827C56.2188 14.0582 56.5469 14.4489 56.7827 14.9545C57.0185 15.4602 57.1364 16.0568 57.1364 16.7443C57.1364 17.4375 57.0185 18.0384 56.7827 18.5469C56.5469 19.0526 56.2202 19.4446 55.8026 19.723C55.3849 19.9986 54.9034 20.1364 54.358 20.1364C53.9375 20.1364 53.6009 20.0668 53.348 19.9276C53.0952 19.7855 52.9006 19.625 52.7642 19.446C52.6278 19.2642 52.5227 19.1136 52.4489 18.9943H52.3636V22.4545H51.358ZM52.3466 16.7273C52.3466 17.2216 52.419 17.6577 52.5639 18.0355C52.7088 18.4105 52.9205 18.7045 53.1989 18.9176C53.4773 19.1278 53.8182 19.233 54.2216 19.233C54.642 19.233 54.9929 19.1222 55.2741 18.9006C55.5582 18.6761 55.7713 18.375 55.9134 17.9972C56.0582 17.6165 56.1307 17.1932 56.1307 16.7273C56.1307 16.267 56.0597 15.8523 55.9176 15.483C55.7784 15.1108 55.5668 14.8168 55.2827 14.6009C55.0014 14.3821 54.6477 14.2727 54.2216 14.2727C53.8125 14.2727 53.4688 14.3764 53.1903 14.5838C52.9119 14.7884 52.7017 15.0753 52.5597 15.4446C52.4176 15.8111 52.3466 16.2386 52.3466 16.7273ZM58.6705 20V13.4545H63.8182V20H62.8125V14.392H59.6761V20H58.6705ZM68.3139 20.1364C67.723 20.1364 67.2045 19.9957 66.7585 19.7145C66.3153 19.4332 65.9688 19.0398 65.7188 18.5341C65.4716 18.0284 65.348 17.4375 65.348 16.7614C65.348 16.0795 65.4716 15.4844 65.7188 14.9759C65.9688 14.4673 66.3153 14.0724 66.7585 13.7912C67.2045 13.5099 67.723 13.3693 68.3139 13.3693C68.9048 13.3693 69.4219 13.5099 69.8651 13.7912C70.3111 14.0724 70.6577 14.4673 70.9048 14.9759C71.1548 15.4844 71.2798 16.0795 71.2798 16.7614C71.2798 17.4375 71.1548 18.0284 70.9048 18.5341C70.6577 19.0398 70.3111 19.4332 69.8651 19.7145C69.4219 19.9957 68.9048 20.1364 68.3139 20.1364ZM68.3139 19.233C68.7628 19.233 69.1321 19.1179 69.4219 18.8878C69.7116 18.6577 69.9261 18.3551 70.0653 17.9801C70.2045 17.6051 70.2741 17.1989 70.2741 16.7614C70.2741 16.3239 70.2045 15.9162 70.0653 15.5384C69.9261 15.1605 69.7116 14.8551 69.4219 14.6222C69.1321 14.3892 68.7628 14.2727 68.3139 14.2727C67.8651 14.2727 67.4957 14.3892 67.206 14.6222C66.9162 14.8551 66.7017 15.1605 66.5625 15.5384C66.4233 15.9162 66.3537 16.3239 66.3537 16.7614C66.3537 17.1989 66.4233 17.6051 66.5625 17.9801C66.7017 18.3551 66.9162 18.6577 67.206 18.8878C67.4957 19.1179 67.8651 19.233 68.3139 19.233ZM72.815 22.4545V13.4545H73.7866V14.4943H73.9059C73.9798 14.3807 74.082 14.2358 74.2127 14.0597C74.3462 13.8807 74.5366 13.7216 74.7837 13.5824C75.0337 13.4403 75.3718 13.3693 75.7979 13.3693C76.3491 13.3693 76.8349 13.5071 77.2553 13.7827C77.6758 14.0582 78.0039 14.4489 78.2397 14.9545C78.4755 15.4602 78.5934 16.0568 78.5934 16.7443C78.5934 17.4375 78.4755 18.0384 78.2397 18.5469C78.0039 19.0526 77.6772 19.4446 77.2596 19.723C76.842 19.9986 76.3604 20.1364 75.815 20.1364C75.3945 20.1364 75.0579 20.0668 74.805 19.9276C74.5522 19.7855 74.3576 19.625 74.2212 19.446C74.0849 19.2642 73.9798 19.1136 73.9059 18.9943H73.8207V22.4545H72.815ZM73.8036 16.7273C73.8036 17.2216 73.8761 17.6577 74.021 18.0355C74.1658 18.4105 74.3775 18.7045 74.6559 18.9176C74.9343 19.1278 75.2752 19.233 75.6786 19.233C76.0991 19.233 76.4499 19.1222 76.7312 18.9006C77.0153 18.6761 77.2283 18.375 77.3704 17.9972C77.5153 17.6165 77.5877 17.1932 77.5877 16.7273C77.5877 16.267 77.5167 15.8523 77.3746 15.483C77.2354 15.1108 77.0238 14.8168 76.7397 14.6009C76.4585 14.3821 76.1048 14.2727 75.6786 14.2727C75.2695 14.2727 74.9258 14.3764 74.6474 14.5838C74.369 14.7884 74.1587 15.0753 74.0167 15.4446C73.8746 15.8111 73.8036 16.2386 73.8036 16.7273ZM82.0536 20.1534C81.6388 20.1534 81.2624 20.0753 80.9244 19.919C80.5863 19.7599 80.3178 19.5312 80.119 19.233C79.9201 18.9318 79.8207 18.5682 79.8207 18.142C79.8207 17.767 79.8945 17.4631 80.0423 17.2301C80.19 16.9943 80.3874 16.8097 80.6346 16.6761C80.8817 16.5426 81.1545 16.4432 81.4528 16.3778C81.7539 16.3097 82.0565 16.2557 82.3604 16.2159C82.7582 16.1648 83.0806 16.1264 83.3278 16.1009C83.5778 16.0724 83.7596 16.0256 83.8732 15.9602C83.9897 15.8949 84.0479 15.7812 84.0479 15.6193V15.5852C84.0479 15.1648 83.9329 14.8381 83.7028 14.6051C83.4755 14.3722 83.1303 14.2557 82.6673 14.2557C82.1871 14.2557 81.8107 14.3608 81.538 14.571C81.2653 14.7812 81.0735 15.0057 80.9627 15.2443L80.0082 14.9034C80.1786 14.5057 80.4059 14.196 80.69 13.9744C80.9769 13.75 81.2894 13.5937 81.6275 13.5057C81.9684 13.4148 82.3036 13.3693 82.6332 13.3693C82.8434 13.3693 83.0849 13.3949 83.3576 13.446C83.6332 13.4943 83.8988 13.5952 84.1545 13.7486C84.413 13.902 84.6275 14.1335 84.7979 14.4432C84.9684 14.7528 85.0536 15.1676 85.0536 15.6875V20H84.0479V19.1136H83.9968C83.9286 19.2557 83.815 19.4077 83.6559 19.5696C83.4968 19.7315 83.2852 19.8693 83.021 19.983C82.7567 20.0966 82.4343 20.1534 82.0536 20.1534ZM82.207 19.25C82.6048 19.25 82.94 19.1719 83.2127 19.0156C83.4883 18.8594 83.6957 18.6577 83.8349 18.4105C83.9769 18.1634 84.0479 17.9034 84.0479 17.6307V16.7102C84.0053 16.7614 83.9116 16.8082 83.7667 16.8509C83.6246 16.8906 83.4599 16.9261 83.2724 16.9574C83.0877 16.9858 82.9073 17.0114 82.7312 17.0341C82.5579 17.054 82.4173 17.071 82.3093 17.0852C82.0479 17.1193 81.8036 17.1747 81.5763 17.2514C81.3519 17.3253 81.1701 17.4375 81.0309 17.5881C80.8945 17.7358 80.8263 17.9375 80.8263 18.1932C80.8263 18.5426 80.9556 18.8068 81.2141 18.9858C81.4755 19.1619 81.8065 19.25 82.207 19.25ZM85.9986 14.392V13.4545H91.3168V14.392H89.169V20H88.1634V14.392H85.9986ZM93.7894 18.517L96.9428 13.4545H98.1019V20H97.0962V14.9375L93.9599 20H92.7837V13.4545H93.7894V18.517ZM99.9439 20V13.4545H102.62C103.325 13.4545 103.884 13.6136 104.299 13.9318C104.714 14.25 104.921 14.6705 104.921 15.1932C104.921 15.5909 104.803 15.8991 104.567 16.1179C104.332 16.3338 104.029 16.4801 103.66 16.5568C103.901 16.5909 104.136 16.6761 104.363 16.8125C104.593 16.9489 104.783 17.1364 104.934 17.375C105.085 17.6108 105.16 17.9006 105.16 18.2443C105.16 18.5795 105.075 18.8793 104.904 19.1435C104.734 19.4077 104.489 19.6165 104.171 19.7699C103.853 19.9233 103.472 20 103.029 20H99.9439ZM100.898 19.0795H103.029C103.376 19.0795 103.647 18.9972 103.843 18.8324C104.039 18.6676 104.137 18.4432 104.137 18.1591C104.137 17.821 104.039 17.5554 103.843 17.3622C103.647 17.1662 103.376 17.0682 103.029 17.0682H100.898V19.0795ZM100.898 16.1989H102.62C102.89 16.1989 103.121 16.1619 103.315 16.0881C103.508 16.0114 103.656 15.9034 103.758 15.7642C103.863 15.6222 103.915 15.4545 103.915 15.2614C103.915 14.9858 103.8 14.7699 103.57 14.6136C103.34 14.4545 103.023 14.375 102.62 14.375H100.898V16.1989ZM111.063 16.267V17.2045H107.449V16.267H111.063ZM107.688 13.4545V20H106.682V13.4545H107.688ZM111.83 13.4545V20H110.824V13.4545H111.83ZM114.536 15.8239H116.411C117.178 15.8239 117.765 16.0185 118.171 16.4077C118.577 16.7969 118.78 17.2898 118.78 17.8864C118.78 18.2784 118.689 18.6349 118.507 18.956C118.326 19.2741 118.059 19.5284 117.706 19.7188C117.354 19.9062 116.922 20 116.411 20H113.667V13.4545H114.672V19.0625H116.411C116.809 19.0625 117.135 18.9574 117.391 18.7472C117.647 18.5369 117.775 18.267 117.775 17.9375C117.775 17.5909 117.647 17.3082 117.391 17.0895C117.135 16.8707 116.809 16.7614 116.411 16.7614H114.536V15.8239ZM119.82 20V13.4545H120.826V20H119.82ZM125.411 20.1364C124.78 20.1364 124.236 19.9972 123.779 19.7188C123.324 19.4375 122.973 19.0455 122.726 18.5426C122.482 18.0369 122.36 17.4489 122.36 16.7784C122.36 16.108 122.482 15.517 122.726 15.0057C122.973 14.4915 123.317 14.0909 123.757 13.804C124.201 13.5142 124.718 13.3693 125.309 13.3693C125.65 13.3693 125.986 13.4261 126.319 13.5398C126.651 13.6534 126.953 13.8381 127.226 14.0938C127.499 14.3466 127.716 14.6818 127.878 15.0994C128.04 15.517 128.121 16.0312 128.121 16.642V17.0682H123.076V16.1989H127.098C127.098 15.8295 127.025 15.5 126.877 15.2102C126.732 14.9205 126.525 14.6918 126.255 14.5241C125.988 14.3565 125.672 14.2727 125.309 14.2727C124.908 14.2727 124.561 14.3722 124.269 14.571C123.979 14.767 123.756 15.0227 123.6 15.3381C123.444 15.6534 123.365 15.9915 123.365 16.3523V16.9318C123.365 17.4261 123.451 17.8452 123.621 18.1889C123.794 18.5298 124.034 18.7898 124.341 18.9688C124.648 19.1449 125.005 19.233 125.411 19.233C125.675 19.233 125.914 19.196 126.127 19.1222C126.343 19.0455 126.529 18.9318 126.685 18.7812C126.841 18.6278 126.962 18.4375 127.047 18.2102L128.019 18.483C127.917 18.8125 127.745 19.1023 127.503 19.3523C127.262 19.5994 126.963 19.7926 126.608 19.9318C126.253 20.0682 125.854 20.1364 125.411 20.1364Z" fill="white"/>
</svg>
