<svg width="144" height="32" viewBox="0 0 144 32" fill="none" xmlns="http://www.w3.org/2000/svg">
<rect x="0.5" y="0.5" width="143" height="31" rx="15.5" stroke="#525252"/>
<path d="M18.0003 18.7499C18.0003 16.1665 18.0003 13.5835 18.0003 11.0001C18.0349 10.8818 18.0558 10.7559 18.1071 10.6463C18.3141 10.2027 18.6625 10.0004 19.1207 10.0004C21.2842 10.0004 23.448 10.0004 25.6115 10.0004C26.7052 10.0004 27.7986 9.99916 28.8922 10.001C29.5447 10.0023 29.9988 10.4841 29.9991 11.1792C30.0005 13.6455 30 16.1117 29.9994 18.578C29.9994 18.8385 29.9395 19.0805 29.7898 19.2912C29.5632 19.6109 29.2559 19.7502 28.8858 19.7502C27.9327 19.7499 26.9799 19.7502 26.0269 19.7502H25.8939C26.0477 20.2424 26.1939 20.7161 26.3465 21.187C26.3562 21.2174 26.4152 21.2468 26.4516 21.2472C26.7912 21.2519 27.1311 21.249 27.471 21.2503C27.7079 21.2512 27.8675 21.4053 27.8658 21.6282C27.864 21.8464 27.7064 21.9995 27.4769 21.9995C25.1569 22.0002 22.8372 22.0002 20.5172 21.9995C20.2897 21.9995 20.1321 21.8411 20.1336 21.6226C20.1351 21.4043 20.2927 21.2519 20.5219 21.2506C20.8069 21.249 21.0922 21.2503 21.3772 21.2503C21.5504 21.2503 21.6638 21.1648 21.7174 20.9939C21.8454 20.5843 21.9728 20.1745 22.1049 19.7502C22.0506 19.7502 22.0089 19.7502 21.9672 19.7502C21.0142 19.7502 20.0614 19.7502 19.1083 19.7502C18.7379 19.7502 18.4203 19.6156 18.2113 19.2834C18.1124 19.1262 18.0687 18.9293 18 18.7502L18.0003 18.7499ZM20.133 17.4938C20.133 17.4399 20.133 17.3948 20.133 17.3497C20.133 17.0332 20.1312 16.7163 20.1336 16.3998C20.1356 16.1553 20.2786 16.0047 20.5081 16.0003C20.6056 15.9984 20.7033 16 20.8011 16C21.0309 16 21.0282 15.9987 21.1166 15.7777C21.1451 15.7066 21.1418 15.6587 21.0861 15.6042C20.9798 15.5 20.8785 15.3897 20.7787 15.2783C20.6308 15.113 20.6217 14.9023 20.7691 14.7413C21.0963 14.3835 21.428 14.03 21.7632 13.6805C21.9141 13.5234 22.1119 13.5315 22.2669 13.6874C22.3409 13.7616 22.411 13.8402 22.4826 13.9166C22.6476 14.0926 22.6461 14.0891 22.8642 13.9936C22.9314 13.9642 22.9479 13.9238 22.9461 13.8531C22.942 13.695 22.942 13.5362 22.9461 13.3781C22.9517 13.1621 23.0932 13.0043 23.2939 13.0024C23.7627 12.9977 24.2314 12.998 24.6999 13.0024C24.9065 13.0043 25.0474 13.1627 25.0533 13.3856C25.0562 13.498 25.0539 13.6107 25.0542 13.7231C25.0542 13.9583 25.0556 13.9548 25.2599 14.0494C25.3327 14.0832 25.3785 14.0732 25.4316 14.0106C25.5288 13.8966 25.6321 13.7886 25.7375 13.6831C25.8878 13.5325 26.0859 13.5249 26.2323 13.6774C26.5705 14.0297 26.9048 14.386 27.2344 14.7473C27.3741 14.9004 27.3668 15.1086 27.2315 15.2654C27.1575 15.3512 27.078 15.4317 27.0008 15.514C26.8446 15.6806 26.8481 15.679 26.9297 15.9001C26.9588 15.979 26.997 16.0065 27.0762 16.0025C27.2165 15.995 27.3574 15.9981 27.498 16.0009C27.7196 16.0053 27.8634 16.1578 27.8658 16.3951C27.8687 16.7076 27.8667 17.02 27.8667 17.3325C27.8667 17.3851 27.8667 17.438 27.8667 17.4916H29.2961V17.3466C29.2961 15.3052 29.2961 13.2635 29.2961 11.2221C29.2961 10.8849 29.1719 10.7509 28.859 10.7509C25.6212 10.7509 22.3831 10.7509 19.1453 10.7509C18.8289 10.7509 18.7033 10.8833 18.7033 11.2171C18.7033 13.2629 18.7033 15.3083 18.7033 17.3541C18.7033 17.3989 18.7033 17.4437 18.7033 17.4944H20.1327L20.133 17.4938ZM27.159 16.7599C27.1402 16.7548 27.1329 16.7514 27.1252 16.7514C27.0043 16.7508 26.8831 16.7514 26.7621 16.7498C26.5435 16.7473 26.4396 16.6587 26.3633 16.4392C26.2919 16.2332 26.2124 16.0297 26.1255 15.8306C26.0301 15.6111 26.0445 15.4768 26.2077 15.3018C26.2978 15.205 26.3914 15.112 26.476 15.025C26.3031 14.8399 26.1414 14.6668 25.9688 14.4818C25.8831 14.5766 25.7938 14.6806 25.6999 14.7792C25.5432 14.9439 25.4125 14.9574 25.2121 14.8575C25.0289 14.7661 24.8425 14.6809 24.6529 14.607C24.4334 14.5218 24.3526 14.4148 24.3515 14.1646C24.3509 14.029 24.3515 13.8931 24.3515 13.7598H23.6485C23.6485 13.9069 23.6497 14.0441 23.6485 14.1812C23.6461 14.4085 23.5631 14.5218 23.3658 14.6011C23.1695 14.68 22.9746 14.7648 22.7841 14.8584C22.583 14.957 22.4559 14.9426 22.2971 14.7758C22.2035 14.6774 22.1134 14.5757 22.0324 14.4871C21.8589 14.6721 21.6969 14.845 21.5255 15.0278C21.6074 15.1114 21.6989 15.2016 21.787 15.2955C21.9587 15.479 21.9719 15.6139 21.8677 15.8456C21.7838 16.0325 21.708 16.2245 21.6429 16.4195C21.5619 16.6619 21.4618 16.7486 21.2223 16.7498C21.0952 16.7505 20.9681 16.7498 20.8427 16.7498V17.49H22.2689C22.0679 16.3218 22.8818 15.3312 23.8677 15.2561C24.3359 15.2204 24.7595 15.3587 25.1176 15.6825C25.6418 16.1568 25.8314 16.7714 25.7307 17.4928H27.1599V16.7599H27.159ZM18.7033 18.2543C18.7033 18.3501 18.7033 18.433 18.7033 18.5157C18.7033 18.8704 18.823 18.9998 19.1515 18.9998C22.3843 18.9998 25.6171 18.9998 28.8499 18.9998C28.889 18.9998 28.9283 19.0013 28.9671 18.9979C29.1267 18.9838 29.2653 18.8673 29.2847 18.6998C29.3017 18.5542 29.2882 18.4046 29.2882 18.2543H18.7033ZM22.3814 21.2409H25.618C25.4668 20.7572 25.3204 20.2838 25.1683 19.8126C25.1589 19.7837 25.107 19.7527 25.0744 19.7524C24.3562 19.749 23.6379 19.7493 22.9197 19.7524C22.8894 19.7524 22.8407 19.7794 22.8322 19.8053C22.6796 20.2803 22.5319 20.7575 22.3811 21.2412L22.3814 21.2409ZM23.9963 17.5C24.2928 17.5 24.5892 17.4959 24.8857 17.5025C24.9743 17.5044 25.0072 17.4722 25.0245 17.3842C25.0823 17.0946 25.0442 16.8234 24.91 16.5651C24.6603 16.0842 24.077 15.8725 23.5924 16.0886C23.116 16.3012 22.8498 16.8766 22.979 17.4014C22.9995 17.4844 23.0333 17.5025 23.1067 17.5013C23.4031 17.4972 23.6996 17.4997 23.996 17.4997L23.9963 17.5Z" fill="white"/>
<path d="M39.75 20H37.0568V11.2727H39.8693C40.7159 11.2727 41.4403 11.4474 42.0426 11.7969C42.6449 12.1435 43.1065 12.642 43.4276 13.2926C43.7486 13.9403 43.9091 14.7159 43.9091 15.6193C43.9091 16.5284 43.7472 17.3111 43.4233 17.9673C43.0994 18.6207 42.6278 19.1236 42.0085 19.4759C41.3892 19.8253 40.6364 20 39.75 20ZM38.1136 19.0625H39.6818C40.4034 19.0625 41.0014 18.9233 41.4759 18.6449C41.9503 18.3665 42.304 17.9702 42.5369 17.456C42.7699 16.9418 42.8864 16.3295 42.8864 15.6193C42.8864 14.9148 42.7713 14.3082 42.5412 13.7997C42.3111 13.2884 41.9673 12.8963 41.5099 12.6236C41.0526 12.348 40.483 12.2102 39.8011 12.2102H38.1136V19.0625ZM48.2898 20.1364C47.6591 20.1364 47.1151 19.9972 46.6577 19.7188C46.2031 19.4375 45.8523 19.0455 45.6051 18.5426C45.3608 18.0369 45.2386 17.4489 45.2386 16.7784C45.2386 16.108 45.3608 15.517 45.6051 15.0057C45.8523 14.4915 46.196 14.0909 46.6364 13.804C47.0795 13.5142 47.5966 13.3693 48.1875 13.3693C48.5284 13.3693 48.8651 13.4261 49.1974 13.5398C49.5298 13.6534 49.8324 13.8381 50.1051 14.0938C50.3778 14.3466 50.5952 14.6818 50.7571 15.0994C50.919 15.517 51 16.0312 51 16.642V17.0682H45.9545V16.1989H49.9773C49.9773 15.8295 49.9034 15.5 49.7557 15.2102C49.6108 14.9205 49.4034 14.6918 49.1335 14.5241C48.8665 14.3565 48.5511 14.2727 48.1875 14.2727C47.7869 14.2727 47.4403 14.3722 47.1477 14.571C46.858 14.767 46.6349 15.0227 46.4787 15.3381C46.3224 15.6534 46.2443 15.9915 46.2443 16.3523V16.9318C46.2443 17.4261 46.3295 17.8452 46.5 18.1889C46.6733 18.5298 46.9134 18.7898 47.2202 18.9688C47.527 19.1449 47.8835 19.233 48.2898 19.233C48.554 19.233 48.7926 19.196 49.0057 19.1222C49.2216 19.0455 49.4077 18.9318 49.5639 18.7812C49.7202 18.6278 49.8409 18.4375 49.9261 18.2102L50.8977 18.483C50.7955 18.8125 50.6236 19.1023 50.3821 19.3523C50.1406 19.5994 49.8423 19.7926 49.4872 19.9318C49.1321 20.0682 48.733 20.1364 48.2898 20.1364ZM57.1662 14.9205L56.2628 15.1761C56.206 15.0256 56.1222 14.8793 56.0114 14.7372C55.9034 14.5923 55.7557 14.473 55.5682 14.3793C55.3807 14.2855 55.1406 14.2386 54.848 14.2386C54.4474 14.2386 54.1136 14.331 53.8466 14.5156C53.5824 14.6974 53.4503 14.929 53.4503 15.2102C53.4503 15.4602 53.5412 15.6577 53.723 15.8026C53.9048 15.9474 54.1889 16.0682 54.5753 16.1648L55.5469 16.4034C56.1321 16.5455 56.5682 16.7628 56.8551 17.0554C57.142 17.3452 57.2855 17.7187 57.2855 18.1761C57.2855 18.5511 57.1776 18.8864 56.9616 19.1818C56.7486 19.4773 56.4503 19.7102 56.0668 19.8807C55.6832 20.0511 55.2372 20.1364 54.7287 20.1364C54.0611 20.1364 53.5085 19.9915 53.071 19.7017C52.6335 19.4119 52.3565 18.9886 52.2401 18.4318L53.1946 18.1932C53.2855 18.5455 53.4574 18.8097 53.7102 18.9858C53.9659 19.1619 54.2997 19.25 54.7116 19.25C55.1804 19.25 55.5526 19.1506 55.8281 18.9517C56.1065 18.75 56.2457 18.5085 56.2457 18.2273C56.2457 18 56.1662 17.8097 56.0071 17.6562C55.848 17.5 55.6037 17.3835 55.2741 17.3068L54.1832 17.0511C53.5838 16.9091 53.1435 16.6889 52.8622 16.3906C52.5838 16.0895 52.4446 15.7131 52.4446 15.2614C52.4446 14.892 52.5483 14.5653 52.7557 14.2812C52.9659 13.9972 53.2514 13.7741 53.6122 13.6122C53.9759 13.4503 54.3878 13.3693 54.848 13.3693C55.4957 13.3693 56.0043 13.5114 56.3736 13.7955C56.7457 14.0795 57.0099 14.4545 57.1662 14.9205ZM58.7994 20V13.4545H59.805V20H58.7994ZM59.3107 12.3636C59.1147 12.3636 58.9457 12.2969 58.8036 12.1634C58.6644 12.0298 58.5948 11.8693 58.5948 11.6818C58.5948 11.4943 58.6644 11.3338 58.8036 11.2003C58.9457 11.0668 59.1147 11 59.3107 11C59.5067 11 59.6744 11.0668 59.8136 11.2003C59.9556 11.3338 60.0266 11.4943 60.0266 11.6818C60.0266 11.8693 59.9556 12.0298 59.8136 12.1634C59.6744 12.2969 59.5067 12.3636 59.3107 12.3636ZM64.2891 22.5909C63.8033 22.5909 63.3857 22.5284 63.0362 22.4034C62.6868 22.2812 62.3956 22.1193 62.1626 21.9176C61.9325 21.7188 61.7493 21.5057 61.6129 21.2784L62.4141 20.7159C62.505 20.8352 62.62 20.9716 62.7592 21.125C62.8984 21.2812 63.0888 21.4162 63.3303 21.5298C63.5746 21.6463 63.8942 21.7045 64.2891 21.7045C64.8175 21.7045 65.2536 21.5767 65.5973 21.321C65.9411 21.0653 66.1129 20.6648 66.1129 20.1193V18.7898H66.0277C65.9538 18.9091 65.8487 19.0568 65.7124 19.233C65.5788 19.4062 65.3857 19.5611 65.1328 19.6974C64.8828 19.831 64.5447 19.8977 64.1186 19.8977C63.5902 19.8977 63.1158 19.7727 62.6953 19.5227C62.2777 19.2727 61.9467 18.9091 61.7024 18.4318C61.4609 17.9545 61.3402 17.375 61.3402 16.6932C61.3402 16.0227 61.4581 15.4389 61.6939 14.9418C61.9297 14.4418 62.2578 14.0554 62.6783 13.7827C63.0987 13.5071 63.5845 13.3693 64.1357 13.3693C64.5618 13.3693 64.8999 13.4403 65.1499 13.5824C65.4027 13.7216 65.5959 13.8807 65.7294 14.0597C65.8658 14.2358 65.9709 14.3807 66.0447 14.4943H66.147V13.4545H67.1186V20.1875C67.1186 20.75 66.9908 21.2074 66.7351 21.5597C66.4822 21.9148 66.1413 22.1747 65.7124 22.3395C65.2862 22.5071 64.8118 22.5909 64.2891 22.5909ZM64.255 18.9943C64.6584 18.9943 64.9993 18.902 65.2777 18.7173C65.5561 18.5327 65.7678 18.267 65.9126 17.9205C66.0575 17.5739 66.13 17.1591 66.13 16.6761C66.13 16.2045 66.0589 15.7884 65.9169 15.4276C65.7749 15.0668 65.5646 14.7841 65.2862 14.5795C65.0078 14.375 64.6641 14.2727 64.255 14.2727C63.8288 14.2727 63.4737 14.3807 63.1896 14.5966C62.9084 14.8125 62.6967 15.1023 62.5547 15.4659C62.4155 15.8295 62.3459 16.233 62.3459 16.6761C62.3459 17.1307 62.4169 17.5327 62.5589 17.8821C62.7038 18.2287 62.9169 18.5014 63.1982 18.7003C63.4822 18.8963 63.8345 18.9943 64.255 18.9943ZM69.9652 16.0625V20H68.9595V13.4545H69.9311V14.4773H70.0163C70.1697 14.1449 70.4027 13.8778 70.7152 13.6761C71.0277 13.4716 71.4311 13.3693 71.9254 13.3693C72.3686 13.3693 72.7564 13.4602 73.0888 13.642C73.4212 13.821 73.6797 14.0938 73.8643 14.4602C74.049 14.8239 74.1413 15.2841 74.1413 15.8409V20H73.1357V15.9091C73.1357 15.3949 73.0021 14.9943 72.7351 14.7074C72.468 14.4176 72.1016 14.2727 71.6357 14.2727C71.3146 14.2727 71.0277 14.3423 70.7749 14.4815C70.5249 14.6207 70.3274 14.8239 70.1825 15.0909C70.0376 15.358 69.9652 15.6818 69.9652 16.0625ZM84.2631 13.4545C84.212 13.0227 84.0046 12.6875 83.641 12.4489C83.2773 12.2102 82.8313 12.0909 82.3029 12.0909C81.9165 12.0909 81.5785 12.1534 81.2887 12.2784C81.0018 12.4034 80.7773 12.5753 80.6154 12.794C80.4563 13.0128 80.3768 13.2614 80.3768 13.5398C80.3768 13.7727 80.4322 13.973 80.543 14.1406C80.6566 14.3054 80.8015 14.4432 80.9776 14.554C81.1538 14.6619 81.3384 14.7514 81.5316 14.8224C81.7248 14.8906 81.9023 14.946 82.0643 14.9886L82.9506 15.2273C83.1779 15.2869 83.4308 15.3693 83.7092 15.4744C83.9904 15.5795 84.2589 15.723 84.5146 15.9048C84.7731 16.0838 84.9862 16.3139 85.1538 16.5952C85.3214 16.8764 85.4052 17.2216 85.4052 17.6307C85.4052 18.1023 85.2816 18.5284 85.0344 18.9091C84.7901 19.2898 84.4322 19.5923 83.9606 19.8168C83.4918 20.0412 82.9222 20.1534 82.2518 20.1534C81.6268 20.1534 81.0856 20.0526 80.6282 19.8509C80.1737 19.6491 79.8157 19.3679 79.5543 19.0071C79.2958 18.6463 79.1495 18.2273 79.1154 17.75H80.2063C80.2347 18.0795 80.3455 18.3523 80.5387 18.5682C80.7347 18.7812 80.9819 18.9403 81.2802 19.0455C81.5813 19.1477 81.9052 19.1989 82.2518 19.1989C82.6552 19.1989 83.0174 19.1335 83.3384 19.0028C83.6594 18.8693 83.9137 18.6847 84.1012 18.4489C84.2887 18.2102 84.3825 17.9318 84.3825 17.6136C84.3825 17.3239 84.3015 17.0881 84.1396 16.9062C83.9776 16.7244 83.7646 16.5767 83.5004 16.4631C83.2362 16.3494 82.9506 16.25 82.6438 16.1648L81.57 15.858C80.8881 15.6619 80.3484 15.3821 79.9506 15.0185C79.5529 14.6548 79.354 14.179 79.354 13.5909C79.354 13.1023 79.4862 12.6761 79.7504 12.3125C80.0174 11.946 80.3754 11.6619 80.8242 11.4602C81.2759 11.2557 81.7802 11.1534 82.337 11.1534C82.8995 11.1534 83.3995 11.2543 83.837 11.456C84.2745 11.6548 84.6211 11.9276 84.8768 12.2741C85.1353 12.6207 85.2717 13.0142 85.2859 13.4545H84.2631ZM87.6541 22.4545C87.4837 22.4545 87.3317 22.4403 87.1982 22.4119C87.0646 22.3864 86.9723 22.3608 86.9212 22.3352L87.1768 21.4489C87.4212 21.5114 87.6371 21.5341 87.8246 21.517C88.0121 21.5 88.1783 21.4162 88.3232 21.2656C88.4709 21.1179 88.6058 20.8778 88.728 20.5455L88.9155 20.0341L86.495 13.4545H87.5859L89.3928 18.6705H89.4609L91.2678 13.4545H92.3587L89.5803 20.9545C89.4553 21.2926 89.3004 21.5724 89.1158 21.794C88.9311 22.0185 88.7166 22.1847 88.4723 22.2926C88.2308 22.4006 87.9581 22.4545 87.6541 22.4545ZM98.3224 14.9205L97.419 15.1761C97.3622 15.0256 97.2784 14.8793 97.1676 14.7372C97.0597 14.5923 96.9119 14.473 96.7244 14.3793C96.5369 14.2855 96.2969 14.2386 96.0043 14.2386C95.6037 14.2386 95.2699 14.331 95.0028 14.5156C94.7386 14.6974 94.6065 14.929 94.6065 15.2102C94.6065 15.4602 94.6974 15.6577 94.8793 15.8026C95.0611 15.9474 95.3452 16.0682 95.7315 16.1648L96.7031 16.4034C97.2884 16.5455 97.7244 16.7628 98.0114 17.0554C98.2983 17.3452 98.4418 17.7187 98.4418 18.1761C98.4418 18.5511 98.3338 18.8864 98.1179 19.1818C97.9048 19.4773 97.6065 19.7102 97.223 19.8807C96.8395 20.0511 96.3935 20.1364 95.8849 20.1364C95.2173 20.1364 94.6648 19.9915 94.2273 19.7017C93.7898 19.4119 93.5128 18.9886 93.3963 18.4318L94.3509 18.1932C94.4418 18.5455 94.6136 18.8097 94.8665 18.9858C95.1222 19.1619 95.456 19.25 95.8679 19.25C96.3366 19.25 96.7088 19.1506 96.9844 18.9517C97.2628 18.75 97.402 18.5085 97.402 18.2273C97.402 18 97.3224 17.8097 97.1634 17.6562C97.0043 17.5 96.7599 17.3835 96.4304 17.3068L95.3395 17.0511C94.7401 16.9091 94.2997 16.6889 94.0185 16.3906C93.7401 16.0895 93.6009 15.7131 93.6009 15.2614C93.6009 14.892 93.7045 14.5653 93.9119 14.2812C94.1222 13.9972 94.4077 13.7741 94.7685 13.6122C95.1321 13.4503 95.544 13.3693 96.0043 13.3693C96.652 13.3693 97.1605 13.5114 97.5298 13.7955C97.902 14.0795 98.1662 14.4545 98.3224 14.9205ZM102.802 13.4545V14.3068H99.4102V13.4545H102.802ZM100.399 11.8864H101.404V18.125C101.404 18.4091 101.446 18.6222 101.528 18.7642C101.613 18.9034 101.721 18.9972 101.852 19.0455C101.985 19.0909 102.126 19.1136 102.274 19.1136C102.385 19.1136 102.475 19.108 102.547 19.0966C102.618 19.0824 102.674 19.071 102.717 19.0625L102.922 19.9659C102.853 19.9915 102.758 20.017 102.636 20.0426C102.514 20.071 102.359 20.0852 102.172 20.0852C101.887 20.0852 101.609 20.0241 101.336 19.902C101.066 19.7798 100.842 19.5938 100.663 19.3438C100.487 19.0938 100.399 18.7784 100.399 18.3977V11.8864ZM106.989 20.1364C106.358 20.1364 105.814 19.9972 105.357 19.7188C104.902 19.4375 104.551 19.0455 104.304 18.5426C104.06 18.0369 103.938 17.4489 103.938 16.7784C103.938 16.108 104.06 15.517 104.304 15.0057C104.551 14.4915 104.895 14.0909 105.336 13.804C105.779 13.5142 106.296 13.3693 106.887 13.3693C107.228 13.3693 107.564 13.4261 107.897 13.5398C108.229 13.6534 108.532 13.8381 108.804 14.0938C109.077 14.3466 109.294 14.6818 109.456 15.0994C109.618 15.517 109.699 16.0312 109.699 16.642V17.0682H104.654V16.1989H108.676C108.676 15.8295 108.603 15.5 108.455 15.2102C108.31 14.9205 108.103 14.6918 107.833 14.5241C107.566 14.3565 107.25 14.2727 106.887 14.2727C106.486 14.2727 106.14 14.3722 105.847 14.571C105.557 14.767 105.334 15.0227 105.178 15.3381C105.022 15.6534 104.944 15.9915 104.944 16.3523V16.9318C104.944 17.4261 105.029 17.8452 105.199 18.1889C105.373 18.5298 105.613 18.7898 105.919 18.9688C106.226 19.1449 106.583 19.233 106.989 19.233C107.253 19.233 107.492 19.196 107.705 19.1222C107.921 19.0455 108.107 18.9318 108.263 18.7812C108.419 18.6278 108.54 18.4375 108.625 18.2102L109.597 18.483C109.495 18.8125 109.323 19.1023 109.081 19.3523C108.84 19.5994 108.542 19.7926 108.186 19.9318C107.831 20.0682 107.432 20.1364 106.989 20.1364ZM111.229 20V13.4545H112.201V14.4773H112.286C112.422 14.1278 112.642 13.8565 112.946 13.6634C113.25 13.4673 113.615 13.3693 114.042 13.3693C114.473 13.3693 114.833 13.4673 115.12 13.6634C115.409 13.8565 115.635 14.1278 115.797 14.4773H115.865C116.033 14.1392 116.284 13.8707 116.62 13.6719C116.955 13.4702 117.357 13.3693 117.826 13.3693C118.411 13.3693 118.89 13.5526 119.262 13.919C119.634 14.2827 119.82 14.8494 119.82 15.6193V20H118.814V15.6193C118.814 15.1364 118.682 14.7912 118.418 14.5838C118.154 14.3764 117.843 14.2727 117.485 14.2727C117.025 14.2727 116.668 14.4119 116.415 14.6903C116.162 14.9659 116.036 15.3153 116.036 15.7386V20H115.013V15.517C115.013 15.1449 114.892 14.8452 114.651 14.6179C114.409 14.3878 114.098 14.2727 113.718 14.2727C113.456 14.2727 113.212 14.3423 112.985 14.4815C112.76 14.6207 112.578 14.8139 112.439 15.0611C112.303 15.3054 112.235 15.5881 112.235 15.9091V20H111.229ZM126.295 14.9205L125.392 15.1761C125.335 15.0256 125.251 14.8793 125.14 14.7372C125.032 14.5923 124.885 14.473 124.697 14.3793C124.51 14.2855 124.27 14.2386 123.977 14.2386C123.576 14.2386 123.243 14.331 122.975 14.5156C122.711 14.6974 122.579 14.929 122.579 15.2102C122.579 15.4602 122.67 15.6577 122.852 15.8026C123.034 15.9474 123.318 16.0682 123.704 16.1648L124.676 16.4034C125.261 16.5455 125.697 16.7628 125.984 17.0554C126.271 17.3452 126.414 17.7187 126.414 18.1761C126.414 18.5511 126.306 18.8864 126.091 19.1818C125.877 19.4773 125.579 19.7102 125.196 19.8807C124.812 20.0511 124.366 20.1364 123.858 20.1364C123.19 20.1364 122.637 19.9915 122.2 19.7017C121.762 19.4119 121.485 18.9886 121.369 18.4318L122.324 18.1932C122.414 18.5455 122.586 18.8097 122.839 18.9858C123.095 19.1619 123.429 19.25 123.841 19.25C124.309 19.25 124.681 19.1506 124.957 18.9517C125.235 18.75 125.375 18.5085 125.375 18.2273C125.375 18 125.295 17.8097 125.136 17.6562C124.977 17.5 124.733 17.3835 124.403 17.3068L123.312 17.0511C122.713 16.9091 122.272 16.6889 121.991 16.3906C121.713 16.0895 121.574 15.7131 121.574 15.2614C121.574 14.892 121.677 14.5653 121.885 14.2812C122.095 13.9972 122.38 13.7741 122.741 13.6122C123.105 13.4503 123.517 13.3693 123.977 13.3693C124.625 13.3693 125.133 13.5114 125.502 13.7955C125.875 14.0795 126.139 14.4545 126.295 14.9205Z" fill="white"/>
</svg>
