<svg width="110" height="32" viewBox="0 0 110 32" fill="none" xmlns="http://www.w3.org/2000/svg">
<rect x="0.5" y="0.5" width="109" height="31" rx="15.5" stroke="#525252"/>
<path d="M24.7 15.3333H28.06C28.8441 15.3333 29.2361 15.3333 29.5356 15.4787C29.799 15.6065 30.0132 15.8105 30.1474 16.0613C30.3 16.3466 30.3 16.7199 30.3 17.4667V22M24.7 22V12.1333C24.7 11.3866 24.7 11.0132 24.5474 10.728C24.4132 10.4771 24.199 10.2732 23.9356 10.1453C23.6361 10 23.2441 10 22.46 10H19.94C19.1559 10 18.7639 10 18.4644 10.1453C18.201 10.2732 17.9868 10.4771 17.8526 10.728C17.7 11.0132 17.7 11.3866 17.7 12.1333V22M31 22H17M20.15 12.6667H22.25M20.15 15.3333H22.25M20.15 18H22.25" stroke="white" stroke-linecap="round" stroke-linejoin="round"/>
<path d="M44.0795 14H43.0227C42.9602 13.696 42.8509 13.429 42.6946 13.1989C42.5412 12.9688 42.3537 12.7756 42.1321 12.6193C41.9134 12.4602 41.6705 12.3409 41.4034 12.2614C41.1364 12.1818 40.858 12.142 40.5682 12.142C40.0398 12.142 39.5611 12.2756 39.1321 12.5426C38.706 12.8097 38.3665 13.2031 38.1136 13.723C37.8636 14.2429 37.7386 14.8807 37.7386 15.6364C37.7386 16.392 37.8636 17.0298 38.1136 17.5497C38.3665 18.0696 38.706 18.4631 39.1321 18.7301C39.5611 18.9972 40.0398 19.1307 40.5682 19.1307C40.858 19.1307 41.1364 19.0909 41.4034 19.0114C41.6705 18.9318 41.9134 18.8139 42.1321 18.6577C42.3537 18.4986 42.5412 18.304 42.6946 18.0739C42.8509 17.8409 42.9602 17.5739 43.0227 17.2727H44.0795C44 17.7187 43.8551 18.1179 43.6449 18.4702C43.4347 18.8224 43.1733 19.1222 42.8608 19.3693C42.5483 19.6136 42.1974 19.7997 41.8082 19.9276C41.4219 20.0554 41.0085 20.1193 40.5682 20.1193C39.8239 20.1193 39.1619 19.9375 38.5824 19.5739C38.0028 19.2102 37.5469 18.6932 37.2145 18.0227C36.8821 17.3523 36.7159 16.5568 36.7159 15.6364C36.7159 14.7159 36.8821 13.9205 37.2145 13.25C37.5469 12.5795 38.0028 12.0625 38.5824 11.6989C39.1619 11.3352 39.8239 11.1534 40.5682 11.1534C41.0085 11.1534 41.4219 11.2173 41.8082 11.3452C42.1974 11.473 42.5483 11.6605 42.8608 11.9077C43.1733 12.152 43.4347 12.4503 43.6449 12.8026C43.8551 13.152 44 13.5511 44.0795 14ZM48.31 20.1364C47.7191 20.1364 47.2006 19.9957 46.7546 19.7145C46.3114 19.4332 45.9648 19.0398 45.7148 18.5341C45.4677 18.0284 45.3441 17.4375 45.3441 16.7614C45.3441 16.0795 45.4677 15.4844 45.7148 14.9759C45.9648 14.4673 46.3114 14.0724 46.7546 13.7912C47.2006 13.5099 47.7191 13.3693 48.31 13.3693C48.9009 13.3693 49.418 13.5099 49.8612 13.7912C50.3072 14.0724 50.6538 14.4673 50.9009 14.9759C51.1509 15.4844 51.2759 16.0795 51.2759 16.7614C51.2759 17.4375 51.1509 18.0284 50.9009 18.5341C50.6538 19.0398 50.3072 19.4332 49.8612 19.7145C49.418 19.9957 48.9009 20.1364 48.31 20.1364ZM48.31 19.233C48.7589 19.233 49.1282 19.1179 49.418 18.8878C49.7077 18.6577 49.9222 18.3551 50.0614 17.9801C50.2006 17.6051 50.2702 17.1989 50.2702 16.7614C50.2702 16.3239 50.2006 15.9162 50.0614 15.5384C49.9222 15.1605 49.7077 14.8551 49.418 14.6222C49.1282 14.3892 48.7589 14.2727 48.31 14.2727C47.8612 14.2727 47.4918 14.3892 47.2021 14.6222C46.9123 14.8551 46.6978 15.1605 46.5586 15.5384C46.4194 15.9162 46.3498 16.3239 46.3498 16.7614C46.3498 17.1989 46.4194 17.6051 46.5586 17.9801C46.6978 18.3551 46.9123 18.6577 47.2021 18.8878C47.4918 19.1179 47.8612 19.233 48.31 19.233ZM52.8111 20V13.4545H53.7827V14.4432H53.8509C53.9702 14.1193 54.1861 13.8565 54.4986 13.6548C54.8111 13.4531 55.1634 13.3523 55.5554 13.3523C55.6293 13.3523 55.7216 13.3537 55.8324 13.3565C55.9432 13.3594 56.027 13.3636 56.0838 13.3693V14.392C56.0497 14.3835 55.9716 14.3707 55.8494 14.3537C55.7301 14.3338 55.6037 14.3239 55.4702 14.3239C55.152 14.3239 54.8679 14.3906 54.6179 14.5241C54.3707 14.6548 54.1747 14.8366 54.0298 15.0696C53.8878 15.2997 53.8168 15.5625 53.8168 15.858V20H52.8111ZM57.2759 22.4545V13.4545H58.2475V14.4943H58.3668C58.4407 14.3807 58.543 14.2358 58.6737 14.0597C58.8072 13.8807 58.9975 13.7216 59.2447 13.5824C59.4947 13.4403 59.8327 13.3693 60.2589 13.3693C60.81 13.3693 61.2958 13.5071 61.7163 13.7827C62.1367 14.0582 62.4648 14.4489 62.7006 14.9545C62.9364 15.4602 63.0543 16.0568 63.0543 16.7443C63.0543 17.4375 62.9364 18.0384 62.7006 18.5469C62.4648 19.0526 62.1381 19.4446 61.7205 19.723C61.3029 19.9986 60.8214 20.1364 60.2759 20.1364C59.8555 20.1364 59.5188 20.0668 59.266 19.9276C59.0131 19.7855 58.8185 19.625 58.6822 19.446C58.5458 19.2642 58.4407 19.1136 58.3668 18.9943H58.2816V22.4545H57.2759ZM58.2646 16.7273C58.2646 17.2216 58.337 17.6577 58.4819 18.0355C58.6268 18.4105 58.8384 18.7045 59.1168 18.9176C59.3952 19.1278 59.7362 19.233 60.1396 19.233C60.56 19.233 60.9109 19.1222 61.1921 18.9006C61.4762 18.6761 61.6893 18.375 61.8313 17.9972C61.9762 17.6165 62.0487 17.1932 62.0487 16.7273C62.0487 16.267 61.9776 15.8523 61.8356 15.483C61.6964 15.1108 61.4847 14.8168 61.2006 14.6009C60.9194 14.3821 60.5657 14.2727 60.1396 14.2727C59.7305 14.2727 59.3867 14.3764 59.1083 14.5838C58.8299 14.7884 58.6197 15.0753 58.4776 15.4446C58.3356 15.8111 58.2646 16.2386 58.2646 16.7273ZM67.2475 20.1364C66.6566 20.1364 66.1381 19.9957 65.6921 19.7145C65.2489 19.4332 64.9023 19.0398 64.6523 18.5341C64.4052 18.0284 64.2816 17.4375 64.2816 16.7614C64.2816 16.0795 64.4052 15.4844 64.6523 14.9759C64.9023 14.4673 65.2489 14.0724 65.6921 13.7912C66.1381 13.5099 66.6566 13.3693 67.2475 13.3693C67.8384 13.3693 68.3555 13.5099 68.7987 13.7912C69.2447 14.0724 69.5913 14.4673 69.8384 14.9759C70.0884 15.4844 70.2134 16.0795 70.2134 16.7614C70.2134 17.4375 70.0884 18.0284 69.8384 18.5341C69.5913 19.0398 69.2447 19.4332 68.7987 19.7145C68.3555 19.9957 67.8384 20.1364 67.2475 20.1364ZM67.2475 19.233C67.6964 19.233 68.0657 19.1179 68.3555 18.8878C68.6452 18.6577 68.8597 18.3551 68.9989 17.9801C69.1381 17.6051 69.2077 17.1989 69.2077 16.7614C69.2077 16.3239 69.1381 15.9162 68.9989 15.5384C68.8597 15.1605 68.6452 14.8551 68.3555 14.6222C68.0657 14.3892 67.6964 14.2727 67.2475 14.2727C66.7987 14.2727 66.4293 14.3892 66.1396 14.6222C65.8498 14.8551 65.6353 15.1605 65.4961 15.5384C65.3569 15.9162 65.2873 16.3239 65.2873 16.7614C65.2873 17.1989 65.3569 17.6051 65.4961 17.9801C65.6353 18.3551 65.8498 18.6577 66.1396 18.8878C66.4293 19.1179 66.7987 19.233 67.2475 19.233ZM71.7486 20V13.4545H72.7202V14.4432H72.7884C72.9077 14.1193 73.1236 13.8565 73.4361 13.6548C73.7486 13.4531 74.1009 13.3523 74.4929 13.3523C74.5668 13.3523 74.6591 13.3537 74.7699 13.3565C74.8807 13.3594 74.9645 13.3636 75.0213 13.3693V14.392C74.9872 14.3835 74.9091 14.3707 74.7869 14.3537C74.6676 14.3338 74.5412 14.3239 74.4077 14.3239C74.0895 14.3239 73.8054 14.3906 73.5554 14.5241C73.3082 14.6548 73.1122 14.8366 72.9673 15.0696C72.8253 15.2997 72.7543 15.5625 72.7543 15.858V20H71.7486ZM78.1396 20.1534C77.7248 20.1534 77.3484 20.0753 77.0103 19.919C76.6722 19.7599 76.4038 19.5312 76.2049 19.233C76.006 18.9318 75.9066 18.5682 75.9066 18.142C75.9066 17.767 75.9805 17.4631 76.1282 17.2301C76.2759 16.9943 76.4734 16.8097 76.7205 16.6761C76.9677 16.5426 77.2404 16.4432 77.5387 16.3778C77.8398 16.3097 78.1424 16.2557 78.4464 16.2159C78.8441 16.1648 79.1665 16.1264 79.4137 16.1009C79.6637 16.0724 79.8455 16.0256 79.9592 15.9602C80.0756 15.8949 80.1339 15.7812 80.1339 15.6193V15.5852C80.1339 15.1648 80.0188 14.8381 79.7887 14.6051C79.5614 14.3722 79.2163 14.2557 78.7532 14.2557C78.2731 14.2557 77.8967 14.3608 77.6239 14.571C77.3512 14.7812 77.1594 15.0057 77.0487 15.2443L76.0941 14.9034C76.2646 14.5057 76.4918 14.196 76.7759 13.9744C77.0629 13.75 77.3754 13.5937 77.7134 13.5057C78.0543 13.4148 78.3896 13.3693 78.7191 13.3693C78.9293 13.3693 79.1708 13.3949 79.4435 13.446C79.7191 13.4943 79.9847 13.5952 80.2404 13.7486C80.4989 13.902 80.7134 14.1335 80.8839 14.4432C81.0543 14.7528 81.1396 15.1676 81.1396 15.6875V20H80.1339V19.1136H80.0827C80.0146 19.2557 79.9009 19.4077 79.7418 19.5696C79.5827 19.7315 79.3711 19.8693 79.1069 19.983C78.8427 20.0966 78.5202 20.1534 78.1396 20.1534ZM78.293 19.25C78.6907 19.25 79.0259 19.1719 79.2987 19.0156C79.5742 18.8594 79.7816 18.6577 79.9208 18.4105C80.0629 18.1634 80.1339 17.9034 80.1339 17.6307V16.7102C80.0913 16.7614 79.9975 16.8082 79.8526 16.8509C79.7106 16.8906 79.5458 16.9261 79.3583 16.9574C79.1737 16.9858 78.9933 17.0114 78.8171 17.0341C78.6438 17.054 78.5032 17.071 78.3952 17.0852C78.1339 17.1193 77.8896 17.1747 77.6623 17.2514C77.4379 17.3253 77.256 17.4375 77.1168 17.5881C76.9805 17.7358 76.9123 17.9375 76.9123 18.1932C76.9123 18.5426 77.0415 18.8068 77.3001 18.9858C77.5614 19.1619 77.8924 19.25 78.293 19.25ZM85.8217 13.4545V14.3068H82.4297V13.4545H85.8217ZM83.4183 11.8864H84.424V18.125C84.424 18.4091 84.4652 18.6222 84.5476 18.7642C84.6328 18.9034 84.7408 18.9972 84.8714 19.0455C85.005 19.0909 85.1456 19.1136 85.2933 19.1136C85.4041 19.1136 85.495 19.108 85.5661 19.0966C85.6371 19.0824 85.6939 19.071 85.7365 19.0625L85.9411 19.9659C85.8729 19.9915 85.7777 20.017 85.6555 20.0426C85.5334 20.071 85.3786 20.0852 85.1911 20.0852C84.907 20.0852 84.6286 20.0241 84.3558 19.902C84.0859 19.7798 83.8615 19.5938 83.6825 19.3438C83.5064 19.0938 83.4183 18.7784 83.4183 18.3977V11.8864ZM90.0085 20.1364C89.3778 20.1364 88.8338 19.9972 88.3764 19.7188C87.9219 19.4375 87.571 19.0455 87.3239 18.5426C87.0795 18.0369 86.9574 17.4489 86.9574 16.7784C86.9574 16.108 87.0795 15.517 87.3239 15.0057C87.571 14.4915 87.9148 14.0909 88.3551 13.804C88.7983 13.5142 89.3153 13.3693 89.9062 13.3693C90.2472 13.3693 90.5838 13.4261 90.9162 13.5398C91.2486 13.6534 91.5511 13.8381 91.8239 14.0938C92.0966 14.3466 92.3139 14.6818 92.4759 15.0994C92.6378 15.517 92.7188 16.0312 92.7188 16.642V17.0682H87.6733V16.1989H91.696C91.696 15.8295 91.6222 15.5 91.4744 15.2102C91.3295 14.9205 91.1222 14.6918 90.8523 14.5241C90.5852 14.3565 90.2699 14.2727 89.9062 14.2727C89.5057 14.2727 89.1591 14.3722 88.8665 14.571C88.5767 14.767 88.3537 15.0227 88.1974 15.3381C88.0412 15.6534 87.9631 15.9915 87.9631 16.3523V16.9318C87.9631 17.4261 88.0483 17.8452 88.2188 18.1889C88.392 18.5298 88.6321 18.7898 88.9389 18.9688C89.2457 19.1449 89.6023 19.233 90.0085 19.233C90.2727 19.233 90.5114 19.196 90.7244 19.1222C90.9403 19.0455 91.1264 18.9318 91.2827 18.7812C91.4389 18.6278 91.5597 18.4375 91.6449 18.2102L92.6165 18.483C92.5142 18.8125 92.3423 19.1023 92.1009 19.3523C91.8594 19.5994 91.5611 19.7926 91.206 19.9318C90.8509 20.0682 90.4517 20.1364 90.0085 20.1364Z" fill="white"/>
</svg>
