<svg width="87" height="32" viewBox="0 0 87 32" fill="none" xmlns="http://www.w3.org/2000/svg">
<rect x="0.5" y="0.5" width="86" height="31" rx="15.5" stroke="#525252"/>
<path d="M31.1429 16.1421C31.1429 20.0186 28.0193 23.1442 24.1467 23.1427C20.2636 23.1412 17.1414 20.016 17.1429 16.1325C17.1444 12.274 20.2846 9.14086 24.1485 9.14282C28.0138 9.14479 31.1427 12.276 31.1429 16.1419V16.1421ZM29.7828 16.149C29.7844 13.0313 27.2706 10.51 24.1557 10.5052C21.0389 10.5004 18.5045 13.0236 18.5022 16.1334C18.5 19.2503 21.0237 21.7809 24.1362 21.7829C27.257 21.7848 29.7811 19.2664 29.7828 16.1489V16.149Z" fill="white"/>
<path d="M24.1288 12.0798C24.1637 12.0797 24.1831 12.0879 24.1962 12.0984C24.2104 12.1097 24.2233 12.1288 24.2362 12.1619C24.5434 12.9473 24.8523 13.7324 25.161 14.5173L26.2782 17.3572C26.3094 17.4367 26.3401 17.5166 26.371 17.5964C26.4018 17.6763 26.4324 17.7568 26.4637 17.8367C26.4759 17.8675 26.4879 17.8944 26.5009 17.9158C26.5141 17.9376 26.532 17.9584 26.5575 17.9705C26.5829 17.9823 26.6097 17.9829 26.6346 17.9792C26.6592 17.9756 26.6869 17.9668 26.7177 17.9568C27 17.8643 27.2826 17.772 27.5653 17.6804C27.5892 17.6727 27.6043 17.6682 27.6151 17.6658C27.619 17.6753 27.6231 17.6894 27.6298 17.7117C27.7235 18.0236 27.817 18.3361 27.91 18.6482C27.6721 18.7196 27.4384 18.7914 27.204 18.8611C26.7069 19.0087 26.2084 19.1541 25.7118 19.3044C25.6846 19.3127 25.6802 19.3093 25.6825 19.3103C25.682 19.3098 25.6815 19.3087 25.6805 19.3074C25.6775 19.3029 25.6737 19.2953 25.6688 19.283C25.2326 18.172 24.7943 17.0613 24.3563 15.9509C24.3395 15.9084 24.3197 15.8654 24.2968 15.8123L24.2616 15.7312L24.2098 15.8035C24.1766 15.8498 24.1431 15.8918 24.1161 15.9343C23.6258 16.7056 23.136 17.4771 22.6464 18.2488C22.4211 18.604 22.1975 18.9596 21.9706 19.3132C21.9671 19.3186 21.9591 19.327 21.9491 19.3337L21.9315 19.3425C21.5052 19.3454 21.0788 19.343 20.6522 19.3425C20.6615 19.3262 20.6707 19.3104 20.6805 19.2947C21.6794 17.6833 22.6783 16.0714 23.6796 14.4617C23.7179 14.4001 23.7416 14.3381 23.7479 14.2732C23.7541 14.2086 23.7431 14.1438 23.7167 14.0759C23.6257 13.8429 23.5473 13.6048 23.4647 13.366V13.365C23.4427 13.3014 23.4189 13.2489 23.3739 13.2166C23.3288 13.1842 23.2715 13.1783 23.203 13.1785C22.8858 13.1789 22.5676 13.1788 22.2499 13.1814C22.2371 13.1815 22.229 13.1805 22.2245 13.1794L22.2225 13.155C22.2253 12.8048 22.2248 12.4546 22.2225 12.1042C22.2225 12.0925 22.2226 12.0853 22.2235 12.0818L22.246 12.0808C22.8733 12.0822 23.5013 12.0827 24.1288 12.0798Z" fill="white" stroke="white" stroke-width="0.1"/>
<path d="M37.0568 20V11.2727H38.1136V19.0625H42.1705V20H37.0568ZM46.3295 20.1364C45.7386 20.1364 45.2202 19.9957 44.7741 19.7145C44.331 19.4332 43.9844 19.0398 43.7344 18.5341C43.4872 18.0284 43.3636 17.4375 43.3636 16.7614C43.3636 16.0795 43.4872 15.4844 43.7344 14.9759C43.9844 14.4673 44.331 14.0724 44.7741 13.7912C45.2202 13.5099 45.7386 13.3693 46.3295 13.3693C46.9205 13.3693 47.4375 13.5099 47.8807 13.7912C48.3267 14.0724 48.6733 14.4673 48.9205 14.9759C49.1705 15.4844 49.2955 16.0795 49.2955 16.7614C49.2955 17.4375 49.1705 18.0284 48.9205 18.5341C48.6733 19.0398 48.3267 19.4332 47.8807 19.7145C47.4375 19.9957 46.9205 20.1364 46.3295 20.1364ZM46.3295 19.233C46.7784 19.233 47.1477 19.1179 47.4375 18.8878C47.7273 18.6577 47.9418 18.3551 48.081 17.9801C48.2202 17.6051 48.2898 17.1989 48.2898 16.7614C48.2898 16.3239 48.2202 15.9162 48.081 15.5384C47.9418 15.1605 47.7273 14.8551 47.4375 14.6222C47.1477 14.3892 46.7784 14.2727 46.3295 14.2727C45.8807 14.2727 45.5114 14.3892 45.2216 14.6222C44.9318 14.8551 44.7173 15.1605 44.5781 15.5384C44.4389 15.9162 44.3693 16.3239 44.3693 16.7614C44.3693 17.1989 44.4389 17.6051 44.5781 17.9801C44.7173 18.3551 44.9318 18.6577 45.2216 18.8878C45.5114 19.1179 45.8807 19.233 46.3295 19.233ZM53.4727 22.5909C52.9869 22.5909 52.5692 22.5284 52.2198 22.4034C51.8704 22.2812 51.5792 22.1193 51.3462 21.9176C51.1161 21.7188 50.9329 21.5057 50.7965 21.2784L51.5977 20.7159C51.6886 20.8352 51.8036 20.9716 51.9428 21.125C52.082 21.2812 52.2724 21.4162 52.5138 21.5298C52.7582 21.6463 53.0778 21.7045 53.4727 21.7045C54.0011 21.7045 54.4371 21.5767 54.7809 21.321C55.1246 21.0653 55.2965 20.6648 55.2965 20.1193V18.7898H55.2113C55.1374 18.9091 55.0323 19.0568 54.896 19.233C54.7624 19.4062 54.5692 19.5611 54.3164 19.6974C54.0664 19.831 53.7283 19.8977 53.3022 19.8977C52.7738 19.8977 52.2994 19.7727 51.8789 19.5227C51.4613 19.2727 51.1303 18.9091 50.886 18.4318C50.6445 17.9545 50.5238 17.375 50.5238 16.6932C50.5238 16.0227 50.6417 15.4389 50.8775 14.9418C51.1133 14.4418 51.4414 14.0554 51.8619 13.7827C52.2823 13.5071 52.7681 13.3693 53.3192 13.3693C53.7454 13.3693 54.0835 13.4403 54.3335 13.5824C54.5863 13.7216 54.7795 13.8807 54.913 14.0597C55.0494 14.2358 55.1545 14.3807 55.2283 14.4943H55.3306V13.4545H56.3022V20.1875C56.3022 20.75 56.1744 21.2074 55.9187 21.5597C55.6658 21.9148 55.3249 22.1747 54.896 22.3395C54.4698 22.5071 53.9954 22.5909 53.4727 22.5909ZM53.4386 18.9943C53.842 18.9943 54.1829 18.902 54.4613 18.7173C54.7397 18.5327 54.9513 18.267 55.0962 17.9205C55.2411 17.5739 55.3136 17.1591 55.3136 16.6761C55.3136 16.2045 55.2425 15.7884 55.1005 15.4276C54.9585 15.0668 54.7482 14.7841 54.4698 14.5795C54.1914 14.375 53.8477 14.2727 53.4386 14.2727C53.0124 14.2727 52.6573 14.3807 52.3732 14.5966C52.092 14.8125 51.8803 15.1023 51.7383 15.4659C51.5991 15.8295 51.5295 16.233 51.5295 16.6761C51.5295 17.1307 51.6005 17.5327 51.7425 17.8821C51.8874 18.2287 52.1005 18.5014 52.3817 18.7003C52.6658 18.8963 53.0181 18.9943 53.4386 18.9943ZM60.8022 20.1364C60.2113 20.1364 59.6928 19.9957 59.2468 19.7145C58.8036 19.4332 58.457 19.0398 58.207 18.5341C57.9599 18.0284 57.8363 17.4375 57.8363 16.7614C57.8363 16.0795 57.9599 15.4844 58.207 14.9759C58.457 14.4673 58.8036 14.0724 59.2468 13.7912C59.6928 13.5099 60.2113 13.3693 60.8022 13.3693C61.3931 13.3693 61.9102 13.5099 62.3533 13.7912C62.7994 14.0724 63.146 14.4673 63.3931 14.9759C63.6431 15.4844 63.7681 16.0795 63.7681 16.7614C63.7681 17.4375 63.6431 18.0284 63.3931 18.5341C63.146 19.0398 62.7994 19.4332 62.3533 19.7145C61.9102 19.9957 61.3931 20.1364 60.8022 20.1364ZM60.8022 19.233C61.2511 19.233 61.6204 19.1179 61.9102 18.8878C62.1999 18.6577 62.4144 18.3551 62.5536 17.9801C62.6928 17.6051 62.7624 17.1989 62.7624 16.7614C62.7624 16.3239 62.6928 15.9162 62.5536 15.5384C62.4144 15.1605 62.1999 14.8551 61.9102 14.6222C61.6204 14.3892 61.2511 14.2727 60.8022 14.2727C60.3533 14.2727 59.984 14.3892 59.6942 14.6222C59.4045 14.8551 59.19 15.1605 59.0508 15.5384C58.9116 15.9162 58.842 16.3239 58.842 16.7614C58.842 17.1989 58.9116 17.6051 59.0508 17.9801C59.19 18.3551 59.4045 18.6577 59.6942 18.8878C59.984 19.1179 60.3533 19.233 60.8022 19.233ZM69.9396 14.9205L69.0362 15.1761C68.9794 15.0256 68.8956 14.8793 68.7848 14.7372C68.6768 14.5923 68.5291 14.473 68.3416 14.3793C68.1541 14.2855 67.9141 14.2386 67.6214 14.2386C67.2209 14.2386 66.8871 14.331 66.62 14.5156C66.3558 14.6974 66.2237 14.929 66.2237 15.2102C66.2237 15.4602 66.3146 15.6577 66.4964 15.8026C66.6783 15.9474 66.9624 16.0682 67.3487 16.1648L68.3203 16.4034C68.9055 16.5455 69.3416 16.7628 69.6286 17.0554C69.9155 17.3452 70.0589 17.7187 70.0589 18.1761C70.0589 18.5511 69.951 18.8864 69.7351 19.1818C69.522 19.4773 69.2237 19.7102 68.8402 19.8807C68.4567 20.0511 68.0107 20.1364 67.5021 20.1364C66.8345 20.1364 66.282 19.9915 65.8445 19.7017C65.407 19.4119 65.13 18.9886 65.0135 18.4318L65.968 18.1932C66.0589 18.5455 66.2308 18.8097 66.4837 18.9858C66.7393 19.1619 67.0732 19.25 67.4851 19.25C67.9538 19.25 68.326 19.1506 68.6016 18.9517C68.88 18.75 69.0192 18.5085 69.0192 18.2273C69.0192 18 68.9396 17.8097 68.7805 17.6562C68.6214 17.5 68.3771 17.3835 68.0476 17.3068L66.9567 17.0511C66.3572 16.9091 65.9169 16.6889 65.6357 16.3906C65.3572 16.0895 65.218 15.7131 65.218 15.2614C65.218 14.892 65.3217 14.5653 65.5291 14.2812C65.7393 13.9972 66.0249 13.7741 66.3857 13.6122C66.7493 13.4503 67.1612 13.3693 67.6214 13.3693C68.2692 13.3693 68.7777 13.5114 69.147 13.7955C69.5192 14.0795 69.7834 14.4545 69.9396 14.9205Z" fill="white"/>
</svg>
