<svg width="928" height="184" viewBox="0 0 928 184" fill="none" xmlns="http://www.w3.org/2000/svg">
<path d="M1.55753 18V6.36364H8.58026V7.61364H2.96662V11.5455H8.21662V12.7955H2.96662V16.75H8.67117V18H1.55753ZM10.9382 18V9.27273H12.2337V10.5909H12.3246C12.4837 10.1591 12.7715 9.80871 13.1882 9.53977C13.6049 9.27083 14.0746 9.13636 14.5973 9.13636C14.6958 9.13636 14.8189 9.13826 14.9666 9.14205C15.1143 9.14583 15.2261 9.15152 15.3018 9.15909V10.5227C15.2564 10.5114 15.1522 10.4943 14.9893 10.4716C14.8303 10.4451 14.6617 10.4318 14.4837 10.4318C14.0594 10.4318 13.6806 10.5208 13.3473 10.6989C13.0178 10.8731 12.7564 11.1155 12.5632 11.4261C12.3738 11.733 12.2791 12.0833 12.2791 12.4773V18H10.9382ZM16.8913 18V9.27273H18.1868V10.5909H18.2777C18.4368 10.1591 18.7247 9.80871 19.1413 9.53977C19.558 9.27083 20.0277 9.13636 20.5504 9.13636C20.6489 9.13636 20.772 9.13826 20.9197 9.14205C21.0675 9.14583 21.1792 9.15152 21.255 9.15909V10.5227C21.2095 10.5114 21.1054 10.4943 20.9425 10.4716C20.7834 10.4451 20.6148 10.4318 20.4368 10.4318C20.0125 10.4318 19.6338 10.5208 19.3004 10.6989C18.9709 10.8731 18.7095 11.1155 18.5163 11.4261C18.3269 11.733 18.2322 12.0833 18.2322 12.4773V18H16.8913ZM26.1243 18.1818C25.3364 18.1818 24.6451 17.9943 24.0504 17.6193C23.4595 17.2443 22.9974 16.7197 22.6641 16.0455C22.3345 15.3712 22.1697 14.5833 22.1697 13.6818C22.1697 12.7727 22.3345 11.9792 22.6641 11.3011C22.9974 10.6231 23.4595 10.0966 24.0504 9.72159C24.6451 9.34659 25.3364 9.15909 26.1243 9.15909C26.9122 9.15909 27.6016 9.34659 28.1925 9.72159C28.7872 10.0966 29.2493 10.6231 29.5788 11.3011C29.9122 11.9792 30.0788 12.7727 30.0788 13.6818C30.0788 14.5833 29.9122 15.3712 29.5788 16.0455C29.2493 16.7197 28.7872 17.2443 28.1925 17.6193C27.6016 17.9943 26.9122 18.1818 26.1243 18.1818ZM26.1243 16.9773C26.7228 16.9773 27.2152 16.8239 27.6016 16.517C27.9879 16.2102 28.2739 15.8068 28.4595 15.3068C28.6451 14.8068 28.7379 14.2652 28.7379 13.6818C28.7379 13.0985 28.6451 12.5549 28.4595 12.0511C28.2739 11.5473 27.9879 11.1402 27.6016 10.8295C27.2152 10.5189 26.7228 10.3636 26.1243 10.3636C25.5258 10.3636 25.0334 10.5189 24.647 10.8295C24.2607 11.1402 23.9747 11.5473 23.7891 12.0511C23.6035 12.5549 23.5107 13.0985 23.5107 13.6818C23.5107 14.2652 23.6035 14.8068 23.7891 15.3068C23.9747 15.8068 24.2607 16.2102 24.647 16.517C25.0334 16.8239 25.5258 16.9773 26.1243 16.9773ZM32.1257 18V9.27273H33.4212V10.5909H33.5121C33.6712 10.1591 33.959 9.80871 34.3757 9.53977C34.7924 9.27083 35.2621 9.13636 35.7848 9.13636C35.8833 9.13636 36.0064 9.13826 36.1541 9.14205C36.3018 9.14583 36.4136 9.15152 36.4893 9.15909V10.5227C36.4439 10.5114 36.3397 10.4943 36.1768 10.4716C36.0178 10.4451 35.8492 10.4318 35.6712 10.4318C35.2469 10.4318 34.8681 10.5208 34.5348 10.6989C34.2053 10.8731 33.9439 11.1155 33.7507 11.4261C33.5613 11.733 33.4666 12.0833 33.4666 12.4773V18H32.1257Z" fill="white"/>
<rect y="40" width="64" height="80" rx="20" fill="#FFE1E1"/>
<path d="M23.5767 134.364V146H22.1676V135.841H22.0994L19.2585 137.727V136.295L22.1676 134.364H23.5767ZM30.7188 146.159C29.8627 146.159 29.1335 145.926 28.5312 145.46C27.929 144.991 27.4688 144.311 27.1506 143.42C26.8324 142.527 26.6733 141.447 26.6733 140.182C26.6733 138.924 26.8324 137.85 27.1506 136.96C27.4725 136.066 27.9347 135.384 28.5369 134.915C29.143 134.441 29.8703 134.205 30.7188 134.205C31.5672 134.205 32.2926 134.441 32.8949 134.915C33.5009 135.384 33.9631 136.066 34.2812 136.96C34.6032 137.85 34.7642 138.924 34.7642 140.182C34.7642 141.447 34.6051 142.527 34.2869 143.42C33.9688 144.311 33.5085 144.991 32.9062 145.46C32.304 145.926 31.5748 146.159 30.7188 146.159ZM30.7188 144.909C31.5672 144.909 32.2263 144.5 32.696 143.682C33.1657 142.864 33.4006 141.697 33.4006 140.182C33.4006 139.174 33.2926 138.316 33.0767 137.608C32.8646 136.9 32.5578 136.36 32.1562 135.989C31.7585 135.617 31.2794 135.432 30.7188 135.432C29.8778 135.432 29.2206 135.847 28.7472 136.676C28.2737 137.502 28.0369 138.67 28.0369 140.182C28.0369 141.189 28.143 142.045 28.3551 142.75C28.5672 143.455 28.8722 143.991 29.2699 144.358C29.6714 144.725 30.1544 144.909 30.7188 144.909ZM40.7188 146.159C39.8627 146.159 39.1335 145.926 38.5312 145.46C37.929 144.991 37.4688 144.311 37.1506 143.42C36.8324 142.527 36.6733 141.447 36.6733 140.182C36.6733 138.924 36.8324 137.85 37.1506 136.96C37.4725 136.066 37.9347 135.384 38.5369 134.915C39.143 134.441 39.8703 134.205 40.7188 134.205C41.5672 134.205 42.2926 134.441 42.8949 134.915C43.5009 135.384 43.9631 136.066 44.2812 136.96C44.6032 137.85 44.7642 138.924 44.7642 140.182C44.7642 141.447 44.6051 142.527 44.2869 143.42C43.9688 144.311 43.5085 144.991 42.9062 145.46C42.304 145.926 41.5748 146.159 40.7188 146.159ZM40.7188 144.909C41.5672 144.909 42.2263 144.5 42.696 143.682C43.1657 142.864 43.4006 141.697 43.4006 140.182C43.4006 139.174 43.2926 138.316 43.0767 137.608C42.8646 136.9 42.5578 136.36 42.1562 135.989C41.7585 135.617 41.2794 135.432 40.7188 135.432C39.8778 135.432 39.2206 135.847 38.7472 136.676C38.2737 137.502 38.0369 138.67 38.0369 140.182C38.0369 141.189 38.143 142.045 38.3551 142.75C38.5672 143.455 38.8722 143.991 39.2699 144.358C39.6714 144.725 40.1544 144.909 40.7188 144.909Z" fill="white"/>
<path d="M7.01847 178V166.364H13.9957V167.614H8.42756V171.545H13.473V172.795H8.42756V178H7.01847ZM16.4091 178V166.364H23.3864V167.614H17.8182V171.545H22.8636V172.795H17.8182V178H16.4091ZM25.7997 178V166.364H32.8224V167.614H27.2088V171.545H32.4588V172.795H27.2088V176.75H32.9134V178H25.7997ZM39.2486 166.364V178H37.8395V167.841H37.7713L34.9304 169.727V168.295L37.8395 166.364H39.2486ZM42.7997 178V166.364H49.8224V167.614H44.2088V171.545H49.4588V172.795H44.2088V176.75H49.9134V178H42.7997ZM56.2486 166.364V178H54.8395V167.841H54.7713L51.9304 169.727V168.295L54.8395 166.364H56.2486Z" fill="white"/>
<rect x="96" y="40" width="64" height="80" rx="20" fill="#FFC8C8"/>
<path d="M114.361 146V144.977L118.202 140.773C118.652 140.28 119.024 139.852 119.315 139.489C119.607 139.121 119.823 138.777 119.963 138.455C120.107 138.129 120.179 137.788 120.179 137.432C120.179 137.023 120.08 136.669 119.884 136.369C119.69 136.07 119.425 135.839 119.088 135.676C118.751 135.513 118.372 135.432 117.952 135.432C117.505 135.432 117.115 135.525 116.781 135.71C116.452 135.892 116.196 136.148 116.014 136.477C115.836 136.807 115.747 137.193 115.747 137.636H114.406C114.406 136.955 114.563 136.356 114.878 135.841C115.192 135.326 115.62 134.924 116.162 134.636C116.707 134.348 117.319 134.205 117.997 134.205C118.679 134.205 119.283 134.348 119.81 134.636C120.336 134.924 120.749 135.312 121.048 135.801C121.348 136.29 121.497 136.833 121.497 137.432C121.497 137.86 121.42 138.278 121.264 138.688C121.113 139.093 120.848 139.545 120.469 140.045C120.094 140.542 119.573 141.148 118.906 141.864L116.293 144.659V144.75H121.702V146H114.361ZM127.844 146.159C126.988 146.159 126.259 145.926 125.656 145.46C125.054 144.991 124.594 144.311 124.276 143.42C123.957 142.527 123.798 141.447 123.798 140.182C123.798 138.924 123.957 137.85 124.276 136.96C124.598 136.066 125.06 135.384 125.662 134.915C126.268 134.441 126.995 134.205 127.844 134.205C128.692 134.205 129.418 134.441 130.02 134.915C130.626 135.384 131.088 136.066 131.406 136.96C131.728 137.85 131.889 138.924 131.889 140.182C131.889 141.447 131.73 142.527 131.412 143.42C131.094 144.311 130.634 144.991 130.031 145.46C129.429 145.926 128.7 146.159 127.844 146.159ZM127.844 144.909C128.692 144.909 129.351 144.5 129.821 143.682C130.291 142.864 130.526 141.697 130.526 140.182C130.526 139.174 130.418 138.316 130.202 137.608C129.99 136.9 129.683 136.36 129.281 135.989C128.884 135.617 128.404 135.432 127.844 135.432C127.003 135.432 126.346 135.847 125.872 136.676C125.399 137.502 125.162 138.67 125.162 140.182C125.162 141.189 125.268 142.045 125.48 142.75C125.692 143.455 125.997 143.991 126.395 144.358C126.796 144.725 127.279 144.909 127.844 144.909ZM137.844 146.159C136.988 146.159 136.259 145.926 135.656 145.46C135.054 144.991 134.594 144.311 134.276 143.42C133.957 142.527 133.798 141.447 133.798 140.182C133.798 138.924 133.957 137.85 134.276 136.96C134.598 136.066 135.06 135.384 135.662 134.915C136.268 134.441 136.995 134.205 137.844 134.205C138.692 134.205 139.418 134.441 140.02 134.915C140.626 135.384 141.088 136.066 141.406 136.96C141.728 137.85 141.889 138.924 141.889 140.182C141.889 141.447 141.73 142.527 141.412 143.42C141.094 144.311 140.634 144.991 140.031 145.46C139.429 145.926 138.7 146.159 137.844 146.159ZM137.844 144.909C138.692 144.909 139.351 144.5 139.821 143.682C140.291 142.864 140.526 141.697 140.526 140.182C140.526 139.174 140.418 138.316 140.202 137.608C139.99 136.9 139.683 136.36 139.281 135.989C138.884 135.617 138.404 135.432 137.844 135.432C137.003 135.432 136.346 135.847 135.872 136.676C135.399 137.502 135.162 138.67 135.162 140.182C135.162 141.189 135.268 142.045 135.48 142.75C135.692 143.455 135.997 143.991 136.395 144.358C136.796 144.725 137.279 144.909 137.844 144.909Z" fill="white"/>
<path d="M98.5185 178V166.364H105.496V167.614H99.9276V171.545H104.973V172.795H99.9276V178H98.5185ZM107.909 178V166.364H114.886V167.614H109.318V171.545H114.364V172.795H109.318V178H107.909ZM126.663 170H125.254C125.171 169.595 125.025 169.239 124.817 168.932C124.612 168.625 124.362 168.367 124.067 168.159C123.775 167.947 123.451 167.788 123.095 167.682C122.739 167.576 122.368 167.523 121.982 167.523C121.277 167.523 120.639 167.701 120.067 168.057C119.499 168.413 119.046 168.938 118.709 169.631C118.375 170.324 118.209 171.174 118.209 172.182C118.209 173.189 118.375 174.04 118.709 174.733C119.046 175.426 119.499 175.951 120.067 176.307C120.639 176.663 121.277 176.841 121.982 176.841C122.368 176.841 122.739 176.788 123.095 176.682C123.451 176.576 123.775 176.419 124.067 176.21C124.362 175.998 124.612 175.739 124.817 175.432C125.025 175.121 125.171 174.765 125.254 174.364H126.663C126.557 174.958 126.364 175.491 126.084 175.96C125.804 176.43 125.455 176.83 125.038 177.159C124.622 177.485 124.154 177.733 123.635 177.903C123.12 178.074 122.569 178.159 121.982 178.159C120.989 178.159 120.107 177.917 119.334 177.432C118.561 176.947 117.953 176.258 117.51 175.364C117.067 174.47 116.845 173.409 116.845 172.182C116.845 170.955 117.067 169.894 117.51 169C117.953 168.106 118.561 167.417 119.334 166.932C120.107 166.447 120.989 166.205 121.982 166.205C122.569 166.205 123.12 166.29 123.635 166.46C124.154 166.631 124.622 166.881 125.038 167.21C125.455 167.536 125.804 167.934 126.084 168.403C126.364 168.869 126.557 169.402 126.663 170ZM132.463 178.159C131.683 178.159 130.993 178.021 130.395 177.744C129.8 177.464 129.336 177.08 129.003 176.591C128.67 176.098 128.505 175.538 128.509 174.909C128.505 174.417 128.601 173.962 128.798 173.545C128.995 173.125 129.264 172.775 129.605 172.494C129.95 172.21 130.334 172.03 130.759 171.955V171.886C130.202 171.742 129.759 171.43 129.429 170.949C129.099 170.464 128.937 169.913 128.94 169.295C128.937 168.705 129.086 168.176 129.389 167.71C129.692 167.244 130.109 166.877 130.639 166.608C131.173 166.339 131.781 166.205 132.463 166.205C133.137 166.205 133.74 166.339 134.27 166.608C134.8 166.877 135.217 167.244 135.52 167.71C135.827 168.176 135.982 168.705 135.986 169.295C135.982 169.913 135.813 170.464 135.48 170.949C135.151 171.43 134.713 171.742 134.168 171.886V171.955C134.588 172.03 134.967 172.21 135.304 172.494C135.641 172.775 135.91 173.125 136.111 173.545C136.312 173.962 136.414 174.417 136.418 174.909C136.414 175.538 136.243 176.098 135.906 176.591C135.573 177.08 135.109 177.464 134.514 177.744C133.923 178.021 133.24 178.159 132.463 178.159ZM132.463 176.909C132.99 176.909 133.444 176.824 133.827 176.653C134.209 176.483 134.505 176.242 134.713 175.932C134.921 175.621 135.027 175.258 135.031 174.841C135.027 174.402 134.914 174.013 134.69 173.676C134.467 173.339 134.162 173.074 133.776 172.881C133.393 172.687 132.955 172.591 132.463 172.591C131.967 172.591 131.524 172.687 131.134 172.881C130.747 173.074 130.442 173.339 130.219 173.676C129.999 174.013 129.891 174.402 129.895 174.841C129.891 175.258 129.991 175.621 130.196 175.932C130.404 176.242 130.702 176.483 131.088 176.653C131.474 176.824 131.933 176.909 132.463 176.909ZM132.463 171.386C132.88 171.386 133.249 171.303 133.571 171.136C133.897 170.97 134.152 170.737 134.338 170.438C134.524 170.138 134.618 169.788 134.622 169.386C134.618 168.992 134.526 168.65 134.344 168.358C134.162 168.062 133.91 167.835 133.588 167.676C133.266 167.513 132.891 167.432 132.463 167.432C132.027 167.432 131.647 167.513 131.321 167.676C130.995 167.835 130.743 168.062 130.565 168.358C130.387 168.65 130.3 168.992 130.304 169.386C130.3 169.788 130.389 170.138 130.571 170.438C130.757 170.737 131.012 170.97 131.338 171.136C131.664 171.303 132.039 171.386 132.463 171.386ZM148.163 170H146.754C146.671 169.595 146.525 169.239 146.317 168.932C146.112 168.625 145.862 168.367 145.567 168.159C145.275 167.947 144.951 167.788 144.595 167.682C144.239 167.576 143.868 167.523 143.482 167.523C142.777 167.523 142.139 167.701 141.567 168.057C140.999 168.413 140.546 168.938 140.209 169.631C139.875 170.324 139.709 171.174 139.709 172.182C139.709 173.189 139.875 174.04 140.209 174.733C140.546 175.426 140.999 175.951 141.567 176.307C142.139 176.663 142.777 176.841 143.482 176.841C143.868 176.841 144.239 176.788 144.595 176.682C144.951 176.576 145.275 176.419 145.567 176.21C145.862 175.998 146.112 175.739 146.317 175.432C146.525 175.121 146.671 174.765 146.754 174.364H148.163C148.057 174.958 147.864 175.491 147.584 175.96C147.304 176.43 146.955 176.83 146.538 177.159C146.122 177.485 145.654 177.733 145.135 177.903C144.62 178.074 144.069 178.159 143.482 178.159C142.489 178.159 141.607 177.917 140.834 177.432C140.061 176.947 139.453 176.258 139.01 175.364C138.567 174.47 138.345 173.409 138.345 172.182C138.345 170.955 138.567 169.894 139.01 169C139.453 168.106 140.061 167.417 140.834 166.932C141.607 166.447 142.489 166.205 143.482 166.205C144.069 166.205 144.62 166.29 145.135 166.46C145.654 166.631 146.122 166.881 146.538 167.21C146.955 167.536 147.304 167.934 147.584 168.403C147.864 168.869 148.057 169.402 148.163 170ZM153.963 178.159C153.183 178.159 152.493 178.021 151.895 177.744C151.3 177.464 150.836 177.08 150.503 176.591C150.17 176.098 150.005 175.538 150.009 174.909C150.005 174.417 150.101 173.962 150.298 173.545C150.495 173.125 150.764 172.775 151.105 172.494C151.45 172.21 151.834 172.03 152.259 171.955V171.886C151.702 171.742 151.259 171.43 150.929 170.949C150.599 170.464 150.437 169.913 150.44 169.295C150.437 168.705 150.586 168.176 150.889 167.71C151.192 167.244 151.609 166.877 152.139 166.608C152.673 166.339 153.281 166.205 153.963 166.205C154.637 166.205 155.24 166.339 155.77 166.608C156.3 166.877 156.717 167.244 157.02 167.71C157.327 168.176 157.482 168.705 157.486 169.295C157.482 169.913 157.313 170.464 156.98 170.949C156.651 171.43 156.213 171.742 155.668 171.886V171.955C156.088 172.03 156.467 172.21 156.804 172.494C157.141 172.775 157.41 173.125 157.611 173.545C157.812 173.962 157.914 174.417 157.918 174.909C157.914 175.538 157.743 176.098 157.406 176.591C157.073 177.08 156.609 177.464 156.014 177.744C155.423 178.021 154.74 178.159 153.963 178.159ZM153.963 176.909C154.49 176.909 154.944 176.824 155.327 176.653C155.709 176.483 156.005 176.242 156.213 175.932C156.421 175.621 156.527 175.258 156.531 174.841C156.527 174.402 156.414 174.013 156.19 173.676C155.967 173.339 155.662 173.074 155.276 172.881C154.893 172.687 154.455 172.591 153.963 172.591C153.467 172.591 153.024 172.687 152.634 172.881C152.247 173.074 151.942 173.339 151.719 173.676C151.499 174.013 151.391 174.402 151.395 174.841C151.391 175.258 151.491 175.621 151.696 175.932C151.904 176.242 152.202 176.483 152.588 176.653C152.974 176.824 153.433 176.909 153.963 176.909ZM153.963 171.386C154.38 171.386 154.749 171.303 155.071 171.136C155.397 170.97 155.652 170.737 155.838 170.438C156.024 170.138 156.118 169.788 156.122 169.386C156.118 168.992 156.026 168.65 155.844 168.358C155.662 168.062 155.41 167.835 155.088 167.676C154.766 167.513 154.391 167.432 153.963 167.432C153.527 167.432 153.147 167.513 152.821 167.676C152.495 167.835 152.243 168.062 152.065 168.358C151.887 168.65 151.8 168.992 151.804 169.386C151.8 169.788 151.889 170.138 152.071 170.438C152.257 170.737 152.512 170.97 152.838 171.136C153.164 171.303 153.539 171.386 153.963 171.386Z" fill="white"/>
<rect x="192" y="40" width="64" height="80" rx="20" fill="#FFA1A1"/>
<path d="M214.043 146.159C213.293 146.159 212.624 146.03 212.037 145.773C211.454 145.515 210.99 145.157 210.645 144.699C210.304 144.237 210.118 143.701 210.088 143.091H211.52C211.55 143.466 211.679 143.79 211.906 144.062C212.134 144.331 212.431 144.54 212.798 144.688C213.166 144.835 213.573 144.909 214.02 144.909C214.52 144.909 214.963 144.822 215.349 144.648C215.736 144.473 216.039 144.231 216.259 143.92C216.478 143.61 216.588 143.25 216.588 142.841C216.588 142.413 216.482 142.036 216.27 141.71C216.058 141.381 215.747 141.123 215.338 140.938C214.929 140.752 214.429 140.659 213.838 140.659H212.906V139.409H213.838C214.3 139.409 214.705 139.326 215.054 139.159C215.406 138.992 215.681 138.758 215.878 138.455C216.079 138.152 216.179 137.795 216.179 137.386C216.179 136.992 216.092 136.65 215.918 136.358C215.743 136.066 215.497 135.839 215.179 135.676C214.865 135.513 214.493 135.432 214.065 135.432C213.664 135.432 213.285 135.506 212.929 135.653C212.577 135.797 212.289 136.008 212.065 136.284C211.842 136.557 211.721 136.886 211.702 137.273H210.338C210.361 136.663 210.545 136.129 210.889 135.67C211.234 135.208 211.685 134.848 212.241 134.591C212.802 134.333 213.418 134.205 214.088 134.205C214.808 134.205 215.425 134.35 215.94 134.642C216.455 134.93 216.851 135.311 217.128 135.784C217.404 136.258 217.543 136.769 217.543 137.318C217.543 137.973 217.37 138.532 217.026 138.994C216.685 139.456 216.221 139.777 215.634 139.955V140.045C216.368 140.167 216.942 140.479 217.355 140.983C217.768 141.483 217.974 142.102 217.974 142.841C217.974 143.473 217.802 144.042 217.457 144.545C217.116 145.045 216.651 145.439 216.06 145.727C215.469 146.015 214.796 146.159 214.043 146.159ZM224.094 146.159C223.238 146.159 222.509 145.926 221.906 145.46C221.304 144.991 220.844 144.311 220.526 143.42C220.207 142.527 220.048 141.447 220.048 140.182C220.048 138.924 220.207 137.85 220.526 136.96C220.848 136.066 221.31 135.384 221.912 134.915C222.518 134.441 223.245 134.205 224.094 134.205C224.942 134.205 225.668 134.441 226.27 134.915C226.876 135.384 227.338 136.066 227.656 136.96C227.978 137.85 228.139 138.924 228.139 140.182C228.139 141.447 227.98 142.527 227.662 143.42C227.344 144.311 226.884 144.991 226.281 145.46C225.679 145.926 224.95 146.159 224.094 146.159ZM224.094 144.909C224.942 144.909 225.601 144.5 226.071 143.682C226.541 142.864 226.776 141.697 226.776 140.182C226.776 139.174 226.668 138.316 226.452 137.608C226.24 136.9 225.933 136.36 225.531 135.989C225.134 135.617 224.654 135.432 224.094 135.432C223.253 135.432 222.596 135.847 222.122 136.676C221.649 137.502 221.412 138.67 221.412 140.182C221.412 141.189 221.518 142.045 221.73 142.75C221.942 143.455 222.247 143.991 222.645 144.358C223.046 144.725 223.529 144.909 224.094 144.909ZM234.094 146.159C233.238 146.159 232.509 145.926 231.906 145.46C231.304 144.991 230.844 144.311 230.526 143.42C230.207 142.527 230.048 141.447 230.048 140.182C230.048 138.924 230.207 137.85 230.526 136.96C230.848 136.066 231.31 135.384 231.912 134.915C232.518 134.441 233.245 134.205 234.094 134.205C234.942 134.205 235.668 134.441 236.27 134.915C236.876 135.384 237.338 136.066 237.656 136.96C237.978 137.85 238.139 138.924 238.139 140.182C238.139 141.447 237.98 142.527 237.662 143.42C237.344 144.311 236.884 144.991 236.281 145.46C235.679 145.926 234.95 146.159 234.094 146.159ZM234.094 144.909C234.942 144.909 235.601 144.5 236.071 143.682C236.541 142.864 236.776 141.697 236.776 140.182C236.776 139.174 236.668 138.316 236.452 137.608C236.24 136.9 235.933 136.36 235.531 135.989C235.134 135.617 234.654 135.432 234.094 135.432C233.253 135.432 232.596 135.847 232.122 136.676C231.649 137.502 231.412 138.67 231.412 140.182C231.412 141.189 231.518 142.045 231.73 142.75C231.942 143.455 232.247 143.991 232.645 144.358C233.046 144.725 233.529 144.909 234.094 144.909Z" fill="white"/>
<path d="M199.042 178V166.364H206.019V167.614H200.451V171.545H205.496V172.795H200.451V178H199.042ZM208.433 178V166.364H215.41V167.614H209.842V171.545H214.887V172.795H209.842V178H208.433ZM216.847 178H215.37L219.643 166.364H221.097L225.37 178H223.893L220.415 168.205H220.325L216.847 178ZM217.393 173.455H223.347V174.705H217.393V173.455ZM230.522 166.364V178H229.113V167.841H229.045L226.204 169.727V168.295L229.113 166.364H230.522ZM234.55 178H233.073L237.346 166.364H238.8L243.073 178H241.596L238.119 168.205H238.028L234.55 178ZM235.096 173.455H241.05V174.705H235.096V173.455ZM248.225 166.364V178H246.816V167.841H246.748L243.907 169.727V168.295L246.816 166.364H248.225Z" fill="white"/>
<rect x="288" y="40" width="64" height="80" rx="20" fill="#FE6B6B"/>
<path d="M305.799 143.614V142.455L310.913 134.364H311.754V136.159H311.185L307.322 142.273V142.364H314.208V143.614H305.799ZM311.276 146V143.261V142.722V134.364H312.617V146H311.276ZM320.133 146.159C319.277 146.159 318.548 145.926 317.945 145.46C317.343 144.991 316.883 144.311 316.565 143.42C316.246 142.527 316.087 141.447 316.087 140.182C316.087 138.924 316.246 137.85 316.565 136.96C316.887 136.066 317.349 135.384 317.951 134.915C318.557 134.441 319.284 134.205 320.133 134.205C320.981 134.205 321.707 134.441 322.309 134.915C322.915 135.384 323.377 136.066 323.695 136.96C324.017 137.85 324.178 138.924 324.178 140.182C324.178 141.447 324.019 142.527 323.701 143.42C323.383 144.311 322.923 144.991 322.32 145.46C321.718 145.926 320.989 146.159 320.133 146.159ZM320.133 144.909C320.981 144.909 321.64 144.5 322.11 143.682C322.58 142.864 322.815 141.697 322.815 140.182C322.815 139.174 322.707 138.316 322.491 137.608C322.279 136.9 321.972 136.36 321.57 135.989C321.173 135.617 320.693 135.432 320.133 135.432C319.292 135.432 318.635 135.847 318.161 136.676C317.688 137.502 317.451 138.67 317.451 140.182C317.451 141.189 317.557 142.045 317.769 142.75C317.981 143.455 318.286 143.991 318.684 144.358C319.085 144.725 319.568 144.909 320.133 144.909ZM330.133 146.159C329.277 146.159 328.548 145.926 327.945 145.46C327.343 144.991 326.883 144.311 326.565 143.42C326.246 142.527 326.087 141.447 326.087 140.182C326.087 138.924 326.246 137.85 326.565 136.96C326.887 136.066 327.349 135.384 327.951 134.915C328.557 134.441 329.284 134.205 330.133 134.205C330.981 134.205 331.707 134.441 332.309 134.915C332.915 135.384 333.377 136.066 333.695 136.96C334.017 137.85 334.178 138.924 334.178 140.182C334.178 141.447 334.019 142.527 333.701 143.42C333.383 144.311 332.923 144.991 332.32 145.46C331.718 145.926 330.989 146.159 330.133 146.159ZM330.133 144.909C330.981 144.909 331.64 144.5 332.11 143.682C332.58 142.864 332.815 141.697 332.815 140.182C332.815 139.174 332.707 138.316 332.491 137.608C332.279 136.9 331.972 136.36 331.57 135.989C331.173 135.617 330.693 135.432 330.133 135.432C329.292 135.432 328.635 135.847 328.161 136.676C327.688 137.502 327.451 138.67 327.451 140.182C327.451 141.189 327.557 142.045 327.769 142.75C327.981 143.455 328.286 143.991 328.684 144.358C329.085 144.725 329.568 144.909 330.133 144.909Z" fill="white"/>
<path d="M291.542 178V166.364H298.519V167.614H292.951V171.545H297.996V172.795H292.951V178H291.542ZM300.933 178V166.364H307.955V167.614H302.342V171.545H307.592V172.795H302.342V176.75H308.046V178H300.933ZM314.154 178.159C313.677 178.152 313.2 178.061 312.722 177.886C312.245 177.712 311.809 177.419 311.415 177.006C311.022 176.589 310.705 176.027 310.467 175.318C310.228 174.606 310.109 173.712 310.109 172.636C310.109 171.606 310.205 170.693 310.398 169.898C310.592 169.098 310.872 168.426 311.239 167.881C311.607 167.331 312.05 166.915 312.569 166.631C313.092 166.347 313.681 166.205 314.336 166.205C314.987 166.205 315.567 166.335 316.075 166.597C316.586 166.854 317.003 167.214 317.325 167.676C317.647 168.138 317.855 168.67 317.95 169.273H316.563C316.434 168.75 316.184 168.316 315.813 167.972C315.442 167.627 314.95 167.455 314.336 167.455C313.434 167.455 312.724 167.847 312.205 168.631C311.69 169.415 311.431 170.515 311.427 171.932H311.518C311.73 171.61 311.982 171.335 312.273 171.108C312.569 170.877 312.895 170.699 313.251 170.574C313.607 170.449 313.984 170.386 314.381 170.386C315.048 170.386 315.658 170.553 316.211 170.886C316.764 171.216 317.207 171.672 317.54 172.256C317.874 172.835 318.04 173.5 318.04 174.25C318.04 174.97 317.879 175.629 317.558 176.227C317.236 176.822 316.783 177.295 316.2 177.648C315.62 177.996 314.938 178.167 314.154 178.159ZM314.154 176.909C314.631 176.909 315.059 176.79 315.438 176.551C315.821 176.312 316.122 175.992 316.342 175.591C316.565 175.189 316.677 174.742 316.677 174.25C316.677 173.769 316.569 173.331 316.353 172.938C316.141 172.54 315.847 172.223 315.472 171.989C315.101 171.754 314.677 171.636 314.2 171.636C313.84 171.636 313.504 171.708 313.194 171.852C312.883 171.992 312.611 172.186 312.376 172.432C312.145 172.678 311.963 172.96 311.83 173.278C311.698 173.593 311.631 173.924 311.631 174.273C311.631 174.735 311.739 175.167 311.955 175.568C312.175 175.97 312.474 176.294 312.853 176.54C313.236 176.786 313.669 176.909 314.154 176.909ZM320.479 178V166.364H324.548C325.358 166.364 326.027 166.504 326.553 166.784C327.08 167.061 327.472 167.434 327.729 167.903C327.987 168.369 328.116 168.886 328.116 169.455C328.116 169.955 328.027 170.367 327.849 170.693C327.674 171.019 327.443 171.277 327.156 171.466C326.871 171.655 326.563 171.795 326.229 171.886V172C326.585 172.023 326.943 172.148 327.303 172.375C327.663 172.602 327.964 172.928 328.207 173.352C328.449 173.777 328.57 174.295 328.57 174.909C328.57 175.492 328.438 176.017 328.173 176.483C327.907 176.949 327.489 177.318 326.917 177.591C326.345 177.864 325.601 178 324.684 178H320.479ZM321.888 176.75H324.684C325.604 176.75 326.258 176.572 326.644 176.216C327.034 175.856 327.229 175.42 327.229 174.909C327.229 174.515 327.129 174.152 326.928 173.818C326.728 173.481 326.442 173.212 326.07 173.011C325.699 172.807 325.26 172.705 324.752 172.705H321.888V176.75ZM321.888 171.477H324.502C324.926 171.477 325.309 171.394 325.65 171.227C325.995 171.061 326.267 170.826 326.468 170.523C326.673 170.22 326.775 169.864 326.775 169.455C326.775 168.943 326.597 168.509 326.241 168.153C325.885 167.794 325.32 167.614 324.548 167.614H321.888V171.477ZM334.545 178.159C334.067 178.152 333.59 178.061 333.113 177.886C332.636 177.712 332.2 177.419 331.806 177.006C331.412 176.589 331.096 176.027 330.857 175.318C330.619 174.606 330.499 173.712 330.499 172.636C330.499 171.606 330.596 170.693 330.789 169.898C330.982 169.098 331.263 168.426 331.63 167.881C331.997 167.331 332.441 166.915 332.96 166.631C333.482 166.347 334.071 166.205 334.727 166.205C335.378 166.205 335.958 166.335 336.465 166.597C336.977 166.854 337.393 167.214 337.715 167.676C338.037 168.138 338.246 168.67 338.34 169.273H336.954C336.825 168.75 336.575 168.316 336.204 167.972C335.833 167.627 335.34 167.455 334.727 167.455C333.825 167.455 333.115 167.847 332.596 168.631C332.081 169.415 331.821 170.515 331.817 171.932H331.908C332.121 171.61 332.372 171.335 332.664 171.108C332.96 170.877 333.285 170.699 333.641 170.574C333.997 170.449 334.374 170.386 334.772 170.386C335.439 170.386 336.049 170.553 336.602 170.886C337.155 171.216 337.598 171.672 337.931 172.256C338.264 172.835 338.431 173.5 338.431 174.25C338.431 174.97 338.27 175.629 337.948 176.227C337.626 176.822 337.174 177.295 336.59 177.648C336.011 177.996 335.329 178.167 334.545 178.159ZM334.545 176.909C335.022 176.909 335.45 176.79 335.829 176.551C336.211 176.312 336.513 175.992 336.732 175.591C336.956 175.189 337.067 174.742 337.067 174.25C337.067 173.769 336.96 173.331 336.744 172.938C336.531 172.54 336.238 172.223 335.863 171.989C335.492 171.754 335.067 171.636 334.59 171.636C334.23 171.636 333.895 171.708 333.585 171.852C333.274 171.992 333.001 172.186 332.766 172.432C332.535 172.678 332.353 172.96 332.221 173.278C332.088 173.593 332.022 173.924 332.022 174.273C332.022 174.735 332.13 175.167 332.346 175.568C332.566 175.97 332.865 176.294 333.244 176.54C333.626 176.786 334.06 176.909 334.545 176.909ZM340.87 178V166.364H344.938C345.749 166.364 346.417 166.504 346.944 166.784C347.47 167.061 347.862 167.434 348.12 167.903C348.378 168.369 348.506 168.886 348.506 169.455C348.506 169.955 348.417 170.367 348.239 170.693C348.065 171.019 347.834 171.277 347.546 171.466C347.262 171.655 346.953 171.795 346.62 171.886V172C346.976 172.023 347.334 172.148 347.694 172.375C348.054 172.602 348.355 172.928 348.597 173.352C348.84 173.777 348.961 174.295 348.961 174.909C348.961 175.492 348.828 176.017 348.563 176.483C348.298 176.949 347.879 177.318 347.308 177.591C346.736 177.864 345.991 178 345.075 178H340.87ZM342.279 176.75H345.075C345.995 176.75 346.648 176.572 347.035 176.216C347.425 175.856 347.62 175.42 347.62 174.909C347.62 174.515 347.52 174.152 347.319 173.818C347.118 173.481 346.832 173.212 346.461 173.011C346.09 172.807 345.65 172.705 345.143 172.705H342.279V176.75ZM342.279 171.477H344.893C345.317 171.477 345.7 171.394 346.04 171.227C346.385 171.061 346.658 170.826 346.859 170.523C347.063 170.22 347.165 169.864 347.165 169.455C347.165 168.943 346.987 168.509 346.631 168.153C346.275 167.794 345.711 167.614 344.938 167.614H342.279V171.477Z" fill="white"/>
<rect x="384" y="40" width="64" height="80" rx="20" fill="#F73C3C"/>
<path d="M405.974 146.159C405.307 146.159 404.707 146.027 404.173 145.761C403.638 145.496 403.21 145.133 402.888 144.67C402.567 144.208 402.39 143.682 402.36 143.091H403.724C403.777 143.617 404.015 144.053 404.44 144.398C404.868 144.739 405.379 144.909 405.974 144.909C406.451 144.909 406.875 144.797 407.246 144.574C407.621 144.35 407.915 144.044 408.127 143.653C408.343 143.259 408.451 142.814 408.451 142.318C408.451 141.811 408.339 141.358 408.116 140.96C407.896 140.559 407.593 140.242 407.207 140.011C406.82 139.78 406.379 139.663 405.883 139.659C405.527 139.655 405.161 139.71 404.786 139.824C404.411 139.934 404.103 140.076 403.86 140.25L402.542 140.091L403.246 134.364H409.292V135.614H404.428L404.019 139.045H404.087C404.326 138.856 404.625 138.699 404.985 138.574C405.345 138.449 405.72 138.386 406.11 138.386C406.822 138.386 407.457 138.557 408.013 138.898C408.574 139.235 409.013 139.697 409.332 140.284C409.654 140.871 409.815 141.542 409.815 142.295C409.815 143.038 409.648 143.701 409.315 144.284C408.985 144.864 408.531 145.322 407.951 145.659C407.371 145.992 406.712 146.159 405.974 146.159ZM415.867 146.159C415.011 146.159 414.282 145.926 413.68 145.46C413.077 144.991 412.617 144.311 412.299 143.42C411.981 142.527 411.822 141.447 411.822 140.182C411.822 138.924 411.981 137.85 412.299 136.96C412.621 136.066 413.083 135.384 413.685 134.915C414.291 134.441 415.019 134.205 415.867 134.205C416.716 134.205 417.441 134.441 418.043 134.915C418.649 135.384 419.112 136.066 419.43 136.96C419.752 137.85 419.913 138.924 419.913 140.182C419.913 141.447 419.754 142.527 419.435 143.42C419.117 144.311 418.657 144.991 418.055 145.46C417.452 145.926 416.723 146.159 415.867 146.159ZM415.867 144.909C416.716 144.909 417.375 144.5 417.844 143.682C418.314 142.864 418.549 141.697 418.549 140.182C418.549 139.174 418.441 138.316 418.225 137.608C418.013 136.9 417.706 136.36 417.305 135.989C416.907 135.617 416.428 135.432 415.867 135.432C415.026 135.432 414.369 135.847 413.896 136.676C413.422 137.502 413.185 138.67 413.185 140.182C413.185 141.189 413.291 142.045 413.504 142.75C413.716 143.455 414.021 143.991 414.418 144.358C414.82 144.725 415.303 144.909 415.867 144.909ZM425.867 146.159C425.011 146.159 424.282 145.926 423.68 145.46C423.077 144.991 422.617 144.311 422.299 143.42C421.981 142.527 421.822 141.447 421.822 140.182C421.822 138.924 421.981 137.85 422.299 136.96C422.621 136.066 423.083 135.384 423.685 134.915C424.291 134.441 425.019 134.205 425.867 134.205C426.716 134.205 427.441 134.441 428.043 134.915C428.649 135.384 429.112 136.066 429.43 136.96C429.752 137.85 429.913 138.924 429.913 140.182C429.913 141.447 429.754 142.527 429.435 143.42C429.117 144.311 428.657 144.991 428.055 145.46C427.452 145.926 426.723 146.159 425.867 146.159ZM425.867 144.909C426.716 144.909 427.375 144.5 427.844 143.682C428.314 142.864 428.549 141.697 428.549 140.182C428.549 139.174 428.441 138.316 428.225 137.608C428.013 136.9 427.706 136.36 427.305 135.989C426.907 135.617 426.428 135.432 425.867 135.432C425.026 135.432 424.369 135.847 423.896 136.676C423.422 137.502 423.185 138.67 423.185 140.182C423.185 141.189 423.291 142.045 423.504 142.75C423.716 143.455 424.021 143.991 424.418 144.358C424.82 144.725 425.303 144.909 425.867 144.909Z" fill="white"/>
<path d="M386.448 178V166.364H393.425V167.614H387.857V171.545H392.903V172.795H387.857V178H386.448ZM395.998 178L401.202 167.705V167.614H395.202V166.364H402.657V167.682L397.475 178H395.998ZM408.441 178.159C407.691 178.159 407.022 178.03 406.435 177.773C405.852 177.515 405.388 177.157 405.043 176.699C404.702 176.237 404.517 175.701 404.487 175.091H405.918C405.949 175.466 406.077 175.79 406.305 176.062C406.532 176.331 406.829 176.54 407.197 176.688C407.564 176.835 407.971 176.909 408.418 176.909C408.918 176.909 409.362 176.822 409.748 176.648C410.134 176.473 410.437 176.231 410.657 175.92C410.877 175.61 410.987 175.25 410.987 174.841C410.987 174.413 410.88 174.036 410.668 173.71C410.456 173.381 410.146 173.123 409.737 172.938C409.327 172.752 408.827 172.659 408.237 172.659H407.305V171.409H408.237C408.699 171.409 409.104 171.326 409.452 171.159C409.805 170.992 410.079 170.758 410.276 170.455C410.477 170.152 410.577 169.795 410.577 169.386C410.577 168.992 410.49 168.65 410.316 168.358C410.142 168.066 409.896 167.839 409.577 167.676C409.263 167.513 408.892 167.432 408.464 167.432C408.062 167.432 407.683 167.506 407.327 167.653C406.975 167.797 406.687 168.008 406.464 168.284C406.24 168.557 406.119 168.886 406.1 169.273H404.737C404.759 168.663 404.943 168.129 405.288 167.67C405.632 167.208 406.083 166.848 406.64 166.591C407.201 166.333 407.816 166.205 408.487 166.205C409.206 166.205 409.824 166.35 410.339 166.642C410.854 166.93 411.25 167.311 411.526 167.784C411.803 168.258 411.941 168.769 411.941 169.318C411.941 169.973 411.769 170.532 411.424 170.994C411.083 171.456 410.619 171.777 410.032 171.955V172.045C410.767 172.167 411.341 172.479 411.754 172.983C412.166 173.483 412.373 174.102 412.373 174.841C412.373 175.473 412.201 176.042 411.856 176.545C411.515 177.045 411.049 177.439 410.458 177.727C409.867 178.015 409.195 178.159 408.441 178.159ZM424.265 170H422.856C422.772 169.595 422.627 169.239 422.418 168.932C422.214 168.625 421.964 168.367 421.668 168.159C421.377 167.947 421.053 167.788 420.697 167.682C420.341 167.576 419.969 167.523 419.583 167.523C418.879 167.523 418.24 167.701 417.668 168.057C417.1 168.413 416.647 168.938 416.31 169.631C415.977 170.324 415.81 171.174 415.81 172.182C415.81 173.189 415.977 174.04 416.31 174.733C416.647 175.426 417.1 175.951 417.668 176.307C418.24 176.663 418.879 176.841 419.583 176.841C419.969 176.841 420.341 176.788 420.697 176.682C421.053 176.576 421.377 176.419 421.668 176.21C421.964 175.998 422.214 175.739 422.418 175.432C422.627 175.121 422.772 174.765 422.856 174.364H424.265C424.159 174.958 423.966 175.491 423.685 175.96C423.405 176.43 423.057 176.83 422.64 177.159C422.223 177.485 421.755 177.733 421.237 177.903C420.721 178.074 420.17 178.159 419.583 178.159C418.591 178.159 417.708 177.917 416.935 177.432C416.163 176.947 415.555 176.258 415.112 175.364C414.668 174.47 414.447 173.409 414.447 172.182C414.447 170.955 414.668 169.894 415.112 169C415.555 168.106 416.163 167.417 416.935 166.932C417.708 166.447 418.591 166.205 419.583 166.205C420.17 166.205 420.721 166.29 421.237 166.46C421.755 166.631 422.223 166.881 422.64 167.21C423.057 167.536 423.405 167.934 423.685 168.403C423.966 168.869 424.159 169.402 424.265 170ZM430.269 178.159C429.519 178.159 428.851 178.03 428.263 177.773C427.68 177.515 427.216 177.157 426.871 176.699C426.531 176.237 426.345 175.701 426.315 175.091H427.746C427.777 175.466 427.906 175.79 428.133 176.062C428.36 176.331 428.657 176.54 429.025 176.688C429.392 176.835 429.799 176.909 430.246 176.909C430.746 176.909 431.19 176.822 431.576 176.648C431.962 176.473 432.265 176.231 432.485 175.92C432.705 175.61 432.815 175.25 432.815 174.841C432.815 174.413 432.709 174.036 432.496 173.71C432.284 173.381 431.974 173.123 431.565 172.938C431.156 172.752 430.656 172.659 430.065 172.659H429.133V171.409H430.065C430.527 171.409 430.932 171.326 431.281 171.159C431.633 170.992 431.907 170.758 432.104 170.455C432.305 170.152 432.406 169.795 432.406 169.386C432.406 168.992 432.318 168.65 432.144 168.358C431.97 168.066 431.724 167.839 431.406 167.676C431.091 167.513 430.72 167.432 430.292 167.432C429.89 167.432 429.512 167.506 429.156 167.653C428.803 167.797 428.515 168.008 428.292 168.284C428.068 168.557 427.947 168.886 427.928 169.273H426.565C426.587 168.663 426.771 168.129 427.116 167.67C427.46 167.208 427.911 166.848 428.468 166.591C429.029 166.333 429.644 166.205 430.315 166.205C431.034 166.205 431.652 166.35 432.167 166.642C432.682 166.93 433.078 167.311 433.354 167.784C433.631 168.258 433.769 168.769 433.769 169.318C433.769 169.973 433.597 170.532 433.252 170.994C432.911 171.456 432.447 171.777 431.86 171.955V172.045C432.595 172.167 433.169 172.479 433.582 172.983C433.995 173.483 434.201 174.102 434.201 174.841C434.201 175.473 434.029 176.042 433.684 176.545C433.343 177.045 432.877 177.439 432.286 177.727C431.695 178.015 431.023 178.159 430.269 178.159ZM446.093 170H444.684C444.601 169.595 444.455 169.239 444.246 168.932C444.042 168.625 443.792 168.367 443.496 168.159C443.205 167.947 442.881 167.788 442.525 167.682C442.169 167.576 441.798 167.523 441.411 167.523C440.707 167.523 440.068 167.701 439.496 168.057C438.928 168.413 438.476 168.938 438.138 169.631C437.805 170.324 437.638 171.174 437.638 172.182C437.638 173.189 437.805 174.04 438.138 174.733C438.476 175.426 438.928 175.951 439.496 176.307C440.068 176.663 440.707 176.841 441.411 176.841C441.798 176.841 442.169 176.788 442.525 176.682C442.881 176.576 443.205 176.419 443.496 176.21C443.792 175.998 444.042 175.739 444.246 175.432C444.455 175.121 444.601 174.765 444.684 174.364H446.093C445.987 174.958 445.794 175.491 445.513 175.96C445.233 176.43 444.885 176.83 444.468 177.159C444.051 177.485 443.584 177.733 443.065 177.903C442.549 178.074 441.998 178.159 441.411 178.159C440.419 178.159 439.536 177.917 438.763 177.432C437.991 176.947 437.383 176.258 436.94 175.364C436.496 174.47 436.275 173.409 436.275 172.182C436.275 170.955 436.496 169.894 436.94 169C437.383 168.106 437.991 167.417 438.763 166.932C439.536 166.447 440.419 166.205 441.411 166.205C441.998 166.205 442.549 166.29 443.065 166.46C443.584 166.631 444.051 166.881 444.468 167.21C444.885 167.536 445.233 167.934 445.513 168.403C445.794 168.869 445.987 169.402 446.093 170Z" fill="white"/>
<rect x="480" y="40" width="64" height="80" rx="20" fill="#E52525"/>
<path d="M502.076 146.159C501.599 146.152 501.121 146.061 500.644 145.886C500.167 145.712 499.731 145.419 499.337 145.006C498.943 144.589 498.627 144.027 498.388 143.318C498.15 142.606 498.031 141.712 498.031 140.636C498.031 139.606 498.127 138.693 498.32 137.898C498.513 137.098 498.794 136.426 499.161 135.881C499.529 135.331 499.972 134.915 500.491 134.631C501.013 134.347 501.603 134.205 502.258 134.205C502.909 134.205 503.489 134.335 503.996 134.597C504.508 134.854 504.924 135.214 505.246 135.676C505.568 136.138 505.777 136.67 505.871 137.273H504.485C504.356 136.75 504.106 136.316 503.735 135.972C503.364 135.627 502.871 135.455 502.258 135.455C501.356 135.455 500.646 135.847 500.127 136.631C499.612 137.415 499.353 138.515 499.349 139.932H499.44C499.652 139.61 499.904 139.335 500.195 139.108C500.491 138.877 500.817 138.699 501.173 138.574C501.529 138.449 501.906 138.386 502.303 138.386C502.97 138.386 503.58 138.553 504.133 138.886C504.686 139.216 505.129 139.672 505.462 140.256C505.796 140.835 505.962 141.5 505.962 142.25C505.962 142.97 505.801 143.629 505.479 144.227C505.157 144.822 504.705 145.295 504.121 145.648C503.542 145.996 502.86 146.167 502.076 146.159ZM502.076 144.909C502.553 144.909 502.981 144.79 503.36 144.551C503.743 144.312 504.044 143.992 504.263 143.591C504.487 143.189 504.599 142.742 504.599 142.25C504.599 141.769 504.491 141.331 504.275 140.938C504.063 140.54 503.769 140.223 503.394 139.989C503.023 139.754 502.599 139.636 502.121 139.636C501.762 139.636 501.426 139.708 501.116 139.852C500.805 139.992 500.532 140.186 500.298 140.432C500.067 140.678 499.885 140.96 499.752 141.278C499.62 141.593 499.553 141.924 499.553 142.273C499.553 142.735 499.661 143.167 499.877 143.568C500.097 143.97 500.396 144.294 500.775 144.54C501.157 144.786 501.591 144.909 502.076 144.909ZM511.992 146.159C511.136 146.159 510.407 145.926 509.805 145.46C509.202 144.991 508.742 144.311 508.424 143.42C508.106 142.527 507.947 141.447 507.947 140.182C507.947 138.924 508.106 137.85 508.424 136.96C508.746 136.066 509.208 135.384 509.81 134.915C510.416 134.441 511.144 134.205 511.992 134.205C512.841 134.205 513.566 134.441 514.168 134.915C514.774 135.384 515.237 136.066 515.555 136.96C515.877 137.85 516.038 138.924 516.038 140.182C516.038 141.447 515.879 142.527 515.56 143.42C515.242 144.311 514.782 144.991 514.18 145.46C513.577 145.926 512.848 146.159 511.992 146.159ZM511.992 144.909C512.841 144.909 513.5 144.5 513.969 143.682C514.439 142.864 514.674 141.697 514.674 140.182C514.674 139.174 514.566 138.316 514.35 137.608C514.138 136.9 513.831 136.36 513.43 135.989C513.032 135.617 512.553 135.432 511.992 135.432C511.151 135.432 510.494 135.847 510.021 136.676C509.547 137.502 509.31 138.67 509.31 140.182C509.31 141.189 509.416 142.045 509.629 142.75C509.841 143.455 510.146 143.991 510.543 144.358C510.945 144.725 511.428 144.909 511.992 144.909ZM521.992 146.159C521.136 146.159 520.407 145.926 519.805 145.46C519.202 144.991 518.742 144.311 518.424 143.42C518.106 142.527 517.947 141.447 517.947 140.182C517.947 138.924 518.106 137.85 518.424 136.96C518.746 136.066 519.208 135.384 519.81 134.915C520.416 134.441 521.144 134.205 521.992 134.205C522.841 134.205 523.566 134.441 524.168 134.915C524.774 135.384 525.237 136.066 525.555 136.96C525.877 137.85 526.038 138.924 526.038 140.182C526.038 141.447 525.879 142.527 525.56 143.42C525.242 144.311 524.782 144.991 524.18 145.46C523.577 145.926 522.848 146.159 521.992 146.159ZM521.992 144.909C522.841 144.909 523.5 144.5 523.969 143.682C524.439 142.864 524.674 141.697 524.674 140.182C524.674 139.174 524.566 138.316 524.35 137.608C524.138 136.9 523.831 136.36 523.43 135.989C523.032 135.617 522.553 135.432 521.992 135.432C521.151 135.432 520.494 135.847 520.021 136.676C519.547 137.502 519.31 138.67 519.31 140.182C519.31 141.189 519.416 142.045 519.629 142.75C519.841 143.455 520.146 143.991 520.543 144.358C520.945 144.725 521.428 144.909 521.992 144.909Z" fill="white"/>
<path d="M484.339 178V166.364H491.362V167.614H485.748V171.545H490.998V172.795H485.748V176.75H491.452V178H484.339ZM497.333 178.159C496.666 178.159 496.066 178.027 495.532 177.761C494.998 177.496 494.57 177.133 494.248 176.67C493.926 176.208 493.75 175.682 493.719 175.091H495.083C495.136 175.617 495.375 176.053 495.799 176.398C496.227 176.739 496.738 176.909 497.333 176.909C497.81 176.909 498.235 176.797 498.606 176.574C498.981 176.35 499.274 176.044 499.487 175.653C499.702 175.259 499.81 174.814 499.81 174.318C499.81 173.811 499.699 173.358 499.475 172.96C499.255 172.559 498.952 172.242 498.566 172.011C498.18 171.78 497.738 171.663 497.242 171.659C496.886 171.655 496.521 171.71 496.146 171.824C495.771 171.934 495.462 172.076 495.219 172.25L493.901 172.091L494.606 166.364H500.651V167.614H495.788L495.379 171.045H495.447C495.685 170.856 495.985 170.699 496.344 170.574C496.704 170.449 497.079 170.386 497.469 170.386C498.182 170.386 498.816 170.557 499.373 170.898C499.933 171.235 500.373 171.697 500.691 172.284C501.013 172.871 501.174 173.542 501.174 174.295C501.174 175.038 501.007 175.701 500.674 176.284C500.344 176.864 499.89 177.322 499.31 177.659C498.731 177.992 498.072 178.159 497.333 178.159ZM503.431 178V176.977L507.272 172.773C507.723 172.28 508.094 171.852 508.386 171.489C508.677 171.121 508.893 170.777 509.033 170.455C509.177 170.129 509.249 169.788 509.249 169.432C509.249 169.023 509.151 168.669 508.954 168.369C508.761 168.07 508.496 167.839 508.158 167.676C507.821 167.513 507.442 167.432 507.022 167.432C506.575 167.432 506.185 167.525 505.852 167.71C505.522 167.892 505.266 168.148 505.085 168.477C504.906 168.807 504.817 169.193 504.817 169.636H503.477C503.477 168.955 503.634 168.356 503.948 167.841C504.263 167.326 504.691 166.924 505.232 166.636C505.778 166.348 506.389 166.205 507.067 166.205C507.749 166.205 508.353 166.348 508.88 166.636C509.406 166.924 509.819 167.312 510.119 167.801C510.418 168.29 510.567 168.833 510.567 169.432C510.567 169.86 510.49 170.278 510.335 170.688C510.183 171.093 509.918 171.545 509.539 172.045C509.164 172.542 508.643 173.148 507.977 173.864L505.363 176.659V176.75H510.772V178H503.431ZM516.755 178.159C516.088 178.159 515.488 178.027 514.954 177.761C514.42 177.496 513.992 177.133 513.67 176.67C513.348 176.208 513.172 175.682 513.141 175.091H514.505C514.558 175.617 514.797 176.053 515.221 176.398C515.649 176.739 516.16 176.909 516.755 176.909C517.232 176.909 517.656 176.797 518.028 176.574C518.403 176.35 518.696 176.044 518.908 175.653C519.124 175.259 519.232 174.814 519.232 174.318C519.232 173.811 519.121 173.358 518.897 172.96C518.677 172.559 518.374 172.242 517.988 172.011C517.602 171.78 517.16 171.663 516.664 171.659C516.308 171.655 515.942 171.71 515.567 171.824C515.192 171.934 514.884 172.076 514.641 172.25L513.323 172.091L514.028 166.364H520.073V167.614H515.21L514.8 171.045H514.869C515.107 170.856 515.406 170.699 515.766 170.574C516.126 170.449 516.501 170.386 516.891 170.386C517.603 170.386 518.238 170.557 518.795 170.898C519.355 171.235 519.795 171.697 520.113 172.284C520.435 172.871 520.596 173.542 520.596 174.295C520.596 175.038 520.429 175.701 520.096 176.284C519.766 176.864 519.312 177.322 518.732 177.659C518.153 177.992 517.494 178.159 516.755 178.159ZM522.853 178V176.977L526.694 172.773C527.145 172.28 527.516 171.852 527.808 171.489C528.099 171.121 528.315 170.777 528.455 170.455C528.599 170.129 528.671 169.788 528.671 169.432C528.671 169.023 528.573 168.669 528.376 168.369C528.183 168.07 527.917 167.839 527.58 167.676C527.243 167.513 526.864 167.432 526.444 167.432C525.997 167.432 525.607 167.525 525.273 167.71C524.944 167.892 524.688 168.148 524.506 168.477C524.328 168.807 524.239 169.193 524.239 169.636H522.898C522.898 168.955 523.056 168.356 523.37 167.841C523.684 167.326 524.112 166.924 524.654 166.636C525.2 166.348 525.811 166.205 526.489 166.205C527.171 166.205 527.775 166.348 528.302 166.636C528.828 166.924 529.241 167.312 529.54 167.801C529.84 168.29 529.989 168.833 529.989 169.432C529.989 169.86 529.912 170.278 529.756 170.688C529.605 171.093 529.34 171.545 528.961 172.045C528.586 172.542 528.065 173.148 527.398 173.864L524.785 176.659V176.75H530.194V178H522.853ZM536.177 178.159C535.51 178.159 534.91 178.027 534.376 177.761C533.842 177.496 533.414 177.133 533.092 176.67C532.77 176.208 532.594 175.682 532.563 175.091H533.927C533.98 175.617 534.219 176.053 534.643 176.398C535.071 176.739 535.582 176.909 536.177 176.909C536.654 176.909 537.078 176.797 537.45 176.574C537.825 176.35 538.118 176.044 538.33 175.653C538.546 175.259 538.654 174.814 538.654 174.318C538.654 173.811 538.542 173.358 538.319 172.96C538.099 172.559 537.796 172.242 537.41 172.011C537.023 171.78 536.582 171.663 536.086 171.659C535.73 171.655 535.364 171.71 534.989 171.824C534.614 171.934 534.306 172.076 534.063 172.25L532.745 172.091L533.45 166.364H539.495V167.614H534.631L534.222 171.045H534.29C534.529 170.856 534.828 170.699 535.188 170.574C535.548 170.449 535.923 170.386 536.313 170.386C537.025 170.386 537.66 170.557 538.217 170.898C538.777 171.235 539.217 171.697 539.535 172.284C539.857 172.871 540.018 173.542 540.018 174.295C540.018 175.038 539.851 175.701 539.518 176.284C539.188 176.864 538.734 177.322 538.154 177.659C537.575 177.992 536.915 178.159 536.177 178.159Z" fill="white"/>
<rect x="576" y="40" width="64" height="80" rx="20" fill="#C01515"/>
<path d="M595.123 146L600.327 135.705V135.614H594.327V134.364H601.782V135.682L596.6 146H595.123ZM607.445 146.159C606.589 146.159 605.86 145.926 605.258 145.46C604.656 144.991 604.195 144.311 603.877 143.42C603.559 142.527 603.4 141.447 603.4 140.182C603.4 138.924 603.559 137.85 603.877 136.96C604.199 136.066 604.661 135.384 605.263 134.915C605.87 134.441 606.597 134.205 607.445 134.205C608.294 134.205 609.019 134.441 609.621 134.915C610.228 135.384 610.69 136.066 611.008 136.96C611.33 137.85 611.491 138.924 611.491 140.182C611.491 141.447 611.332 142.527 611.013 143.42C610.695 144.311 610.235 144.991 609.633 145.46C609.031 145.926 608.301 146.159 607.445 146.159ZM607.445 144.909C608.294 144.909 608.953 144.5 609.423 143.682C609.892 142.864 610.127 141.697 610.127 140.182C610.127 139.174 610.019 138.316 609.803 137.608C609.591 136.9 609.284 136.36 608.883 135.989C608.485 135.617 608.006 135.432 607.445 135.432C606.604 135.432 605.947 135.847 605.474 136.676C605 137.502 604.763 138.67 604.763 140.182C604.763 141.189 604.87 142.045 605.082 142.75C605.294 143.455 605.599 143.991 605.996 144.358C606.398 144.725 606.881 144.909 607.445 144.909ZM617.445 146.159C616.589 146.159 615.86 145.926 615.258 145.46C614.656 144.991 614.195 144.311 613.877 143.42C613.559 142.527 613.4 141.447 613.4 140.182C613.4 138.924 613.559 137.85 613.877 136.96C614.199 136.066 614.661 135.384 615.263 134.915C615.87 134.441 616.597 134.205 617.445 134.205C618.294 134.205 619.019 134.441 619.621 134.915C620.228 135.384 620.69 136.066 621.008 136.96C621.33 137.85 621.491 138.924 621.491 140.182C621.491 141.447 621.332 142.527 621.013 143.42C620.695 144.311 620.235 144.991 619.633 145.46C619.031 145.926 618.301 146.159 617.445 146.159ZM617.445 144.909C618.294 144.909 618.953 144.5 619.423 143.682C619.892 142.864 620.127 141.697 620.127 140.182C620.127 139.174 620.019 138.316 619.803 137.608C619.591 136.9 619.284 136.36 618.883 135.989C618.485 135.617 618.006 135.432 617.445 135.432C616.604 135.432 615.947 135.847 615.474 136.676C615 137.502 614.763 138.67 614.763 140.182C614.763 141.189 614.87 142.045 615.082 142.75C615.294 143.455 615.599 143.991 615.996 144.358C616.398 144.725 616.881 144.909 617.445 144.909Z" fill="white"/>
<path d="M590.781 170H589.371C589.288 169.595 589.142 169.239 588.934 168.932C588.729 168.625 588.479 168.367 588.184 168.159C587.892 167.947 587.568 167.788 587.212 167.682C586.856 167.576 586.485 167.523 586.099 167.523C585.394 167.523 584.756 167.701 584.184 168.057C583.616 168.413 583.163 168.938 582.826 169.631C582.493 170.324 582.326 171.174 582.326 172.182C582.326 173.189 582.493 174.04 582.826 174.733C583.163 175.426 583.616 175.951 584.184 176.307C584.756 176.663 585.394 176.841 586.099 176.841C586.485 176.841 586.856 176.788 587.212 176.682C587.568 176.576 587.892 176.419 588.184 176.21C588.479 175.998 588.729 175.739 588.934 175.432C589.142 175.121 589.288 174.765 589.371 174.364H590.781C590.674 174.958 590.481 175.491 590.201 175.96C589.921 176.43 589.572 176.83 589.156 177.159C588.739 177.485 588.271 177.733 587.752 177.903C587.237 178.074 586.686 178.159 586.099 178.159C585.106 178.159 584.224 177.917 583.451 177.432C582.678 176.947 582.07 176.258 581.627 175.364C581.184 174.47 580.962 173.409 580.962 172.182C580.962 170.955 581.184 169.894 581.627 169C582.07 168.106 582.678 167.417 583.451 166.932C584.224 166.447 585.106 166.205 586.099 166.205C586.686 166.205 587.237 166.29 587.752 166.46C588.271 166.631 588.739 166.881 589.156 167.21C589.572 167.536 589.921 167.934 590.201 168.403C590.481 168.869 590.674 169.402 590.781 170ZM596.648 178.159C595.792 178.159 595.063 177.926 594.461 177.46C593.859 176.991 593.398 176.311 593.08 175.42C592.762 174.527 592.603 173.447 592.603 172.182C592.603 170.924 592.762 169.85 593.08 168.96C593.402 168.066 593.864 167.384 594.467 166.915C595.073 166.441 595.8 166.205 596.648 166.205C597.497 166.205 598.222 166.441 598.825 166.915C599.431 167.384 599.893 168.066 600.211 168.96C600.533 169.85 600.694 170.924 600.694 172.182C600.694 173.447 600.535 174.527 600.217 175.42C599.898 176.311 599.438 176.991 598.836 177.46C598.234 177.926 597.504 178.159 596.648 178.159ZM596.648 176.909C597.497 176.909 598.156 176.5 598.626 175.682C599.095 174.864 599.33 173.697 599.33 172.182C599.33 171.174 599.222 170.316 599.006 169.608C598.794 168.9 598.487 168.36 598.086 167.989C597.688 167.617 597.209 167.432 596.648 167.432C595.808 167.432 595.15 167.847 594.677 168.676C594.203 169.502 593.967 170.67 593.967 172.182C593.967 173.189 594.073 174.045 594.285 174.75C594.497 175.455 594.802 175.991 595.2 176.358C595.601 176.725 596.084 176.909 596.648 176.909ZM606.944 166.364V178H605.535V167.841H605.467L602.626 169.727V168.295L605.535 166.364H606.944ZM613.927 178.159C613.26 178.159 612.66 178.027 612.126 177.761C611.592 177.496 611.164 177.133 610.842 176.67C610.52 176.208 610.344 175.682 610.313 175.091H611.677C611.73 175.617 611.969 176.053 612.393 176.398C612.821 176.739 613.332 176.909 613.927 176.909C614.404 176.909 614.828 176.797 615.2 176.574C615.575 176.35 615.868 176.044 616.08 175.653C616.296 175.259 616.404 174.814 616.404 174.318C616.404 173.811 616.292 173.358 616.069 172.96C615.849 172.559 615.546 172.242 615.16 172.011C614.773 171.78 614.332 171.663 613.836 171.659C613.48 171.655 613.114 171.71 612.739 171.824C612.364 171.934 612.056 172.076 611.813 172.25L610.495 172.091L611.2 166.364H617.245V167.614H612.381L611.972 171.045H612.04C612.279 170.856 612.578 170.699 612.938 170.574C613.298 170.449 613.673 170.386 614.063 170.386C614.775 170.386 615.41 170.557 615.967 170.898C616.527 171.235 616.967 171.697 617.285 172.284C617.607 172.871 617.768 173.542 617.768 174.295C617.768 175.038 617.601 175.701 617.268 176.284C616.938 176.864 616.484 177.322 615.904 177.659C615.325 177.992 614.665 178.159 613.927 178.159ZM624.116 166.364V178H622.707V167.841H622.638L619.798 169.727V168.295L622.707 166.364H624.116ZM631.099 178.159C630.432 178.159 629.832 178.027 629.298 177.761C628.763 177.496 628.335 177.133 628.013 176.67C627.692 176.208 627.515 175.682 627.485 175.091H628.849C628.902 175.617 629.14 176.053 629.565 176.398C629.993 176.739 630.504 176.909 631.099 176.909C631.576 176.909 632 176.797 632.371 176.574C632.746 176.35 633.04 176.044 633.252 175.653C633.468 175.259 633.576 174.814 633.576 174.318C633.576 173.811 633.464 173.358 633.241 172.96C633.021 172.559 632.718 172.242 632.332 172.011C631.945 171.78 631.504 171.663 631.008 171.659C630.652 171.655 630.286 171.71 629.911 171.824C629.536 171.934 629.228 172.076 628.985 172.25L627.667 172.091L628.371 166.364H634.417V167.614H629.553L629.144 171.045H629.212C629.451 170.856 629.75 170.699 630.11 170.574C630.47 170.449 630.845 170.386 631.235 170.386C631.947 170.386 632.582 170.557 633.138 170.898C633.699 171.235 634.138 171.697 634.457 172.284C634.779 172.871 634.94 173.542 634.94 174.295C634.94 175.038 634.773 175.701 634.44 176.284C634.11 176.864 633.656 177.322 633.076 177.659C632.496 177.992 631.837 178.159 631.099 178.159Z" fill="white"/>
<rect x="672" y="40" width="64" height="80" rx="20" fill="#9F1515"/>
<path d="M694.002 146.159C693.222 146.159 692.532 146.021 691.934 145.744C691.339 145.464 690.875 145.08 690.542 144.591C690.209 144.098 690.044 143.538 690.048 142.909C690.044 142.417 690.14 141.962 690.337 141.545C690.534 141.125 690.803 140.775 691.144 140.494C691.489 140.21 691.873 140.03 692.298 139.955V139.886C691.741 139.742 691.298 139.43 690.968 138.949C690.638 138.464 690.476 137.913 690.479 137.295C690.476 136.705 690.625 136.176 690.928 135.71C691.231 135.244 691.648 134.877 692.178 134.608C692.712 134.339 693.32 134.205 694.002 134.205C694.676 134.205 695.279 134.339 695.809 134.608C696.339 134.877 696.756 135.244 697.059 135.71C697.366 136.176 697.521 136.705 697.525 137.295C697.521 137.913 697.353 138.464 697.019 138.949C696.69 139.43 696.252 139.742 695.707 139.886V139.955C696.127 140.03 696.506 140.21 696.843 140.494C697.18 140.775 697.449 141.125 697.65 141.545C697.851 141.962 697.953 142.417 697.957 142.909C697.953 143.538 697.782 144.098 697.445 144.591C697.112 145.08 696.648 145.464 696.053 145.744C695.462 146.021 694.779 146.159 694.002 146.159ZM694.002 144.909C694.529 144.909 694.983 144.824 695.366 144.653C695.748 144.483 696.044 144.242 696.252 143.932C696.46 143.621 696.567 143.258 696.57 142.841C696.567 142.402 696.453 142.013 696.229 141.676C696.006 141.339 695.701 141.074 695.315 140.881C694.932 140.687 694.495 140.591 694.002 140.591C693.506 140.591 693.063 140.687 692.673 140.881C692.286 141.074 691.981 141.339 691.758 141.676C691.538 142.013 691.43 142.402 691.434 142.841C691.43 143.258 691.531 143.621 691.735 143.932C691.943 144.242 692.241 144.483 692.627 144.653C693.013 144.824 693.472 144.909 694.002 144.909ZM694.002 139.386C694.419 139.386 694.788 139.303 695.11 139.136C695.436 138.97 695.692 138.737 695.877 138.438C696.063 138.138 696.157 137.788 696.161 137.386C696.157 136.992 696.065 136.65 695.883 136.358C695.701 136.062 695.449 135.835 695.127 135.676C694.805 135.513 694.43 135.432 694.002 135.432C693.567 135.432 693.186 135.513 692.86 135.676C692.534 135.835 692.282 136.062 692.104 136.358C691.926 136.65 691.839 136.992 691.843 137.386C691.839 137.788 691.928 138.138 692.11 138.438C692.296 138.737 692.551 138.97 692.877 139.136C693.203 139.303 693.578 139.386 694.002 139.386ZM703.93 146.159C703.074 146.159 702.344 145.926 701.742 145.46C701.14 144.991 700.68 144.311 700.362 143.42C700.043 142.527 699.884 141.447 699.884 140.182C699.884 138.924 700.043 137.85 700.362 136.96C700.683 136.066 701.146 135.384 701.748 134.915C702.354 134.441 703.081 134.205 703.93 134.205C704.778 134.205 705.504 134.441 706.106 134.915C706.712 135.384 707.174 136.066 707.492 136.96C707.814 137.85 707.975 138.924 707.975 140.182C707.975 141.447 707.816 142.527 707.498 143.42C707.18 144.311 706.719 144.991 706.117 145.46C705.515 145.926 704.786 146.159 703.93 146.159ZM703.93 144.909C704.778 144.909 705.437 144.5 705.907 143.682C706.377 142.864 706.612 141.697 706.612 140.182C706.612 139.174 706.504 138.316 706.288 137.608C706.076 136.9 705.769 136.36 705.367 135.989C704.969 135.617 704.49 135.432 703.93 135.432C703.089 135.432 702.432 135.847 701.958 136.676C701.485 137.502 701.248 138.67 701.248 140.182C701.248 141.189 701.354 142.045 701.566 142.75C701.778 143.455 702.083 143.991 702.481 144.358C702.882 144.725 703.365 144.909 703.93 144.909ZM713.93 146.159C713.074 146.159 712.344 145.926 711.742 145.46C711.14 144.991 710.68 144.311 710.362 143.42C710.043 142.527 709.884 141.447 709.884 140.182C709.884 138.924 710.043 137.85 710.362 136.96C710.683 136.066 711.146 135.384 711.748 134.915C712.354 134.441 713.081 134.205 713.93 134.205C714.778 134.205 715.504 134.441 716.106 134.915C716.712 135.384 717.174 136.066 717.492 136.96C717.814 137.85 717.975 138.924 717.975 140.182C717.975 141.447 717.816 142.527 717.498 143.42C717.18 144.311 716.719 144.991 716.117 145.46C715.515 145.926 714.786 146.159 713.93 146.159ZM713.93 144.909C714.778 144.909 715.437 144.5 715.907 143.682C716.377 142.864 716.612 141.697 716.612 140.182C716.612 139.174 716.504 138.316 716.288 137.608C716.076 136.9 715.769 136.36 715.367 135.989C714.969 135.617 714.49 135.432 713.93 135.432C713.089 135.432 712.432 135.847 711.958 136.676C711.485 137.502 711.248 138.67 711.248 140.182C711.248 141.189 711.354 142.045 711.566 142.75C711.778 143.455 712.083 143.991 712.481 144.358C712.882 144.725 713.365 144.909 713.93 144.909Z" fill="white"/>
<path d="M682.05 166.205C682.527 166.208 683.004 166.299 683.482 166.477C683.959 166.655 684.394 166.951 684.788 167.364C685.182 167.773 685.499 168.331 685.737 169.04C685.976 169.748 686.095 170.636 686.095 171.705C686.095 172.739 685.997 173.657 685.8 174.46C685.607 175.259 685.326 175.934 684.959 176.483C684.595 177.032 684.152 177.449 683.629 177.733C683.11 178.017 682.523 178.159 681.868 178.159C681.216 178.159 680.635 178.03 680.124 177.773C679.616 177.511 679.199 177.15 678.874 176.688C678.552 176.222 678.345 175.682 678.254 175.068H679.641C679.766 175.602 680.014 176.044 680.385 176.392C680.76 176.737 681.254 176.909 681.868 176.909C682.766 176.909 683.474 176.517 683.993 175.733C684.516 174.949 684.777 173.841 684.777 172.409H684.686C684.474 172.727 684.222 173.002 683.93 173.233C683.639 173.464 683.315 173.642 682.959 173.767C682.603 173.892 682.224 173.955 681.822 173.955C681.156 173.955 680.544 173.79 679.987 173.46C679.434 173.127 678.991 172.67 678.658 172.091C678.328 171.508 678.163 170.841 678.163 170.091C678.163 169.379 678.322 168.727 678.641 168.136C678.963 167.542 679.413 167.068 679.993 166.716C680.576 166.364 681.262 166.193 682.05 166.205ZM682.05 167.455C681.572 167.455 681.143 167.574 680.76 167.812C680.381 168.047 680.08 168.366 679.857 168.767C679.637 169.165 679.527 169.606 679.527 170.091C679.527 170.576 679.633 171.017 679.845 171.415C680.061 171.809 680.355 172.123 680.726 172.358C681.101 172.589 681.527 172.705 682.004 172.705C682.364 172.705 682.699 172.634 683.01 172.494C683.321 172.35 683.591 172.155 683.822 171.909C684.057 171.659 684.241 171.377 684.374 171.062C684.506 170.744 684.572 170.413 684.572 170.068C684.572 169.614 684.463 169.187 684.243 168.79C684.027 168.392 683.728 168.07 683.345 167.824C682.966 167.578 682.535 167.455 682.05 167.455ZM688.534 178V166.364H695.511V167.614H689.943V171.545H694.989V172.795H689.943V178H688.534ZM701.811 166.364V178H700.402V167.841H700.334L697.493 169.727V168.295L700.402 166.364H701.811ZM708.794 178.159C708.127 178.159 707.527 178.027 706.993 177.761C706.459 177.496 706.031 177.133 705.709 176.67C705.387 176.208 705.211 175.682 705.18 175.091H706.544C706.597 175.617 706.836 176.053 707.26 176.398C707.688 176.739 708.199 176.909 708.794 176.909C709.271 176.909 709.696 176.797 710.067 176.574C710.442 176.35 710.735 176.044 710.947 175.653C711.163 175.259 711.271 174.814 711.271 174.318C711.271 173.811 711.16 173.358 710.936 172.96C710.716 172.559 710.413 172.242 710.027 172.011C709.641 171.78 709.199 171.663 708.703 171.659C708.347 171.655 707.982 171.71 707.607 171.824C707.232 171.934 706.923 172.076 706.68 172.25L705.362 172.091L706.067 166.364H712.112V167.614H707.249L706.839 171.045H706.908C707.146 170.856 707.446 170.699 707.805 170.574C708.165 170.449 708.54 170.386 708.93 170.386C709.643 170.386 710.277 170.557 710.834 170.898C711.394 171.235 711.834 171.697 712.152 172.284C712.474 172.871 712.635 173.542 712.635 174.295C712.635 175.038 712.468 175.701 712.135 176.284C711.805 176.864 711.351 177.322 710.771 177.659C710.192 177.992 709.533 178.159 708.794 178.159ZM718.983 166.364V178H717.574V167.841H717.506L714.665 169.727V168.295L717.574 166.364H718.983ZM725.966 178.159C725.299 178.159 724.699 178.027 724.165 177.761C723.631 177.496 723.203 177.133 722.881 176.67C722.559 176.208 722.383 175.682 722.352 175.091H723.716C723.769 175.617 724.008 176.053 724.432 176.398C724.86 176.739 725.371 176.909 725.966 176.909C726.443 176.909 726.867 176.797 727.239 176.574C727.614 176.35 727.907 176.044 728.119 175.653C728.335 175.259 728.443 174.814 728.443 174.318C728.443 173.811 728.331 173.358 728.108 172.96C727.888 172.559 727.585 172.242 727.199 172.011C726.813 171.78 726.371 171.663 725.875 171.659C725.519 171.655 725.153 171.71 724.778 171.824C724.403 171.934 724.095 172.076 723.852 172.25L722.534 172.091L723.239 166.364H729.284V167.614H724.42L724.011 171.045H724.08C724.318 170.856 724.617 170.699 724.977 170.574C725.337 170.449 725.712 170.386 726.102 170.386C726.814 170.386 727.449 170.557 728.006 170.898C728.566 171.235 729.006 171.697 729.324 172.284C729.646 172.871 729.807 173.542 729.807 174.295C729.807 175.038 729.64 175.701 729.307 176.284C728.977 176.864 728.523 177.322 727.943 177.659C727.364 177.992 726.705 178.159 725.966 178.159Z" fill="white"/>
<rect x="768" y="40" width="64" height="80" rx="20" fill="#831919"/>
<path d="M789.917 134.205C790.394 134.208 790.871 134.299 791.349 134.477C791.826 134.655 792.262 134.951 792.656 135.364C793.049 135.773 793.366 136.331 793.604 137.04C793.843 137.748 793.962 138.636 793.962 139.705C793.962 140.739 793.864 141.657 793.667 142.46C793.474 143.259 793.193 143.934 792.826 144.483C792.462 145.032 792.019 145.449 791.496 145.733C790.978 146.017 790.39 146.159 789.735 146.159C789.084 146.159 788.502 146.03 787.991 145.773C787.483 145.511 787.067 145.15 786.741 144.688C786.419 144.222 786.212 143.682 786.121 143.068H787.508C787.633 143.602 787.881 144.044 788.252 144.392C788.627 144.737 789.121 144.909 789.735 144.909C790.633 144.909 791.341 144.517 791.86 143.733C792.383 142.949 792.644 141.841 792.644 140.409H792.553C792.341 140.727 792.089 141.002 791.798 141.233C791.506 141.464 791.182 141.642 790.826 141.767C790.47 141.892 790.091 141.955 789.69 141.955C789.023 141.955 788.411 141.79 787.854 141.46C787.301 141.127 786.858 140.67 786.525 140.091C786.195 139.508 786.031 138.841 786.031 138.091C786.031 137.379 786.19 136.727 786.508 136.136C786.83 135.542 787.281 135.068 787.86 134.716C788.443 134.364 789.129 134.193 789.917 134.205ZM789.917 135.455C789.44 135.455 789.01 135.574 788.627 135.812C788.248 136.047 787.947 136.366 787.724 136.767C787.504 137.165 787.394 137.606 787.394 138.091C787.394 138.576 787.5 139.017 787.712 139.415C787.928 139.809 788.222 140.123 788.593 140.358C788.968 140.589 789.394 140.705 789.871 140.705C790.231 140.705 790.567 140.634 790.877 140.494C791.188 140.35 791.459 140.155 791.69 139.909C791.924 139.659 792.108 139.377 792.241 139.062C792.373 138.744 792.44 138.413 792.44 138.068C792.44 137.614 792.33 137.187 792.11 136.79C791.894 136.392 791.595 136.07 791.212 135.824C790.834 135.578 790.402 135.455 789.917 135.455ZM799.992 146.159C799.136 146.159 798.407 145.926 797.805 145.46C797.202 144.991 796.742 144.311 796.424 143.42C796.106 142.527 795.947 141.447 795.947 140.182C795.947 138.924 796.106 137.85 796.424 136.96C796.746 136.066 797.208 135.384 797.81 134.915C798.416 134.441 799.144 134.205 799.992 134.205C800.841 134.205 801.566 134.441 802.168 134.915C802.774 135.384 803.237 136.066 803.555 136.96C803.877 137.85 804.038 138.924 804.038 140.182C804.038 141.447 803.879 142.527 803.56 143.42C803.242 144.311 802.782 144.991 802.18 145.46C801.577 145.926 800.848 146.159 799.992 146.159ZM799.992 144.909C800.841 144.909 801.5 144.5 801.969 143.682C802.439 142.864 802.674 141.697 802.674 140.182C802.674 139.174 802.566 138.316 802.35 137.608C802.138 136.9 801.831 136.36 801.43 135.989C801.032 135.617 800.553 135.432 799.992 135.432C799.151 135.432 798.494 135.847 798.021 136.676C797.547 137.502 797.31 138.67 797.31 140.182C797.31 141.189 797.416 142.045 797.629 142.75C797.841 143.455 798.146 143.991 798.543 144.358C798.945 144.725 799.428 144.909 799.992 144.909ZM809.992 146.159C809.136 146.159 808.407 145.926 807.805 145.46C807.202 144.991 806.742 144.311 806.424 143.42C806.106 142.527 805.947 141.447 805.947 140.182C805.947 138.924 806.106 137.85 806.424 136.96C806.746 136.066 807.208 135.384 807.81 134.915C808.416 134.441 809.144 134.205 809.992 134.205C810.841 134.205 811.566 134.441 812.168 134.915C812.774 135.384 813.237 136.066 813.555 136.96C813.877 137.85 814.038 138.924 814.038 140.182C814.038 141.447 813.879 142.527 813.56 143.42C813.242 144.311 812.782 144.991 812.18 145.46C811.577 145.926 810.848 146.159 809.992 146.159ZM809.992 144.909C810.841 144.909 811.5 144.5 811.969 143.682C812.439 142.864 812.674 141.697 812.674 140.182C812.674 139.174 812.566 138.316 812.35 137.608C812.138 136.9 811.831 136.36 811.43 135.989C811.032 135.617 810.553 135.432 809.992 135.432C809.151 135.432 808.494 135.847 808.021 136.676C807.547 137.502 807.31 138.67 807.31 140.182C807.31 141.189 807.416 142.045 807.629 142.75C807.841 143.455 808.146 143.991 808.543 144.358C808.945 144.725 809.428 144.909 809.992 144.909Z" fill="white"/>
<path d="M777.487 178.159C776.706 178.159 776.017 178.021 775.418 177.744C774.824 177.464 774.36 177.08 774.026 176.591C773.693 176.098 773.528 175.538 773.532 174.909C773.528 174.417 773.625 173.962 773.822 173.545C774.019 173.125 774.288 172.775 774.629 172.494C774.973 172.21 775.358 172.03 775.782 171.955V171.886C775.225 171.742 774.782 171.43 774.452 170.949C774.123 170.464 773.96 169.913 773.964 169.295C773.96 168.705 774.11 168.176 774.413 167.71C774.716 167.244 775.132 166.877 775.663 166.608C776.197 166.339 776.805 166.205 777.487 166.205C778.161 166.205 778.763 166.339 779.293 166.608C779.824 166.877 780.24 167.244 780.543 167.71C780.85 168.176 781.005 168.705 781.009 169.295C781.005 169.913 780.837 170.464 780.504 170.949C780.174 171.43 779.737 171.742 779.191 171.886V171.955C779.612 172.03 779.99 172.21 780.327 172.494C780.665 172.775 780.933 173.125 781.134 173.545C781.335 173.962 781.437 174.417 781.441 174.909C781.437 175.538 781.267 176.098 780.93 176.591C780.596 177.08 780.132 177.464 779.538 177.744C778.947 178.021 778.263 178.159 777.487 178.159ZM777.487 176.909C778.013 176.909 778.468 176.824 778.85 176.653C779.233 176.483 779.528 176.242 779.737 175.932C779.945 175.621 780.051 175.258 780.055 174.841C780.051 174.402 779.937 174.013 779.714 173.676C779.49 173.339 779.185 173.074 778.799 172.881C778.416 172.687 777.979 172.591 777.487 172.591C776.99 172.591 776.547 172.687 776.157 172.881C775.771 173.074 775.466 173.339 775.242 173.676C775.022 174.013 774.915 174.402 774.918 174.841C774.915 175.258 775.015 175.621 775.219 175.932C775.428 176.242 775.725 176.483 776.112 176.653C776.498 176.824 776.956 176.909 777.487 176.909ZM777.487 171.386C777.903 171.386 778.272 171.303 778.594 171.136C778.92 170.97 779.176 170.737 779.362 170.438C779.547 170.138 779.642 169.788 779.646 169.386C779.642 168.992 779.549 168.65 779.367 168.358C779.185 168.062 778.933 167.835 778.612 167.676C778.29 167.513 777.915 167.432 777.487 167.432C777.051 167.432 776.67 167.513 776.344 167.676C776.019 167.835 775.767 168.062 775.589 168.358C775.411 168.65 775.324 168.992 775.327 169.386C775.324 169.788 775.413 170.138 775.594 170.438C775.78 170.737 776.036 170.97 776.362 171.136C776.687 171.303 777.062 171.386 777.487 171.386ZM787.55 178.159C786.8 178.159 786.132 178.03 785.545 177.773C784.961 177.515 784.497 177.157 784.153 176.699C783.812 176.237 783.626 175.701 783.596 175.091H785.028C785.058 175.466 785.187 175.79 785.414 176.062C785.641 176.331 785.939 176.54 786.306 176.688C786.674 176.835 787.081 176.909 787.528 176.909C788.028 176.909 788.471 176.822 788.857 176.648C789.244 176.473 789.547 176.231 789.766 175.92C789.986 175.61 790.096 175.25 790.096 174.841C790.096 174.413 789.99 174.036 789.778 173.71C789.566 173.381 789.255 173.123 788.846 172.938C788.437 172.752 787.937 172.659 787.346 172.659H786.414V171.409H787.346C787.808 171.409 788.213 171.326 788.562 171.159C788.914 170.992 789.189 170.758 789.386 170.455C789.586 170.152 789.687 169.795 789.687 169.386C789.687 168.992 789.6 168.65 789.425 168.358C789.251 168.066 789.005 167.839 788.687 167.676C788.372 167.513 788.001 167.432 787.573 167.432C787.172 167.432 786.793 167.506 786.437 167.653C786.085 167.797 785.797 168.008 785.573 168.284C785.35 168.557 785.228 168.886 785.21 169.273H783.846C783.869 168.663 784.052 168.129 784.397 167.67C784.742 167.208 785.192 166.848 785.749 166.591C786.31 166.333 786.925 166.205 787.596 166.205C788.316 166.205 788.933 166.35 789.448 166.642C789.963 166.93 790.359 167.311 790.636 167.784C790.912 168.258 791.05 168.769 791.05 169.318C791.05 169.973 790.878 170.532 790.533 170.994C790.192 171.456 789.728 171.777 789.141 171.955V172.045C789.876 172.167 790.45 172.479 790.863 172.983C791.276 173.483 791.482 174.102 791.482 174.841C791.482 175.473 791.31 176.042 790.965 176.545C790.624 177.045 790.158 177.439 789.567 177.727C788.977 178.015 788.304 178.159 787.55 178.159ZM797.897 166.364V178H796.488V167.841H796.42L793.579 169.727V168.295L796.488 166.364H797.897ZM804.948 166.205C805.425 166.208 805.903 166.299 806.38 166.477C806.857 166.655 807.293 166.951 807.687 167.364C808.081 167.773 808.397 168.331 808.636 169.04C808.874 169.748 808.994 170.636 808.994 171.705C808.994 172.739 808.895 173.657 808.698 174.46C808.505 175.259 808.225 175.934 807.857 176.483C807.494 177.032 807.05 177.449 806.528 177.733C806.009 178.017 805.422 178.159 804.766 178.159C804.115 178.159 803.533 178.03 803.022 177.773C802.514 177.511 802.098 177.15 801.772 176.688C801.45 176.222 801.244 175.682 801.153 175.068H802.539C802.664 175.602 802.912 176.044 803.283 176.392C803.658 176.737 804.153 176.909 804.766 176.909C805.664 176.909 806.372 176.517 806.891 175.733C807.414 174.949 807.675 173.841 807.675 172.409H807.585C807.372 172.727 807.121 173.002 806.829 173.233C806.537 173.464 806.213 173.642 805.857 173.767C805.501 173.892 805.122 173.955 804.721 173.955C804.054 173.955 803.442 173.79 802.886 173.46C802.333 173.127 801.889 172.67 801.556 172.091C801.227 171.508 801.062 170.841 801.062 170.091C801.062 169.379 801.221 168.727 801.539 168.136C801.861 167.542 802.312 167.068 802.891 166.716C803.475 166.364 804.16 166.193 804.948 166.205ZM804.948 167.455C804.471 167.455 804.041 167.574 803.658 167.812C803.28 168.047 802.978 168.366 802.755 168.767C802.535 169.165 802.425 169.606 802.425 170.091C802.425 170.576 802.531 171.017 802.744 171.415C802.96 171.809 803.253 172.123 803.624 172.358C803.999 172.589 804.425 172.705 804.903 172.705C805.263 172.705 805.598 172.634 805.908 172.494C806.219 172.35 806.49 172.155 806.721 171.909C806.956 171.659 807.139 171.377 807.272 171.062C807.405 170.744 807.471 170.413 807.471 170.068C807.471 169.614 807.361 169.187 807.141 168.79C806.925 168.392 806.626 168.07 806.244 167.824C805.865 167.578 805.433 167.455 804.948 167.455ZM815.319 166.364V178H813.91V167.841H813.842L811.001 169.727V168.295L813.91 166.364H815.319ZM822.37 166.205C822.847 166.208 823.325 166.299 823.802 166.477C824.279 166.655 824.715 166.951 825.109 167.364C825.503 167.773 825.819 168.331 826.058 169.04C826.296 169.748 826.415 170.636 826.415 171.705C826.415 172.739 826.317 173.657 826.12 174.46C825.927 175.259 825.647 175.934 825.279 176.483C824.915 177.032 824.472 177.449 823.95 177.733C823.431 178.017 822.844 178.159 822.188 178.159C821.537 178.159 820.955 178.03 820.444 177.773C819.936 177.511 819.52 177.15 819.194 176.688C818.872 176.222 818.665 175.682 818.575 175.068H819.961C820.086 175.602 820.334 176.044 820.705 176.392C821.08 176.737 821.575 176.909 822.188 176.909C823.086 176.909 823.794 176.517 824.313 175.733C824.836 174.949 825.097 173.841 825.097 172.409H825.006C824.794 172.727 824.542 173.002 824.251 173.233C823.959 173.464 823.635 173.642 823.279 173.767C822.923 173.892 822.544 173.955 822.143 173.955C821.476 173.955 820.864 173.79 820.308 173.46C819.754 173.127 819.311 172.67 818.978 172.091C818.648 171.508 818.484 170.841 818.484 170.091C818.484 169.379 818.643 168.727 818.961 168.136C819.283 167.542 819.734 167.068 820.313 166.716C820.897 166.364 821.582 166.193 822.37 166.205ZM822.37 167.455C821.893 167.455 821.463 167.574 821.08 167.812C820.701 168.047 820.4 168.366 820.177 168.767C819.957 169.165 819.847 169.606 819.847 170.091C819.847 170.576 819.953 171.017 820.165 171.415C820.381 171.809 820.675 172.123 821.046 172.358C821.421 172.589 821.847 172.705 822.325 172.705C822.684 172.705 823.02 172.634 823.33 172.494C823.641 172.35 823.912 172.155 824.143 171.909C824.378 171.659 824.561 171.377 824.694 171.062C824.826 170.744 824.893 170.413 824.893 170.068C824.893 169.614 824.783 169.187 824.563 168.79C824.347 168.392 824.048 168.07 823.665 167.824C823.287 167.578 822.855 167.455 822.37 167.455Z" fill="white"/>
<rect x="864" y="40" width="64" height="80" rx="20" fill="#480707"/>
<path d="M886.05 134.205C886.527 134.208 887.004 134.299 887.482 134.477C887.959 134.655 888.394 134.951 888.788 135.364C889.182 135.773 889.499 136.331 889.737 137.04C889.976 137.748 890.095 138.636 890.095 139.705C890.095 140.739 889.997 141.657 889.8 142.46C889.607 143.259 889.326 143.934 888.959 144.483C888.595 145.032 888.152 145.449 887.629 145.733C887.11 146.017 886.523 146.159 885.868 146.159C885.216 146.159 884.635 146.03 884.124 145.773C883.616 145.511 883.199 145.15 882.874 144.688C882.552 144.222 882.345 143.682 882.254 143.068H883.641C883.766 143.602 884.014 144.044 884.385 144.392C884.76 144.737 885.254 144.909 885.868 144.909C886.766 144.909 887.474 144.517 887.993 143.733C888.516 142.949 888.777 141.841 888.777 140.409H888.686C888.474 140.727 888.222 141.002 887.93 141.233C887.639 141.464 887.315 141.642 886.959 141.767C886.603 141.892 886.224 141.955 885.822 141.955C885.156 141.955 884.544 141.79 883.987 141.46C883.434 141.127 882.991 140.67 882.658 140.091C882.328 139.508 882.163 138.841 882.163 138.091C882.163 137.379 882.322 136.727 882.641 136.136C882.963 135.542 883.413 135.068 883.993 134.716C884.576 134.364 885.262 134.193 886.05 134.205ZM886.05 135.455C885.572 135.455 885.143 135.574 884.76 135.812C884.381 136.047 884.08 136.366 883.857 136.767C883.637 137.165 883.527 137.606 883.527 138.091C883.527 138.576 883.633 139.017 883.845 139.415C884.061 139.809 884.355 140.123 884.726 140.358C885.101 140.589 885.527 140.705 886.004 140.705C886.364 140.705 886.699 140.634 887.01 140.494C887.321 140.35 887.591 140.155 887.822 139.909C888.057 139.659 888.241 139.377 888.374 139.062C888.506 138.744 888.572 138.413 888.572 138.068C888.572 137.614 888.463 137.187 888.243 136.79C888.027 136.392 887.728 136.07 887.345 135.824C886.966 135.578 886.535 135.455 886.05 135.455ZM895.966 146.159C895.299 146.159 894.699 146.027 894.165 145.761C893.631 145.496 893.203 145.133 892.881 144.67C892.559 144.208 892.383 143.682 892.352 143.091H893.716C893.769 143.617 894.008 144.053 894.432 144.398C894.86 144.739 895.371 144.909 895.966 144.909C896.443 144.909 896.867 144.797 897.239 144.574C897.614 144.35 897.907 144.044 898.119 143.653C898.335 143.259 898.443 142.814 898.443 142.318C898.443 141.811 898.331 141.358 898.108 140.96C897.888 140.559 897.585 140.242 897.199 140.011C896.813 139.78 896.371 139.663 895.875 139.659C895.519 139.655 895.153 139.71 894.778 139.824C894.403 139.934 894.095 140.076 893.852 140.25L892.534 140.091L893.239 134.364H899.284V135.614H894.42L894.011 139.045H894.08C894.318 138.856 894.617 138.699 894.977 138.574C895.337 138.449 895.712 138.386 896.102 138.386C896.814 138.386 897.449 138.557 898.006 138.898C898.566 139.235 899.006 139.697 899.324 140.284C899.646 140.871 899.807 141.542 899.807 142.295C899.807 143.038 899.64 143.701 899.307 144.284C898.977 144.864 898.523 145.322 897.943 145.659C897.364 145.992 896.705 146.159 895.966 146.159ZM905.859 146.159C905.003 146.159 904.274 145.926 903.672 145.46C903.07 144.991 902.609 144.311 902.291 143.42C901.973 142.527 901.814 141.447 901.814 140.182C901.814 138.924 901.973 137.85 902.291 136.96C902.613 136.066 903.075 135.384 903.678 134.915C904.284 134.441 905.011 134.205 905.859 134.205C906.708 134.205 907.433 134.441 908.036 134.915C908.642 135.384 909.104 136.066 909.422 136.96C909.744 137.85 909.905 138.924 909.905 140.182C909.905 141.447 909.746 142.527 909.428 143.42C909.109 144.311 908.649 144.991 908.047 145.46C907.445 145.926 906.715 146.159 905.859 146.159ZM905.859 144.909C906.708 144.909 907.367 144.5 907.837 143.682C908.306 142.864 908.541 141.697 908.541 140.182C908.541 139.174 908.433 138.316 908.217 137.608C908.005 136.9 907.698 136.36 907.297 135.989C906.899 135.617 906.42 135.432 905.859 135.432C905.018 135.432 904.361 135.847 903.888 136.676C903.414 137.502 903.178 138.67 903.178 140.182C903.178 141.189 903.284 142.045 903.496 142.75C903.708 143.455 904.013 143.991 904.411 144.358C904.812 144.725 905.295 144.909 905.859 144.909Z" fill="white"/>
<path d="M868.166 175.614V174.455L873.28 166.364H874.121V168.159H873.553L869.689 174.273V174.364H876.575V175.614H868.166ZM873.643 178V175.261V174.722V166.364H874.984V178H873.643ZM882.432 178.159C881.652 178.159 880.962 178.021 880.364 177.744C879.769 177.464 879.305 177.08 878.972 176.591C878.638 176.098 878.473 175.538 878.477 174.909C878.473 174.417 878.57 173.962 878.767 173.545C878.964 173.125 879.233 172.775 879.574 172.494C879.919 172.21 880.303 172.03 880.727 171.955V171.886C880.17 171.742 879.727 171.43 879.398 170.949C879.068 170.464 878.905 169.913 878.909 169.295C878.905 168.705 879.055 168.176 879.358 167.71C879.661 167.244 880.078 166.877 880.608 166.608C881.142 166.339 881.75 166.205 882.432 166.205C883.106 166.205 883.708 166.339 884.239 166.608C884.769 166.877 885.186 167.244 885.489 167.71C885.795 168.176 885.951 168.705 885.955 169.295C885.951 169.913 885.782 170.464 885.449 170.949C885.119 171.43 884.682 171.742 884.136 171.886V171.955C884.557 172.03 884.936 172.21 885.273 172.494C885.61 172.775 885.879 173.125 886.08 173.545C886.28 173.962 886.383 174.417 886.386 174.909C886.383 175.538 886.212 176.098 885.875 176.591C885.542 177.08 885.078 177.464 884.483 177.744C883.892 178.021 883.208 178.159 882.432 178.159ZM882.432 176.909C882.958 176.909 883.413 176.824 883.795 176.653C884.178 176.483 884.473 176.242 884.682 175.932C884.89 175.621 884.996 175.258 885 174.841C884.996 174.402 884.883 174.013 884.659 173.676C884.436 173.339 884.131 173.074 883.744 172.881C883.362 172.687 882.924 172.591 882.432 172.591C881.936 172.591 881.492 172.687 881.102 172.881C880.716 173.074 880.411 173.339 880.188 173.676C879.968 174.013 879.86 174.402 879.864 174.841C879.86 175.258 879.96 175.621 880.165 175.932C880.373 176.242 880.67 176.483 881.057 176.653C881.443 176.824 881.902 176.909 882.432 176.909ZM882.432 171.386C882.848 171.386 883.218 171.303 883.54 171.136C883.866 170.97 884.121 170.737 884.307 170.438C884.492 170.138 884.587 169.788 884.591 169.386C884.587 168.992 884.494 168.65 884.312 168.358C884.131 168.062 883.879 167.835 883.557 167.676C883.235 167.513 882.86 167.432 882.432 167.432C881.996 167.432 881.616 167.513 881.29 167.676C880.964 167.835 880.712 168.062 880.534 168.358C880.356 168.65 880.269 168.992 880.273 169.386C880.269 169.788 880.358 170.138 880.54 170.438C880.725 170.737 880.981 170.97 881.307 171.136C881.633 171.303 882.008 171.386 882.432 171.386ZM892.359 178.159C891.503 178.159 890.774 177.926 890.172 177.46C889.57 176.991 889.109 176.311 888.791 175.42C888.473 174.527 888.314 173.447 888.314 172.182C888.314 170.924 888.473 169.85 888.791 168.96C889.113 168.066 889.575 167.384 890.178 166.915C890.784 166.441 891.511 166.205 892.359 166.205C893.208 166.205 893.933 166.441 894.536 166.915C895.142 167.384 895.604 168.066 895.922 168.96C896.244 169.85 896.405 170.924 896.405 172.182C896.405 173.447 896.246 174.527 895.928 175.42C895.609 176.311 895.149 176.991 894.547 177.46C893.945 177.926 893.215 178.159 892.359 178.159ZM892.359 176.909C893.208 176.909 893.867 176.5 894.337 175.682C894.806 174.864 895.041 173.697 895.041 172.182C895.041 171.174 894.933 170.316 894.717 169.608C894.505 168.9 894.198 168.36 893.797 167.989C893.399 167.617 892.92 167.432 892.359 167.432C891.518 167.432 890.861 167.847 890.388 168.676C889.914 169.502 889.678 170.67 889.678 172.182C889.678 173.189 889.784 174.045 889.996 174.75C890.208 175.455 890.513 175.991 890.911 176.358C891.312 176.725 891.795 176.909 892.359 176.909ZM898.615 178L903.82 167.705V167.614H897.82V166.364H905.274V167.682L900.092 178H898.615ZM910.938 178.159C910.081 178.159 909.352 177.926 908.75 177.46C908.148 176.991 907.688 176.311 907.369 175.42C907.051 174.527 906.892 173.447 906.892 172.182C906.892 170.924 907.051 169.85 907.369 168.96C907.691 168.066 908.153 167.384 908.756 166.915C909.362 166.441 910.089 166.205 910.938 166.205C911.786 166.205 912.511 166.441 913.114 166.915C913.72 167.384 914.182 168.066 914.5 168.96C914.822 169.85 914.983 170.924 914.983 172.182C914.983 173.447 914.824 174.527 914.506 175.42C914.188 176.311 913.727 176.991 913.125 177.46C912.523 177.926 911.794 178.159 910.938 178.159ZM910.938 176.909C911.786 176.909 912.445 176.5 912.915 175.682C913.384 174.864 913.619 173.697 913.619 172.182C913.619 171.174 913.511 170.316 913.295 169.608C913.083 168.9 912.777 168.36 912.375 167.989C911.977 167.617 911.498 167.432 910.938 167.432C910.097 167.432 909.439 167.847 908.966 168.676C908.492 169.502 908.256 170.67 908.256 172.182C908.256 173.189 908.362 174.045 908.574 174.75C908.786 175.455 909.091 175.991 909.489 176.358C909.89 176.725 910.373 176.909 910.938 176.909ZM917.193 178L922.398 167.705V167.614H916.398V166.364H923.852V167.682L918.67 178H917.193Z" fill="white"/>
</svg>
