<svg width="928" height="184" viewBox="0 0 928 184" fill="none" xmlns="http://www.w3.org/2000/svg">
<path d="M1.40909 18V6.36364H5.47727C6.28788 6.36364 6.95644 6.50379 7.48295 6.78409C8.00947 7.06061 8.40152 7.43371 8.65909 7.90341C8.91667 8.36932 9.04545 8.88636 9.04545 9.45455C9.04545 9.95455 8.95644 10.3674 8.77841 10.6932C8.60417 11.0189 8.37311 11.2765 8.08523 11.4659C7.80114 11.6553 7.49242 11.7955 7.15909 11.8864V12C7.51515 12.0227 7.87311 12.1477 8.23295 12.375C8.5928 12.6023 8.89394 12.928 9.13636 13.3523C9.37879 13.7765 9.5 14.2955 9.5 14.9091C9.5 15.4924 9.36742 16.017 9.10227 16.483C8.83712 16.9489 8.41856 17.3182 7.84659 17.5909C7.27462 17.8636 6.5303 18 5.61364 18H1.40909ZM2.81818 16.75H5.61364C6.53409 16.75 7.1875 16.572 7.57386 16.2159C7.96402 15.8561 8.15909 15.4205 8.15909 14.9091C8.15909 14.5152 8.05871 14.1515 7.85795 13.8182C7.6572 13.4811 7.37121 13.2121 7 13.0114C6.62879 12.8068 6.18939 12.7045 5.68182 12.7045H2.81818V16.75ZM2.81818 11.4773H5.43182C5.85606 11.4773 6.23864 11.3939 6.57955 11.2273C6.92424 11.0606 7.19697 10.8258 7.39773 10.5227C7.60227 10.2197 7.70455 9.86364 7.70455 9.45455C7.70455 8.94318 7.52652 8.50947 7.17045 8.15341C6.81439 7.79356 6.25 7.61364 5.47727 7.61364H2.81818V11.4773ZM11.6335 18V9.27273H12.929V10.5909H13.0199C13.179 10.1591 13.4669 9.80871 13.8835 9.53977C14.3002 9.27083 14.7699 9.13636 15.2926 9.13636C15.3911 9.13636 15.5142 9.13826 15.6619 9.14205C15.8097 9.14583 15.9214 9.15152 15.9972 9.15909V10.5227C15.9517 10.5114 15.8475 10.4943 15.6847 10.4716C15.5256 10.4451 15.357 10.4318 15.179 10.4318C14.7547 10.4318 14.3759 10.5208 14.0426 10.6989C13.7131 10.8731 13.4517 11.1155 13.2585 11.4261C13.0691 11.733 12.9744 12.0833 12.9744 12.4773V18H11.6335ZM20.1548 18.2045C19.6018 18.2045 19.0999 18.1004 18.6491 17.892C18.1984 17.6799 17.8404 17.375 17.5753 16.9773C17.3101 16.5758 17.1776 16.0909 17.1776 15.5227C17.1776 15.0227 17.276 14.6174 17.473 14.3068C17.67 13.9924 17.9332 13.7462 18.2628 13.5682C18.5923 13.3902 18.956 13.2576 19.3537 13.1705C19.7552 13.0795 20.1586 13.0076 20.5639 12.9545C21.0942 12.8864 21.5241 12.8352 21.8537 12.8011C22.187 12.7633 22.4295 12.7008 22.581 12.6136C22.7363 12.5265 22.8139 12.375 22.8139 12.1591V12.1136C22.8139 11.553 22.6605 11.1174 22.3537 10.8068C22.0507 10.4962 21.5904 10.3409 20.973 10.3409C20.3329 10.3409 19.831 10.4811 19.4673 10.7614C19.1037 11.0417 18.848 11.3409 18.7003 11.6591L17.4276 11.2045C17.6548 10.6742 17.9579 10.2614 18.3366 9.96591C18.7192 9.66667 19.1359 9.45833 19.5866 9.34091C20.0412 9.2197 20.4882 9.15909 20.9276 9.15909C21.2079 9.15909 21.5298 9.19318 21.8935 9.26136C22.2609 9.32576 22.6151 9.46023 22.956 9.66477C23.3007 9.86932 23.5866 10.178 23.8139 10.5909C24.0412 11.0038 24.1548 11.5568 24.1548 12.25V18H22.8139V16.8182H22.7457C22.6548 17.0076 22.5033 17.2102 22.2912 17.4261C22.0791 17.642 21.7969 17.8258 21.4446 17.9773C21.0923 18.1288 20.6624 18.2045 20.1548 18.2045ZM20.3594 17C20.8897 17 21.3366 16.8958 21.7003 16.6875C22.0677 16.4792 22.3442 16.2102 22.5298 15.8807C22.7192 15.5511 22.8139 15.2045 22.8139 14.8409V13.6136C22.7571 13.6818 22.6321 13.7443 22.4389 13.8011C22.2495 13.8542 22.0298 13.9015 21.7798 13.9432C21.5336 13.9811 21.2931 14.0152 21.0582 14.0455C20.8272 14.072 20.6397 14.0947 20.4957 14.1136C20.1473 14.1591 19.8215 14.233 19.5185 14.3352C19.2192 14.4337 18.9768 14.5833 18.7912 14.7841C18.6094 14.9811 18.5185 15.25 18.5185 15.5909C18.5185 16.0568 18.6908 16.4091 19.0355 16.6477C19.384 16.8826 19.8253 17 20.3594 17ZM27.9432 12.75V18H26.6023V9.27273H27.8977V10.6364H28.0114C28.2159 10.1932 28.5265 9.83712 28.9432 9.56818C29.3598 9.29545 29.8977 9.15909 30.5568 9.15909C31.1477 9.15909 31.6648 9.2803 32.108 9.52273C32.5511 9.76136 32.8958 10.125 33.142 10.6136C33.3883 11.0985 33.5114 11.7121 33.5114 12.4545V18H32.1705V12.5455C32.1705 11.8598 31.9924 11.3258 31.6364 10.9432C31.2803 10.5568 30.7917 10.3636 30.1705 10.3636C29.7424 10.3636 29.3598 10.4564 29.0227 10.642C28.6894 10.8277 28.4261 11.0985 28.233 11.4545C28.0398 11.8106 27.9432 12.2424 27.9432 12.75ZM39.2571 18.1818C38.5298 18.1818 37.8878 17.9981 37.331 17.6307C36.7741 17.2595 36.3385 16.7367 36.0241 16.0625C35.7098 15.3845 35.5526 14.5833 35.5526 13.6591C35.5526 12.7424 35.7098 11.947 36.0241 11.2727C36.3385 10.5985 36.776 10.0777 37.3366 9.71023C37.8973 9.3428 38.545 9.15909 39.2798 9.15909C39.848 9.15909 40.2969 9.25379 40.6264 9.44318C40.9598 9.62879 41.2135 9.84091 41.3878 10.0795C41.5658 10.3144 41.7041 10.5076 41.8026 10.6591H41.9162V6.36364H43.2571V18H41.9616V16.6591H41.8026C41.7041 16.8182 41.5639 17.0189 41.3821 17.2614C41.2003 17.5 40.9408 17.714 40.6037 17.9034C40.2666 18.089 39.8177 18.1818 39.2571 18.1818ZM39.4389 16.9773C39.9768 16.9773 40.4313 16.8371 40.8026 16.5568C41.1738 16.2727 41.456 15.8807 41.6491 15.3807C41.8423 14.8769 41.9389 14.2955 41.9389 13.6364C41.9389 12.9848 41.8442 12.4148 41.6548 11.9261C41.4654 11.4337 41.1851 11.0511 40.8139 10.7784C40.4427 10.5019 39.9844 10.3636 39.4389 10.3636C38.8707 10.3636 38.3973 10.5095 38.0185 10.8011C37.6435 11.089 37.3613 11.4811 37.1719 11.9773C36.9863 12.4697 36.8935 13.0227 36.8935 13.6364C36.8935 14.2576 36.9882 14.822 37.1776 15.3295C37.3707 15.8333 37.6548 16.2348 38.0298 16.5341C38.4086 16.8295 38.8783 16.9773 39.4389 16.9773ZM50.581 18V6.36364H54.5128C55.4257 6.36364 56.1719 6.52841 56.7514 6.85795C57.3348 7.18371 57.7666 7.625 58.0469 8.18182C58.3272 8.73864 58.4673 9.35985 58.4673 10.0455C58.4673 10.7311 58.3272 11.3542 58.0469 11.9148C57.7704 12.4754 57.3423 12.9223 56.7628 13.2557C56.1832 13.5852 55.4408 13.75 54.5355 13.75H51.7173V12.5H54.4901C55.1151 12.5 55.617 12.392 55.9957 12.1761C56.3745 11.9602 56.6491 11.6686 56.8196 11.3011C56.9938 10.9299 57.081 10.5114 57.081 10.0455C57.081 9.57955 56.9938 9.16288 56.8196 8.79545C56.6491 8.42803 56.3726 8.14015 55.9901 7.93182C55.6075 7.7197 55.0999 7.61364 54.4673 7.61364H51.9901V18H50.581ZM60.5554 18V9.27273H61.8963V18H60.5554ZM61.2372 7.81818C60.9759 7.81818 60.7505 7.72917 60.5611 7.55114C60.3755 7.37311 60.2827 7.15909 60.2827 6.90909C60.2827 6.65909 60.3755 6.44508 60.5611 6.26705C60.7505 6.08902 60.9759 6 61.2372 6C61.4986 6 61.7221 6.08902 61.9077 6.26705C62.0971 6.44508 62.1918 6.65909 62.1918 6.90909C62.1918 7.15909 62.0971 7.37311 61.9077 7.55114C61.7221 7.72917 61.4986 7.81818 61.2372 7.81818ZM67.8977 18.1818C67.0795 18.1818 66.375 17.9886 65.7841 17.6023C65.1932 17.2159 64.7386 16.6837 64.4205 16.0057C64.1023 15.3277 63.9432 14.553 63.9432 13.6818C63.9432 12.7955 64.1061 12.0133 64.4318 11.3352C64.7614 10.6534 65.2197 10.1212 65.8068 9.73864C66.3977 9.35227 67.0871 9.15909 67.875 9.15909C68.4886 9.15909 69.0417 9.27273 69.5341 9.5C70.0265 9.72727 70.4299 10.0455 70.7443 10.4545C71.0587 10.8636 71.2538 11.3409 71.3295 11.8864H69.9886C69.8864 11.4886 69.6591 11.1364 69.3068 10.8295C68.9583 10.5189 68.4886 10.3636 67.8977 10.3636C67.375 10.3636 66.9167 10.5 66.5227 10.7727C66.1326 11.0417 65.8277 11.4223 65.608 11.9148C65.392 12.4034 65.2841 12.9773 65.2841 13.6364C65.2841 14.3106 65.3902 14.8977 65.6023 15.3977C65.8182 15.8977 66.1212 16.286 66.5114 16.5625C66.9053 16.839 67.3674 16.9773 67.8977 16.9773C68.2462 16.9773 68.5625 16.9167 68.8466 16.7955C69.1307 16.6742 69.3712 16.5 69.5682 16.2727C69.7652 16.0455 69.9053 15.7727 69.9886 15.4545H71.3295C71.2538 15.9697 71.0663 16.4337 70.767 16.8466C70.4716 17.2557 70.0795 17.5814 69.5909 17.8239C69.1061 18.0625 68.5417 18.1818 67.8977 18.1818ZM77.0852 9.27273V10.4091H72.5625V9.27273H77.0852ZM73.8807 7.18182H75.2216V15.5C75.2216 15.8788 75.2765 16.1629 75.3864 16.3523C75.5 16.5379 75.6439 16.6629 75.8182 16.7273C75.9962 16.7879 76.1837 16.8182 76.3807 16.8182C76.5284 16.8182 76.6496 16.8106 76.7443 16.7955C76.839 16.7765 76.9148 16.7614 76.9716 16.75L77.2443 17.9545C77.1534 17.9886 77.0265 18.0227 76.8636 18.0568C76.7008 18.0947 76.4943 18.1136 76.2443 18.1136C75.8655 18.1136 75.4943 18.0322 75.1307 17.8693C74.7708 17.7064 74.4716 17.4583 74.233 17.125C73.9981 16.7917 73.8807 16.3712 73.8807 15.8636V7.18182ZM82.554 18.1818C81.7661 18.1818 81.0748 17.9943 80.4801 17.6193C79.8892 17.2443 79.4271 16.7197 79.0938 16.0455C78.7642 15.3712 78.5994 14.5833 78.5994 13.6818C78.5994 12.7727 78.7642 11.9792 79.0938 11.3011C79.4271 10.6231 79.8892 10.0966 80.4801 9.72159C81.0748 9.34659 81.7661 9.15909 82.554 9.15909C83.3419 9.15909 84.0313 9.34659 84.6222 9.72159C85.2169 10.0966 85.679 10.6231 86.0085 11.3011C86.3419 11.9792 86.5085 12.7727 86.5085 13.6818C86.5085 14.5833 86.3419 15.3712 86.0085 16.0455C85.679 16.7197 85.2169 17.2443 84.6222 17.6193C84.0313 17.9943 83.3419 18.1818 82.554 18.1818ZM82.554 16.9773C83.1525 16.9773 83.6449 16.8239 84.0312 16.517C84.4176 16.2102 84.7036 15.8068 84.8892 15.3068C85.0748 14.8068 85.1676 14.2652 85.1676 13.6818C85.1676 13.0985 85.0748 12.5549 84.8892 12.0511C84.7036 11.5473 84.4176 11.1402 84.0312 10.8295C83.6449 10.5189 83.1525 10.3636 82.554 10.3636C81.9555 10.3636 81.4631 10.5189 81.0767 10.8295C80.6903 11.1402 80.4044 11.5473 80.2188 12.0511C80.0331 12.5549 79.9403 13.0985 79.9403 13.6818C79.9403 14.2652 80.0331 14.8068 80.2188 15.3068C80.4044 15.8068 80.6903 16.2102 81.0767 16.517C81.4631 16.8239 81.9555 16.9773 82.554 16.9773ZM89.8963 12.75V18H88.5554V9.27273H89.8509V10.6364H89.9645C90.169 10.1932 90.4796 9.83712 90.8963 9.56818C91.313 9.29545 91.8509 9.15909 92.5099 9.15909C93.1009 9.15909 93.6179 9.2803 94.0611 9.52273C94.5043 9.76136 94.849 10.125 95.0952 10.6136C95.3414 11.0985 95.4645 11.7121 95.4645 12.4545V18H94.1236V12.5455C94.1236 11.8598 93.9455 11.3258 93.5895 10.9432C93.2334 10.5568 92.7448 10.3636 92.1236 10.3636C91.6955 10.3636 91.313 10.4564 90.9759 10.642C90.6425 10.8277 90.3793 11.0985 90.1861 11.4545C89.9929 11.8106 89.8963 12.2424 89.8963 12.75ZM102.597 18V6.36364H106.665C107.475 6.36364 108.144 6.50379 108.67 6.78409C109.197 7.06061 109.589 7.43371 109.847 7.90341C110.104 8.36932 110.233 8.88636 110.233 9.45455C110.233 9.95455 110.144 10.3674 109.966 10.6932C109.792 11.0189 109.561 11.2765 109.273 11.4659C108.989 11.6553 108.68 11.7955 108.347 11.8864V12C108.703 12.0227 109.061 12.1477 109.42 12.375C109.78 12.6023 110.081 12.928 110.324 13.3523C110.566 13.7765 110.688 14.2955 110.688 14.9091C110.688 15.4924 110.555 16.017 110.29 16.483C110.025 16.9489 109.606 17.3182 109.034 17.5909C108.462 17.8636 107.718 18 106.801 18H102.597ZM104.006 16.75H106.801C107.722 16.75 108.375 16.572 108.761 16.2159C109.152 15.8561 109.347 15.4205 109.347 14.9091C109.347 14.5152 109.246 14.1515 109.045 13.8182C108.845 13.4811 108.559 13.2121 108.188 13.0114C107.816 12.8068 107.377 12.7045 106.869 12.7045H104.006V16.75ZM104.006 11.4773H106.619C107.044 11.4773 107.426 11.3939 107.767 11.2273C108.112 11.0606 108.384 10.8258 108.585 10.5227C108.79 10.2197 108.892 9.86364 108.892 9.45455C108.892 8.94318 108.714 8.50947 108.358 8.15341C108.002 7.79356 107.438 7.61364 106.665 7.61364H104.006V11.4773ZM114.162 6.36364V18H112.821V6.36364H114.162ZM122.118 14.4318V9.27273H123.459V18H122.118V16.5227H122.027C121.822 16.9659 121.504 17.3428 121.072 17.6534C120.641 17.9602 120.095 18.1136 119.436 18.1136C118.891 18.1136 118.406 17.9943 117.982 17.7557C117.557 17.5133 117.224 17.1496 116.982 16.6648C116.739 16.1761 116.618 15.5606 116.618 14.8182V9.27273H117.959V14.7273C117.959 15.3636 118.137 15.8712 118.493 16.25C118.853 16.6288 119.311 16.8182 119.868 16.8182C120.201 16.8182 120.54 16.733 120.885 16.5625C121.233 16.392 121.525 16.1307 121.76 15.7784C121.999 15.4261 122.118 14.9773 122.118 14.4318ZM129.574 18.1818C128.733 18.1818 128.008 17.9962 127.398 17.625C126.792 17.25 126.324 16.7273 125.994 16.0568C125.669 15.3826 125.506 14.5985 125.506 13.7045C125.506 12.8106 125.669 12.0227 125.994 11.3409C126.324 10.6553 126.782 10.1212 127.369 9.73864C127.96 9.35227 128.65 9.15909 129.438 9.15909C129.892 9.15909 130.341 9.23485 130.784 9.38636C131.227 9.53788 131.631 9.78409 131.994 10.125C132.358 10.4621 132.648 10.9091 132.864 11.4659C133.08 12.0227 133.188 12.7083 133.188 13.5227V14.0909H126.46V12.9318H131.824C131.824 12.4394 131.725 12 131.528 11.6136C131.335 11.2273 131.059 10.9223 130.699 10.6989C130.343 10.4754 129.922 10.3636 129.438 10.3636C128.903 10.3636 128.441 10.4962 128.051 10.7614C127.665 11.0227 127.367 11.3636 127.159 11.7841C126.951 12.2045 126.847 12.6553 126.847 13.1364V13.9091C126.847 14.5682 126.96 15.1269 127.188 15.5852C127.419 16.0398 127.739 16.3864 128.148 16.625C128.557 16.8598 129.032 16.9773 129.574 16.9773C129.926 16.9773 130.244 16.928 130.528 16.8295C130.816 16.7273 131.064 16.5758 131.273 16.375C131.481 16.1705 131.642 15.9167 131.756 15.6136L133.051 15.9773C132.915 16.4167 132.686 16.803 132.364 17.1364C132.042 17.4659 131.644 17.7235 131.17 17.9091C130.697 18.0909 130.165 18.1818 129.574 18.1818Z" fill="white"/>
<rect y="40" width="64" height="80" rx="20" fill="#DEF4FF"/>
<path d="M23.5767 134.364V146H22.1676V135.841H22.0994L19.2585 137.727V136.295L22.1676 134.364H23.5767ZM30.7188 146.159C29.8627 146.159 29.1335 145.926 28.5312 145.46C27.929 144.991 27.4688 144.311 27.1506 143.42C26.8324 142.527 26.6733 141.447 26.6733 140.182C26.6733 138.924 26.8324 137.85 27.1506 136.96C27.4725 136.066 27.9347 135.384 28.5369 134.915C29.143 134.441 29.8703 134.205 30.7188 134.205C31.5672 134.205 32.2926 134.441 32.8949 134.915C33.5009 135.384 33.9631 136.066 34.2812 136.96C34.6032 137.85 34.7642 138.924 34.7642 140.182C34.7642 141.447 34.6051 142.527 34.2869 143.42C33.9688 144.311 33.5085 144.991 32.9062 145.46C32.304 145.926 31.5748 146.159 30.7188 146.159ZM30.7188 144.909C31.5672 144.909 32.2263 144.5 32.696 143.682C33.1657 142.864 33.4006 141.697 33.4006 140.182C33.4006 139.174 33.2926 138.316 33.0767 137.608C32.8646 136.9 32.5578 136.36 32.1562 135.989C31.7585 135.617 31.2794 135.432 30.7188 135.432C29.8778 135.432 29.2206 135.847 28.7472 136.676C28.2737 137.502 28.0369 138.67 28.0369 140.182C28.0369 141.189 28.143 142.045 28.3551 142.75C28.5672 143.455 28.8722 143.991 29.2699 144.358C29.6714 144.725 30.1544 144.909 30.7188 144.909ZM40.7188 146.159C39.8627 146.159 39.1335 145.926 38.5312 145.46C37.929 144.991 37.4688 144.311 37.1506 143.42C36.8324 142.527 36.6733 141.447 36.6733 140.182C36.6733 138.924 36.8324 137.85 37.1506 136.96C37.4725 136.066 37.9347 135.384 38.5369 134.915C39.143 134.441 39.8703 134.205 40.7188 134.205C41.5672 134.205 42.2926 134.441 42.8949 134.915C43.5009 135.384 43.9631 136.066 44.2812 136.96C44.6032 137.85 44.7642 138.924 44.7642 140.182C44.7642 141.447 44.6051 142.527 44.2869 143.42C43.9688 144.311 43.5085 144.991 42.9062 145.46C42.304 145.926 41.5748 146.159 40.7188 146.159ZM40.7188 144.909C41.5672 144.909 42.2263 144.5 42.696 143.682C43.1657 142.864 43.4006 141.697 43.4006 140.182C43.4006 139.174 43.2926 138.316 43.0767 137.608C42.8646 136.9 42.5578 136.36 42.1562 135.989C41.7585 135.617 41.2794 135.432 40.7188 135.432C39.8778 135.432 39.2206 135.847 38.7472 136.676C38.2737 137.502 38.0369 138.67 38.0369 140.182C38.0369 141.189 38.143 142.045 38.3551 142.75C38.5672 143.455 38.8722 143.991 39.2699 144.358C39.6714 144.725 40.1544 144.909 40.7188 144.909Z" fill="white"/>
<path d="M7.25 178H3.65909V166.364H7.40909C8.53788 166.364 9.50379 166.597 10.3068 167.062C11.1098 167.525 11.7254 168.189 12.1534 169.057C12.5814 169.92 12.7955 170.955 12.7955 172.159C12.7955 173.371 12.5795 174.415 12.1477 175.29C11.7159 176.161 11.0871 176.831 10.2614 177.301C9.43561 177.767 8.43182 178 7.25 178ZM5.06818 176.75H7.15909C8.12121 176.75 8.91856 176.564 9.55114 176.193C10.1837 175.822 10.6553 175.294 10.9659 174.608C11.2765 173.922 11.4318 173.106 11.4318 172.159C11.4318 171.22 11.2784 170.411 10.9716 169.733C10.6648 169.051 10.2064 168.528 9.59659 168.165C8.98674 167.797 8.22727 167.614 7.31818 167.614H5.06818V176.75ZM15.1591 178V166.364H22.1818V167.614H16.5682V171.545H21.8182V172.795H16.5682V176.75H22.2727V178H15.1591ZM24.7216 178V166.364H31.6989V167.614H26.1307V171.545H31.1761V172.795H26.1307V178H24.7216ZM33.6349 175.614V174.455L38.7486 166.364H39.5895V168.159H39.0213L35.1577 174.273V174.364H42.044V175.614H33.6349ZM39.1122 178V175.261V174.722V166.364H40.4531V178H39.1122ZM44.3778 178V166.364H51.3551V167.614H45.7869V171.545H50.8324V172.795H45.7869V178H44.3778ZM53.7685 178V166.364H60.7457V167.614H55.1776V171.545H60.223V172.795H55.1776V178H53.7685Z" fill="white"/>
<rect x="96" y="40" width="64" height="80" rx="20" fill="#B6EBFF"/>
<path d="M114.361 146V144.977L118.202 140.773C118.652 140.28 119.024 139.852 119.315 139.489C119.607 139.121 119.823 138.777 119.963 138.455C120.107 138.129 120.179 137.788 120.179 137.432C120.179 137.023 120.08 136.669 119.884 136.369C119.69 136.07 119.425 135.839 119.088 135.676C118.751 135.513 118.372 135.432 117.952 135.432C117.505 135.432 117.115 135.525 116.781 135.71C116.452 135.892 116.196 136.148 116.014 136.477C115.836 136.807 115.747 137.193 115.747 137.636H114.406C114.406 136.955 114.563 136.356 114.878 135.841C115.192 135.326 115.62 134.924 116.162 134.636C116.707 134.348 117.319 134.205 117.997 134.205C118.679 134.205 119.283 134.348 119.81 134.636C120.336 134.924 120.749 135.312 121.048 135.801C121.348 136.29 121.497 136.833 121.497 137.432C121.497 137.86 121.42 138.278 121.264 138.688C121.113 139.093 120.848 139.545 120.469 140.045C120.094 140.542 119.573 141.148 118.906 141.864L116.293 144.659V144.75H121.702V146H114.361ZM127.844 146.159C126.988 146.159 126.259 145.926 125.656 145.46C125.054 144.991 124.594 144.311 124.276 143.42C123.957 142.527 123.798 141.447 123.798 140.182C123.798 138.924 123.957 137.85 124.276 136.96C124.598 136.066 125.06 135.384 125.662 134.915C126.268 134.441 126.995 134.205 127.844 134.205C128.692 134.205 129.418 134.441 130.02 134.915C130.626 135.384 131.088 136.066 131.406 136.96C131.728 137.85 131.889 138.924 131.889 140.182C131.889 141.447 131.73 142.527 131.412 143.42C131.094 144.311 130.634 144.991 130.031 145.46C129.429 145.926 128.7 146.159 127.844 146.159ZM127.844 144.909C128.692 144.909 129.351 144.5 129.821 143.682C130.291 142.864 130.526 141.697 130.526 140.182C130.526 139.174 130.418 138.316 130.202 137.608C129.99 136.9 129.683 136.36 129.281 135.989C128.884 135.617 128.404 135.432 127.844 135.432C127.003 135.432 126.346 135.847 125.872 136.676C125.399 137.502 125.162 138.67 125.162 140.182C125.162 141.189 125.268 142.045 125.48 142.75C125.692 143.455 125.997 143.991 126.395 144.358C126.796 144.725 127.279 144.909 127.844 144.909ZM137.844 146.159C136.988 146.159 136.259 145.926 135.656 145.46C135.054 144.991 134.594 144.311 134.276 143.42C133.957 142.527 133.798 141.447 133.798 140.182C133.798 138.924 133.957 137.85 134.276 136.96C134.598 136.066 135.06 135.384 135.662 134.915C136.268 134.441 136.995 134.205 137.844 134.205C138.692 134.205 139.418 134.441 140.02 134.915C140.626 135.384 141.088 136.066 141.406 136.96C141.728 137.85 141.889 138.924 141.889 140.182C141.889 141.447 141.73 142.527 141.412 143.42C141.094 144.311 140.634 144.991 140.031 145.46C139.429 145.926 138.7 146.159 137.844 146.159ZM137.844 144.909C138.692 144.909 139.351 144.5 139.821 143.682C140.291 142.864 140.526 141.697 140.526 140.182C140.526 139.174 140.418 138.316 140.202 137.608C139.99 136.9 139.683 136.36 139.281 135.989C138.884 135.617 138.404 135.432 137.844 135.432C137.003 135.432 136.346 135.847 135.872 136.676C135.399 137.502 135.162 138.67 135.162 140.182C135.162 141.189 135.268 142.045 135.48 142.75C135.692 143.455 135.997 143.991 136.395 144.358C136.796 144.725 137.279 144.909 137.844 144.909Z" fill="white"/>
<path d="M99.8388 178V166.364H103.907C104.718 166.364 105.386 166.504 105.913 166.784C106.439 167.061 106.831 167.434 107.089 167.903C107.346 168.369 107.475 168.886 107.475 169.455C107.475 169.955 107.386 170.367 107.208 170.693C107.034 171.019 106.803 171.277 106.515 171.466C106.231 171.655 105.922 171.795 105.589 171.886V172C105.945 172.023 106.303 172.148 106.663 172.375C107.022 172.602 107.324 172.928 107.566 173.352C107.808 173.777 107.93 174.295 107.93 174.909C107.93 175.492 107.797 176.017 107.532 176.483C107.267 176.949 106.848 177.318 106.276 177.591C105.704 177.864 104.96 178 104.043 178H99.8388ZM101.248 176.75H104.043C104.964 176.75 105.617 176.572 106.004 176.216C106.394 175.856 106.589 175.42 106.589 174.909C106.589 174.515 106.488 174.152 106.288 173.818C106.087 173.481 105.801 173.212 105.43 173.011C105.058 172.807 104.619 172.705 104.112 172.705H101.248V176.75ZM101.248 171.477H103.862C104.286 171.477 104.668 171.394 105.009 171.227C105.354 171.061 105.627 170.826 105.827 170.523C106.032 170.22 106.134 169.864 106.134 169.455C106.134 168.943 105.956 168.509 105.6 168.153C105.244 167.794 104.68 167.614 103.907 167.614H101.248V171.477ZM113.904 178.159C113.427 178.152 112.95 178.061 112.472 177.886C111.995 177.712 111.559 177.419 111.165 177.006C110.772 176.589 110.455 176.027 110.217 175.318C109.978 174.606 109.859 173.712 109.859 172.636C109.859 171.606 109.955 170.693 110.148 169.898C110.342 169.098 110.622 168.426 110.989 167.881C111.357 167.331 111.8 166.915 112.319 166.631C112.842 166.347 113.431 166.205 114.086 166.205C114.737 166.205 115.317 166.335 115.825 166.597C116.336 166.854 116.753 167.214 117.075 167.676C117.397 168.138 117.605 168.67 117.7 169.273H116.313C116.184 168.75 115.934 168.316 115.563 167.972C115.192 167.627 114.7 167.455 114.086 167.455C113.184 167.455 112.474 167.847 111.955 168.631C111.44 169.415 111.181 170.515 111.177 171.932H111.268C111.48 171.61 111.732 171.335 112.023 171.108C112.319 170.877 112.645 170.699 113.001 170.574C113.357 170.449 113.734 170.386 114.131 170.386C114.798 170.386 115.408 170.553 115.961 170.886C116.514 171.216 116.957 171.672 117.29 172.256C117.624 172.835 117.79 173.5 117.79 174.25C117.79 174.97 117.629 175.629 117.308 176.227C116.986 176.822 116.533 177.295 115.95 177.648C115.37 177.996 114.688 178.167 113.904 178.159ZM113.904 176.909C114.381 176.909 114.809 176.79 115.188 176.551C115.571 176.312 115.872 175.992 116.092 175.591C116.315 175.189 116.427 174.742 116.427 174.25C116.427 173.769 116.319 173.331 116.103 172.938C115.891 172.54 115.597 172.223 115.222 171.989C114.851 171.754 114.427 171.636 113.95 171.636C113.59 171.636 113.254 171.708 112.944 171.852C112.633 171.992 112.361 172.186 112.126 172.432C111.895 172.678 111.713 172.96 111.58 173.278C111.448 173.593 111.381 173.924 111.381 174.273C111.381 174.735 111.489 175.167 111.705 175.568C111.925 175.97 112.224 176.294 112.603 176.54C112.986 176.786 113.419 176.909 113.904 176.909ZM120.229 178V166.364H127.252V167.614H121.638V171.545H126.888V172.795H121.638V176.75H127.343V178H120.229ZM129.792 178V166.364H133.86C134.671 166.364 135.339 166.504 135.866 166.784C136.392 167.061 136.784 167.434 137.042 167.903C137.299 168.369 137.428 168.886 137.428 169.455C137.428 169.955 137.339 170.367 137.161 170.693C136.987 171.019 136.756 171.277 136.468 171.466C136.184 171.655 135.875 171.795 135.542 171.886V172C135.898 172.023 136.256 172.148 136.616 172.375C136.976 172.602 137.277 172.928 137.519 173.352C137.762 173.777 137.883 174.295 137.883 174.909C137.883 175.492 137.75 176.017 137.485 176.483C137.22 176.949 136.801 177.318 136.229 177.591C135.657 177.864 134.913 178 133.996 178H129.792ZM131.201 176.75H133.996C134.917 176.75 135.57 176.572 135.957 176.216C136.347 175.856 136.542 175.42 136.542 174.909C136.542 174.515 136.442 174.152 136.241 173.818C136.04 173.481 135.754 173.212 135.383 173.011C135.012 172.807 134.572 172.705 134.065 172.705H131.201V176.75ZM131.201 171.477H133.815C134.239 171.477 134.621 171.394 134.962 171.227C135.307 171.061 135.58 170.826 135.781 170.523C135.985 170.22 136.087 169.864 136.087 169.455C136.087 168.943 135.909 168.509 135.553 168.153C135.197 167.794 134.633 167.614 133.86 167.614H131.201V171.477ZM140.198 178V166.364H147.175V167.614H141.607V171.545H146.653V172.795H141.607V178H140.198ZM149.589 178V166.364H156.566V167.614H150.998V171.545H156.043V172.795H150.998V178H149.589Z" fill="white"/>
<rect x="192" y="40" width="64" height="80" rx="20" fill="#75DEFF"/>
<path d="M214.043 146.159C213.293 146.159 212.624 146.03 212.037 145.773C211.454 145.515 210.99 145.157 210.645 144.699C210.304 144.237 210.118 143.701 210.088 143.091H211.52C211.55 143.466 211.679 143.79 211.906 144.062C212.134 144.331 212.431 144.54 212.798 144.688C213.166 144.835 213.573 144.909 214.02 144.909C214.52 144.909 214.963 144.822 215.349 144.648C215.736 144.473 216.039 144.231 216.259 143.92C216.478 143.61 216.588 143.25 216.588 142.841C216.588 142.413 216.482 142.036 216.27 141.71C216.058 141.381 215.747 141.123 215.338 140.938C214.929 140.752 214.429 140.659 213.838 140.659H212.906V139.409H213.838C214.3 139.409 214.705 139.326 215.054 139.159C215.406 138.992 215.681 138.758 215.878 138.455C216.079 138.152 216.179 137.795 216.179 137.386C216.179 136.992 216.092 136.65 215.918 136.358C215.743 136.066 215.497 135.839 215.179 135.676C214.865 135.513 214.493 135.432 214.065 135.432C213.664 135.432 213.285 135.506 212.929 135.653C212.577 135.797 212.289 136.008 212.065 136.284C211.842 136.557 211.721 136.886 211.702 137.273H210.338C210.361 136.663 210.545 136.129 210.889 135.67C211.234 135.208 211.685 134.848 212.241 134.591C212.802 134.333 213.418 134.205 214.088 134.205C214.808 134.205 215.425 134.35 215.94 134.642C216.455 134.93 216.851 135.311 217.128 135.784C217.404 136.258 217.543 136.769 217.543 137.318C217.543 137.973 217.37 138.532 217.026 138.994C216.685 139.456 216.221 139.777 215.634 139.955V140.045C216.368 140.167 216.942 140.479 217.355 140.983C217.768 141.483 217.974 142.102 217.974 142.841C217.974 143.473 217.802 144.042 217.457 144.545C217.116 145.045 216.651 145.439 216.06 145.727C215.469 146.015 214.796 146.159 214.043 146.159ZM224.094 146.159C223.238 146.159 222.509 145.926 221.906 145.46C221.304 144.991 220.844 144.311 220.526 143.42C220.207 142.527 220.048 141.447 220.048 140.182C220.048 138.924 220.207 137.85 220.526 136.96C220.848 136.066 221.31 135.384 221.912 134.915C222.518 134.441 223.245 134.205 224.094 134.205C224.942 134.205 225.668 134.441 226.27 134.915C226.876 135.384 227.338 136.066 227.656 136.96C227.978 137.85 228.139 138.924 228.139 140.182C228.139 141.447 227.98 142.527 227.662 143.42C227.344 144.311 226.884 144.991 226.281 145.46C225.679 145.926 224.95 146.159 224.094 146.159ZM224.094 144.909C224.942 144.909 225.601 144.5 226.071 143.682C226.541 142.864 226.776 141.697 226.776 140.182C226.776 139.174 226.668 138.316 226.452 137.608C226.24 136.9 225.933 136.36 225.531 135.989C225.134 135.617 224.654 135.432 224.094 135.432C223.253 135.432 222.596 135.847 222.122 136.676C221.649 137.502 221.412 138.67 221.412 140.182C221.412 141.189 221.518 142.045 221.73 142.75C221.942 143.455 222.247 143.991 222.645 144.358C223.046 144.725 223.529 144.909 224.094 144.909ZM234.094 146.159C233.238 146.159 232.509 145.926 231.906 145.46C231.304 144.991 230.844 144.311 230.526 143.42C230.207 142.527 230.048 141.447 230.048 140.182C230.048 138.924 230.207 137.85 230.526 136.96C230.848 136.066 231.31 135.384 231.912 134.915C232.518 134.441 233.245 134.205 234.094 134.205C234.942 134.205 235.668 134.441 236.27 134.915C236.876 135.384 237.338 136.066 237.656 136.96C237.978 137.85 238.139 138.924 238.139 140.182C238.139 141.447 237.98 142.527 237.662 143.42C237.344 144.311 236.884 144.991 236.281 145.46C235.679 145.926 234.95 146.159 234.094 146.159ZM234.094 144.909C234.942 144.909 235.601 144.5 236.071 143.682C236.541 142.864 236.776 141.697 236.776 140.182C236.776 139.174 236.668 138.316 236.452 137.608C236.24 136.9 235.933 136.36 235.531 135.989C235.134 135.617 234.654 135.432 234.094 135.432C233.253 135.432 232.596 135.847 232.122 136.676C231.649 137.502 231.412 138.67 231.412 140.182C231.412 141.189 231.518 142.045 231.73 142.75C231.942 143.455 232.247 143.991 232.645 144.358C233.046 144.725 233.529 144.909 234.094 144.909Z" fill="white"/>
<path d="M196.287 178L201.491 167.705V167.614H195.491V166.364H202.946V167.682L197.764 178H196.287ZM208.544 178.159C207.877 178.159 207.277 178.027 206.743 177.761C206.209 177.496 205.781 177.133 205.459 176.67C205.137 176.208 204.961 175.682 204.93 175.091H206.294C206.347 175.617 206.586 176.053 207.01 176.398C207.438 176.739 207.949 176.909 208.544 176.909C209.021 176.909 209.446 176.797 209.817 176.574C210.192 176.35 210.485 176.044 210.697 175.653C210.913 175.259 211.021 174.814 211.021 174.318C211.021 173.811 210.91 173.358 210.686 172.96C210.466 172.559 210.163 172.242 209.777 172.011C209.391 171.78 208.949 171.663 208.453 171.659C208.097 171.655 207.732 171.71 207.357 171.824C206.982 171.934 206.673 172.076 206.43 172.25L205.112 172.091L205.817 166.364H211.862V167.614H206.999L206.589 171.045H206.658C206.896 170.856 207.196 170.699 207.555 170.574C207.915 170.449 208.29 170.386 208.68 170.386C209.393 170.386 210.027 170.557 210.584 170.898C211.144 171.235 211.584 171.697 211.902 172.284C212.224 172.871 212.385 173.542 212.385 174.295C212.385 175.038 212.218 175.701 211.885 176.284C211.555 176.864 211.101 177.322 210.521 177.659C209.942 177.992 209.283 178.159 208.544 178.159ZM218.438 178H214.847V166.364H218.597C219.725 166.364 220.691 166.597 221.494 167.062C222.297 167.525 222.913 168.189 223.341 169.057C223.769 169.92 223.983 170.955 223.983 172.159C223.983 173.371 223.767 174.415 223.335 175.29C222.903 176.161 222.275 176.831 221.449 177.301C220.623 177.767 219.619 178 218.438 178ZM216.256 176.75H218.347C219.309 176.75 220.106 176.564 220.739 176.193C221.371 175.822 221.843 175.294 222.153 174.608C222.464 173.922 222.619 173.106 222.619 172.159C222.619 171.22 222.466 170.411 222.159 169.733C221.852 169.051 221.394 168.528 220.784 168.165C220.174 167.797 219.415 167.614 218.506 167.614H216.256V176.75ZM226.347 178V166.364H233.369V167.614H227.756V171.545H233.006V172.795H227.756V176.75H233.46V178H226.347ZM235.909 178V166.364H242.886V167.614H237.318V171.545H242.364V172.795H237.318V178H235.909ZM245.3 178V166.364H252.277V167.614H246.709V171.545H251.754V172.795H246.709V178H245.3Z" fill="white"/>
<rect x="288" y="40" width="64" height="80" rx="20" fill="#2CCFFF"/>
<path d="M305.799 143.614V142.455L310.913 134.364H311.754V136.159H311.185L307.322 142.273V142.364H314.208V143.614H305.799ZM311.276 146V143.261V142.722V134.364H312.617V146H311.276ZM320.133 146.159C319.277 146.159 318.548 145.926 317.945 145.46C317.343 144.991 316.883 144.311 316.565 143.42C316.246 142.527 316.087 141.447 316.087 140.182C316.087 138.924 316.246 137.85 316.565 136.96C316.887 136.066 317.349 135.384 317.951 134.915C318.557 134.441 319.284 134.205 320.133 134.205C320.981 134.205 321.707 134.441 322.309 134.915C322.915 135.384 323.377 136.066 323.695 136.96C324.017 137.85 324.178 138.924 324.178 140.182C324.178 141.447 324.019 142.527 323.701 143.42C323.383 144.311 322.923 144.991 322.32 145.46C321.718 145.926 320.989 146.159 320.133 146.159ZM320.133 144.909C320.981 144.909 321.64 144.5 322.11 143.682C322.58 142.864 322.815 141.697 322.815 140.182C322.815 139.174 322.707 138.316 322.491 137.608C322.279 136.9 321.972 136.36 321.57 135.989C321.173 135.617 320.693 135.432 320.133 135.432C319.292 135.432 318.635 135.847 318.161 136.676C317.688 137.502 317.451 138.67 317.451 140.182C317.451 141.189 317.557 142.045 317.769 142.75C317.981 143.455 318.286 143.991 318.684 144.358C319.085 144.725 319.568 144.909 320.133 144.909ZM330.133 146.159C329.277 146.159 328.548 145.926 327.945 145.46C327.343 144.991 326.883 144.311 326.565 143.42C326.246 142.527 326.087 141.447 326.087 140.182C326.087 138.924 326.246 137.85 326.565 136.96C326.887 136.066 327.349 135.384 327.951 134.915C328.557 134.441 329.284 134.205 330.133 134.205C330.981 134.205 331.707 134.441 332.309 134.915C332.915 135.384 333.377 136.066 333.695 136.96C334.017 137.85 334.178 138.924 334.178 140.182C334.178 141.447 334.019 142.527 333.701 143.42C333.383 144.311 332.923 144.991 332.32 145.46C331.718 145.926 330.989 146.159 330.133 146.159ZM330.133 144.909C330.981 144.909 331.64 144.5 332.11 143.682C332.58 142.864 332.815 141.697 332.815 140.182C332.815 139.174 332.707 138.316 332.491 137.608C332.279 136.9 331.972 136.36 331.57 135.989C331.173 135.617 330.693 135.432 330.133 135.432C329.292 135.432 328.635 135.847 328.161 136.676C327.688 137.502 327.451 138.67 327.451 140.182C327.451 141.189 327.557 142.045 327.769 142.75C327.981 143.455 328.286 143.991 328.684 144.358C329.085 144.725 329.568 144.909 330.133 144.909Z" fill="white"/>
<path d="M290.634 178V176.977L294.475 172.773C294.926 172.28 295.297 171.852 295.589 171.489C295.88 171.121 296.096 170.777 296.237 170.455C296.38 170.129 296.452 169.788 296.452 169.432C296.452 169.023 296.354 168.669 296.157 168.369C295.964 168.07 295.699 167.839 295.362 167.676C295.024 167.513 294.646 167.432 294.225 167.432C293.778 167.432 293.388 167.525 293.055 167.71C292.725 167.892 292.469 168.148 292.288 168.477C292.11 168.807 292.021 169.193 292.021 169.636H290.68C290.68 168.955 290.837 168.356 291.151 167.841C291.466 167.326 291.894 166.924 292.435 166.636C292.981 166.348 293.593 166.205 294.271 166.205C294.952 166.205 295.557 166.348 296.083 166.636C296.61 166.924 297.022 167.312 297.322 167.801C297.621 168.29 297.771 168.833 297.771 169.432C297.771 169.86 297.693 170.278 297.538 170.688C297.386 171.093 297.121 171.545 296.742 172.045C296.367 172.542 295.846 173.148 295.18 173.864L292.566 176.659V176.75H297.975V178H290.634ZM309.89 170H308.481C308.397 169.595 308.252 169.239 308.043 168.932C307.839 168.625 307.589 168.367 307.293 168.159C307.002 167.947 306.678 167.788 306.322 167.682C305.966 167.576 305.594 167.523 305.208 167.523C304.504 167.523 303.865 167.701 303.293 168.057C302.725 168.413 302.272 168.938 301.935 169.631C301.602 170.324 301.435 171.174 301.435 172.182C301.435 173.189 301.602 174.04 301.935 174.733C302.272 175.426 302.725 175.951 303.293 176.307C303.865 176.663 304.504 176.841 305.208 176.841C305.594 176.841 305.966 176.788 306.322 176.682C306.678 176.576 307.002 176.419 307.293 176.21C307.589 175.998 307.839 175.739 308.043 175.432C308.252 175.121 308.397 174.765 308.481 174.364H309.89C309.784 174.958 309.591 175.491 309.31 175.96C309.03 176.43 308.682 176.83 308.265 177.159C307.848 177.485 307.38 177.733 306.862 177.903C306.346 178.074 305.795 178.159 305.208 178.159C304.216 178.159 303.333 177.917 302.56 177.432C301.788 176.947 301.18 176.258 300.737 175.364C300.293 174.47 300.072 173.409 300.072 172.182C300.072 170.955 300.293 169.894 300.737 169C301.18 168.106 301.788 167.417 302.56 166.932C303.333 166.447 304.216 166.205 305.208 166.205C305.795 166.205 306.346 166.29 306.862 166.46C307.38 166.631 307.848 166.881 308.265 167.21C308.682 167.536 309.03 167.934 309.31 168.403C309.591 168.869 309.784 169.402 309.89 170ZM321.531 170H320.121C320.038 169.595 319.892 169.239 319.684 168.932C319.479 168.625 319.229 168.367 318.934 168.159C318.642 167.947 318.318 167.788 317.962 167.682C317.606 167.576 317.235 167.523 316.849 167.523C316.144 167.523 315.506 167.701 314.934 168.057C314.366 168.413 313.913 168.938 313.576 169.631C313.243 170.324 313.076 171.174 313.076 172.182C313.076 173.189 313.243 174.04 313.576 174.733C313.913 175.426 314.366 175.951 314.934 176.307C315.506 176.663 316.144 176.841 316.849 176.841C317.235 176.841 317.606 176.788 317.962 176.682C318.318 176.576 318.642 176.419 318.934 176.21C319.229 175.998 319.479 175.739 319.684 175.432C319.892 175.121 320.038 174.765 320.121 174.364H321.531C321.424 174.958 321.231 175.491 320.951 175.96C320.671 176.43 320.322 176.83 319.906 177.159C319.489 177.485 319.021 177.733 318.502 177.903C317.987 178.074 317.436 178.159 316.849 178.159C315.856 178.159 314.974 177.917 314.201 177.432C313.428 176.947 312.82 176.258 312.377 175.364C311.934 174.47 311.712 173.409 311.712 172.182C311.712 170.955 311.934 169.894 312.377 169C312.82 168.106 313.428 167.417 314.201 166.932C314.974 166.447 315.856 166.205 316.849 166.205C317.436 166.205 317.987 166.29 318.502 166.46C319.021 166.631 319.489 166.881 319.906 167.21C320.322 167.536 320.671 167.934 320.951 168.403C321.231 168.869 321.424 169.402 321.531 170ZM323.808 178V166.364H330.785V167.614H325.217V171.545H330.262V172.795H325.217V178H323.808ZM333.198 178V166.364H340.175V167.614H334.607V171.545H339.653V172.795H334.607V178H333.198ZM342.589 178V166.364H349.566V167.614H343.998V171.545H349.043V172.795H343.998V178H342.589Z" fill="white"/>
<rect x="384" y="40" width="64" height="80" rx="20" fill="#00BFFF"/>
<path d="M405.974 146.159C405.307 146.159 404.707 146.027 404.173 145.761C403.638 145.496 403.21 145.133 402.888 144.67C402.567 144.208 402.39 143.682 402.36 143.091H403.724C403.777 143.617 404.015 144.053 404.44 144.398C404.868 144.739 405.379 144.909 405.974 144.909C406.451 144.909 406.875 144.797 407.246 144.574C407.621 144.35 407.915 144.044 408.127 143.653C408.343 143.259 408.451 142.814 408.451 142.318C408.451 141.811 408.339 141.358 408.116 140.96C407.896 140.559 407.593 140.242 407.207 140.011C406.82 139.78 406.379 139.663 405.883 139.659C405.527 139.655 405.161 139.71 404.786 139.824C404.411 139.934 404.103 140.076 403.86 140.25L402.542 140.091L403.246 134.364H409.292V135.614H404.428L404.019 139.045H404.087C404.326 138.856 404.625 138.699 404.985 138.574C405.345 138.449 405.72 138.386 406.11 138.386C406.822 138.386 407.457 138.557 408.013 138.898C408.574 139.235 409.013 139.697 409.332 140.284C409.654 140.871 409.815 141.542 409.815 142.295C409.815 143.038 409.648 143.701 409.315 144.284C408.985 144.864 408.531 145.322 407.951 145.659C407.371 145.992 406.712 146.159 405.974 146.159ZM415.867 146.159C415.011 146.159 414.282 145.926 413.68 145.46C413.077 144.991 412.617 144.311 412.299 143.42C411.981 142.527 411.822 141.447 411.822 140.182C411.822 138.924 411.981 137.85 412.299 136.96C412.621 136.066 413.083 135.384 413.685 134.915C414.291 134.441 415.019 134.205 415.867 134.205C416.716 134.205 417.441 134.441 418.043 134.915C418.649 135.384 419.112 136.066 419.43 136.96C419.752 137.85 419.913 138.924 419.913 140.182C419.913 141.447 419.754 142.527 419.435 143.42C419.117 144.311 418.657 144.991 418.055 145.46C417.452 145.926 416.723 146.159 415.867 146.159ZM415.867 144.909C416.716 144.909 417.375 144.5 417.844 143.682C418.314 142.864 418.549 141.697 418.549 140.182C418.549 139.174 418.441 138.316 418.225 137.608C418.013 136.9 417.706 136.36 417.305 135.989C416.907 135.617 416.428 135.432 415.867 135.432C415.026 135.432 414.369 135.847 413.896 136.676C413.422 137.502 413.185 138.67 413.185 140.182C413.185 141.189 413.291 142.045 413.504 142.75C413.716 143.455 414.021 143.991 414.418 144.358C414.82 144.725 415.303 144.909 415.867 144.909ZM425.867 146.159C425.011 146.159 424.282 145.926 423.68 145.46C423.077 144.991 422.617 144.311 422.299 143.42C421.981 142.527 421.822 141.447 421.822 140.182C421.822 138.924 421.981 137.85 422.299 136.96C422.621 136.066 423.083 135.384 423.685 134.915C424.291 134.441 425.019 134.205 425.867 134.205C426.716 134.205 427.441 134.441 428.043 134.915C428.649 135.384 429.112 136.066 429.43 136.96C429.752 137.85 429.913 138.924 429.913 140.182C429.913 141.447 429.754 142.527 429.435 143.42C429.117 144.311 428.657 144.991 428.055 145.46C427.452 145.926 426.723 146.159 425.867 146.159ZM425.867 144.909C426.716 144.909 427.375 144.5 427.844 143.682C428.314 142.864 428.549 141.697 428.549 140.182C428.549 139.174 428.441 138.316 428.225 137.608C428.013 136.9 427.706 136.36 427.305 135.989C426.907 135.617 426.428 135.432 425.867 135.432C425.026 135.432 424.369 135.847 423.896 136.676C423.422 137.502 423.185 138.67 423.185 140.182C423.185 141.189 423.291 142.045 423.504 142.75C423.716 143.455 424.021 143.991 424.418 144.358C424.82 144.725 425.303 144.909 425.867 144.909Z" fill="white"/>
<path d="M391.711 178.159C390.855 178.159 390.126 177.926 389.523 177.46C388.921 176.991 388.461 176.311 388.143 175.42C387.825 174.527 387.665 173.447 387.665 172.182C387.665 170.924 387.825 169.85 388.143 168.96C388.465 168.066 388.927 167.384 389.529 166.915C390.135 166.441 390.862 166.205 391.711 166.205C392.559 166.205 393.285 166.441 393.887 166.915C394.493 167.384 394.955 168.066 395.273 168.96C395.595 169.85 395.756 170.924 395.756 172.182C395.756 173.447 395.597 174.527 395.279 175.42C394.961 176.311 394.501 176.991 393.898 177.46C393.296 177.926 392.567 178.159 391.711 178.159ZM391.711 176.909C392.559 176.909 393.219 176.5 393.688 175.682C394.158 174.864 394.393 173.697 394.393 172.182C394.393 171.174 394.285 170.316 394.069 169.608C393.857 168.9 393.55 168.36 393.148 167.989C392.751 167.617 392.272 167.432 391.711 167.432C390.87 167.432 390.213 167.847 389.739 168.676C389.266 169.502 389.029 170.67 389.029 172.182C389.029 173.189 389.135 174.045 389.347 174.75C389.559 175.455 389.864 175.991 390.262 176.358C390.664 176.725 391.147 176.909 391.711 176.909ZM401.711 178.159C400.855 178.159 400.126 177.926 399.523 177.46C398.921 176.991 398.461 176.311 398.143 175.42C397.825 174.527 397.665 173.447 397.665 172.182C397.665 170.924 397.825 169.85 398.143 168.96C398.465 168.066 398.927 167.384 399.529 166.915C400.135 166.441 400.862 166.205 401.711 166.205C402.559 166.205 403.285 166.441 403.887 166.915C404.493 167.384 404.955 168.066 405.273 168.96C405.595 169.85 405.756 170.924 405.756 172.182C405.756 173.447 405.597 174.527 405.279 175.42C404.961 176.311 404.501 176.991 403.898 177.46C403.296 177.926 402.567 178.159 401.711 178.159ZM401.711 176.909C402.559 176.909 403.219 176.5 403.688 175.682C404.158 174.864 404.393 173.697 404.393 172.182C404.393 171.174 404.285 170.316 404.069 169.608C403.857 168.9 403.55 168.36 403.148 167.989C402.751 167.617 402.272 167.432 401.711 167.432C400.87 167.432 400.213 167.847 399.739 168.676C399.266 169.502 399.029 170.67 399.029 172.182C399.029 173.189 399.135 174.045 399.347 174.75C399.559 175.455 399.864 175.991 400.262 176.358C400.664 176.725 401.147 176.909 401.711 176.909ZM408.12 178V166.364H412.188C412.999 166.364 413.667 166.504 414.194 166.784C414.72 167.061 415.112 167.434 415.37 167.903C415.628 168.369 415.756 168.886 415.756 169.455C415.756 169.955 415.667 170.367 415.489 170.693C415.315 171.019 415.084 171.277 414.796 171.466C414.512 171.655 414.203 171.795 413.87 171.886V172C414.226 172.023 414.584 172.148 414.944 172.375C415.304 172.602 415.605 172.928 415.847 173.352C416.09 173.777 416.211 174.295 416.211 174.909C416.211 175.492 416.078 176.017 415.813 176.483C415.548 176.949 415.129 177.318 414.558 177.591C413.986 177.864 413.241 178 412.325 178H408.12ZM409.529 176.75H412.325C413.245 176.75 413.898 176.572 414.285 176.216C414.675 175.856 414.87 175.42 414.87 174.909C414.87 174.515 414.77 174.152 414.569 173.818C414.368 173.481 414.082 173.212 413.711 173.011C413.34 172.807 412.9 172.705 412.393 172.705H409.529V176.75ZM409.529 171.477H412.143C412.567 171.477 412.95 171.394 413.29 171.227C413.635 171.061 413.908 170.826 414.109 170.523C414.313 170.22 414.415 169.864 414.415 169.455C414.415 168.943 414.237 168.509 413.881 168.153C413.525 167.794 412.961 167.614 412.188 167.614H409.529V171.477ZM418.526 178V166.364H425.504V167.614H419.935V171.545H424.981V172.795H419.935V178H418.526ZM427.917 178V166.364H434.894V167.614H429.326V171.545H434.371V172.795H429.326V178H427.917ZM437.308 178V166.364H444.285V167.614H438.717V171.545H443.762V172.795H438.717V178H437.308Z" fill="white"/>
<rect x="480" y="40" width="64" height="80" rx="20" fill="#0095D4"/>
<path d="M502.076 146.159C501.599 146.152 501.121 146.061 500.644 145.886C500.167 145.712 499.731 145.419 499.337 145.006C498.943 144.589 498.627 144.027 498.388 143.318C498.15 142.606 498.031 141.712 498.031 140.636C498.031 139.606 498.127 138.693 498.32 137.898C498.513 137.098 498.794 136.426 499.161 135.881C499.529 135.331 499.972 134.915 500.491 134.631C501.013 134.347 501.603 134.205 502.258 134.205C502.909 134.205 503.489 134.335 503.996 134.597C504.508 134.854 504.924 135.214 505.246 135.676C505.568 136.138 505.777 136.67 505.871 137.273H504.485C504.356 136.75 504.106 136.316 503.735 135.972C503.364 135.627 502.871 135.455 502.258 135.455C501.356 135.455 500.646 135.847 500.127 136.631C499.612 137.415 499.353 138.515 499.349 139.932H499.44C499.652 139.61 499.904 139.335 500.195 139.108C500.491 138.877 500.817 138.699 501.173 138.574C501.529 138.449 501.906 138.386 502.303 138.386C502.97 138.386 503.58 138.553 504.133 138.886C504.686 139.216 505.129 139.672 505.462 140.256C505.796 140.835 505.962 141.5 505.962 142.25C505.962 142.97 505.801 143.629 505.479 144.227C505.157 144.822 504.705 145.295 504.121 145.648C503.542 145.996 502.86 146.167 502.076 146.159ZM502.076 144.909C502.553 144.909 502.981 144.79 503.36 144.551C503.743 144.312 504.044 143.992 504.263 143.591C504.487 143.189 504.599 142.742 504.599 142.25C504.599 141.769 504.491 141.331 504.275 140.938C504.063 140.54 503.769 140.223 503.394 139.989C503.023 139.754 502.599 139.636 502.121 139.636C501.762 139.636 501.426 139.708 501.116 139.852C500.805 139.992 500.532 140.186 500.298 140.432C500.067 140.678 499.885 140.96 499.752 141.278C499.62 141.593 499.553 141.924 499.553 142.273C499.553 142.735 499.661 143.167 499.877 143.568C500.097 143.97 500.396 144.294 500.775 144.54C501.157 144.786 501.591 144.909 502.076 144.909ZM511.992 146.159C511.136 146.159 510.407 145.926 509.805 145.46C509.202 144.991 508.742 144.311 508.424 143.42C508.106 142.527 507.947 141.447 507.947 140.182C507.947 138.924 508.106 137.85 508.424 136.96C508.746 136.066 509.208 135.384 509.81 134.915C510.416 134.441 511.144 134.205 511.992 134.205C512.841 134.205 513.566 134.441 514.168 134.915C514.774 135.384 515.237 136.066 515.555 136.96C515.877 137.85 516.038 138.924 516.038 140.182C516.038 141.447 515.879 142.527 515.56 143.42C515.242 144.311 514.782 144.991 514.18 145.46C513.577 145.926 512.848 146.159 511.992 146.159ZM511.992 144.909C512.841 144.909 513.5 144.5 513.969 143.682C514.439 142.864 514.674 141.697 514.674 140.182C514.674 139.174 514.566 138.316 514.35 137.608C514.138 136.9 513.831 136.36 513.43 135.989C513.032 135.617 512.553 135.432 511.992 135.432C511.151 135.432 510.494 135.847 510.021 136.676C509.547 137.502 509.31 138.67 509.31 140.182C509.31 141.189 509.416 142.045 509.629 142.75C509.841 143.455 510.146 143.991 510.543 144.358C510.945 144.725 511.428 144.909 511.992 144.909ZM521.992 146.159C521.136 146.159 520.407 145.926 519.805 145.46C519.202 144.991 518.742 144.311 518.424 143.42C518.106 142.527 517.947 141.447 517.947 140.182C517.947 138.924 518.106 137.85 518.424 136.96C518.746 136.066 519.208 135.384 519.81 134.915C520.416 134.441 521.144 134.205 521.992 134.205C522.841 134.205 523.566 134.441 524.168 134.915C524.774 135.384 525.237 136.066 525.555 136.96C525.877 137.85 526.038 138.924 526.038 140.182C526.038 141.447 525.879 142.527 525.56 143.42C525.242 144.311 524.782 144.991 524.18 145.46C523.577 145.926 522.848 146.159 521.992 146.159ZM521.992 144.909C522.841 144.909 523.5 144.5 523.969 143.682C524.439 142.864 524.674 141.697 524.674 140.182C524.674 139.174 524.566 138.316 524.35 137.608C524.138 136.9 523.831 136.36 523.43 135.989C523.032 135.617 522.553 135.432 521.992 135.432C521.151 135.432 520.494 135.847 520.021 136.676C519.547 137.502 519.31 138.67 519.31 140.182C519.31 141.189 519.416 142.045 519.629 142.75C519.841 143.455 520.146 143.991 520.543 144.358C520.945 144.725 521.428 144.909 521.992 144.909Z" fill="white"/>
<path d="M486.258 178.159C485.402 178.159 484.673 177.926 484.07 177.46C483.468 176.991 483.008 176.311 482.69 175.42C482.371 174.527 482.212 173.447 482.212 172.182C482.212 170.924 482.371 169.85 482.69 168.96C483.012 168.066 483.474 167.384 484.076 166.915C484.682 166.441 485.409 166.205 486.258 166.205C487.106 166.205 487.832 166.441 488.434 166.915C489.04 167.384 489.502 168.066 489.82 168.96C490.142 169.85 490.303 170.924 490.303 172.182C490.303 173.447 490.144 174.527 489.826 175.42C489.508 176.311 489.048 176.991 488.445 177.46C487.843 177.926 487.114 178.159 486.258 178.159ZM486.258 176.909C487.106 176.909 487.765 176.5 488.235 175.682C488.705 174.864 488.94 173.697 488.94 172.182C488.94 171.174 488.832 170.316 488.616 169.608C488.404 168.9 488.097 168.36 487.695 167.989C487.298 167.617 486.818 167.432 486.258 167.432C485.417 167.432 484.76 167.847 484.286 168.676C483.813 169.502 483.576 170.67 483.576 172.182C483.576 173.189 483.682 174.045 483.894 174.75C484.106 175.455 484.411 175.991 484.809 176.358C485.21 176.725 485.693 176.909 486.258 176.909ZM496.258 178.159C495.402 178.159 494.673 177.926 494.07 177.46C493.468 176.991 493.008 176.311 492.69 175.42C492.371 174.527 492.212 173.447 492.212 172.182C492.212 170.924 492.371 169.85 492.69 168.96C493.012 168.066 493.474 167.384 494.076 166.915C494.682 166.441 495.409 166.205 496.258 166.205C497.106 166.205 497.832 166.441 498.434 166.915C499.04 167.384 499.502 168.066 499.82 168.96C500.142 169.85 500.303 170.924 500.303 172.182C500.303 173.447 500.144 174.527 499.826 175.42C499.508 176.311 499.048 176.991 498.445 177.46C497.843 177.926 497.114 178.159 496.258 178.159ZM496.258 176.909C497.106 176.909 497.765 176.5 498.235 175.682C498.705 174.864 498.94 173.697 498.94 172.182C498.94 171.174 498.832 170.316 498.616 169.608C498.404 168.9 498.097 168.36 497.695 167.989C497.298 167.617 496.818 167.432 496.258 167.432C495.417 167.432 494.76 167.847 494.286 168.676C493.813 169.502 493.576 170.67 493.576 172.182C493.576 173.189 493.682 174.045 493.894 174.75C494.106 175.455 494.411 175.991 494.809 176.358C495.21 176.725 495.693 176.909 496.258 176.909ZM506.167 166.205C506.644 166.208 507.121 166.299 507.599 166.477C508.076 166.655 508.512 166.951 508.906 167.364C509.299 167.773 509.616 168.331 509.854 169.04C510.093 169.748 510.212 170.636 510.212 171.705C510.212 172.739 510.114 173.657 509.917 174.46C509.724 175.259 509.443 175.934 509.076 176.483C508.712 177.032 508.269 177.449 507.746 177.733C507.228 178.017 506.64 178.159 505.985 178.159C505.334 178.159 504.752 178.03 504.241 177.773C503.733 177.511 503.317 177.15 502.991 176.688C502.669 176.222 502.462 175.682 502.371 175.068H503.758C503.883 175.602 504.131 176.044 504.502 176.392C504.877 176.737 505.371 176.909 505.985 176.909C506.883 176.909 507.591 176.517 508.11 175.733C508.633 174.949 508.894 173.841 508.894 172.409H508.803C508.591 172.727 508.339 173.002 508.048 173.233C507.756 173.464 507.432 173.642 507.076 173.767C506.72 173.892 506.341 173.955 505.94 173.955C505.273 173.955 504.661 173.79 504.104 173.46C503.551 173.127 503.108 172.67 502.775 172.091C502.445 171.508 502.281 170.841 502.281 170.091C502.281 169.379 502.44 168.727 502.758 168.136C503.08 167.542 503.531 167.068 504.11 166.716C504.693 166.364 505.379 166.193 506.167 166.205ZM506.167 167.455C505.69 167.455 505.26 167.574 504.877 167.812C504.498 168.047 504.197 168.366 503.974 168.767C503.754 169.165 503.644 169.606 503.644 170.091C503.644 170.576 503.75 171.017 503.962 171.415C504.178 171.809 504.472 172.123 504.843 172.358C505.218 172.589 505.644 172.705 506.121 172.705C506.481 172.705 506.817 172.634 507.127 172.494C507.438 172.35 507.709 172.155 507.94 171.909C508.174 171.659 508.358 171.377 508.491 171.062C508.623 170.744 508.69 170.413 508.69 170.068C508.69 169.614 508.58 169.187 508.36 168.79C508.144 168.392 507.845 168.07 507.462 167.824C507.084 167.578 506.652 167.455 506.167 167.455ZM516.083 178.159C515.416 178.159 514.816 178.027 514.282 177.761C513.748 177.496 513.32 177.133 512.998 176.67C512.676 176.208 512.5 175.682 512.469 175.091H513.833C513.886 175.617 514.125 176.053 514.549 176.398C514.977 176.739 515.488 176.909 516.083 176.909C516.56 176.909 516.985 176.797 517.356 176.574C517.731 176.35 518.024 176.044 518.237 175.653C518.452 175.259 518.56 174.814 518.56 174.318C518.56 173.811 518.449 173.358 518.225 172.96C518.005 172.559 517.702 172.242 517.316 172.011C516.93 171.78 516.488 171.663 515.992 171.659C515.636 171.655 515.271 171.71 514.896 171.824C514.521 171.934 514.212 172.076 513.969 172.25L512.651 172.091L513.356 166.364H519.401V167.614H514.538L514.129 171.045H514.197C514.435 170.856 514.735 170.699 515.094 170.574C515.454 170.449 515.829 170.386 516.219 170.386C516.932 170.386 517.566 170.557 518.123 170.898C518.683 171.235 519.123 171.697 519.441 172.284C519.763 172.871 519.924 173.542 519.924 174.295C519.924 175.038 519.757 175.701 519.424 176.284C519.094 176.864 518.64 177.322 518.06 177.659C517.481 177.992 516.822 178.159 516.083 178.159ZM525.977 178H522.386V166.364H526.136C527.264 166.364 528.23 166.597 529.033 167.062C529.836 167.525 530.452 168.189 530.88 169.057C531.308 169.92 531.522 170.955 531.522 172.159C531.522 173.371 531.306 174.415 530.874 175.29C530.442 176.161 529.814 176.831 528.988 177.301C528.162 177.767 527.158 178 525.977 178ZM523.795 176.75H525.886C526.848 176.75 527.645 176.564 528.278 176.193C528.91 175.822 529.382 175.294 529.692 174.608C530.003 173.922 530.158 173.106 530.158 172.159C530.158 171.22 530.005 170.411 529.698 169.733C529.391 169.051 528.933 168.528 528.323 168.165C527.713 167.797 526.954 167.614 526.045 167.614H523.795V176.75ZM533.408 175.614V174.455L538.522 166.364H539.363V168.159H538.795L534.931 174.273V174.364H541.817V175.614H533.408ZM538.886 178V175.261V174.722V166.364H540.227V178H538.886Z" fill="white"/>
<rect x="576" y="40" width="64" height="80" rx="20" fill="#0076AB"/>
<path d="M595.123 146L600.327 135.705V135.614H594.327V134.364H601.782V135.682L596.6 146H595.123ZM607.445 146.159C606.589 146.159 605.86 145.926 605.258 145.46C604.656 144.991 604.195 144.311 603.877 143.42C603.559 142.527 603.4 141.447 603.4 140.182C603.4 138.924 603.559 137.85 603.877 136.96C604.199 136.066 604.661 135.384 605.263 134.915C605.87 134.441 606.597 134.205 607.445 134.205C608.294 134.205 609.019 134.441 609.621 134.915C610.228 135.384 610.69 136.066 611.008 136.96C611.33 137.85 611.491 138.924 611.491 140.182C611.491 141.447 611.332 142.527 611.013 143.42C610.695 144.311 610.235 144.991 609.633 145.46C609.031 145.926 608.301 146.159 607.445 146.159ZM607.445 144.909C608.294 144.909 608.953 144.5 609.423 143.682C609.892 142.864 610.127 141.697 610.127 140.182C610.127 139.174 610.019 138.316 609.803 137.608C609.591 136.9 609.284 136.36 608.883 135.989C608.485 135.617 608.006 135.432 607.445 135.432C606.604 135.432 605.947 135.847 605.474 136.676C605 137.502 604.763 138.67 604.763 140.182C604.763 141.189 604.87 142.045 605.082 142.75C605.294 143.455 605.599 143.991 605.996 144.358C606.398 144.725 606.881 144.909 607.445 144.909ZM617.445 146.159C616.589 146.159 615.86 145.926 615.258 145.46C614.656 144.991 614.195 144.311 613.877 143.42C613.559 142.527 613.4 141.447 613.4 140.182C613.4 138.924 613.559 137.85 613.877 136.96C614.199 136.066 614.661 135.384 615.263 134.915C615.87 134.441 616.597 134.205 617.445 134.205C618.294 134.205 619.019 134.441 619.621 134.915C620.228 135.384 620.69 136.066 621.008 136.96C621.33 137.85 621.491 138.924 621.491 140.182C621.491 141.447 621.332 142.527 621.013 143.42C620.695 144.311 620.235 144.991 619.633 145.46C619.031 145.926 618.301 146.159 617.445 146.159ZM617.445 144.909C618.294 144.909 618.953 144.5 619.423 143.682C619.892 142.864 620.127 141.697 620.127 140.182C620.127 139.174 620.019 138.316 619.803 137.608C619.591 136.9 619.284 136.36 618.883 135.989C618.485 135.617 618.006 135.432 617.445 135.432C616.604 135.432 615.947 135.847 615.474 136.676C615 137.502 614.763 138.67 614.763 140.182C614.763 141.189 614.87 142.045 615.082 142.75C615.294 143.455 615.599 143.991 615.996 144.358C616.398 144.725 616.881 144.909 617.445 144.909Z" fill="white"/>
<path d="M583.109 178.159C582.253 178.159 581.524 177.926 580.922 177.46C580.32 176.991 579.859 176.311 579.541 175.42C579.223 174.527 579.064 173.447 579.064 172.182C579.064 170.924 579.223 169.85 579.541 168.96C579.863 168.066 580.325 167.384 580.928 166.915C581.534 166.441 582.261 166.205 583.109 166.205C583.958 166.205 584.683 166.441 585.286 166.915C585.892 167.384 586.354 168.066 586.672 168.96C586.994 169.85 587.155 170.924 587.155 172.182C587.155 173.447 586.996 174.527 586.678 175.42C586.359 176.311 585.899 176.991 585.297 177.46C584.695 177.926 583.965 178.159 583.109 178.159ZM583.109 176.909C583.958 176.909 584.617 176.5 585.087 175.682C585.556 174.864 585.791 173.697 585.791 172.182C585.791 171.174 585.683 170.316 585.467 169.608C585.255 168.9 584.948 168.36 584.547 167.989C584.149 167.617 583.67 167.432 583.109 167.432C582.268 167.432 581.611 167.847 581.138 168.676C580.664 169.502 580.428 170.67 580.428 172.182C580.428 173.189 580.534 174.045 580.746 174.75C580.958 175.455 581.263 175.991 581.661 176.358C582.062 176.725 582.545 176.909 583.109 176.909ZM593.109 178.159C592.253 178.159 591.524 177.926 590.922 177.46C590.32 176.991 589.859 176.311 589.541 175.42C589.223 174.527 589.064 173.447 589.064 172.182C589.064 170.924 589.223 169.85 589.541 168.96C589.863 168.066 590.325 167.384 590.928 166.915C591.534 166.441 592.261 166.205 593.109 166.205C593.958 166.205 594.683 166.441 595.286 166.915C595.892 167.384 596.354 168.066 596.672 168.96C596.994 169.85 597.155 170.924 597.155 172.182C597.155 173.447 596.996 174.527 596.678 175.42C596.359 176.311 595.899 176.991 595.297 177.46C594.695 177.926 593.965 178.159 593.109 178.159ZM593.109 176.909C593.958 176.909 594.617 176.5 595.087 175.682C595.556 174.864 595.791 173.697 595.791 172.182C595.791 171.174 595.683 170.316 595.467 169.608C595.255 168.9 594.948 168.36 594.547 167.989C594.149 167.617 593.67 167.432 593.109 167.432C592.268 167.432 591.611 167.847 591.138 168.676C590.664 169.502 590.428 170.67 590.428 172.182C590.428 173.189 590.534 174.045 590.746 174.75C590.958 175.455 591.263 175.991 591.661 176.358C592.062 176.725 592.545 176.909 593.109 176.909ZM599.365 178L604.57 167.705V167.614H598.57V166.364H606.024V167.682L600.842 178H599.365ZM611.756 178.159C611.278 178.152 610.801 178.061 610.324 177.886C609.847 177.712 609.411 177.419 609.017 177.006C608.623 176.589 608.307 176.027 608.068 175.318C607.83 174.606 607.71 173.712 607.71 172.636C607.71 171.606 607.807 170.693 608 169.898C608.193 169.098 608.473 168.426 608.841 167.881C609.208 167.331 609.652 166.915 610.17 166.631C610.693 166.347 611.282 166.205 611.938 166.205C612.589 166.205 613.169 166.335 613.676 166.597C614.188 166.854 614.604 167.214 614.926 167.676C615.248 168.138 615.456 168.67 615.551 169.273H614.165C614.036 168.75 613.786 168.316 613.415 167.972C613.044 167.627 612.551 167.455 611.938 167.455C611.036 167.455 610.326 167.847 609.807 168.631C609.292 169.415 609.032 170.515 609.028 171.932H609.119C609.331 171.61 609.583 171.335 609.875 171.108C610.17 170.877 610.496 170.699 610.852 170.574C611.208 170.449 611.585 170.386 611.983 170.386C612.65 170.386 613.259 170.553 613.812 170.886C614.366 171.216 614.809 171.672 615.142 172.256C615.475 172.835 615.642 173.5 615.642 174.25C615.642 174.97 615.481 175.629 615.159 176.227C614.837 176.822 614.384 177.295 613.801 177.648C613.222 177.996 612.54 178.167 611.756 178.159ZM611.756 176.909C612.233 176.909 612.661 176.79 613.04 176.551C613.422 176.312 613.723 175.992 613.943 175.591C614.167 175.189 614.278 174.742 614.278 174.25C614.278 173.769 614.17 173.331 613.955 172.938C613.742 172.54 613.449 172.223 613.074 171.989C612.703 171.754 612.278 171.636 611.801 171.636C611.441 171.636 611.106 171.708 610.795 171.852C610.485 171.992 610.212 172.186 609.977 172.432C609.746 172.678 609.564 172.96 609.432 173.278C609.299 173.593 609.233 173.924 609.233 174.273C609.233 174.735 609.341 175.167 609.557 175.568C609.777 175.97 610.076 176.294 610.455 176.54C610.837 176.786 611.271 176.909 611.756 176.909ZM618.558 178H617.081L621.354 166.364H622.808L627.081 178H625.604L622.126 168.205H622.036L618.558 178ZM619.104 173.455H625.058V174.705H619.104V173.455ZM628.893 178V166.364H632.962C633.772 166.364 634.441 166.504 634.967 166.784C635.494 167.061 635.886 167.434 636.143 167.903C636.401 168.369 636.53 168.886 636.53 169.455C636.53 169.955 636.441 170.367 636.263 170.693C636.089 171.019 635.857 171.277 635.57 171.466C635.286 171.655 634.977 171.795 634.643 171.886V172C635 172.023 635.357 172.148 635.717 172.375C636.077 172.602 636.378 172.928 636.621 173.352C636.863 173.777 636.984 174.295 636.984 174.909C636.984 175.492 636.852 176.017 636.587 176.483C636.321 176.949 635.903 177.318 635.331 177.591C634.759 177.864 634.015 178 633.098 178H628.893ZM630.303 176.75H633.098C634.018 176.75 634.672 176.572 635.058 176.216C635.448 175.856 635.643 175.42 635.643 174.909C635.643 174.515 635.543 174.152 635.342 173.818C635.142 173.481 634.856 173.212 634.484 173.011C634.113 172.807 633.674 172.705 633.166 172.705H630.303V176.75ZM630.303 171.477H632.916C633.34 171.477 633.723 171.394 634.064 171.227C634.409 171.061 634.681 170.826 634.882 170.523C635.087 170.22 635.189 169.864 635.189 169.455C635.189 168.943 635.011 168.509 634.655 168.153C634.299 167.794 633.734 167.614 632.962 167.614H630.303V171.477Z" fill="white"/>
<rect x="672" y="40" width="64" height="80" rx="20" fill="#00638D"/>
<path d="M694.002 146.159C693.222 146.159 692.532 146.021 691.934 145.744C691.339 145.464 690.875 145.08 690.542 144.591C690.209 144.098 690.044 143.538 690.048 142.909C690.044 142.417 690.14 141.962 690.337 141.545C690.534 141.125 690.803 140.775 691.144 140.494C691.489 140.21 691.873 140.03 692.298 139.955V139.886C691.741 139.742 691.298 139.43 690.968 138.949C690.638 138.464 690.476 137.913 690.479 137.295C690.476 136.705 690.625 136.176 690.928 135.71C691.231 135.244 691.648 134.877 692.178 134.608C692.712 134.339 693.32 134.205 694.002 134.205C694.676 134.205 695.279 134.339 695.809 134.608C696.339 134.877 696.756 135.244 697.059 135.71C697.366 136.176 697.521 136.705 697.525 137.295C697.521 137.913 697.353 138.464 697.019 138.949C696.69 139.43 696.252 139.742 695.707 139.886V139.955C696.127 140.03 696.506 140.21 696.843 140.494C697.18 140.775 697.449 141.125 697.65 141.545C697.851 141.962 697.953 142.417 697.957 142.909C697.953 143.538 697.782 144.098 697.445 144.591C697.112 145.08 696.648 145.464 696.053 145.744C695.462 146.021 694.779 146.159 694.002 146.159ZM694.002 144.909C694.529 144.909 694.983 144.824 695.366 144.653C695.748 144.483 696.044 144.242 696.252 143.932C696.46 143.621 696.567 143.258 696.57 142.841C696.567 142.402 696.453 142.013 696.229 141.676C696.006 141.339 695.701 141.074 695.315 140.881C694.932 140.687 694.495 140.591 694.002 140.591C693.506 140.591 693.063 140.687 692.673 140.881C692.286 141.074 691.981 141.339 691.758 141.676C691.538 142.013 691.43 142.402 691.434 142.841C691.43 143.258 691.531 143.621 691.735 143.932C691.943 144.242 692.241 144.483 692.627 144.653C693.013 144.824 693.472 144.909 694.002 144.909ZM694.002 139.386C694.419 139.386 694.788 139.303 695.11 139.136C695.436 138.97 695.692 138.737 695.877 138.438C696.063 138.138 696.157 137.788 696.161 137.386C696.157 136.992 696.065 136.65 695.883 136.358C695.701 136.062 695.449 135.835 695.127 135.676C694.805 135.513 694.43 135.432 694.002 135.432C693.567 135.432 693.186 135.513 692.86 135.676C692.534 135.835 692.282 136.062 692.104 136.358C691.926 136.65 691.839 136.992 691.843 137.386C691.839 137.788 691.928 138.138 692.11 138.438C692.296 138.737 692.551 138.97 692.877 139.136C693.203 139.303 693.578 139.386 694.002 139.386ZM703.93 146.159C703.074 146.159 702.344 145.926 701.742 145.46C701.14 144.991 700.68 144.311 700.362 143.42C700.043 142.527 699.884 141.447 699.884 140.182C699.884 138.924 700.043 137.85 700.362 136.96C700.683 136.066 701.146 135.384 701.748 134.915C702.354 134.441 703.081 134.205 703.93 134.205C704.778 134.205 705.504 134.441 706.106 134.915C706.712 135.384 707.174 136.066 707.492 136.96C707.814 137.85 707.975 138.924 707.975 140.182C707.975 141.447 707.816 142.527 707.498 143.42C707.18 144.311 706.719 144.991 706.117 145.46C705.515 145.926 704.786 146.159 703.93 146.159ZM703.93 144.909C704.778 144.909 705.437 144.5 705.907 143.682C706.377 142.864 706.612 141.697 706.612 140.182C706.612 139.174 706.504 138.316 706.288 137.608C706.076 136.9 705.769 136.36 705.367 135.989C704.969 135.617 704.49 135.432 703.93 135.432C703.089 135.432 702.432 135.847 701.958 136.676C701.485 137.502 701.248 138.67 701.248 140.182C701.248 141.189 701.354 142.045 701.566 142.75C701.778 143.455 702.083 143.991 702.481 144.358C702.882 144.725 703.365 144.909 703.93 144.909ZM713.93 146.159C713.074 146.159 712.344 145.926 711.742 145.46C711.14 144.991 710.68 144.311 710.362 143.42C710.043 142.527 709.884 141.447 709.884 140.182C709.884 138.924 710.043 137.85 710.362 136.96C710.683 136.066 711.146 135.384 711.748 134.915C712.354 134.441 713.081 134.205 713.93 134.205C714.778 134.205 715.504 134.441 716.106 134.915C716.712 135.384 717.174 136.066 717.492 136.96C717.814 137.85 717.975 138.924 717.975 140.182C717.975 141.447 717.816 142.527 717.498 143.42C717.18 144.311 716.719 144.991 716.117 145.46C715.515 145.926 714.786 146.159 713.93 146.159ZM713.93 144.909C714.778 144.909 715.437 144.5 715.907 143.682C716.377 142.864 716.612 141.697 716.612 140.182C716.612 139.174 716.504 138.316 716.288 137.608C716.076 136.9 715.769 136.36 715.367 135.989C714.969 135.617 714.49 135.432 713.93 135.432C713.089 135.432 712.432 135.847 711.958 136.676C711.485 137.502 711.248 138.67 711.248 140.182C711.248 141.189 711.354 142.045 711.566 142.75C711.778 143.455 712.083 143.991 712.481 144.358C712.882 144.725 713.365 144.909 713.93 144.909Z" fill="white"/>
<path d="M678.234 178.159C677.378 178.159 676.649 177.926 676.047 177.46C675.445 176.991 674.984 176.311 674.666 175.42C674.348 174.527 674.189 173.447 674.189 172.182C674.189 170.924 674.348 169.85 674.666 168.96C674.988 168.066 675.45 167.384 676.053 166.915C676.659 166.441 677.386 166.205 678.234 166.205C679.083 166.205 679.808 166.441 680.411 166.915C681.017 167.384 681.479 168.066 681.797 168.96C682.119 169.85 682.28 170.924 682.28 172.182C682.28 173.447 682.121 174.527 681.803 175.42C681.484 176.311 681.024 176.991 680.422 177.46C679.82 177.926 679.09 178.159 678.234 178.159ZM678.234 176.909C679.083 176.909 679.742 176.5 680.212 175.682C680.681 174.864 680.916 173.697 680.916 172.182C680.916 171.174 680.808 170.316 680.592 169.608C680.38 168.9 680.073 168.36 679.672 167.989C679.274 167.617 678.795 167.432 678.234 167.432C677.393 167.432 676.736 167.847 676.263 168.676C675.789 169.502 675.553 170.67 675.553 172.182C675.553 173.189 675.659 174.045 675.871 174.75C676.083 175.455 676.388 175.991 676.786 176.358C677.187 176.725 677.67 176.909 678.234 176.909ZM688.234 178.159C687.378 178.159 686.649 177.926 686.047 177.46C685.445 176.991 684.984 176.311 684.666 175.42C684.348 174.527 684.189 173.447 684.189 172.182C684.189 170.924 684.348 169.85 684.666 168.96C684.988 168.066 685.45 167.384 686.053 166.915C686.659 166.441 687.386 166.205 688.234 166.205C689.083 166.205 689.808 166.441 690.411 166.915C691.017 167.384 691.479 168.066 691.797 168.96C692.119 169.85 692.28 170.924 692.28 172.182C692.28 173.447 692.121 174.527 691.803 175.42C691.484 176.311 691.024 176.991 690.422 177.46C689.82 177.926 689.09 178.159 688.234 178.159ZM688.234 176.909C689.083 176.909 689.742 176.5 690.212 175.682C690.681 174.864 690.916 173.697 690.916 172.182C690.916 171.174 690.808 170.316 690.592 169.608C690.38 168.9 690.073 168.36 689.672 167.989C689.274 167.617 688.795 167.432 688.234 167.432C687.393 167.432 686.736 167.847 686.263 168.676C685.789 169.502 685.553 170.67 685.553 172.182C685.553 173.189 685.659 174.045 685.871 174.75C686.083 175.455 686.388 175.991 686.786 176.358C687.187 176.725 687.67 176.909 688.234 176.909ZM698.303 178.159C697.825 178.152 697.348 178.061 696.871 177.886C696.393 177.712 695.958 177.419 695.564 177.006C695.17 176.589 694.854 176.027 694.615 175.318C694.376 174.606 694.257 173.712 694.257 172.636C694.257 171.606 694.354 170.693 694.547 169.898C694.74 169.098 695.02 168.426 695.388 167.881C695.755 167.331 696.198 166.915 696.717 166.631C697.24 166.347 697.829 166.205 698.484 166.205C699.136 166.205 699.715 166.335 700.223 166.597C700.734 166.854 701.151 167.214 701.473 167.676C701.795 168.138 702.003 168.67 702.098 169.273H700.712C700.583 168.75 700.333 168.316 699.962 167.972C699.59 167.627 699.098 167.455 698.484 167.455C697.583 167.455 696.873 167.847 696.354 168.631C695.839 169.415 695.579 170.515 695.575 171.932H695.666C695.878 171.61 696.13 171.335 696.422 171.108C696.717 170.877 697.043 170.699 697.399 170.574C697.755 170.449 698.132 170.386 698.53 170.386C699.196 170.386 699.806 170.553 700.359 170.886C700.912 171.216 701.356 171.672 701.689 172.256C702.022 172.835 702.189 173.5 702.189 174.25C702.189 174.97 702.028 175.629 701.706 176.227C701.384 176.822 700.931 177.295 700.348 177.648C699.768 177.996 699.087 178.167 698.303 178.159ZM698.303 176.909C698.78 176.909 699.208 176.79 699.587 176.551C699.969 176.312 700.27 175.992 700.49 175.591C700.714 175.189 700.825 174.742 700.825 174.25C700.825 173.769 700.717 173.331 700.501 172.938C700.289 172.54 699.996 172.223 699.621 171.989C699.25 171.754 698.825 171.636 698.348 171.636C697.988 171.636 697.653 171.708 697.342 171.852C697.032 171.992 696.759 172.186 696.524 172.432C696.293 172.678 696.111 172.96 695.979 173.278C695.846 173.593 695.78 173.924 695.78 174.273C695.78 174.735 695.888 175.167 696.104 175.568C696.323 175.97 696.623 176.294 697.001 176.54C697.384 176.786 697.818 176.909 698.303 176.909ZM708.355 178.159C707.605 178.159 706.937 178.03 706.349 177.773C705.766 177.515 705.302 177.157 704.957 176.699C704.616 176.237 704.431 175.701 704.401 175.091H705.832C705.863 175.466 705.991 175.79 706.219 176.062C706.446 176.331 706.743 176.54 707.111 176.688C707.478 176.835 707.885 176.909 708.332 176.909C708.832 176.909 709.276 176.822 709.662 176.648C710.048 176.473 710.351 176.231 710.571 175.92C710.791 175.61 710.901 175.25 710.901 174.841C710.901 174.413 710.795 174.036 710.582 173.71C710.37 173.381 710.06 173.123 709.651 172.938C709.241 172.752 708.741 172.659 708.151 172.659H707.219V171.409H708.151C708.613 171.409 709.018 171.326 709.366 171.159C709.719 170.992 709.993 170.758 710.19 170.455C710.391 170.152 710.491 169.795 710.491 169.386C710.491 168.992 710.404 168.65 710.23 168.358C710.056 168.066 709.81 167.839 709.491 167.676C709.177 167.513 708.806 167.432 708.378 167.432C707.976 167.432 707.598 167.506 707.241 167.653C706.889 167.797 706.601 168.008 706.378 168.284C706.154 168.557 706.033 168.886 706.014 169.273H704.651C704.673 168.663 704.857 168.129 705.202 167.67C705.546 167.208 705.997 166.848 706.554 166.591C707.115 166.333 707.73 166.205 708.401 166.205C709.12 166.205 709.738 166.35 710.253 166.642C710.768 166.93 711.164 167.311 711.44 167.784C711.717 168.258 711.855 168.769 711.855 169.318C711.855 169.973 711.683 170.532 711.338 170.994C710.997 171.456 710.533 171.777 709.946 171.955V172.045C710.681 172.167 711.255 172.479 711.668 172.983C712.08 173.483 712.287 174.102 712.287 174.841C712.287 175.473 712.115 176.042 711.77 176.545C711.429 177.045 710.963 177.439 710.372 177.727C709.781 178.015 709.109 178.159 708.355 178.159ZM718.338 178.159C717.558 178.159 716.868 178.021 716.27 177.744C715.675 177.464 715.211 177.08 714.878 176.591C714.545 176.098 714.38 175.538 714.384 174.909C714.38 174.417 714.476 173.962 714.673 173.545C714.87 173.125 715.139 172.775 715.48 172.494C715.825 172.21 716.209 172.03 716.634 171.955V171.886C716.077 171.742 715.634 171.43 715.304 170.949C714.974 170.464 714.812 169.913 714.815 169.295C714.812 168.705 714.961 168.176 715.264 167.71C715.567 167.244 715.984 166.877 716.514 166.608C717.048 166.339 717.656 166.205 718.338 166.205C719.012 166.205 719.615 166.339 720.145 166.608C720.675 166.877 721.092 167.244 721.395 167.71C721.702 168.176 721.857 168.705 721.861 169.295C721.857 169.913 721.688 170.464 721.355 170.949C721.026 171.43 720.588 171.742 720.043 171.886V171.955C720.463 172.03 720.842 172.21 721.179 172.494C721.516 172.775 721.785 173.125 721.986 173.545C722.187 173.962 722.289 174.417 722.293 174.909C722.289 175.538 722.118 176.098 721.781 176.591C721.448 177.08 720.984 177.464 720.389 177.744C719.798 178.021 719.115 178.159 718.338 178.159ZM718.338 176.909C718.865 176.909 719.319 176.824 719.702 176.653C720.084 176.483 720.38 176.242 720.588 175.932C720.796 175.621 720.902 175.258 720.906 174.841C720.902 174.402 720.789 174.013 720.565 173.676C720.342 173.339 720.037 173.074 719.651 172.881C719.268 172.687 718.83 172.591 718.338 172.591C717.842 172.591 717.399 172.687 717.009 172.881C716.622 173.074 716.317 173.339 716.094 173.676C715.874 174.013 715.766 174.402 715.77 174.841C715.766 175.258 715.866 175.621 716.071 175.932C716.279 176.242 716.577 176.483 716.963 176.653C717.349 176.824 717.808 176.909 718.338 176.909ZM718.338 171.386C718.755 171.386 719.124 171.303 719.446 171.136C719.772 170.97 720.027 170.737 720.213 170.438C720.399 170.138 720.493 169.788 720.497 169.386C720.493 168.992 720.401 168.65 720.219 168.358C720.037 168.062 719.785 167.835 719.463 167.676C719.141 167.513 718.766 167.432 718.338 167.432C717.902 167.432 717.522 167.513 717.196 167.676C716.87 167.835 716.618 168.062 716.44 168.358C716.262 168.65 716.175 168.992 716.179 169.386C716.175 169.788 716.264 170.138 716.446 170.438C716.632 170.737 716.887 170.97 717.213 171.136C717.539 171.303 717.914 171.386 718.338 171.386ZM728.266 178H724.675V166.364H728.425C729.554 166.364 730.519 166.597 731.322 167.062C732.125 167.525 732.741 168.189 733.169 169.057C733.597 169.92 733.811 170.955 733.811 172.159C733.811 173.371 733.595 174.415 733.163 175.29C732.732 176.161 732.103 176.831 731.277 177.301C730.451 177.767 729.447 178 728.266 178ZM726.084 176.75H728.175C729.137 176.75 729.934 176.564 730.567 176.193C731.199 175.822 731.671 175.294 731.982 174.608C732.292 173.922 732.447 173.106 732.447 172.159C732.447 171.22 732.294 170.411 731.987 169.733C731.68 169.051 731.222 168.528 730.612 168.165C730.002 167.797 729.243 167.614 728.334 167.614H726.084V176.75Z" fill="white"/>
<rect x="768" y="40" width="64" height="80" rx="20" fill="#065374"/>
<path d="M789.917 134.205C790.394 134.208 790.871 134.299 791.349 134.477C791.826 134.655 792.262 134.951 792.656 135.364C793.049 135.773 793.366 136.331 793.604 137.04C793.843 137.748 793.962 138.636 793.962 139.705C793.962 140.739 793.864 141.657 793.667 142.46C793.474 143.259 793.193 143.934 792.826 144.483C792.462 145.032 792.019 145.449 791.496 145.733C790.978 146.017 790.39 146.159 789.735 146.159C789.084 146.159 788.502 146.03 787.991 145.773C787.483 145.511 787.067 145.15 786.741 144.688C786.419 144.222 786.212 143.682 786.121 143.068H787.508C787.633 143.602 787.881 144.044 788.252 144.392C788.627 144.737 789.121 144.909 789.735 144.909C790.633 144.909 791.341 144.517 791.86 143.733C792.383 142.949 792.644 141.841 792.644 140.409H792.553C792.341 140.727 792.089 141.002 791.798 141.233C791.506 141.464 791.182 141.642 790.826 141.767C790.47 141.892 790.091 141.955 789.69 141.955C789.023 141.955 788.411 141.79 787.854 141.46C787.301 141.127 786.858 140.67 786.525 140.091C786.195 139.508 786.031 138.841 786.031 138.091C786.031 137.379 786.19 136.727 786.508 136.136C786.83 135.542 787.281 135.068 787.86 134.716C788.443 134.364 789.129 134.193 789.917 134.205ZM789.917 135.455C789.44 135.455 789.01 135.574 788.627 135.812C788.248 136.047 787.947 136.366 787.724 136.767C787.504 137.165 787.394 137.606 787.394 138.091C787.394 138.576 787.5 139.017 787.712 139.415C787.928 139.809 788.222 140.123 788.593 140.358C788.968 140.589 789.394 140.705 789.871 140.705C790.231 140.705 790.567 140.634 790.877 140.494C791.188 140.35 791.459 140.155 791.69 139.909C791.924 139.659 792.108 139.377 792.241 139.062C792.373 138.744 792.44 138.413 792.44 138.068C792.44 137.614 792.33 137.187 792.11 136.79C791.894 136.392 791.595 136.07 791.212 135.824C790.834 135.578 790.402 135.455 789.917 135.455ZM799.992 146.159C799.136 146.159 798.407 145.926 797.805 145.46C797.202 144.991 796.742 144.311 796.424 143.42C796.106 142.527 795.947 141.447 795.947 140.182C795.947 138.924 796.106 137.85 796.424 136.96C796.746 136.066 797.208 135.384 797.81 134.915C798.416 134.441 799.144 134.205 799.992 134.205C800.841 134.205 801.566 134.441 802.168 134.915C802.774 135.384 803.237 136.066 803.555 136.96C803.877 137.85 804.038 138.924 804.038 140.182C804.038 141.447 803.879 142.527 803.56 143.42C803.242 144.311 802.782 144.991 802.18 145.46C801.577 145.926 800.848 146.159 799.992 146.159ZM799.992 144.909C800.841 144.909 801.5 144.5 801.969 143.682C802.439 142.864 802.674 141.697 802.674 140.182C802.674 139.174 802.566 138.316 802.35 137.608C802.138 136.9 801.831 136.36 801.43 135.989C801.032 135.617 800.553 135.432 799.992 135.432C799.151 135.432 798.494 135.847 798.021 136.676C797.547 137.502 797.31 138.67 797.31 140.182C797.31 141.189 797.416 142.045 797.629 142.75C797.841 143.455 798.146 143.991 798.543 144.358C798.945 144.725 799.428 144.909 799.992 144.909ZM809.992 146.159C809.136 146.159 808.407 145.926 807.805 145.46C807.202 144.991 806.742 144.311 806.424 143.42C806.106 142.527 805.947 141.447 805.947 140.182C805.947 138.924 806.106 137.85 806.424 136.96C806.746 136.066 807.208 135.384 807.81 134.915C808.416 134.441 809.144 134.205 809.992 134.205C810.841 134.205 811.566 134.441 812.168 134.915C812.774 135.384 813.237 136.066 813.555 136.96C813.877 137.85 814.038 138.924 814.038 140.182C814.038 141.447 813.879 142.527 813.56 143.42C813.242 144.311 812.782 144.991 812.18 145.46C811.577 145.926 810.848 146.159 809.992 146.159ZM809.992 144.909C810.841 144.909 811.5 144.5 811.969 143.682C812.439 142.864 812.674 141.697 812.674 140.182C812.674 139.174 812.566 138.316 812.35 137.608C812.138 136.9 811.831 136.36 811.43 135.989C811.032 135.617 810.553 135.432 809.992 135.432C809.151 135.432 808.494 135.847 808.021 136.676C807.547 137.502 807.31 138.67 807.31 140.182C807.31 141.189 807.416 142.045 807.629 142.75C807.841 143.455 808.146 143.991 808.543 144.358C808.945 144.725 809.428 144.909 809.992 144.909Z" fill="white"/>
<path d="M775.812 178.159C774.956 178.159 774.227 177.926 773.625 177.46C773.023 176.991 772.563 176.311 772.244 175.42C771.926 174.527 771.767 173.447 771.767 172.182C771.767 170.924 771.926 169.85 772.244 168.96C772.566 168.066 773.028 167.384 773.631 166.915C774.237 166.441 774.964 166.205 775.812 166.205C776.661 166.205 777.386 166.441 777.989 166.915C778.595 167.384 779.057 168.066 779.375 168.96C779.697 169.85 779.858 170.924 779.858 172.182C779.858 173.447 779.699 174.527 779.381 175.42C779.062 176.311 778.602 176.991 778 177.46C777.398 177.926 776.669 178.159 775.812 178.159ZM775.812 176.909C776.661 176.909 777.32 176.5 777.79 175.682C778.259 174.864 778.494 173.697 778.494 172.182C778.494 171.174 778.386 170.316 778.17 169.608C777.958 168.9 777.652 168.36 777.25 167.989C776.852 167.617 776.373 167.432 775.812 167.432C774.972 167.432 774.314 167.847 773.841 168.676C773.367 169.502 773.131 170.67 773.131 172.182C773.131 173.189 773.237 174.045 773.449 174.75C773.661 175.455 773.966 175.991 774.364 176.358C774.765 176.725 775.248 176.909 775.812 176.909ZM785.881 178.159C785.403 178.152 784.926 178.061 784.449 177.886C783.972 177.712 783.536 177.419 783.142 177.006C782.748 176.589 782.432 176.027 782.193 175.318C781.955 174.606 781.835 173.712 781.835 172.636C781.835 171.606 781.932 170.693 782.125 169.898C782.318 169.098 782.598 168.426 782.966 167.881C783.333 167.331 783.777 166.915 784.295 166.631C784.818 166.347 785.407 166.205 786.062 166.205C786.714 166.205 787.294 166.335 787.801 166.597C788.313 166.854 788.729 167.214 789.051 167.676C789.373 168.138 789.581 168.67 789.676 169.273H788.29C788.161 168.75 787.911 168.316 787.54 167.972C787.169 167.627 786.676 167.455 786.062 167.455C785.161 167.455 784.451 167.847 783.932 168.631C783.417 169.415 783.157 170.515 783.153 171.932H783.244C783.456 171.61 783.708 171.335 784 171.108C784.295 170.877 784.621 170.699 784.977 170.574C785.333 170.449 785.71 170.386 786.108 170.386C786.775 170.386 787.384 170.553 787.938 170.886C788.491 171.216 788.934 171.672 789.267 172.256C789.6 172.835 789.767 173.5 789.767 174.25C789.767 174.97 789.606 175.629 789.284 176.227C788.962 176.822 788.509 177.295 787.926 177.648C787.347 177.996 786.665 178.167 785.881 178.159ZM785.881 176.909C786.358 176.909 786.786 176.79 787.165 176.551C787.547 176.312 787.848 175.992 788.068 175.591C788.292 175.189 788.403 174.742 788.403 174.25C788.403 173.769 788.295 173.331 788.08 172.938C787.867 172.54 787.574 172.223 787.199 171.989C786.828 171.754 786.403 171.636 785.926 171.636C785.566 171.636 785.231 171.708 784.92 171.852C784.61 171.992 784.337 172.186 784.102 172.432C783.871 172.678 783.689 172.96 783.557 173.278C783.424 173.593 783.358 173.924 783.358 174.273C783.358 174.735 783.466 175.167 783.682 175.568C783.902 175.97 784.201 176.294 784.58 176.54C784.962 176.786 785.396 176.909 785.881 176.909ZM795.638 178.159C794.971 178.159 794.371 178.027 793.837 177.761C793.303 177.496 792.875 177.133 792.553 176.67C792.231 176.208 792.054 175.682 792.024 175.091H793.388C793.441 175.617 793.679 176.053 794.104 176.398C794.532 176.739 795.043 176.909 795.638 176.909C796.115 176.909 796.539 176.797 796.911 176.574C797.286 176.35 797.579 176.044 797.791 175.653C798.007 175.259 798.115 174.814 798.115 174.318C798.115 173.811 798.003 173.358 797.78 172.96C797.56 172.559 797.257 172.242 796.871 172.011C796.484 171.78 796.043 171.663 795.547 171.659C795.191 171.655 794.825 171.71 794.45 171.824C794.075 171.934 793.767 172.076 793.524 172.25L792.206 172.091L792.911 166.364H798.956V167.614H794.092L793.683 171.045H793.751C793.99 170.856 794.289 170.699 794.649 170.574C795.009 170.449 795.384 170.386 795.774 170.386C796.486 170.386 797.121 170.557 797.678 170.898C798.238 171.235 798.678 171.697 798.996 172.284C799.318 172.871 799.479 173.542 799.479 174.295C799.479 175.038 799.312 175.701 798.979 176.284C798.649 176.864 798.195 177.322 797.615 177.659C797.036 177.992 796.376 178.159 795.638 178.159ZM805.668 178.159C804.918 178.159 804.249 178.03 803.662 177.773C803.079 177.515 802.615 177.157 802.27 176.699C801.929 176.237 801.743 175.701 801.713 175.091H803.145C803.175 175.466 803.304 175.79 803.531 176.062C803.759 176.331 804.056 176.54 804.423 176.688C804.791 176.835 805.198 176.909 805.645 176.909C806.145 176.909 806.588 176.822 806.974 176.648C807.361 176.473 807.664 176.231 807.884 175.92C808.103 175.61 808.213 175.25 808.213 174.841C808.213 174.413 808.107 174.036 807.895 173.71C807.683 173.381 807.372 173.123 806.963 172.938C806.554 172.752 806.054 172.659 805.463 172.659H804.531V171.409H805.463C805.925 171.409 806.33 171.326 806.679 171.159C807.031 170.992 807.306 170.758 807.503 170.455C807.704 170.152 807.804 169.795 807.804 169.386C807.804 168.992 807.717 168.65 807.543 168.358C807.368 168.066 807.122 167.839 806.804 167.676C806.49 167.513 806.118 167.432 805.69 167.432C805.289 167.432 804.91 167.506 804.554 167.653C804.202 167.797 803.914 168.008 803.69 168.284C803.467 168.557 803.346 168.886 803.327 169.273H801.963C801.986 168.663 802.17 168.129 802.514 167.67C802.859 167.208 803.31 166.848 803.866 166.591C804.427 166.333 805.043 166.205 805.713 166.205C806.433 166.205 807.05 166.35 807.565 166.642C808.08 166.93 808.476 167.311 808.753 167.784C809.029 168.258 809.168 168.769 809.168 169.318C809.168 169.973 808.995 170.532 808.651 170.994C808.31 171.456 807.846 171.777 807.259 171.955V172.045C807.993 172.167 808.567 172.479 808.98 172.983C809.393 173.483 809.599 174.102 809.599 174.841C809.599 175.473 809.427 176.042 809.082 176.545C808.741 177.045 808.276 177.439 807.685 177.727C807.094 178.015 806.421 178.159 805.668 178.159ZM812.287 178L817.491 167.705V167.614H811.491V166.364H818.946V167.682L813.764 178H812.287ZM819.854 175.614V174.455L824.967 166.364H825.808V168.159H825.24L821.376 174.273V174.364H828.263V175.614H819.854ZM825.331 178V175.261V174.722V166.364H826.672V178H825.331Z" fill="white"/>
<rect x="864" y="40" width="64" height="80" rx="20" fill="#04344D"/>
<path d="M886.05 134.205C886.527 134.208 887.004 134.299 887.482 134.477C887.959 134.655 888.394 134.951 888.788 135.364C889.182 135.773 889.499 136.331 889.737 137.04C889.976 137.748 890.095 138.636 890.095 139.705C890.095 140.739 889.997 141.657 889.8 142.46C889.607 143.259 889.326 143.934 888.959 144.483C888.595 145.032 888.152 145.449 887.629 145.733C887.11 146.017 886.523 146.159 885.868 146.159C885.216 146.159 884.635 146.03 884.124 145.773C883.616 145.511 883.199 145.15 882.874 144.688C882.552 144.222 882.345 143.682 882.254 143.068H883.641C883.766 143.602 884.014 144.044 884.385 144.392C884.76 144.737 885.254 144.909 885.868 144.909C886.766 144.909 887.474 144.517 887.993 143.733C888.516 142.949 888.777 141.841 888.777 140.409H888.686C888.474 140.727 888.222 141.002 887.93 141.233C887.639 141.464 887.315 141.642 886.959 141.767C886.603 141.892 886.224 141.955 885.822 141.955C885.156 141.955 884.544 141.79 883.987 141.46C883.434 141.127 882.991 140.67 882.658 140.091C882.328 139.508 882.163 138.841 882.163 138.091C882.163 137.379 882.322 136.727 882.641 136.136C882.963 135.542 883.413 135.068 883.993 134.716C884.576 134.364 885.262 134.193 886.05 134.205ZM886.05 135.455C885.572 135.455 885.143 135.574 884.76 135.812C884.381 136.047 884.08 136.366 883.857 136.767C883.637 137.165 883.527 137.606 883.527 138.091C883.527 138.576 883.633 139.017 883.845 139.415C884.061 139.809 884.355 140.123 884.726 140.358C885.101 140.589 885.527 140.705 886.004 140.705C886.364 140.705 886.699 140.634 887.01 140.494C887.321 140.35 887.591 140.155 887.822 139.909C888.057 139.659 888.241 139.377 888.374 139.062C888.506 138.744 888.572 138.413 888.572 138.068C888.572 137.614 888.463 137.187 888.243 136.79C888.027 136.392 887.728 136.07 887.345 135.824C886.966 135.578 886.535 135.455 886.05 135.455ZM895.966 146.159C895.299 146.159 894.699 146.027 894.165 145.761C893.631 145.496 893.203 145.133 892.881 144.67C892.559 144.208 892.383 143.682 892.352 143.091H893.716C893.769 143.617 894.008 144.053 894.432 144.398C894.86 144.739 895.371 144.909 895.966 144.909C896.443 144.909 896.867 144.797 897.239 144.574C897.614 144.35 897.907 144.044 898.119 143.653C898.335 143.259 898.443 142.814 898.443 142.318C898.443 141.811 898.331 141.358 898.108 140.96C897.888 140.559 897.585 140.242 897.199 140.011C896.813 139.78 896.371 139.663 895.875 139.659C895.519 139.655 895.153 139.71 894.778 139.824C894.403 139.934 894.095 140.076 893.852 140.25L892.534 140.091L893.239 134.364H899.284V135.614H894.42L894.011 139.045H894.08C894.318 138.856 894.617 138.699 894.977 138.574C895.337 138.449 895.712 138.386 896.102 138.386C896.814 138.386 897.449 138.557 898.006 138.898C898.566 139.235 899.006 139.697 899.324 140.284C899.646 140.871 899.807 141.542 899.807 142.295C899.807 143.038 899.64 143.701 899.307 144.284C898.977 144.864 898.523 145.322 897.943 145.659C897.364 145.992 896.705 146.159 895.966 146.159ZM905.859 146.159C905.003 146.159 904.274 145.926 903.672 145.46C903.07 144.991 902.609 144.311 902.291 143.42C901.973 142.527 901.814 141.447 901.814 140.182C901.814 138.924 901.973 137.85 902.291 136.96C902.613 136.066 903.075 135.384 903.678 134.915C904.284 134.441 905.011 134.205 905.859 134.205C906.708 134.205 907.433 134.441 908.036 134.915C908.642 135.384 909.104 136.066 909.422 136.96C909.744 137.85 909.905 138.924 909.905 140.182C909.905 141.447 909.746 142.527 909.428 143.42C909.109 144.311 908.649 144.991 908.047 145.46C907.445 145.926 906.715 146.159 905.859 146.159ZM905.859 144.909C906.708 144.909 907.367 144.5 907.837 143.682C908.306 142.864 908.541 141.697 908.541 140.182C908.541 139.174 908.433 138.316 908.217 137.608C908.005 136.9 907.698 136.36 907.297 135.989C906.899 135.617 906.42 135.432 905.859 135.432C905.018 135.432 904.361 135.847 903.888 136.676C903.414 137.502 903.178 138.67 903.178 140.182C903.178 141.189 903.284 142.045 903.496 142.75C903.708 143.455 904.013 143.991 904.411 144.358C904.812 144.725 905.295 144.909 905.859 144.909Z" fill="white"/>
<path d="M869.758 178.159C868.902 178.159 868.173 177.926 867.57 177.46C866.968 176.991 866.508 176.311 866.19 175.42C865.871 174.527 865.712 173.447 865.712 172.182C865.712 170.924 865.871 169.85 866.19 168.96C866.512 168.066 866.974 167.384 867.576 166.915C868.182 166.441 868.909 166.205 869.758 166.205C870.606 166.205 871.332 166.441 871.934 166.915C872.54 167.384 873.002 168.066 873.32 168.96C873.642 169.85 873.803 170.924 873.803 172.182C873.803 173.447 873.644 174.527 873.326 175.42C873.008 176.311 872.548 176.991 871.945 177.46C871.343 177.926 870.614 178.159 869.758 178.159ZM869.758 176.909C870.606 176.909 871.265 176.5 871.735 175.682C872.205 174.864 872.44 173.697 872.44 172.182C872.44 171.174 872.332 170.316 872.116 169.608C871.904 168.9 871.597 168.36 871.195 167.989C870.798 167.617 870.318 167.432 869.758 167.432C868.917 167.432 868.26 167.847 867.786 168.676C867.313 169.502 867.076 170.67 867.076 172.182C867.076 173.189 867.182 174.045 867.394 174.75C867.606 175.455 867.911 175.991 868.309 176.358C868.71 176.725 869.193 176.909 869.758 176.909ZM875.69 175.614V174.455L880.803 166.364H881.644V168.159H881.076L877.212 174.273V174.364H884.099V175.614H875.69ZM881.167 178V175.261V174.722V166.364H882.508V178H881.167ZM890.16 178.159C889.41 178.159 888.741 178.03 888.154 177.773C887.571 177.515 887.107 177.157 886.762 176.699C886.421 176.237 886.236 175.701 886.205 175.091H887.637C887.667 175.466 887.796 175.79 888.023 176.062C888.251 176.331 888.548 176.54 888.915 176.688C889.283 176.835 889.69 176.909 890.137 176.909C890.637 176.909 891.08 176.822 891.467 176.648C891.853 176.473 892.156 176.231 892.376 175.92C892.595 175.61 892.705 175.25 892.705 174.841C892.705 174.413 892.599 174.036 892.387 173.71C892.175 173.381 891.864 173.123 891.455 172.938C891.046 172.752 890.546 172.659 889.955 172.659H889.023V171.409H889.955C890.417 171.409 890.823 171.326 891.171 171.159C891.523 170.992 891.798 170.758 891.995 170.455C892.196 170.152 892.296 169.795 892.296 169.386C892.296 168.992 892.209 168.65 892.035 168.358C891.861 168.066 891.614 167.839 891.296 167.676C890.982 167.513 890.611 167.432 890.183 167.432C889.781 167.432 889.402 167.506 889.046 167.653C888.694 167.797 888.406 168.008 888.183 168.284C887.959 168.557 887.838 168.886 887.819 169.273H886.455C886.478 168.663 886.662 168.129 887.006 167.67C887.351 167.208 887.802 166.848 888.359 166.591C888.919 166.333 889.535 166.205 890.205 166.205C890.925 166.205 891.542 166.35 892.058 166.642C892.573 166.93 892.969 167.311 893.245 167.784C893.522 168.258 893.66 168.769 893.66 169.318C893.66 169.973 893.487 170.532 893.143 170.994C892.802 171.456 892.338 171.777 891.751 171.955V172.045C892.486 172.167 893.059 172.479 893.472 172.983C893.885 173.483 894.092 174.102 894.092 174.841C894.092 175.473 893.919 176.042 893.575 176.545C893.234 177.045 892.768 177.439 892.177 177.727C891.586 178.015 890.914 178.159 890.16 178.159ZM896.143 175.614V174.455L901.256 166.364H902.097V168.159H901.529L897.665 174.273V174.364H904.552V175.614H896.143ZM901.62 178V175.261V174.722V166.364H902.961V178H901.62ZM906.408 175.614V174.455L911.522 166.364H912.363V168.159H911.795L907.931 174.273V174.364H914.817V175.614H906.408ZM911.886 178V175.261V174.722V166.364H913.227V178H911.886ZM920.742 178H917.151V166.364H920.901C922.03 166.364 922.996 166.597 923.799 167.062C924.602 167.525 925.218 168.189 925.646 169.057C926.074 169.92 926.288 170.955 926.288 172.159C926.288 173.371 926.072 174.415 925.64 175.29C925.208 176.161 924.579 176.831 923.754 177.301C922.928 177.767 921.924 178 920.742 178ZM918.56 176.75H920.651C921.613 176.75 922.411 176.564 923.043 176.193C923.676 175.822 924.147 175.294 924.458 174.608C924.769 173.922 924.924 173.106 924.924 172.159C924.924 171.22 924.771 170.411 924.464 169.733C924.157 169.051 923.699 168.528 923.089 168.165C922.479 167.797 921.719 167.614 920.81 167.614H918.56V176.75Z" fill="white"/>
</svg>
