<svg width="152" height="32" viewBox="0 0 152 32" fill="none" xmlns="http://www.w3.org/2000/svg">
<rect x="0.5" y="0.5" width="151" height="31" rx="15.5" stroke="#525252"/>
<path d="M18 16H30M24 10V22M21.2 10H26.8C27.9201 10 28.4802 10 28.908 10.218C29.2843 10.4097 29.5903 10.7157 29.782 11.092C30 11.5198 30 12.0799 30 13.2V18.8C30 19.9201 30 20.4802 29.782 20.908C29.5903 21.2843 29.2843 21.5903 28.908 21.782C28.4802 22 27.9201 22 26.8 22H21.2C20.0799 22 19.5198 22 19.092 21.782C18.7157 21.5903 18.4097 21.2843 18.218 20.908C18 20.4802 18 19.9201 18 18.8V13.2C18 12.0799 18 11.5198 18.218 11.092C18.4097 10.7157 18.7157 10.4097 19.092 10.218C19.5198 10 20.0799 10 21.2 10Z" stroke="white" stroke-linecap="round" stroke-linejoin="round"/>
<path d="M43.5852 11.2727V20H42.5284V12.2102H38.1307V20H37.0739V11.2727H43.5852ZM45.5806 22.4545V13.4545H46.5522V14.4943H46.6715C46.7454 14.3807 46.8477 14.2358 46.9783 14.0597C47.1119 13.8807 47.3022 13.7216 47.5494 13.5824C47.7994 13.4403 48.1374 13.3693 48.5636 13.3693C49.1147 13.3693 49.6005 13.5071 50.021 13.7827C50.4414 14.0582 50.7695 14.4489 51.0053 14.9545C51.2411 15.4602 51.359 16.0568 51.359 16.7443C51.359 17.4375 51.2411 18.0384 51.0053 18.5469C50.7695 19.0526 50.4428 19.4446 50.0252 19.723C49.6076 19.9986 49.1261 20.1364 48.5806 20.1364C48.1602 20.1364 47.8235 20.0668 47.5707 19.9276C47.3178 19.7855 47.1232 19.625 46.9869 19.446C46.8505 19.2642 46.7454 19.1136 46.6715 18.9943H46.5863V22.4545H45.5806ZM46.5692 16.7273C46.5692 17.2216 46.6417 17.6577 46.7866 18.0355C46.9315 18.4105 47.1431 18.7045 47.4215 18.9176C47.6999 19.1278 48.0408 19.233 48.4442 19.233C48.8647 19.233 49.2156 19.1222 49.4968 18.9006C49.7809 18.6761 49.994 18.375 50.136 17.9972C50.2809 17.6165 50.3533 17.1932 50.3533 16.7273C50.3533 16.267 50.2823 15.8523 50.1403 15.483C50.0011 15.1108 49.7894 14.8168 49.5053 14.6009C49.2241 14.3821 48.8704 14.2727 48.4442 14.2727C48.0352 14.2727 47.6914 14.3764 47.413 14.5838C47.1346 14.7884 46.9244 15.0753 46.7823 15.4446C46.6403 15.8111 46.5692 16.2386 46.5692 16.7273ZM55.5522 20.1364C54.9613 20.1364 54.4428 19.9957 53.9968 19.7145C53.5536 19.4332 53.207 19.0398 52.957 18.5341C52.7099 18.0284 52.5863 17.4375 52.5863 16.7614C52.5863 16.0795 52.7099 15.4844 52.957 14.9759C53.207 14.4673 53.5536 14.0724 53.9968 13.7912C54.4428 13.5099 54.9613 13.3693 55.5522 13.3693C56.1431 13.3693 56.6602 13.5099 57.1033 13.7912C57.5494 14.0724 57.896 14.4673 58.1431 14.9759C58.3931 15.4844 58.5181 16.0795 58.5181 16.7614C58.5181 17.4375 58.3931 18.0284 58.1431 18.5341C57.896 19.0398 57.5494 19.4332 57.1033 19.7145C56.6602 19.9957 56.1431 20.1364 55.5522 20.1364ZM55.5522 19.233C56.0011 19.233 56.3704 19.1179 56.6602 18.8878C56.9499 18.6577 57.1644 18.3551 57.3036 17.9801C57.4428 17.6051 57.5124 17.1989 57.5124 16.7614C57.5124 16.3239 57.4428 15.9162 57.3036 15.5384C57.1644 15.1605 56.9499 14.8551 56.6602 14.6222C56.3704 14.3892 56.0011 14.2727 55.5522 14.2727C55.1033 14.2727 54.734 14.3892 54.4442 14.6222C54.1545 14.8551 53.94 15.1605 53.8008 15.5384C53.6616 15.9162 53.592 16.3239 53.592 16.7614C53.592 17.1989 53.6616 17.6051 53.8008 17.9801C53.94 18.3551 54.1545 18.6577 54.4442 18.8878C54.734 19.1179 55.1033 19.233 55.5522 19.233ZM62.7976 20.1364C62.1669 20.1364 61.6229 19.9972 61.1655 19.7188C60.7109 19.4375 60.3601 19.0455 60.1129 18.5426C59.8686 18.0369 59.7464 17.4489 59.7464 16.7784C59.7464 16.108 59.8686 15.517 60.1129 15.0057C60.3601 14.4915 60.7038 14.0909 61.1442 13.804C61.5874 13.5142 62.1044 13.3693 62.6953 13.3693C63.0362 13.3693 63.3729 13.4261 63.7053 13.5398C64.0376 13.6534 64.3402 13.8381 64.6129 14.0938C64.8857 14.3466 65.103 14.6818 65.2649 15.0994C65.4268 15.517 65.5078 16.0312 65.5078 16.642V17.0682H60.4624V16.1989H64.4851C64.4851 15.8295 64.4112 15.5 64.2635 15.2102C64.1186 14.9205 63.9112 14.6918 63.6413 14.5241C63.3743 14.3565 63.0589 14.2727 62.6953 14.2727C62.2947 14.2727 61.9482 14.3722 61.6555 14.571C61.3658 14.767 61.1428 15.0227 60.9865 15.3381C60.8303 15.6534 60.7521 15.9915 60.7521 16.3523V16.9318C60.7521 17.4261 60.8374 17.8452 61.0078 18.1889C61.1811 18.5298 61.4212 18.7898 61.728 18.9688C62.0348 19.1449 62.3913 19.233 62.7976 19.233C63.0618 19.233 63.3004 19.196 63.5135 19.1222C63.7294 19.0455 63.9155 18.9318 64.0717 18.7812C64.228 18.6278 64.3487 18.4375 64.4339 18.2102L65.4055 18.483C65.3033 18.8125 65.1314 19.1023 64.8899 19.3523C64.6484 19.5994 64.3501 19.7926 63.995 19.9318C63.6399 20.0682 63.2408 20.1364 62.7976 20.1364ZM67.0376 20V13.4545H68.0433V16.3011H68.7081L71.0604 13.4545H72.3558L69.7138 16.608L72.3899 20H71.0945L68.9467 17.2386H68.0433V20H67.0376ZM73.108 14.392V13.4545H78.4261V14.392H76.2784V20H75.2727V14.392H73.108ZM80.8988 18.517L84.0522 13.4545H85.2113V20H84.2056V14.9375L81.0692 20H79.8931V13.4545H80.8988V18.517ZM87.0533 22.4545V13.4545H88.0249V14.4943H88.1442C88.218 14.3807 88.3203 14.2358 88.451 14.0597C88.5845 13.8807 88.7749 13.7216 89.022 13.5824C89.272 13.4403 89.6101 13.3693 90.0362 13.3693C90.5874 13.3693 91.0732 13.5071 91.4936 13.7827C91.9141 14.0582 92.2422 14.4489 92.478 14.9545C92.7138 15.4602 92.8317 16.0568 92.8317 16.7443C92.8317 17.4375 92.7138 18.0384 92.478 18.5469C92.2422 19.0526 91.9155 19.4446 91.4979 19.723C91.0803 19.9986 90.5987 20.1364 90.0533 20.1364C89.6328 20.1364 89.2962 20.0668 89.0433 19.9276C88.7905 19.7855 88.5959 19.625 88.4595 19.446C88.3232 19.2642 88.218 19.1136 88.1442 18.9943H88.0589V22.4545H87.0533ZM88.0419 16.7273C88.0419 17.2216 88.1143 17.6577 88.2592 18.0355C88.4041 18.4105 88.6158 18.7045 88.8942 18.9176C89.1726 19.1278 89.5135 19.233 89.9169 19.233C90.3374 19.233 90.6882 19.1222 90.9695 18.9006C91.2536 18.6761 91.4666 18.375 91.6087 17.9972C91.7536 17.6165 91.826 17.1932 91.826 16.7273C91.826 16.267 91.755 15.8523 91.6129 15.483C91.4737 15.1108 91.2621 14.8168 90.978 14.6009C90.6967 14.3821 90.343 14.2727 89.9169 14.2727C89.5078 14.2727 89.1641 14.3764 88.8857 14.5838C88.6072 14.7884 88.397 15.0753 88.255 15.4446C88.1129 15.8111 88.0419 16.2386 88.0419 16.7273ZM97.0249 20.1364C96.4339 20.1364 95.9155 19.9957 95.4695 19.7145C95.0263 19.4332 94.6797 19.0398 94.4297 18.5341C94.1825 18.0284 94.0589 17.4375 94.0589 16.7614C94.0589 16.0795 94.1825 15.4844 94.4297 14.9759C94.6797 14.4673 95.0263 14.0724 95.4695 13.7912C95.9155 13.5099 96.4339 13.3693 97.0249 13.3693C97.6158 13.3693 98.1328 13.5099 98.576 13.7912C99.022 14.0724 99.3686 14.4673 99.6158 14.9759C99.8658 15.4844 99.9908 16.0795 99.9908 16.7614C99.9908 17.4375 99.8658 18.0284 99.6158 18.5341C99.3686 19.0398 99.022 19.4332 98.576 19.7145C98.1328 19.9957 97.6158 20.1364 97.0249 20.1364ZM97.0249 19.233C97.4737 19.233 97.843 19.1179 98.1328 18.8878C98.4226 18.6577 98.6371 18.3551 98.7763 17.9801C98.9155 17.6051 98.9851 17.1989 98.9851 16.7614C98.9851 16.3239 98.9155 15.9162 98.7763 15.5384C98.6371 15.1605 98.4226 14.8551 98.1328 14.6222C97.843 14.3892 97.4737 14.2727 97.0249 14.2727C96.576 14.2727 96.2067 14.3892 95.9169 14.6222C95.6271 14.8551 95.4126 15.1605 95.2734 15.5384C95.1342 15.9162 95.0646 16.3239 95.0646 16.7614C95.0646 17.1989 95.1342 17.6051 95.2734 17.9801C95.4126 18.3551 95.6271 18.6577 95.9169 18.8878C96.2067 19.1179 96.576 19.233 97.0249 19.233ZM101.526 20V13.4545H104.202C104.907 13.4545 105.466 13.6136 105.881 13.9318C106.296 14.25 106.503 14.6705 106.503 15.1932C106.503 15.5909 106.385 15.8991 106.15 16.1179C105.914 16.3338 105.611 16.4801 105.242 16.5568C105.483 16.5909 105.718 16.6761 105.945 16.8125C106.175 16.9489 106.365 17.1364 106.516 17.375C106.667 17.6108 106.742 17.9006 106.742 18.2443C106.742 18.5795 106.657 18.8793 106.486 19.1435C106.316 19.4077 106.071 19.6165 105.753 19.7699C105.435 19.9233 105.054 20 104.611 20H101.526ZM102.48 19.0795H104.611C104.958 19.0795 105.229 18.9972 105.425 18.8324C105.621 18.6676 105.719 18.4432 105.719 18.1591C105.719 17.821 105.621 17.5554 105.425 17.3622C105.229 17.1662 104.958 17.0682 104.611 17.0682H102.48V19.0795ZM102.48 16.1989H104.202C104.472 16.1989 104.703 16.1619 104.897 16.0881C105.09 16.0114 105.238 15.9034 105.34 15.7642C105.445 15.6222 105.498 15.4545 105.498 15.2614C105.498 14.9858 105.382 14.7699 105.152 14.6136C104.922 14.4545 104.605 14.375 104.202 14.375H102.48V16.1989ZM110.19 20.1534C109.776 20.1534 109.399 20.0753 109.061 19.919C108.723 19.7599 108.455 19.5312 108.256 19.233C108.057 18.9318 107.957 18.5682 107.957 18.142C107.957 17.767 108.031 17.4631 108.179 17.2301C108.327 16.9943 108.524 16.8097 108.771 16.6761C109.018 16.5426 109.291 16.4432 109.589 16.3778C109.891 16.3097 110.193 16.2557 110.497 16.2159C110.895 16.1648 111.217 16.1264 111.464 16.1009C111.714 16.0724 111.896 16.0256 112.01 15.9602C112.126 15.8949 112.185 15.7812 112.185 15.6193V15.5852C112.185 15.1648 112.07 14.8381 111.839 14.6051C111.612 14.3722 111.267 14.2557 110.804 14.2557C110.324 14.2557 109.947 14.3608 109.675 14.571C109.402 14.7812 109.21 15.0057 109.099 15.2443L108.145 14.9034C108.315 14.5057 108.543 14.196 108.827 13.9744C109.114 13.75 109.426 13.5937 109.764 13.5057C110.105 13.4148 110.44 13.3693 110.77 13.3693C110.98 13.3693 111.222 13.3949 111.494 13.446C111.77 13.4943 112.036 13.5952 112.291 13.7486C112.55 13.902 112.764 14.1335 112.935 14.4432C113.105 14.7528 113.19 15.1676 113.19 15.6875V20H112.185V19.1136H112.134C112.065 19.2557 111.952 19.4077 111.793 19.5696C111.634 19.7315 111.422 19.8693 111.158 19.983C110.893 20.0966 110.571 20.1534 110.19 20.1534ZM110.344 19.25C110.741 19.25 111.077 19.1719 111.349 19.0156C111.625 18.8594 111.832 18.6577 111.972 18.4105C112.114 18.1634 112.185 17.9034 112.185 17.6307V16.7102C112.142 16.7614 112.048 16.8082 111.903 16.8509C111.761 16.8906 111.597 16.9261 111.409 16.9574C111.224 16.9858 111.044 17.0114 110.868 17.0341C110.695 17.054 110.554 17.071 110.446 17.0852C110.185 17.1193 109.94 17.1747 109.713 17.2514C109.489 17.3253 109.307 17.4375 109.168 17.5881C109.031 17.7358 108.963 17.9375 108.963 18.1932C108.963 18.5426 109.092 18.8068 109.351 18.9858C109.612 19.1619 109.943 19.25 110.344 19.25ZM119.407 16.267V17.2045H115.793V16.267H119.407ZM116.032 13.4545V20H115.026V13.4545H116.032ZM120.174 13.4545V20H119.168V13.4545H120.174ZM123.016 18.517L126.169 13.4545H127.328V20H126.323V14.9375L123.186 20H122.01V13.4545H123.016V18.517ZM131.915 20.1364C131.284 20.1364 130.74 19.9972 130.283 19.7188C129.828 19.4375 129.477 19.0455 129.23 18.5426C128.986 18.0369 128.864 17.4489 128.864 16.7784C128.864 16.108 128.986 15.517 129.23 15.0057C129.477 14.4915 129.821 14.0909 130.261 13.804C130.705 13.5142 131.222 13.3693 131.812 13.3693C132.153 13.3693 132.49 13.4261 132.822 13.5398C133.155 13.6534 133.457 13.8381 133.73 14.0938C134.003 14.3466 134.22 14.6818 134.382 15.0994C134.544 15.517 134.625 16.0312 134.625 16.642V17.0682H129.58V16.1989H133.602C133.602 15.8295 133.528 15.5 133.381 15.2102C133.236 14.9205 133.028 14.6918 132.759 14.5241C132.491 14.3565 132.176 14.2727 131.812 14.2727C131.412 14.2727 131.065 14.3722 130.773 14.571C130.483 14.767 130.26 15.0227 130.104 15.3381C129.947 15.6534 129.869 15.9915 129.869 16.3523V16.9318C129.869 17.4261 129.955 17.8452 130.125 18.1889C130.298 18.5298 130.538 18.7898 130.845 18.9688C131.152 19.1449 131.509 19.233 131.915 19.233C132.179 19.233 132.418 19.196 132.631 19.1222C132.847 19.0455 133.033 18.9318 133.189 18.7812C133.345 18.6278 133.466 18.4375 133.551 18.2102L134.523 18.483C134.42 18.8125 134.249 19.1023 134.007 19.3523C133.766 19.5994 133.467 19.7926 133.112 19.9318C132.757 20.0682 132.358 20.1364 131.915 20.1364Z" fill="white"/>
</svg>
