<svg width="189" height="32" viewBox="0 0 189 32" fill="none" xmlns="http://www.w3.org/2000/svg">
<rect x="0.5" y="0.5" width="188" height="31" rx="15.5" stroke="#525252"/>
<path d="M24 18C21.7241 18 19.7001 19.0204 18.4116 20.604C18.1342 20.9448 17.9956 21.1152 18.0001 21.3455C18.0036 21.5235 18.1239 21.7479 18.2747 21.8578C18.4699 22 18.7403 22 19.2812 22H28.7188C29.2597 22 29.5301 22 29.7253 21.8578C29.8761 21.7479 29.9964 21.5235 29.9999 21.3455C30.0044 21.1152 29.8658 20.9448 29.5884 20.604C28.2999 19.0204 26.2759 18 24 18Z" stroke="white" stroke-linecap="round" stroke-linejoin="round"/>
<path d="M24 16C25.7843 16 27.2307 14.6569 27.2307 13C27.2307 11.3431 25.7843 10 24 10C22.2157 10 20.7693 11.3431 20.7693 13C20.7693 14.6569 22.2157 16 24 16Z" stroke="white" stroke-linecap="round" stroke-linejoin="round"/>
<path d="M42.7841 11.2727H43.8409V17.0511C43.8409 17.6477 43.7003 18.1804 43.419 18.6491C43.1406 19.1151 42.7472 19.483 42.2386 19.7528C41.7301 20.0199 41.1335 20.1534 40.4489 20.1534C39.7642 20.1534 39.1676 20.0199 38.6591 19.7528C38.1506 19.483 37.7557 19.1151 37.4744 18.6491C37.196 18.1804 37.0568 17.6477 37.0568 17.0511V11.2727H38.1136V16.9659C38.1136 17.392 38.2074 17.7713 38.3949 18.1037C38.5824 18.4332 38.8494 18.6932 39.196 18.8835C39.5455 19.071 39.9631 19.1648 40.4489 19.1648C40.9347 19.1648 41.3523 19.071 41.7017 18.8835C42.0511 18.6932 42.3182 18.4332 42.5028 18.1037C42.6903 17.7713 42.7841 17.392 42.7841 16.9659V11.2727ZM50.4513 14.9205L49.5479 15.1761C49.4911 15.0256 49.4073 14.8793 49.2965 14.7372C49.1886 14.5923 49.0408 14.473 48.8533 14.3793C48.6658 14.2855 48.4258 14.2386 48.1332 14.2386C47.7326 14.2386 47.3988 14.331 47.1317 14.5156C46.8675 14.6974 46.7354 14.929 46.7354 15.2102C46.7354 15.4602 46.8263 15.6577 47.0082 15.8026C47.19 15.9474 47.4741 16.0682 47.8604 16.1648L48.832 16.4034C49.4173 16.5455 49.8533 16.7628 50.1403 17.0554C50.4272 17.3452 50.5707 17.7187 50.5707 18.1761C50.5707 18.5511 50.4627 18.8864 50.2468 19.1818C50.0337 19.4773 49.7354 19.7102 49.3519 19.8807C48.9684 20.0511 48.5224 20.1364 48.0138 20.1364C47.3462 20.1364 46.7937 19.9915 46.3562 19.7017C45.9187 19.4119 45.6417 18.9886 45.5252 18.4318L46.4798 18.1932C46.5707 18.5455 46.7425 18.8097 46.9954 18.9858C47.2511 19.1619 47.5849 19.25 47.9968 19.25C48.4656 19.25 48.8377 19.1506 49.1133 18.9517C49.3917 18.75 49.5309 18.5085 49.5309 18.2273C49.5309 18 49.4513 17.8097 49.2923 17.6562C49.1332 17.5 48.8888 17.3835 48.5593 17.3068L47.4684 17.0511C46.869 16.9091 46.4286 16.6889 46.1474 16.3906C45.869 16.0895 45.7298 15.7131 45.7298 15.2614C45.7298 14.892 45.8335 14.5653 46.0408 14.2812C46.2511 13.9972 46.5366 13.7741 46.8974 13.6122C47.261 13.4503 47.6729 13.3693 48.1332 13.3693C48.7809 13.3693 49.2894 13.5114 49.6587 13.7955C50.0309 14.0795 50.2951 14.4545 50.4513 14.9205ZM54.0107 20.1534C53.5959 20.1534 53.2195 20.0753 52.8814 19.919C52.5433 19.7599 52.2749 19.5312 52.076 19.233C51.8771 18.9318 51.7777 18.5682 51.7777 18.142C51.7777 17.767 51.8516 17.4631 51.9993 17.2301C52.147 16.9943 52.3445 16.8097 52.5916 16.6761C52.8388 16.5426 53.1115 16.4432 53.4098 16.3778C53.7109 16.3097 54.0135 16.2557 54.3175 16.2159C54.7152 16.1648 55.0376 16.1264 55.2848 16.1009C55.5348 16.0724 55.7166 16.0256 55.8303 15.9602C55.9467 15.8949 56.005 15.7812 56.005 15.6193V15.5852C56.005 15.1648 55.8899 14.8381 55.6598 14.6051C55.4325 14.3722 55.0874 14.2557 54.6243 14.2557C54.1442 14.2557 53.7678 14.3608 53.495 14.571C53.2223 14.7812 53.0305 15.0057 52.9197 15.2443L51.9652 14.9034C52.1357 14.5057 52.3629 14.196 52.647 13.9744C52.9339 13.75 53.2464 13.5937 53.5845 13.5057C53.9254 13.4148 54.2607 13.3693 54.5902 13.3693C54.8004 13.3693 55.0419 13.3949 55.3146 13.446C55.5902 13.4943 55.8558 13.5952 56.1115 13.7486C56.37 13.902 56.5845 14.1335 56.755 14.4432C56.9254 14.7528 57.0107 15.1676 57.0107 15.6875V20H56.005V19.1136H55.9538C55.8857 19.2557 55.772 19.4077 55.6129 19.5696C55.4538 19.7315 55.2422 19.8693 54.978 19.983C54.7138 20.0966 54.3913 20.1534 54.0107 20.1534ZM54.1641 19.25C54.5618 19.25 54.897 19.1719 55.1697 19.0156C55.4453 18.8594 55.6527 18.6577 55.7919 18.4105C55.9339 18.1634 56.005 17.9034 56.005 17.6307V16.7102C55.9624 16.7614 55.8686 16.8082 55.7237 16.8509C55.5817 16.8906 55.4169 16.9261 55.2294 16.9574C55.0447 16.9858 54.8643 17.0114 54.6882 17.0341C54.5149 17.054 54.3743 17.071 54.2663 17.0852C54.005 17.1193 53.7607 17.1747 53.5334 17.2514C53.3089 17.3253 53.1271 17.4375 52.9879 17.5881C52.8516 17.7358 52.7834 17.9375 52.7834 18.1932C52.7834 18.5426 52.9126 18.8068 53.1712 18.9858C53.4325 19.1619 53.7635 19.25 54.1641 19.25ZM58.9826 20V11.2727H59.9883V14.4943H60.0735C60.1474 14.3807 60.2496 14.2358 60.3803 14.0597C60.5138 13.8807 60.7042 13.7216 60.9513 13.5824C61.2013 13.4403 61.5394 13.3693 61.9656 13.3693C62.5167 13.3693 63.0025 13.5071 63.4229 13.7827C63.8434 14.0582 64.1715 14.4489 64.4073 14.9545C64.6431 15.4602 64.761 16.0568 64.761 16.7443C64.761 17.4375 64.6431 18.0384 64.4073 18.5469C64.1715 19.0526 63.8448 19.4446 63.4272 19.723C63.0096 19.9986 62.5281 20.1364 61.9826 20.1364C61.5621 20.1364 61.2255 20.0668 60.9727 19.9276C60.7198 19.7855 60.5252 19.625 60.3888 19.446C60.2525 19.2642 60.1474 19.1136 60.0735 18.9943H59.9542V20H58.9826ZM59.9712 16.7273C59.9712 17.2216 60.0437 17.6577 60.1886 18.0355C60.3335 18.4105 60.5451 18.7045 60.8235 18.9176C61.1019 19.1278 61.4428 19.233 61.8462 19.233C62.2667 19.233 62.6175 19.1222 62.8988 18.9006C63.1829 18.6761 63.396 18.375 63.538 17.9972C63.6829 17.6165 63.7553 17.1932 63.7553 16.7273C63.7553 16.267 63.6843 15.8523 63.5423 15.483C63.4031 15.1108 63.1914 14.8168 62.9073 14.6009C62.6261 14.3821 62.2724 14.2727 61.8462 14.2727C61.4371 14.2727 61.0934 14.3764 60.815 14.5838C60.5366 14.7884 60.3263 15.0753 60.1843 15.4446C60.0423 15.8111 59.9712 16.2386 59.9712 16.7273ZM66.2994 20V13.4545H67.305V20H66.2994ZM66.8107 12.3636C66.6147 12.3636 66.4457 12.2969 66.3036 12.1634C66.1644 12.0298 66.0948 11.8693 66.0948 11.6818C66.0948 11.4943 66.1644 11.3338 66.3036 11.2003C66.4457 11.0668 66.6147 11 66.8107 11C67.0067 11 67.1744 11.0668 67.3136 11.2003C67.4556 11.3338 67.5266 11.4943 67.5266 11.6818C67.5266 11.8693 67.4556 12.0298 67.3136 12.1634C67.1744 12.2969 67.0067 12.3636 66.8107 12.3636ZM70.1527 11.2727V20H69.147V11.2727H70.1527ZM71.9947 20V13.4545H73.0004V20H71.9947ZM72.506 12.3636C72.31 12.3636 72.141 12.2969 71.9989 12.1634C71.8597 12.0298 71.7901 11.8693 71.7901 11.6818C71.7901 11.4943 71.8597 11.3338 71.9989 11.2003C72.141 11.0668 72.31 11 72.506 11C72.7021 11 72.8697 11.0668 73.0089 11.2003C73.1509 11.3338 73.2219 11.4943 73.2219 11.6818C73.2219 11.8693 73.1509 12.0298 73.0089 12.1634C72.8697 12.2969 72.7021 12.3636 72.506 12.3636ZM77.6889 13.4545V14.3068H74.2969V13.4545H77.6889ZM75.2855 11.8864H76.2912V18.125C76.2912 18.4091 76.3324 18.6222 76.4148 18.7642C76.5 18.9034 76.608 18.9972 76.7386 19.0455C76.8722 19.0909 77.0128 19.1136 77.1605 19.1136C77.2713 19.1136 77.3622 19.108 77.4332 19.0966C77.5043 19.0824 77.5611 19.071 77.6037 19.0625L77.8082 19.9659C77.7401 19.9915 77.6449 20.017 77.5227 20.0426C77.4006 20.071 77.2457 20.0852 77.0582 20.0852C76.7741 20.0852 76.4957 20.0241 76.223 19.902C75.9531 19.7798 75.7287 19.5938 75.5497 19.3438C75.3736 19.0938 75.2855 18.7784 75.2855 18.3977V11.8864ZM79.8494 22.4545C79.679 22.4545 79.527 22.4403 79.3935 22.4119C79.2599 22.3864 79.1676 22.3608 79.1165 22.3352L79.3722 21.4489C79.6165 21.5114 79.8324 21.5341 80.0199 21.517C80.2074 21.5 80.3736 21.4162 80.5185 21.2656C80.6662 21.1179 80.8011 20.8778 80.9233 20.5455L81.1108 20.0341L78.6903 13.4545H79.7812L81.5881 18.6705H81.6562L83.4631 13.4545H84.554L81.7756 20.9545C81.6506 21.2926 81.4957 21.5724 81.3111 21.794C81.1264 22.0185 80.9119 22.1847 80.6676 22.2926C80.4261 22.4006 80.1534 22.4545 79.8494 22.4545ZM89.6314 15.7898V16.7273H85.8132V15.7898H89.6314ZM91.0259 14.392V13.4545H96.3441V14.392H94.1964V20H93.1907V14.392H91.0259ZM100.216 20.1364C99.5849 20.1364 99.0408 19.9972 98.5835 19.7188C98.1289 19.4375 97.7781 19.0455 97.5309 18.5426C97.2866 18.0369 97.1644 17.4489 97.1644 16.7784C97.1644 16.108 97.2866 15.517 97.5309 15.0057C97.7781 14.4915 98.1218 14.0909 98.5621 13.804C99.0053 13.5142 99.5224 13.3693 100.113 13.3693C100.454 13.3693 100.791 13.4261 101.123 13.5398C101.456 13.6534 101.758 13.8381 102.031 14.0938C102.304 14.3466 102.521 14.6818 102.683 15.0994C102.845 15.517 102.926 16.0312 102.926 16.642V17.0682H97.8803V16.1989H101.903C101.903 15.8295 101.829 15.5 101.681 15.2102C101.537 14.9205 101.329 14.6918 101.059 14.5241C100.792 14.3565 100.477 14.2727 100.113 14.2727C99.7127 14.2727 99.3661 14.3722 99.0735 14.571C98.7837 14.767 98.5607 15.0227 98.4045 15.3381C98.2482 15.6534 98.1701 15.9915 98.1701 16.3523V16.9318C98.1701 17.4261 98.2553 17.8452 98.4258 18.1889C98.5991 18.5298 98.8391 18.7898 99.146 18.9688C99.4528 19.1449 99.8093 19.233 100.216 19.233C100.48 19.233 100.718 19.196 100.931 19.1222C101.147 19.0455 101.333 18.9318 101.49 18.7812C101.646 18.6278 101.767 18.4375 101.852 18.2102L102.824 18.483C102.721 18.8125 102.549 19.1023 102.308 19.3523C102.066 19.5994 101.768 19.7926 101.413 19.9318C101.058 20.0682 100.659 20.1364 100.216 20.1364ZM107.115 20.1364C106.501 20.1364 105.973 19.9915 105.529 19.7017C105.086 19.4119 104.745 19.0128 104.507 18.5043C104.268 17.9957 104.149 17.4148 104.149 16.7614C104.149 16.0966 104.271 15.5099 104.515 15.0014C104.762 14.4901 105.106 14.0909 105.547 13.804C105.99 13.5142 106.507 13.3693 107.098 13.3693C107.558 13.3693 107.973 13.4545 108.342 13.625C108.711 13.7955 109.014 14.0341 109.25 14.3409C109.485 14.6477 109.632 15.0057 109.689 15.4148H108.683C108.606 15.1165 108.436 14.8523 108.172 14.6222C107.91 14.3892 107.558 14.2727 107.115 14.2727C106.723 14.2727 106.379 14.375 106.083 14.5795C105.791 14.7812 105.562 15.0668 105.397 15.4361C105.235 15.8026 105.154 16.233 105.154 16.7273C105.154 17.233 105.234 17.6733 105.393 18.0483C105.555 18.4233 105.782 18.7145 106.075 18.9219C106.37 19.1293 106.717 19.233 107.115 19.233C107.376 19.233 107.613 19.1875 107.826 19.0966C108.039 19.0057 108.22 18.875 108.368 18.7045C108.515 18.5341 108.62 18.3295 108.683 18.0909H109.689C109.632 18.4773 109.491 18.8253 109.267 19.1349C109.045 19.4418 108.751 19.6861 108.385 19.8679C108.021 20.0469 107.598 20.1364 107.115 20.1364ZM110.643 14.392V13.4545H115.961V14.392H113.814V20H112.808V14.392H110.643ZM118.434 18.517L121.587 13.4545H122.746V20H121.741V14.9375L118.604 20H117.428V13.4545H118.434V18.517ZM124.588 22.4545V13.4545H125.56V14.4943H125.679C125.753 14.3807 125.855 14.2358 125.986 14.0597C126.12 13.8807 126.31 13.7216 126.557 13.5824C126.807 13.4403 127.145 13.3693 127.571 13.3693C128.123 13.3693 128.608 13.5071 129.029 13.7827C129.449 14.0582 129.777 14.4489 130.013 14.9545C130.249 15.4602 130.367 16.0568 130.367 16.7443C130.367 17.4375 130.249 18.0384 130.013 18.5469C129.777 19.0526 129.451 19.4446 129.033 19.723C128.615 19.9986 128.134 20.1364 127.588 20.1364C127.168 20.1364 126.831 20.0668 126.578 19.9276C126.326 19.7855 126.131 19.625 125.995 19.446C125.858 19.2642 125.753 19.1136 125.679 18.9943H125.594V22.4545H124.588ZM125.577 16.7273C125.577 17.2216 125.65 17.6577 125.794 18.0355C125.939 18.4105 126.151 18.7045 126.429 18.9176C126.708 19.1278 127.049 19.233 127.452 19.233C127.873 19.233 128.223 19.1222 128.505 18.9006C128.789 18.6761 129.002 18.375 129.144 17.9972C129.289 17.6165 129.361 17.1932 129.361 16.7273C129.361 16.267 129.29 15.8523 129.148 15.483C129.009 15.1108 128.797 14.8168 128.513 14.6009C128.232 14.3821 127.878 14.2727 127.452 14.2727C127.043 14.2727 126.699 14.3764 126.421 14.5838C126.142 14.7884 125.932 15.0753 125.79 15.4446C125.648 15.8111 125.577 16.2386 125.577 16.7273ZM134.56 20.1364C133.969 20.1364 133.451 19.9957 133.005 19.7145C132.561 19.4332 132.215 19.0398 131.965 18.5341C131.718 18.0284 131.594 17.4375 131.594 16.7614C131.594 16.0795 131.718 15.4844 131.965 14.9759C132.215 14.4673 132.561 14.0724 133.005 13.7912C133.451 13.5099 133.969 13.3693 134.56 13.3693C135.151 13.3693 135.668 13.5099 136.111 13.7912C136.557 14.0724 136.904 14.4673 137.151 14.9759C137.401 15.4844 137.526 16.0795 137.526 16.7614C137.526 17.4375 137.401 18.0284 137.151 18.5341C136.904 19.0398 136.557 19.4332 136.111 19.7145C135.668 19.9957 135.151 20.1364 134.56 20.1364ZM134.56 19.233C135.009 19.233 135.378 19.1179 135.668 18.8878C135.958 18.6577 136.172 18.3551 136.311 17.9801C136.451 17.6051 136.52 17.1989 136.52 16.7614C136.52 16.3239 136.451 15.9162 136.311 15.5384C136.172 15.1605 135.958 14.8551 135.668 14.6222C135.378 14.3892 135.009 14.2727 134.56 14.2727C134.111 14.2727 133.742 14.3892 133.452 14.6222C133.162 14.8551 132.948 15.1605 132.809 15.5384C132.669 15.9162 132.6 16.3239 132.6 16.7614C132.6 17.1989 132.669 17.6051 132.809 17.9801C132.948 18.3551 133.162 18.6577 133.452 18.8878C133.742 19.1179 134.111 19.233 134.56 19.233ZM139.061 20V13.4545H141.737C142.442 13.4545 143.001 13.6136 143.416 13.9318C143.831 14.25 144.038 14.6705 144.038 15.1932C144.038 15.5909 143.92 15.8991 143.685 16.1179C143.449 16.3338 143.146 16.4801 142.777 16.5568C143.018 16.5909 143.253 16.6761 143.48 16.8125C143.71 16.9489 143.901 17.1364 144.051 17.375C144.202 17.6108 144.277 17.9006 144.277 18.2443C144.277 18.5795 144.192 18.8793 144.021 19.1435C143.851 19.4077 143.607 19.6165 143.288 19.7699C142.97 19.9233 142.589 20 142.146 20H139.061ZM140.016 19.0795H142.146C142.493 19.0795 142.764 18.9972 142.96 18.8324C143.156 18.6676 143.254 18.4432 143.254 18.1591C143.254 17.821 143.156 17.5554 142.96 17.3622C142.764 17.1662 142.493 17.0682 142.146 17.0682H140.016V19.0795ZM140.016 16.1989H141.737C142.007 16.1989 142.239 16.1619 142.432 16.0881C142.625 16.0114 142.773 15.9034 142.875 15.7642C142.98 15.6222 143.033 15.4545 143.033 15.2614C143.033 14.9858 142.918 14.7699 142.688 14.6136C142.457 14.4545 142.141 14.375 141.737 14.375H140.016V16.1989ZM147.725 20.1534C147.311 20.1534 146.934 20.0753 146.596 19.919C146.258 19.7599 145.99 19.5312 145.791 19.233C145.592 18.9318 145.493 18.5682 145.493 18.142C145.493 17.767 145.566 17.4631 145.714 17.2301C145.862 16.9943 146.059 16.8097 146.306 16.6761C146.554 16.5426 146.826 16.4432 147.125 16.3778C147.426 16.3097 147.728 16.2557 148.032 16.2159C148.43 16.1648 148.752 16.1264 149 16.1009C149.25 16.0724 149.431 16.0256 149.545 15.9602C149.662 15.8949 149.72 15.7812 149.72 15.6193V15.5852C149.72 15.1648 149.605 14.8381 149.375 14.6051C149.147 14.3722 148.802 14.2557 148.339 14.2557C147.859 14.2557 147.483 14.3608 147.21 14.571C146.937 14.7812 146.745 15.0057 146.635 15.2443L145.68 14.9034C145.85 14.5057 146.078 14.196 146.362 13.9744C146.649 13.75 146.961 13.5937 147.299 13.5057C147.64 13.4148 147.975 13.3693 148.305 13.3693C148.515 13.3693 148.757 13.3949 149.029 13.446C149.305 13.4943 149.571 13.5952 149.826 13.7486C150.085 13.902 150.299 14.1335 150.47 14.4432C150.64 14.7528 150.725 15.1676 150.725 15.6875V20H149.72V19.1136H149.669C149.6 19.2557 149.487 19.4077 149.328 19.5696C149.169 19.7315 148.957 19.8693 148.693 19.983C148.429 20.0966 148.106 20.1534 147.725 20.1534ZM147.879 19.25C148.277 19.25 148.612 19.1719 148.885 19.0156C149.16 18.8594 149.368 18.6577 149.507 18.4105C149.649 18.1634 149.72 17.9034 149.72 17.6307V16.7102C149.677 16.7614 149.583 16.8082 149.439 16.8509C149.297 16.8906 149.132 16.9261 148.944 16.9574C148.76 16.9858 148.579 17.0114 148.403 17.0341C148.23 17.054 148.089 17.071 147.981 17.0852C147.72 17.1193 147.475 17.1747 147.248 17.2514C147.024 17.3253 146.842 17.4375 146.703 17.5881C146.566 17.7358 146.498 17.9375 146.498 18.1932C146.498 18.5426 146.627 18.8068 146.886 18.9858C147.147 19.1619 147.478 19.25 147.879 19.25ZM156.942 16.267V17.2045H153.328V16.267H156.942ZM153.567 13.4545V20H152.561V13.4545H153.567ZM157.709 13.4545V20H156.703V13.4545H157.709ZM160.551 18.517L163.705 13.4545H164.864V20H163.858V14.9375L160.722 20H159.545V13.4545H160.551V18.517ZM169.45 20.1364C168.819 20.1364 168.275 19.9972 167.818 19.7188C167.363 19.4375 167.012 19.0455 166.765 18.5426C166.521 18.0369 166.399 17.4489 166.399 16.7784C166.399 16.108 166.521 15.517 166.765 15.0057C167.012 14.4915 167.356 14.0909 167.797 13.804C168.24 13.5142 168.757 13.3693 169.348 13.3693C169.689 13.3693 170.025 13.4261 170.358 13.5398C170.69 13.6534 170.993 13.8381 171.265 14.0938C171.538 14.3466 171.755 14.6818 171.917 15.0994C172.079 15.517 172.16 16.0312 172.16 16.642V17.0682H167.115V16.1989H171.137C171.137 15.8295 171.064 15.5 170.916 15.2102C170.771 14.9205 170.564 14.6918 170.294 14.5241C170.027 14.3565 169.711 14.2727 169.348 14.2727C168.947 14.2727 168.6 14.3722 168.308 14.571C168.018 14.767 167.795 15.0227 167.639 15.3381C167.483 15.6534 167.404 15.9915 167.404 16.3523V16.9318C167.404 17.4261 167.49 17.8452 167.66 18.1889C167.833 18.5298 168.074 18.7898 168.38 18.9688C168.687 19.1449 169.044 19.233 169.45 19.233C169.714 19.233 169.953 19.196 170.166 19.1222C170.382 19.0455 170.568 18.9318 170.724 18.7812C170.88 18.6278 171.001 18.4375 171.086 18.2102L172.058 18.483C171.956 18.8125 171.784 19.1023 171.542 19.3523C171.301 19.5994 171.002 19.7926 170.647 19.9318C170.292 20.0682 169.893 20.1364 169.45 20.1364Z" fill="white"/>
</svg>
