<svg width="139" height="32" viewBox="0 0 139 32" fill="none" xmlns="http://www.w3.org/2000/svg">
<rect x="0.5" y="0.5" width="138" height="31" rx="15.5" stroke="#525252"/>
<path d="M29.6666 13.1253L24 16M24 16L18.3333 13.1253M24 16L24 21.7833M30 18.4707V13.5293C30 13.3207 30 13.2164 29.9663 13.1234C29.9366 13.0411 29.8879 12.9656 29.8236 12.9018C29.7509 12.8298 29.651 12.7792 29.4514 12.6779L24.518 10.1752C24.329 10.0792 24.2344 10.0313 24.1343 10.0125C24.0457 9.99584 23.9543 9.99584 23.8657 10.0125C23.7656 10.0313 23.6711 10.0792 23.482 10.1752L18.5486 12.6779C18.349 12.7792 18.2491 12.8298 18.1764 12.9018C18.1121 12.9656 18.0634 13.0411 18.0337 13.1234C18 13.2164 18 13.3207 18 13.5293V18.4707C18 18.6793 18 18.7836 18.0337 18.8766C18.0634 18.9589 18.1121 19.0344 18.1764 19.0982C18.2491 19.1702 18.349 19.2208 18.5486 19.3221L23.482 21.8248C23.6711 21.9208 23.7656 21.9687 23.8657 21.9875C23.9543 22.0042 24.0457 22.0042 24.1343 21.9875C24.2344 21.9687 24.3289 21.9208 24.518 21.8248L29.4514 19.3221C29.651 19.2208 29.7509 19.1702 29.8236 19.0982C29.8879 19.0344 29.9366 18.9589 29.9663 18.8766C30 18.7836 30 18.6793 30 18.4707Z" stroke="white" stroke-linecap="round" stroke-linejoin="round"/>
<path d="M37.0568 20V11.2727H40.0057C40.6903 11.2727 41.25 11.3963 41.6847 11.6435C42.1222 11.8878 42.446 12.2188 42.6562 12.6364C42.8665 13.054 42.9716 13.5199 42.9716 14.0341C42.9716 14.5483 42.8665 15.0156 42.6562 15.4361C42.4489 15.8565 42.1278 16.1918 41.6932 16.4418C41.2585 16.6889 40.7017 16.8125 40.0227 16.8125H37.9091V15.875H39.9886C40.4574 15.875 40.8338 15.794 41.1179 15.6321C41.402 15.4702 41.608 15.2514 41.7358 14.9759C41.8665 14.6974 41.9318 14.3835 41.9318 14.0341C41.9318 13.6847 41.8665 13.3722 41.7358 13.0966C41.608 12.821 41.4006 12.6051 41.1136 12.4489C40.8267 12.2898 40.446 12.2102 39.9716 12.2102H38.1136V20H37.0568ZM44.5376 20V13.4545H45.5092V14.4432H45.5774C45.6967 14.1193 45.9126 13.8565 46.2251 13.6548C46.5376 13.4531 46.8899 13.3523 47.282 13.3523C47.3558 13.3523 47.4482 13.3537 47.5589 13.3565C47.6697 13.3594 47.7536 13.3636 47.8104 13.3693V14.392C47.7763 14.3835 47.6982 14.3707 47.576 14.3537C47.4567 14.3338 47.3303 14.3239 47.1967 14.3239C46.8786 14.3239 46.5945 14.3906 46.3445 14.5241C46.0973 14.6548 45.9013 14.8366 45.7564 15.0696C45.6143 15.2997 45.5433 15.5625 45.5433 15.858V20H44.5376ZM51.4624 20.1364C50.8714 20.1364 50.353 19.9957 49.907 19.7145C49.4638 19.4332 49.1172 19.0398 48.8672 18.5341C48.62 18.0284 48.4964 17.4375 48.4964 16.7614C48.4964 16.0795 48.62 15.4844 48.8672 14.9759C49.1172 14.4673 49.4638 14.0724 49.907 13.7912C50.353 13.5099 50.8714 13.3693 51.4624 13.3693C52.0533 13.3693 52.5703 13.5099 53.0135 13.7912C53.4595 14.0724 53.8061 14.4673 54.0533 14.9759C54.3033 15.4844 54.4283 16.0795 54.4283 16.7614C54.4283 17.4375 54.3033 18.0284 54.0533 18.5341C53.8061 19.0398 53.4595 19.4332 53.0135 19.7145C52.5703 19.9957 52.0533 20.1364 51.4624 20.1364ZM51.4624 19.233C51.9112 19.233 52.2805 19.1179 52.5703 18.8878C52.8601 18.6577 53.0746 18.3551 53.2138 17.9801C53.353 17.6051 53.4226 17.1989 53.4226 16.7614C53.4226 16.3239 53.353 15.9162 53.2138 15.5384C53.0746 15.1605 52.8601 14.8551 52.5703 14.6222C52.2805 14.3892 51.9112 14.2727 51.4624 14.2727C51.0135 14.2727 50.6442 14.3892 50.3544 14.6222C50.0646 14.8551 49.8501 15.1605 49.7109 15.5384C49.5717 15.9162 49.5021 16.3239 49.5021 16.7614C49.5021 17.1989 49.5717 17.6051 49.7109 17.9801C49.8501 18.3551 50.0646 18.6577 50.3544 18.8878C50.6442 19.1179 51.0135 19.233 51.4624 19.233ZM58.435 20.1364C57.8896 20.1364 57.408 19.9986 56.9904 19.723C56.5728 19.4446 56.2461 19.0526 56.0103 18.5469C55.7745 18.0384 55.6566 17.4375 55.6566 16.7443C55.6566 16.0568 55.7745 15.4602 56.0103 14.9545C56.2461 14.4489 56.5742 14.0582 56.9947 13.7827C57.4151 13.5071 57.9009 13.3693 58.4521 13.3693C58.8782 13.3693 59.2148 13.4403 59.462 13.5824C59.712 13.7216 59.9023 13.8807 60.033 14.0597C60.1665 14.2358 60.2702 14.3807 60.3441 14.4943H60.4293V11.2727H61.435V20H60.4634V18.9943H60.3441C60.2702 19.1136 60.1651 19.2642 60.0288 19.446C59.8924 19.625 59.6978 19.7855 59.445 19.9276C59.1921 20.0668 58.8555 20.1364 58.435 20.1364ZM58.5714 19.233C58.9748 19.233 59.3157 19.1278 59.5941 18.9176C59.8725 18.7045 60.0842 18.4105 60.229 18.0355C60.3739 17.6577 60.4464 17.2216 60.4464 16.7273C60.4464 16.2386 60.3754 15.8111 60.2333 15.4446C60.0913 15.0753 59.881 14.7884 59.6026 14.5838C59.3242 14.3764 58.9805 14.2727 58.5714 14.2727C58.1452 14.2727 57.7901 14.3821 57.506 14.6009C57.2248 14.8168 57.0131 15.1108 56.8711 15.483C56.7319 15.8523 56.6623 16.267 56.6623 16.7273C56.6623 17.1932 56.7333 17.6165 56.8754 17.9972C57.0202 18.375 57.2333 18.6761 57.5146 18.9006C57.7987 19.1222 58.1509 19.233 58.5714 19.233ZM67.5415 17.3239V13.4545H68.5472V20H67.5415V18.892H67.4734C67.32 19.2244 67.0813 19.5071 66.7575 19.7401C66.4336 19.9702 66.0245 20.0852 65.5302 20.0852C65.1211 20.0852 64.7575 19.9957 64.4393 19.8168C64.1211 19.6349 63.8711 19.3622 63.6893 18.9986C63.5075 18.6321 63.4165 18.1705 63.4165 17.6136V13.4545H64.4222V17.5455C64.4222 18.0227 64.5558 18.4034 64.8228 18.6875C65.0927 18.9716 65.4364 19.1136 65.854 19.1136C66.104 19.1136 66.3583 19.0497 66.6168 18.9219C66.8782 18.794 67.0969 18.598 67.2731 18.3338C67.4521 18.0696 67.5415 17.733 67.5415 17.3239ZM73.0483 20.1364C72.4347 20.1364 71.9063 19.9915 71.4631 19.7017C71.0199 19.4119 70.679 19.0128 70.4403 18.5043C70.2017 17.9957 70.0824 17.4148 70.0824 16.7614C70.0824 16.0966 70.2045 15.5099 70.4489 15.0014C70.696 14.4901 71.0398 14.0909 71.4801 13.804C71.9233 13.5142 72.4403 13.3693 73.0312 13.3693C73.4915 13.3693 73.9062 13.4545 74.2756 13.625C74.6449 13.7955 74.9474 14.0341 75.1832 14.3409C75.419 14.6477 75.5653 15.0057 75.6222 15.4148H74.6165C74.5398 15.1165 74.3693 14.8523 74.1051 14.6222C73.8438 14.3892 73.4915 14.2727 73.0483 14.2727C72.6563 14.2727 72.3125 14.375 72.017 14.5795C71.7244 14.7812 71.4957 15.0668 71.331 15.4361C71.169 15.8026 71.0881 16.233 71.0881 16.7273C71.0881 17.233 71.1676 17.6733 71.3267 18.0483C71.4886 18.4233 71.7159 18.7145 72.0085 18.9219C72.304 19.1293 72.6506 19.233 73.0483 19.233C73.3097 19.233 73.5469 19.1875 73.7599 19.0966C73.973 19.0057 74.1534 18.875 74.3011 18.7045C74.4489 18.5341 74.554 18.3295 74.6165 18.0909H75.6222C75.5653 18.4773 75.4247 18.8253 75.2003 19.1349C74.9787 19.4418 74.6847 19.6861 74.3182 19.8679C73.9545 20.0469 73.5313 20.1364 73.0483 20.1364ZM79.9389 13.4545V14.3068H76.5469V13.4545H79.9389ZM77.5355 11.8864H78.5412V18.125C78.5412 18.4091 78.5824 18.6222 78.6648 18.7642C78.75 18.9034 78.858 18.9972 78.9886 19.0455C79.1222 19.0909 79.2628 19.1136 79.4105 19.1136C79.5213 19.1136 79.6122 19.108 79.6832 19.0966C79.7543 19.0824 79.8111 19.071 79.8537 19.0625L80.0582 19.9659C79.9901 19.9915 79.8949 20.017 79.7727 20.0426C79.6506 20.071 79.4957 20.0852 79.3082 20.0852C79.0241 20.0852 78.7457 20.0241 78.473 19.902C78.2031 19.7798 77.9787 19.5938 77.7997 19.3438C77.6236 19.0938 77.5355 18.7784 77.5355 18.3977V11.8864ZM87.6562 20H84.9631V11.2727H87.7756C88.6222 11.2727 89.3466 11.4474 89.9489 11.7969C90.5511 12.1435 91.0128 12.642 91.3338 13.2926C91.6548 13.9403 91.8153 14.7159 91.8153 15.6193C91.8153 16.5284 91.6534 17.3111 91.3295 17.9673C91.0057 18.6207 90.5341 19.1236 89.9148 19.4759C89.2955 19.8253 88.5426 20 87.6562 20ZM86.0199 19.0625H87.5881C88.3097 19.0625 88.9077 18.9233 89.3821 18.6449C89.8565 18.3665 90.2102 17.9702 90.4432 17.456C90.6761 16.9418 90.7926 16.3295 90.7926 15.6193C90.7926 14.9148 90.6776 14.3082 90.4474 13.7997C90.2173 13.2884 89.8736 12.8963 89.4162 12.6236C88.9588 12.348 88.3892 12.2102 87.7074 12.2102H86.0199V19.0625ZM96.196 20.1364C95.5653 20.1364 95.0213 19.9972 94.5639 19.7188C94.1094 19.4375 93.7585 19.0455 93.5114 18.5426C93.267 18.0369 93.1449 17.4489 93.1449 16.7784C93.1449 16.108 93.267 15.517 93.5114 15.0057C93.7585 14.4915 94.1023 14.0909 94.5426 13.804C94.9858 13.5142 95.5028 13.3693 96.0938 13.3693C96.4347 13.3693 96.7713 13.4261 97.1037 13.5398C97.4361 13.6534 97.7386 13.8381 98.0114 14.0938C98.2841 14.3466 98.5014 14.6818 98.6634 15.0994C98.8253 15.517 98.9062 16.0312 98.9062 16.642V17.0682H93.8608V16.1989H97.8835C97.8835 15.8295 97.8097 15.5 97.6619 15.2102C97.517 14.9205 97.3097 14.6918 97.0398 14.5241C96.7727 14.3565 96.4574 14.2727 96.0938 14.2727C95.6932 14.2727 95.3466 14.3722 95.054 14.571C94.7642 14.767 94.5412 15.0227 94.3849 15.3381C94.2287 15.6534 94.1506 15.9915 94.1506 16.3523V16.9318C94.1506 17.4261 94.2358 17.8452 94.4062 18.1889C94.5795 18.5298 94.8196 18.7898 95.1264 18.9688C95.4332 19.1449 95.7898 19.233 96.196 19.233C96.4602 19.233 96.6989 19.196 96.9119 19.1222C97.1278 19.0455 97.3139 18.9318 97.4702 18.7812C97.6264 18.6278 97.7472 18.4375 97.8324 18.2102L98.804 18.483C98.7017 18.8125 98.5298 19.1023 98.2884 19.3523C98.0469 19.5994 97.7486 19.7926 97.3935 19.9318C97.0384 20.0682 96.6392 20.1364 96.196 20.1364ZM105.072 14.9205L104.169 15.1761C104.112 15.0256 104.028 14.8793 103.918 14.7372C103.81 14.5923 103.662 14.473 103.474 14.3793C103.287 14.2855 103.047 14.2386 102.754 14.2386C102.354 14.2386 102.02 14.331 101.753 14.5156C101.489 14.6974 101.357 14.929 101.357 15.2102C101.357 15.4602 101.447 15.6577 101.629 15.8026C101.811 15.9474 102.095 16.0682 102.482 16.1648L103.453 16.4034C104.038 16.5455 104.474 16.7628 104.761 17.0554C105.048 17.3452 105.192 17.7187 105.192 18.1761C105.192 18.5511 105.084 18.8864 104.868 19.1818C104.655 19.4773 104.357 19.7102 103.973 19.8807C103.589 20.0511 103.143 20.1364 102.635 20.1364C101.967 20.1364 101.415 19.9915 100.977 19.7017C100.54 19.4119 100.263 18.9886 100.146 18.4318L101.101 18.1932C101.192 18.5455 101.364 18.8097 101.616 18.9858C101.872 19.1619 102.206 19.25 102.618 19.25C103.087 19.25 103.459 19.1506 103.734 18.9517C104.013 18.75 104.152 18.5085 104.152 18.2273C104.152 18 104.072 17.8097 103.913 17.6562C103.754 17.5 103.51 17.3835 103.18 17.3068L102.089 17.0511C101.49 16.9091 101.05 16.6889 100.768 16.3906C100.49 16.0895 100.351 15.7131 100.351 15.2614C100.351 14.892 100.455 14.5653 100.662 14.2812C100.872 13.9972 101.158 13.7741 101.518 13.6122C101.882 13.4503 102.294 13.3693 102.754 13.3693C103.402 13.3693 103.911 13.5114 104.28 13.7955C104.652 14.0795 104.916 14.4545 105.072 14.9205ZM106.706 20V13.4545H107.711V20H106.706ZM107.217 12.3636C107.021 12.3636 106.852 12.2969 106.71 12.1634C106.571 12.0298 106.501 11.8693 106.501 11.6818C106.501 11.4943 106.571 11.3338 106.71 11.2003C106.852 11.0668 107.021 11 107.217 11C107.413 11 107.581 11.0668 107.72 11.2003C107.862 11.3338 107.933 11.4943 107.933 11.6818C107.933 11.8693 107.862 12.0298 107.72 12.1634C107.581 12.2969 107.413 12.3636 107.217 12.3636ZM112.195 22.5909C111.71 22.5909 111.292 22.5284 110.942 22.4034C110.593 22.2812 110.302 22.1193 110.069 21.9176C109.839 21.7188 109.656 21.5057 109.519 21.2784L110.32 20.7159C110.411 20.8352 110.526 20.9716 110.665 21.125C110.805 21.2812 110.995 21.4162 111.237 21.5298C111.481 21.6463 111.8 21.7045 112.195 21.7045C112.724 21.7045 113.16 21.5767 113.504 21.321C113.847 21.0653 114.019 20.6648 114.019 20.1193V18.7898H113.934C113.86 18.9091 113.755 19.0568 113.619 19.233C113.485 19.4062 113.292 19.5611 113.039 19.6974C112.789 19.831 112.451 19.8977 112.025 19.8977C111.496 19.8977 111.022 19.7727 110.602 19.5227C110.184 19.2727 109.853 18.9091 109.609 18.4318C109.367 17.9545 109.246 17.375 109.246 16.6932C109.246 16.0227 109.364 15.4389 109.6 14.9418C109.836 14.4418 110.164 14.0554 110.585 13.7827C111.005 13.5071 111.491 13.3693 112.042 13.3693C112.468 13.3693 112.806 13.4403 113.056 13.5824C113.309 13.7216 113.502 13.8807 113.636 14.0597C113.772 14.2358 113.877 14.3807 113.951 14.4943H114.053V13.4545H115.025V20.1875C115.025 20.75 114.897 21.2074 114.641 21.5597C114.388 21.9148 114.048 22.1747 113.619 22.3395C113.192 22.5071 112.718 22.5909 112.195 22.5909ZM112.161 18.9943C112.565 18.9943 112.906 18.902 113.184 18.7173C113.462 18.5327 113.674 18.267 113.819 17.9205C113.964 17.5739 114.036 17.1591 114.036 16.6761C114.036 16.2045 113.965 15.7884 113.823 15.4276C113.681 15.0668 113.471 14.7841 113.192 14.5795C112.914 14.375 112.57 14.2727 112.161 14.2727C111.735 14.2727 111.38 14.3807 111.096 14.5966C110.815 14.8125 110.603 15.1023 110.461 15.4659C110.322 15.8295 110.252 16.233 110.252 16.6761C110.252 17.1307 110.323 17.5327 110.465 17.8821C110.61 18.2287 110.823 18.5014 111.104 18.7003C111.388 18.8963 111.741 18.9943 112.161 18.9943ZM117.871 16.0625V20H116.866V13.4545H117.837V14.4773H117.923C118.076 14.1449 118.309 13.8778 118.621 13.6761C118.934 13.4716 119.337 13.3693 119.832 13.3693C120.275 13.3693 120.663 13.4602 120.995 13.642C121.327 13.821 121.586 14.0938 121.771 14.4602C121.955 14.8239 122.048 15.2841 122.048 15.8409V20H121.042V15.9091C121.042 15.3949 120.908 14.9943 120.641 14.7074C120.374 14.4176 120.008 14.2727 119.542 14.2727C119.221 14.2727 118.934 14.3423 118.681 14.4815C118.431 14.6207 118.234 14.8239 118.089 15.0909C117.944 15.358 117.871 15.6818 117.871 16.0625Z" fill="white"/>
</svg>
