<svg width="119" height="32" viewBox="0 0 119 32" fill="none" xmlns="http://www.w3.org/2000/svg">
<rect x="0.5" y="0.5" width="118" height="31" rx="15.5" stroke="#525252"/>
<path d="M18 16H30M24 10V22M21.2 10H26.8C27.9201 10 28.4802 10 28.908 10.218C29.2843 10.4097 29.5903 10.7157 29.782 11.092C30 11.5198 30 12.0799 30 13.2V18.8C30 19.9201 30 20.4802 29.782 20.908C29.5903 21.2843 29.2843 21.5903 28.908 21.782C28.4802 22 27.9201 22 26.8 22H21.2C20.0799 22 19.5198 22 19.092 21.782C18.7157 21.5903 18.4097 21.2843 18.218 20.908C18 20.4802 18 19.9201 18 18.8V13.2C18 12.0799 18 11.5198 18.218 11.092C18.4097 10.7157 18.7157 10.4097 19.092 10.218C19.5198 10 20.0799 10 21.2 10Z" stroke="white" stroke-linecap="round" stroke-linejoin="round"/>
<path d="M37.0568 20V11.2727H40.0057C40.6903 11.2727 41.25 11.3963 41.6847 11.6435C42.1222 11.8878 42.446 12.2188 42.6562 12.6364C42.8665 13.054 42.9716 13.5199 42.9716 14.0341C42.9716 14.5483 42.8665 15.0156 42.6562 15.4361C42.4489 15.8565 42.1278 16.1918 41.6932 16.4418C41.2585 16.6889 40.7017 16.8125 40.0227 16.8125H37.9091V15.875H39.9886C40.4574 15.875 40.8338 15.794 41.1179 15.6321C41.402 15.4702 41.608 15.2514 41.7358 14.9759C41.8665 14.6974 41.9318 14.3835 41.9318 14.0341C41.9318 13.6847 41.8665 13.3722 41.7358 13.0966C41.608 12.821 41.4006 12.6051 41.1136 12.4489C40.8267 12.2898 40.446 12.2102 39.9716 12.2102H38.1136V20H37.0568ZM44.5376 20V13.4545H45.5092V14.4432H45.5774C45.6967 14.1193 45.9126 13.8565 46.2251 13.6548C46.5376 13.4531 46.8899 13.3523 47.282 13.3523C47.3558 13.3523 47.4482 13.3537 47.5589 13.3565C47.6697 13.3594 47.7536 13.3636 47.8104 13.3693V14.392C47.7763 14.3835 47.6982 14.3707 47.576 14.3537C47.4567 14.3338 47.3303 14.3239 47.1967 14.3239C46.8786 14.3239 46.5945 14.3906 46.3445 14.5241C46.0973 14.6548 45.9013 14.8366 45.7564 15.0696C45.6143 15.2997 45.5433 15.5625 45.5433 15.858V20H44.5376ZM51.4624 20.1364C50.8714 20.1364 50.353 19.9957 49.907 19.7145C49.4638 19.4332 49.1172 19.0398 48.8672 18.5341C48.62 18.0284 48.4964 17.4375 48.4964 16.7614C48.4964 16.0795 48.62 15.4844 48.8672 14.9759C49.1172 14.4673 49.4638 14.0724 49.907 13.7912C50.353 13.5099 50.8714 13.3693 51.4624 13.3693C52.0533 13.3693 52.5703 13.5099 53.0135 13.7912C53.4595 14.0724 53.8061 14.4673 54.0533 14.9759C54.3033 15.4844 54.4283 16.0795 54.4283 16.7614C54.4283 17.4375 54.3033 18.0284 54.0533 18.5341C53.8061 19.0398 53.4595 19.4332 53.0135 19.7145C52.5703 19.9957 52.0533 20.1364 51.4624 20.1364ZM51.4624 19.233C51.9112 19.233 52.2805 19.1179 52.5703 18.8878C52.8601 18.6577 53.0746 18.3551 53.2138 17.9801C53.353 17.6051 53.4226 17.1989 53.4226 16.7614C53.4226 16.3239 53.353 15.9162 53.2138 15.5384C53.0746 15.1605 52.8601 14.8551 52.5703 14.6222C52.2805 14.3892 51.9112 14.2727 51.4624 14.2727C51.0135 14.2727 50.6442 14.3892 50.3544 14.6222C50.0646 14.8551 49.8501 15.1605 49.7109 15.5384C49.5717 15.9162 49.5021 16.3239 49.5021 16.7614C49.5021 17.1989 49.5717 17.6051 49.7109 17.9801C49.8501 18.3551 50.0646 18.6577 50.3544 18.8878C50.6442 19.1179 51.0135 19.233 51.4624 19.233ZM58.81 13.4545V14.3068H55.418V13.4545H58.81ZM56.4066 11.8864H57.4123V18.125C57.4123 18.4091 57.4535 18.6222 57.5359 18.7642C57.6211 18.9034 57.729 18.9972 57.8597 19.0455C57.9933 19.0909 58.1339 19.1136 58.2816 19.1136C58.3924 19.1136 58.4833 19.108 58.5543 19.0966C58.6254 19.0824 58.6822 19.071 58.7248 19.0625L58.9293 19.9659C58.8612 19.9915 58.766 20.017 58.6438 20.0426C58.5217 20.071 58.3668 20.0852 58.1793 20.0852C57.8952 20.0852 57.6168 20.0241 57.3441 19.902C57.0742 19.7798 56.8498 19.5938 56.6708 19.3438C56.4947 19.0938 56.4066 18.7784 56.4066 18.3977V11.8864ZM62.9116 20.1364C62.3207 20.1364 61.8022 19.9957 61.3562 19.7145C60.913 19.4332 60.5664 19.0398 60.3164 18.5341C60.0692 18.0284 59.9457 17.4375 59.9457 16.7614C59.9457 16.0795 60.0692 15.4844 60.3164 14.9759C60.5664 14.4673 60.913 14.0724 61.3562 13.7912C61.8022 13.5099 62.3207 13.3693 62.9116 13.3693C63.5025 13.3693 64.0195 13.5099 64.4627 13.7912C64.9087 14.0724 65.2553 14.4673 65.5025 14.9759C65.7525 15.4844 65.8775 16.0795 65.8775 16.7614C65.8775 17.4375 65.7525 18.0284 65.5025 18.5341C65.2553 19.0398 64.9087 19.4332 64.4627 19.7145C64.0195 19.9957 63.5025 20.1364 62.9116 20.1364ZM62.9116 19.233C63.3604 19.233 63.7298 19.1179 64.0195 18.8878C64.3093 18.6577 64.5238 18.3551 64.663 17.9801C64.8022 17.6051 64.8718 17.1989 64.8718 16.7614C64.8718 16.3239 64.8022 15.9162 64.663 15.5384C64.5238 15.1605 64.3093 14.8551 64.0195 14.6222C63.7298 14.3892 63.3604 14.2727 62.9116 14.2727C62.4627 14.2727 62.0934 14.3892 61.8036 14.6222C61.5138 14.8551 61.2994 15.1605 61.1602 15.5384C61.021 15.9162 60.9513 16.3239 60.9513 16.7614C60.9513 17.1989 61.021 17.6051 61.1602 17.9801C61.2994 18.3551 61.5138 18.6577 61.8036 18.8878C62.0934 19.1179 62.4627 19.233 62.9116 19.233ZM70.2592 13.4545V14.3068H66.8672V13.4545H70.2592ZM67.8558 11.8864H68.8615V18.125C68.8615 18.4091 68.9027 18.6222 68.9851 18.7642C69.0703 18.9034 69.1783 18.9972 69.3089 19.0455C69.4425 19.0909 69.5831 19.1136 69.7308 19.1136C69.8416 19.1136 69.9325 19.108 70.0036 19.0966C70.0746 19.0824 70.1314 19.071 70.174 19.0625L70.3786 19.9659C70.3104 19.9915 70.2152 20.017 70.093 20.0426C69.9709 20.071 69.8161 20.0852 69.6286 20.0852C69.3445 20.0852 69.0661 20.0241 68.7933 19.902C68.5234 19.7798 68.299 19.5938 68.12 19.3438C67.9439 19.0938 67.8558 18.7784 67.8558 18.3977V11.8864ZM72.4197 22.4545C72.2493 22.4545 72.0973 22.4403 71.9638 22.4119C71.8303 22.3864 71.7379 22.3608 71.6868 22.3352L71.9425 21.4489C72.1868 21.5114 72.4027 21.5341 72.5902 21.517C72.7777 21.5 72.9439 21.4162 73.0888 21.2656C73.2365 21.1179 73.3714 20.8778 73.4936 20.5455L73.6811 20.0341L71.2607 13.4545H72.3516L74.1584 18.6705H74.2266L76.0334 13.4545H77.1243L74.3459 20.9545C74.2209 21.2926 74.0661 21.5724 73.8814 21.794C73.6967 22.0185 73.4822 22.1847 73.2379 22.2926C72.9964 22.4006 72.7237 22.4545 72.4197 22.4545ZM78.4517 22.4545V13.4545H79.4233V14.4943H79.5426C79.6165 14.3807 79.7188 14.2358 79.8494 14.0597C79.983 13.8807 80.1733 13.7216 80.4205 13.5824C80.6705 13.4403 81.0085 13.3693 81.4347 13.3693C81.9858 13.3693 82.4716 13.5071 82.892 13.7827C83.3125 14.0582 83.6406 14.4489 83.8764 14.9545C84.1122 15.4602 84.2301 16.0568 84.2301 16.7443C84.2301 17.4375 84.1122 18.0384 83.8764 18.5469C83.6406 19.0526 83.3139 19.4446 82.8963 19.723C82.4787 19.9986 81.9972 20.1364 81.4517 20.1364C81.0313 20.1364 80.6946 20.0668 80.4418 19.9276C80.1889 19.7855 79.9943 19.625 79.858 19.446C79.7216 19.2642 79.6165 19.1136 79.5426 18.9943H79.4574V22.4545H78.4517ZM79.4403 16.7273C79.4403 17.2216 79.5128 17.6577 79.6577 18.0355C79.8026 18.4105 80.0142 18.7045 80.2926 18.9176C80.571 19.1278 80.9119 19.233 81.3153 19.233C81.7358 19.233 82.0866 19.1222 82.3679 18.9006C82.652 18.6761 82.8651 18.375 83.0071 17.9972C83.152 17.6165 83.2244 17.1932 83.2244 16.7273C83.2244 16.267 83.1534 15.8523 83.0114 15.483C82.8722 15.1108 82.6605 14.8168 82.3764 14.6009C82.0952 14.3821 81.7415 14.2727 81.3153 14.2727C80.9063 14.2727 80.5625 14.3764 80.2841 14.5838C80.0057 14.7884 79.7955 15.0753 79.6534 15.4446C79.5114 15.8111 79.4403 16.2386 79.4403 16.7273ZM85.7642 20V13.4545H86.7699V20H85.7642ZM86.2756 12.3636C86.0795 12.3636 85.9105 12.2969 85.7685 12.1634C85.6293 12.0298 85.5597 11.8693 85.5597 11.6818C85.5597 11.4943 85.6293 11.3338 85.7685 11.2003C85.9105 11.0668 86.0795 11 86.2756 11C86.4716 11 86.6392 11.0668 86.7784 11.2003C86.9205 11.3338 86.9915 11.4943 86.9915 11.6818C86.9915 11.8693 86.9205 12.0298 86.7784 12.1634C86.6392 12.2969 86.4716 12.3636 86.2756 12.3636ZM89.6175 16.0625V20H88.6119V13.4545H89.5835V14.4773H89.6687C89.8221 14.1449 90.055 13.8778 90.3675 13.6761C90.68 13.4716 91.0835 13.3693 91.5778 13.3693C92.021 13.3693 92.4087 13.4602 92.7411 13.642C93.0735 13.821 93.332 14.0938 93.5167 14.4602C93.7013 14.8239 93.7937 15.2841 93.7937 15.8409V20H92.788V15.9091C92.788 15.3949 92.6545 14.9943 92.3874 14.7074C92.1204 14.4176 91.7539 14.2727 91.288 14.2727C90.967 14.2727 90.68 14.3423 90.4272 14.4815C90.1772 14.6207 89.9798 14.8239 89.8349 15.0909C89.69 15.358 89.6175 15.6818 89.6175 16.0625ZM98.2734 22.5909C97.7876 22.5909 97.37 22.5284 97.0206 22.4034C96.6712 22.2812 96.38 22.1193 96.147 21.9176C95.9169 21.7188 95.7337 21.5057 95.5973 21.2784L96.3984 20.7159C96.4893 20.8352 96.6044 20.9716 96.7436 21.125C96.8828 21.2812 97.0732 21.4162 97.3146 21.5298C97.5589 21.6463 97.8786 21.7045 98.2734 21.7045C98.8018 21.7045 99.2379 21.5767 99.5817 21.321C99.9254 21.0653 100.097 20.6648 100.097 20.1193V18.7898H100.012C99.9382 18.9091 99.8331 19.0568 99.6967 19.233C99.5632 19.4062 99.37 19.5611 99.1172 19.6974C98.8672 19.831 98.5291 19.8977 98.103 19.8977C97.5746 19.8977 97.1001 19.7727 96.6797 19.5227C96.2621 19.2727 95.9311 18.9091 95.6868 18.4318C95.4453 17.9545 95.3246 17.375 95.3246 16.6932C95.3246 16.0227 95.4425 15.4389 95.6783 14.9418C95.9141 14.4418 96.2422 14.0554 96.6626 13.7827C97.0831 13.5071 97.5689 13.3693 98.12 13.3693C98.5462 13.3693 98.8842 13.4403 99.1342 13.5824C99.3871 13.7216 99.5803 13.8807 99.7138 14.0597C99.8501 14.2358 99.9553 14.3807 100.029 14.4943H100.131V13.4545H101.103V20.1875C101.103 20.75 100.975 21.2074 100.719 21.5597C100.467 21.9148 100.126 22.1747 99.6967 22.3395C99.2706 22.5071 98.7962 22.5909 98.2734 22.5909ZM98.2393 18.9943C98.6428 18.9943 98.9837 18.902 99.2621 18.7173C99.5405 18.5327 99.7521 18.267 99.897 17.9205C100.042 17.5739 100.114 17.1591 100.114 16.6761C100.114 16.2045 100.043 15.7884 99.9013 15.4276C99.7592 15.0668 99.549 14.7841 99.2706 14.5795C98.9922 14.375 98.6484 14.2727 98.2393 14.2727C97.8132 14.2727 97.4581 14.3807 97.174 14.5966C96.8928 14.8125 96.6811 15.1023 96.5391 15.4659C96.3999 15.8295 96.3303 16.233 96.3303 16.6761C96.3303 17.1307 96.4013 17.5327 96.5433 17.8821C96.6882 18.2287 96.9013 18.5014 97.1825 18.7003C97.4666 18.8963 97.8189 18.9943 98.2393 18.9943Z" fill="white"/>
</svg>
