<svg width="64" height="64" viewBox="0 0 64 64" fill="none" xmlns="http://www.w3.org/2000/svg">
<g clip-path="url(#clip0_651_16)">
<path d="M11.3333 0H52.6667C58.9333 0 64 5.19658 64 11.6239V52.3761C64 58.8034 58.9333 64 52.6667 64H11.3333C5.06667 64 0 58.8034 0 52.3761V11.6239C0 5.19658 5.06667 0 11.3333 0Z" fill="#001E36"/>
<path d="M14.3999 44.882V16.7385C14.3999 16.547 14.4799 16.4376 14.6666 16.4376C15.1199 16.4376 15.5466 16.4376 16.1599 16.4103C16.7999 16.3829 17.4666 16.3829 18.1866 16.3555C18.9066 16.3282 19.6799 16.3282 20.5066 16.3008C21.3332 16.2735 22.1332 16.2735 22.9332 16.2735C25.1199 16.2735 26.9332 16.547 28.4266 17.1214C29.7599 17.5863 30.9866 18.3521 31.9999 19.3641C32.8532 20.2393 33.5199 21.306 33.9466 22.482C34.3466 23.6308 34.5599 24.8068 34.5599 26.0376C34.5599 28.3897 34.0266 30.3316 32.9599 31.8632C31.8932 33.3949 30.3999 34.5436 28.6666 35.2C26.8532 35.8838 24.8532 36.1299 22.6666 36.1299C22.0266 36.1299 21.5999 36.1299 21.3332 36.1026C21.0666 36.0752 20.6932 36.0752 20.1866 36.0752V44.8547C20.2132 45.0462 20.0799 45.2103 19.8932 45.2376C19.8666 45.2376 19.8399 45.2376 19.7866 45.2376H14.7199C14.5066 45.2376 14.3999 45.1282 14.3999 44.882ZM20.2132 21.7162V30.906C20.5866 30.9333 20.9332 30.9607 21.2532 30.9607H22.6666C23.7066 30.9607 24.7466 30.7966 25.7332 30.4684C26.5866 30.2222 27.3332 29.7026 27.9199 29.0188C28.4799 28.335 28.7466 27.4051 28.7466 26.2017C28.7732 25.3538 28.5599 24.506 28.1332 23.7675C27.6799 23.0564 27.0399 22.5094 26.2666 22.2085C25.2799 21.7983 24.2132 21.6342 23.1199 21.6615C22.4266 21.6615 21.8132 21.6615 21.3066 21.6889C20.7732 21.6615 20.3999 21.6889 20.2132 21.7162Z" fill="#31A8FF"/>
<path d="M51.1997 29.2376C50.3997 28.8 49.5464 28.4991 48.6397 28.3077C47.6531 28.0889 46.6664 27.9521 45.6531 27.9521C45.1197 27.9248 44.5597 28.0068 44.0531 28.1436C43.7064 28.2256 43.4131 28.4171 43.2264 28.6906C43.0931 28.9094 43.0131 29.1829 43.0131 29.429C43.0131 29.6752 43.1197 29.9214 43.2797 30.1402C43.5197 30.441 43.8397 30.6872 44.1864 30.8786C44.7997 31.2068 45.4397 31.5077 46.0797 31.7812C47.5197 32.2735 48.9064 32.9572 50.1864 33.7778C51.0664 34.3521 51.7864 35.1179 52.2931 36.0478C52.7197 36.9231 52.9331 37.8803 52.9064 38.8649C52.9331 40.1504 52.5597 41.4359 51.8664 42.5025C51.1197 43.5966 50.0797 44.4444 48.8797 44.9367C47.5731 45.5111 45.9731 45.812 44.0531 45.812C42.8264 45.812 41.6264 45.7025 40.4264 45.4564C39.4931 45.2923 38.5597 44.9914 37.7064 44.5812C37.5197 44.4718 37.3864 44.2803 37.4131 44.0615V39.3025C37.4131 39.2205 37.4397 39.1111 37.5197 39.0564C37.5997 39.0017 37.6797 39.029 37.7597 39.0837C38.7997 39.7128 39.8931 40.1504 41.0664 40.4239C42.0797 40.6974 43.1464 40.8342 44.2131 40.8342C45.2264 40.8342 45.9464 40.6974 46.4264 40.4513C46.8531 40.2598 47.1464 39.7949 47.1464 39.3025C47.1464 38.9196 46.9331 38.5641 46.5064 38.2085C46.0797 37.853 45.1997 37.4427 43.8931 36.9231C42.5331 36.4308 41.2797 35.7743 40.1064 34.9538C39.2797 34.3521 38.5864 33.559 38.0797 32.629C37.6531 31.7538 37.4397 30.7966 37.4664 29.8393C37.4664 28.6632 37.7864 27.5419 38.3731 26.5299C39.0397 25.4359 40.0264 24.5607 41.1731 24.0137C42.4264 23.3573 43.9997 23.0564 45.8931 23.0564C46.9864 23.0564 48.1064 23.1384 49.1997 23.3025C49.9997 23.412 50.7731 23.6308 51.4931 23.9316C51.5997 23.959 51.7064 24.0684 51.7597 24.1778C51.7864 24.2872 51.8131 24.3966 51.8131 24.506V28.9641C51.8131 29.0735 51.7597 29.1829 51.6797 29.2376C51.4397 29.2923 51.3064 29.2923 51.1997 29.2376Z" fill="#31A8FF"/>
</g>
<defs>
<clipPath id="clip0_651_16">
<rect width="64" height="64" fill="white"/>
</clipPath>
</defs>
</svg>
