<svg width="64" height="64" viewBox="0 0 64 64" fill="none" xmlns="http://www.w3.org/2000/svg">
<rect width="64" height="64" rx="16" fill="white"/>
<path d="M49.3623 28.3718C50.282 25.648 49.9653 22.6642 48.4946 20.1866C46.2827 16.3865 41.8362 14.4315 37.4935 15.3515C35.5616 13.204 32.786 11.9827 29.8761 12.0002C25.4372 11.9902 21.4986 14.8102 20.133 18.9778C17.2814 19.5541 14.82 21.3154 13.3796 23.8117C11.1513 27.6018 11.6593 32.3794 14.6363 35.6294C13.7166 38.3532 14.0333 41.3371 15.504 43.8146C17.7159 47.6147 22.1625 49.5697 26.5051 48.6497C28.4357 50.7973 31.2126 52.0185 34.1225 51.9998C38.564 52.011 42.5038 49.1885 43.8694 45.0171C46.721 44.4409 49.1824 42.6796 50.6228 40.1833C52.8486 36.3932 52.3394 31.6194 49.3636 28.3693L49.3623 28.3718ZM34.125 49.386C32.3477 49.3885 30.6261 48.7747 29.2617 47.6509C29.3238 47.6185 29.4315 47.5597 29.5011 47.5172L37.5733 42.9171C37.9863 42.6858 38.2397 42.2521 38.2371 41.7833V30.5543L41.6487 32.4981C41.6854 32.5156 41.7095 32.5506 41.7145 32.5906V41.8896C41.7095 46.0247 38.3157 49.3772 34.125 49.386ZM17.8033 42.5071C16.9128 40.9896 16.5922 39.2108 16.8976 37.4845C16.9571 37.5195 17.0622 37.5832 17.137 37.6257L25.2092 42.2258C25.6183 42.4621 26.1251 42.4621 26.5355 42.2258L36.3901 36.6107V40.4983C36.3926 40.5383 36.3736 40.577 36.342 40.602L28.1824 45.2509C24.5479 47.3159 19.9062 46.0884 17.8046 42.5071H17.8033ZM15.6789 25.1205C16.5656 23.6004 17.9655 22.4379 19.6326 21.8341C19.6326 21.9029 19.6288 22.0241 19.6288 22.1092V31.3106C19.6263 31.7781 19.8796 32.2119 20.2914 32.4431L30.1459 38.057L26.7344 40.0008C26.7002 40.0233 26.6571 40.027 26.6191 40.0108L18.4583 35.3582C14.8314 33.2856 13.5874 28.7068 15.6776 25.1217L15.6789 25.1205ZM43.7085 31.5569L33.8539 25.9417L37.2655 23.9992C37.2997 23.9767 37.3428 23.9729 37.3808 23.9892L45.5416 28.638C49.1748 30.7093 50.4201 35.2957 48.321 38.8808C47.433 40.3983 46.0344 41.5608 44.3685 42.1658V32.6894C44.3723 32.2219 44.1202 31.7894 43.7098 31.5569H43.7085ZM47.1036 26.5142C47.0441 26.478 46.9389 26.4155 46.8642 26.373L38.792 21.7729C38.3828 21.5366 37.8761 21.5366 37.4656 21.7729L27.611 27.388V23.5004C27.6085 23.4604 27.6275 23.4217 27.6592 23.3967L35.8188 18.7516C39.4533 16.6828 44.1 17.9141 46.1953 21.5016C47.0808 23.0167 47.4013 24.7905 47.1011 26.5142H47.1036ZM25.7564 33.4431L22.3436 31.4994C22.3069 31.4819 22.2828 31.4468 22.2777 31.4068V22.1079C22.2803 17.9678 25.6842 14.6127 29.8799 14.6152C31.6547 14.6152 33.3725 15.2303 34.7369 16.3503C34.6748 16.3828 34.5684 16.4415 34.4975 16.484L26.4253 21.0841C26.0123 21.3154 25.759 21.7479 25.7615 22.2167L25.7564 33.4406V33.4431ZM27.6098 29.5006L31.9993 26.9993L36.3888 29.4993V34.5007L31.9993 37.0007L27.6098 34.5007V29.5006Z" fill="#171717"/>
</svg>
