<svg width="320" height="223" viewBox="0 0 320 223" fill="none" xmlns="http://www.w3.org/2000/svg">
<path d="M12.668 20.1602V22H4.13672V20.1602H12.668ZM4.58203 4.9375V22H2.32031V4.9375H4.58203ZM17.2852 9.32031V22H15.1055V9.32031H17.2852ZM14.9414 5.95703C14.9414 5.60547 15.0469 5.30859 15.2578 5.06641C15.4766 4.82422 15.7969 4.70312 16.2188 4.70312C16.6328 4.70312 16.9492 4.82422 17.168 5.06641C17.3945 5.30859 17.5078 5.60547 17.5078 5.95703C17.5078 6.29297 17.3945 6.58203 17.168 6.82422C16.9492 7.05859 16.6328 7.17578 16.2188 7.17578C15.7969 7.17578 15.4766 7.05859 15.2578 6.82422C15.0469 6.58203 14.9414 6.29297 14.9414 5.95703ZM28.9805 9.32031H30.9492V21.7305C30.9492 22.8477 30.7227 23.8008 30.2695 24.5898C29.8164 25.3789 29.1836 25.9766 28.3711 26.3828C27.5664 26.7969 26.6367 27.0039 25.582 27.0039C25.1445 27.0039 24.6289 26.9336 24.0352 26.793C23.4492 26.6602 22.8711 26.4297 22.3008 26.1016C21.7383 25.7812 21.2656 25.3477 20.8828 24.8008L22.0195 23.5117C22.5508 24.1523 23.1055 24.5977 23.6836 24.8477C24.2695 25.0977 24.8477 25.2227 25.418 25.2227C26.1055 25.2227 26.6992 25.0938 27.1992 24.8359C27.6992 24.5781 28.0859 24.1953 28.3594 23.6875C28.6406 23.1875 28.7812 22.5703 28.7812 21.8359V12.1094L28.9805 9.32031ZM20.25 15.8008V15.5547C20.25 14.5859 20.3633 13.707 20.5898 12.918C20.8242 12.1211 21.1562 11.4375 21.5859 10.8672C22.0234 10.2969 22.5508 9.85938 23.168 9.55469C23.7852 9.24219 24.4805 9.08594 25.2539 9.08594C26.0508 9.08594 26.7461 9.22656 27.3398 9.50781C27.9414 9.78125 28.4492 10.1836 28.8633 10.7148C29.2852 11.2383 29.6172 11.8711 29.8594 12.6133C30.1016 13.3555 30.2695 14.1953 30.3633 15.1328V16.2109C30.2773 17.1406 30.1094 17.9766 29.8594 18.7188C29.6172 19.4609 29.2852 20.0938 28.8633 20.6172C28.4492 21.1406 27.9414 21.543 27.3398 21.8242C26.7383 22.0977 26.0352 22.2344 25.2305 22.2344C24.4727 22.2344 23.7852 22.0742 23.168 21.7539C22.5586 21.4336 22.0352 20.9844 21.5977 20.4062C21.1602 19.8281 20.8242 19.1484 20.5898 18.3672C20.3633 17.5781 20.25 16.7227 20.25 15.8008ZM22.418 15.5547V15.8008C22.418 16.4336 22.4805 17.0273 22.6055 17.582C22.7383 18.1367 22.9375 18.625 23.2031 19.0469C23.4766 19.4688 23.8242 19.8008 24.2461 20.043C24.668 20.2773 25.1719 20.3945 25.7578 20.3945C26.4766 20.3945 27.0703 20.2422 27.5391 19.9375C28.0078 19.6328 28.3789 19.2305 28.6523 18.7305C28.9336 18.2305 29.1523 17.6875 29.3086 17.1016V14.2773C29.2227 13.8477 29.0898 13.4336 28.9102 13.0352C28.7383 12.6289 28.5117 12.2695 28.2305 11.957C27.957 11.6367 27.6172 11.3828 27.2109 11.1953C26.8047 11.0078 26.3281 10.9141 25.7812 10.9141C25.1875 10.9141 24.6758 11.0391 24.2461 11.2891C23.8242 11.5312 23.4766 11.8672 23.2031 12.2969C22.9375 12.7188 22.7383 13.2109 22.6055 13.7734C22.4805 14.3281 22.418 14.9219 22.418 15.5547ZM36.4102 4V22H34.2422V4H36.4102ZM35.8945 15.1797L34.9922 15.1445C35 14.2773 35.1289 13.4766 35.3789 12.7422C35.6289 12 35.9805 11.3555 36.4336 10.8086C36.8867 10.2617 37.4258 9.83984 38.0508 9.54297C38.6836 9.23828 39.3828 9.08594 40.1484 9.08594C40.7734 9.08594 41.3359 9.17188 41.8359 9.34375C42.3359 9.50781 42.7617 9.77344 43.1133 10.1406C43.4727 10.5078 43.7461 10.9844 43.9336 11.5703C44.1211 12.1484 44.2148 12.8555 44.2148 13.6914V22H42.0352V13.668C42.0352 13.0039 41.9375 12.4727 41.7422 12.0742C41.5469 11.668 41.2617 11.375 40.8867 11.1953C40.5117 11.0078 40.0508 10.9141 39.5039 10.9141C38.9648 10.9141 38.4727 11.0273 38.0273 11.2539C37.5898 11.4805 37.2109 11.793 36.8906 12.1914C36.5781 12.5898 36.332 13.0469 36.1523 13.5625C35.9805 14.0703 35.8945 14.6094 35.8945 15.1797ZM52.7695 9.32031V10.9844H45.9141V9.32031H52.7695ZM48.2344 6.23828H50.4023V18.8594C50.4023 19.2891 50.4688 19.6133 50.6016 19.832C50.7344 20.0508 50.9062 20.1953 51.1172 20.2656C51.3281 20.3359 51.5547 20.3711 51.7969 20.3711C51.9766 20.3711 52.1641 20.3555 52.3594 20.3242C52.5625 20.2852 52.7148 20.2539 52.8164 20.2305L52.8281 22C52.6562 22.0547 52.4297 22.1055 52.1484 22.1523C51.875 22.207 51.543 22.2344 51.1523 22.2344C50.6211 22.2344 50.1328 22.1289 49.6875 21.918C49.2422 21.707 48.8867 21.3555 48.6211 20.8633C48.3633 20.3633 48.2344 19.6914 48.2344 18.8477V6.23828Z" fill="white"/>
<path d="M175.047 22H171.484L171.508 20.1602H175.047C176.266 20.1602 177.281 19.9062 178.094 19.3984C178.906 18.8828 179.516 18.1641 179.922 17.2422C180.336 16.3125 180.543 15.2266 180.543 13.9844V12.9414C180.543 11.9648 180.426 11.0977 180.191 10.3398C179.957 9.57422 179.613 8.92969 179.16 8.40625C178.707 7.875 178.152 7.47266 177.496 7.19922C176.848 6.92578 176.102 6.78906 175.258 6.78906H171.414V4.9375H175.258C176.375 4.9375 177.395 5.125 178.316 5.5C179.238 5.86719 180.031 6.40234 180.695 7.10547C181.367 7.80078 181.883 8.64453 182.242 9.63672C182.602 10.6211 182.781 11.7305 182.781 12.9648V13.9844C182.781 15.2188 182.602 16.332 182.242 17.3242C181.883 18.3086 181.363 19.1484 180.684 19.8438C180.012 20.5391 179.199 21.0742 178.246 21.4492C177.301 21.8164 176.234 22 175.047 22ZM172.691 4.9375V22H170.43V4.9375H172.691ZM193.328 19.832V13.3047C193.328 12.8047 193.227 12.3711 193.023 12.0039C192.828 11.6289 192.531 11.3398 192.133 11.1367C191.734 10.9336 191.242 10.832 190.656 10.832C190.109 10.832 189.629 10.9258 189.215 11.1133C188.809 11.3008 188.488 11.5469 188.254 11.8516C188.027 12.1562 187.914 12.4844 187.914 12.8359H185.746C185.746 12.3828 185.863 11.9336 186.098 11.4883C186.332 11.043 186.668 10.6406 187.105 10.2812C187.551 9.91406 188.082 9.625 188.699 9.41406C189.324 9.19531 190.02 9.08594 190.785 9.08594C191.707 9.08594 192.52 9.24219 193.223 9.55469C193.934 9.86719 194.488 10.3398 194.887 10.9727C195.293 11.5977 195.496 12.3828 195.496 13.3281V19.2344C195.496 19.6562 195.531 20.1055 195.602 20.582C195.68 21.0586 195.793 21.4688 195.941 21.8125V22H193.68C193.57 21.75 193.484 21.418 193.422 21.0039C193.359 20.582 193.328 20.1914 193.328 19.832ZM193.703 14.3125L193.727 15.8359H191.535C190.918 15.8359 190.367 15.8867 189.883 15.9883C189.398 16.082 188.992 16.2266 188.664 16.4219C188.336 16.6172 188.086 16.8633 187.914 17.1602C187.742 17.4492 187.656 17.7891 187.656 18.1797C187.656 18.5781 187.746 18.9414 187.926 19.2695C188.105 19.5977 188.375 19.8594 188.734 20.0547C189.102 20.2422 189.551 20.3359 190.082 20.3359C190.746 20.3359 191.332 20.1953 191.84 19.9141C192.348 19.6328 192.75 19.2891 193.047 18.8828C193.352 18.4766 193.516 18.082 193.539 17.6992L194.465 18.7422C194.41 19.0703 194.262 19.4336 194.02 19.832C193.777 20.2305 193.453 20.6133 193.047 20.9805C192.648 21.3398 192.172 21.6406 191.617 21.8828C191.07 22.1172 190.453 22.2344 189.766 22.2344C188.906 22.2344 188.152 22.0664 187.504 21.7305C186.863 21.3945 186.363 20.9453 186.004 20.3828C185.652 19.8125 185.477 19.1758 185.477 18.4727C185.477 17.793 185.609 17.1953 185.875 16.6797C186.141 16.1562 186.523 15.7227 187.023 15.3789C187.523 15.0273 188.125 14.7617 188.828 14.582C189.531 14.4023 190.316 14.3125 191.184 14.3125H193.703ZM201.074 11.3125V22H198.906V9.32031H201.016L201.074 11.3125ZM205.035 9.25L205.023 11.2656C204.844 11.2266 204.672 11.2031 204.508 11.1953C204.352 11.1797 204.172 11.1719 203.969 11.1719C203.469 11.1719 203.027 11.25 202.645 11.4062C202.262 11.5625 201.938 11.7812 201.672 12.0625C201.406 12.3438 201.195 12.6797 201.039 13.0703C200.891 13.4531 200.793 13.875 200.746 14.3359L200.137 14.6875C200.137 13.9219 200.211 13.2031 200.359 12.5312C200.516 11.8594 200.754 11.2656 201.074 10.75C201.395 10.2266 201.801 9.82031 202.293 9.53125C202.793 9.23438 203.387 9.08594 204.074 9.08594C204.23 9.08594 204.41 9.10547 204.613 9.14453C204.816 9.17578 204.957 9.21094 205.035 9.25ZM209.219 4V22H207.039V4H209.219ZM216.965 9.32031L211.434 15.2383L208.34 18.4492L208.164 16.1406L210.379 13.4922L214.316 9.32031H216.965ZM214.984 22L210.461 15.9531L211.586 14.0195L217.539 22H214.984Z" fill="white"/>
<rect x="0.5" y="36.5" width="151" height="71" rx="15.5" fill="white"/>
<rect x="0.5" y="36.5" width="151" height="71" rx="15.5" stroke="white"/>
<rect x="16" y="52" width="40" height="40" rx="8" fill="#A1A1A1"/>
<path d="M82.1562 71.8359V76C82.0156 76.2083 81.7917 76.4427 81.4844 76.7031C81.1771 76.9583 80.7526 77.1823 80.2109 77.375C79.6745 77.5625 78.9818 77.6562 78.1328 77.6562C77.4401 77.6562 76.8021 77.5365 76.2188 77.2969C75.6406 77.0521 75.138 76.6979 74.7109 76.2344C74.2891 75.7656 73.9609 75.1979 73.7266 74.5312C73.4974 73.8594 73.3828 73.099 73.3828 72.25V71.3672C73.3828 70.5182 73.4818 69.7604 73.6797 69.0938C73.8828 68.4271 74.1797 67.862 74.5703 67.3984C74.9609 66.9297 75.4401 66.5755 76.0078 66.3359C76.5755 66.0911 77.2266 65.9688 77.9609 65.9688C78.8307 65.9688 79.5573 66.1198 80.1406 66.4219C80.7292 66.7188 81.1875 67.1302 81.5156 67.6562C81.849 68.1823 82.0625 68.7812 82.1562 69.4531H80.6484C80.5807 69.0417 80.4453 68.6667 80.2422 68.3281C80.0443 67.9896 79.7604 67.7188 79.3906 67.5156C79.0208 67.3073 78.5443 67.2031 77.9609 67.2031C77.4349 67.2031 76.9792 67.2995 76.5938 67.4922C76.2083 67.6849 75.8906 67.9609 75.6406 68.3203C75.3906 68.6797 75.2031 69.1146 75.0781 69.625C74.9583 70.1354 74.8984 70.7109 74.8984 71.3516V72.25C74.8984 72.9062 74.974 73.4922 75.125 74.0078C75.2812 74.5234 75.5026 74.9635 75.7891 75.3281C76.0755 75.6875 76.4167 75.9609 76.8125 76.1484C77.2135 76.3359 77.6562 76.4297 78.1406 76.4297C78.6771 76.4297 79.112 76.3854 79.4453 76.2969C79.7786 76.2031 80.0391 76.0938 80.2266 75.9688C80.4141 75.8385 80.5573 75.7161 80.6562 75.6016V73.0547H78.0234V71.8359H82.1562ZM85.8828 70.375V77.5H84.4375V69.0469H85.8438L85.8828 70.375ZM88.5234 69L88.5156 70.3438C88.3958 70.3177 88.2812 70.3021 88.1719 70.2969C88.0677 70.2865 87.9479 70.2812 87.8125 70.2812C87.4792 70.2812 87.1849 70.3333 86.9297 70.4375C86.6745 70.5417 86.4583 70.6875 86.2812 70.875C86.1042 71.0625 85.9635 71.2865 85.8594 71.5469C85.7604 71.8021 85.6953 72.0833 85.6641 72.3906L85.2578 72.625C85.2578 72.1146 85.3073 71.6354 85.4062 71.1875C85.5104 70.7396 85.6693 70.3438 85.8828 70C86.0964 69.651 86.3672 69.3802 86.6953 69.1875C87.0286 68.9896 87.4245 68.8906 87.8828 68.8906C87.987 68.8906 88.1068 68.9036 88.2422 68.9297C88.3776 68.9505 88.4714 68.974 88.5234 69ZM94.5312 76.0547V71.7031C94.5312 71.3698 94.4635 71.0807 94.3281 70.8359C94.1979 70.5859 94 70.3932 93.7344 70.2578C93.4688 70.1224 93.1406 70.0547 92.75 70.0547C92.3854 70.0547 92.0651 70.1172 91.7891 70.2422C91.5182 70.3672 91.3047 70.5312 91.1484 70.7344C90.9974 70.9375 90.9219 71.1562 90.9219 71.3906H89.4766C89.4766 71.0885 89.5547 70.7891 89.7109 70.4922C89.8672 70.1953 90.0911 69.9271 90.3828 69.6875C90.6797 69.4427 91.0339 69.25 91.4453 69.1094C91.862 68.9635 92.3255 68.8906 92.8359 68.8906C93.4505 68.8906 93.9922 68.9948 94.4609 69.2031C94.9349 69.4115 95.3047 69.7266 95.5703 70.1484C95.8411 70.5651 95.9766 71.0885 95.9766 71.7188V75.6562C95.9766 75.9375 96 76.237 96.0469 76.5547C96.099 76.8724 96.1745 77.1458 96.2734 77.375V77.5H94.7656C94.6927 77.3333 94.6354 77.112 94.5938 76.8359C94.5521 76.5547 94.5312 76.2943 94.5312 76.0547ZM94.7812 72.375L94.7969 73.3906H93.3359C92.9245 73.3906 92.5573 73.4245 92.2344 73.4922C91.9115 73.5547 91.6406 73.651 91.4219 73.7812C91.2031 73.9115 91.0365 74.0755 90.9219 74.2734C90.8073 74.4661 90.75 74.6927 90.75 74.9531C90.75 75.2188 90.8099 75.4609 90.9297 75.6797C91.0495 75.8984 91.2292 76.0729 91.4688 76.2031C91.7135 76.3281 92.013 76.3906 92.3672 76.3906C92.8099 76.3906 93.2005 76.2969 93.5391 76.1094C93.8776 75.9219 94.1458 75.6927 94.3438 75.4219C94.5469 75.151 94.6562 74.888 94.6719 74.6328L95.2891 75.3281C95.2526 75.5469 95.1536 75.7891 94.9922 76.0547C94.8307 76.3203 94.6146 76.5755 94.3438 76.8203C94.0781 77.0599 93.7604 77.2604 93.3906 77.4219C93.026 77.5781 92.6146 77.6562 92.1562 77.6562C91.5833 77.6562 91.0807 77.5443 90.6484 77.3203C90.2214 77.0964 89.888 76.7969 89.6484 76.4219C89.4141 76.0417 89.2969 75.6172 89.2969 75.1484C89.2969 74.6953 89.3854 74.2969 89.5625 73.9531C89.7396 73.6042 89.9948 73.3151 90.3281 73.0859C90.6615 72.8516 91.0625 72.6745 91.5312 72.5547C92 72.4349 92.5234 72.375 93.1016 72.375H94.7812ZM100.5 76.625L102.852 69.0469H104.398L101.008 78.8047C100.93 79.013 100.826 79.237 100.695 79.4766C100.57 79.7214 100.409 79.9531 100.211 80.1719C100.013 80.3906 99.7734 80.5677 99.4922 80.7031C99.2161 80.8438 98.8854 80.9141 98.5 80.9141C98.3854 80.9141 98.2396 80.8984 98.0625 80.8672C97.8854 80.8359 97.7604 80.8099 97.6875 80.7891L97.6797 79.6172C97.7214 79.6224 97.7865 79.6276 97.875 79.6328C97.9688 79.6432 98.0339 79.6484 98.0703 79.6484C98.3984 79.6484 98.6771 79.6042 98.9062 79.5156C99.1354 79.4323 99.3281 79.2891 99.4844 79.0859C99.6458 78.888 99.7839 78.6146 99.8984 78.2656L100.5 76.625ZM98.7734 69.0469L100.969 75.6094L101.344 77.1328L100.305 77.6641L97.1953 69.0469H98.7734ZM117.203 73.6719V74.8594H108.984V74.0078L114.078 66.125H115.258L113.992 68.4062L110.625 73.6719H117.203ZM115.617 66.125V77.5H114.172V66.125H115.617ZM125.656 70.9062V72.6406C125.656 73.5729 125.573 74.3594 125.406 75C125.24 75.6406 125 76.1562 124.688 76.5469C124.375 76.9375 123.997 77.2214 123.555 77.3984C123.117 77.5703 122.622 77.6562 122.07 77.6562C121.633 77.6562 121.229 77.6016 120.859 77.4922C120.49 77.3828 120.156 77.2083 119.859 76.9688C119.568 76.724 119.318 76.4062 119.109 76.0156C118.901 75.625 118.742 75.151 118.633 74.5938C118.523 74.0365 118.469 73.3854 118.469 72.6406V70.9062C118.469 69.974 118.552 69.1927 118.719 68.5625C118.891 67.9323 119.133 67.4271 119.445 67.0469C119.758 66.6615 120.133 66.3854 120.57 66.2188C121.013 66.0521 121.508 65.9688 122.055 65.9688C122.497 65.9688 122.904 66.0234 123.273 66.1328C123.648 66.237 123.982 66.4062 124.273 66.6406C124.565 66.8698 124.812 67.1771 125.016 67.5625C125.224 67.9427 125.383 68.4089 125.492 68.9609C125.602 69.513 125.656 70.1615 125.656 70.9062ZM124.203 72.875V70.6641C124.203 70.1536 124.172 69.7057 124.109 69.3203C124.052 68.9297 123.966 68.5964 123.852 68.3203C123.737 68.0443 123.591 67.8203 123.414 67.6484C123.242 67.4766 123.042 67.3516 122.812 67.2734C122.589 67.1901 122.336 67.1484 122.055 67.1484C121.711 67.1484 121.406 67.2135 121.141 67.3438C120.875 67.4688 120.651 67.6693 120.469 67.9453C120.292 68.2214 120.156 68.5833 120.062 69.0312C119.969 69.4792 119.922 70.0234 119.922 70.6641V72.875C119.922 73.3854 119.951 73.8359 120.008 74.2266C120.07 74.6172 120.161 74.9557 120.281 75.2422C120.401 75.5234 120.547 75.7552 120.719 75.9375C120.891 76.1198 121.089 76.2552 121.312 76.3438C121.542 76.4271 121.794 76.4688 122.07 76.4688C122.424 76.4688 122.734 76.401 123 76.2656C123.266 76.1302 123.487 75.9193 123.664 75.6328C123.846 75.3411 123.982 74.9688 124.07 74.5156C124.159 74.0573 124.203 73.5104 124.203 72.875ZM134.656 70.9062V72.6406C134.656 73.5729 134.573 74.3594 134.406 75C134.24 75.6406 134 76.1562 133.688 76.5469C133.375 76.9375 132.997 77.2214 132.555 77.3984C132.117 77.5703 131.622 77.6562 131.07 77.6562C130.633 77.6562 130.229 77.6016 129.859 77.4922C129.49 77.3828 129.156 77.2083 128.859 76.9688C128.568 76.724 128.318 76.4062 128.109 76.0156C127.901 75.625 127.742 75.151 127.633 74.5938C127.523 74.0365 127.469 73.3854 127.469 72.6406V70.9062C127.469 69.974 127.552 69.1927 127.719 68.5625C127.891 67.9323 128.133 67.4271 128.445 67.0469C128.758 66.6615 129.133 66.3854 129.57 66.2188C130.013 66.0521 130.508 65.9688 131.055 65.9688C131.497 65.9688 131.904 66.0234 132.273 66.1328C132.648 66.237 132.982 66.4062 133.273 66.6406C133.565 66.8698 133.812 67.1771 134.016 67.5625C134.224 67.9427 134.383 68.4089 134.492 68.9609C134.602 69.513 134.656 70.1615 134.656 70.9062ZM133.203 72.875V70.6641C133.203 70.1536 133.172 69.7057 133.109 69.3203C133.052 68.9297 132.966 68.5964 132.852 68.3203C132.737 68.0443 132.591 67.8203 132.414 67.6484C132.242 67.4766 132.042 67.3516 131.812 67.2734C131.589 67.1901 131.336 67.1484 131.055 67.1484C130.711 67.1484 130.406 67.2135 130.141 67.3438C129.875 67.4688 129.651 67.6693 129.469 67.9453C129.292 68.2214 129.156 68.5833 129.062 69.0312C128.969 69.4792 128.922 70.0234 128.922 70.6641V72.875C128.922 73.3854 128.951 73.8359 129.008 74.2266C129.07 74.6172 129.161 74.9557 129.281 75.2422C129.401 75.5234 129.547 75.7552 129.719 75.9375C129.891 76.1198 130.089 76.2552 130.312 76.3438C130.542 76.4271 130.794 76.4688 131.07 76.4688C131.424 76.4688 131.734 76.401 132 76.2656C132.266 76.1302 132.487 75.9193 132.664 75.6328C132.846 75.3411 132.982 74.9688 133.07 74.5156C133.159 74.0573 133.203 73.5104 133.203 72.875Z" fill="#171717"/>
<rect x="168.5" y="36.5" width="151" height="71" rx="15.5" fill="#171717"/>
<rect x="168.5" y="36.5" width="151" height="71" rx="15.5" stroke="white"/>
<rect x="184" y="52" width="40" height="40" rx="8" fill="#737373"/>
<path d="M250.156 71.8359V76C250.016 76.2083 249.792 76.4427 249.484 76.7031C249.177 76.9583 248.753 77.1823 248.211 77.375C247.674 77.5625 246.982 77.6562 246.133 77.6562C245.44 77.6562 244.802 77.5365 244.219 77.2969C243.641 77.0521 243.138 76.6979 242.711 76.2344C242.289 75.7656 241.961 75.1979 241.727 74.5312C241.497 73.8594 241.383 73.099 241.383 72.25V71.3672C241.383 70.5182 241.482 69.7604 241.68 69.0938C241.883 68.4271 242.18 67.862 242.57 67.3984C242.961 66.9297 243.44 66.5755 244.008 66.3359C244.576 66.0911 245.227 65.9688 245.961 65.9688C246.831 65.9688 247.557 66.1198 248.141 66.4219C248.729 66.7188 249.188 67.1302 249.516 67.6562C249.849 68.1823 250.062 68.7812 250.156 69.4531H248.648C248.581 69.0417 248.445 68.6667 248.242 68.3281C248.044 67.9896 247.76 67.7188 247.391 67.5156C247.021 67.3073 246.544 67.2031 245.961 67.2031C245.435 67.2031 244.979 67.2995 244.594 67.4922C244.208 67.6849 243.891 67.9609 243.641 68.3203C243.391 68.6797 243.203 69.1146 243.078 69.625C242.958 70.1354 242.898 70.7109 242.898 71.3516V72.25C242.898 72.9062 242.974 73.4922 243.125 74.0078C243.281 74.5234 243.503 74.9635 243.789 75.3281C244.076 75.6875 244.417 75.9609 244.812 76.1484C245.214 76.3359 245.656 76.4297 246.141 76.4297C246.677 76.4297 247.112 76.3854 247.445 76.2969C247.779 76.2031 248.039 76.0938 248.227 75.9688C248.414 75.8385 248.557 75.7161 248.656 75.6016V73.0547H246.023V71.8359H250.156ZM253.883 70.375V77.5H252.438V69.0469H253.844L253.883 70.375ZM256.523 69L256.516 70.3438C256.396 70.3177 256.281 70.3021 256.172 70.2969C256.068 70.2865 255.948 70.2812 255.812 70.2812C255.479 70.2812 255.185 70.3333 254.93 70.4375C254.674 70.5417 254.458 70.6875 254.281 70.875C254.104 71.0625 253.964 71.2865 253.859 71.5469C253.76 71.8021 253.695 72.0833 253.664 72.3906L253.258 72.625C253.258 72.1146 253.307 71.6354 253.406 71.1875C253.51 70.7396 253.669 70.3438 253.883 70C254.096 69.651 254.367 69.3802 254.695 69.1875C255.029 68.9896 255.424 68.8906 255.883 68.8906C255.987 68.8906 256.107 68.9036 256.242 68.9297C256.378 68.9505 256.471 68.974 256.523 69ZM262.531 76.0547V71.7031C262.531 71.3698 262.464 71.0807 262.328 70.8359C262.198 70.5859 262 70.3932 261.734 70.2578C261.469 70.1224 261.141 70.0547 260.75 70.0547C260.385 70.0547 260.065 70.1172 259.789 70.2422C259.518 70.3672 259.305 70.5312 259.148 70.7344C258.997 70.9375 258.922 71.1562 258.922 71.3906H257.477C257.477 71.0885 257.555 70.7891 257.711 70.4922C257.867 70.1953 258.091 69.9271 258.383 69.6875C258.68 69.4427 259.034 69.25 259.445 69.1094C259.862 68.9635 260.326 68.8906 260.836 68.8906C261.451 68.8906 261.992 68.9948 262.461 69.2031C262.935 69.4115 263.305 69.7266 263.57 70.1484C263.841 70.5651 263.977 71.0885 263.977 71.7188V75.6562C263.977 75.9375 264 76.237 264.047 76.5547C264.099 76.8724 264.174 77.1458 264.273 77.375V77.5H262.766C262.693 77.3333 262.635 77.112 262.594 76.8359C262.552 76.5547 262.531 76.2943 262.531 76.0547ZM262.781 72.375L262.797 73.3906H261.336C260.924 73.3906 260.557 73.4245 260.234 73.4922C259.911 73.5547 259.641 73.651 259.422 73.7812C259.203 73.9115 259.036 74.0755 258.922 74.2734C258.807 74.4661 258.75 74.6927 258.75 74.9531C258.75 75.2188 258.81 75.4609 258.93 75.6797C259.049 75.8984 259.229 76.0729 259.469 76.2031C259.714 76.3281 260.013 76.3906 260.367 76.3906C260.81 76.3906 261.201 76.2969 261.539 76.1094C261.878 75.9219 262.146 75.6927 262.344 75.4219C262.547 75.151 262.656 74.888 262.672 74.6328L263.289 75.3281C263.253 75.5469 263.154 75.7891 262.992 76.0547C262.831 76.3203 262.615 76.5755 262.344 76.8203C262.078 77.0599 261.76 77.2604 261.391 77.4219C261.026 77.5781 260.615 77.6562 260.156 77.6562C259.583 77.6562 259.081 77.5443 258.648 77.3203C258.221 77.0964 257.888 76.7969 257.648 76.4219C257.414 76.0417 257.297 75.6172 257.297 75.1484C257.297 74.6953 257.385 74.2969 257.562 73.9531C257.74 73.6042 257.995 73.3151 258.328 73.0859C258.661 72.8516 259.062 72.6745 259.531 72.5547C260 72.4349 260.523 72.375 261.102 72.375H262.781ZM268.5 76.625L270.852 69.0469H272.398L269.008 78.8047C268.93 79.013 268.826 79.237 268.695 79.4766C268.57 79.7214 268.409 79.9531 268.211 80.1719C268.013 80.3906 267.773 80.5677 267.492 80.7031C267.216 80.8438 266.885 80.9141 266.5 80.9141C266.385 80.9141 266.24 80.8984 266.062 80.8672C265.885 80.8359 265.76 80.8099 265.688 80.7891L265.68 79.6172C265.721 79.6224 265.786 79.6276 265.875 79.6328C265.969 79.6432 266.034 79.6484 266.07 79.6484C266.398 79.6484 266.677 79.6042 266.906 79.5156C267.135 79.4323 267.328 79.2891 267.484 79.0859C267.646 78.888 267.784 78.6146 267.898 78.2656L268.5 76.625ZM266.773 69.0469L268.969 75.6094L269.344 77.1328L268.305 77.6641L265.195 69.0469H266.773ZM279.344 72.0859L278.188 71.7891L278.758 66.125H284.594V67.4609H279.984L279.641 70.5547C279.849 70.4349 280.112 70.3229 280.43 70.2188C280.753 70.1146 281.122 70.0625 281.539 70.0625C282.065 70.0625 282.536 70.1536 282.953 70.3359C283.37 70.513 283.724 70.7682 284.016 71.1016C284.312 71.4349 284.539 71.8359 284.695 72.3047C284.852 72.7734 284.93 73.2969 284.93 73.875C284.93 74.4219 284.854 74.9245 284.703 75.3828C284.557 75.8411 284.336 76.2422 284.039 76.5859C283.742 76.9245 283.367 77.1875 282.914 77.375C282.466 77.5625 281.938 77.6562 281.328 77.6562C280.87 77.6562 280.435 77.5938 280.023 77.4688C279.617 77.3385 279.253 77.1432 278.93 76.8828C278.612 76.6172 278.352 76.2891 278.148 75.8984C277.951 75.5026 277.826 75.0391 277.773 74.5078H279.148C279.211 74.9349 279.336 75.2943 279.523 75.5859C279.711 75.8776 279.956 76.099 280.258 76.25C280.565 76.3958 280.922 76.4688 281.328 76.4688C281.672 76.4688 281.977 76.4089 282.242 76.2891C282.508 76.1693 282.732 75.9974 282.914 75.7734C283.096 75.5495 283.234 75.2786 283.328 74.9609C283.427 74.6432 283.477 74.2865 283.477 73.8906C283.477 73.5312 283.427 73.1979 283.328 72.8906C283.229 72.5833 283.081 72.3151 282.883 72.0859C282.69 71.8568 282.453 71.6797 282.172 71.5547C281.891 71.4245 281.568 71.3594 281.203 71.3594C280.719 71.3594 280.352 71.4245 280.102 71.5547C279.857 71.6849 279.604 71.862 279.344 72.0859ZM293.656 70.9062V72.6406C293.656 73.5729 293.573 74.3594 293.406 75C293.24 75.6406 293 76.1562 292.688 76.5469C292.375 76.9375 291.997 77.2214 291.555 77.3984C291.117 77.5703 290.622 77.6562 290.07 77.6562C289.633 77.6562 289.229 77.6016 288.859 77.4922C288.49 77.3828 288.156 77.2083 287.859 76.9688C287.568 76.724 287.318 76.4062 287.109 76.0156C286.901 75.625 286.742 75.151 286.633 74.5938C286.523 74.0365 286.469 73.3854 286.469 72.6406V70.9062C286.469 69.974 286.552 69.1927 286.719 68.5625C286.891 67.9323 287.133 67.4271 287.445 67.0469C287.758 66.6615 288.133 66.3854 288.57 66.2188C289.013 66.0521 289.508 65.9688 290.055 65.9688C290.497 65.9688 290.904 66.0234 291.273 66.1328C291.648 66.237 291.982 66.4062 292.273 66.6406C292.565 66.8698 292.812 67.1771 293.016 67.5625C293.224 67.9427 293.383 68.4089 293.492 68.9609C293.602 69.513 293.656 70.1615 293.656 70.9062ZM292.203 72.875V70.6641C292.203 70.1536 292.172 69.7057 292.109 69.3203C292.052 68.9297 291.966 68.5964 291.852 68.3203C291.737 68.0443 291.591 67.8203 291.414 67.6484C291.242 67.4766 291.042 67.3516 290.812 67.2734C290.589 67.1901 290.336 67.1484 290.055 67.1484C289.711 67.1484 289.406 67.2135 289.141 67.3438C288.875 67.4688 288.651 67.6693 288.469 67.9453C288.292 68.2214 288.156 68.5833 288.062 69.0312C287.969 69.4792 287.922 70.0234 287.922 70.6641V72.875C287.922 73.3854 287.951 73.8359 288.008 74.2266C288.07 74.6172 288.161 74.9557 288.281 75.2422C288.401 75.5234 288.547 75.7552 288.719 75.9375C288.891 76.1198 289.089 76.2552 289.312 76.3438C289.542 76.4271 289.794 76.4688 290.07 76.4688C290.424 76.4688 290.734 76.401 291 76.2656C291.266 76.1302 291.487 75.9193 291.664 75.6328C291.846 75.3411 291.982 74.9688 292.07 74.5156C292.159 74.0573 292.203 73.5104 292.203 72.875ZM302.656 70.9062V72.6406C302.656 73.5729 302.573 74.3594 302.406 75C302.24 75.6406 302 76.1562 301.688 76.5469C301.375 76.9375 300.997 77.2214 300.555 77.3984C300.117 77.5703 299.622 77.6562 299.07 77.6562C298.633 77.6562 298.229 77.6016 297.859 77.4922C297.49 77.3828 297.156 77.2083 296.859 76.9688C296.568 76.724 296.318 76.4062 296.109 76.0156C295.901 75.625 295.742 75.151 295.633 74.5938C295.523 74.0365 295.469 73.3854 295.469 72.6406V70.9062C295.469 69.974 295.552 69.1927 295.719 68.5625C295.891 67.9323 296.133 67.4271 296.445 67.0469C296.758 66.6615 297.133 66.3854 297.57 66.2188C298.013 66.0521 298.508 65.9688 299.055 65.9688C299.497 65.9688 299.904 66.0234 300.273 66.1328C300.648 66.237 300.982 66.4062 301.273 66.6406C301.565 66.8698 301.812 67.1771 302.016 67.5625C302.224 67.9427 302.383 68.4089 302.492 68.9609C302.602 69.513 302.656 70.1615 302.656 70.9062ZM301.203 72.875V70.6641C301.203 70.1536 301.172 69.7057 301.109 69.3203C301.052 68.9297 300.966 68.5964 300.852 68.3203C300.737 68.0443 300.591 67.8203 300.414 67.6484C300.242 67.4766 300.042 67.3516 299.812 67.2734C299.589 67.1901 299.336 67.1484 299.055 67.1484C298.711 67.1484 298.406 67.2135 298.141 67.3438C297.875 67.4688 297.651 67.6693 297.469 67.9453C297.292 68.2214 297.156 68.5833 297.062 69.0312C296.969 69.4792 296.922 70.0234 296.922 70.6641V72.875C296.922 73.3854 296.951 73.8359 297.008 74.2266C297.07 74.6172 297.161 74.9557 297.281 75.2422C297.401 75.5234 297.547 75.7552 297.719 75.9375C297.891 76.1198 298.089 76.2552 298.312 76.3438C298.542 76.4271 298.794 76.4688 299.07 76.4688C299.424 76.4688 299.734 76.401 300 76.2656C300.266 76.1302 300.487 75.9193 300.664 75.6328C300.846 75.3411 300.982 74.9688 301.07 74.5156C301.159 74.0573 301.203 73.5104 301.203 72.875Z" fill="#FAFAFA"/>
<path d="M7.78125 136.125C7.78125 135.859 7.73958 135.625 7.65625 135.422C7.57812 135.214 7.4375 135.026 7.23438 134.859C7.03646 134.693 6.76042 134.534 6.40625 134.383C6.05729 134.232 5.61458 134.078 5.07812 133.922C4.51562 133.755 4.00781 133.57 3.55469 133.367C3.10156 133.159 2.71354 132.922 2.39062 132.656C2.06771 132.391 1.82031 132.086 1.64844 131.742C1.47656 131.398 1.39062 131.005 1.39062 130.562C1.39062 130.12 1.48177 129.711 1.66406 129.336C1.84635 128.961 2.10677 128.635 2.44531 128.359C2.78906 128.078 3.19792 127.859 3.67188 127.703C4.14583 127.547 4.67448 127.469 5.25781 127.469C6.11198 127.469 6.83594 127.633 7.42969 127.961C8.02865 128.284 8.48438 128.708 8.79688 129.234C9.10938 129.755 9.26562 130.312 9.26562 130.906H7.76562C7.76562 130.479 7.67448 130.102 7.49219 129.773C7.3099 129.44 7.03385 129.18 6.66406 128.992C6.29427 128.799 5.82552 128.703 5.25781 128.703C4.72135 128.703 4.27865 128.784 3.92969 128.945C3.58073 129.107 3.32031 129.326 3.14844 129.602C2.98177 129.878 2.89844 130.193 2.89844 130.547C2.89844 130.786 2.94792 131.005 3.04688 131.203C3.15104 131.396 3.3099 131.576 3.52344 131.742C3.74219 131.909 4.01823 132.062 4.35156 132.203C4.6901 132.344 5.09375 132.479 5.5625 132.609C6.20833 132.792 6.76562 132.995 7.23438 133.219C7.70312 133.443 8.08854 133.695 8.39062 133.977C8.69792 134.253 8.92448 134.568 9.07031 134.922C9.22135 135.271 9.29688 135.667 9.29688 136.109C9.29688 136.573 9.20312 136.992 9.01562 137.367C8.82812 137.742 8.5599 138.062 8.21094 138.328C7.86198 138.594 7.44271 138.799 6.95312 138.945C6.46875 139.086 5.92708 139.156 5.32812 139.156C4.80208 139.156 4.28385 139.083 3.77344 138.938C3.26823 138.792 2.80729 138.573 2.39062 138.281C1.97917 137.99 1.64844 137.63 1.39844 137.203C1.15365 136.771 1.03125 136.271 1.03125 135.703H2.53125C2.53125 136.094 2.60677 136.43 2.75781 136.711C2.90885 136.987 3.11458 137.216 3.375 137.398C3.64062 137.581 3.9401 137.716 4.27344 137.805C4.61198 137.888 4.96354 137.93 5.32812 137.93C5.85417 137.93 6.29948 137.857 6.66406 137.711C7.02865 137.565 7.30469 137.357 7.49219 137.086C7.6849 136.815 7.78125 136.495 7.78125 136.125ZM14.5078 139.156C13.9193 139.156 13.3854 139.057 12.9062 138.859C12.4323 138.656 12.0234 138.372 11.6797 138.008C11.3411 137.643 11.0807 137.211 10.8984 136.711C10.7161 136.211 10.625 135.664 10.625 135.07V134.742C10.625 134.055 10.7266 133.443 10.9297 132.906C11.1328 132.365 11.4089 131.906 11.7578 131.531C12.1068 131.156 12.5026 130.872 12.9453 130.68C13.388 130.487 13.8464 130.391 14.3203 130.391C14.9245 130.391 15.4453 130.495 15.8828 130.703C16.3255 130.911 16.6875 131.203 16.9688 131.578C17.25 131.948 17.4583 132.385 17.5938 132.891C17.7292 133.391 17.7969 133.938 17.7969 134.531V135.18H11.4844V134H16.3516V133.891C16.3307 133.516 16.2526 133.151 16.1172 132.797C15.987 132.443 15.7786 132.151 15.4922 131.922C15.2057 131.693 14.8151 131.578 14.3203 131.578C13.9922 131.578 13.6901 131.648 13.4141 131.789C13.138 131.924 12.901 132.128 12.7031 132.398C12.5052 132.669 12.3516 133 12.2422 133.391C12.1328 133.781 12.0781 134.232 12.0781 134.742V135.07C12.0781 135.471 12.1328 135.849 12.2422 136.203C12.3568 136.552 12.5208 136.859 12.7344 137.125C12.9531 137.391 13.2161 137.599 13.5234 137.75C13.8359 137.901 14.1901 137.977 14.5859 137.977C15.0964 137.977 15.5286 137.872 15.8828 137.664C16.237 137.456 16.5469 137.177 16.8125 136.828L17.6875 137.523C17.5052 137.799 17.2734 138.062 16.9922 138.312C16.7109 138.562 16.3646 138.766 15.9531 138.922C15.5469 139.078 15.0651 139.156 14.5078 139.156ZM22.8672 137.969C23.2109 137.969 23.5286 137.898 23.8203 137.758C24.112 137.617 24.3516 137.424 24.5391 137.18C24.7266 136.93 24.8333 136.646 24.8594 136.328H26.2344C26.2083 136.828 26.0391 137.294 25.7266 137.727C25.4193 138.154 25.0156 138.5 24.5156 138.766C24.0156 139.026 23.4661 139.156 22.8672 139.156C22.2318 139.156 21.6771 139.044 21.2031 138.82C20.7344 138.596 20.3438 138.289 20.0312 137.898C19.724 137.508 19.4922 137.06 19.3359 136.555C19.1849 136.044 19.1094 135.505 19.1094 134.938V134.609C19.1094 134.042 19.1849 133.505 19.3359 133C19.4922 132.49 19.724 132.039 20.0312 131.648C20.3438 131.258 20.7344 130.951 21.2031 130.727C21.6771 130.503 22.2318 130.391 22.8672 130.391C23.5286 130.391 24.1068 130.526 24.6016 130.797C25.0964 131.062 25.4844 131.427 25.7656 131.891C26.0521 132.349 26.2083 132.87 26.2344 133.453H24.8594C24.8333 133.104 24.7344 132.789 24.5625 132.508C24.3958 132.227 24.1667 132.003 23.875 131.836C23.5885 131.664 23.2526 131.578 22.8672 131.578C22.4245 131.578 22.0521 131.667 21.75 131.844C21.4531 132.016 21.2161 132.25 21.0391 132.547C20.8672 132.839 20.7422 133.164 20.6641 133.523C20.5911 133.878 20.5547 134.24 20.5547 134.609V134.938C20.5547 135.307 20.5911 135.672 20.6641 136.031C20.737 136.391 20.8594 136.716 21.0312 137.008C21.2083 137.299 21.4453 137.534 21.7422 137.711C22.0443 137.883 22.4193 137.969 22.8672 137.969ZM27.4766 134.867V134.688C27.4766 134.078 27.5651 133.513 27.7422 132.992C27.9193 132.466 28.1745 132.01 28.5078 131.625C28.8411 131.234 29.2448 130.932 29.7188 130.719C30.1927 130.5 30.724 130.391 31.3125 130.391C31.9062 130.391 32.4401 130.5 32.9141 130.719C33.3932 130.932 33.7995 131.234 34.1328 131.625C34.4714 132.01 34.7292 132.466 34.9062 132.992C35.0833 133.513 35.1719 134.078 35.1719 134.688V134.867C35.1719 135.477 35.0833 136.042 34.9062 136.562C34.7292 137.083 34.4714 137.539 34.1328 137.93C33.7995 138.315 33.3958 138.617 32.9219 138.836C32.4531 139.049 31.9219 139.156 31.3281 139.156C30.7344 139.156 30.2005 139.049 29.7266 138.836C29.2526 138.617 28.8464 138.315 28.5078 137.93C28.1745 137.539 27.9193 137.083 27.7422 136.562C27.5651 136.042 27.4766 135.477 27.4766 134.867ZM28.9219 134.688V134.867C28.9219 135.289 28.9714 135.688 29.0703 136.062C29.1693 136.432 29.3177 136.76 29.5156 137.047C29.7188 137.333 29.9714 137.56 30.2734 137.727C30.5755 137.888 30.9271 137.969 31.3281 137.969C31.724 137.969 32.0703 137.888 32.3672 137.727C32.6693 137.56 32.9193 137.333 33.1172 137.047C33.3151 136.76 33.4635 136.432 33.5625 136.062C33.6667 135.688 33.7188 135.289 33.7188 134.867V134.688C33.7188 134.271 33.6667 133.878 33.5625 133.508C33.4635 133.133 33.3125 132.802 33.1094 132.516C32.9115 132.224 32.6615 131.995 32.3594 131.828C32.0625 131.661 31.7135 131.578 31.3125 131.578C30.9167 131.578 30.5677 131.661 30.2656 131.828C29.9688 131.995 29.7188 132.224 29.5156 132.516C29.3177 132.802 29.1693 133.133 29.0703 133.508C28.9714 133.878 28.9219 134.271 28.9219 134.688ZM38.4297 132.352V139H36.9844V130.547H38.3516L38.4297 132.352ZM38.0859 134.453L37.4844 134.43C37.4896 133.852 37.5755 133.318 37.7422 132.828C37.9089 132.333 38.1432 131.904 38.4453 131.539C38.7474 131.174 39.1068 130.893 39.5234 130.695C39.9453 130.492 40.4115 130.391 40.9219 130.391C41.3385 130.391 41.7135 130.448 42.0469 130.562C42.3802 130.672 42.6641 130.849 42.8984 131.094C43.138 131.339 43.3203 131.656 43.4453 132.047C43.5703 132.432 43.6328 132.904 43.6328 133.461V139H42.1797V133.445C42.1797 133.003 42.1146 132.648 41.9844 132.383C41.8542 132.112 41.6641 131.917 41.4141 131.797C41.1641 131.672 40.8568 131.609 40.4922 131.609C40.1328 131.609 39.8047 131.685 39.5078 131.836C39.2161 131.987 38.9635 132.195 38.75 132.461C38.5417 132.727 38.3776 133.031 38.2578 133.375C38.1432 133.714 38.0859 134.073 38.0859 134.453ZM51.1562 137.359V127H52.6094V139H51.2812L51.1562 137.359ZM45.4688 134.867V134.703C45.4688 134.057 45.5469 133.471 45.7031 132.945C45.8646 132.414 46.0911 131.958 46.3828 131.578C46.6797 131.198 47.0312 130.906 47.4375 130.703C47.849 130.495 48.3073 130.391 48.8125 130.391C49.3438 130.391 49.8073 130.484 50.2031 130.672C50.6042 130.854 50.9427 131.122 51.2188 131.477C51.5 131.826 51.7214 132.247 51.8828 132.742C52.0443 133.237 52.1562 133.797 52.2188 134.422V135.141C52.1615 135.76 52.0495 136.318 51.8828 136.812C51.7214 137.307 51.5 137.729 51.2188 138.078C50.9427 138.427 50.6042 138.695 50.2031 138.883C49.8021 139.065 49.3333 139.156 48.7969 139.156C48.3021 139.156 47.849 139.049 47.4375 138.836C47.0312 138.622 46.6797 138.323 46.3828 137.938C46.0911 137.552 45.8646 137.099 45.7031 136.578C45.5469 136.052 45.4688 135.482 45.4688 134.867ZM46.9219 134.703V134.867C46.9219 135.289 46.9635 135.685 47.0469 136.055C47.1354 136.424 47.2708 136.75 47.4531 137.031C47.6354 137.312 47.8672 137.534 48.1484 137.695C48.4297 137.852 48.7656 137.93 49.1562 137.93C49.6354 137.93 50.0286 137.828 50.3359 137.625C50.6484 137.422 50.8984 137.154 51.0859 136.82C51.2734 136.487 51.4193 136.125 51.5234 135.734V133.852C51.4609 133.565 51.3698 133.289 51.25 133.023C51.1354 132.753 50.9844 132.513 50.7969 132.305C50.6146 132.091 50.388 131.922 50.1172 131.797C49.8516 131.672 49.5365 131.609 49.1719 131.609C48.776 131.609 48.4349 131.693 48.1484 131.859C47.8672 132.021 47.6354 132.245 47.4531 132.531C47.2708 132.812 47.1354 133.141 47.0469 133.516C46.9635 133.885 46.9219 134.281 46.9219 134.703ZM59.8438 137.555V133.203C59.8438 132.87 59.776 132.581 59.6406 132.336C59.5104 132.086 59.3125 131.893 59.0469 131.758C58.7812 131.622 58.4531 131.555 58.0625 131.555C57.6979 131.555 57.3776 131.617 57.1016 131.742C56.8307 131.867 56.6172 132.031 56.4609 132.234C56.3099 132.438 56.2344 132.656 56.2344 132.891H54.7891C54.7891 132.589 54.8672 132.289 55.0234 131.992C55.1797 131.695 55.4036 131.427 55.6953 131.188C55.9922 130.943 56.3464 130.75 56.7578 130.609C57.1745 130.464 57.638 130.391 58.1484 130.391C58.763 130.391 59.3047 130.495 59.7734 130.703C60.2474 130.911 60.6172 131.227 60.8828 131.648C61.1536 132.065 61.2891 132.589 61.2891 133.219V137.156C61.2891 137.438 61.3125 137.737 61.3594 138.055C61.4115 138.372 61.487 138.646 61.5859 138.875V139H60.0781C60.0052 138.833 59.9479 138.612 59.9062 138.336C59.8646 138.055 59.8438 137.794 59.8438 137.555ZM60.0938 133.875L60.1094 134.891H58.6484C58.237 134.891 57.8698 134.924 57.5469 134.992C57.224 135.055 56.9531 135.151 56.7344 135.281C56.5156 135.411 56.349 135.576 56.2344 135.773C56.1198 135.966 56.0625 136.193 56.0625 136.453C56.0625 136.719 56.1224 136.961 56.2422 137.18C56.362 137.398 56.5417 137.573 56.7812 137.703C57.026 137.828 57.3255 137.891 57.6797 137.891C58.1224 137.891 58.513 137.797 58.8516 137.609C59.1901 137.422 59.4583 137.193 59.6562 136.922C59.8594 136.651 59.9688 136.388 59.9844 136.133L60.6016 136.828C60.5651 137.047 60.4661 137.289 60.3047 137.555C60.1432 137.82 59.9271 138.076 59.6562 138.32C59.3906 138.56 59.0729 138.76 58.7031 138.922C58.3385 139.078 57.9271 139.156 57.4688 139.156C56.8958 139.156 56.3932 139.044 55.9609 138.82C55.5339 138.596 55.2005 138.297 54.9609 137.922C54.7266 137.542 54.6094 137.117 54.6094 136.648C54.6094 136.195 54.6979 135.797 54.875 135.453C55.0521 135.104 55.3073 134.815 55.6406 134.586C55.974 134.352 56.375 134.174 56.8438 134.055C57.3125 133.935 57.8359 133.875 58.4141 133.875H60.0938ZM65.0078 131.875V139H63.5625V130.547H64.9688L65.0078 131.875ZM67.6484 130.5L67.6406 131.844C67.5208 131.818 67.4062 131.802 67.2969 131.797C67.1927 131.786 67.0729 131.781 66.9375 131.781C66.6042 131.781 66.3099 131.833 66.0547 131.938C65.7995 132.042 65.5833 132.188 65.4062 132.375C65.2292 132.562 65.0885 132.786 64.9844 133.047C64.8854 133.302 64.8203 133.583 64.7891 133.891L64.3828 134.125C64.3828 133.615 64.4323 133.135 64.5312 132.688C64.6354 132.24 64.7943 131.844 65.0078 131.5C65.2214 131.151 65.4922 130.88 65.8203 130.688C66.1536 130.49 66.5495 130.391 67.0078 130.391C67.112 130.391 67.2318 130.404 67.3672 130.43C67.5026 130.451 67.5964 130.474 67.6484 130.5ZM71.5 138.125L73.8516 130.547H75.3984L72.0078 140.305C71.9297 140.513 71.8255 140.737 71.6953 140.977C71.5703 141.221 71.4089 141.453 71.2109 141.672C71.013 141.891 70.7734 142.068 70.4922 142.203C70.2161 142.344 69.8854 142.414 69.5 142.414C69.3854 142.414 69.2396 142.398 69.0625 142.367C68.8854 142.336 68.7604 142.31 68.6875 142.289L68.6797 141.117C68.7214 141.122 68.7865 141.128 68.875 141.133C68.9688 141.143 69.0339 141.148 69.0703 141.148C69.3984 141.148 69.6771 141.104 69.9062 141.016C70.1354 140.932 70.3281 140.789 70.4844 140.586C70.6458 140.388 70.7839 140.115 70.8984 139.766L71.5 138.125ZM69.7734 130.547L71.9688 137.109L72.3438 138.633L71.3047 139.164L68.1953 130.547H69.7734Z" fill="white"/>
<rect x="0.5" y="151.5" width="151" height="71" rx="15.5" fill="white"/>
<rect x="0.5" y="151.5" width="151" height="71" rx="15.5" stroke="white"/>
<rect x="16" y="167" width="40" height="40" rx="8" fill="#D4D4D4"/>
<path d="M82.1562 186.836V191C82.0156 191.208 81.7917 191.443 81.4844 191.703C81.1771 191.958 80.7526 192.182 80.2109 192.375C79.6745 192.562 78.9818 192.656 78.1328 192.656C77.4401 192.656 76.8021 192.536 76.2188 192.297C75.6406 192.052 75.138 191.698 74.7109 191.234C74.2891 190.766 73.9609 190.198 73.7266 189.531C73.4974 188.859 73.3828 188.099 73.3828 187.25V186.367C73.3828 185.518 73.4818 184.76 73.6797 184.094C73.8828 183.427 74.1797 182.862 74.5703 182.398C74.9609 181.93 75.4401 181.576 76.0078 181.336C76.5755 181.091 77.2266 180.969 77.9609 180.969C78.8307 180.969 79.5573 181.12 80.1406 181.422C80.7292 181.719 81.1875 182.13 81.5156 182.656C81.849 183.182 82.0625 183.781 82.1562 184.453H80.6484C80.5807 184.042 80.4453 183.667 80.2422 183.328C80.0443 182.99 79.7604 182.719 79.3906 182.516C79.0208 182.307 78.5443 182.203 77.9609 182.203C77.4349 182.203 76.9792 182.299 76.5938 182.492C76.2083 182.685 75.8906 182.961 75.6406 183.32C75.3906 183.68 75.2031 184.115 75.0781 184.625C74.9583 185.135 74.8984 185.711 74.8984 186.352V187.25C74.8984 187.906 74.974 188.492 75.125 189.008C75.2812 189.523 75.5026 189.964 75.7891 190.328C76.0755 190.688 76.4167 190.961 76.8125 191.148C77.2135 191.336 77.6562 191.43 78.1406 191.43C78.6771 191.43 79.112 191.385 79.4453 191.297C79.7786 191.203 80.0391 191.094 80.2266 190.969C80.4141 190.839 80.5573 190.716 80.6562 190.602V188.055H78.0234V186.836H82.1562ZM85.8828 185.375V192.5H84.4375V184.047H85.8438L85.8828 185.375ZM88.5234 184L88.5156 185.344C88.3958 185.318 88.2812 185.302 88.1719 185.297C88.0677 185.286 87.9479 185.281 87.8125 185.281C87.4792 185.281 87.1849 185.333 86.9297 185.438C86.6745 185.542 86.4583 185.688 86.2812 185.875C86.1042 186.062 85.9635 186.286 85.8594 186.547C85.7604 186.802 85.6953 187.083 85.6641 187.391L85.2578 187.625C85.2578 187.115 85.3073 186.635 85.4062 186.188C85.5104 185.74 85.6693 185.344 85.8828 185C86.0964 184.651 86.3672 184.38 86.6953 184.188C87.0286 183.99 87.4245 183.891 87.8828 183.891C87.987 183.891 88.1068 183.904 88.2422 183.93C88.3776 183.951 88.4714 183.974 88.5234 184ZM94.5312 191.055V186.703C94.5312 186.37 94.4635 186.081 94.3281 185.836C94.1979 185.586 94 185.393 93.7344 185.258C93.4688 185.122 93.1406 185.055 92.75 185.055C92.3854 185.055 92.0651 185.117 91.7891 185.242C91.5182 185.367 91.3047 185.531 91.1484 185.734C90.9974 185.938 90.9219 186.156 90.9219 186.391H89.4766C89.4766 186.089 89.5547 185.789 89.7109 185.492C89.8672 185.195 90.0911 184.927 90.3828 184.688C90.6797 184.443 91.0339 184.25 91.4453 184.109C91.862 183.964 92.3255 183.891 92.8359 183.891C93.4505 183.891 93.9922 183.995 94.4609 184.203C94.9349 184.411 95.3047 184.727 95.5703 185.148C95.8411 185.565 95.9766 186.089 95.9766 186.719V190.656C95.9766 190.938 96 191.237 96.0469 191.555C96.099 191.872 96.1745 192.146 96.2734 192.375V192.5H94.7656C94.6927 192.333 94.6354 192.112 94.5938 191.836C94.5521 191.555 94.5312 191.294 94.5312 191.055ZM94.7812 187.375L94.7969 188.391H93.3359C92.9245 188.391 92.5573 188.424 92.2344 188.492C91.9115 188.555 91.6406 188.651 91.4219 188.781C91.2031 188.911 91.0365 189.076 90.9219 189.273C90.8073 189.466 90.75 189.693 90.75 189.953C90.75 190.219 90.8099 190.461 90.9297 190.68C91.0495 190.898 91.2292 191.073 91.4688 191.203C91.7135 191.328 92.013 191.391 92.3672 191.391C92.8099 191.391 93.2005 191.297 93.5391 191.109C93.8776 190.922 94.1458 190.693 94.3438 190.422C94.5469 190.151 94.6562 189.888 94.6719 189.633L95.2891 190.328C95.2526 190.547 95.1536 190.789 94.9922 191.055C94.8307 191.32 94.6146 191.576 94.3438 191.82C94.0781 192.06 93.7604 192.26 93.3906 192.422C93.026 192.578 92.6146 192.656 92.1562 192.656C91.5833 192.656 91.0807 192.544 90.6484 192.32C90.2214 192.096 89.888 191.797 89.6484 191.422C89.4141 191.042 89.2969 190.617 89.2969 190.148C89.2969 189.695 89.3854 189.297 89.5625 188.953C89.7396 188.604 89.9948 188.315 90.3281 188.086C90.6615 187.852 91.0625 187.674 91.5312 187.555C92 187.435 92.5234 187.375 93.1016 187.375H94.7812ZM100.5 191.625L102.852 184.047H104.398L101.008 193.805C100.93 194.013 100.826 194.237 100.695 194.477C100.57 194.721 100.409 194.953 100.211 195.172C100.013 195.391 99.7734 195.568 99.4922 195.703C99.2161 195.844 98.8854 195.914 98.5 195.914C98.3854 195.914 98.2396 195.898 98.0625 195.867C97.8854 195.836 97.7604 195.81 97.6875 195.789L97.6797 194.617C97.7214 194.622 97.7865 194.628 97.875 194.633C97.9688 194.643 98.0339 194.648 98.0703 194.648C98.3984 194.648 98.6771 194.604 98.9062 194.516C99.1354 194.432 99.3281 194.289 99.4844 194.086C99.6458 193.888 99.7839 193.615 99.8984 193.266L100.5 191.625ZM98.7734 184.047L100.969 190.609L101.344 192.133L100.305 192.664L97.1953 184.047H98.7734ZM111.625 186.102H112.656C113.161 186.102 113.578 186.018 113.906 185.852C114.24 185.68 114.487 185.448 114.648 185.156C114.815 184.859 114.898 184.526 114.898 184.156C114.898 183.719 114.826 183.352 114.68 183.055C114.534 182.758 114.315 182.534 114.023 182.383C113.732 182.232 113.362 182.156 112.914 182.156C112.508 182.156 112.148 182.237 111.836 182.398C111.529 182.555 111.286 182.779 111.109 183.07C110.938 183.362 110.852 183.706 110.852 184.102H109.406C109.406 183.523 109.552 182.997 109.844 182.523C110.135 182.049 110.544 181.672 111.07 181.391C111.602 181.109 112.216 180.969 112.914 180.969C113.602 180.969 114.203 181.091 114.719 181.336C115.234 181.576 115.635 181.935 115.922 182.414C116.208 182.888 116.352 183.479 116.352 184.188C116.352 184.474 116.284 184.781 116.148 185.109C116.018 185.432 115.812 185.734 115.531 186.016C115.255 186.297 114.896 186.529 114.453 186.711C114.01 186.888 113.479 186.977 112.859 186.977H111.625V186.102ZM111.625 187.289V186.422H112.859C113.583 186.422 114.182 186.508 114.656 186.68C115.13 186.852 115.503 187.081 115.773 187.367C116.049 187.654 116.242 187.969 116.352 188.312C116.466 188.651 116.523 188.99 116.523 189.328C116.523 189.859 116.432 190.331 116.25 190.742C116.073 191.154 115.82 191.503 115.492 191.789C115.169 192.076 114.789 192.292 114.352 192.438C113.914 192.583 113.438 192.656 112.922 192.656C112.427 192.656 111.961 192.586 111.523 192.445C111.091 192.305 110.708 192.102 110.375 191.836C110.042 191.565 109.781 191.234 109.594 190.844C109.406 190.448 109.312 189.997 109.312 189.492H110.758C110.758 189.888 110.844 190.234 111.016 190.531C111.193 190.828 111.443 191.06 111.766 191.227C112.094 191.388 112.479 191.469 112.922 191.469C113.365 191.469 113.745 191.393 114.062 191.242C114.385 191.086 114.633 190.852 114.805 190.539C114.982 190.227 115.07 189.833 115.07 189.359C115.07 188.885 114.971 188.497 114.773 188.195C114.576 187.888 114.294 187.661 113.93 187.516C113.57 187.365 113.146 187.289 112.656 187.289H111.625ZM125.656 185.906V187.641C125.656 188.573 125.573 189.359 125.406 190C125.24 190.641 125 191.156 124.688 191.547C124.375 191.938 123.997 192.221 123.555 192.398C123.117 192.57 122.622 192.656 122.07 192.656C121.633 192.656 121.229 192.602 120.859 192.492C120.49 192.383 120.156 192.208 119.859 191.969C119.568 191.724 119.318 191.406 119.109 191.016C118.901 190.625 118.742 190.151 118.633 189.594C118.523 189.036 118.469 188.385 118.469 187.641V185.906C118.469 184.974 118.552 184.193 118.719 183.562C118.891 182.932 119.133 182.427 119.445 182.047C119.758 181.661 120.133 181.385 120.57 181.219C121.013 181.052 121.508 180.969 122.055 180.969C122.497 180.969 122.904 181.023 123.273 181.133C123.648 181.237 123.982 181.406 124.273 181.641C124.565 181.87 124.812 182.177 125.016 182.562C125.224 182.943 125.383 183.409 125.492 183.961C125.602 184.513 125.656 185.161 125.656 185.906ZM124.203 187.875V185.664C124.203 185.154 124.172 184.706 124.109 184.32C124.052 183.93 123.966 183.596 123.852 183.32C123.737 183.044 123.591 182.82 123.414 182.648C123.242 182.477 123.042 182.352 122.812 182.273C122.589 182.19 122.336 182.148 122.055 182.148C121.711 182.148 121.406 182.214 121.141 182.344C120.875 182.469 120.651 182.669 120.469 182.945C120.292 183.221 120.156 183.583 120.062 184.031C119.969 184.479 119.922 185.023 119.922 185.664V187.875C119.922 188.385 119.951 188.836 120.008 189.227C120.07 189.617 120.161 189.956 120.281 190.242C120.401 190.523 120.547 190.755 120.719 190.938C120.891 191.12 121.089 191.255 121.312 191.344C121.542 191.427 121.794 191.469 122.07 191.469C122.424 191.469 122.734 191.401 123 191.266C123.266 191.13 123.487 190.919 123.664 190.633C123.846 190.341 123.982 189.969 124.07 189.516C124.159 189.057 124.203 188.51 124.203 187.875ZM134.656 185.906V187.641C134.656 188.573 134.573 189.359 134.406 190C134.24 190.641 134 191.156 133.688 191.547C133.375 191.938 132.997 192.221 132.555 192.398C132.117 192.57 131.622 192.656 131.07 192.656C130.633 192.656 130.229 192.602 129.859 192.492C129.49 192.383 129.156 192.208 128.859 191.969C128.568 191.724 128.318 191.406 128.109 191.016C127.901 190.625 127.742 190.151 127.633 189.594C127.523 189.036 127.469 188.385 127.469 187.641V185.906C127.469 184.974 127.552 184.193 127.719 183.562C127.891 182.932 128.133 182.427 128.445 182.047C128.758 181.661 129.133 181.385 129.57 181.219C130.013 181.052 130.508 180.969 131.055 180.969C131.497 180.969 131.904 181.023 132.273 181.133C132.648 181.237 132.982 181.406 133.273 181.641C133.565 181.87 133.812 182.177 134.016 182.562C134.224 182.943 134.383 183.409 134.492 183.961C134.602 184.513 134.656 185.161 134.656 185.906ZM133.203 187.875V185.664C133.203 185.154 133.172 184.706 133.109 184.32C133.052 183.93 132.966 183.596 132.852 183.32C132.737 183.044 132.591 182.82 132.414 182.648C132.242 182.477 132.042 182.352 131.812 182.273C131.589 182.19 131.336 182.148 131.055 182.148C130.711 182.148 130.406 182.214 130.141 182.344C129.875 182.469 129.651 182.669 129.469 182.945C129.292 183.221 129.156 183.583 129.062 184.031C128.969 184.479 128.922 185.023 128.922 185.664V187.875C128.922 188.385 128.951 188.836 129.008 189.227C129.07 189.617 129.161 189.956 129.281 190.242C129.401 190.523 129.547 190.755 129.719 190.938C129.891 191.12 130.089 191.255 130.312 191.344C130.542 191.427 130.794 191.469 131.07 191.469C131.424 191.469 131.734 191.401 132 191.266C132.266 191.13 132.487 190.919 132.664 190.633C132.846 190.341 132.982 189.969 133.07 189.516C133.159 189.057 133.203 188.51 133.203 187.875Z" fill="#171717"/>
<rect x="168.5" y="151.5" width="151" height="71" rx="15.5" fill="#171717"/>
<rect x="168.5" y="151.5" width="151" height="71" rx="15.5" stroke="white"/>
<rect x="184" y="167" width="40" height="40" rx="8" fill="#525252"/>
<path d="M250.156 186.836V191C250.016 191.208 249.792 191.443 249.484 191.703C249.177 191.958 248.753 192.182 248.211 192.375C247.674 192.562 246.982 192.656 246.133 192.656C245.44 192.656 244.802 192.536 244.219 192.297C243.641 192.052 243.138 191.698 242.711 191.234C242.289 190.766 241.961 190.198 241.727 189.531C241.497 188.859 241.383 188.099 241.383 187.25V186.367C241.383 185.518 241.482 184.76 241.68 184.094C241.883 183.427 242.18 182.862 242.57 182.398C242.961 181.93 243.44 181.576 244.008 181.336C244.576 181.091 245.227 180.969 245.961 180.969C246.831 180.969 247.557 181.12 248.141 181.422C248.729 181.719 249.188 182.13 249.516 182.656C249.849 183.182 250.062 183.781 250.156 184.453H248.648C248.581 184.042 248.445 183.667 248.242 183.328C248.044 182.99 247.76 182.719 247.391 182.516C247.021 182.307 246.544 182.203 245.961 182.203C245.435 182.203 244.979 182.299 244.594 182.492C244.208 182.685 243.891 182.961 243.641 183.32C243.391 183.68 243.203 184.115 243.078 184.625C242.958 185.135 242.898 185.711 242.898 186.352V187.25C242.898 187.906 242.974 188.492 243.125 189.008C243.281 189.523 243.503 189.964 243.789 190.328C244.076 190.688 244.417 190.961 244.812 191.148C245.214 191.336 245.656 191.43 246.141 191.43C246.677 191.43 247.112 191.385 247.445 191.297C247.779 191.203 248.039 191.094 248.227 190.969C248.414 190.839 248.557 190.716 248.656 190.602V188.055H246.023V186.836H250.156ZM253.883 185.375V192.5H252.438V184.047H253.844L253.883 185.375ZM256.523 184L256.516 185.344C256.396 185.318 256.281 185.302 256.172 185.297C256.068 185.286 255.948 185.281 255.812 185.281C255.479 185.281 255.185 185.333 254.93 185.438C254.674 185.542 254.458 185.688 254.281 185.875C254.104 186.062 253.964 186.286 253.859 186.547C253.76 186.802 253.695 187.083 253.664 187.391L253.258 187.625C253.258 187.115 253.307 186.635 253.406 186.188C253.51 185.74 253.669 185.344 253.883 185C254.096 184.651 254.367 184.38 254.695 184.188C255.029 183.99 255.424 183.891 255.883 183.891C255.987 183.891 256.107 183.904 256.242 183.93C256.378 183.951 256.471 183.974 256.523 184ZM262.531 191.055V186.703C262.531 186.37 262.464 186.081 262.328 185.836C262.198 185.586 262 185.393 261.734 185.258C261.469 185.122 261.141 185.055 260.75 185.055C260.385 185.055 260.065 185.117 259.789 185.242C259.518 185.367 259.305 185.531 259.148 185.734C258.997 185.938 258.922 186.156 258.922 186.391H257.477C257.477 186.089 257.555 185.789 257.711 185.492C257.867 185.195 258.091 184.927 258.383 184.688C258.68 184.443 259.034 184.25 259.445 184.109C259.862 183.964 260.326 183.891 260.836 183.891C261.451 183.891 261.992 183.995 262.461 184.203C262.935 184.411 263.305 184.727 263.57 185.148C263.841 185.565 263.977 186.089 263.977 186.719V190.656C263.977 190.938 264 191.237 264.047 191.555C264.099 191.872 264.174 192.146 264.273 192.375V192.5H262.766C262.693 192.333 262.635 192.112 262.594 191.836C262.552 191.555 262.531 191.294 262.531 191.055ZM262.781 187.375L262.797 188.391H261.336C260.924 188.391 260.557 188.424 260.234 188.492C259.911 188.555 259.641 188.651 259.422 188.781C259.203 188.911 259.036 189.076 258.922 189.273C258.807 189.466 258.75 189.693 258.75 189.953C258.75 190.219 258.81 190.461 258.93 190.68C259.049 190.898 259.229 191.073 259.469 191.203C259.714 191.328 260.013 191.391 260.367 191.391C260.81 191.391 261.201 191.297 261.539 191.109C261.878 190.922 262.146 190.693 262.344 190.422C262.547 190.151 262.656 189.888 262.672 189.633L263.289 190.328C263.253 190.547 263.154 190.789 262.992 191.055C262.831 191.32 262.615 191.576 262.344 191.82C262.078 192.06 261.76 192.26 261.391 192.422C261.026 192.578 260.615 192.656 260.156 192.656C259.583 192.656 259.081 192.544 258.648 192.32C258.221 192.096 257.888 191.797 257.648 191.422C257.414 191.042 257.297 190.617 257.297 190.148C257.297 189.695 257.385 189.297 257.562 188.953C257.74 188.604 257.995 188.315 258.328 188.086C258.661 187.852 259.062 187.674 259.531 187.555C260 187.435 260.523 187.375 261.102 187.375H262.781ZM268.5 191.625L270.852 184.047H272.398L269.008 193.805C268.93 194.013 268.826 194.237 268.695 194.477C268.57 194.721 268.409 194.953 268.211 195.172C268.013 195.391 267.773 195.568 267.492 195.703C267.216 195.844 266.885 195.914 266.5 195.914C266.385 195.914 266.24 195.898 266.062 195.867C265.885 195.836 265.76 195.81 265.688 195.789L265.68 194.617C265.721 194.622 265.786 194.628 265.875 194.633C265.969 194.643 266.034 194.648 266.07 194.648C266.398 194.648 266.677 194.604 266.906 194.516C267.135 194.432 267.328 194.289 267.484 194.086C267.646 193.888 267.784 193.615 267.898 193.266L268.5 191.625ZM266.773 184.047L268.969 190.609L269.344 192.133L268.305 192.664L265.195 184.047H266.773ZM283.062 181.109H283.188V182.336H283.062C282.297 182.336 281.656 182.461 281.141 182.711C280.625 182.956 280.216 183.286 279.914 183.703C279.612 184.115 279.393 184.578 279.258 185.094C279.128 185.609 279.062 186.133 279.062 186.664V188.336C279.062 188.841 279.122 189.289 279.242 189.68C279.362 190.065 279.526 190.391 279.734 190.656C279.943 190.922 280.177 191.122 280.438 191.258C280.703 191.393 280.979 191.461 281.266 191.461C281.599 191.461 281.896 191.398 282.156 191.273C282.417 191.143 282.635 190.964 282.812 190.734C282.995 190.5 283.133 190.224 283.227 189.906C283.32 189.589 283.367 189.24 283.367 188.859C283.367 188.521 283.326 188.195 283.242 187.883C283.159 187.565 283.031 187.284 282.859 187.039C282.688 186.789 282.471 186.594 282.211 186.453C281.956 186.307 281.651 186.234 281.297 186.234C280.896 186.234 280.521 186.333 280.172 186.531C279.828 186.724 279.544 186.979 279.32 187.297C279.102 187.609 278.977 187.951 278.945 188.32L278.18 188.312C278.253 187.729 278.388 187.232 278.586 186.82C278.789 186.404 279.039 186.065 279.336 185.805C279.638 185.539 279.974 185.346 280.344 185.227C280.719 185.102 281.115 185.039 281.531 185.039C282.099 185.039 282.589 185.146 283 185.359C283.411 185.573 283.75 185.859 284.016 186.219C284.281 186.573 284.477 186.974 284.602 187.422C284.732 187.865 284.797 188.32 284.797 188.789C284.797 189.326 284.721 189.828 284.57 190.297C284.419 190.766 284.193 191.177 283.891 191.531C283.594 191.885 283.227 192.161 282.789 192.359C282.352 192.557 281.844 192.656 281.266 192.656C280.651 192.656 280.115 192.531 279.656 192.281C279.198 192.026 278.818 191.688 278.516 191.266C278.214 190.844 277.987 190.375 277.836 189.859C277.685 189.344 277.609 188.82 277.609 188.289V187.609C277.609 186.807 277.69 186.021 277.852 185.25C278.013 184.479 278.292 183.781 278.688 183.156C279.089 182.531 279.643 182.034 280.352 181.664C281.06 181.294 281.964 181.109 283.062 181.109ZM293.656 185.906V187.641C293.656 188.573 293.573 189.359 293.406 190C293.24 190.641 293 191.156 292.688 191.547C292.375 191.938 291.997 192.221 291.555 192.398C291.117 192.57 290.622 192.656 290.07 192.656C289.633 192.656 289.229 192.602 288.859 192.492C288.49 192.383 288.156 192.208 287.859 191.969C287.568 191.724 287.318 191.406 287.109 191.016C286.901 190.625 286.742 190.151 286.633 189.594C286.523 189.036 286.469 188.385 286.469 187.641V185.906C286.469 184.974 286.552 184.193 286.719 183.562C286.891 182.932 287.133 182.427 287.445 182.047C287.758 181.661 288.133 181.385 288.57 181.219C289.013 181.052 289.508 180.969 290.055 180.969C290.497 180.969 290.904 181.023 291.273 181.133C291.648 181.237 291.982 181.406 292.273 181.641C292.565 181.87 292.812 182.177 293.016 182.562C293.224 182.943 293.383 183.409 293.492 183.961C293.602 184.513 293.656 185.161 293.656 185.906ZM292.203 187.875V185.664C292.203 185.154 292.172 184.706 292.109 184.32C292.052 183.93 291.966 183.596 291.852 183.32C291.737 183.044 291.591 182.82 291.414 182.648C291.242 182.477 291.042 182.352 290.812 182.273C290.589 182.19 290.336 182.148 290.055 182.148C289.711 182.148 289.406 182.214 289.141 182.344C288.875 182.469 288.651 182.669 288.469 182.945C288.292 183.221 288.156 183.583 288.062 184.031C287.969 184.479 287.922 185.023 287.922 185.664V187.875C287.922 188.385 287.951 188.836 288.008 189.227C288.07 189.617 288.161 189.956 288.281 190.242C288.401 190.523 288.547 190.755 288.719 190.938C288.891 191.12 289.089 191.255 289.312 191.344C289.542 191.427 289.794 191.469 290.07 191.469C290.424 191.469 290.734 191.401 291 191.266C291.266 191.13 291.487 190.919 291.664 190.633C291.846 190.341 291.982 189.969 292.07 189.516C292.159 189.057 292.203 188.51 292.203 187.875ZM302.656 185.906V187.641C302.656 188.573 302.573 189.359 302.406 190C302.24 190.641 302 191.156 301.688 191.547C301.375 191.938 300.997 192.221 300.555 192.398C300.117 192.57 299.622 192.656 299.07 192.656C298.633 192.656 298.229 192.602 297.859 192.492C297.49 192.383 297.156 192.208 296.859 191.969C296.568 191.724 296.318 191.406 296.109 191.016C295.901 190.625 295.742 190.151 295.633 189.594C295.523 189.036 295.469 188.385 295.469 187.641V185.906C295.469 184.974 295.552 184.193 295.719 183.562C295.891 182.932 296.133 182.427 296.445 182.047C296.758 181.661 297.133 181.385 297.57 181.219C298.013 181.052 298.508 180.969 299.055 180.969C299.497 180.969 299.904 181.023 300.273 181.133C300.648 181.237 300.982 181.406 301.273 181.641C301.565 181.87 301.812 182.177 302.016 182.562C302.224 182.943 302.383 183.409 302.492 183.961C302.602 184.513 302.656 185.161 302.656 185.906ZM301.203 187.875V185.664C301.203 185.154 301.172 184.706 301.109 184.32C301.052 183.93 300.966 183.596 300.852 183.32C300.737 183.044 300.591 182.82 300.414 182.648C300.242 182.477 300.042 182.352 299.812 182.273C299.589 182.19 299.336 182.148 299.055 182.148C298.711 182.148 298.406 182.214 298.141 182.344C297.875 182.469 297.651 182.669 297.469 182.945C297.292 183.221 297.156 183.583 297.062 184.031C296.969 184.479 296.922 185.023 296.922 185.664V187.875C296.922 188.385 296.951 188.836 297.008 189.227C297.07 189.617 297.161 189.956 297.281 190.242C297.401 190.523 297.547 190.755 297.719 190.938C297.891 191.12 298.089 191.255 298.312 191.344C298.542 191.427 298.794 191.469 299.07 191.469C299.424 191.469 299.734 191.401 300 191.266C300.266 191.13 300.487 190.919 300.664 190.633C300.846 190.341 300.982 189.969 301.07 189.516C301.159 189.057 301.203 188.51 301.203 187.875Z" fill="#FAFAFA"/>
</svg>
