<svg width="320" height="338" viewBox="0 0 320 338" fill="none" xmlns="http://www.w3.org/2000/svg">
<path d="M12.668 20.1602V22H4.13672V20.1602H12.668ZM4.58203 4.9375V22H2.32031V4.9375H4.58203ZM17.2852 9.32031V22H15.1055V9.32031H17.2852ZM14.9414 5.95703C14.9414 5.60547 15.0469 5.30859 15.2578 5.06641C15.4766 4.82422 15.7969 4.70312 16.2188 4.70312C16.6328 4.70312 16.9492 4.82422 17.168 5.06641C17.3945 5.30859 17.5078 5.60547 17.5078 5.95703C17.5078 6.29297 17.3945 6.58203 17.168 6.82422C16.9492 7.05859 16.6328 7.17578 16.2188 7.17578C15.7969 7.17578 15.4766 7.05859 15.2578 6.82422C15.0469 6.58203 14.9414 6.29297 14.9414 5.95703ZM28.9805 9.32031H30.9492V21.7305C30.9492 22.8477 30.7227 23.8008 30.2695 24.5898C29.8164 25.3789 29.1836 25.9766 28.3711 26.3828C27.5664 26.7969 26.6367 27.0039 25.582 27.0039C25.1445 27.0039 24.6289 26.9336 24.0352 26.793C23.4492 26.6602 22.8711 26.4297 22.3008 26.1016C21.7383 25.7812 21.2656 25.3477 20.8828 24.8008L22.0195 23.5117C22.5508 24.1523 23.1055 24.5977 23.6836 24.8477C24.2695 25.0977 24.8477 25.2227 25.418 25.2227C26.1055 25.2227 26.6992 25.0938 27.1992 24.8359C27.6992 24.5781 28.0859 24.1953 28.3594 23.6875C28.6406 23.1875 28.7812 22.5703 28.7812 21.8359V12.1094L28.9805 9.32031ZM20.25 15.8008V15.5547C20.25 14.5859 20.3633 13.707 20.5898 12.918C20.8242 12.1211 21.1562 11.4375 21.5859 10.8672C22.0234 10.2969 22.5508 9.85938 23.168 9.55469C23.7852 9.24219 24.4805 9.08594 25.2539 9.08594C26.0508 9.08594 26.7461 9.22656 27.3398 9.50781C27.9414 9.78125 28.4492 10.1836 28.8633 10.7148C29.2852 11.2383 29.6172 11.8711 29.8594 12.6133C30.1016 13.3555 30.2695 14.1953 30.3633 15.1328V16.2109C30.2773 17.1406 30.1094 17.9766 29.8594 18.7188C29.6172 19.4609 29.2852 20.0938 28.8633 20.6172C28.4492 21.1406 27.9414 21.543 27.3398 21.8242C26.7383 22.0977 26.0352 22.2344 25.2305 22.2344C24.4727 22.2344 23.7852 22.0742 23.168 21.7539C22.5586 21.4336 22.0352 20.9844 21.5977 20.4062C21.1602 19.8281 20.8242 19.1484 20.5898 18.3672C20.3633 17.5781 20.25 16.7227 20.25 15.8008ZM22.418 15.5547V15.8008C22.418 16.4336 22.4805 17.0273 22.6055 17.582C22.7383 18.1367 22.9375 18.625 23.2031 19.0469C23.4766 19.4688 23.8242 19.8008 24.2461 20.043C24.668 20.2773 25.1719 20.3945 25.7578 20.3945C26.4766 20.3945 27.0703 20.2422 27.5391 19.9375C28.0078 19.6328 28.3789 19.2305 28.6523 18.7305C28.9336 18.2305 29.1523 17.6875 29.3086 17.1016V14.2773C29.2227 13.8477 29.0898 13.4336 28.9102 13.0352C28.7383 12.6289 28.5117 12.2695 28.2305 11.957C27.957 11.6367 27.6172 11.3828 27.2109 11.1953C26.8047 11.0078 26.3281 10.9141 25.7812 10.9141C25.1875 10.9141 24.6758 11.0391 24.2461 11.2891C23.8242 11.5312 23.4766 11.8672 23.2031 12.2969C22.9375 12.7188 22.7383 13.2109 22.6055 13.7734C22.4805 14.3281 22.418 14.9219 22.418 15.5547ZM36.4102 4V22H34.2422V4H36.4102ZM35.8945 15.1797L34.9922 15.1445C35 14.2773 35.1289 13.4766 35.3789 12.7422C35.6289 12 35.9805 11.3555 36.4336 10.8086C36.8867 10.2617 37.4258 9.83984 38.0508 9.54297C38.6836 9.23828 39.3828 9.08594 40.1484 9.08594C40.7734 9.08594 41.3359 9.17188 41.8359 9.34375C42.3359 9.50781 42.7617 9.77344 43.1133 10.1406C43.4727 10.5078 43.7461 10.9844 43.9336 11.5703C44.1211 12.1484 44.2148 12.8555 44.2148 13.6914V22H42.0352V13.668C42.0352 13.0039 41.9375 12.4727 41.7422 12.0742C41.5469 11.668 41.2617 11.375 40.8867 11.1953C40.5117 11.0078 40.0508 10.9141 39.5039 10.9141C38.9648 10.9141 38.4727 11.0273 38.0273 11.2539C37.5898 11.4805 37.2109 11.793 36.8906 12.1914C36.5781 12.5898 36.332 13.0469 36.1523 13.5625C35.9805 14.0703 35.8945 14.6094 35.8945 15.1797ZM52.7695 9.32031V10.9844H45.9141V9.32031H52.7695ZM48.2344 6.23828H50.4023V18.8594C50.4023 19.2891 50.4688 19.6133 50.6016 19.832C50.7344 20.0508 50.9062 20.1953 51.1172 20.2656C51.3281 20.3359 51.5547 20.3711 51.7969 20.3711C51.9766 20.3711 52.1641 20.3555 52.3594 20.3242C52.5625 20.2852 52.7148 20.2539 52.8164 20.2305L52.8281 22C52.6562 22.0547 52.4297 22.1055 52.1484 22.1523C51.875 22.207 51.543 22.2344 51.1523 22.2344C50.6211 22.2344 50.1328 22.1289 49.6875 21.918C49.2422 21.707 48.8867 21.3555 48.6211 20.8633C48.3633 20.3633 48.2344 19.6914 48.2344 18.8477V6.23828Z" fill="white"/>
<path d="M175.047 22H171.484L171.508 20.1602H175.047C176.266 20.1602 177.281 19.9062 178.094 19.3984C178.906 18.8828 179.516 18.1641 179.922 17.2422C180.336 16.3125 180.543 15.2266 180.543 13.9844V12.9414C180.543 11.9648 180.426 11.0977 180.191 10.3398C179.957 9.57422 179.613 8.92969 179.16 8.40625C178.707 7.875 178.152 7.47266 177.496 7.19922C176.848 6.92578 176.102 6.78906 175.258 6.78906H171.414V4.9375H175.258C176.375 4.9375 177.395 5.125 178.316 5.5C179.238 5.86719 180.031 6.40234 180.695 7.10547C181.367 7.80078 181.883 8.64453 182.242 9.63672C182.602 10.6211 182.781 11.7305 182.781 12.9648V13.9844C182.781 15.2188 182.602 16.332 182.242 17.3242C181.883 18.3086 181.363 19.1484 180.684 19.8438C180.012 20.5391 179.199 21.0742 178.246 21.4492C177.301 21.8164 176.234 22 175.047 22ZM172.691 4.9375V22H170.43V4.9375H172.691ZM193.328 19.832V13.3047C193.328 12.8047 193.227 12.3711 193.023 12.0039C192.828 11.6289 192.531 11.3398 192.133 11.1367C191.734 10.9336 191.242 10.832 190.656 10.832C190.109 10.832 189.629 10.9258 189.215 11.1133C188.809 11.3008 188.488 11.5469 188.254 11.8516C188.027 12.1562 187.914 12.4844 187.914 12.8359H185.746C185.746 12.3828 185.863 11.9336 186.098 11.4883C186.332 11.043 186.668 10.6406 187.105 10.2812C187.551 9.91406 188.082 9.625 188.699 9.41406C189.324 9.19531 190.02 9.08594 190.785 9.08594C191.707 9.08594 192.52 9.24219 193.223 9.55469C193.934 9.86719 194.488 10.3398 194.887 10.9727C195.293 11.5977 195.496 12.3828 195.496 13.3281V19.2344C195.496 19.6562 195.531 20.1055 195.602 20.582C195.68 21.0586 195.793 21.4688 195.941 21.8125V22H193.68C193.57 21.75 193.484 21.418 193.422 21.0039C193.359 20.582 193.328 20.1914 193.328 19.832ZM193.703 14.3125L193.727 15.8359H191.535C190.918 15.8359 190.367 15.8867 189.883 15.9883C189.398 16.082 188.992 16.2266 188.664 16.4219C188.336 16.6172 188.086 16.8633 187.914 17.1602C187.742 17.4492 187.656 17.7891 187.656 18.1797C187.656 18.5781 187.746 18.9414 187.926 19.2695C188.105 19.5977 188.375 19.8594 188.734 20.0547C189.102 20.2422 189.551 20.3359 190.082 20.3359C190.746 20.3359 191.332 20.1953 191.84 19.9141C192.348 19.6328 192.75 19.2891 193.047 18.8828C193.352 18.4766 193.516 18.082 193.539 17.6992L194.465 18.7422C194.41 19.0703 194.262 19.4336 194.02 19.832C193.777 20.2305 193.453 20.6133 193.047 20.9805C192.648 21.3398 192.172 21.6406 191.617 21.8828C191.07 22.1172 190.453 22.2344 189.766 22.2344C188.906 22.2344 188.152 22.0664 187.504 21.7305C186.863 21.3945 186.363 20.9453 186.004 20.3828C185.652 19.8125 185.477 19.1758 185.477 18.4727C185.477 17.793 185.609 17.1953 185.875 16.6797C186.141 16.1562 186.523 15.7227 187.023 15.3789C187.523 15.0273 188.125 14.7617 188.828 14.582C189.531 14.4023 190.316 14.3125 191.184 14.3125H193.703ZM201.074 11.3125V22H198.906V9.32031H201.016L201.074 11.3125ZM205.035 9.25L205.023 11.2656C204.844 11.2266 204.672 11.2031 204.508 11.1953C204.352 11.1797 204.172 11.1719 203.969 11.1719C203.469 11.1719 203.027 11.25 202.645 11.4062C202.262 11.5625 201.938 11.7812 201.672 12.0625C201.406 12.3438 201.195 12.6797 201.039 13.0703C200.891 13.4531 200.793 13.875 200.746 14.3359L200.137 14.6875C200.137 13.9219 200.211 13.2031 200.359 12.5312C200.516 11.8594 200.754 11.2656 201.074 10.75C201.395 10.2266 201.801 9.82031 202.293 9.53125C202.793 9.23438 203.387 9.08594 204.074 9.08594C204.23 9.08594 204.41 9.10547 204.613 9.14453C204.816 9.17578 204.957 9.21094 205.035 9.25ZM209.219 4V22H207.039V4H209.219ZM216.965 9.32031L211.434 15.2383L208.34 18.4492L208.164 16.1406L210.379 13.4922L214.316 9.32031H216.965ZM214.984 22L210.461 15.9531L211.586 14.0195L217.539 22H214.984Z" fill="white"/>
<rect x="0.5" y="36.5" width="128" height="71" rx="15.5" fill="white"/>
<rect x="0.5" y="36.5" width="128" height="71" rx="15.5" stroke="white"/>
<rect x="16.5" y="52.5" width="39" height="39" rx="7.5" fill="#FAFAFA"/>
<rect x="16.5" y="52.5" width="39" height="39" rx="7.5" stroke="#171717"/>
<path d="M76.5 74.0625L78.7578 66.125H79.8516L79.2188 69.2109L76.7891 77.5H75.7031L76.5 74.0625ZM74.1641 66.125L75.9609 73.9062L76.5 77.5H75.4219L72.6641 66.125H74.1641ZM82.7734 73.8984L84.5312 66.125H86.0391L83.2891 77.5H82.2109L82.7734 73.8984ZM80.0156 66.125L82.2109 74.0625L83.0078 77.5H81.9219L79.5781 69.2109L78.9375 66.125H80.0156ZM88.9375 65.5V77.5H87.4922V65.5H88.9375ZM88.5938 72.9531L87.9922 72.9297C87.9974 72.3516 88.0833 71.8177 88.25 71.3281C88.4167 70.8333 88.651 70.4036 88.9531 70.0391C89.2552 69.6745 89.6146 69.3932 90.0312 69.1953C90.4531 68.9922 90.9193 68.8906 91.4297 68.8906C91.8464 68.8906 92.2214 68.9479 92.5547 69.0625C92.888 69.1719 93.1719 69.349 93.4062 69.5938C93.6458 69.8385 93.8281 70.1562 93.9531 70.5469C94.0781 70.9323 94.1406 71.4036 94.1406 71.9609V77.5H92.6875V71.9453C92.6875 71.5026 92.6224 71.1484 92.4922 70.8828C92.362 70.612 92.1719 70.4167 91.9219 70.2969C91.6719 70.1719 91.3646 70.1094 91 70.1094C90.6406 70.1094 90.3125 70.1849 90.0156 70.3359C89.724 70.487 89.4714 70.6953 89.2578 70.9609C89.0495 71.2266 88.8854 71.5312 88.7656 71.875C88.651 72.2135 88.5938 72.5729 88.5938 72.9531ZM97.875 69.0469V77.5H96.4219V69.0469H97.875ZM96.3125 66.8047C96.3125 66.5703 96.3828 66.3724 96.5234 66.2109C96.6693 66.0495 96.8828 65.9688 97.1641 65.9688C97.4401 65.9688 97.651 66.0495 97.7969 66.2109C97.9479 66.3724 98.0234 66.5703 98.0234 66.8047C98.0234 67.0286 97.9479 67.2214 97.7969 67.3828C97.651 67.5391 97.4401 67.6172 97.1641 67.6172C96.8828 67.6172 96.6693 67.5391 96.5234 67.3828C96.3828 67.2214 96.3125 67.0286 96.3125 66.8047ZM103.734 69.0469V70.1562H99.1641V69.0469H103.734ZM100.711 66.9922H102.156V75.4062C102.156 75.6927 102.201 75.9089 102.289 76.0547C102.378 76.2005 102.492 76.2969 102.633 76.3438C102.773 76.3906 102.924 76.4141 103.086 76.4141C103.206 76.4141 103.331 76.4036 103.461 76.3828C103.596 76.3568 103.698 76.3359 103.766 76.3203L103.773 77.5C103.659 77.5365 103.508 77.5703 103.32 77.6016C103.138 77.638 102.917 77.6562 102.656 77.6562C102.302 77.6562 101.977 77.5859 101.68 77.4453C101.383 77.3047 101.146 77.0703 100.969 76.7422C100.797 76.4089 100.711 75.9609 100.711 75.3984V66.9922ZM108.938 77.6562C108.349 77.6562 107.815 77.5573 107.336 77.3594C106.862 77.1562 106.453 76.8724 106.109 76.5078C105.771 76.1432 105.51 75.7109 105.328 75.2109C105.146 74.7109 105.055 74.1641 105.055 73.5703V73.2422C105.055 72.5547 105.156 71.9427 105.359 71.4062C105.562 70.8646 105.839 70.4062 106.188 70.0312C106.536 69.6562 106.932 69.3724 107.375 69.1797C107.818 68.987 108.276 68.8906 108.75 68.8906C109.354 68.8906 109.875 68.9948 110.312 69.2031C110.755 69.4115 111.117 69.7031 111.398 70.0781C111.68 70.4479 111.888 70.8854 112.023 71.3906C112.159 71.8906 112.227 72.4375 112.227 73.0312V73.6797H105.914V72.5H110.781V72.3906C110.76 72.0156 110.682 71.651 110.547 71.2969C110.417 70.9427 110.208 70.651 109.922 70.4219C109.635 70.1927 109.245 70.0781 108.75 70.0781C108.422 70.0781 108.12 70.1484 107.844 70.2891C107.568 70.4245 107.331 70.6276 107.133 70.8984C106.935 71.1693 106.781 71.5 106.672 71.8906C106.562 72.2812 106.508 72.7318 106.508 73.2422V73.5703C106.508 73.9714 106.562 74.349 106.672 74.7031C106.786 75.0521 106.951 75.3594 107.164 75.625C107.383 75.8906 107.646 76.099 107.953 76.25C108.266 76.401 108.62 76.4766 109.016 76.4766C109.526 76.4766 109.958 76.3724 110.312 76.1641C110.667 75.9557 110.977 75.6771 111.242 75.3281L112.117 76.0234C111.935 76.2995 111.703 76.5625 111.422 76.8125C111.141 77.0625 110.794 77.2656 110.383 77.4219C109.977 77.5781 109.495 77.6562 108.938 77.6562Z" fill="#171717"/>
<rect x="168.5" y="36.5" width="127" height="71" rx="15.5" fill="#171717"/>
<rect x="168.5" y="36.5" width="127" height="71" rx="15.5" stroke="white"/>
<rect x="184.5" y="52.5" width="39" height="39" rx="7.5" fill="#171717"/>
<rect x="184.5" y="52.5" width="39" height="39" rx="7.5" stroke="#FAFAFA"/>
<path d="M245.852 72.1797H242.969L242.953 70.9688H245.57C246.003 70.9688 246.38 70.8958 246.703 70.75C247.026 70.6042 247.276 70.3958 247.453 70.125C247.635 69.849 247.727 69.5208 247.727 69.1406C247.727 68.724 247.646 68.3854 247.484 68.125C247.328 67.8594 247.086 67.6667 246.758 67.5469C246.435 67.4219 246.023 67.3594 245.523 67.3594H243.305V77.5H241.797V66.125H245.523C246.107 66.125 246.628 66.1849 247.086 66.3047C247.544 66.4193 247.932 66.6016 248.25 66.8516C248.573 67.0964 248.818 67.4089 248.984 67.7891C249.151 68.1693 249.234 68.625 249.234 69.1562C249.234 69.625 249.115 70.0495 248.875 70.4297C248.635 70.8047 248.302 71.112 247.875 71.3516C247.453 71.5911 246.958 71.7448 246.391 71.8125L245.852 72.1797ZM245.781 77.5H242.375L243.227 76.2734H245.781C246.26 76.2734 246.667 76.1901 247 76.0234C247.339 75.8568 247.596 75.6224 247.773 75.3203C247.951 75.013 248.039 74.651 248.039 74.2344C248.039 73.8125 247.964 73.4479 247.812 73.1406C247.661 72.8333 247.424 72.5964 247.102 72.4297C246.779 72.263 246.362 72.1797 245.852 72.1797H243.703L243.719 70.9688H246.656L246.977 71.4062C247.523 71.4531 247.987 71.6094 248.367 71.875C248.747 72.1354 249.036 72.4688 249.234 72.875C249.438 73.2812 249.539 73.7292 249.539 74.2188C249.539 74.9271 249.383 75.526 249.07 76.0156C248.763 76.5 248.328 76.8698 247.766 77.125C247.203 77.375 246.542 77.5 245.781 77.5ZM253.117 65.5V77.5H251.664V65.5H253.117ZM260.422 76.0547V71.7031C260.422 71.3698 260.354 71.0807 260.219 70.8359C260.089 70.5859 259.891 70.3932 259.625 70.2578C259.359 70.1224 259.031 70.0547 258.641 70.0547C258.276 70.0547 257.956 70.1172 257.68 70.2422C257.409 70.3672 257.195 70.5312 257.039 70.7344C256.888 70.9375 256.812 71.1562 256.812 71.3906H255.367C255.367 71.0885 255.445 70.7891 255.602 70.4922C255.758 70.1953 255.982 69.9271 256.273 69.6875C256.57 69.4427 256.924 69.25 257.336 69.1094C257.753 68.9635 258.216 68.8906 258.727 68.8906C259.341 68.8906 259.883 68.9948 260.352 69.2031C260.826 69.4115 261.195 69.7266 261.461 70.1484C261.732 70.5651 261.867 71.0885 261.867 71.7188V75.6562C261.867 75.9375 261.891 76.237 261.938 76.5547C261.99 76.8724 262.065 77.1458 262.164 77.375V77.5H260.656C260.583 77.3333 260.526 77.112 260.484 76.8359C260.443 76.5547 260.422 76.2943 260.422 76.0547ZM260.672 72.375L260.688 73.3906H259.227C258.815 73.3906 258.448 73.4245 258.125 73.4922C257.802 73.5547 257.531 73.651 257.312 73.7812C257.094 73.9115 256.927 74.0755 256.812 74.2734C256.698 74.4661 256.641 74.6927 256.641 74.9531C256.641 75.2188 256.701 75.4609 256.82 75.6797C256.94 75.8984 257.12 76.0729 257.359 76.2031C257.604 76.3281 257.904 76.3906 258.258 76.3906C258.701 76.3906 259.091 76.2969 259.43 76.1094C259.768 75.9219 260.036 75.6927 260.234 75.4219C260.438 75.151 260.547 74.888 260.562 74.6328L261.18 75.3281C261.143 75.5469 261.044 75.7891 260.883 76.0547C260.721 76.3203 260.505 76.5755 260.234 76.8203C259.969 77.0599 259.651 77.2604 259.281 77.4219C258.917 77.5781 258.505 77.6562 258.047 77.6562C257.474 77.6562 256.971 77.5443 256.539 77.3203C256.112 77.0964 255.779 76.7969 255.539 76.4219C255.305 76.0417 255.188 75.6172 255.188 75.1484C255.188 74.6953 255.276 74.2969 255.453 73.9531C255.63 73.6042 255.885 73.3151 256.219 73.0859C256.552 72.8516 256.953 72.6745 257.422 72.5547C257.891 72.4349 258.414 72.375 258.992 72.375H260.672ZM267.523 76.4688C267.867 76.4688 268.185 76.3984 268.477 76.2578C268.768 76.1172 269.008 75.9245 269.195 75.6797C269.383 75.4297 269.49 75.1458 269.516 74.8281H270.891C270.865 75.3281 270.695 75.7943 270.383 76.2266C270.076 76.6536 269.672 77 269.172 77.2656C268.672 77.526 268.122 77.6562 267.523 77.6562C266.888 77.6562 266.333 77.5443 265.859 77.3203C265.391 77.0964 265 76.7891 264.688 76.3984C264.38 76.0078 264.148 75.5599 263.992 75.0547C263.841 74.5443 263.766 74.0052 263.766 73.4375V73.1094C263.766 72.5417 263.841 72.0052 263.992 71.5C264.148 70.9896 264.38 70.5391 264.688 70.1484C265 69.7578 265.391 69.4505 265.859 69.2266C266.333 69.0026 266.888 68.8906 267.523 68.8906C268.185 68.8906 268.763 69.026 269.258 69.2969C269.753 69.5625 270.141 69.9271 270.422 70.3906C270.708 70.849 270.865 71.3698 270.891 71.9531H269.516C269.49 71.6042 269.391 71.2891 269.219 71.0078C269.052 70.7266 268.823 70.5026 268.531 70.3359C268.245 70.1641 267.909 70.0781 267.523 70.0781C267.081 70.0781 266.708 70.1667 266.406 70.3438C266.109 70.5156 265.872 70.75 265.695 71.0469C265.523 71.3385 265.398 71.6641 265.32 72.0234C265.247 72.3776 265.211 72.7396 265.211 73.1094V73.4375C265.211 73.8073 265.247 74.1719 265.32 74.5312C265.393 74.8906 265.516 75.2161 265.688 75.5078C265.865 75.7995 266.102 76.0339 266.398 76.2109C266.701 76.3828 267.076 76.4688 267.523 76.4688ZM273.969 65.5V77.5H272.516V65.5H273.969ZM279.133 69.0469L275.445 72.9922L273.383 75.1328L273.266 73.5938L274.742 71.8281L277.367 69.0469H279.133ZM277.812 77.5L274.797 73.4688L275.547 72.1797L279.516 77.5H277.812Z" fill="#FAFAFA"/>
<path d="M7.78125 136.125C7.78125 135.859 7.73958 135.625 7.65625 135.422C7.57812 135.214 7.4375 135.026 7.23438 134.859C7.03646 134.693 6.76042 134.534 6.40625 134.383C6.05729 134.232 5.61458 134.078 5.07812 133.922C4.51562 133.755 4.00781 133.57 3.55469 133.367C3.10156 133.159 2.71354 132.922 2.39062 132.656C2.06771 132.391 1.82031 132.086 1.64844 131.742C1.47656 131.398 1.39062 131.005 1.39062 130.562C1.39062 130.12 1.48177 129.711 1.66406 129.336C1.84635 128.961 2.10677 128.635 2.44531 128.359C2.78906 128.078 3.19792 127.859 3.67188 127.703C4.14583 127.547 4.67448 127.469 5.25781 127.469C6.11198 127.469 6.83594 127.633 7.42969 127.961C8.02865 128.284 8.48438 128.708 8.79688 129.234C9.10938 129.755 9.26562 130.312 9.26562 130.906H7.76562C7.76562 130.479 7.67448 130.102 7.49219 129.773C7.3099 129.44 7.03385 129.18 6.66406 128.992C6.29427 128.799 5.82552 128.703 5.25781 128.703C4.72135 128.703 4.27865 128.784 3.92969 128.945C3.58073 129.107 3.32031 129.326 3.14844 129.602C2.98177 129.878 2.89844 130.193 2.89844 130.547C2.89844 130.786 2.94792 131.005 3.04688 131.203C3.15104 131.396 3.3099 131.576 3.52344 131.742C3.74219 131.909 4.01823 132.062 4.35156 132.203C4.6901 132.344 5.09375 132.479 5.5625 132.609C6.20833 132.792 6.76562 132.995 7.23438 133.219C7.70312 133.443 8.08854 133.695 8.39062 133.977C8.69792 134.253 8.92448 134.568 9.07031 134.922C9.22135 135.271 9.29688 135.667 9.29688 136.109C9.29688 136.573 9.20312 136.992 9.01562 137.367C8.82812 137.742 8.5599 138.062 8.21094 138.328C7.86198 138.594 7.44271 138.799 6.95312 138.945C6.46875 139.086 5.92708 139.156 5.32812 139.156C4.80208 139.156 4.28385 139.083 3.77344 138.938C3.26823 138.792 2.80729 138.573 2.39062 138.281C1.97917 137.99 1.64844 137.63 1.39844 137.203C1.15365 136.771 1.03125 136.271 1.03125 135.703H2.53125C2.53125 136.094 2.60677 136.43 2.75781 136.711C2.90885 136.987 3.11458 137.216 3.375 137.398C3.64062 137.581 3.9401 137.716 4.27344 137.805C4.61198 137.888 4.96354 137.93 5.32812 137.93C5.85417 137.93 6.29948 137.857 6.66406 137.711C7.02865 137.565 7.30469 137.357 7.49219 137.086C7.6849 136.815 7.78125 136.495 7.78125 136.125ZM14.5078 139.156C13.9193 139.156 13.3854 139.057 12.9062 138.859C12.4323 138.656 12.0234 138.372 11.6797 138.008C11.3411 137.643 11.0807 137.211 10.8984 136.711C10.7161 136.211 10.625 135.664 10.625 135.07V134.742C10.625 134.055 10.7266 133.443 10.9297 132.906C11.1328 132.365 11.4089 131.906 11.7578 131.531C12.1068 131.156 12.5026 130.872 12.9453 130.68C13.388 130.487 13.8464 130.391 14.3203 130.391C14.9245 130.391 15.4453 130.495 15.8828 130.703C16.3255 130.911 16.6875 131.203 16.9688 131.578C17.25 131.948 17.4583 132.385 17.5938 132.891C17.7292 133.391 17.7969 133.938 17.7969 134.531V135.18H11.4844V134H16.3516V133.891C16.3307 133.516 16.2526 133.151 16.1172 132.797C15.987 132.443 15.7786 132.151 15.4922 131.922C15.2057 131.693 14.8151 131.578 14.3203 131.578C13.9922 131.578 13.6901 131.648 13.4141 131.789C13.138 131.924 12.901 132.128 12.7031 132.398C12.5052 132.669 12.3516 133 12.2422 133.391C12.1328 133.781 12.0781 134.232 12.0781 134.742V135.07C12.0781 135.471 12.1328 135.849 12.2422 136.203C12.3568 136.552 12.5208 136.859 12.7344 137.125C12.9531 137.391 13.2161 137.599 13.5234 137.75C13.8359 137.901 14.1901 137.977 14.5859 137.977C15.0964 137.977 15.5286 137.872 15.8828 137.664C16.237 137.456 16.5469 137.177 16.8125 136.828L17.6875 137.523C17.5052 137.799 17.2734 138.062 16.9922 138.312C16.7109 138.562 16.3646 138.766 15.9531 138.922C15.5469 139.078 15.0651 139.156 14.5078 139.156ZM22.8672 137.969C23.2109 137.969 23.5286 137.898 23.8203 137.758C24.112 137.617 24.3516 137.424 24.5391 137.18C24.7266 136.93 24.8333 136.646 24.8594 136.328H26.2344C26.2083 136.828 26.0391 137.294 25.7266 137.727C25.4193 138.154 25.0156 138.5 24.5156 138.766C24.0156 139.026 23.4661 139.156 22.8672 139.156C22.2318 139.156 21.6771 139.044 21.2031 138.82C20.7344 138.596 20.3438 138.289 20.0312 137.898C19.724 137.508 19.4922 137.06 19.3359 136.555C19.1849 136.044 19.1094 135.505 19.1094 134.938V134.609C19.1094 134.042 19.1849 133.505 19.3359 133C19.4922 132.49 19.724 132.039 20.0312 131.648C20.3438 131.258 20.7344 130.951 21.2031 130.727C21.6771 130.503 22.2318 130.391 22.8672 130.391C23.5286 130.391 24.1068 130.526 24.6016 130.797C25.0964 131.062 25.4844 131.427 25.7656 131.891C26.0521 132.349 26.2083 132.87 26.2344 133.453H24.8594C24.8333 133.104 24.7344 132.789 24.5625 132.508C24.3958 132.227 24.1667 132.003 23.875 131.836C23.5885 131.664 23.2526 131.578 22.8672 131.578C22.4245 131.578 22.0521 131.667 21.75 131.844C21.4531 132.016 21.2161 132.25 21.0391 132.547C20.8672 132.839 20.7422 133.164 20.6641 133.523C20.5911 133.878 20.5547 134.24 20.5547 134.609V134.938C20.5547 135.307 20.5911 135.672 20.6641 136.031C20.737 136.391 20.8594 136.716 21.0312 137.008C21.2083 137.299 21.4453 137.534 21.7422 137.711C22.0443 137.883 22.4193 137.969 22.8672 137.969ZM27.4766 134.867V134.688C27.4766 134.078 27.5651 133.513 27.7422 132.992C27.9193 132.466 28.1745 132.01 28.5078 131.625C28.8411 131.234 29.2448 130.932 29.7188 130.719C30.1927 130.5 30.724 130.391 31.3125 130.391C31.9062 130.391 32.4401 130.5 32.9141 130.719C33.3932 130.932 33.7995 131.234 34.1328 131.625C34.4714 132.01 34.7292 132.466 34.9062 132.992C35.0833 133.513 35.1719 134.078 35.1719 134.688V134.867C35.1719 135.477 35.0833 136.042 34.9062 136.562C34.7292 137.083 34.4714 137.539 34.1328 137.93C33.7995 138.315 33.3958 138.617 32.9219 138.836C32.4531 139.049 31.9219 139.156 31.3281 139.156C30.7344 139.156 30.2005 139.049 29.7266 138.836C29.2526 138.617 28.8464 138.315 28.5078 137.93C28.1745 137.539 27.9193 137.083 27.7422 136.562C27.5651 136.042 27.4766 135.477 27.4766 134.867ZM28.9219 134.688V134.867C28.9219 135.289 28.9714 135.688 29.0703 136.062C29.1693 136.432 29.3177 136.76 29.5156 137.047C29.7188 137.333 29.9714 137.56 30.2734 137.727C30.5755 137.888 30.9271 137.969 31.3281 137.969C31.724 137.969 32.0703 137.888 32.3672 137.727C32.6693 137.56 32.9193 137.333 33.1172 137.047C33.3151 136.76 33.4635 136.432 33.5625 136.062C33.6667 135.688 33.7188 135.289 33.7188 134.867V134.688C33.7188 134.271 33.6667 133.878 33.5625 133.508C33.4635 133.133 33.3125 132.802 33.1094 132.516C32.9115 132.224 32.6615 131.995 32.3594 131.828C32.0625 131.661 31.7135 131.578 31.3125 131.578C30.9167 131.578 30.5677 131.661 30.2656 131.828C29.9688 131.995 29.7188 132.224 29.5156 132.516C29.3177 132.802 29.1693 133.133 29.0703 133.508C28.9714 133.878 28.9219 134.271 28.9219 134.688ZM38.4297 132.352V139H36.9844V130.547H38.3516L38.4297 132.352ZM38.0859 134.453L37.4844 134.43C37.4896 133.852 37.5755 133.318 37.7422 132.828C37.9089 132.333 38.1432 131.904 38.4453 131.539C38.7474 131.174 39.1068 130.893 39.5234 130.695C39.9453 130.492 40.4115 130.391 40.9219 130.391C41.3385 130.391 41.7135 130.448 42.0469 130.562C42.3802 130.672 42.6641 130.849 42.8984 131.094C43.138 131.339 43.3203 131.656 43.4453 132.047C43.5703 132.432 43.6328 132.904 43.6328 133.461V139H42.1797V133.445C42.1797 133.003 42.1146 132.648 41.9844 132.383C41.8542 132.112 41.6641 131.917 41.4141 131.797C41.1641 131.672 40.8568 131.609 40.4922 131.609C40.1328 131.609 39.8047 131.685 39.5078 131.836C39.2161 131.987 38.9635 132.195 38.75 132.461C38.5417 132.727 38.3776 133.031 38.2578 133.375C38.1432 133.714 38.0859 134.073 38.0859 134.453ZM51.1562 137.359V127H52.6094V139H51.2812L51.1562 137.359ZM45.4688 134.867V134.703C45.4688 134.057 45.5469 133.471 45.7031 132.945C45.8646 132.414 46.0911 131.958 46.3828 131.578C46.6797 131.198 47.0312 130.906 47.4375 130.703C47.849 130.495 48.3073 130.391 48.8125 130.391C49.3438 130.391 49.8073 130.484 50.2031 130.672C50.6042 130.854 50.9427 131.122 51.2188 131.477C51.5 131.826 51.7214 132.247 51.8828 132.742C52.0443 133.237 52.1562 133.797 52.2188 134.422V135.141C52.1615 135.76 52.0495 136.318 51.8828 136.812C51.7214 137.307 51.5 137.729 51.2188 138.078C50.9427 138.427 50.6042 138.695 50.2031 138.883C49.8021 139.065 49.3333 139.156 48.7969 139.156C48.3021 139.156 47.849 139.049 47.4375 138.836C47.0312 138.622 46.6797 138.323 46.3828 137.938C46.0911 137.552 45.8646 137.099 45.7031 136.578C45.5469 136.052 45.4688 135.482 45.4688 134.867ZM46.9219 134.703V134.867C46.9219 135.289 46.9635 135.685 47.0469 136.055C47.1354 136.424 47.2708 136.75 47.4531 137.031C47.6354 137.312 47.8672 137.534 48.1484 137.695C48.4297 137.852 48.7656 137.93 49.1562 137.93C49.6354 137.93 50.0286 137.828 50.3359 137.625C50.6484 137.422 50.8984 137.154 51.0859 136.82C51.2734 136.487 51.4193 136.125 51.5234 135.734V133.852C51.4609 133.565 51.3698 133.289 51.25 133.023C51.1354 132.753 50.9844 132.513 50.7969 132.305C50.6146 132.091 50.388 131.922 50.1172 131.797C49.8516 131.672 49.5365 131.609 49.1719 131.609C48.776 131.609 48.4349 131.693 48.1484 131.859C47.8672 132.021 47.6354 132.245 47.4531 132.531C47.2708 132.812 47.1354 133.141 47.0469 133.516C46.9635 133.885 46.9219 134.281 46.9219 134.703ZM59.8438 137.555V133.203C59.8438 132.87 59.776 132.581 59.6406 132.336C59.5104 132.086 59.3125 131.893 59.0469 131.758C58.7812 131.622 58.4531 131.555 58.0625 131.555C57.6979 131.555 57.3776 131.617 57.1016 131.742C56.8307 131.867 56.6172 132.031 56.4609 132.234C56.3099 132.438 56.2344 132.656 56.2344 132.891H54.7891C54.7891 132.589 54.8672 132.289 55.0234 131.992C55.1797 131.695 55.4036 131.427 55.6953 131.188C55.9922 130.943 56.3464 130.75 56.7578 130.609C57.1745 130.464 57.638 130.391 58.1484 130.391C58.763 130.391 59.3047 130.495 59.7734 130.703C60.2474 130.911 60.6172 131.227 60.8828 131.648C61.1536 132.065 61.2891 132.589 61.2891 133.219V137.156C61.2891 137.438 61.3125 137.737 61.3594 138.055C61.4115 138.372 61.487 138.646 61.5859 138.875V139H60.0781C60.0052 138.833 59.9479 138.612 59.9062 138.336C59.8646 138.055 59.8438 137.794 59.8438 137.555ZM60.0938 133.875L60.1094 134.891H58.6484C58.237 134.891 57.8698 134.924 57.5469 134.992C57.224 135.055 56.9531 135.151 56.7344 135.281C56.5156 135.411 56.349 135.576 56.2344 135.773C56.1198 135.966 56.0625 136.193 56.0625 136.453C56.0625 136.719 56.1224 136.961 56.2422 137.18C56.362 137.398 56.5417 137.573 56.7812 137.703C57.026 137.828 57.3255 137.891 57.6797 137.891C58.1224 137.891 58.513 137.797 58.8516 137.609C59.1901 137.422 59.4583 137.193 59.6562 136.922C59.8594 136.651 59.9688 136.388 59.9844 136.133L60.6016 136.828C60.5651 137.047 60.4661 137.289 60.3047 137.555C60.1432 137.82 59.9271 138.076 59.6562 138.32C59.3906 138.56 59.0729 138.76 58.7031 138.922C58.3385 139.078 57.9271 139.156 57.4688 139.156C56.8958 139.156 56.3932 139.044 55.9609 138.82C55.5339 138.596 55.2005 138.297 54.9609 137.922C54.7266 137.542 54.6094 137.117 54.6094 136.648C54.6094 136.195 54.6979 135.797 54.875 135.453C55.0521 135.104 55.3073 134.815 55.6406 134.586C55.974 134.352 56.375 134.174 56.8438 134.055C57.3125 133.935 57.8359 133.875 58.4141 133.875H60.0938ZM65.0078 131.875V139H63.5625V130.547H64.9688L65.0078 131.875ZM67.6484 130.5L67.6406 131.844C67.5208 131.818 67.4062 131.802 67.2969 131.797C67.1927 131.786 67.0729 131.781 66.9375 131.781C66.6042 131.781 66.3099 131.833 66.0547 131.938C65.7995 132.042 65.5833 132.188 65.4062 132.375C65.2292 132.562 65.0885 132.786 64.9844 133.047C64.8854 133.302 64.8203 133.583 64.7891 133.891L64.3828 134.125C64.3828 133.615 64.4323 133.135 64.5312 132.688C64.6354 132.24 64.7943 131.844 65.0078 131.5C65.2214 131.151 65.4922 130.88 65.8203 130.688C66.1536 130.49 66.5495 130.391 67.0078 130.391C67.112 130.391 67.2318 130.404 67.3672 130.43C67.5026 130.451 67.5964 130.474 67.6484 130.5ZM71.5 138.125L73.8516 130.547H75.3984L72.0078 140.305C71.9297 140.513 71.8255 140.737 71.6953 140.977C71.5703 141.221 71.4089 141.453 71.2109 141.672C71.013 141.891 70.7734 142.068 70.4922 142.203C70.2161 142.344 69.8854 142.414 69.5 142.414C69.3854 142.414 69.2396 142.398 69.0625 142.367C68.8854 142.336 68.7604 142.31 68.6875 142.289L68.6797 141.117C68.7214 141.122 68.7865 141.128 68.875 141.133C68.9688 141.143 69.0339 141.148 69.0703 141.148C69.3984 141.148 69.6771 141.104 69.9062 141.016C70.1354 140.932 70.3281 140.789 70.4844 140.586C70.6458 140.388 70.7839 140.115 70.8984 139.766L71.5 138.125ZM69.7734 130.547L71.9688 137.109L72.3438 138.633L71.3047 139.164L68.1953 130.547H69.7734Z" fill="white"/>
<rect x="0.5" y="151.5" width="151" height="71" rx="15.5" fill="white"/>
<rect x="0.5" y="151.5" width="151" height="71" rx="15.5" stroke="white"/>
<rect x="16" y="167" width="40" height="40" rx="8" fill="#F5F5F5"/>
<path d="M82.1562 186.836V191C82.0156 191.208 81.7917 191.443 81.4844 191.703C81.1771 191.958 80.7526 192.182 80.2109 192.375C79.6745 192.562 78.9818 192.656 78.1328 192.656C77.4401 192.656 76.8021 192.536 76.2188 192.297C75.6406 192.052 75.138 191.698 74.7109 191.234C74.2891 190.766 73.9609 190.198 73.7266 189.531C73.4974 188.859 73.3828 188.099 73.3828 187.25V186.367C73.3828 185.518 73.4818 184.76 73.6797 184.094C73.8828 183.427 74.1797 182.862 74.5703 182.398C74.9609 181.93 75.4401 181.576 76.0078 181.336C76.5755 181.091 77.2266 180.969 77.9609 180.969C78.8307 180.969 79.5573 181.12 80.1406 181.422C80.7292 181.719 81.1875 182.13 81.5156 182.656C81.849 183.182 82.0625 183.781 82.1562 184.453H80.6484C80.5807 184.042 80.4453 183.667 80.2422 183.328C80.0443 182.99 79.7604 182.719 79.3906 182.516C79.0208 182.307 78.5443 182.203 77.9609 182.203C77.4349 182.203 76.9792 182.299 76.5938 182.492C76.2083 182.685 75.8906 182.961 75.6406 183.32C75.3906 183.68 75.2031 184.115 75.0781 184.625C74.9583 185.135 74.8984 185.711 74.8984 186.352V187.25C74.8984 187.906 74.974 188.492 75.125 189.008C75.2812 189.523 75.5026 189.964 75.7891 190.328C76.0755 190.688 76.4167 190.961 76.8125 191.148C77.2135 191.336 77.6562 191.43 78.1406 191.43C78.6771 191.43 79.112 191.385 79.4453 191.297C79.7786 191.203 80.0391 191.094 80.2266 190.969C80.4141 190.839 80.5573 190.716 80.6562 190.602V188.055H78.0234V186.836H82.1562ZM85.8828 185.375V192.5H84.4375V184.047H85.8438L85.8828 185.375ZM88.5234 184L88.5156 185.344C88.3958 185.318 88.2812 185.302 88.1719 185.297C88.0677 185.286 87.9479 185.281 87.8125 185.281C87.4792 185.281 87.1849 185.333 86.9297 185.438C86.6745 185.542 86.4583 185.688 86.2812 185.875C86.1042 186.062 85.9635 186.286 85.8594 186.547C85.7604 186.802 85.6953 187.083 85.6641 187.391L85.2578 187.625C85.2578 187.115 85.3073 186.635 85.4062 186.188C85.5104 185.74 85.6693 185.344 85.8828 185C86.0964 184.651 86.3672 184.38 86.6953 184.188C87.0286 183.99 87.4245 183.891 87.8828 183.891C87.987 183.891 88.1068 183.904 88.2422 183.93C88.3776 183.951 88.4714 183.974 88.5234 184ZM94.5312 191.055V186.703C94.5312 186.37 94.4635 186.081 94.3281 185.836C94.1979 185.586 94 185.393 93.7344 185.258C93.4688 185.122 93.1406 185.055 92.75 185.055C92.3854 185.055 92.0651 185.117 91.7891 185.242C91.5182 185.367 91.3047 185.531 91.1484 185.734C90.9974 185.938 90.9219 186.156 90.9219 186.391H89.4766C89.4766 186.089 89.5547 185.789 89.7109 185.492C89.8672 185.195 90.0911 184.927 90.3828 184.688C90.6797 184.443 91.0339 184.25 91.4453 184.109C91.862 183.964 92.3255 183.891 92.8359 183.891C93.4505 183.891 93.9922 183.995 94.4609 184.203C94.9349 184.411 95.3047 184.727 95.5703 185.148C95.8411 185.565 95.9766 186.089 95.9766 186.719V190.656C95.9766 190.938 96 191.237 96.0469 191.555C96.099 191.872 96.1745 192.146 96.2734 192.375V192.5H94.7656C94.6927 192.333 94.6354 192.112 94.5938 191.836C94.5521 191.555 94.5312 191.294 94.5312 191.055ZM94.7812 187.375L94.7969 188.391H93.3359C92.9245 188.391 92.5573 188.424 92.2344 188.492C91.9115 188.555 91.6406 188.651 91.4219 188.781C91.2031 188.911 91.0365 189.076 90.9219 189.273C90.8073 189.466 90.75 189.693 90.75 189.953C90.75 190.219 90.8099 190.461 90.9297 190.68C91.0495 190.898 91.2292 191.073 91.4688 191.203C91.7135 191.328 92.013 191.391 92.3672 191.391C92.8099 191.391 93.2005 191.297 93.5391 191.109C93.8776 190.922 94.1458 190.693 94.3438 190.422C94.5469 190.151 94.6562 189.888 94.6719 189.633L95.2891 190.328C95.2526 190.547 95.1536 190.789 94.9922 191.055C94.8307 191.32 94.6146 191.576 94.3438 191.82C94.0781 192.06 93.7604 192.26 93.3906 192.422C93.026 192.578 92.6146 192.656 92.1562 192.656C91.5833 192.656 91.0807 192.544 90.6484 192.32C90.2214 192.096 89.888 191.797 89.6484 191.422C89.4141 191.042 89.2969 190.617 89.2969 190.148C89.2969 189.695 89.3854 189.297 89.5625 188.953C89.7396 188.604 89.9948 188.315 90.3281 188.086C90.6615 187.852 91.0625 187.674 91.5312 187.555C92 187.435 92.5234 187.375 93.1016 187.375H94.7812ZM100.5 191.625L102.852 184.047H104.398L101.008 193.805C100.93 194.013 100.826 194.237 100.695 194.477C100.57 194.721 100.409 194.953 100.211 195.172C100.013 195.391 99.7734 195.568 99.4922 195.703C99.2161 195.844 98.8854 195.914 98.5 195.914C98.3854 195.914 98.2396 195.898 98.0625 195.867C97.8854 195.836 97.7604 195.81 97.6875 195.789L97.6797 194.617C97.7214 194.622 97.7865 194.628 97.875 194.633C97.9688 194.643 98.0339 194.648 98.0703 194.648C98.3984 194.648 98.6771 194.604 98.9062 194.516C99.1354 194.432 99.3281 194.289 99.4844 194.086C99.6458 193.888 99.7839 193.615 99.8984 193.266L100.5 191.625ZM98.7734 184.047L100.969 190.609L101.344 192.133L100.305 192.664L97.1953 184.047H98.7734ZM114.266 181.062V192.5H112.82V182.867L109.906 183.93V182.625L114.039 181.062H114.266ZM125.656 185.906V187.641C125.656 188.573 125.573 189.359 125.406 190C125.24 190.641 125 191.156 124.688 191.547C124.375 191.938 123.997 192.221 123.555 192.398C123.117 192.57 122.622 192.656 122.07 192.656C121.633 192.656 121.229 192.602 120.859 192.492C120.49 192.383 120.156 192.208 119.859 191.969C119.568 191.724 119.318 191.406 119.109 191.016C118.901 190.625 118.742 190.151 118.633 189.594C118.523 189.036 118.469 188.385 118.469 187.641V185.906C118.469 184.974 118.552 184.193 118.719 183.562C118.891 182.932 119.133 182.427 119.445 182.047C119.758 181.661 120.133 181.385 120.57 181.219C121.013 181.052 121.508 180.969 122.055 180.969C122.497 180.969 122.904 181.023 123.273 181.133C123.648 181.237 123.982 181.406 124.273 181.641C124.565 181.87 124.812 182.177 125.016 182.562C125.224 182.943 125.383 183.409 125.492 183.961C125.602 184.513 125.656 185.161 125.656 185.906ZM124.203 187.875V185.664C124.203 185.154 124.172 184.706 124.109 184.32C124.052 183.93 123.966 183.596 123.852 183.32C123.737 183.044 123.591 182.82 123.414 182.648C123.242 182.477 123.042 182.352 122.812 182.273C122.589 182.19 122.336 182.148 122.055 182.148C121.711 182.148 121.406 182.214 121.141 182.344C120.875 182.469 120.651 182.669 120.469 182.945C120.292 183.221 120.156 183.583 120.062 184.031C119.969 184.479 119.922 185.023 119.922 185.664V187.875C119.922 188.385 119.951 188.836 120.008 189.227C120.07 189.617 120.161 189.956 120.281 190.242C120.401 190.523 120.547 190.755 120.719 190.938C120.891 191.12 121.089 191.255 121.312 191.344C121.542 191.427 121.794 191.469 122.07 191.469C122.424 191.469 122.734 191.401 123 191.266C123.266 191.13 123.487 190.919 123.664 190.633C123.846 190.341 123.982 189.969 124.07 189.516C124.159 189.057 124.203 188.51 124.203 187.875ZM134.656 185.906V187.641C134.656 188.573 134.573 189.359 134.406 190C134.24 190.641 134 191.156 133.688 191.547C133.375 191.938 132.997 192.221 132.555 192.398C132.117 192.57 131.622 192.656 131.07 192.656C130.633 192.656 130.229 192.602 129.859 192.492C129.49 192.383 129.156 192.208 128.859 191.969C128.568 191.724 128.318 191.406 128.109 191.016C127.901 190.625 127.742 190.151 127.633 189.594C127.523 189.036 127.469 188.385 127.469 187.641V185.906C127.469 184.974 127.552 184.193 127.719 183.562C127.891 182.932 128.133 182.427 128.445 182.047C128.758 181.661 129.133 181.385 129.57 181.219C130.013 181.052 130.508 180.969 131.055 180.969C131.497 180.969 131.904 181.023 132.273 181.133C132.648 181.237 132.982 181.406 133.273 181.641C133.565 181.87 133.812 182.177 134.016 182.562C134.224 182.943 134.383 183.409 134.492 183.961C134.602 184.513 134.656 185.161 134.656 185.906ZM133.203 187.875V185.664C133.203 185.154 133.172 184.706 133.109 184.32C133.052 183.93 132.966 183.596 132.852 183.32C132.737 183.044 132.591 182.82 132.414 182.648C132.242 182.477 132.042 182.352 131.812 182.273C131.589 182.19 131.336 182.148 131.055 182.148C130.711 182.148 130.406 182.214 130.141 182.344C129.875 182.469 129.651 182.669 129.469 182.945C129.292 183.221 129.156 183.583 129.062 184.031C128.969 184.479 128.922 185.023 128.922 185.664V187.875C128.922 188.385 128.951 188.836 129.008 189.227C129.07 189.617 129.161 189.956 129.281 190.242C129.401 190.523 129.547 190.755 129.719 190.938C129.891 191.12 130.089 191.255 130.312 191.344C130.542 191.427 130.794 191.469 131.07 191.469C131.424 191.469 131.734 191.401 132 191.266C132.266 191.13 132.487 190.919 132.664 190.633C132.846 190.341 132.982 189.969 133.07 189.516C133.159 189.057 133.203 188.51 133.203 187.875Z" fill="#171717"/>
<rect x="168.5" y="151.5" width="151" height="71" rx="15.5" fill="#171717"/>
<rect x="168.5" y="151.5" width="151" height="71" rx="15.5" stroke="white"/>
<rect x="184" y="167" width="40" height="40" rx="8" fill="#262626"/>
<path d="M250.156 186.836V191C250.016 191.208 249.792 191.443 249.484 191.703C249.177 191.958 248.753 192.182 248.211 192.375C247.674 192.562 246.982 192.656 246.133 192.656C245.44 192.656 244.802 192.536 244.219 192.297C243.641 192.052 243.138 191.698 242.711 191.234C242.289 190.766 241.961 190.198 241.727 189.531C241.497 188.859 241.383 188.099 241.383 187.25V186.367C241.383 185.518 241.482 184.76 241.68 184.094C241.883 183.427 242.18 182.862 242.57 182.398C242.961 181.93 243.44 181.576 244.008 181.336C244.576 181.091 245.227 180.969 245.961 180.969C246.831 180.969 247.557 181.12 248.141 181.422C248.729 181.719 249.188 182.13 249.516 182.656C249.849 183.182 250.062 183.781 250.156 184.453H248.648C248.581 184.042 248.445 183.667 248.242 183.328C248.044 182.99 247.76 182.719 247.391 182.516C247.021 182.307 246.544 182.203 245.961 182.203C245.435 182.203 244.979 182.299 244.594 182.492C244.208 182.685 243.891 182.961 243.641 183.32C243.391 183.68 243.203 184.115 243.078 184.625C242.958 185.135 242.898 185.711 242.898 186.352V187.25C242.898 187.906 242.974 188.492 243.125 189.008C243.281 189.523 243.503 189.964 243.789 190.328C244.076 190.688 244.417 190.961 244.812 191.148C245.214 191.336 245.656 191.43 246.141 191.43C246.677 191.43 247.112 191.385 247.445 191.297C247.779 191.203 248.039 191.094 248.227 190.969C248.414 190.839 248.557 190.716 248.656 190.602V188.055H246.023V186.836H250.156ZM253.883 185.375V192.5H252.438V184.047H253.844L253.883 185.375ZM256.523 184L256.516 185.344C256.396 185.318 256.281 185.302 256.172 185.297C256.068 185.286 255.948 185.281 255.812 185.281C255.479 185.281 255.185 185.333 254.93 185.438C254.674 185.542 254.458 185.688 254.281 185.875C254.104 186.062 253.964 186.286 253.859 186.547C253.76 186.802 253.695 187.083 253.664 187.391L253.258 187.625C253.258 187.115 253.307 186.635 253.406 186.188C253.51 185.74 253.669 185.344 253.883 185C254.096 184.651 254.367 184.38 254.695 184.188C255.029 183.99 255.424 183.891 255.883 183.891C255.987 183.891 256.107 183.904 256.242 183.93C256.378 183.951 256.471 183.974 256.523 184ZM262.531 191.055V186.703C262.531 186.37 262.464 186.081 262.328 185.836C262.198 185.586 262 185.393 261.734 185.258C261.469 185.122 261.141 185.055 260.75 185.055C260.385 185.055 260.065 185.117 259.789 185.242C259.518 185.367 259.305 185.531 259.148 185.734C258.997 185.938 258.922 186.156 258.922 186.391H257.477C257.477 186.089 257.555 185.789 257.711 185.492C257.867 185.195 258.091 184.927 258.383 184.688C258.68 184.443 259.034 184.25 259.445 184.109C259.862 183.964 260.326 183.891 260.836 183.891C261.451 183.891 261.992 183.995 262.461 184.203C262.935 184.411 263.305 184.727 263.57 185.148C263.841 185.565 263.977 186.089 263.977 186.719V190.656C263.977 190.938 264 191.237 264.047 191.555C264.099 191.872 264.174 192.146 264.273 192.375V192.5H262.766C262.693 192.333 262.635 192.112 262.594 191.836C262.552 191.555 262.531 191.294 262.531 191.055ZM262.781 187.375L262.797 188.391H261.336C260.924 188.391 260.557 188.424 260.234 188.492C259.911 188.555 259.641 188.651 259.422 188.781C259.203 188.911 259.036 189.076 258.922 189.273C258.807 189.466 258.75 189.693 258.75 189.953C258.75 190.219 258.81 190.461 258.93 190.68C259.049 190.898 259.229 191.073 259.469 191.203C259.714 191.328 260.013 191.391 260.367 191.391C260.81 191.391 261.201 191.297 261.539 191.109C261.878 190.922 262.146 190.693 262.344 190.422C262.547 190.151 262.656 189.888 262.672 189.633L263.289 190.328C263.253 190.547 263.154 190.789 262.992 191.055C262.831 191.32 262.615 191.576 262.344 191.82C262.078 192.06 261.76 192.26 261.391 192.422C261.026 192.578 260.615 192.656 260.156 192.656C259.583 192.656 259.081 192.544 258.648 192.32C258.221 192.096 257.888 191.797 257.648 191.422C257.414 191.042 257.297 190.617 257.297 190.148C257.297 189.695 257.385 189.297 257.562 188.953C257.74 188.604 257.995 188.315 258.328 188.086C258.661 187.852 259.062 187.674 259.531 187.555C260 187.435 260.523 187.375 261.102 187.375H262.781ZM268.5 191.625L270.852 184.047H272.398L269.008 193.805C268.93 194.013 268.826 194.237 268.695 194.477C268.57 194.721 268.409 194.953 268.211 195.172C268.013 195.391 267.773 195.568 267.492 195.703C267.216 195.844 266.885 195.914 266.5 195.914C266.385 195.914 266.24 195.898 266.062 195.867C265.885 195.836 265.76 195.81 265.688 195.789L265.68 194.617C265.721 194.622 265.786 194.628 265.875 194.633C265.969 194.643 266.034 194.648 266.07 194.648C266.398 194.648 266.677 194.604 266.906 194.516C267.135 194.432 267.328 194.289 267.484 194.086C267.646 193.888 267.784 193.615 267.898 193.266L268.5 191.625ZM266.773 184.047L268.969 190.609L269.344 192.133L268.305 192.664L265.195 184.047H266.773ZM284.688 189.422C284.688 190.115 284.526 190.703 284.203 191.188C283.885 191.667 283.453 192.031 282.906 192.281C282.365 192.531 281.753 192.656 281.07 192.656C280.388 192.656 279.773 192.531 279.227 192.281C278.68 192.031 278.247 191.667 277.93 191.188C277.612 190.703 277.453 190.115 277.453 189.422C277.453 188.969 277.539 188.555 277.711 188.18C277.888 187.799 278.135 187.469 278.453 187.188C278.776 186.906 279.156 186.69 279.594 186.539C280.036 186.383 280.523 186.305 281.055 186.305C281.753 186.305 282.375 186.44 282.922 186.711C283.469 186.977 283.898 187.344 284.211 187.812C284.529 188.281 284.688 188.818 284.688 189.422ZM283.234 189.391C283.234 188.969 283.143 188.596 282.961 188.273C282.779 187.945 282.523 187.69 282.195 187.508C281.867 187.326 281.487 187.234 281.055 187.234C280.612 187.234 280.229 187.326 279.906 187.508C279.589 187.69 279.341 187.945 279.164 188.273C278.987 188.596 278.898 188.969 278.898 189.391C278.898 189.828 278.984 190.203 279.156 190.516C279.333 190.823 279.583 191.06 279.906 191.227C280.234 191.388 280.622 191.469 281.07 191.469C281.518 191.469 281.904 191.388 282.227 191.227C282.549 191.06 282.797 190.823 282.969 190.516C283.146 190.203 283.234 189.828 283.234 189.391ZM284.422 184.086C284.422 184.638 284.276 185.135 283.984 185.578C283.693 186.021 283.294 186.37 282.789 186.625C282.284 186.88 281.711 187.008 281.07 187.008C280.419 187.008 279.839 186.88 279.328 186.625C278.823 186.37 278.427 186.021 278.141 185.578C277.854 185.135 277.711 184.638 277.711 184.086C277.711 183.424 277.854 182.862 278.141 182.398C278.432 181.935 278.831 181.581 279.336 181.336C279.841 181.091 280.417 180.969 281.062 180.969C281.714 180.969 282.292 181.091 282.797 181.336C283.302 181.581 283.698 181.935 283.984 182.398C284.276 182.862 284.422 183.424 284.422 184.086ZM282.977 184.109C282.977 183.729 282.896 183.393 282.734 183.102C282.573 182.81 282.349 182.581 282.062 182.414C281.776 182.242 281.443 182.156 281.062 182.156C280.682 182.156 280.349 182.237 280.062 182.398C279.781 182.555 279.56 182.779 279.398 183.07C279.242 183.362 279.164 183.708 279.164 184.109C279.164 184.5 279.242 184.841 279.398 185.133C279.56 185.424 279.784 185.651 280.07 185.812C280.357 185.974 280.69 186.055 281.07 186.055C281.451 186.055 281.781 185.974 282.062 185.812C282.349 185.651 282.573 185.424 282.734 185.133C282.896 184.841 282.977 184.5 282.977 184.109ZM293.656 185.906V187.641C293.656 188.573 293.573 189.359 293.406 190C293.24 190.641 293 191.156 292.688 191.547C292.375 191.938 291.997 192.221 291.555 192.398C291.117 192.57 290.622 192.656 290.07 192.656C289.633 192.656 289.229 192.602 288.859 192.492C288.49 192.383 288.156 192.208 287.859 191.969C287.568 191.724 287.318 191.406 287.109 191.016C286.901 190.625 286.742 190.151 286.633 189.594C286.523 189.036 286.469 188.385 286.469 187.641V185.906C286.469 184.974 286.552 184.193 286.719 183.562C286.891 182.932 287.133 182.427 287.445 182.047C287.758 181.661 288.133 181.385 288.57 181.219C289.013 181.052 289.508 180.969 290.055 180.969C290.497 180.969 290.904 181.023 291.273 181.133C291.648 181.237 291.982 181.406 292.273 181.641C292.565 181.87 292.812 182.177 293.016 182.562C293.224 182.943 293.383 183.409 293.492 183.961C293.602 184.513 293.656 185.161 293.656 185.906ZM292.203 187.875V185.664C292.203 185.154 292.172 184.706 292.109 184.32C292.052 183.93 291.966 183.596 291.852 183.32C291.737 183.044 291.591 182.82 291.414 182.648C291.242 182.477 291.042 182.352 290.812 182.273C290.589 182.19 290.336 182.148 290.055 182.148C289.711 182.148 289.406 182.214 289.141 182.344C288.875 182.469 288.651 182.669 288.469 182.945C288.292 183.221 288.156 183.583 288.062 184.031C287.969 184.479 287.922 185.023 287.922 185.664V187.875C287.922 188.385 287.951 188.836 288.008 189.227C288.07 189.617 288.161 189.956 288.281 190.242C288.401 190.523 288.547 190.755 288.719 190.938C288.891 191.12 289.089 191.255 289.312 191.344C289.542 191.427 289.794 191.469 290.07 191.469C290.424 191.469 290.734 191.401 291 191.266C291.266 191.13 291.487 190.919 291.664 190.633C291.846 190.341 291.982 189.969 292.07 189.516C292.159 189.057 292.203 188.51 292.203 187.875ZM302.656 185.906V187.641C302.656 188.573 302.573 189.359 302.406 190C302.24 190.641 302 191.156 301.688 191.547C301.375 191.938 300.997 192.221 300.555 192.398C300.117 192.57 299.622 192.656 299.07 192.656C298.633 192.656 298.229 192.602 297.859 192.492C297.49 192.383 297.156 192.208 296.859 191.969C296.568 191.724 296.318 191.406 296.109 191.016C295.901 190.625 295.742 190.151 295.633 189.594C295.523 189.036 295.469 188.385 295.469 187.641V185.906C295.469 184.974 295.552 184.193 295.719 183.562C295.891 182.932 296.133 182.427 296.445 182.047C296.758 181.661 297.133 181.385 297.57 181.219C298.013 181.052 298.508 180.969 299.055 180.969C299.497 180.969 299.904 181.023 300.273 181.133C300.648 181.237 300.982 181.406 301.273 181.641C301.565 181.87 301.812 182.177 302.016 182.562C302.224 182.943 302.383 183.409 302.492 183.961C302.602 184.513 302.656 185.161 302.656 185.906ZM301.203 187.875V185.664C301.203 185.154 301.172 184.706 301.109 184.32C301.052 183.93 300.966 183.596 300.852 183.32C300.737 183.044 300.591 182.82 300.414 182.648C300.242 182.477 300.042 182.352 299.812 182.273C299.589 182.19 299.336 182.148 299.055 182.148C298.711 182.148 298.406 182.214 298.141 182.344C297.875 182.469 297.651 182.669 297.469 182.945C297.292 183.221 297.156 183.583 297.062 184.031C296.969 184.479 296.922 185.023 296.922 185.664V187.875C296.922 188.385 296.951 188.836 297.008 189.227C297.07 189.617 297.161 189.956 297.281 190.242C297.401 190.523 297.547 190.755 297.719 190.938C297.891 191.12 298.089 191.255 298.312 191.344C298.542 191.427 298.794 191.469 299.07 191.469C299.424 191.469 299.734 191.401 300 191.266C300.266 191.13 300.487 190.919 300.664 190.633C300.846 190.341 300.982 189.969 301.07 189.516C301.159 189.057 301.203 188.51 301.203 187.875Z" fill="#FAFAFA"/>
<path d="M6.00781 242.625V254H4.52344V242.625H6.00781ZM9.66406 242.625V243.859H0.875V242.625H9.66406ZM13.8594 254.156C13.2708 254.156 12.737 254.057 12.2578 253.859C11.7839 253.656 11.375 253.372 11.0312 253.008C10.6927 252.643 10.4323 252.211 10.25 251.711C10.0677 251.211 9.97656 250.664 9.97656 250.07V249.742C9.97656 249.055 10.0781 248.443 10.2812 247.906C10.4844 247.365 10.7604 246.906 11.1094 246.531C11.4583 246.156 11.8542 245.872 12.2969 245.68C12.7396 245.487 13.1979 245.391 13.6719 245.391C14.276 245.391 14.7969 245.495 15.2344 245.703C15.6771 245.911 16.0391 246.203 16.3203 246.578C16.6016 246.948 16.8099 247.385 16.9453 247.891C17.0807 248.391 17.1484 248.938 17.1484 249.531V250.18H10.8359V249H15.7031V248.891C15.6823 248.516 15.6042 248.151 15.4688 247.797C15.3385 247.443 15.1302 247.151 14.8438 246.922C14.5573 246.693 14.1667 246.578 13.6719 246.578C13.3438 246.578 13.0417 246.648 12.7656 246.789C12.4896 246.924 12.2526 247.128 12.0547 247.398C11.8568 247.669 11.7031 248 11.5938 248.391C11.4844 248.781 11.4297 249.232 11.4297 249.742V250.07C11.4297 250.471 11.4844 250.849 11.5938 251.203C11.7083 251.552 11.8724 251.859 12.0859 252.125C12.3047 252.391 12.5677 252.599 12.875 252.75C13.1875 252.901 13.5417 252.977 13.9375 252.977C14.4479 252.977 14.8802 252.872 15.2344 252.664C15.5885 252.456 15.8984 252.177 16.1641 251.828L17.0391 252.523C16.8568 252.799 16.625 253.062 16.3438 253.312C16.0625 253.562 15.7161 253.766 15.3047 253.922C14.8984 254.078 14.4167 254.156 13.8594 254.156ZM20.2812 246.875V254H18.8359V245.547H20.2422L20.2812 246.875ZM22.9219 245.5L22.9141 246.844C22.7943 246.818 22.6797 246.802 22.5703 246.797C22.4661 246.786 22.3464 246.781 22.2109 246.781C21.8776 246.781 21.5833 246.833 21.3281 246.938C21.0729 247.042 20.8568 247.188 20.6797 247.375C20.5026 247.562 20.362 247.786 20.2578 248.047C20.1589 248.302 20.0938 248.583 20.0625 248.891L19.6562 249.125C19.6562 248.615 19.7057 248.135 19.8047 247.688C19.9089 247.24 20.0677 246.844 20.2812 246.5C20.4948 246.151 20.7656 245.88 21.0938 245.688C21.4271 245.49 21.8229 245.391 22.2812 245.391C22.3854 245.391 22.5052 245.404 22.6406 245.43C22.776 245.451 22.8698 245.474 22.9219 245.5ZM28.1875 245.547V246.656H23.6172V245.547H28.1875ZM25.1641 243.492H26.6094V251.906C26.6094 252.193 26.6536 252.409 26.7422 252.555C26.8307 252.701 26.9453 252.797 27.0859 252.844C27.2266 252.891 27.3776 252.914 27.5391 252.914C27.6589 252.914 27.7839 252.904 27.9141 252.883C28.0495 252.857 28.151 252.836 28.2188 252.82L28.2266 254C28.112 254.036 27.9609 254.07 27.7734 254.102C27.5911 254.138 27.3698 254.156 27.1094 254.156C26.7552 254.156 26.4297 254.086 26.1328 253.945C25.8359 253.805 25.599 253.57 25.4219 253.242C25.25 252.909 25.1641 252.461 25.1641 251.898V243.492ZM31.4531 245.547V254H30V245.547H31.4531ZM29.8906 243.305C29.8906 243.07 29.9609 242.872 30.1016 242.711C30.2474 242.549 30.4609 242.469 30.7422 242.469C31.0182 242.469 31.2292 242.549 31.375 242.711C31.526 242.872 31.6016 243.07 31.6016 243.305C31.6016 243.529 31.526 243.721 31.375 243.883C31.2292 244.039 31.0182 244.117 30.7422 244.117C30.4609 244.117 30.2474 244.039 30.1016 243.883C29.9609 243.721 29.8906 243.529 29.8906 243.305ZM38.7578 252.555V248.203C38.7578 247.87 38.6901 247.581 38.5547 247.336C38.4245 247.086 38.2266 246.893 37.9609 246.758C37.6953 246.622 37.3672 246.555 36.9766 246.555C36.612 246.555 36.2917 246.617 36.0156 246.742C35.7448 246.867 35.5312 247.031 35.375 247.234C35.224 247.438 35.1484 247.656 35.1484 247.891H33.7031C33.7031 247.589 33.7812 247.289 33.9375 246.992C34.0938 246.695 34.3177 246.427 34.6094 246.188C34.9062 245.943 35.2604 245.75 35.6719 245.609C36.0885 245.464 36.5521 245.391 37.0625 245.391C37.6771 245.391 38.2188 245.495 38.6875 245.703C39.1615 245.911 39.5312 246.227 39.7969 246.648C40.0677 247.065 40.2031 247.589 40.2031 248.219V252.156C40.2031 252.438 40.2266 252.737 40.2734 253.055C40.3255 253.372 40.401 253.646 40.5 253.875V254H38.9922C38.9193 253.833 38.862 253.612 38.8203 253.336C38.7786 253.055 38.7578 252.794 38.7578 252.555ZM39.0078 248.875L39.0234 249.891H37.5625C37.151 249.891 36.7839 249.924 36.4609 249.992C36.138 250.055 35.8672 250.151 35.6484 250.281C35.4297 250.411 35.263 250.576 35.1484 250.773C35.0339 250.966 34.9766 251.193 34.9766 251.453C34.9766 251.719 35.0365 251.961 35.1562 252.18C35.276 252.398 35.4557 252.573 35.6953 252.703C35.9401 252.828 36.2396 252.891 36.5938 252.891C37.0365 252.891 37.4271 252.797 37.7656 252.609C38.1042 252.422 38.3724 252.193 38.5703 251.922C38.7734 251.651 38.8828 251.388 38.8984 251.133L39.5156 251.828C39.4792 252.047 39.3802 252.289 39.2188 252.555C39.0573 252.82 38.8411 253.076 38.5703 253.32C38.3047 253.56 37.987 253.76 37.6172 253.922C37.2526 254.078 36.8411 254.156 36.3828 254.156C35.8099 254.156 35.3073 254.044 34.875 253.82C34.4479 253.596 34.1146 253.297 33.875 252.922C33.6406 252.542 33.5234 252.117 33.5234 251.648C33.5234 251.195 33.612 250.797 33.7891 250.453C33.9661 250.104 34.2214 249.815 34.5547 249.586C34.888 249.352 35.2891 249.174 35.7578 249.055C36.2266 248.935 36.75 248.875 37.3281 248.875H39.0078ZM43.9219 246.875V254H42.4766V245.547H43.8828L43.9219 246.875ZM46.5625 245.5L46.5547 246.844C46.4349 246.818 46.3203 246.802 46.2109 246.797C46.1068 246.786 45.987 246.781 45.8516 246.781C45.5182 246.781 45.224 246.833 44.9688 246.938C44.7135 247.042 44.4974 247.188 44.3203 247.375C44.1432 247.562 44.0026 247.786 43.8984 248.047C43.7995 248.302 43.7344 248.583 43.7031 248.891L43.2969 249.125C43.2969 248.615 43.3464 248.135 43.4453 247.688C43.5495 247.24 43.7083 246.844 43.9219 246.5C44.1354 246.151 44.4062 245.88 44.7344 245.688C45.0677 245.49 45.4635 245.391 45.9219 245.391C46.026 245.391 46.1458 245.404 46.2812 245.43C46.4167 245.451 46.5104 245.474 46.5625 245.5ZM50.4141 253.125L52.7656 245.547H54.3125L50.9219 255.305C50.8438 255.513 50.7396 255.737 50.6094 255.977C50.4844 256.221 50.3229 256.453 50.125 256.672C49.9271 256.891 49.6875 257.068 49.4062 257.203C49.1302 257.344 48.7995 257.414 48.4141 257.414C48.2995 257.414 48.1536 257.398 47.9766 257.367C47.7995 257.336 47.6745 257.31 47.6016 257.289L47.5938 256.117C47.6354 256.122 47.7005 256.128 47.7891 256.133C47.8828 256.143 47.9479 256.148 47.9844 256.148C48.3125 256.148 48.5911 256.104 48.8203 256.016C49.0495 255.932 49.2422 255.789 49.3984 255.586C49.5599 255.388 49.6979 255.115 49.8125 254.766L50.4141 253.125ZM48.6875 245.547L50.8828 252.109L51.2578 253.633L50.2188 254.164L47.1094 245.547H48.6875Z" fill="white"/>
<rect x="0.5" y="266.5" width="151" height="71" rx="15.5" fill="white"/>
<rect x="0.5" y="266.5" width="151" height="71" rx="15.5" stroke="white"/>
<rect x="16" y="282" width="40" height="40" rx="8" fill="#E5E5E5"/>
<path d="M82.1562 301.836V306C82.0156 306.208 81.7917 306.443 81.4844 306.703C81.1771 306.958 80.7526 307.182 80.2109 307.375C79.6745 307.562 78.9818 307.656 78.1328 307.656C77.4401 307.656 76.8021 307.536 76.2188 307.297C75.6406 307.052 75.138 306.698 74.7109 306.234C74.2891 305.766 73.9609 305.198 73.7266 304.531C73.4974 303.859 73.3828 303.099 73.3828 302.25V301.367C73.3828 300.518 73.4818 299.76 73.6797 299.094C73.8828 298.427 74.1797 297.862 74.5703 297.398C74.9609 296.93 75.4401 296.576 76.0078 296.336C76.5755 296.091 77.2266 295.969 77.9609 295.969C78.8307 295.969 79.5573 296.12 80.1406 296.422C80.7292 296.719 81.1875 297.13 81.5156 297.656C81.849 298.182 82.0625 298.781 82.1562 299.453H80.6484C80.5807 299.042 80.4453 298.667 80.2422 298.328C80.0443 297.99 79.7604 297.719 79.3906 297.516C79.0208 297.307 78.5443 297.203 77.9609 297.203C77.4349 297.203 76.9792 297.299 76.5938 297.492C76.2083 297.685 75.8906 297.961 75.6406 298.32C75.3906 298.68 75.2031 299.115 75.0781 299.625C74.9583 300.135 74.8984 300.711 74.8984 301.352V302.25C74.8984 302.906 74.974 303.492 75.125 304.008C75.2812 304.523 75.5026 304.964 75.7891 305.328C76.0755 305.688 76.4167 305.961 76.8125 306.148C77.2135 306.336 77.6562 306.43 78.1406 306.43C78.6771 306.43 79.112 306.385 79.4453 306.297C79.7786 306.203 80.0391 306.094 80.2266 305.969C80.4141 305.839 80.5573 305.716 80.6562 305.602V303.055H78.0234V301.836H82.1562ZM85.8828 300.375V307.5H84.4375V299.047H85.8438L85.8828 300.375ZM88.5234 299L88.5156 300.344C88.3958 300.318 88.2812 300.302 88.1719 300.297C88.0677 300.286 87.9479 300.281 87.8125 300.281C87.4792 300.281 87.1849 300.333 86.9297 300.438C86.6745 300.542 86.4583 300.688 86.2812 300.875C86.1042 301.062 85.9635 301.286 85.8594 301.547C85.7604 301.802 85.6953 302.083 85.6641 302.391L85.2578 302.625C85.2578 302.115 85.3073 301.635 85.4062 301.188C85.5104 300.74 85.6693 300.344 85.8828 300C86.0964 299.651 86.3672 299.38 86.6953 299.188C87.0286 298.99 87.4245 298.891 87.8828 298.891C87.987 298.891 88.1068 298.904 88.2422 298.93C88.3776 298.951 88.4714 298.974 88.5234 299ZM94.5312 306.055V301.703C94.5312 301.37 94.4635 301.081 94.3281 300.836C94.1979 300.586 94 300.393 93.7344 300.258C93.4688 300.122 93.1406 300.055 92.75 300.055C92.3854 300.055 92.0651 300.117 91.7891 300.242C91.5182 300.367 91.3047 300.531 91.1484 300.734C90.9974 300.938 90.9219 301.156 90.9219 301.391H89.4766C89.4766 301.089 89.5547 300.789 89.7109 300.492C89.8672 300.195 90.0911 299.927 90.3828 299.688C90.6797 299.443 91.0339 299.25 91.4453 299.109C91.862 298.964 92.3255 298.891 92.8359 298.891C93.4505 298.891 93.9922 298.995 94.4609 299.203C94.9349 299.411 95.3047 299.727 95.5703 300.148C95.8411 300.565 95.9766 301.089 95.9766 301.719V305.656C95.9766 305.938 96 306.237 96.0469 306.555C96.099 306.872 96.1745 307.146 96.2734 307.375V307.5H94.7656C94.6927 307.333 94.6354 307.112 94.5938 306.836C94.5521 306.555 94.5312 306.294 94.5312 306.055ZM94.7812 302.375L94.7969 303.391H93.3359C92.9245 303.391 92.5573 303.424 92.2344 303.492C91.9115 303.555 91.6406 303.651 91.4219 303.781C91.2031 303.911 91.0365 304.076 90.9219 304.273C90.8073 304.466 90.75 304.693 90.75 304.953C90.75 305.219 90.8099 305.461 90.9297 305.68C91.0495 305.898 91.2292 306.073 91.4688 306.203C91.7135 306.328 92.013 306.391 92.3672 306.391C92.8099 306.391 93.2005 306.297 93.5391 306.109C93.8776 305.922 94.1458 305.693 94.3438 305.422C94.5469 305.151 94.6562 304.888 94.6719 304.633L95.2891 305.328C95.2526 305.547 95.1536 305.789 94.9922 306.055C94.8307 306.32 94.6146 306.576 94.3438 306.82C94.0781 307.06 93.7604 307.26 93.3906 307.422C93.026 307.578 92.6146 307.656 92.1562 307.656C91.5833 307.656 91.0807 307.544 90.6484 307.32C90.2214 307.096 89.888 306.797 89.6484 306.422C89.4141 306.042 89.2969 305.617 89.2969 305.148C89.2969 304.695 89.3854 304.297 89.5625 303.953C89.7396 303.604 89.9948 303.315 90.3281 303.086C90.6615 302.852 91.0625 302.674 91.5312 302.555C92 302.435 92.5234 302.375 93.1016 302.375H94.7812ZM100.5 306.625L102.852 299.047H104.398L101.008 308.805C100.93 309.013 100.826 309.237 100.695 309.477C100.57 309.721 100.409 309.953 100.211 310.172C100.013 310.391 99.7734 310.568 99.4922 310.703C99.2161 310.844 98.8854 310.914 98.5 310.914C98.3854 310.914 98.2396 310.898 98.0625 310.867C97.8854 310.836 97.7604 310.81 97.6875 310.789L97.6797 309.617C97.7214 309.622 97.7865 309.628 97.875 309.633C97.9688 309.643 98.0339 309.648 98.0703 309.648C98.3984 309.648 98.6771 309.604 98.9062 309.516C99.1354 309.432 99.3281 309.289 99.4844 309.086C99.6458 308.888 99.7839 308.615 99.8984 308.266L100.5 306.625ZM98.7734 299.047L100.969 305.609L101.344 307.133L100.305 307.664L97.1953 299.047H98.7734ZM116.969 306.312V307.5H109.523V306.461L113.25 302.312C113.708 301.802 114.062 301.37 114.312 301.016C114.568 300.656 114.745 300.336 114.844 300.055C114.948 299.768 115 299.477 115 299.18C115 298.805 114.922 298.466 114.766 298.164C114.615 297.857 114.391 297.612 114.094 297.43C113.797 297.247 113.438 297.156 113.016 297.156C112.51 297.156 112.089 297.255 111.75 297.453C111.417 297.646 111.167 297.917 111 298.266C110.833 298.615 110.75 299.016 110.75 299.469H109.305C109.305 298.828 109.445 298.242 109.727 297.711C110.008 297.18 110.424 296.758 110.977 296.445C111.529 296.128 112.208 295.969 113.016 295.969C113.734 295.969 114.349 296.096 114.859 296.352C115.37 296.602 115.76 296.956 116.031 297.414C116.307 297.867 116.445 298.398 116.445 299.008C116.445 299.341 116.388 299.68 116.273 300.023C116.164 300.362 116.01 300.701 115.812 301.039C115.62 301.378 115.393 301.711 115.133 302.039C114.878 302.367 114.604 302.69 114.312 303.008L111.266 306.312H116.969ZM125.656 300.906V302.641C125.656 303.573 125.573 304.359 125.406 305C125.24 305.641 125 306.156 124.688 306.547C124.375 306.938 123.997 307.221 123.555 307.398C123.117 307.57 122.622 307.656 122.07 307.656C121.633 307.656 121.229 307.602 120.859 307.492C120.49 307.383 120.156 307.208 119.859 306.969C119.568 306.724 119.318 306.406 119.109 306.016C118.901 305.625 118.742 305.151 118.633 304.594C118.523 304.036 118.469 303.385 118.469 302.641V300.906C118.469 299.974 118.552 299.193 118.719 298.562C118.891 297.932 119.133 297.427 119.445 297.047C119.758 296.661 120.133 296.385 120.57 296.219C121.013 296.052 121.508 295.969 122.055 295.969C122.497 295.969 122.904 296.023 123.273 296.133C123.648 296.237 123.982 296.406 124.273 296.641C124.565 296.87 124.812 297.177 125.016 297.562C125.224 297.943 125.383 298.409 125.492 298.961C125.602 299.513 125.656 300.161 125.656 300.906ZM124.203 302.875V300.664C124.203 300.154 124.172 299.706 124.109 299.32C124.052 298.93 123.966 298.596 123.852 298.32C123.737 298.044 123.591 297.82 123.414 297.648C123.242 297.477 123.042 297.352 122.812 297.273C122.589 297.19 122.336 297.148 122.055 297.148C121.711 297.148 121.406 297.214 121.141 297.344C120.875 297.469 120.651 297.669 120.469 297.945C120.292 298.221 120.156 298.583 120.062 299.031C119.969 299.479 119.922 300.023 119.922 300.664V302.875C119.922 303.385 119.951 303.836 120.008 304.227C120.07 304.617 120.161 304.956 120.281 305.242C120.401 305.523 120.547 305.755 120.719 305.938C120.891 306.12 121.089 306.255 121.312 306.344C121.542 306.427 121.794 306.469 122.07 306.469C122.424 306.469 122.734 306.401 123 306.266C123.266 306.13 123.487 305.919 123.664 305.633C123.846 305.341 123.982 304.969 124.07 304.516C124.159 304.057 124.203 303.51 124.203 302.875ZM134.656 300.906V302.641C134.656 303.573 134.573 304.359 134.406 305C134.24 305.641 134 306.156 133.688 306.547C133.375 306.938 132.997 307.221 132.555 307.398C132.117 307.57 131.622 307.656 131.07 307.656C130.633 307.656 130.229 307.602 129.859 307.492C129.49 307.383 129.156 307.208 128.859 306.969C128.568 306.724 128.318 306.406 128.109 306.016C127.901 305.625 127.742 305.151 127.633 304.594C127.523 304.036 127.469 303.385 127.469 302.641V300.906C127.469 299.974 127.552 299.193 127.719 298.562C127.891 297.932 128.133 297.427 128.445 297.047C128.758 296.661 129.133 296.385 129.57 296.219C130.013 296.052 130.508 295.969 131.055 295.969C131.497 295.969 131.904 296.023 132.273 296.133C132.648 296.237 132.982 296.406 133.273 296.641C133.565 296.87 133.812 297.177 134.016 297.562C134.224 297.943 134.383 298.409 134.492 298.961C134.602 299.513 134.656 300.161 134.656 300.906ZM133.203 302.875V300.664C133.203 300.154 133.172 299.706 133.109 299.32C133.052 298.93 132.966 298.596 132.852 298.32C132.737 298.044 132.591 297.82 132.414 297.648C132.242 297.477 132.042 297.352 131.812 297.273C131.589 297.19 131.336 297.148 131.055 297.148C130.711 297.148 130.406 297.214 130.141 297.344C129.875 297.469 129.651 297.669 129.469 297.945C129.292 298.221 129.156 298.583 129.062 299.031C128.969 299.479 128.922 300.023 128.922 300.664V302.875C128.922 303.385 128.951 303.836 129.008 304.227C129.07 304.617 129.161 304.956 129.281 305.242C129.401 305.523 129.547 305.755 129.719 305.938C129.891 306.12 130.089 306.255 130.312 306.344C130.542 306.427 130.794 306.469 131.07 306.469C131.424 306.469 131.734 306.401 132 306.266C132.266 306.13 132.487 305.919 132.664 305.633C132.846 305.341 132.982 304.969 133.07 304.516C133.159 304.057 133.203 303.51 133.203 302.875Z" fill="#171717"/>
<rect x="168.5" y="266.5" width="151" height="71" rx="15.5" fill="#171717"/>
<rect x="168.5" y="266.5" width="151" height="71" rx="15.5" stroke="white"/>
<rect x="184" y="282" width="40" height="40" rx="8" fill="#404040"/>
<path d="M250.156 301.836V306C250.016 306.208 249.792 306.443 249.484 306.703C249.177 306.958 248.753 307.182 248.211 307.375C247.674 307.562 246.982 307.656 246.133 307.656C245.44 307.656 244.802 307.536 244.219 307.297C243.641 307.052 243.138 306.698 242.711 306.234C242.289 305.766 241.961 305.198 241.727 304.531C241.497 303.859 241.383 303.099 241.383 302.25V301.367C241.383 300.518 241.482 299.76 241.68 299.094C241.883 298.427 242.18 297.862 242.57 297.398C242.961 296.93 243.44 296.576 244.008 296.336C244.576 296.091 245.227 295.969 245.961 295.969C246.831 295.969 247.557 296.12 248.141 296.422C248.729 296.719 249.188 297.13 249.516 297.656C249.849 298.182 250.062 298.781 250.156 299.453H248.648C248.581 299.042 248.445 298.667 248.242 298.328C248.044 297.99 247.76 297.719 247.391 297.516C247.021 297.307 246.544 297.203 245.961 297.203C245.435 297.203 244.979 297.299 244.594 297.492C244.208 297.685 243.891 297.961 243.641 298.32C243.391 298.68 243.203 299.115 243.078 299.625C242.958 300.135 242.898 300.711 242.898 301.352V302.25C242.898 302.906 242.974 303.492 243.125 304.008C243.281 304.523 243.503 304.964 243.789 305.328C244.076 305.688 244.417 305.961 244.812 306.148C245.214 306.336 245.656 306.43 246.141 306.43C246.677 306.43 247.112 306.385 247.445 306.297C247.779 306.203 248.039 306.094 248.227 305.969C248.414 305.839 248.557 305.716 248.656 305.602V303.055H246.023V301.836H250.156ZM253.883 300.375V307.5H252.438V299.047H253.844L253.883 300.375ZM256.523 299L256.516 300.344C256.396 300.318 256.281 300.302 256.172 300.297C256.068 300.286 255.948 300.281 255.812 300.281C255.479 300.281 255.185 300.333 254.93 300.438C254.674 300.542 254.458 300.688 254.281 300.875C254.104 301.062 253.964 301.286 253.859 301.547C253.76 301.802 253.695 302.083 253.664 302.391L253.258 302.625C253.258 302.115 253.307 301.635 253.406 301.188C253.51 300.74 253.669 300.344 253.883 300C254.096 299.651 254.367 299.38 254.695 299.188C255.029 298.99 255.424 298.891 255.883 298.891C255.987 298.891 256.107 298.904 256.242 298.93C256.378 298.951 256.471 298.974 256.523 299ZM262.531 306.055V301.703C262.531 301.37 262.464 301.081 262.328 300.836C262.198 300.586 262 300.393 261.734 300.258C261.469 300.122 261.141 300.055 260.75 300.055C260.385 300.055 260.065 300.117 259.789 300.242C259.518 300.367 259.305 300.531 259.148 300.734C258.997 300.938 258.922 301.156 258.922 301.391H257.477C257.477 301.089 257.555 300.789 257.711 300.492C257.867 300.195 258.091 299.927 258.383 299.688C258.68 299.443 259.034 299.25 259.445 299.109C259.862 298.964 260.326 298.891 260.836 298.891C261.451 298.891 261.992 298.995 262.461 299.203C262.935 299.411 263.305 299.727 263.57 300.148C263.841 300.565 263.977 301.089 263.977 301.719V305.656C263.977 305.938 264 306.237 264.047 306.555C264.099 306.872 264.174 307.146 264.273 307.375V307.5H262.766C262.693 307.333 262.635 307.112 262.594 306.836C262.552 306.555 262.531 306.294 262.531 306.055ZM262.781 302.375L262.797 303.391H261.336C260.924 303.391 260.557 303.424 260.234 303.492C259.911 303.555 259.641 303.651 259.422 303.781C259.203 303.911 259.036 304.076 258.922 304.273C258.807 304.466 258.75 304.693 258.75 304.953C258.75 305.219 258.81 305.461 258.93 305.68C259.049 305.898 259.229 306.073 259.469 306.203C259.714 306.328 260.013 306.391 260.367 306.391C260.81 306.391 261.201 306.297 261.539 306.109C261.878 305.922 262.146 305.693 262.344 305.422C262.547 305.151 262.656 304.888 262.672 304.633L263.289 305.328C263.253 305.547 263.154 305.789 262.992 306.055C262.831 306.32 262.615 306.576 262.344 306.82C262.078 307.06 261.76 307.26 261.391 307.422C261.026 307.578 260.615 307.656 260.156 307.656C259.583 307.656 259.081 307.544 258.648 307.32C258.221 307.096 257.888 306.797 257.648 306.422C257.414 306.042 257.297 305.617 257.297 305.148C257.297 304.695 257.385 304.297 257.562 303.953C257.74 303.604 257.995 303.315 258.328 303.086C258.661 302.852 259.062 302.674 259.531 302.555C260 302.435 260.523 302.375 261.102 302.375H262.781ZM268.5 306.625L270.852 299.047H272.398L269.008 308.805C268.93 309.013 268.826 309.237 268.695 309.477C268.57 309.721 268.409 309.953 268.211 310.172C268.013 310.391 267.773 310.568 267.492 310.703C267.216 310.844 266.885 310.914 266.5 310.914C266.385 310.914 266.24 310.898 266.062 310.867C265.885 310.836 265.76 310.81 265.688 310.789L265.68 309.617C265.721 309.622 265.786 309.628 265.875 309.633C265.969 309.643 266.034 309.648 266.07 309.648C266.398 309.648 266.677 309.604 266.906 309.516C267.135 309.432 267.328 309.289 267.484 309.086C267.646 308.888 267.784 308.615 267.898 308.266L268.5 306.625ZM266.773 299.047L268.969 305.609L269.344 307.133L268.305 307.664L265.195 299.047H266.773ZM284.867 296.125V296.938L280.156 307.5H278.633L283.336 297.312H277.18V296.125H284.867ZM293.656 300.906V302.641C293.656 303.573 293.573 304.359 293.406 305C293.24 305.641 293 306.156 292.688 306.547C292.375 306.938 291.997 307.221 291.555 307.398C291.117 307.57 290.622 307.656 290.07 307.656C289.633 307.656 289.229 307.602 288.859 307.492C288.49 307.383 288.156 307.208 287.859 306.969C287.568 306.724 287.318 306.406 287.109 306.016C286.901 305.625 286.742 305.151 286.633 304.594C286.523 304.036 286.469 303.385 286.469 302.641V300.906C286.469 299.974 286.552 299.193 286.719 298.562C286.891 297.932 287.133 297.427 287.445 297.047C287.758 296.661 288.133 296.385 288.57 296.219C289.013 296.052 289.508 295.969 290.055 295.969C290.497 295.969 290.904 296.023 291.273 296.133C291.648 296.237 291.982 296.406 292.273 296.641C292.565 296.87 292.812 297.177 293.016 297.562C293.224 297.943 293.383 298.409 293.492 298.961C293.602 299.513 293.656 300.161 293.656 300.906ZM292.203 302.875V300.664C292.203 300.154 292.172 299.706 292.109 299.32C292.052 298.93 291.966 298.596 291.852 298.32C291.737 298.044 291.591 297.82 291.414 297.648C291.242 297.477 291.042 297.352 290.812 297.273C290.589 297.19 290.336 297.148 290.055 297.148C289.711 297.148 289.406 297.214 289.141 297.344C288.875 297.469 288.651 297.669 288.469 297.945C288.292 298.221 288.156 298.583 288.062 299.031C287.969 299.479 287.922 300.023 287.922 300.664V302.875C287.922 303.385 287.951 303.836 288.008 304.227C288.07 304.617 288.161 304.956 288.281 305.242C288.401 305.523 288.547 305.755 288.719 305.938C288.891 306.12 289.089 306.255 289.312 306.344C289.542 306.427 289.794 306.469 290.07 306.469C290.424 306.469 290.734 306.401 291 306.266C291.266 306.13 291.487 305.919 291.664 305.633C291.846 305.341 291.982 304.969 292.07 304.516C292.159 304.057 292.203 303.51 292.203 302.875ZM302.656 300.906V302.641C302.656 303.573 302.573 304.359 302.406 305C302.24 305.641 302 306.156 301.688 306.547C301.375 306.938 300.997 307.221 300.555 307.398C300.117 307.57 299.622 307.656 299.07 307.656C298.633 307.656 298.229 307.602 297.859 307.492C297.49 307.383 297.156 307.208 296.859 306.969C296.568 306.724 296.318 306.406 296.109 306.016C295.901 305.625 295.742 305.151 295.633 304.594C295.523 304.036 295.469 303.385 295.469 302.641V300.906C295.469 299.974 295.552 299.193 295.719 298.562C295.891 297.932 296.133 297.427 296.445 297.047C296.758 296.661 297.133 296.385 297.57 296.219C298.013 296.052 298.508 295.969 299.055 295.969C299.497 295.969 299.904 296.023 300.273 296.133C300.648 296.237 300.982 296.406 301.273 296.641C301.565 296.87 301.812 297.177 302.016 297.562C302.224 297.943 302.383 298.409 302.492 298.961C302.602 299.513 302.656 300.161 302.656 300.906ZM301.203 302.875V300.664C301.203 300.154 301.172 299.706 301.109 299.32C301.052 298.93 300.966 298.596 300.852 298.32C300.737 298.044 300.591 297.82 300.414 297.648C300.242 297.477 300.042 297.352 299.812 297.273C299.589 297.19 299.336 297.148 299.055 297.148C298.711 297.148 298.406 297.214 298.141 297.344C297.875 297.469 297.651 297.669 297.469 297.945C297.292 298.221 297.156 298.583 297.062 299.031C296.969 299.479 296.922 300.023 296.922 300.664V302.875C296.922 303.385 296.951 303.836 297.008 304.227C297.07 304.617 297.161 304.956 297.281 305.242C297.401 305.523 297.547 305.755 297.719 305.938C297.891 306.12 298.089 306.255 298.312 306.344C298.542 306.427 298.794 306.469 299.07 306.469C299.424 306.469 299.734 306.401 300 306.266C300.266 306.13 300.487 305.919 300.664 305.633C300.846 305.341 300.982 304.969 301.07 304.516C301.159 304.057 301.203 303.51 301.203 302.875Z" fill="#FAFAFA"/>
</svg>
