<svg width="32" height="32" viewBox="0 0 32 32" fill="none" xmlns="http://www.w3.org/2000/svg">
<rect x="0.5" y="0.5" width="31" height="31" rx="15.5" stroke="white"/>
<path fill-rule="evenodd" clip-rule="evenodd" d="M15.8283 21.9581H16.7847C16.7847 21.9581 17.0735 21.9232 17.2212 21.7491C17.3569 21.5891 17.3525 21.2889 17.3525 21.2889C17.3525 21.2889 17.3338 19.8831 17.9293 19.6761C18.5166 19.472 19.2705 21.0347 20.0695 21.6357C20.6737 22.0903 21.1329 21.9908 21.1329 21.9908L23.2697 21.9581C23.2697 21.9581 24.3874 21.8825 23.8574 20.9197C23.814 20.8411 23.5486 20.2076 22.2686 18.9059C20.9287 17.5436 21.1083 17.764 22.7222 15.4074C23.7051 13.9723 24.0979 13.0961 23.9752 12.7209C23.8582 12.3634 23.1352 12.4579 23.1352 12.4579L20.7295 12.4742C20.7295 12.4742 20.551 12.4476 20.4188 12.5342C20.2895 12.619 20.2065 12.817 20.2065 12.817C20.2065 12.817 19.8256 13.9274 19.318 14.872C18.2467 16.8648 17.8183 16.9703 17.6432 16.8464C17.2357 16.5579 17.3376 15.6879 17.3376 15.0696C17.3376 13.1382 17.605 12.333 16.8168 12.1245C16.5554 12.0554 16.3627 12.0097 15.6939 12.0022C14.8354 11.9926 14.109 12.0051 13.6976 12.2259C13.4239 12.3727 13.2128 12.6999 13.3414 12.7187C13.5005 12.7419 13.8605 12.8252 14.0514 13.1097C14.298 13.4773 14.2894 14.3024 14.2894 14.3024C14.2894 14.3024 14.4311 16.5759 13.9585 16.8582C13.6343 17.0519 13.1894 16.6565 12.2343 14.8485C11.7451 13.9224 11.3755 12.8986 11.3755 12.8986C11.3755 12.8986 11.3044 12.7073 11.1773 12.6049C11.0231 12.4808 10.8077 12.4415 10.8077 12.4415L8.5215 12.4579C8.5215 12.4579 8.17838 12.4684 8.05229 12.6319C7.94011 12.7774 8.04333 13.0781 8.04333 13.0781C8.04333 13.0781 9.83307 17.6655 11.8598 19.9773C13.7183 22.0972 15.8283 21.9581 15.8283 21.9581Z" fill="white"/>
</svg>
