<svg width="32" height="32" viewBox="0 0 32 32" fill="none" xmlns="http://www.w3.org/2000/svg">
<rect x="0.5" y="0.5" width="31" height="31" rx="15.5" stroke="white"/>
<path d="M14.3631 18.8203V14.1813L18.5449 16.501L14.3631 18.8203ZM23.6645 12.721C23.4756 12.0441 22.9422 11.5208 22.2641 11.3356L22.2497 11.3324C20.5464 11.1212 18.5763 11.0005 16.5769 11.0005C16.3737 11.0005 16.171 11.0016 15.9688 11.0042L15.9997 11.0036C15.828 11.0016 15.6258 11 15.4225 11C13.4231 11 11.452 11.1207 9.51715 11.3543L9.74867 11.3314C9.05678 11.5202 8.52332 12.0431 8.33821 12.7064L8.33501 12.7199C8.12163 13.8171 8 15.0797 8 16.3699C8 16.4157 8 16.4615 8.00053 16.5068V16.4995C8.00053 16.538 8 16.5838 8 16.6295C8 17.9197 8.12216 19.1818 8.35528 20.406L8.33501 20.279C8.52386 20.9559 9.05731 21.4792 9.73534 21.6644L9.74974 21.6676C11.4531 21.8788 13.4231 21.9995 15.4225 21.9995C15.6252 21.9995 15.828 21.9984 16.0307 21.9958L15.9997 21.9964C16.1715 21.9984 16.3742 22 16.5769 22C18.5769 22 20.5475 21.8793 22.4823 21.6457L22.2508 21.6686C22.9432 21.4803 23.4767 20.9569 23.6623 20.2936L23.6655 20.2801C23.8784 19.1829 24 17.9203 24 16.6306C24 16.5848 24 16.539 23.9995 16.4938V16.5005C23.9995 16.462 24 16.4162 24 16.3705C24 15.0803 23.8778 13.8182 23.6447 12.594L23.6645 12.721Z" fill="white"/>
</svg>
