<svg width="64" height="64" viewBox="0 0 64 64" fill="none" xmlns="http://www.w3.org/2000/svg">
<g clip-path="url(#clip0_649_12)">
<path d="M11.3333 0H52.6667C58.9333 0 64 5.19658 64 11.6239V52.3761C64 58.8034 58.9333 64 52.6667 64H11.3333C5.06667 64 0 58.8034 0 52.3761V11.6239C0 5.19658 5.06667 0 11.3333 0Z" fill="#330000"/>
<path d="M30.9333 38.2906H21.0133L18.9866 44.718C18.9333 44.9641 18.7199 45.1282 18.4799 45.1009H13.4666C13.1733 45.1009 13.0933 44.9368 13.1733 44.6086L21.7599 19.2547C21.8399 18.9812 21.9199 18.6804 22.0266 18.3521C22.1333 17.7778 22.1866 17.1761 22.1866 16.5744C22.1599 16.4376 22.2666 16.3009 22.3999 16.2735H29.3066C29.5199 16.2735 29.6266 16.3556 29.6533 16.4923L39.3866 44.6633C39.4666 44.9641 39.3866 45.1009 39.1199 45.1009H33.5466C33.3599 45.1282 33.1733 44.9915 33.1199 44.8L30.9333 38.2906ZM22.5599 32.7385H29.3333C29.1733 32.1641 28.9599 31.4804 28.7199 30.7692C28.4799 30.0308 28.2399 29.2376 27.9999 28.4171C27.7333 27.5692 27.4933 26.7487 27.2266 25.9009C26.9599 25.053 26.7199 24.2598 26.5066 23.4667C26.2933 22.7009 26.1066 21.9898 25.9199 21.3333H25.8666C25.6266 22.5094 25.3333 23.6855 24.9599 24.8616C24.5599 26.1744 24.1599 27.5419 23.7333 28.9094C23.3599 30.3043 22.9599 31.5898 22.5599 32.7385ZM45.3333 21.0598C44.4533 21.0872 43.5999 20.7316 42.9599 20.1026C42.3466 19.4188 42.0266 18.5163 42.0533 17.5863C42.0266 16.6564 42.3733 15.7812 43.0133 15.1522C43.6533 14.5231 44.5066 14.1949 45.3866 14.1949C46.4266 14.1949 47.2266 14.5231 47.8133 15.1522C48.3999 15.8086 48.7199 16.6838 48.6933 17.5863C48.7199 18.5163 48.3999 19.4188 47.7599 20.1026C47.1466 20.759 46.2399 21.1145 45.3333 21.0598ZM42.3466 44.8V23.7402C42.3466 23.4667 42.4533 23.3573 42.6933 23.3573H47.9733C48.2133 23.3573 48.3199 23.494 48.3199 23.7402V44.8C48.3199 45.1009 48.2133 45.2376 47.9733 45.2376H42.7466C42.4799 45.2376 42.3466 45.0735 42.3466 44.8Z" fill="#FF9A00"/>
</g>
<defs>
<clipPath id="clip0_649_12">
<rect width="64" height="64" fill="white"/>
</clipPath>
</defs>
</svg>
