<svg width="32" height="32" viewBox="0 0 32 32" fill="none" xmlns="http://www.w3.org/2000/svg">
<mask id="path-1-inside-1_872_3" fill="white">
<path d="M30.3267 15.422C30.3267 17.8093 30.323 20.1967 30.3297 22.584C30.3312 23.083 30.134 23.4514 29.7143 23.7126C27.8437 24.8769 25.977 26.0471 24.1042 27.2073C21.8787 28.5859 19.6488 29.9574 17.4199 31.3308C17.1249 31.5124 16.8253 31.6869 16.5295 31.867C16.2274 32.0508 15.9412 32.0266 15.6413 31.8443C13.4534 30.5122 11.2599 29.1898 9.07239 27.8573C6.84244 26.4992 4.61844 25.1314 2.38886 23.7721C1.90662 23.4782 1.67444 23.0625 1.67481 22.4981C1.67779 17.7732 1.67853 13.048 1.67444 8.32319C1.67407 7.7204 1.90588 7.30551 2.46104 7.01677C5.02849 5.67984 7.58365 4.31909 10.1422 2.96505C11.8862 2.04226 13.6279 1.115 15.3716 0.191838C15.7663 -0.0172783 16.1604 -0.012441 16.5596 0.196303C18.1541 1.03128 19.7518 1.8603 21.347 2.69379C24.1042 4.13454 26.8596 5.57863 29.6171 7.01788C30.0863 7.26272 30.3226 7.64449 30.3234 8.16728C30.326 10.5855 30.3245 13.0037 30.3245 15.422H30.3271H30.3267ZM22.5154 11.6359C22.4019 11.5742 22.3323 11.5358 22.262 11.4983C21.6897 11.1917 21.1178 10.8847 20.5448 10.5796C20.3866 10.4955 20.2735 10.3838 20.2791 10.1903C20.2843 10.0024 20.4276 9.94179 20.5663 9.86551C20.7647 9.75649 20.9686 9.64709 21.1412 9.50347C21.2994 9.37174 21.2916 9.19314 21.1468 9.04802C21.0571 8.95835 20.9492 8.87016 20.8328 8.82737C20.6203 8.74923 20.3974 8.66849 20.1753 8.65509C19.6536 8.62384 19.158 8.72281 18.7967 9.147C18.5548 9.43091 18.4127 9.47221 18.0778 9.29547C17.4274 8.95165 16.7788 8.60412 16.1254 8.26551C16.0622 8.23277 15.9554 8.22384 15.8951 8.25472C15.2473 8.59072 14.5983 8.92486 13.9647 9.28616C13.6953 9.43947 13.4303 9.40263 13.2309 9.16933C12.7457 8.60151 11.7366 8.44672 11.0296 8.94421C10.7591 9.13472 10.7539 9.36988 11.0222 9.56188C11.1959 9.68616 11.398 9.77323 11.5926 9.86588C11.7355 9.9336 11.8549 10.0155 11.8664 10.1851C11.8783 10.3637 11.7678 10.469 11.6231 10.5472C11.3563 10.6912 11.0895 10.8348 10.8235 10.9799C10.4119 11.2043 10.0011 11.4302 9.57435 11.6638C9.62011 11.6951 9.64765 11.717 9.67816 11.7342C11.7797 12.9312 13.881 14.1286 15.9851 15.3211C16.0346 15.3494 16.1291 15.3479 16.179 15.3189C17.9022 14.3198 19.6223 13.3156 21.3433 12.3128C21.721 12.0925 22.1009 11.8756 22.5161 11.6356L22.5154 11.6359ZM16.3368 23.4432C16.4663 23.3647 16.5604 23.3077 16.6545 23.2504C17.2034 22.9148 17.7526 22.5792 18.301 22.2424C18.3982 22.1829 18.493 22.1282 18.4197 21.9805C18.2263 21.5913 18.2196 21.1753 18.3141 20.7656C18.4823 20.0367 18.8897 19.496 19.6298 19.2694C20.253 19.0785 20.7639 19.39 20.8834 20.03C20.9221 20.238 20.9076 20.4564 20.918 20.6875C20.9563 20.6681 20.9835 20.6573 21.0077 20.6421C21.5494 20.3064 22.089 19.9671 22.6344 19.6374C22.7464 19.5697 22.7773 19.4916 22.7762 19.3673C22.7706 18.6916 22.7729 18.0158 22.7747 17.3401C22.7747 17.2605 22.7792 17.1775 22.8019 17.1023C22.9053 16.7619 23.1189 16.6138 23.5371 16.6052C23.8568 16.5989 24.1317 16.4984 24.3524 16.2659C24.7301 15.8677 24.8138 15.3889 24.7115 14.8698C24.6393 14.5025 24.4372 14.4047 24.1038 14.5799C23.8746 14.7005 23.6622 14.8523 23.4415 14.9889C23.3038 15.0741 23.1669 15.1675 22.9965 15.0633C22.8324 14.9628 22.7717 14.8151 22.7725 14.6261C22.7758 13.8759 22.774 13.1258 22.774 12.3757C22.774 12.3161 22.774 12.2562 22.774 12.177C22.7327 12.1959 22.7107 12.2034 22.691 12.2149C20.6196 13.4272 18.5489 14.6406 16.4756 15.8499C16.3714 15.9105 16.3327 15.9745 16.3327 16.0973C16.3371 18.3663 16.3364 20.6354 16.3368 22.9048C16.3368 23.0715 16.3368 23.2382 16.3368 23.4436V23.4432ZM15.7548 23.3717C15.7548 23.2583 15.7548 23.1917 15.7548 23.125C15.7537 20.8192 15.7485 18.5137 15.7578 16.2078C15.7585 15.9779 15.6878 15.8573 15.4921 15.7457C13.7396 14.7496 11.993 13.7427 10.2449 12.7396C9.94086 12.565 9.63649 12.392 9.30086 12.2C9.30086 12.3009 9.30086 12.3663 9.30086 12.4318C9.30086 13.1321 9.30235 13.8328 9.30086 14.533C9.30086 14.619 9.29714 14.7079 9.27518 14.7902C9.20225 15.0629 8.92244 15.176 8.68021 15.0365C8.39667 14.8731 8.12281 14.6897 7.82774 14.5513C7.5349 14.414 7.32467 14.5468 7.29304 14.8653C7.27556 15.0421 7.27853 15.2233 7.2949 15.4004C7.35481 16.0471 7.83481 16.6298 8.59723 16.6034C9.0296 16.5885 9.30197 16.881 9.30235 17.3115C9.30235 17.9995 9.30495 18.6875 9.29937 19.3755C9.29863 19.489 9.3336 19.5537 9.43109 19.6117C9.81956 19.8417 10.2028 20.0806 10.5883 20.3157C10.7762 20.4303 10.9645 20.5446 11.1669 20.6677C11.1669 20.4917 11.1636 20.3403 11.1676 20.1889C11.184 19.5757 11.6529 19.1329 12.2062 19.2147C12.8618 19.3122 13.3273 19.6832 13.6316 20.2577C13.9137 20.7902 13.9271 21.3479 13.7262 21.9098C13.6696 22.0676 13.6949 22.1617 13.8493 22.2376C14.0097 22.3165 14.1593 22.4173 14.3133 22.5092C14.7792 22.7872 15.245 23.0659 15.7559 23.371L15.7548 23.3717ZM29.5003 7.66644C29.078 7.44095 28.7029 7.23854 28.326 7.03984C26.489 6.07314 24.6516 5.10719 22.8119 4.14533C22.7591 4.11779 22.6672 4.11779 22.614 4.14533C21.9647 4.47835 21.3139 4.80914 20.6757 5.16226C20.3911 5.32002 20.1388 5.35984 19.8423 5.19463C19.4382 4.96988 18.995 4.92151 18.5474 5.03575C18.384 5.07742 18.2214 5.15779 18.0837 5.25602C17.8776 5.40337 17.8672 5.61956 18.0536 5.79333C18.1786 5.90979 18.3342 5.99277 18.4744 6.09361C18.5492 6.14719 18.637 6.19407 18.6888 6.26551C18.8197 6.44635 18.752 6.64691 18.5094 6.7857C18.2199 6.95165 17.9223 7.10309 17.6276 7.26012C17.2867 7.44207 16.9451 7.62365 16.5827 7.81677C16.6609 7.86254 16.7159 7.89863 16.7743 7.92877C17.2019 8.15165 17.6369 8.36188 18.0551 8.60077C18.2374 8.70495 18.3539 8.69491 18.5228 8.56765C19.3343 7.95519 20.4689 7.90123 21.3001 8.40133C22.0402 8.84635 22.0287 9.79221 21.2789 10.1591C21.2488 10.174 21.2246 10.2 21.1844 10.2309C21.2413 10.264 21.2819 10.2897 21.3243 10.312C21.7388 10.5334 22.157 10.7474 22.5671 10.9766C23.1505 11.3029 23.1427 11.2988 23.7288 10.9621C25.3801 10.0125 27.0359 9.07035 28.6899 8.12598C28.9459 7.97975 29.203 7.83537 29.5007 7.66682L29.5003 7.66644ZM7.03035 18.7704C7.03035 18.9111 7.03481 19.0097 7.0296 19.1079C6.99351 19.8224 6.42867 20.2328 5.73435 20.0657C4.88895 19.8625 4.02681 18.7232 4.40783 17.5749C4.50793 17.2735 4.47928 17.2058 4.21025 17.0477C3.62383 16.7027 3.03742 16.3582 2.45025 16.0143C2.40076 15.9853 2.34793 15.9626 2.27649 15.9273C2.27649 16.0166 2.27649 16.0717 2.27649 16.1271C2.27649 18.2101 2.2869 20.2934 2.26867 22.376C2.26458 22.8318 2.43909 23.1102 2.81676 23.3375C4.74607 24.4996 6.66644 25.6761 8.59053 26.8467C8.61956 26.8642 8.65528 26.8709 8.70402 26.8884C8.70402 26.7909 8.70402 26.7113 8.70402 26.6317C8.70402 26.0676 8.69993 25.5035 8.70477 24.9394C8.70811 24.571 9.02291 24.3812 9.34811 24.5528C9.62123 24.6968 9.88095 24.8668 10.1556 25.0075C10.4629 25.1649 10.6728 25.0428 10.7159 24.7001C10.8205 23.8718 10.2583 23.1757 9.43184 23.1098C8.95407 23.0718 8.70588 22.8077 8.70402 22.3265C8.70179 21.5701 8.69695 20.8136 8.70737 20.0575C8.70997 19.8689 8.659 19.7565 8.48895 19.6616C8.13807 19.4659 7.8017 19.2437 7.45937 19.0328C7.32914 18.9524 7.19816 18.8735 7.0296 18.7708L7.03035 18.7704ZM22.7665 20.2439C22.729 20.2618 22.7074 20.2692 22.6884 20.2815C22.1615 20.6179 21.6328 20.9517 21.1092 21.2929C20.9247 21.413 20.7349 21.4726 20.5362 21.358C20.3356 21.2423 20.2597 21.0521 20.2806 20.821C20.2977 20.6302 20.3204 20.4382 20.3159 20.2469C20.3074 19.8994 20.0815 19.7442 19.7515 19.8551C19.2871 20.0106 19.0277 20.3585 18.905 20.8132C18.8086 21.1708 18.8588 21.5198 18.9913 21.8663C19.1275 22.222 19.0441 22.4471 18.7316 22.6663C18.6709 22.709 18.6069 22.747 18.5433 22.7853C17.859 23.1965 17.1758 23.6095 16.4893 24.0162C16.3829 24.0795 16.3323 24.1461 16.3327 24.2778C16.3375 26.5658 16.3368 28.8538 16.3383 31.1418C16.3383 31.1805 16.3494 31.2192 16.3576 31.272C16.4168 31.2393 16.4607 31.2177 16.502 31.192C18.5425 29.9262 20.582 28.6584 22.6255 27.397C22.7438 27.3241 22.7781 27.2482 22.7766 27.1169C22.7699 26.5401 22.774 25.9637 22.7732 25.387C22.7732 25.3349 22.7669 25.2828 22.7621 25.2036C22.6679 25.2642 22.5987 25.3144 22.5243 25.355C22.3453 25.4521 22.1716 25.5652 21.9822 25.6352C21.5003 25.813 21.049 25.595 20.915 25.1001C20.8484 24.8549 20.8272 24.5863 20.8432 24.3321C20.8971 23.4733 21.6011 22.6402 22.4819 22.5539C22.6914 22.5334 22.7743 22.4374 22.7743 22.2257C22.7751 21.6117 22.7743 20.9978 22.7736 20.3842C22.7736 20.3433 22.7699 20.3023 22.7669 20.2439H22.7665ZM15.3827 7.83649C15.1859 7.73305 15.017 7.64449 14.8484 7.55556C14.3721 7.30514 13.8947 7.05733 13.4203 6.80393C13.1885 6.68002 13.1014 6.5003 13.2026 6.32616C13.2543 6.23686 13.3526 6.16877 13.4415 6.10774C13.5885 6.00616 13.7578 5.93398 13.8936 5.82049C14.0986 5.64933 14.1016 5.42681 13.8862 5.27128C13.731 5.15928 13.5397 5.07705 13.3526 5.03277C12.8536 4.91519 12.3695 4.98812 11.9141 5.22663C11.6897 5.34421 11.4813 5.34979 11.2469 5.22663C10.6013 4.88691 9.94346 4.57026 9.29528 4.23575C9.20374 4.18849 9.14346 4.1937 9.06197 4.24021C8.86886 4.35072 8.67202 4.45491 8.47518 4.55872C6.57267 5.563 4.67016 6.56616 2.76802 7.57119C2.69621 7.60914 2.63369 7.66458 2.5496 7.72375C2.62997 7.77212 2.68169 7.80523 2.73565 7.835C3.88318 8.46905 5.03183 9.1016 6.179 9.73677C7.08802 10.2398 7.99518 10.7466 8.9057 11.2471C8.9589 11.2761 9.05081 11.2899 9.09918 11.2635C9.67481 10.9502 10.2456 10.6283 10.8175 10.3079C10.8614 10.2834 10.902 10.2536 10.9083 10.2495C10.7263 10.0873 10.5083 9.95667 10.3807 9.76579C10.0744 9.307 10.2393 8.75891 10.7438 8.42291C11.5122 7.91091 12.6929 7.95593 13.4266 8.54458C13.616 8.6964 13.757 8.72765 13.977 8.59593C14.4257 8.32765 14.8964 8.09621 15.3823 7.83649H15.3827ZM25.0281 18.8136C24.5183 19.1355 24.019 19.4543 23.5152 19.765C23.4084 19.8309 23.3656 19.9024 23.3671 20.0311C23.3745 20.7935 23.3738 21.5563 23.3716 22.3191C23.3701 22.8006 23.1342 23.061 22.6497 23.1117C21.8352 23.1969 21.347 23.96 21.4393 24.7228C21.481 25.0659 21.6696 25.1507 21.9721 24.9796C22.1983 24.8516 22.4171 24.7109 22.6426 24.5818C23.0162 24.3678 23.3656 24.5699 23.3678 25C23.3704 25.4465 23.3693 25.893 23.3697 26.3392C23.3697 26.5282 23.3697 26.7172 23.3697 26.9397C23.4687 26.881 23.5368 26.8419 23.6037 26.8006C24.352 26.3396 25.1018 25.8811 25.8478 25.4164C27.014 24.6897 28.1757 23.9556 29.3433 23.2307C29.6406 23.0462 29.7719 22.8002 29.7708 22.4475C29.7634 20.3269 29.7675 18.2063 29.7671 16.0862C29.7671 16.0352 29.7593 15.9842 29.7537 15.9172C29.0802 16.3224 28.4279 16.7128 27.7783 17.1076C27.5788 17.2289 27.5386 17.339 27.6157 17.5593C27.9907 18.635 27.2618 19.819 26.2601 20.0754C25.6692 20.2264 25.1922 19.9332 25.0754 19.3327C25.0437 19.1701 25.0437 19.0015 25.0274 18.8136H25.0281ZM15.7496 31.1995C15.7537 31.1277 15.7578 31.0856 15.7578 31.0436C15.7556 28.769 15.7522 26.494 15.7526 24.2194C15.7526 24.1141 15.7221 24.0564 15.6283 24.0006C14.8945 23.5649 14.1623 23.1254 13.4352 22.6785C13.0534 22.4437 12.9775 22.1974 13.1383 21.7825C13.2447 21.5083 13.3243 21.2341 13.248 20.9353C13.12 20.4326 12.8607 20.0389 12.3498 19.8618C11.9926 19.7379 11.7634 19.899 11.76 20.2767C11.7585 20.4612 11.7842 20.6465 11.8032 20.8307C11.8251 21.0436 11.7801 21.2315 11.5877 21.3464C11.4047 21.4558 11.2205 21.4197 11.0445 21.3096C10.5206 20.9807 9.99556 20.6536 9.47053 20.3262C9.42216 20.296 9.37193 20.2689 9.3016 20.2287C9.3016 20.9219 9.299 21.5786 9.30309 22.2354C9.30421 22.4341 9.40802 22.5241 9.61639 22.5543C9.76821 22.5762 9.92597 22.5937 10.067 22.6488C10.966 22.9993 11.4724 23.9057 11.3098 24.8549C11.2108 25.4331 10.8305 25.745 10.2746 25.6731C10.1027 25.6508 9.93491 25.5675 9.77491 25.4916C9.61751 25.4168 9.47277 25.3159 9.30123 25.2136C9.30123 25.8361 9.31351 26.4248 9.29453 27.0123C9.28784 27.2248 9.36449 27.3319 9.53565 27.4343C10.608 28.0754 11.6756 28.725 12.7438 29.3729C13.7377 29.9757 14.7304 30.5803 15.7492 31.1998L15.7496 31.1995ZM2.28281 8.26365C2.27872 8.31835 2.27537 8.34291 2.27537 8.36747C2.27537 10.6123 2.27723 12.8571 2.27388 15.1016C2.27388 15.2251 2.33565 15.2746 2.42607 15.3267C3.14942 15.745 3.87016 16.1677 4.59388 16.5848C4.83314 16.7224 5.01956 16.9148 5.03928 17.1868C5.05453 17.4008 4.99872 17.6259 4.94253 17.8372C4.77993 18.4486 5.16095 19.2203 5.74923 19.441C6.19053 19.6065 6.43686 19.4402 6.43983 18.9717C6.44132 18.7611 6.42458 18.5498 6.43611 18.3396C6.45025 18.0813 6.691 17.9169 6.91723 18.0017C7.00876 18.0363 7.09509 18.088 7.17881 18.1401C7.63574 18.4251 8.09081 18.7128 8.54737 18.9985C8.59202 19.0264 8.64076 19.0477 8.70886 19.083C8.70886 18.5174 8.7096 17.979 8.70849 17.4402C8.70811 17.2229 8.68095 17.1983 8.45956 17.1905C7.95314 17.173 7.51184 17.0015 7.18179 16.6078C6.69918 16.0326 6.56411 15.3669 6.73007 14.6428C6.84393 14.1446 7.15835 13.9146 7.6603 13.9143C7.93193 13.9143 8.16597 14.0158 8.39258 14.1487C8.4897 14.2056 8.58681 14.2622 8.70365 14.3306C8.70365 13.5697 8.69472 12.8445 8.70923 12.12C8.71332 11.9161 8.64337 11.8153 8.46997 11.7193C6.97677 10.8921 5.48914 10.0549 3.99965 9.22105C3.43481 8.90477 2.86886 8.58998 2.28244 8.26254L2.28281 8.26365ZM23.3701 19.1582C23.5092 19.0715 23.6149 19.0086 23.7176 18.9416C24.1477 18.6614 24.576 18.3779 25.0073 18.0996C25.3332 17.8893 25.6555 18.0568 25.6703 18.4441C25.6744 18.5487 25.6521 18.654 25.654 18.7589C25.657 18.9308 25.654 19.1053 25.6837 19.2735C25.7117 19.432 25.833 19.5113 25.997 19.5042C26.2415 19.4938 26.4577 19.4049 26.6315 19.2344C27.0627 18.8114 27.241 18.3221 27.0419 17.7193C26.8674 17.1905 27.0181 16.8445 27.4962 16.5658C28.2125 16.1479 28.9243 15.723 29.6413 15.307C29.7414 15.249 29.7704 15.1831 29.7704 15.0711C29.766 12.8888 29.7656 10.7068 29.7641 8.52449C29.7641 8.42886 29.7641 8.33286 29.7641 8.21267C29.6945 8.25063 29.6521 8.27258 29.6104 8.2964C28.3706 9.00635 27.1308 9.71593 25.8917 10.427C25.1033 10.8795 24.3167 11.3357 23.5271 11.7859C23.4143 11.8503 23.3645 11.9217 23.366 12.0605C23.3749 12.7548 23.3697 13.4491 23.3704 14.1435C23.3704 14.1956 23.3749 14.2477 23.3779 14.3109C23.5673 14.2037 23.7303 14.0862 23.9111 14.0136C24.5273 13.7662 25.1022 13.9414 25.2651 14.6432C25.3135 14.8512 25.3399 15.0696 25.3384 15.2832C25.3329 16.2186 24.7208 17.1995 23.5881 17.1954C23.4623 17.195 23.3704 17.2527 23.3701 17.3944C23.3686 17.9701 23.3693 18.5457 23.3693 19.1578L23.3701 19.1582ZM14.0417 6.45007C14.6724 6.77491 15.2808 7.09081 15.8932 7.39891C15.9423 7.42347 16.0264 7.41491 16.0789 7.38961C16.2791 7.29286 16.4722 7.18123 16.6694 7.07779C17.0787 6.86309 17.4888 6.64988 17.9133 6.42849C17.8687 6.3924 17.8437 6.36486 17.8125 6.34774C17.1736 5.99798 17.1256 5.19091 17.7783 4.73174C18.3409 4.33584 18.9835 4.22198 19.6127 4.47686C20.089 4.66998 20.4789 4.65323 20.8778 4.36002C20.8975 4.34551 20.9213 4.33658 20.9433 4.32542C21.3038 4.13826 21.6644 3.95147 22.0443 3.75388C21.7239 3.58756 21.4281 3.43426 21.133 3.28058C19.5807 2.47314 18.025 1.67165 16.4782 0.853791C16.1247 0.667001 15.8024 0.651001 15.4657 0.86235C15.3876 0.911466 15.3027 0.950536 15.2209 0.993699C13.6625 1.81565 12.1038 2.63798 10.5455 3.45993C10.3137 3.58198 10.0823 3.70477 9.82365 3.84133C10.3721 4.11556 10.8867 4.36895 11.3969 4.63091C11.5185 4.69342 11.6205 4.69826 11.7448 4.63649C12.1559 4.43221 12.5902 4.32021 13.053 4.36226C13.523 4.40468 13.9669 4.52858 14.3345 4.84188C14.7736 5.21584 14.7706 5.86886 14.3316 6.24095C14.2478 6.31202 14.153 6.37044 14.0413 6.45044L14.0417 6.45007Z"/>
</mask>
<path d="M30.3267 15.422C30.3267 17.8093 30.323 20.1967 30.3297 22.584C30.3312 23.083 30.134 23.4514 29.7143 23.7126C27.8437 24.8769 25.977 26.0471 24.1042 27.2073C21.8787 28.5859 19.6488 29.9574 17.4199 31.3308C17.1249 31.5124 16.8253 31.6869 16.5295 31.867C16.2274 32.0508 15.9412 32.0266 15.6413 31.8443C13.4534 30.5122 11.2599 29.1898 9.07239 27.8573C6.84244 26.4992 4.61844 25.1314 2.38886 23.7721C1.90662 23.4782 1.67444 23.0625 1.67481 22.4981C1.67779 17.7732 1.67853 13.048 1.67444 8.32319C1.67407 7.7204 1.90588 7.30551 2.46104 7.01677C5.02849 5.67984 7.58365 4.31909 10.1422 2.96505C11.8862 2.04226 13.6279 1.115 15.3716 0.191838C15.7663 -0.0172783 16.1604 -0.012441 16.5596 0.196303C18.1541 1.03128 19.7518 1.8603 21.347 2.69379C24.1042 4.13454 26.8596 5.57863 29.6171 7.01788C30.0863 7.26272 30.3226 7.64449 30.3234 8.16728C30.326 10.5855 30.3245 13.0037 30.3245 15.422H30.3271H30.3267ZM22.5154 11.6359C22.4019 11.5742 22.3323 11.5358 22.262 11.4983C21.6897 11.1917 21.1178 10.8847 20.5448 10.5796C20.3866 10.4955 20.2735 10.3838 20.2791 10.1903C20.2843 10.0024 20.4276 9.94179 20.5663 9.86551C20.7647 9.75649 20.9686 9.64709 21.1412 9.50347C21.2994 9.37174 21.2916 9.19314 21.1468 9.04802C21.0571 8.95835 20.9492 8.87016 20.8328 8.82737C20.6203 8.74923 20.3974 8.66849 20.1753 8.65509C19.6536 8.62384 19.158 8.72281 18.7967 9.147C18.5548 9.43091 18.4127 9.47221 18.0778 9.29547C17.4274 8.95165 16.7788 8.60412 16.1254 8.26551C16.0622 8.23277 15.9554 8.22384 15.8951 8.25472C15.2473 8.59072 14.5983 8.92486 13.9647 9.28616C13.6953 9.43947 13.4303 9.40263 13.2309 9.16933C12.7457 8.60151 11.7366 8.44672 11.0296 8.94421C10.7591 9.13472 10.7539 9.36988 11.0222 9.56188C11.1959 9.68616 11.398 9.77323 11.5926 9.86588C11.7355 9.9336 11.8549 10.0155 11.8664 10.1851C11.8783 10.3637 11.7678 10.469 11.6231 10.5472C11.3563 10.6912 11.0895 10.8348 10.8235 10.9799C10.4119 11.2043 10.0011 11.4302 9.57435 11.6638C9.62011 11.6951 9.64765 11.717 9.67816 11.7342C11.7797 12.9312 13.881 14.1286 15.9851 15.3211C16.0346 15.3494 16.1291 15.3479 16.179 15.3189C17.9022 14.3198 19.6223 13.3156 21.3433 12.3128C21.721 12.0925 22.1009 11.8756 22.5161 11.6356L22.5154 11.6359ZM16.3368 23.4432C16.4663 23.3647 16.5604 23.3077 16.6545 23.2504C17.2034 22.9148 17.7526 22.5792 18.301 22.2424C18.3982 22.1829 18.493 22.1282 18.4197 21.9805C18.2263 21.5913 18.2196 21.1753 18.3141 20.7656C18.4823 20.0367 18.8897 19.496 19.6298 19.2694C20.253 19.0785 20.7639 19.39 20.8834 20.03C20.9221 20.238 20.9076 20.4564 20.918 20.6875C20.9563 20.6681 20.9835 20.6573 21.0077 20.6421C21.5494 20.3064 22.089 19.9671 22.6344 19.6374C22.7464 19.5697 22.7773 19.4916 22.7762 19.3673C22.7706 18.6916 22.7729 18.0158 22.7747 17.3401C22.7747 17.2605 22.7792 17.1775 22.8019 17.1023C22.9053 16.7619 23.1189 16.6138 23.5371 16.6052C23.8568 16.5989 24.1317 16.4984 24.3524 16.2659C24.7301 15.8677 24.8138 15.3889 24.7115 14.8698C24.6393 14.5025 24.4372 14.4047 24.1038 14.5799C23.8746 14.7005 23.6622 14.8523 23.4415 14.9889C23.3038 15.0741 23.1669 15.1675 22.9965 15.0633C22.8324 14.9628 22.7717 14.8151 22.7725 14.6261C22.7758 13.8759 22.774 13.1258 22.774 12.3757C22.774 12.3161 22.774 12.2562 22.774 12.177C22.7327 12.1959 22.7107 12.2034 22.691 12.2149C20.6196 13.4272 18.5489 14.6406 16.4756 15.8499C16.3714 15.9105 16.3327 15.9745 16.3327 16.0973C16.3371 18.3663 16.3364 20.6354 16.3368 22.9048C16.3368 23.0715 16.3368 23.2382 16.3368 23.4436V23.4432ZM15.7548 23.3717C15.7548 23.2583 15.7548 23.1917 15.7548 23.125C15.7537 20.8192 15.7485 18.5137 15.7578 16.2078C15.7585 15.9779 15.6878 15.8573 15.4921 15.7457C13.7396 14.7496 11.993 13.7427 10.2449 12.7396C9.94086 12.565 9.63649 12.392 9.30086 12.2C9.30086 12.3009 9.30086 12.3663 9.30086 12.4318C9.30086 13.1321 9.30235 13.8328 9.30086 14.533C9.30086 14.619 9.29714 14.7079 9.27518 14.7902C9.20225 15.0629 8.92244 15.176 8.68021 15.0365C8.39667 14.8731 8.12281 14.6897 7.82774 14.5513C7.5349 14.414 7.32467 14.5468 7.29304 14.8653C7.27556 15.0421 7.27853 15.2233 7.2949 15.4004C7.35481 16.0471 7.83481 16.6298 8.59723 16.6034C9.0296 16.5885 9.30197 16.881 9.30235 17.3115C9.30235 17.9995 9.30495 18.6875 9.29937 19.3755C9.29863 19.489 9.3336 19.5537 9.43109 19.6117C9.81956 19.8417 10.2028 20.0806 10.5883 20.3157C10.7762 20.4303 10.9645 20.5446 11.1669 20.6677C11.1669 20.4917 11.1636 20.3403 11.1676 20.1889C11.184 19.5757 11.6529 19.1329 12.2062 19.2147C12.8618 19.3122 13.3273 19.6832 13.6316 20.2577C13.9137 20.7902 13.9271 21.3479 13.7262 21.9098C13.6696 22.0676 13.6949 22.1617 13.8493 22.2376C14.0097 22.3165 14.1593 22.4173 14.3133 22.5092C14.7792 22.7872 15.245 23.0659 15.7559 23.371L15.7548 23.3717ZM29.5003 7.66644C29.078 7.44095 28.7029 7.23854 28.326 7.03984C26.489 6.07314 24.6516 5.10719 22.8119 4.14533C22.7591 4.11779 22.6672 4.11779 22.614 4.14533C21.9647 4.47835 21.3139 4.80914 20.6757 5.16226C20.3911 5.32002 20.1388 5.35984 19.8423 5.19463C19.4382 4.96988 18.995 4.92151 18.5474 5.03575C18.384 5.07742 18.2214 5.15779 18.0837 5.25602C17.8776 5.40337 17.8672 5.61956 18.0536 5.79333C18.1786 5.90979 18.3342 5.99277 18.4744 6.09361C18.5492 6.14719 18.637 6.19407 18.6888 6.26551C18.8197 6.44635 18.752 6.64691 18.5094 6.7857C18.2199 6.95165 17.9223 7.10309 17.6276 7.26012C17.2867 7.44207 16.9451 7.62365 16.5827 7.81677C16.6609 7.86254 16.7159 7.89863 16.7743 7.92877C17.2019 8.15165 17.6369 8.36188 18.0551 8.60077C18.2374 8.70495 18.3539 8.69491 18.5228 8.56765C19.3343 7.95519 20.4689 7.90123 21.3001 8.40133C22.0402 8.84635 22.0287 9.79221 21.2789 10.1591C21.2488 10.174 21.2246 10.2 21.1844 10.2309C21.2413 10.264 21.2819 10.2897 21.3243 10.312C21.7388 10.5334 22.157 10.7474 22.5671 10.9766C23.1505 11.3029 23.1427 11.2988 23.7288 10.9621C25.3801 10.0125 27.0359 9.07035 28.6899 8.12598C28.9459 7.97975 29.203 7.83537 29.5007 7.66682L29.5003 7.66644ZM7.03035 18.7704C7.03035 18.9111 7.03481 19.0097 7.0296 19.1079C6.99351 19.8224 6.42867 20.2328 5.73435 20.0657C4.88895 19.8625 4.02681 18.7232 4.40783 17.5749C4.50793 17.2735 4.47928 17.2058 4.21025 17.0477C3.62383 16.7027 3.03742 16.3582 2.45025 16.0143C2.40076 15.9853 2.34793 15.9626 2.27649 15.9273C2.27649 16.0166 2.27649 16.0717 2.27649 16.1271C2.27649 18.2101 2.2869 20.2934 2.26867 22.376C2.26458 22.8318 2.43909 23.1102 2.81676 23.3375C4.74607 24.4996 6.66644 25.6761 8.59053 26.8467C8.61956 26.8642 8.65528 26.8709 8.70402 26.8884C8.70402 26.7909 8.70402 26.7113 8.70402 26.6317C8.70402 26.0676 8.69993 25.5035 8.70477 24.9394C8.70811 24.571 9.02291 24.3812 9.34811 24.5528C9.62123 24.6968 9.88095 24.8668 10.1556 25.0075C10.4629 25.1649 10.6728 25.0428 10.7159 24.7001C10.8205 23.8718 10.2583 23.1757 9.43184 23.1098C8.95407 23.0718 8.70588 22.8077 8.70402 22.3265C8.70179 21.5701 8.69695 20.8136 8.70737 20.0575C8.70997 19.8689 8.659 19.7565 8.48895 19.6616C8.13807 19.4659 7.8017 19.2437 7.45937 19.0328C7.32914 18.9524 7.19816 18.8735 7.0296 18.7708L7.03035 18.7704ZM22.7665 20.2439C22.729 20.2618 22.7074 20.2692 22.6884 20.2815C22.1615 20.6179 21.6328 20.9517 21.1092 21.2929C20.9247 21.413 20.7349 21.4726 20.5362 21.358C20.3356 21.2423 20.2597 21.0521 20.2806 20.821C20.2977 20.6302 20.3204 20.4382 20.3159 20.2469C20.3074 19.8994 20.0815 19.7442 19.7515 19.8551C19.2871 20.0106 19.0277 20.3585 18.905 20.8132C18.8086 21.1708 18.8588 21.5198 18.9913 21.8663C19.1275 22.222 19.0441 22.4471 18.7316 22.6663C18.6709 22.709 18.6069 22.747 18.5433 22.7853C17.859 23.1965 17.1758 23.6095 16.4893 24.0162C16.3829 24.0795 16.3323 24.1461 16.3327 24.2778C16.3375 26.5658 16.3368 28.8538 16.3383 31.1418C16.3383 31.1805 16.3494 31.2192 16.3576 31.272C16.4168 31.2393 16.4607 31.2177 16.502 31.192C18.5425 29.9262 20.582 28.6584 22.6255 27.397C22.7438 27.3241 22.7781 27.2482 22.7766 27.1169C22.7699 26.5401 22.774 25.9637 22.7732 25.387C22.7732 25.3349 22.7669 25.2828 22.7621 25.2036C22.6679 25.2642 22.5987 25.3144 22.5243 25.355C22.3453 25.4521 22.1716 25.5652 21.9822 25.6352C21.5003 25.813 21.049 25.595 20.915 25.1001C20.8484 24.8549 20.8272 24.5863 20.8432 24.3321C20.8971 23.4733 21.6011 22.6402 22.4819 22.5539C22.6914 22.5334 22.7743 22.4374 22.7743 22.2257C22.7751 21.6117 22.7743 20.9978 22.7736 20.3842C22.7736 20.3433 22.7699 20.3023 22.7669 20.2439H22.7665ZM15.3827 7.83649C15.1859 7.73305 15.017 7.64449 14.8484 7.55556C14.3721 7.30514 13.8947 7.05733 13.4203 6.80393C13.1885 6.68002 13.1014 6.5003 13.2026 6.32616C13.2543 6.23686 13.3526 6.16877 13.4415 6.10774C13.5885 6.00616 13.7578 5.93398 13.8936 5.82049C14.0986 5.64933 14.1016 5.42681 13.8862 5.27128C13.731 5.15928 13.5397 5.07705 13.3526 5.03277C12.8536 4.91519 12.3695 4.98812 11.9141 5.22663C11.6897 5.34421 11.4813 5.34979 11.2469 5.22663C10.6013 4.88691 9.94346 4.57026 9.29528 4.23575C9.20374 4.18849 9.14346 4.1937 9.06197 4.24021C8.86886 4.35072 8.67202 4.45491 8.47518 4.55872C6.57267 5.563 4.67016 6.56616 2.76802 7.57119C2.69621 7.60914 2.63369 7.66458 2.5496 7.72375C2.62997 7.77212 2.68169 7.80523 2.73565 7.835C3.88318 8.46905 5.03183 9.1016 6.179 9.73677C7.08802 10.2398 7.99518 10.7466 8.9057 11.2471C8.9589 11.2761 9.05081 11.2899 9.09918 11.2635C9.67481 10.9502 10.2456 10.6283 10.8175 10.3079C10.8614 10.2834 10.902 10.2536 10.9083 10.2495C10.7263 10.0873 10.5083 9.95667 10.3807 9.76579C10.0744 9.307 10.2393 8.75891 10.7438 8.42291C11.5122 7.91091 12.6929 7.95593 13.4266 8.54458C13.616 8.6964 13.757 8.72765 13.977 8.59593C14.4257 8.32765 14.8964 8.09621 15.3823 7.83649H15.3827ZM25.0281 18.8136C24.5183 19.1355 24.019 19.4543 23.5152 19.765C23.4084 19.8309 23.3656 19.9024 23.3671 20.0311C23.3745 20.7935 23.3738 21.5563 23.3716 22.3191C23.3701 22.8006 23.1342 23.061 22.6497 23.1117C21.8352 23.1969 21.347 23.96 21.4393 24.7228C21.481 25.0659 21.6696 25.1507 21.9721 24.9796C22.1983 24.8516 22.4171 24.7109 22.6426 24.5818C23.0162 24.3678 23.3656 24.5699 23.3678 25C23.3704 25.4465 23.3693 25.893 23.3697 26.3392C23.3697 26.5282 23.3697 26.7172 23.3697 26.9397C23.4687 26.881 23.5368 26.8419 23.6037 26.8006C24.352 26.3396 25.1018 25.8811 25.8478 25.4164C27.014 24.6897 28.1757 23.9556 29.3433 23.2307C29.6406 23.0462 29.7719 22.8002 29.7708 22.4475C29.7634 20.3269 29.7675 18.2063 29.7671 16.0862C29.7671 16.0352 29.7593 15.9842 29.7537 15.9172C29.0802 16.3224 28.4279 16.7128 27.7783 17.1076C27.5788 17.2289 27.5386 17.339 27.6157 17.5593C27.9907 18.635 27.2618 19.819 26.2601 20.0754C25.6692 20.2264 25.1922 19.9332 25.0754 19.3327C25.0437 19.1701 25.0437 19.0015 25.0274 18.8136H25.0281ZM15.7496 31.1995C15.7537 31.1277 15.7578 31.0856 15.7578 31.0436C15.7556 28.769 15.7522 26.494 15.7526 24.2194C15.7526 24.1141 15.7221 24.0564 15.6283 24.0006C14.8945 23.5649 14.1623 23.1254 13.4352 22.6785C13.0534 22.4437 12.9775 22.1974 13.1383 21.7825C13.2447 21.5083 13.3243 21.2341 13.248 20.9353C13.12 20.4326 12.8607 20.0389 12.3498 19.8618C11.9926 19.7379 11.7634 19.899 11.76 20.2767C11.7585 20.4612 11.7842 20.6465 11.8032 20.8307C11.8251 21.0436 11.7801 21.2315 11.5877 21.3464C11.4047 21.4558 11.2205 21.4197 11.0445 21.3096C10.5206 20.9807 9.99556 20.6536 9.47053 20.3262C9.42216 20.296 9.37193 20.2689 9.3016 20.2287C9.3016 20.9219 9.299 21.5786 9.30309 22.2354C9.30421 22.4341 9.40802 22.5241 9.61639 22.5543C9.76821 22.5762 9.92597 22.5937 10.067 22.6488C10.966 22.9993 11.4724 23.9057 11.3098 24.8549C11.2108 25.4331 10.8305 25.745 10.2746 25.6731C10.1027 25.6508 9.93491 25.5675 9.77491 25.4916C9.61751 25.4168 9.47277 25.3159 9.30123 25.2136C9.30123 25.8361 9.31351 26.4248 9.29453 27.0123C9.28784 27.2248 9.36449 27.3319 9.53565 27.4343C10.608 28.0754 11.6756 28.725 12.7438 29.3729C13.7377 29.9757 14.7304 30.5803 15.7492 31.1998L15.7496 31.1995ZM2.28281 8.26365C2.27872 8.31835 2.27537 8.34291 2.27537 8.36747C2.27537 10.6123 2.27723 12.8571 2.27388 15.1016C2.27388 15.2251 2.33565 15.2746 2.42607 15.3267C3.14942 15.745 3.87016 16.1677 4.59388 16.5848C4.83314 16.7224 5.01956 16.9148 5.03928 17.1868C5.05453 17.4008 4.99872 17.6259 4.94253 17.8372C4.77993 18.4486 5.16095 19.2203 5.74923 19.441C6.19053 19.6065 6.43686 19.4402 6.43983 18.9717C6.44132 18.7611 6.42458 18.5498 6.43611 18.3396C6.45025 18.0813 6.691 17.9169 6.91723 18.0017C7.00876 18.0363 7.09509 18.088 7.17881 18.1401C7.63574 18.4251 8.09081 18.7128 8.54737 18.9985C8.59202 19.0264 8.64076 19.0477 8.70886 19.083C8.70886 18.5174 8.7096 17.979 8.70849 17.4402C8.70811 17.2229 8.68095 17.1983 8.45956 17.1905C7.95314 17.173 7.51184 17.0015 7.18179 16.6078C6.69918 16.0326 6.56411 15.3669 6.73007 14.6428C6.84393 14.1446 7.15835 13.9146 7.6603 13.9143C7.93193 13.9143 8.16597 14.0158 8.39258 14.1487C8.4897 14.2056 8.58681 14.2622 8.70365 14.3306C8.70365 13.5697 8.69472 12.8445 8.70923 12.12C8.71332 11.9161 8.64337 11.8153 8.46997 11.7193C6.97677 10.8921 5.48914 10.0549 3.99965 9.22105C3.43481 8.90477 2.86886 8.58998 2.28244 8.26254L2.28281 8.26365ZM23.3701 19.1582C23.5092 19.0715 23.6149 19.0086 23.7176 18.9416C24.1477 18.6614 24.576 18.3779 25.0073 18.0996C25.3332 17.8893 25.6555 18.0568 25.6703 18.4441C25.6744 18.5487 25.6521 18.654 25.654 18.7589C25.657 18.9308 25.654 19.1053 25.6837 19.2735C25.7117 19.432 25.833 19.5113 25.997 19.5042C26.2415 19.4938 26.4577 19.4049 26.6315 19.2344C27.0627 18.8114 27.241 18.3221 27.0419 17.7193C26.8674 17.1905 27.0181 16.8445 27.4962 16.5658C28.2125 16.1479 28.9243 15.723 29.6413 15.307C29.7414 15.249 29.7704 15.1831 29.7704 15.0711C29.766 12.8888 29.7656 10.7068 29.7641 8.52449C29.7641 8.42886 29.7641 8.33286 29.7641 8.21267C29.6945 8.25063 29.6521 8.27258 29.6104 8.2964C28.3706 9.00635 27.1308 9.71593 25.8917 10.427C25.1033 10.8795 24.3167 11.3357 23.5271 11.7859C23.4143 11.8503 23.3645 11.9217 23.366 12.0605C23.3749 12.7548 23.3697 13.4491 23.3704 14.1435C23.3704 14.1956 23.3749 14.2477 23.3779 14.3109C23.5673 14.2037 23.7303 14.0862 23.9111 14.0136C24.5273 13.7662 25.1022 13.9414 25.2651 14.6432C25.3135 14.8512 25.3399 15.0696 25.3384 15.2832C25.3329 16.2186 24.7208 17.1995 23.5881 17.1954C23.4623 17.195 23.3704 17.2527 23.3701 17.3944C23.3686 17.9701 23.3693 18.5457 23.3693 19.1578L23.3701 19.1582ZM14.0417 6.45007C14.6724 6.77491 15.2808 7.09081 15.8932 7.39891C15.9423 7.42347 16.0264 7.41491 16.0789 7.38961C16.2791 7.29286 16.4722 7.18123 16.6694 7.07779C17.0787 6.86309 17.4888 6.64988 17.9133 6.42849C17.8687 6.3924 17.8437 6.36486 17.8125 6.34774C17.1736 5.99798 17.1256 5.19091 17.7783 4.73174C18.3409 4.33584 18.9835 4.22198 19.6127 4.47686C20.089 4.66998 20.4789 4.65323 20.8778 4.36002C20.8975 4.34551 20.9213 4.33658 20.9433 4.32542C21.3038 4.13826 21.6644 3.95147 22.0443 3.75388C21.7239 3.58756 21.4281 3.43426 21.133 3.28058C19.5807 2.47314 18.025 1.67165 16.4782 0.853791C16.1247 0.667001 15.8024 0.651001 15.4657 0.86235C15.3876 0.911466 15.3027 0.950536 15.2209 0.993699C13.6625 1.81565 12.1038 2.63798 10.5455 3.45993C10.3137 3.58198 10.0823 3.70477 9.82365 3.84133C10.3721 4.11556 10.8867 4.36895 11.3969 4.63091C11.5185 4.69342 11.6205 4.69826 11.7448 4.63649C12.1559 4.43221 12.5902 4.32021 13.053 4.36226C13.523 4.40468 13.9669 4.52858 14.3345 4.84188C14.7736 5.21584 14.7706 5.86886 14.3316 6.24095C14.2478 6.31202 14.153 6.37044 14.0413 6.45044L14.0417 6.45007Z" fill="#171717" stroke="#171717" stroke-width="2" mask="url(#path-1-inside-1_872_3)"/>
<path d="M22.5154 11.6359C22.0997 11.8755 21.7202 12.0928 21.3425 12.3131C19.6216 13.3159 17.9014 14.3201 16.1783 15.3192C16.1284 15.3479 16.0343 15.3494 15.9844 15.3214C13.8802 14.1289 11.779 12.9315 9.67742 11.7345C9.64691 11.7174 9.61938 11.6954 9.57361 11.6641C10.0004 11.4305 10.4112 11.2046 10.8227 10.9802C11.0888 10.8351 11.3556 10.6915 11.6224 10.5475C11.7671 10.4694 11.878 10.3641 11.8657 10.1854C11.8542 10.0154 11.7347 9.93391 11.5918 9.86619C11.3972 9.77391 11.1952 9.68684 11.0214 9.56219C10.7531 9.37019 10.7584 9.13466 11.0289 8.94452C11.7358 8.4474 12.745 8.60219 13.2302 9.16963C13.4296 9.40293 13.6945 9.43977 13.9639 9.28647C14.5976 8.92517 15.2469 8.59103 15.8944 8.25503C15.9543 8.22377 16.0614 8.23307 16.1247 8.26582C16.7781 8.60405 17.4263 8.95196 18.077 9.29577C18.4116 9.47252 18.5541 9.43121 18.7959 9.14731C19.1572 8.72349 19.6529 8.62452 20.1745 8.6554C20.397 8.66879 20.6196 8.74991 20.832 8.82768C20.9485 8.87047 21.0564 8.95866 21.1461 9.04833C21.2912 9.19345 21.299 9.37205 21.1405 9.50377C20.9678 9.6474 20.7643 9.75679 20.5656 9.86582C20.4268 9.9421 20.2836 10.0027 20.2784 10.1907C20.2728 10.3841 20.3863 10.4958 20.544 10.5799C21.1171 10.885 21.689 11.192 22.2612 11.4986C22.3316 11.5361 22.4011 11.5745 22.5146 11.6362L22.5154 11.6359Z" fill="white"/>
<path d="M16.3368 23.4431C16.3368 23.2374 16.3368 23.0707 16.3368 22.9043C16.3368 20.6353 16.3372 18.3663 16.3327 16.0969C16.3327 15.9741 16.3714 15.9101 16.4756 15.8494C18.5485 14.6401 20.6196 13.4267 22.691 12.2145C22.7107 12.2029 22.7327 12.1951 22.774 12.1765C22.774 12.2561 22.774 12.3157 22.774 12.3752C22.774 13.1254 22.7759 13.8755 22.7725 14.6256C22.7718 14.8143 22.8321 14.9624 22.9965 15.0628C23.1669 15.167 23.3039 15.0736 23.4415 14.9884C23.6622 14.8519 23.8747 14.7 24.1039 14.5795C24.4376 14.4042 24.6393 14.5021 24.7115 14.8694C24.8138 15.3888 24.7301 15.8673 24.3524 16.2654C24.1318 16.4984 23.8568 16.5985 23.5372 16.6048C23.1193 16.6134 22.9054 16.7614 22.8019 17.1019C22.7792 17.1771 22.7751 17.26 22.7747 17.3397C22.7729 18.0154 22.7707 18.6911 22.7762 19.3668C22.7774 19.4911 22.7465 19.5693 22.6345 19.637C22.089 19.967 21.5494 20.306 21.0077 20.6416C20.9831 20.6569 20.9563 20.6677 20.918 20.687C20.9072 20.4556 20.9221 20.2375 20.8834 20.0295C20.7643 19.3895 20.2531 19.0781 19.6298 19.269C18.8897 19.4956 18.4823 20.0366 18.3141 20.7652C18.2196 21.1748 18.2267 21.5905 18.4198 21.98C18.4931 22.1278 18.3982 22.1825 18.3011 22.242C17.7526 22.5784 17.2034 22.914 16.6546 23.25C16.5608 23.3073 16.4663 23.3642 16.3368 23.4427V23.4431Z" fill="white"/>
<path d="M15.7548 23.3717C15.2439 23.0665 14.7781 22.7882 14.3122 22.5099C14.1582 22.418 14.0086 22.3168 13.8482 22.2383C13.6938 22.1624 13.6685 22.0682 13.725 21.9104C13.926 21.3486 13.9126 20.7905 13.6305 20.2584C13.3262 19.6838 12.8607 19.3129 12.205 19.2154C11.6517 19.1331 11.1829 19.5763 11.1665 20.1895C11.1624 20.341 11.1658 20.4924 11.1658 20.6684C10.9637 20.5452 10.7755 20.4314 10.5872 20.3164C10.2017 20.0812 9.81843 19.8424 9.42997 19.6124C9.33248 19.5547 9.29713 19.4896 9.29825 19.3761C9.30383 18.6881 9.3016 18.0001 9.30122 17.3121C9.30122 16.882 9.02848 16.5891 8.59611 16.604C7.83406 16.6305 7.35406 16.0478 7.29378 15.4011C7.27741 15.2239 7.27443 15.0427 7.29192 14.866C7.32355 14.5475 7.53341 14.4146 7.82662 14.5519C8.12169 14.6904 8.39555 14.8738 8.67909 15.0371C8.92132 15.1767 9.20113 15.0636 9.27406 14.7908C9.29602 14.7086 9.29974 14.6197 9.29974 14.5337C9.30122 13.8334 9.30011 13.1328 9.29974 12.4325C9.29974 12.367 9.29974 12.3011 9.29974 12.2007C9.63536 12.3923 9.93974 12.5657 10.2437 12.7402C11.9922 13.7434 13.7388 14.7503 15.491 15.7464C15.6871 15.8576 15.7578 15.9785 15.7567 16.2085C15.7474 18.514 15.7526 20.8198 15.7537 23.1257C15.7537 23.1923 15.7537 23.2585 15.7537 23.3724L15.7548 23.3717Z" fill="white"/>
<path d="M29.5003 7.66651C29.2026 7.83507 28.9455 7.97944 28.6895 8.12567C27.0352 9.07042 25.3797 10.0122 23.7284 10.9618C23.1423 11.2985 23.1502 11.3026 22.5667 10.9763C22.1567 10.7471 21.7384 10.5327 21.3239 10.3117C21.2815 10.289 21.2409 10.2637 21.184 10.2306C21.2242 10.1997 21.2484 10.1737 21.2785 10.1588C22.0283 9.79191 22.0398 8.84605 21.2997 8.40102C20.4681 7.9013 19.334 7.95488 18.5224 8.56735C18.3535 8.69498 18.237 8.70465 18.0547 8.60047C17.6365 8.36158 17.2015 8.15135 16.774 7.92847C16.7155 7.89795 16.6605 7.86223 16.5823 7.81647C16.9451 7.62335 17.2863 7.44177 17.6272 7.25981C17.9215 7.10279 18.2195 6.95098 18.509 6.7854C18.7516 6.64661 18.819 6.44605 18.6884 6.26521C18.6367 6.1934 18.5485 6.14688 18.4741 6.0933C18.3342 5.99284 18.1782 5.90986 18.0532 5.79302C17.8672 5.61926 17.8772 5.40307 18.0834 5.25572C18.221 5.15749 18.3836 5.07712 18.547 5.03544C18.995 4.92121 19.4378 4.96958 19.8419 5.19433C20.1384 5.35954 20.3911 5.31935 20.6754 5.16195C21.3135 4.80847 21.9647 4.47805 22.6136 4.14502C22.6668 4.11786 22.7587 4.11749 22.8115 4.14502C24.6512 5.10688 26.4886 6.07284 28.3256 7.03954C28.7029 7.23786 29.078 7.44065 29.4999 7.66614L29.5003 7.66651Z" fill="white"/>
<path d="M7.03034 18.7705C7.19889 18.8732 7.32987 18.9525 7.4601 19.0325C7.80243 19.2435 8.1388 19.4656 8.48969 19.6613C8.65973 19.7562 8.71071 19.8686 8.7081 20.0572C8.69731 20.8133 8.70215 21.5698 8.70476 22.3263C8.70624 22.8074 8.95443 23.0716 9.43257 23.1095C10.259 23.1754 10.8208 23.8716 10.7167 24.6998C10.6735 25.0425 10.4636 25.1646 10.1563 25.0072C9.88169 24.8665 9.62196 24.6965 9.34885 24.5525C9.02364 24.381 8.70885 24.5707 8.7055 24.9391C8.70029 25.5032 8.70438 26.0673 8.70476 26.6314C8.70476 26.711 8.70476 26.7906 8.70476 26.8881C8.65601 26.8706 8.62029 26.8639 8.59127 26.8464C6.66717 25.6758 4.7468 24.4993 2.8175 23.3372C2.43982 23.1099 2.26569 22.8312 2.26941 22.3757C2.28764 20.2928 2.27722 18.2098 2.27722 16.1268C2.27722 16.0714 2.27722 16.0163 2.27722 15.927C2.34866 15.9624 2.4015 15.985 2.45099 16.0141C3.03778 16.3579 3.62457 16.7024 4.21099 17.0474C4.48001 17.2059 4.50829 17.2732 4.40857 17.5746C4.02755 18.7229 4.88969 19.8623 5.73508 20.0654C6.42941 20.2325 6.99387 19.8217 7.03034 19.1077C7.03517 19.0094 7.03108 18.9104 7.03108 18.7702L7.03034 18.7705Z" fill="white"/>
<path d="M22.7665 20.2439C22.7695 20.3023 22.7732 20.3432 22.7732 20.3842C22.7739 20.9981 22.7747 21.6121 22.774 22.2256C22.774 22.437 22.691 22.533 22.4815 22.5538C21.6011 22.6398 20.8971 23.4733 20.8428 24.3321C20.8268 24.5862 20.848 24.8548 20.9146 25.1001C21.0486 25.5949 21.4999 25.813 21.9818 25.6351C22.1712 25.5652 22.3449 25.4521 22.5239 25.3549C22.5983 25.3144 22.6675 25.2642 22.7617 25.2035C22.7669 25.2828 22.7728 25.3349 22.7728 25.3869C22.7736 25.9637 22.7695 26.5404 22.7762 27.1168C22.7777 27.2482 22.7431 27.3241 22.6251 27.397C20.5816 28.6584 18.5421 29.9261 16.5016 31.192C16.4603 31.2176 16.4167 31.2392 16.3572 31.272C16.349 31.2195 16.3379 31.1804 16.3379 31.1417C16.3364 28.8537 16.3371 26.5657 16.3323 24.2777C16.3323 24.146 16.3821 24.0794 16.4889 24.0162C17.1754 23.6091 17.859 23.1964 18.5429 22.7853C18.6065 22.7469 18.6705 22.709 18.7312 22.6662C19.0437 22.447 19.1267 22.2219 18.9909 21.8662C18.8584 21.5198 18.8082 21.1708 18.9046 20.8132C19.0273 20.3585 19.2867 20.0106 19.7511 19.855C20.0811 19.7445 20.307 19.8993 20.3155 20.2468C20.32 20.4377 20.2973 20.6297 20.2802 20.821C20.2593 21.0524 20.3353 21.2422 20.5358 21.3579C20.7345 21.4725 20.9243 21.413 21.1088 21.2928C21.6327 20.9516 22.1611 20.6178 22.688 20.2815C22.707 20.2695 22.7286 20.2617 22.7661 20.2439H22.7665Z" fill="white"/>
<path d="M15.3827 7.83619C14.8968 8.09592 14.4261 8.32736 13.9773 8.59564C13.7571 8.72736 13.6164 8.6961 13.427 8.54429C12.6932 7.95564 11.5126 7.91061 10.7442 8.42261C10.2397 8.75899 10.0748 9.30671 10.3811 9.7655C10.5087 9.95638 10.7267 10.087 10.9087 10.2492C10.9024 10.2533 10.8614 10.2831 10.8179 10.3076C10.246 10.628 9.6752 10.9499 9.09957 11.2632C9.0512 11.2896 8.95892 11.2758 8.90608 11.2468C7.99557 10.7463 7.08841 10.2395 6.17938 9.73647C5.03222 9.10168 3.88357 8.46875 2.73603 7.83471C2.68245 7.80494 2.63073 7.77182 2.54999 7.72345C2.63371 7.66429 2.69659 7.60885 2.76841 7.57089C4.67017 6.5655 6.57306 5.56233 8.47557 4.55843C8.67241 4.45461 8.86924 4.35043 9.06236 4.23992C9.14385 4.19303 9.20413 4.18782 9.29566 4.23545C9.94385 4.57033 10.6017 4.88661 11.2473 5.22633C11.4817 5.34987 11.6905 5.34392 11.9145 5.22633C12.3699 4.98782 12.8536 4.91489 13.353 5.03247C13.5401 5.07638 13.731 5.15899 13.8865 5.27099C14.102 5.42652 14.099 5.64903 13.894 5.82019C13.7582 5.93368 13.5889 6.00587 13.4419 6.10745C13.3533 6.16847 13.2551 6.23657 13.203 6.32587C13.1018 6.50001 13.1889 6.67973 13.4207 6.80364C13.8951 7.05703 14.3725 7.30522 14.8488 7.55526C15.0173 7.64382 15.1863 7.73275 15.3831 7.83619H15.3827Z" fill="white"/>
<path d="M25.0281 18.8136C25.0445 19.0015 25.0445 19.1704 25.0761 19.3327C25.193 19.9332 25.67 20.2264 26.2609 20.0754C27.2625 19.8194 27.9915 18.635 27.6164 17.5593C27.5397 17.339 27.5796 17.2289 27.779 17.1076C28.4287 16.7128 29.081 16.3224 29.7544 15.9172C29.76 15.9842 29.7678 16.0352 29.7678 16.0862C29.7678 18.2067 29.7641 20.3273 29.7716 22.4475C29.7727 22.8006 29.6413 23.0465 29.344 23.2307C28.1764 23.9552 27.0147 24.6893 25.8486 25.4164C25.1025 25.8811 24.3528 26.3396 23.6045 26.8006C23.5375 26.8419 23.4694 26.881 23.3704 26.9397C23.3704 26.7172 23.3704 26.5282 23.3704 26.3392C23.3701 25.8927 23.3712 25.4462 23.3686 25C23.3664 24.5695 23.017 24.3675 22.6434 24.5818C22.4179 24.7109 22.1991 24.8516 21.9729 24.9796C21.6704 25.1507 21.4813 25.0659 21.44 24.7228C21.3477 23.96 21.8359 23.1969 22.6504 23.1117C23.1349 23.061 23.3708 22.8006 23.3723 22.3191C23.3745 21.5563 23.3749 20.7939 23.3678 20.0311C23.3667 19.9024 23.4091 19.8309 23.5159 19.765C24.0197 19.454 24.5191 19.1351 25.0289 18.8136H25.0281Z" fill="white"/>
<path d="M15.7496 31.1995C14.7308 30.58 13.7381 29.9753 12.7442 29.3725C11.6759 28.7243 10.6088 28.0747 9.53601 27.4339C9.36485 27.3316 9.2882 27.224 9.2949 27.012C9.31387 26.4244 9.3016 25.8358 9.3016 25.2133C9.47313 25.3156 9.61825 25.4164 9.77527 25.4912C9.93527 25.5671 10.1031 25.6508 10.275 25.6728C10.8305 25.7446 11.2112 25.4328 11.3102 24.8546C11.4728 23.9054 10.9663 22.9989 10.0674 22.6484C9.92634 22.5933 9.76857 22.5762 9.61676 22.5539C9.40839 22.5238 9.30457 22.4337 9.30346 22.235C9.29936 21.5783 9.30197 20.9215 9.30197 20.2283C9.37192 20.2689 9.42253 20.2957 9.4709 20.3258C9.99592 20.6533 10.5209 20.9803 11.0449 21.3093C11.2205 21.4198 11.405 21.4555 11.5881 21.3461C11.7805 21.2311 11.8255 21.0432 11.8035 20.8304C11.7846 20.6462 11.7589 20.4609 11.7604 20.2763C11.7637 19.8987 11.9929 19.7375 12.3502 19.8614C12.861 20.0386 13.12 20.4322 13.2484 20.9349C13.3247 21.2337 13.245 21.508 13.1386 21.7822C12.9779 22.1967 13.0538 22.4434 13.4355 22.6782C14.1626 23.1254 14.8949 23.5645 15.6287 24.0002C15.7224 24.056 15.7529 24.1137 15.7529 24.219C15.7529 26.4936 15.7559 28.7686 15.7582 31.0432C15.7582 31.0853 15.7537 31.1273 15.75 31.1991L15.7496 31.1995Z" fill="white"/>
<path d="M2.28279 8.26367C2.86921 8.59111 3.43516 8.9059 4 9.22218C5.48949 10.056 6.97712 10.8936 8.47033 11.7204C8.64372 11.8164 8.71367 11.9173 8.70958 12.1212C8.69507 12.8456 8.704 13.5708 8.704 14.3318C8.58679 14.2633 8.48967 14.2067 8.39293 14.1498C8.16633 14.017 7.93228 13.9154 7.66065 13.9154C7.1587 13.9154 6.84428 14.1457 6.73042 14.644C6.56484 15.368 6.69953 16.0337 7.18214 16.609C7.51219 17.0023 7.95349 17.1742 8.45991 17.1917C8.6813 17.1995 8.70846 17.224 8.70884 17.4413C8.70995 17.9798 8.70921 18.5186 8.70921 19.0841C8.64112 19.0488 8.59237 19.0276 8.54772 18.9997C8.09116 18.7139 7.63609 18.4259 7.17916 18.1413C7.09544 18.0892 7.00912 18.0371 6.91758 18.0028C6.69098 17.9176 6.4506 18.0825 6.43647 18.3407C6.42493 18.5506 6.44167 18.7619 6.44019 18.9729C6.43684 19.4413 6.19051 19.6077 5.74958 19.4421C5.1613 19.2214 4.78028 18.4497 4.94288 17.8384C4.99907 17.6266 5.05526 17.4015 5.03963 17.188C5.01991 16.9156 4.83349 16.7236 4.59423 16.5859C3.87014 16.1688 3.14977 15.7461 2.42642 15.3279C2.336 15.2754 2.27386 15.2263 2.27423 15.1027C2.27758 12.8579 2.27609 10.6131 2.27572 8.3686C2.27572 8.34404 2.27907 8.31949 2.28316 8.26479L2.28279 8.26367Z" fill="white"/>
<path d="M23.3701 19.1583C23.3701 18.5462 23.3694 17.9705 23.3708 17.3949C23.3708 17.2531 23.4631 17.1951 23.5889 17.1958C24.7215 17.1999 25.334 16.2191 25.3392 15.2836C25.3403 15.0701 25.3143 14.8516 25.2659 14.6436C25.1026 13.9415 24.5281 13.7666 23.9119 14.0141C23.731 14.0866 23.5684 14.2038 23.3787 14.3114C23.3757 14.2477 23.3712 14.196 23.3712 14.1439C23.3708 13.4496 23.3757 12.7553 23.3667 12.0609C23.3649 11.9222 23.4151 11.8507 23.5279 11.7863C24.3174 11.3357 25.1041 10.8799 25.8925 10.4275C27.1316 9.71639 28.3714 9.00681 29.6112 8.29686C29.6525 8.27304 29.6949 8.25109 29.7649 8.21313C29.7649 8.33369 29.7649 8.42932 29.7649 8.52495C29.766 10.7073 29.7664 12.8892 29.7712 15.0716C29.7712 15.1836 29.7426 15.249 29.6421 15.3075C28.9251 15.7235 28.2129 16.1488 27.497 16.5663C27.0192 16.8449 26.8681 17.1906 27.0427 17.7197C27.2414 18.3225 27.0635 18.8115 26.6322 19.2349C26.4585 19.4053 26.2423 19.4943 25.9978 19.5047C25.8337 19.5117 25.7124 19.4325 25.6845 19.274C25.6551 19.1058 25.6581 18.9313 25.6547 18.7594C25.6529 18.6544 25.6748 18.5491 25.6711 18.4446C25.6562 18.0576 25.334 17.8898 25.0081 18.1C24.5768 18.3783 24.1485 18.6619 23.7184 18.9421C23.6157 19.009 23.51 19.0719 23.3708 19.1586L23.3701 19.1583Z" fill="white"/>
<path d="M14.0417 6.44994C14.1533 6.36994 14.2479 6.31152 14.3319 6.24045C14.771 5.86799 14.774 5.21496 14.3349 4.84138C13.9669 4.52808 13.5234 4.40454 13.0534 4.36175C12.5905 4.31971 12.1559 4.43208 11.7452 4.63599C11.6209 4.69775 11.5193 4.69292 11.3972 4.6304C10.8871 4.36845 10.3721 4.11506 9.82404 3.84082C10.0826 3.70427 10.3141 3.58185 10.5459 3.45943C12.1042 2.63747 13.6629 1.81515 15.2212 0.993195C15.3031 0.950032 15.3879 0.910963 15.4661 0.861846C15.8028 0.650498 16.1251 0.666497 16.4785 0.853288C18.0253 1.67115 19.5811 2.47264 21.1334 3.28008C21.4289 3.43375 21.7243 3.58668 22.0447 3.75338C21.6644 3.95059 21.3039 4.13775 20.9437 4.32492C20.9217 4.33645 20.8979 4.34501 20.8782 4.35952C20.4793 4.65273 20.0893 4.66947 19.6131 4.47636C18.9839 4.22147 18.3412 4.33533 17.7786 4.73124C17.1256 5.1904 17.174 5.99747 17.8129 6.34724C17.8441 6.36436 17.8694 6.39189 17.9137 6.42799C17.4892 6.64938 17.0791 6.86259 16.6698 7.07729C16.4726 7.18073 16.2795 7.29236 16.0793 7.3891C16.0268 7.4144 15.9427 7.42296 15.8936 7.3984C15.2812 7.08994 14.6728 6.7744 14.0421 6.44957L14.0417 6.44994Z" fill="white"/>
</svg>
