<svg width="40" height="40" viewBox="0 0 40 40" fill="none" xmlns="http://www.w3.org/2000/svg">
<path opacity="0.64" d="M26.5154 15.6357C26.0997 15.8754 25.7202 16.0927 25.3425 16.313C23.6216 17.3157 21.9014 18.32 20.1783 19.3191C20.1284 19.3477 20.0343 19.3492 19.9844 19.3213C17.8802 18.1288 15.779 16.9314 13.6774 15.7343C13.6469 15.7172 13.6194 15.6953 13.5736 15.664C14.0004 15.4303 14.4112 15.2045 14.8227 14.9801C15.0888 14.835 15.3556 14.6914 15.6224 14.5474C15.7671 14.4692 15.878 14.3639 15.8657 14.1853C15.8542 14.0153 15.7347 13.9338 15.5918 13.8661C15.3972 13.7738 15.1952 13.6867 15.0214 13.5621C14.7531 13.3701 14.7584 13.1345 15.0289 12.9444C15.7358 12.4473 16.745 12.6021 17.2302 13.1695C17.4296 13.4028 17.6945 13.4397 17.9639 13.2863C18.5976 12.925 19.2469 12.5909 19.8944 12.2549C19.9543 12.2237 20.0614 12.233 20.1247 12.2657C20.7781 12.6039 21.4263 12.9518 22.077 13.2957C22.4116 13.4724 22.5541 13.4311 22.7959 13.1472C23.1572 12.7234 23.6529 12.6244 24.1745 12.6553C24.397 12.6687 24.6196 12.7498 24.832 12.8276C24.9485 12.8703 25.0564 12.9585 25.1461 13.0482C25.2912 13.1933 25.299 13.3719 25.1405 13.5037C24.9678 13.6473 24.7643 13.7567 24.5656 13.8657C24.4268 13.942 24.2836 14.0026 24.2784 14.1905C24.2728 14.384 24.3863 14.4956 24.544 14.5797C25.1171 14.8849 25.689 15.1918 26.2612 15.4984C26.3316 15.536 26.4011 15.5743 26.5146 15.6361L26.5154 15.6357Z" fill="#A1A1A1"/>
<path opacity="0.64" d="M20.3368 27.443C20.3368 27.2372 20.3368 27.0705 20.3368 26.9042C20.3368 24.6352 20.3372 22.3662 20.3327 20.0968C20.3327 19.974 20.3714 19.91 20.4756 19.8493C22.5485 18.64 24.6196 17.4266 26.691 16.2143C26.7107 16.2028 26.7327 16.195 26.774 16.1764C26.774 16.256 26.774 16.3156 26.774 16.3751C26.774 17.1252 26.7759 17.8754 26.7725 18.6255C26.7718 18.8142 26.8321 18.9623 26.9965 19.0627C27.1669 19.1669 27.3039 19.0735 27.4415 18.9883C27.6622 18.8517 27.8747 18.6999 28.1039 18.5794C28.4376 18.4041 28.6393 18.502 28.7115 18.8692C28.8138 19.3887 28.7301 19.8672 28.3524 20.2653C28.1318 20.4983 27.8568 20.5983 27.5372 20.6047C27.1193 20.6132 26.9054 20.7613 26.8019 21.1018C26.7792 21.1769 26.7751 21.2599 26.7747 21.3396C26.7729 22.0153 26.7707 22.691 26.7762 23.3667C26.7774 23.491 26.7465 23.5691 26.6345 23.6369C26.089 23.9669 25.5494 24.3059 25.0077 24.6415C24.9831 24.6568 24.9563 24.6676 24.918 24.6869C24.9072 24.4555 24.9221 24.2374 24.8834 24.0294C24.7643 23.3894 24.2531 23.078 23.6298 23.2689C22.8897 23.4955 22.4823 24.0365 22.3141 24.765C22.2196 25.1747 22.2267 25.5903 22.4198 25.9799C22.4931 26.1276 22.3982 26.1823 22.3011 26.2419C21.7526 26.5783 21.2034 26.9139 20.6546 27.2499C20.5608 27.3072 20.4663 27.3641 20.3368 27.4426V27.443Z" fill="#A1A1A1"/>
<path opacity="0.64" d="M19.7548 27.3717C19.2439 27.0665 18.7781 26.7882 18.3122 26.5099C18.1582 26.418 18.0086 26.3168 17.8482 26.2383C17.6938 26.1624 17.6685 26.0682 17.725 25.9104C17.926 25.3486 17.9126 24.7905 17.6305 24.2584C17.3262 23.6838 16.8607 23.3129 16.205 23.2154C15.6517 23.1331 15.1829 23.5763 15.1665 24.1895C15.1624 24.341 15.1658 24.4924 15.1658 24.6684C14.9637 24.5452 14.7755 24.4314 14.5872 24.3164C14.2017 24.0812 13.8184 23.8424 13.43 23.6124C13.3325 23.5547 13.2971 23.4896 13.2982 23.3761C13.3038 22.6881 13.3016 22.0001 13.3012 21.3121C13.3012 20.882 13.0285 20.5891 12.5961 20.604C11.8341 20.6305 11.3541 20.0478 11.2938 19.4011C11.2774 19.2239 11.2744 19.0427 11.2919 18.866C11.3236 18.5475 11.5334 18.4146 11.8266 18.5519C12.1217 18.6904 12.3956 18.8738 12.6791 19.0371C12.9213 19.1767 13.2011 19.0636 13.2741 18.7908C13.296 18.7086 13.2997 18.6197 13.2997 18.5337C13.3012 17.8334 13.3001 17.1328 13.2997 16.4325C13.2997 16.367 13.2997 16.3011 13.2997 16.2007C13.6354 16.3923 13.9397 16.5657 14.2437 16.7402C15.9922 17.7434 17.7388 18.7503 19.491 19.7464C19.6871 19.8576 19.7578 19.9785 19.7567 20.2085C19.7474 22.514 19.7526 24.8198 19.7537 27.1257C19.7537 27.1923 19.7537 27.2585 19.7537 27.3724L19.7548 27.3717Z" fill="#A1A1A1"/>
<path opacity="0.64" d="M33.5003 11.6663C33.2026 11.8348 32.9455 11.9792 32.6895 12.1254C31.0352 13.0702 29.3797 14.0119 27.7284 14.9615C27.1423 15.2983 27.1502 15.3024 26.5667 14.976C26.1567 14.7468 25.7384 14.5325 25.3239 14.3115C25.2815 14.2888 25.2409 14.2635 25.184 14.2304C25.2242 14.1995 25.2484 14.1734 25.2785 14.1585C26.0283 13.7917 26.0398 12.8458 25.2997 12.4008C24.4681 11.9011 23.334 11.9546 22.5224 12.5671C22.3535 12.6947 22.237 12.7044 22.0547 12.6002C21.6365 12.3613 21.2015 12.1511 20.774 11.9282C20.7155 11.8977 20.6605 11.862 20.5823 11.8162C20.9451 11.6231 21.2863 11.4415 21.6272 11.2596C21.9215 11.1025 22.2195 10.9507 22.509 10.7852C22.7516 10.6464 22.819 10.4458 22.6884 10.265C22.6367 10.1932 22.5485 10.1466 22.4741 10.0931C22.3342 9.99259 22.1782 9.90962 22.0532 9.79278C21.8672 9.61901 21.8772 9.40283 22.0834 9.25548C22.221 9.15724 22.3836 9.07687 22.547 9.0352C22.995 8.92097 23.4378 8.96934 23.8419 9.19408C24.1384 9.35929 24.3911 9.31911 24.6754 9.16171C25.3135 8.80822 25.9647 8.4778 26.6136 8.14478C26.6668 8.11762 26.7587 8.11724 26.8115 8.14478C28.6512 9.10664 30.4886 10.0726 32.3256 11.0393C32.7029 11.2376 33.078 11.4404 33.4999 11.6659L33.5003 11.6663Z" fill="#A1A1A1"/>
<path opacity="0.64" d="M11.0303 22.7703C11.1989 22.873 11.3299 22.9522 11.4601 23.0322C11.8024 23.2432 12.1388 23.4654 12.4897 23.6611C12.6597 23.756 12.7107 23.8683 12.7081 24.057C12.6973 24.8131 12.7022 25.5696 12.7048 26.326C12.7062 26.8071 12.9544 27.0713 13.4326 27.1093C14.259 27.1751 14.8208 27.8713 14.7167 28.6996C14.6735 29.0423 14.4636 29.1643 14.1563 29.0069C13.8817 28.8663 13.622 28.6962 13.3488 28.5522C13.0236 28.3807 12.7088 28.5705 12.7055 28.9389C12.7003 29.5029 12.7044 30.067 12.7048 30.6311C12.7048 30.7108 12.7048 30.7904 12.7048 30.8879C12.656 30.8704 12.6203 30.8637 12.5913 30.8462C10.6672 29.6756 8.7468 28.499 6.8175 27.337C6.43982 27.1096 6.26569 26.8309 6.26941 26.3755C6.28764 24.2925 6.27722 22.2096 6.27722 20.1266C6.27722 20.0711 6.27722 20.0161 6.27722 19.9268C6.34866 19.9621 6.4015 19.9848 6.45099 20.0138C7.03778 20.3576 7.62457 20.7022 8.21099 21.0471C8.48001 21.2056 8.50829 21.273 8.40857 21.5744C8.02755 22.7227 8.88969 23.862 9.73508 24.0652C10.4294 24.2322 10.9939 23.8215 11.0303 23.1074C11.0352 23.0092 11.0311 22.9102 11.0311 22.7699L11.0303 22.7703Z" fill="#A1A1A1"/>
<path opacity="0.64" d="M26.7665 24.2438C26.7695 24.3022 26.7732 24.3431 26.7732 24.384C26.7739 24.998 26.7747 25.6119 26.774 26.2255C26.774 26.4369 26.691 26.5329 26.4815 26.5537C25.6011 26.6397 24.8971 27.4731 24.8428 28.3319C24.8268 28.5861 24.848 28.8547 24.9146 29.0999C25.0486 29.5948 25.4999 29.8129 25.9818 29.635C26.1712 29.5651 26.3449 29.4519 26.5239 29.3548C26.5983 29.3143 26.6675 29.264 26.7617 29.2034C26.7669 29.2826 26.7728 29.3347 26.7728 29.3868C26.7736 29.9636 26.7695 30.5403 26.7762 31.1167C26.7777 31.248 26.7431 31.3239 26.6251 31.3969C24.5816 32.6583 22.5421 33.926 20.5016 35.1918C20.4603 35.2175 20.4167 35.2391 20.3572 35.2718C20.349 35.2194 20.3379 35.1803 20.3379 35.1416C20.3364 32.8536 20.3371 30.5656 20.3323 28.2776C20.3323 28.1459 20.3821 28.0793 20.4889 28.016C21.1754 27.609 21.859 27.1963 22.5429 26.7851C22.6065 26.7468 22.6705 26.7089 22.7312 26.6661C23.0437 26.4469 23.1267 26.2218 22.9909 25.8661C22.8584 25.5197 22.8082 25.1706 22.9046 24.8131C23.0273 24.3584 23.2867 24.0104 23.7511 23.8549C24.0811 23.7444 24.307 23.8992 24.3155 24.2467C24.32 24.4376 24.2973 24.6296 24.2802 24.8209C24.2593 25.0523 24.3353 25.2421 24.5358 25.3578C24.7345 25.4724 24.9243 25.4129 25.1088 25.2927C25.6327 24.9515 26.1611 24.6177 26.688 24.2813C26.707 24.2694 26.7286 24.2616 26.7661 24.2438H26.7665Z" fill="#A1A1A1"/>
<path opacity="0.64" d="M19.3827 11.836C18.8968 12.0957 18.4261 12.3271 17.9773 12.5954C17.7571 12.7271 17.6164 12.6959 17.427 12.544C16.6932 11.9554 15.5126 11.9104 14.7442 12.4224C14.2397 12.7587 14.0748 13.3065 14.3811 13.7653C14.5087 13.9561 14.7267 14.0867 14.9087 14.249C14.9024 14.2531 14.8614 14.2828 14.8179 14.3074C14.246 14.6278 13.6752 14.9496 13.0996 15.2629C13.0512 15.2893 12.9589 15.2756 12.9061 15.2466C11.9956 14.7461 11.0884 14.2393 10.1794 13.7362C9.03222 13.1014 7.88357 12.4685 6.73603 11.8345C6.68245 11.8047 6.63073 11.7716 6.54999 11.7232C6.63371 11.664 6.69659 11.6086 6.76841 11.5706C8.67017 10.5653 10.5731 9.56209 12.4756 8.55818C12.6724 8.45437 12.8692 8.35018 13.0624 8.23967C13.1438 8.19279 13.2041 8.18758 13.2957 8.23521C13.9438 8.57009 14.6017 8.88637 15.2473 9.22609C15.4817 9.34962 15.6905 9.34367 15.9145 9.22609C16.3699 8.98758 16.8536 8.91465 17.353 9.03223C17.5401 9.07614 17.731 9.15874 17.8865 9.27074C18.102 9.42628 18.099 9.64879 17.894 9.81995C17.7582 9.93344 17.5889 10.0056 17.4419 10.1072C17.3533 10.1682 17.2551 10.2363 17.203 10.3256C17.1018 10.4998 17.1889 10.6795 17.4207 10.8034C17.8951 11.0568 18.3725 11.305 18.8488 11.555C19.0173 11.6436 19.1863 11.7325 19.3831 11.836H19.3827Z" fill="#A1A1A1"/>
<path opacity="0.64" d="M29.0281 22.8135C29.0445 23.0014 29.0445 23.1703 29.0761 23.3326C29.193 23.9331 29.67 24.2263 30.2609 24.0753C31.2625 23.8193 31.9915 22.6349 31.6164 21.5592C31.5397 21.3389 31.5796 21.2287 31.779 21.1074C32.4287 20.7126 33.081 20.3223 33.7544 19.9171C33.76 19.9841 33.7678 20.0351 33.7678 20.086C33.7678 22.2066 33.7641 24.3272 33.7716 26.4473C33.7727 26.8005 33.6413 27.0464 33.344 27.2306C32.1764 27.9551 31.0147 28.6892 29.8486 29.4163C29.1025 29.881 28.3528 30.3394 27.6045 30.8005C27.5375 30.8418 27.4694 30.8808 27.3704 30.9396C27.3704 30.7171 27.3704 30.5281 27.3704 30.3391C27.3701 29.8926 27.3712 29.446 27.3686 28.9999C27.3664 28.5694 27.017 28.3673 26.6434 28.5817C26.4179 28.7108 26.1991 28.8514 25.9729 28.9794C25.6704 29.1506 25.4813 29.0658 25.44 28.7227C25.3477 27.9599 25.8359 27.1967 26.6504 27.1115C27.1349 27.0609 27.3708 26.8005 27.3723 26.319C27.3745 25.5562 27.3749 24.7938 27.3678 24.031C27.3667 23.9022 27.4091 23.8308 27.5159 23.7649C28.0197 23.4539 28.5191 23.135 29.0289 22.8135H29.0281Z" fill="#A1A1A1"/>
<path opacity="0.64" d="M19.7496 35.1994C18.7308 34.5798 17.7381 33.9752 16.7442 33.3724C15.6759 32.7242 14.6088 32.0745 13.536 31.4338C13.3649 31.3315 13.2882 31.2239 13.2949 31.0118C13.3139 30.4243 13.3016 29.8356 13.3016 29.2131C13.4731 29.3155 13.6182 29.4163 13.7753 29.4911C13.9353 29.567 14.1031 29.6507 14.275 29.6727C14.8305 29.7445 15.2112 29.4327 15.3102 28.8544C15.4728 27.9052 14.9663 26.9988 14.0674 26.6483C13.9263 26.5932 13.7686 26.5761 13.6168 26.5538C13.4084 26.5236 13.3046 26.4336 13.3035 26.2349C13.2994 25.5782 13.302 24.9214 13.302 24.2282C13.3719 24.2688 13.4225 24.2956 13.4709 24.3257C13.9959 24.6531 14.5209 24.9802 15.0449 25.3091C15.2205 25.4196 15.405 25.4554 15.5881 25.346C15.7805 25.231 15.8255 25.0431 15.8035 24.8303C15.7846 24.6461 15.7589 24.4608 15.7604 24.2762C15.7637 23.8985 15.9929 23.7374 16.3502 23.8613C16.861 24.0384 17.12 24.4321 17.2484 24.9348C17.3247 25.2336 17.245 25.5078 17.1386 25.7821C16.9779 26.1966 17.0538 26.4433 17.4355 26.6781C18.1626 27.1253 18.8949 27.5644 19.6287 28.0001C19.7224 28.0559 19.7529 28.1136 19.7529 28.2189C19.7529 30.4935 19.7559 32.7685 19.7582 35.0431C19.7582 35.0851 19.7537 35.1272 19.75 35.199L19.7496 35.1994Z" fill="#A1A1A1"/>
<path opacity="0.64" d="M6.28279 12.2635C6.86921 12.591 7.43516 12.9058 8 13.2221C9.48949 14.0559 10.9771 14.8935 12.4703 15.7203C12.6437 15.8163 12.7137 15.9171 12.7096 16.121C12.6951 16.8455 12.704 17.5707 12.704 18.3316C12.5868 18.2632 12.4897 18.2066 12.3929 18.1497C12.1663 18.0169 11.9323 17.9153 11.6607 17.9153C11.1587 17.9153 10.8443 18.1456 10.7304 18.6438C10.5648 19.3679 10.6995 20.0336 11.1821 20.6089C11.5122 21.0022 11.9535 21.1741 12.4599 21.1916C12.6813 21.1994 12.7085 21.2239 12.7088 21.4412C12.71 21.9796 12.7092 22.5184 12.7092 23.084C12.6411 23.0487 12.5924 23.0275 12.5477 22.9995C12.0912 22.7138 11.6361 22.4258 11.1792 22.1411C11.0954 22.089 11.0091 22.0369 10.9176 22.0027C10.691 21.9175 10.4506 22.0823 10.4365 22.3406C10.4249 22.5504 10.4417 22.7618 10.4402 22.9728C10.4368 23.4412 10.1905 23.6076 9.74958 23.442C9.1613 23.2213 8.78028 22.4496 8.94288 21.8382C8.99907 21.6265 9.05526 21.4014 9.03963 21.1878C9.01991 20.9155 8.83349 20.7235 8.59423 20.5858C7.87014 20.1687 7.14977 19.746 6.42642 19.3277C6.336 19.2753 6.27386 19.2262 6.27423 19.1026C6.27758 16.8578 6.27609 14.6129 6.27572 12.3685C6.27572 12.3439 6.27907 12.3194 6.28316 12.2647L6.28279 12.2635Z" fill="#A1A1A1"/>
<path opacity="0.64" d="M27.3701 23.158C27.3701 22.5459 27.3694 21.9703 27.3708 21.3947C27.3708 21.2529 27.4631 21.1948 27.5889 21.1956C28.7215 21.1997 29.334 20.2188 29.3392 19.2834C29.3403 19.0698 29.3143 18.8514 29.2659 18.6434C29.1026 17.9413 28.5281 17.7664 27.9119 18.0138C27.731 18.0864 27.5684 18.2036 27.3787 18.3111C27.3757 18.2475 27.3712 18.1958 27.3712 18.1437C27.3708 17.4494 27.3757 16.755 27.3667 16.0607C27.3649 15.9219 27.4151 15.8505 27.5279 15.7861C28.3174 15.3355 29.1041 14.8797 29.8925 14.4272C31.1316 13.7161 32.3714 13.0066 33.6112 12.2966C33.6525 12.2728 33.6949 12.2508 33.7649 12.2129C33.7649 12.3334 33.7649 12.4291 33.7649 12.5247C33.766 14.707 33.7664 16.889 33.7712 19.0713C33.7712 19.1833 33.7426 19.2488 33.6421 19.3072C32.9251 19.7232 32.2129 20.1485 31.497 20.566C31.0192 20.8447 30.8681 21.1904 31.0427 21.7195C31.2414 22.3223 31.0635 22.8112 30.6322 23.2347C30.4585 23.4051 30.2423 23.494 29.9978 23.5044C29.8337 23.5115 29.7124 23.4322 29.6845 23.2737C29.6551 23.1055 29.6581 22.931 29.6547 22.7591C29.6529 22.6542 29.6748 22.5489 29.6711 22.4443C29.6562 22.0574 29.334 21.8895 29.0081 22.0998C28.5768 22.3781 28.1485 22.6616 27.7184 22.9418C27.6157 23.0088 27.51 23.0717 27.3708 23.1584L27.3701 23.158Z" fill="#A1A1A1"/>
<path opacity="0.64" d="M18.0417 10.4499C18.1533 10.3699 18.2479 10.3115 18.3319 10.2405C18.771 9.86799 18.774 9.21496 18.3349 8.84138C17.9669 8.52808 17.5234 8.40454 17.0534 8.36175C16.5905 8.31971 16.1559 8.43208 15.7452 8.63599C15.6209 8.69775 15.5193 8.69292 15.3972 8.6304C14.8871 8.36845 14.3721 8.11506 13.824 7.84082C14.0826 7.70427 14.3141 7.58185 14.5459 7.45943C16.1042 6.63747 17.6629 5.81515 19.2212 4.9932C19.3031 4.95003 19.3879 4.91096 19.4661 4.86185C19.8028 4.6505 20.1251 4.6665 20.4785 4.85329C22.0253 5.67115 23.5811 6.47264 25.1334 7.28008C25.4289 7.43375 25.7243 7.58668 26.0447 7.75338C25.6644 7.95059 25.3039 8.13775 24.9437 8.32492C24.9217 8.33645 24.8979 8.34501 24.8782 8.35952C24.4793 8.65273 24.0893 8.66947 23.6131 8.47636C22.9839 8.22147 22.3412 8.33533 21.7786 8.73124C21.1256 9.1904 21.174 9.99747 21.8129 10.3472C21.8441 10.3644 21.8694 10.3919 21.9137 10.428C21.4892 10.6494 21.0791 10.8626 20.6698 11.0773C20.4726 11.1807 20.2795 11.2924 20.0793 11.3891C20.0268 11.4144 19.9427 11.423 19.8936 11.3984C19.2812 11.0899 18.6728 10.7744 18.0421 10.4496L18.0417 10.4499Z" fill="#A1A1A1"/>
<mask id="path-13-outside-1_107_171" maskUnits="userSpaceOnUse" x="4.67444" y="3.03723" width="30" height="34" fill="black">
<rect fill="white" x="4.67444" y="3.03723" width="30" height="34"/>
<path d="M34.3267 19.4219C34.3267 21.8092 34.323 24.1966 34.3297 26.5839C34.3312 27.0829 34.134 27.4513 33.7143 27.7125C31.8437 28.8767 29.977 30.047 28.1042 31.2072C25.8787 32.5858 23.6488 33.9573 21.4199 35.3307C21.1249 35.5123 20.8253 35.6868 20.5295 35.8669C20.2274 36.0507 19.9412 36.0265 19.6413 35.8442C17.4534 34.5121 15.2599 33.1897 13.0724 31.8572C10.8424 30.4991 8.61844 29.1313 6.38886 27.772C5.90662 27.478 5.67444 27.0624 5.67481 26.4979C5.67779 21.7731 5.67853 17.0479 5.67444 12.3231C5.67407 11.7203 5.90588 11.3054 6.46104 11.0166C9.02849 9.67972 11.5836 8.31897 14.1422 6.96493C15.8862 6.04213 17.6279 5.11488 19.3716 4.19172C19.7663 3.9826 20.1604 3.98744 20.5596 4.19618C22.1541 5.03116 23.7518 5.86018 25.347 6.69367C28.1042 8.13441 30.8596 9.57851 33.6171 11.0178C34.0863 11.2626 34.3226 11.6444 34.3234 12.1672C34.326 14.5854 34.3245 17.0036 34.3245 19.4219H34.3271H34.3267ZM26.5154 15.6358C26.4019 15.574 26.3323 15.5357 26.262 15.4981C25.6897 15.1915 25.1178 14.8846 24.5448 14.5794C24.3866 14.4953 24.2735 14.3837 24.2791 14.1902C24.2843 14.0023 24.4276 13.9417 24.5663 13.8654C24.7647 13.7564 24.9686 13.647 25.1412 13.5033C25.2994 13.3716 25.2916 13.193 25.1468 13.0479C25.0571 12.9582 24.9492 12.87 24.8328 12.8273C24.6203 12.7491 24.3974 12.6684 24.1753 12.655C23.6536 12.6237 23.158 12.7227 22.7967 13.1469C22.5548 13.4308 22.4127 13.4721 22.0778 13.2953C21.4274 12.9515 20.7788 12.604 20.1254 12.2654C20.0622 12.2326 19.9554 12.2237 19.8951 12.2546C19.2473 12.5906 18.5983 12.9247 17.9647 13.286C17.6953 13.4393 17.4303 13.4025 17.2309 13.1692C16.7457 12.6014 15.7366 12.4466 15.0296 12.9441C14.7591 13.1346 14.7539 13.3698 15.0222 13.5618C15.1959 13.686 15.398 13.7731 15.5926 13.8658C15.7355 13.9335 15.8549 14.0153 15.8664 14.185C15.8783 14.3636 15.7678 14.4689 15.6231 14.5471C15.3563 14.6911 15.0895 14.8347 14.8235 14.9798C14.4119 15.2042 14.0011 15.43 13.5743 15.6637C13.6201 15.695 13.6476 15.7169 13.6782 15.734C15.7797 16.9311 17.881 18.1285 19.9851 19.321C20.0346 19.3493 20.1291 19.3478 20.179 19.3188C21.9022 18.3197 23.6223 17.3154 25.3433 16.3126C25.721 16.0924 26.1009 15.8754 26.5161 15.6354L26.5154 15.6358ZM20.3368 27.4431C20.4663 27.3646 20.5604 27.3076 20.6545 27.2503C21.2034 26.9147 21.7526 26.5791 22.301 26.2423C22.3982 26.1828 22.493 26.1281 22.4197 25.9804C22.2263 25.5912 22.2196 25.1752 22.3141 24.7655C22.4823 24.0366 22.8897 23.4959 23.6298 23.2693C24.253 23.0784 24.7639 23.3899 24.8834 24.0299C24.9221 24.2379 24.9076 24.4563 24.918 24.6873C24.9563 24.668 24.9835 24.6572 25.0077 24.6419C25.5494 24.3063 26.089 23.967 26.6344 23.6373C26.7464 23.5696 26.7773 23.4914 26.7762 23.3672C26.7706 22.6914 26.7729 22.0157 26.7747 21.34C26.7747 21.2604 26.7792 21.1774 26.8019 21.1022C26.9053 20.7618 27.1189 20.6137 27.5371 20.6051C27.8568 20.5988 28.1317 20.4983 28.3524 20.2658C28.7301 19.8676 28.8138 19.3887 28.7115 18.8697C28.6393 18.5024 28.4372 18.4046 28.1038 18.5798C27.8746 18.7004 27.6622 18.8522 27.4415 18.9887C27.3038 19.0739 27.1669 19.1673 26.9965 19.0632C26.8324 18.9627 26.7717 18.815 26.7725 18.6259C26.7758 17.8758 26.774 17.1257 26.774 16.3755C26.774 16.316 26.774 16.2561 26.774 16.1768C26.7327 16.1958 26.7107 16.2033 26.691 16.2148C24.6196 17.4271 22.5489 18.6405 20.4756 19.8498C20.3714 19.9104 20.3327 19.9744 20.3327 20.0972C20.3371 22.3662 20.3364 24.6353 20.3368 26.9046C20.3368 27.0713 20.3368 27.238 20.3368 27.4434V27.4431ZM19.7548 27.3716C19.7548 27.2581 19.7548 27.1915 19.7548 27.1249C19.7537 24.8191 19.7485 22.5136 19.7578 20.2077C19.7585 19.9778 19.6878 19.8572 19.4921 19.7456C17.7396 18.7495 15.993 17.7426 14.2449 16.7394C13.9409 16.5649 13.6365 16.3919 13.3009 16.1999C13.3009 16.3007 13.3009 16.3662 13.3009 16.4317C13.3009 17.132 13.3023 17.8326 13.3009 18.5329C13.3009 18.6189 13.2971 18.7078 13.2752 18.79C13.2023 19.0628 12.9224 19.1759 12.6802 19.0364C12.3967 18.873 12.1228 18.6896 11.8277 18.5512C11.5349 18.4139 11.3247 18.5467 11.293 18.8652C11.2756 19.0419 11.2785 19.2232 11.2949 19.4003C11.3548 20.047 11.8348 20.6297 12.5972 20.6033C13.0296 20.5884 13.302 20.8808 13.3023 21.3113C13.3023 21.9993 13.305 22.6873 13.2994 23.3753C13.2986 23.4888 13.3336 23.5536 13.4311 23.6116C13.8196 23.8416 14.2028 24.0805 14.5883 24.3156C14.7762 24.4302 14.9645 24.5445 15.1669 24.6676C15.1669 24.4916 15.1636 24.3402 15.1676 24.1887C15.184 23.5755 15.6529 23.1327 16.2062 23.2146C16.8618 23.3121 17.3273 23.6831 17.6316 24.2576C17.9137 24.79 17.9271 25.3478 17.7262 25.9097C17.6696 26.0674 17.6949 26.1616 17.8493 26.2375C18.0097 26.3164 18.1593 26.4172 18.3133 26.5091C18.7792 26.7871 19.245 27.0658 19.7559 27.3709L19.7548 27.3716ZM33.5003 11.6663C33.078 11.4408 32.7029 11.2384 32.326 11.0397C30.489 10.073 28.6516 9.10706 26.8119 8.1452C26.7591 8.11767 26.6672 8.11767 26.614 8.1452C25.9647 8.47823 25.3139 8.80902 24.6757 9.16213C24.3911 9.3199 24.1388 9.35972 23.8423 9.19451C23.4382 8.96976 22.995 8.92139 22.5474 9.03562C22.384 9.0773 22.2214 9.15767 22.0837 9.2559C21.8776 9.40325 21.8672 9.61944 22.0536 9.7932C22.1786 9.90967 22.3342 9.99265 22.4744 10.0935C22.5492 10.1471 22.637 10.1939 22.6888 10.2654C22.8197 10.4462 22.752 10.6468 22.5094 10.7856C22.2199 10.9515 21.9223 11.103 21.6276 11.26C21.2867 11.4419 20.9451 11.6235 20.5827 11.8166C20.6609 11.8624 20.7159 11.8985 20.7743 11.9286C21.2019 12.1515 21.6369 12.3618 22.0551 12.6006C22.2374 12.7048 22.3539 12.6948 22.5228 12.5675C23.3343 11.9551 24.4689 11.9011 25.3001 12.4012C26.0402 12.8462 26.0287 13.7921 25.2789 14.159C25.2488 14.1739 25.2246 14.1999 25.1844 14.2308C25.2413 14.2639 25.2819 14.2896 25.3243 14.3119C25.7388 14.5333 26.157 14.7473 26.5671 14.9765C27.1505 15.3028 27.1427 15.2987 27.7288 14.9619C29.3801 14.0124 31.0359 13.0702 32.6899 12.1259C32.9459 11.9796 33.203 11.8353 33.5007 11.6667L33.5003 11.6663ZM11.0303 22.7703C11.0303 22.911 11.0348 23.0096 11.0296 23.1078C10.9935 23.8222 10.4287 24.2326 9.73435 24.0656C8.88895 23.8624 8.02681 22.7231 8.40783 21.5748C8.50793 21.2734 8.47928 21.2057 8.21025 21.0475C7.62383 20.7026 7.03742 20.358 6.45025 20.0142C6.40076 19.9852 6.34793 19.9625 6.27649 19.9272C6.27649 20.0165 6.27649 20.0715 6.27649 20.127C6.27649 22.2099 6.2869 24.2933 6.26867 26.3759C6.26458 26.8317 6.43909 27.11 6.81676 27.3374C8.74607 28.4994 10.6664 29.676 12.5905 30.8466C12.6196 30.8641 12.6553 30.8708 12.704 30.8883C12.704 30.7908 12.704 30.7112 12.704 30.6315C12.704 30.0674 12.6999 29.5033 12.7048 28.9393C12.7081 28.5709 13.0229 28.3811 13.3481 28.5526C13.6212 28.6966 13.881 28.8667 14.1556 29.0073C14.4629 29.1647 14.6728 29.0427 14.7159 28.7C14.8205 27.8717 14.2583 27.1755 13.4318 27.1097C12.9541 27.0717 12.7059 26.8075 12.704 26.3264C12.7018 25.5699 12.697 24.8135 12.7074 24.0574C12.71 23.8687 12.659 23.7564 12.489 23.6615C12.1381 23.4658 11.8017 23.2436 11.4594 23.0326C11.3291 22.9523 11.1982 22.8734 11.0296 22.7707L11.0303 22.7703ZM26.7665 24.2438C26.729 24.2617 26.7074 24.2691 26.6884 24.2814C26.1615 24.6178 25.6328 24.9515 25.1092 25.2927C24.9247 25.4129 24.7349 25.4725 24.5362 25.3579C24.3356 25.2421 24.2597 25.052 24.2806 24.8209C24.2977 24.63 24.3204 24.438 24.3159 24.2468C24.3074 23.8993 24.0815 23.7441 23.7515 23.855C23.2871 24.0105 23.0277 24.3584 22.905 24.8131C22.8086 25.1707 22.8588 25.5197 22.9913 25.8661C23.1275 26.2219 23.0441 26.447 22.7316 26.6661C22.6709 26.7089 22.6069 26.7469 22.5433 26.7852C21.859 27.1964 21.1758 27.6094 20.4893 28.0161C20.3829 28.0793 20.3323 28.1459 20.3327 28.2777C20.3375 30.5657 20.3368 32.8537 20.3383 35.1417C20.3383 35.1804 20.3494 35.2191 20.3576 35.2719C20.4168 35.2392 20.4607 35.2176 20.502 35.1919C22.5425 33.926 24.582 32.6583 26.6255 31.3969C26.7438 31.324 26.7781 31.2481 26.7766 31.1167C26.7699 30.54 26.774 29.9636 26.7732 29.3869C26.7732 29.3348 26.7669 29.2827 26.7621 29.2034C26.6679 29.2641 26.5987 29.3143 26.5243 29.3549C26.3453 29.452 26.1716 29.5651 25.9822 29.6351C25.5003 29.8129 25.049 29.5949 24.915 29.1C24.8484 28.8548 24.8272 28.5861 24.8432 28.332C24.8971 27.4732 25.6011 26.6401 26.4819 26.5538C26.6914 26.5333 26.7743 26.4373 26.7743 26.2256C26.7751 25.6116 26.7743 24.9977 26.7736 24.3841C26.7736 24.3432 26.7699 24.3022 26.7669 24.2438H26.7665ZM19.3827 11.8364C19.1859 11.7329 19.017 11.6444 18.8484 11.5554C18.3721 11.305 17.8947 11.0572 17.4203 10.8038C17.1885 10.6799 17.1014 10.5002 17.2026 10.326C17.2543 10.2367 17.3526 10.1686 17.4415 10.1076C17.5885 10.006 17.7578 9.93386 17.8936 9.82037C18.0986 9.6492 18.1016 9.42669 17.8862 9.27116C17.731 9.15916 17.5397 9.07693 17.3526 9.03265C16.8536 8.91506 16.3695 8.98799 15.9141 9.22651C15.6897 9.34409 15.4813 9.34967 15.2469 9.22651C14.6013 8.88679 13.9435 8.57013 13.2953 8.23562C13.2037 8.18837 13.1435 8.19358 13.062 8.24009C12.8689 8.3506 12.672 8.45479 12.4752 8.5586C10.5727 9.56288 8.67016 10.566 6.76802 11.5711C6.69621 11.609 6.63369 11.6645 6.5496 11.7236C6.62997 11.772 6.68169 11.8051 6.73565 11.8349C7.88318 12.4689 9.03183 13.1015 10.179 13.7366C11.088 14.2397 11.9952 14.7465 12.9057 15.247C12.9589 15.276 13.0508 15.2898 13.0992 15.2633C13.6748 14.95 14.2456 14.6282 14.8175 14.3078C14.8614 14.2833 14.902 14.2535 14.9083 14.2494C14.7263 14.0872 14.5083 13.9566 14.3807 13.7657C14.0744 13.3069 14.2393 12.7588 14.7438 12.4228C15.5122 11.9108 16.6929 11.9558 17.4266 12.5445C17.616 12.6963 17.757 12.7275 17.977 12.5958C18.4257 12.3275 18.8964 12.0961 19.3823 11.8364H19.3827ZM29.0281 22.8135C28.5183 23.1353 28.019 23.4542 27.5152 23.7649C27.4084 23.8308 27.3656 23.9022 27.3671 24.031C27.3745 24.7934 27.3738 25.5562 27.3716 26.319C27.3701 26.8005 27.1342 27.0609 26.6497 27.1115C25.8352 27.1967 25.347 27.9599 25.4393 28.7227C25.481 29.0658 25.6696 29.1506 25.9721 28.9794C26.1983 28.8514 26.4171 28.7108 26.6426 28.5817C27.0162 28.3677 27.3656 28.5698 27.3678 28.9999C27.3704 29.4464 27.3693 29.8929 27.3697 30.3391C27.3697 30.5281 27.3697 30.7171 27.3697 30.9396C27.4687 30.8808 27.5368 30.8418 27.6037 30.8005C28.352 30.3394 29.1018 29.881 29.8478 29.4163C31.014 28.6896 32.1757 27.9554 33.3433 27.2306C33.6406 27.046 33.7719 26.8001 33.7708 26.4473C33.7634 24.3268 33.7675 22.2062 33.7671 20.086C33.7671 20.0351 33.7593 19.9841 33.7537 19.9171C33.0802 20.3223 32.4279 20.7126 31.7783 21.1074C31.5788 21.2287 31.5386 21.3389 31.6157 21.5592C31.9907 22.6349 31.2618 23.8189 30.2601 24.0753C29.6692 24.2263 29.1922 23.9331 29.0754 23.3326C29.0437 23.1699 29.0437 23.0014 29.0274 22.8135H29.0281ZM19.7496 35.1993C19.7537 35.1275 19.7578 35.0855 19.7578 35.0434C19.7556 32.7688 19.7522 30.4939 19.7526 28.2193C19.7526 28.1139 19.7221 28.0563 19.6283 28.0005C18.8945 27.5647 18.1623 27.1253 17.4352 26.6784C17.0534 26.4436 16.9775 26.1973 17.1383 25.7824C17.2447 25.5082 17.3243 25.2339 17.248 24.9352C17.12 24.4325 16.8607 24.0388 16.3498 23.8617C15.9926 23.7378 15.7634 23.8989 15.76 24.2766C15.7585 24.4611 15.7842 24.6464 15.8032 24.8306C15.8251 25.0434 15.7801 25.2313 15.5877 25.3463C15.4047 25.4557 15.2205 25.4196 15.0445 25.3095C14.5206 24.9806 13.9956 24.6535 13.4705 24.326C13.4222 24.2959 13.3719 24.2687 13.3016 24.2286C13.3016 24.9218 13.299 25.5785 13.3031 26.2353C13.3042 26.4339 13.408 26.524 13.6164 26.5541C13.7682 26.5761 13.926 26.5936 14.067 26.6486C14.966 26.9992 15.4724 27.9056 15.3098 28.8548C15.2108 29.433 14.8305 29.7448 14.2746 29.673C14.1027 29.6507 13.9349 29.5673 13.7749 29.4914C13.6175 29.4166 13.4728 29.3158 13.3012 29.2135C13.3012 29.836 13.3135 30.4246 13.2945 31.0122C13.2878 31.2246 13.3645 31.3318 13.5356 31.4341C14.608 32.0752 15.6756 32.7249 16.7438 33.3727C17.7377 33.9755 18.7304 34.5802 19.7492 35.1997L19.7496 35.1993ZM6.28281 12.2635C6.27872 12.3182 6.27537 12.3428 6.27537 12.3673C6.27537 14.6122 6.27723 16.857 6.27388 19.1015C6.27388 19.225 6.33565 19.2745 6.42607 19.3266C7.14942 19.7448 7.87016 20.1675 8.59388 20.5846C8.83314 20.7223 9.01956 20.9147 9.03928 21.1867C9.05453 21.4006 8.99872 21.6258 8.94253 21.8371C8.77993 22.4485 9.16095 23.2202 9.74923 23.4408C10.1905 23.6064 10.4369 23.4401 10.4398 22.9716C10.4413 22.761 10.4246 22.5497 10.4361 22.3394C10.4503 22.0812 10.691 21.9167 10.9172 22.0016C11.0088 22.0362 11.0951 22.0879 11.1788 22.14C11.6357 22.425 12.0908 22.7126 12.5474 22.9984C12.592 23.0263 12.6408 23.0475 12.7089 23.0829C12.7089 22.5173 12.7096 21.9789 12.7085 21.4401C12.7081 21.2228 12.681 21.1982 12.4596 21.1904C11.9531 21.1729 11.5118 21.0014 11.1818 20.6077C10.6992 20.0325 10.5641 19.3668 10.7301 18.6427C10.8439 18.1445 11.1583 17.9145 11.6603 17.9141C11.9319 17.9141 12.166 18.0157 12.3926 18.1486C12.4897 18.2055 12.5868 18.262 12.7036 18.3305C12.7036 17.5696 12.6947 16.8444 12.7092 16.1199C12.7133 15.916 12.6434 15.8152 12.47 15.7192C10.9768 14.892 9.48914 14.0548 7.99965 13.2209C7.43481 12.9046 6.86886 12.5899 6.28244 12.2624L6.28281 12.2635ZM27.3701 23.158C27.5092 23.0713 27.6149 23.0085 27.7176 22.9415C28.1477 22.6613 28.576 22.3778 29.0073 22.0994C29.3332 21.8892 29.6555 22.0566 29.6703 22.444C29.6744 22.5486 29.6521 22.6539 29.654 22.7588C29.657 22.9307 29.654 23.1052 29.6837 23.2734C29.7117 23.4319 29.833 23.5112 29.997 23.5041C30.2415 23.4937 30.4577 23.4047 30.6315 23.2343C31.0627 22.8113 31.241 22.3219 31.0419 21.7192C30.8674 21.1904 31.0181 20.8444 31.4962 20.5657C32.2125 20.1478 32.9243 19.7229 33.6413 19.3069C33.7414 19.2488 33.7704 19.183 33.7704 19.071C33.766 16.8886 33.7656 14.7067 33.7641 12.5244C33.7641 12.4287 33.7641 12.3327 33.7641 12.2126C33.6945 12.2505 33.6521 12.2725 33.6104 12.2963C32.3706 13.0062 31.1308 13.7158 29.8917 14.4269C29.1033 14.8793 28.3167 15.3355 27.5271 15.7858C27.4143 15.8501 27.3645 15.9216 27.366 16.0604C27.3749 16.7547 27.3697 17.449 27.3704 18.1433C27.3704 18.1954 27.3749 18.2475 27.3779 18.3108C27.5673 18.2036 27.7303 18.086 27.9111 18.0135C28.5273 17.766 29.1022 17.9413 29.2651 18.6431C29.3135 18.8511 29.3399 19.0695 29.3384 19.2831C29.3329 20.2185 28.7208 21.1993 27.5881 21.1953C27.4623 21.1949 27.3704 21.2526 27.3701 21.3943C27.3686 21.9699 27.3693 22.5456 27.3693 23.1577L27.3701 23.158ZM18.0417 10.4499C18.6724 10.7748 19.2808 11.0907 19.8932 11.3988C19.9423 11.4233 20.0264 11.4148 20.0789 11.3895C20.2791 11.2927 20.4722 11.1811 20.6694 11.0777C21.0787 10.863 21.4888 10.6498 21.9133 10.4284C21.8687 10.3923 21.8437 10.3647 21.8125 10.3476C21.1736 9.99786 21.1256 9.19079 21.7783 8.73162C22.3409 8.33572 22.9835 8.22186 23.6127 8.47674C24.089 8.66986 24.4789 8.65311 24.8778 8.3599C24.8975 8.34539 24.9213 8.33646 24.9433 8.3253C25.3038 8.13813 25.6644 7.95134 26.0443 7.75376C25.7239 7.58744 25.4281 7.43413 25.133 7.28046C23.5807 6.47302 22.025 5.67153 20.4782 4.85367C20.1247 4.66688 19.8024 4.65088 19.4657 4.86223C19.3876 4.91134 19.3027 4.95041 19.2209 4.99358C17.6625 5.81553 16.1038 6.63786 14.5455 7.45981C14.3137 7.58186 14.0823 7.70465 13.8236 7.8412C14.3721 8.11544 14.8867 8.36883 15.3969 8.63079C15.5185 8.6933 15.6205 8.69813 15.7448 8.63637C16.1559 8.43209 16.5902 8.32009 17.053 8.36213C17.523 8.40455 17.9669 8.52846 18.3345 8.84176C18.7736 9.21572 18.7706 9.86874 18.3316 10.2408C18.2478 10.3119 18.153 10.3703 18.0413 10.4503L18.0417 10.4499Z"/>
</mask>
<path d="M34.3267 19.4219C34.3267 21.8092 34.323 24.1966 34.3297 26.5839C34.3312 27.0829 34.134 27.4513 33.7143 27.7125C31.8437 28.8767 29.977 30.047 28.1042 31.2072C25.8787 32.5858 23.6488 33.9573 21.4199 35.3307C21.1249 35.5123 20.8253 35.6868 20.5295 35.8669C20.2274 36.0507 19.9412 36.0265 19.6413 35.8442C17.4534 34.5121 15.2599 33.1897 13.0724 31.8572C10.8424 30.4991 8.61844 29.1313 6.38886 27.772C5.90662 27.478 5.67444 27.0624 5.67481 26.4979C5.67779 21.7731 5.67853 17.0479 5.67444 12.3231C5.67407 11.7203 5.90588 11.3054 6.46104 11.0166C9.02849 9.67972 11.5836 8.31897 14.1422 6.96493C15.8862 6.04213 17.6279 5.11488 19.3716 4.19172C19.7663 3.9826 20.1604 3.98744 20.5596 4.19618C22.1541 5.03116 23.7518 5.86018 25.347 6.69367C28.1042 8.13441 30.8596 9.57851 33.6171 11.0178C34.0863 11.2626 34.3226 11.6444 34.3234 12.1672C34.326 14.5854 34.3245 17.0036 34.3245 19.4219H34.3271H34.3267ZM26.5154 15.6358C26.4019 15.574 26.3323 15.5357 26.262 15.4981C25.6897 15.1915 25.1178 14.8846 24.5448 14.5794C24.3866 14.4953 24.2735 14.3837 24.2791 14.1902C24.2843 14.0023 24.4276 13.9417 24.5663 13.8654C24.7647 13.7564 24.9686 13.647 25.1412 13.5033C25.2994 13.3716 25.2916 13.193 25.1468 13.0479C25.0571 12.9582 24.9492 12.87 24.8328 12.8273C24.6203 12.7491 24.3974 12.6684 24.1753 12.655C23.6536 12.6237 23.158 12.7227 22.7967 13.1469C22.5548 13.4308 22.4127 13.4721 22.0778 13.2953C21.4274 12.9515 20.7788 12.604 20.1254 12.2654C20.0622 12.2326 19.9554 12.2237 19.8951 12.2546C19.2473 12.5906 18.5983 12.9247 17.9647 13.286C17.6953 13.4393 17.4303 13.4025 17.2309 13.1692C16.7457 12.6014 15.7366 12.4466 15.0296 12.9441C14.7591 13.1346 14.7539 13.3698 15.0222 13.5618C15.1959 13.686 15.398 13.7731 15.5926 13.8658C15.7355 13.9335 15.8549 14.0153 15.8664 14.185C15.8783 14.3636 15.7678 14.4689 15.6231 14.5471C15.3563 14.6911 15.0895 14.8347 14.8235 14.9798C14.4119 15.2042 14.0011 15.43 13.5743 15.6637C13.6201 15.695 13.6476 15.7169 13.6782 15.734C15.7797 16.9311 17.881 18.1285 19.9851 19.321C20.0346 19.3493 20.1291 19.3478 20.179 19.3188C21.9022 18.3197 23.6223 17.3154 25.3433 16.3126C25.721 16.0924 26.1009 15.8754 26.5161 15.6354L26.5154 15.6358ZM20.3368 27.4431C20.4663 27.3646 20.5604 27.3076 20.6545 27.2503C21.2034 26.9147 21.7526 26.5791 22.301 26.2423C22.3982 26.1828 22.493 26.1281 22.4197 25.9804C22.2263 25.5912 22.2196 25.1752 22.3141 24.7655C22.4823 24.0366 22.8897 23.4959 23.6298 23.2693C24.253 23.0784 24.7639 23.3899 24.8834 24.0299C24.9221 24.2379 24.9076 24.4563 24.918 24.6873C24.9563 24.668 24.9835 24.6572 25.0077 24.6419C25.5494 24.3063 26.089 23.967 26.6344 23.6373C26.7464 23.5696 26.7773 23.4914 26.7762 23.3672C26.7706 22.6914 26.7729 22.0157 26.7747 21.34C26.7747 21.2604 26.7792 21.1774 26.8019 21.1022C26.9053 20.7618 27.1189 20.6137 27.5371 20.6051C27.8568 20.5988 28.1317 20.4983 28.3524 20.2658C28.7301 19.8676 28.8138 19.3887 28.7115 18.8697C28.6393 18.5024 28.4372 18.4046 28.1038 18.5798C27.8746 18.7004 27.6622 18.8522 27.4415 18.9887C27.3038 19.0739 27.1669 19.1673 26.9965 19.0632C26.8324 18.9627 26.7717 18.815 26.7725 18.6259C26.7758 17.8758 26.774 17.1257 26.774 16.3755C26.774 16.316 26.774 16.2561 26.774 16.1768C26.7327 16.1958 26.7107 16.2033 26.691 16.2148C24.6196 17.4271 22.5489 18.6405 20.4756 19.8498C20.3714 19.9104 20.3327 19.9744 20.3327 20.0972C20.3371 22.3662 20.3364 24.6353 20.3368 26.9046C20.3368 27.0713 20.3368 27.238 20.3368 27.4434V27.4431ZM19.7548 27.3716C19.7548 27.2581 19.7548 27.1915 19.7548 27.1249C19.7537 24.8191 19.7485 22.5136 19.7578 20.2077C19.7585 19.9778 19.6878 19.8572 19.4921 19.7456C17.7396 18.7495 15.993 17.7426 14.2449 16.7394C13.9409 16.5649 13.6365 16.3919 13.3009 16.1999C13.3009 16.3007 13.3009 16.3662 13.3009 16.4317C13.3009 17.132 13.3023 17.8326 13.3009 18.5329C13.3009 18.6189 13.2971 18.7078 13.2752 18.79C13.2023 19.0628 12.9224 19.1759 12.6802 19.0364C12.3967 18.873 12.1228 18.6896 11.8277 18.5512C11.5349 18.4139 11.3247 18.5467 11.293 18.8652C11.2756 19.0419 11.2785 19.2232 11.2949 19.4003C11.3548 20.047 11.8348 20.6297 12.5972 20.6033C13.0296 20.5884 13.302 20.8808 13.3023 21.3113C13.3023 21.9993 13.305 22.6873 13.2994 23.3753C13.2986 23.4888 13.3336 23.5536 13.4311 23.6116C13.8196 23.8416 14.2028 24.0805 14.5883 24.3156C14.7762 24.4302 14.9645 24.5445 15.1669 24.6676C15.1669 24.4916 15.1636 24.3402 15.1676 24.1887C15.184 23.5755 15.6529 23.1327 16.2062 23.2146C16.8618 23.3121 17.3273 23.6831 17.6316 24.2576C17.9137 24.79 17.9271 25.3478 17.7262 25.9097C17.6696 26.0674 17.6949 26.1616 17.8493 26.2375C18.0097 26.3164 18.1593 26.4172 18.3133 26.5091C18.7792 26.7871 19.245 27.0658 19.7559 27.3709L19.7548 27.3716ZM33.5003 11.6663C33.078 11.4408 32.7029 11.2384 32.326 11.0397C30.489 10.073 28.6516 9.10706 26.8119 8.1452C26.7591 8.11767 26.6672 8.11767 26.614 8.1452C25.9647 8.47823 25.3139 8.80902 24.6757 9.16213C24.3911 9.3199 24.1388 9.35972 23.8423 9.19451C23.4382 8.96976 22.995 8.92139 22.5474 9.03562C22.384 9.0773 22.2214 9.15767 22.0837 9.2559C21.8776 9.40325 21.8672 9.61944 22.0536 9.7932C22.1786 9.90967 22.3342 9.99265 22.4744 10.0935C22.5492 10.1471 22.637 10.1939 22.6888 10.2654C22.8197 10.4462 22.752 10.6468 22.5094 10.7856C22.2199 10.9515 21.9223 11.103 21.6276 11.26C21.2867 11.4419 20.9451 11.6235 20.5827 11.8166C20.6609 11.8624 20.7159 11.8985 20.7743 11.9286C21.2019 12.1515 21.6369 12.3618 22.0551 12.6006C22.2374 12.7048 22.3539 12.6948 22.5228 12.5675C23.3343 11.9551 24.4689 11.9011 25.3001 12.4012C26.0402 12.8462 26.0287 13.7921 25.2789 14.159C25.2488 14.1739 25.2246 14.1999 25.1844 14.2308C25.2413 14.2639 25.2819 14.2896 25.3243 14.3119C25.7388 14.5333 26.157 14.7473 26.5671 14.9765C27.1505 15.3028 27.1427 15.2987 27.7288 14.9619C29.3801 14.0124 31.0359 13.0702 32.6899 12.1259C32.9459 11.9796 33.203 11.8353 33.5007 11.6667L33.5003 11.6663ZM11.0303 22.7703C11.0303 22.911 11.0348 23.0096 11.0296 23.1078C10.9935 23.8222 10.4287 24.2326 9.73435 24.0656C8.88895 23.8624 8.02681 22.7231 8.40783 21.5748C8.50793 21.2734 8.47928 21.2057 8.21025 21.0475C7.62383 20.7026 7.03742 20.358 6.45025 20.0142C6.40076 19.9852 6.34793 19.9625 6.27649 19.9272C6.27649 20.0165 6.27649 20.0715 6.27649 20.127C6.27649 22.2099 6.2869 24.2933 6.26867 26.3759C6.26458 26.8317 6.43909 27.11 6.81676 27.3374C8.74607 28.4994 10.6664 29.676 12.5905 30.8466C12.6196 30.8641 12.6553 30.8708 12.704 30.8883C12.704 30.7908 12.704 30.7112 12.704 30.6315C12.704 30.0674 12.6999 29.5033 12.7048 28.9393C12.7081 28.5709 13.0229 28.3811 13.3481 28.5526C13.6212 28.6966 13.881 28.8667 14.1556 29.0073C14.4629 29.1647 14.6728 29.0427 14.7159 28.7C14.8205 27.8717 14.2583 27.1755 13.4318 27.1097C12.9541 27.0717 12.7059 26.8075 12.704 26.3264C12.7018 25.5699 12.697 24.8135 12.7074 24.0574C12.71 23.8687 12.659 23.7564 12.489 23.6615C12.1381 23.4658 11.8017 23.2436 11.4594 23.0326C11.3291 22.9523 11.1982 22.8734 11.0296 22.7707L11.0303 22.7703ZM26.7665 24.2438C26.729 24.2617 26.7074 24.2691 26.6884 24.2814C26.1615 24.6178 25.6328 24.9515 25.1092 25.2927C24.9247 25.4129 24.7349 25.4725 24.5362 25.3579C24.3356 25.2421 24.2597 25.052 24.2806 24.8209C24.2977 24.63 24.3204 24.438 24.3159 24.2468C24.3074 23.8993 24.0815 23.7441 23.7515 23.855C23.2871 24.0105 23.0277 24.3584 22.905 24.8131C22.8086 25.1707 22.8588 25.5197 22.9913 25.8661C23.1275 26.2219 23.0441 26.447 22.7316 26.6661C22.6709 26.7089 22.6069 26.7469 22.5433 26.7852C21.859 27.1964 21.1758 27.6094 20.4893 28.0161C20.3829 28.0793 20.3323 28.1459 20.3327 28.2777C20.3375 30.5657 20.3368 32.8537 20.3383 35.1417C20.3383 35.1804 20.3494 35.2191 20.3576 35.2719C20.4168 35.2392 20.4607 35.2176 20.502 35.1919C22.5425 33.926 24.582 32.6583 26.6255 31.3969C26.7438 31.324 26.7781 31.2481 26.7766 31.1167C26.7699 30.54 26.774 29.9636 26.7732 29.3869C26.7732 29.3348 26.7669 29.2827 26.7621 29.2034C26.6679 29.2641 26.5987 29.3143 26.5243 29.3549C26.3453 29.452 26.1716 29.5651 25.9822 29.6351C25.5003 29.8129 25.049 29.5949 24.915 29.1C24.8484 28.8548 24.8272 28.5861 24.8432 28.332C24.8971 27.4732 25.6011 26.6401 26.4819 26.5538C26.6914 26.5333 26.7743 26.4373 26.7743 26.2256C26.7751 25.6116 26.7743 24.9977 26.7736 24.3841C26.7736 24.3432 26.7699 24.3022 26.7669 24.2438H26.7665ZM19.3827 11.8364C19.1859 11.7329 19.017 11.6444 18.8484 11.5554C18.3721 11.305 17.8947 11.0572 17.4203 10.8038C17.1885 10.6799 17.1014 10.5002 17.2026 10.326C17.2543 10.2367 17.3526 10.1686 17.4415 10.1076C17.5885 10.006 17.7578 9.93386 17.8936 9.82037C18.0986 9.6492 18.1016 9.42669 17.8862 9.27116C17.731 9.15916 17.5397 9.07693 17.3526 9.03265C16.8536 8.91506 16.3695 8.98799 15.9141 9.22651C15.6897 9.34409 15.4813 9.34967 15.2469 9.22651C14.6013 8.88679 13.9435 8.57013 13.2953 8.23562C13.2037 8.18837 13.1435 8.19358 13.062 8.24009C12.8689 8.3506 12.672 8.45479 12.4752 8.5586C10.5727 9.56288 8.67016 10.566 6.76802 11.5711C6.69621 11.609 6.63369 11.6645 6.5496 11.7236C6.62997 11.772 6.68169 11.8051 6.73565 11.8349C7.88318 12.4689 9.03183 13.1015 10.179 13.7366C11.088 14.2397 11.9952 14.7465 12.9057 15.247C12.9589 15.276 13.0508 15.2898 13.0992 15.2633C13.6748 14.95 14.2456 14.6282 14.8175 14.3078C14.8614 14.2833 14.902 14.2535 14.9083 14.2494C14.7263 14.0872 14.5083 13.9566 14.3807 13.7657C14.0744 13.3069 14.2393 12.7588 14.7438 12.4228C15.5122 11.9108 16.6929 11.9558 17.4266 12.5445C17.616 12.6963 17.757 12.7275 17.977 12.5958C18.4257 12.3275 18.8964 12.0961 19.3823 11.8364H19.3827ZM29.0281 22.8135C28.5183 23.1353 28.019 23.4542 27.5152 23.7649C27.4084 23.8308 27.3656 23.9022 27.3671 24.031C27.3745 24.7934 27.3738 25.5562 27.3716 26.319C27.3701 26.8005 27.1342 27.0609 26.6497 27.1115C25.8352 27.1967 25.347 27.9599 25.4393 28.7227C25.481 29.0658 25.6696 29.1506 25.9721 28.9794C26.1983 28.8514 26.4171 28.7108 26.6426 28.5817C27.0162 28.3677 27.3656 28.5698 27.3678 28.9999C27.3704 29.4464 27.3693 29.8929 27.3697 30.3391C27.3697 30.5281 27.3697 30.7171 27.3697 30.9396C27.4687 30.8808 27.5368 30.8418 27.6037 30.8005C28.352 30.3394 29.1018 29.881 29.8478 29.4163C31.014 28.6896 32.1757 27.9554 33.3433 27.2306C33.6406 27.046 33.7719 26.8001 33.7708 26.4473C33.7634 24.3268 33.7675 22.2062 33.7671 20.086C33.7671 20.0351 33.7593 19.9841 33.7537 19.9171C33.0802 20.3223 32.4279 20.7126 31.7783 21.1074C31.5788 21.2287 31.5386 21.3389 31.6157 21.5592C31.9907 22.6349 31.2618 23.8189 30.2601 24.0753C29.6692 24.2263 29.1922 23.9331 29.0754 23.3326C29.0437 23.1699 29.0437 23.0014 29.0274 22.8135H29.0281ZM19.7496 35.1993C19.7537 35.1275 19.7578 35.0855 19.7578 35.0434C19.7556 32.7688 19.7522 30.4939 19.7526 28.2193C19.7526 28.1139 19.7221 28.0563 19.6283 28.0005C18.8945 27.5647 18.1623 27.1253 17.4352 26.6784C17.0534 26.4436 16.9775 26.1973 17.1383 25.7824C17.2447 25.5082 17.3243 25.2339 17.248 24.9352C17.12 24.4325 16.8607 24.0388 16.3498 23.8617C15.9926 23.7378 15.7634 23.8989 15.76 24.2766C15.7585 24.4611 15.7842 24.6464 15.8032 24.8306C15.8251 25.0434 15.7801 25.2313 15.5877 25.3463C15.4047 25.4557 15.2205 25.4196 15.0445 25.3095C14.5206 24.9806 13.9956 24.6535 13.4705 24.326C13.4222 24.2959 13.3719 24.2687 13.3016 24.2286C13.3016 24.9218 13.299 25.5785 13.3031 26.2353C13.3042 26.4339 13.408 26.524 13.6164 26.5541C13.7682 26.5761 13.926 26.5936 14.067 26.6486C14.966 26.9992 15.4724 27.9056 15.3098 28.8548C15.2108 29.433 14.8305 29.7448 14.2746 29.673C14.1027 29.6507 13.9349 29.5673 13.7749 29.4914C13.6175 29.4166 13.4728 29.3158 13.3012 29.2135C13.3012 29.836 13.3135 30.4246 13.2945 31.0122C13.2878 31.2246 13.3645 31.3318 13.5356 31.4341C14.608 32.0752 15.6756 32.7249 16.7438 33.3727C17.7377 33.9755 18.7304 34.5802 19.7492 35.1997L19.7496 35.1993ZM6.28281 12.2635C6.27872 12.3182 6.27537 12.3428 6.27537 12.3673C6.27537 14.6122 6.27723 16.857 6.27388 19.1015C6.27388 19.225 6.33565 19.2745 6.42607 19.3266C7.14942 19.7448 7.87016 20.1675 8.59388 20.5846C8.83314 20.7223 9.01956 20.9147 9.03928 21.1867C9.05453 21.4006 8.99872 21.6258 8.94253 21.8371C8.77993 22.4485 9.16095 23.2202 9.74923 23.4408C10.1905 23.6064 10.4369 23.4401 10.4398 22.9716C10.4413 22.761 10.4246 22.5497 10.4361 22.3394C10.4503 22.0812 10.691 21.9167 10.9172 22.0016C11.0088 22.0362 11.0951 22.0879 11.1788 22.14C11.6357 22.425 12.0908 22.7126 12.5474 22.9984C12.592 23.0263 12.6408 23.0475 12.7089 23.0829C12.7089 22.5173 12.7096 21.9789 12.7085 21.4401C12.7081 21.2228 12.681 21.1982 12.4596 21.1904C11.9531 21.1729 11.5118 21.0014 11.1818 20.6077C10.6992 20.0325 10.5641 19.3668 10.7301 18.6427C10.8439 18.1445 11.1583 17.9145 11.6603 17.9141C11.9319 17.9141 12.166 18.0157 12.3926 18.1486C12.4897 18.2055 12.5868 18.262 12.7036 18.3305C12.7036 17.5696 12.6947 16.8444 12.7092 16.1199C12.7133 15.916 12.6434 15.8152 12.47 15.7192C10.9768 14.892 9.48914 14.0548 7.99965 13.2209C7.43481 12.9046 6.86886 12.5899 6.28244 12.2624L6.28281 12.2635ZM27.3701 23.158C27.5092 23.0713 27.6149 23.0085 27.7176 22.9415C28.1477 22.6613 28.576 22.3778 29.0073 22.0994C29.3332 21.8892 29.6555 22.0566 29.6703 22.444C29.6744 22.5486 29.6521 22.6539 29.654 22.7588C29.657 22.9307 29.654 23.1052 29.6837 23.2734C29.7117 23.4319 29.833 23.5112 29.997 23.5041C30.2415 23.4937 30.4577 23.4047 30.6315 23.2343C31.0627 22.8113 31.241 22.3219 31.0419 21.7192C30.8674 21.1904 31.0181 20.8444 31.4962 20.5657C32.2125 20.1478 32.9243 19.7229 33.6413 19.3069C33.7414 19.2488 33.7704 19.183 33.7704 19.071C33.766 16.8886 33.7656 14.7067 33.7641 12.5244C33.7641 12.4287 33.7641 12.3327 33.7641 12.2126C33.6945 12.2505 33.6521 12.2725 33.6104 12.2963C32.3706 13.0062 31.1308 13.7158 29.8917 14.4269C29.1033 14.8793 28.3167 15.3355 27.5271 15.7858C27.4143 15.8501 27.3645 15.9216 27.366 16.0604C27.3749 16.7547 27.3697 17.449 27.3704 18.1433C27.3704 18.1954 27.3749 18.2475 27.3779 18.3108C27.5673 18.2036 27.7303 18.086 27.9111 18.0135C28.5273 17.766 29.1022 17.9413 29.2651 18.6431C29.3135 18.8511 29.3399 19.0695 29.3384 19.2831C29.3329 20.2185 28.7208 21.1993 27.5881 21.1953C27.4623 21.1949 27.3704 21.2526 27.3701 21.3943C27.3686 21.9699 27.3693 22.5456 27.3693 23.1577L27.3701 23.158ZM18.0417 10.4499C18.6724 10.7748 19.2808 11.0907 19.8932 11.3988C19.9423 11.4233 20.0264 11.4148 20.0789 11.3895C20.2791 11.2927 20.4722 11.1811 20.6694 11.0777C21.0787 10.863 21.4888 10.6498 21.9133 10.4284C21.8687 10.3923 21.8437 10.3647 21.8125 10.3476C21.1736 9.99786 21.1256 9.19079 21.7783 8.73162C22.3409 8.33572 22.9835 8.22186 23.6127 8.47674C24.089 8.66986 24.4789 8.65311 24.8778 8.3599C24.8975 8.34539 24.9213 8.33646 24.9433 8.3253C25.3038 8.13813 25.6644 7.95134 26.0443 7.75376C25.7239 7.58744 25.4281 7.43413 25.133 7.28046C23.5807 6.47302 22.025 5.67153 20.4782 4.85367C20.1247 4.66688 19.8024 4.65088 19.4657 4.86223C19.3876 4.91134 19.3027 4.95041 19.2209 4.99358C17.6625 5.81553 16.1038 6.63786 14.5455 7.45981C14.3137 7.58186 14.0823 7.70465 13.8236 7.8412C14.3721 8.11544 14.8867 8.36883 15.3969 8.63079C15.5185 8.6933 15.6205 8.69813 15.7448 8.63637C16.1559 8.43209 16.5902 8.32009 17.053 8.36213C17.523 8.40455 17.9669 8.52846 18.3345 8.84176C18.7736 9.21572 18.7706 9.86874 18.3316 10.2408C18.2478 10.3119 18.153 10.3703 18.0413 10.4503L18.0417 10.4499Z" fill="white"/>
<path d="M34.3267 19.4219C34.3267 21.8092 34.323 24.1966 34.3297 26.5839C34.3312 27.0829 34.134 27.4513 33.7143 27.7125C31.8437 28.8767 29.977 30.047 28.1042 31.2072C25.8787 32.5858 23.6488 33.9573 21.4199 35.3307C21.1249 35.5123 20.8253 35.6868 20.5295 35.8669C20.2274 36.0507 19.9412 36.0265 19.6413 35.8442C17.4534 34.5121 15.2599 33.1897 13.0724 31.8572C10.8424 30.4991 8.61844 29.1313 6.38886 27.772C5.90662 27.478 5.67444 27.0624 5.67481 26.4979C5.67779 21.7731 5.67853 17.0479 5.67444 12.3231C5.67407 11.7203 5.90588 11.3054 6.46104 11.0166C9.02849 9.67972 11.5836 8.31897 14.1422 6.96493C15.8862 6.04213 17.6279 5.11488 19.3716 4.19172C19.7663 3.9826 20.1604 3.98744 20.5596 4.19618C22.1541 5.03116 23.7518 5.86018 25.347 6.69367C28.1042 8.13441 30.8596 9.57851 33.6171 11.0178C34.0863 11.2626 34.3226 11.6444 34.3234 12.1672C34.326 14.5854 34.3245 17.0036 34.3245 19.4219H34.3271H34.3267ZM26.5154 15.6358C26.4019 15.574 26.3323 15.5357 26.262 15.4981C25.6897 15.1915 25.1178 14.8846 24.5448 14.5794C24.3866 14.4953 24.2735 14.3837 24.2791 14.1902C24.2843 14.0023 24.4276 13.9417 24.5663 13.8654C24.7647 13.7564 24.9686 13.647 25.1412 13.5033C25.2994 13.3716 25.2916 13.193 25.1468 13.0479C25.0571 12.9582 24.9492 12.87 24.8328 12.8273C24.6203 12.7491 24.3974 12.6684 24.1753 12.655C23.6536 12.6237 23.158 12.7227 22.7967 13.1469C22.5548 13.4308 22.4127 13.4721 22.0778 13.2953C21.4274 12.9515 20.7788 12.604 20.1254 12.2654C20.0622 12.2326 19.9554 12.2237 19.8951 12.2546C19.2473 12.5906 18.5983 12.9247 17.9647 13.286C17.6953 13.4393 17.4303 13.4025 17.2309 13.1692C16.7457 12.6014 15.7366 12.4466 15.0296 12.9441C14.7591 13.1346 14.7539 13.3698 15.0222 13.5618C15.1959 13.686 15.398 13.7731 15.5926 13.8658C15.7355 13.9335 15.8549 14.0153 15.8664 14.185C15.8783 14.3636 15.7678 14.4689 15.6231 14.5471C15.3563 14.6911 15.0895 14.8347 14.8235 14.9798C14.4119 15.2042 14.0011 15.43 13.5743 15.6637C13.6201 15.695 13.6476 15.7169 13.6782 15.734C15.7797 16.9311 17.881 18.1285 19.9851 19.321C20.0346 19.3493 20.1291 19.3478 20.179 19.3188C21.9022 18.3197 23.6223 17.3154 25.3433 16.3126C25.721 16.0924 26.1009 15.8754 26.5161 15.6354L26.5154 15.6358ZM20.3368 27.4431C20.4663 27.3646 20.5604 27.3076 20.6545 27.2503C21.2034 26.9147 21.7526 26.5791 22.301 26.2423C22.3982 26.1828 22.493 26.1281 22.4197 25.9804C22.2263 25.5912 22.2196 25.1752 22.3141 24.7655C22.4823 24.0366 22.8897 23.4959 23.6298 23.2693C24.253 23.0784 24.7639 23.3899 24.8834 24.0299C24.9221 24.2379 24.9076 24.4563 24.918 24.6873C24.9563 24.668 24.9835 24.6572 25.0077 24.6419C25.5494 24.3063 26.089 23.967 26.6344 23.6373C26.7464 23.5696 26.7773 23.4914 26.7762 23.3672C26.7706 22.6914 26.7729 22.0157 26.7747 21.34C26.7747 21.2604 26.7792 21.1774 26.8019 21.1022C26.9053 20.7618 27.1189 20.6137 27.5371 20.6051C27.8568 20.5988 28.1317 20.4983 28.3524 20.2658C28.7301 19.8676 28.8138 19.3887 28.7115 18.8697C28.6393 18.5024 28.4372 18.4046 28.1038 18.5798C27.8746 18.7004 27.6622 18.8522 27.4415 18.9887C27.3038 19.0739 27.1669 19.1673 26.9965 19.0632C26.8324 18.9627 26.7717 18.815 26.7725 18.6259C26.7758 17.8758 26.774 17.1257 26.774 16.3755C26.774 16.316 26.774 16.2561 26.774 16.1768C26.7327 16.1958 26.7107 16.2033 26.691 16.2148C24.6196 17.4271 22.5489 18.6405 20.4756 19.8498C20.3714 19.9104 20.3327 19.9744 20.3327 20.0972C20.3371 22.3662 20.3364 24.6353 20.3368 26.9046C20.3368 27.0713 20.3368 27.238 20.3368 27.4434V27.4431ZM19.7548 27.3716C19.7548 27.2581 19.7548 27.1915 19.7548 27.1249C19.7537 24.8191 19.7485 22.5136 19.7578 20.2077C19.7585 19.9778 19.6878 19.8572 19.4921 19.7456C17.7396 18.7495 15.993 17.7426 14.2449 16.7394C13.9409 16.5649 13.6365 16.3919 13.3009 16.1999C13.3009 16.3007 13.3009 16.3662 13.3009 16.4317C13.3009 17.132 13.3023 17.8326 13.3009 18.5329C13.3009 18.6189 13.2971 18.7078 13.2752 18.79C13.2023 19.0628 12.9224 19.1759 12.6802 19.0364C12.3967 18.873 12.1228 18.6896 11.8277 18.5512C11.5349 18.4139 11.3247 18.5467 11.293 18.8652C11.2756 19.0419 11.2785 19.2232 11.2949 19.4003C11.3548 20.047 11.8348 20.6297 12.5972 20.6033C13.0296 20.5884 13.302 20.8808 13.3023 21.3113C13.3023 21.9993 13.305 22.6873 13.2994 23.3753C13.2986 23.4888 13.3336 23.5536 13.4311 23.6116C13.8196 23.8416 14.2028 24.0805 14.5883 24.3156C14.7762 24.4302 14.9645 24.5445 15.1669 24.6676C15.1669 24.4916 15.1636 24.3402 15.1676 24.1887C15.184 23.5755 15.6529 23.1327 16.2062 23.2146C16.8618 23.3121 17.3273 23.6831 17.6316 24.2576C17.9137 24.79 17.9271 25.3478 17.7262 25.9097C17.6696 26.0674 17.6949 26.1616 17.8493 26.2375C18.0097 26.3164 18.1593 26.4172 18.3133 26.5091C18.7792 26.7871 19.245 27.0658 19.7559 27.3709L19.7548 27.3716ZM33.5003 11.6663C33.078 11.4408 32.7029 11.2384 32.326 11.0397C30.489 10.073 28.6516 9.10706 26.8119 8.1452C26.7591 8.11767 26.6672 8.11767 26.614 8.1452C25.9647 8.47823 25.3139 8.80902 24.6757 9.16213C24.3911 9.3199 24.1388 9.35972 23.8423 9.19451C23.4382 8.96976 22.995 8.92139 22.5474 9.03562C22.384 9.0773 22.2214 9.15767 22.0837 9.2559C21.8776 9.40325 21.8672 9.61944 22.0536 9.7932C22.1786 9.90967 22.3342 9.99265 22.4744 10.0935C22.5492 10.1471 22.637 10.1939 22.6888 10.2654C22.8197 10.4462 22.752 10.6468 22.5094 10.7856C22.2199 10.9515 21.9223 11.103 21.6276 11.26C21.2867 11.4419 20.9451 11.6235 20.5827 11.8166C20.6609 11.8624 20.7159 11.8985 20.7743 11.9286C21.2019 12.1515 21.6369 12.3618 22.0551 12.6006C22.2374 12.7048 22.3539 12.6948 22.5228 12.5675C23.3343 11.9551 24.4689 11.9011 25.3001 12.4012C26.0402 12.8462 26.0287 13.7921 25.2789 14.159C25.2488 14.1739 25.2246 14.1999 25.1844 14.2308C25.2413 14.2639 25.2819 14.2896 25.3243 14.3119C25.7388 14.5333 26.157 14.7473 26.5671 14.9765C27.1505 15.3028 27.1427 15.2987 27.7288 14.9619C29.3801 14.0124 31.0359 13.0702 32.6899 12.1259C32.9459 11.9796 33.203 11.8353 33.5007 11.6667L33.5003 11.6663ZM11.0303 22.7703C11.0303 22.911 11.0348 23.0096 11.0296 23.1078C10.9935 23.8222 10.4287 24.2326 9.73435 24.0656C8.88895 23.8624 8.02681 22.7231 8.40783 21.5748C8.50793 21.2734 8.47928 21.2057 8.21025 21.0475C7.62383 20.7026 7.03742 20.358 6.45025 20.0142C6.40076 19.9852 6.34793 19.9625 6.27649 19.9272C6.27649 20.0165 6.27649 20.0715 6.27649 20.127C6.27649 22.2099 6.2869 24.2933 6.26867 26.3759C6.26458 26.8317 6.43909 27.11 6.81676 27.3374C8.74607 28.4994 10.6664 29.676 12.5905 30.8466C12.6196 30.8641 12.6553 30.8708 12.704 30.8883C12.704 30.7908 12.704 30.7112 12.704 30.6315C12.704 30.0674 12.6999 29.5033 12.7048 28.9393C12.7081 28.5709 13.0229 28.3811 13.3481 28.5526C13.6212 28.6966 13.881 28.8667 14.1556 29.0073C14.4629 29.1647 14.6728 29.0427 14.7159 28.7C14.8205 27.8717 14.2583 27.1755 13.4318 27.1097C12.9541 27.0717 12.7059 26.8075 12.704 26.3264C12.7018 25.5699 12.697 24.8135 12.7074 24.0574C12.71 23.8687 12.659 23.7564 12.489 23.6615C12.1381 23.4658 11.8017 23.2436 11.4594 23.0326C11.3291 22.9523 11.1982 22.8734 11.0296 22.7707L11.0303 22.7703ZM26.7665 24.2438C26.729 24.2617 26.7074 24.2691 26.6884 24.2814C26.1615 24.6178 25.6328 24.9515 25.1092 25.2927C24.9247 25.4129 24.7349 25.4725 24.5362 25.3579C24.3356 25.2421 24.2597 25.052 24.2806 24.8209C24.2977 24.63 24.3204 24.438 24.3159 24.2468C24.3074 23.8993 24.0815 23.7441 23.7515 23.855C23.2871 24.0105 23.0277 24.3584 22.905 24.8131C22.8086 25.1707 22.8588 25.5197 22.9913 25.8661C23.1275 26.2219 23.0441 26.447 22.7316 26.6661C22.6709 26.7089 22.6069 26.7469 22.5433 26.7852C21.859 27.1964 21.1758 27.6094 20.4893 28.0161C20.3829 28.0793 20.3323 28.1459 20.3327 28.2777C20.3375 30.5657 20.3368 32.8537 20.3383 35.1417C20.3383 35.1804 20.3494 35.2191 20.3576 35.2719C20.4168 35.2392 20.4607 35.2176 20.502 35.1919C22.5425 33.926 24.582 32.6583 26.6255 31.3969C26.7438 31.324 26.7781 31.2481 26.7766 31.1167C26.7699 30.54 26.774 29.9636 26.7732 29.3869C26.7732 29.3348 26.7669 29.2827 26.7621 29.2034C26.6679 29.2641 26.5987 29.3143 26.5243 29.3549C26.3453 29.452 26.1716 29.5651 25.9822 29.6351C25.5003 29.8129 25.049 29.5949 24.915 29.1C24.8484 28.8548 24.8272 28.5861 24.8432 28.332C24.8971 27.4732 25.6011 26.6401 26.4819 26.5538C26.6914 26.5333 26.7743 26.4373 26.7743 26.2256C26.7751 25.6116 26.7743 24.9977 26.7736 24.3841C26.7736 24.3432 26.7699 24.3022 26.7669 24.2438H26.7665ZM19.3827 11.8364C19.1859 11.7329 19.017 11.6444 18.8484 11.5554C18.3721 11.305 17.8947 11.0572 17.4203 10.8038C17.1885 10.6799 17.1014 10.5002 17.2026 10.326C17.2543 10.2367 17.3526 10.1686 17.4415 10.1076C17.5885 10.006 17.7578 9.93386 17.8936 9.82037C18.0986 9.6492 18.1016 9.42669 17.8862 9.27116C17.731 9.15916 17.5397 9.07693 17.3526 9.03265C16.8536 8.91506 16.3695 8.98799 15.9141 9.22651C15.6897 9.34409 15.4813 9.34967 15.2469 9.22651C14.6013 8.88679 13.9435 8.57013 13.2953 8.23562C13.2037 8.18837 13.1435 8.19358 13.062 8.24009C12.8689 8.3506 12.672 8.45479 12.4752 8.5586C10.5727 9.56288 8.67016 10.566 6.76802 11.5711C6.69621 11.609 6.63369 11.6645 6.5496 11.7236C6.62997 11.772 6.68169 11.8051 6.73565 11.8349C7.88318 12.4689 9.03183 13.1015 10.179 13.7366C11.088 14.2397 11.9952 14.7465 12.9057 15.247C12.9589 15.276 13.0508 15.2898 13.0992 15.2633C13.6748 14.95 14.2456 14.6282 14.8175 14.3078C14.8614 14.2833 14.902 14.2535 14.9083 14.2494C14.7263 14.0872 14.5083 13.9566 14.3807 13.7657C14.0744 13.3069 14.2393 12.7588 14.7438 12.4228C15.5122 11.9108 16.6929 11.9558 17.4266 12.5445C17.616 12.6963 17.757 12.7275 17.977 12.5958C18.4257 12.3275 18.8964 12.0961 19.3823 11.8364H19.3827ZM29.0281 22.8135C28.5183 23.1353 28.019 23.4542 27.5152 23.7649C27.4084 23.8308 27.3656 23.9022 27.3671 24.031C27.3745 24.7934 27.3738 25.5562 27.3716 26.319C27.3701 26.8005 27.1342 27.0609 26.6497 27.1115C25.8352 27.1967 25.347 27.9599 25.4393 28.7227C25.481 29.0658 25.6696 29.1506 25.9721 28.9794C26.1983 28.8514 26.4171 28.7108 26.6426 28.5817C27.0162 28.3677 27.3656 28.5698 27.3678 28.9999C27.3704 29.4464 27.3693 29.8929 27.3697 30.3391C27.3697 30.5281 27.3697 30.7171 27.3697 30.9396C27.4687 30.8808 27.5368 30.8418 27.6037 30.8005C28.352 30.3394 29.1018 29.881 29.8478 29.4163C31.014 28.6896 32.1757 27.9554 33.3433 27.2306C33.6406 27.046 33.7719 26.8001 33.7708 26.4473C33.7634 24.3268 33.7675 22.2062 33.7671 20.086C33.7671 20.0351 33.7593 19.9841 33.7537 19.9171C33.0802 20.3223 32.4279 20.7126 31.7783 21.1074C31.5788 21.2287 31.5386 21.3389 31.6157 21.5592C31.9907 22.6349 31.2618 23.8189 30.2601 24.0753C29.6692 24.2263 29.1922 23.9331 29.0754 23.3326C29.0437 23.1699 29.0437 23.0014 29.0274 22.8135H29.0281ZM19.7496 35.1993C19.7537 35.1275 19.7578 35.0855 19.7578 35.0434C19.7556 32.7688 19.7522 30.4939 19.7526 28.2193C19.7526 28.1139 19.7221 28.0563 19.6283 28.0005C18.8945 27.5647 18.1623 27.1253 17.4352 26.6784C17.0534 26.4436 16.9775 26.1973 17.1383 25.7824C17.2447 25.5082 17.3243 25.2339 17.248 24.9352C17.12 24.4325 16.8607 24.0388 16.3498 23.8617C15.9926 23.7378 15.7634 23.8989 15.76 24.2766C15.7585 24.4611 15.7842 24.6464 15.8032 24.8306C15.8251 25.0434 15.7801 25.2313 15.5877 25.3463C15.4047 25.4557 15.2205 25.4196 15.0445 25.3095C14.5206 24.9806 13.9956 24.6535 13.4705 24.326C13.4222 24.2959 13.3719 24.2687 13.3016 24.2286C13.3016 24.9218 13.299 25.5785 13.3031 26.2353C13.3042 26.4339 13.408 26.524 13.6164 26.5541C13.7682 26.5761 13.926 26.5936 14.067 26.6486C14.966 26.9992 15.4724 27.9056 15.3098 28.8548C15.2108 29.433 14.8305 29.7448 14.2746 29.673C14.1027 29.6507 13.9349 29.5673 13.7749 29.4914C13.6175 29.4166 13.4728 29.3158 13.3012 29.2135C13.3012 29.836 13.3135 30.4246 13.2945 31.0122C13.2878 31.2246 13.3645 31.3318 13.5356 31.4341C14.608 32.0752 15.6756 32.7249 16.7438 33.3727C17.7377 33.9755 18.7304 34.5802 19.7492 35.1997L19.7496 35.1993ZM6.28281 12.2635C6.27872 12.3182 6.27537 12.3428 6.27537 12.3673C6.27537 14.6122 6.27723 16.857 6.27388 19.1015C6.27388 19.225 6.33565 19.2745 6.42607 19.3266C7.14942 19.7448 7.87016 20.1675 8.59388 20.5846C8.83314 20.7223 9.01956 20.9147 9.03928 21.1867C9.05453 21.4006 8.99872 21.6258 8.94253 21.8371C8.77993 22.4485 9.16095 23.2202 9.74923 23.4408C10.1905 23.6064 10.4369 23.4401 10.4398 22.9716C10.4413 22.761 10.4246 22.5497 10.4361 22.3394C10.4503 22.0812 10.691 21.9167 10.9172 22.0016C11.0088 22.0362 11.0951 22.0879 11.1788 22.14C11.6357 22.425 12.0908 22.7126 12.5474 22.9984C12.592 23.0263 12.6408 23.0475 12.7089 23.0829C12.7089 22.5173 12.7096 21.9789 12.7085 21.4401C12.7081 21.2228 12.681 21.1982 12.4596 21.1904C11.9531 21.1729 11.5118 21.0014 11.1818 20.6077C10.6992 20.0325 10.5641 19.3668 10.7301 18.6427C10.8439 18.1445 11.1583 17.9145 11.6603 17.9141C11.9319 17.9141 12.166 18.0157 12.3926 18.1486C12.4897 18.2055 12.5868 18.262 12.7036 18.3305C12.7036 17.5696 12.6947 16.8444 12.7092 16.1199C12.7133 15.916 12.6434 15.8152 12.47 15.7192C10.9768 14.892 9.48914 14.0548 7.99965 13.2209C7.43481 12.9046 6.86886 12.5899 6.28244 12.2624L6.28281 12.2635ZM27.3701 23.158C27.5092 23.0713 27.6149 23.0085 27.7176 22.9415C28.1477 22.6613 28.576 22.3778 29.0073 22.0994C29.3332 21.8892 29.6555 22.0566 29.6703 22.444C29.6744 22.5486 29.6521 22.6539 29.654 22.7588C29.657 22.9307 29.654 23.1052 29.6837 23.2734C29.7117 23.4319 29.833 23.5112 29.997 23.5041C30.2415 23.4937 30.4577 23.4047 30.6315 23.2343C31.0627 22.8113 31.241 22.3219 31.0419 21.7192C30.8674 21.1904 31.0181 20.8444 31.4962 20.5657C32.2125 20.1478 32.9243 19.7229 33.6413 19.3069C33.7414 19.2488 33.7704 19.183 33.7704 19.071C33.766 16.8886 33.7656 14.7067 33.7641 12.5244C33.7641 12.4287 33.7641 12.3327 33.7641 12.2126C33.6945 12.2505 33.6521 12.2725 33.6104 12.2963C32.3706 13.0062 31.1308 13.7158 29.8917 14.4269C29.1033 14.8793 28.3167 15.3355 27.5271 15.7858C27.4143 15.8501 27.3645 15.9216 27.366 16.0604C27.3749 16.7547 27.3697 17.449 27.3704 18.1433C27.3704 18.1954 27.3749 18.2475 27.3779 18.3108C27.5673 18.2036 27.7303 18.086 27.9111 18.0135C28.5273 17.766 29.1022 17.9413 29.2651 18.6431C29.3135 18.8511 29.3399 19.0695 29.3384 19.2831C29.3329 20.2185 28.7208 21.1993 27.5881 21.1953C27.4623 21.1949 27.3704 21.2526 27.3701 21.3943C27.3686 21.9699 27.3693 22.5456 27.3693 23.1577L27.3701 23.158ZM18.0417 10.4499C18.6724 10.7748 19.2808 11.0907 19.8932 11.3988C19.9423 11.4233 20.0264 11.4148 20.0789 11.3895C20.2791 11.2927 20.4722 11.1811 20.6694 11.0777C21.0787 10.863 21.4888 10.6498 21.9133 10.4284C21.8687 10.3923 21.8437 10.3647 21.8125 10.3476C21.1736 9.99786 21.1256 9.19079 21.7783 8.73162C22.3409 8.33572 22.9835 8.22186 23.6127 8.47674C24.089 8.66986 24.4789 8.65311 24.8778 8.3599C24.8975 8.34539 24.9213 8.33646 24.9433 8.3253C25.3038 8.13813 25.6644 7.95134 26.0443 7.75376C25.7239 7.58744 25.4281 7.43413 25.133 7.28046C23.5807 6.47302 22.025 5.67153 20.4782 4.85367C20.1247 4.66688 19.8024 4.65088 19.4657 4.86223C19.3876 4.91134 19.3027 4.95041 19.2209 4.99358C17.6625 5.81553 16.1038 6.63786 14.5455 7.45981C14.3137 7.58186 14.0823 7.70465 13.8236 7.8412C14.3721 8.11544 14.8867 8.36883 15.3969 8.63079C15.5185 8.6933 15.6205 8.69813 15.7448 8.63637C16.1559 8.43209 16.5902 8.32009 17.053 8.36213C17.523 8.40455 17.9669 8.52846 18.3345 8.84176C18.7736 9.21572 18.7706 9.86874 18.3316 10.2408C18.2478 10.3119 18.153 10.3703 18.0413 10.4503L18.0417 10.4499Z" stroke="white" stroke-width="0.4" mask="url(#path-13-outside-1_107_171)"/>
</svg>
