<svg width="117" height="32" viewBox="0 0 117 32" fill="none" xmlns="http://www.w3.org/2000/svg">
<rect x="0.5" y="0.5" width="116" height="31" rx="15.5" stroke="#525252"/>
<path d="M24.1828 14.2V12.4C24.1828 11.0745 23.2055 10 22 10C20.7945 10 19.8172 11.0745 19.8172 12.4V14.2M17.4117 15.0112L17.0843 18.8512C16.9912 19.943 16.9447 20.4889 17.1094 20.9106C17.2542 21.281 17.5078 21.5872 17.8297 21.7803C18.1962 22 18.6949 22 19.6922 22H24.3078C25.3051 22 25.8038 22 26.1703 21.7803C26.4922 21.5872 26.7458 21.281 26.8906 20.9106C27.0553 20.4889 27.0088 19.943 26.9157 18.8512L26.5883 15.0112C26.5097 14.0892 26.4704 13.6282 26.2818 13.2797C26.1157 12.9728 25.8703 12.7271 25.5769 12.5739C25.2437 12.4 24.8225 12.4 23.9803 12.4L20.0197 12.4C19.1775 12.4 18.7563 12.4 18.4231 12.5739C18.1297 12.7271 17.8843 12.9728 17.7182 13.2797C17.5296 13.6282 17.4903 14.0892 17.4117 15.0112Z" stroke="white" stroke-linecap="round" stroke-linejoin="round"/>
<path d="M38.1875 20L35.1875 15.9943H34.1136V20H33.0568V11.2727H34.1136V15.0568H34.5739L38.0682 11.2727H39.3295L35.8011 15.108L39.4489 20H38.1875ZM42.8569 20.1364C42.266 20.1364 41.7475 19.9957 41.3015 19.7145C40.8583 19.4332 40.5117 19.0398 40.2617 18.5341C40.0146 18.0284 39.891 17.4375 39.891 16.7614C39.891 16.0795 40.0146 15.4844 40.2617 14.9759C40.5117 14.4673 40.8583 14.0724 41.3015 13.7912C41.7475 13.5099 42.266 13.3693 42.8569 13.3693C43.4478 13.3693 43.9648 13.5099 44.408 13.7912C44.854 14.0724 45.2006 14.4673 45.4478 14.9759C45.6978 15.4844 45.8228 16.0795 45.8228 16.7614C45.8228 17.4375 45.6978 18.0284 45.4478 18.5341C45.2006 19.0398 44.854 19.4332 44.408 19.7145C43.9648 19.9957 43.4478 20.1364 42.8569 20.1364ZM42.8569 19.233C43.3058 19.233 43.6751 19.1179 43.9648 18.8878C44.2546 18.6577 44.4691 18.3551 44.6083 17.9801C44.7475 17.6051 44.8171 17.1989 44.8171 16.7614C44.8171 16.3239 44.7475 15.9162 44.6083 15.5384C44.4691 15.1605 44.2546 14.8551 43.9648 14.6222C43.6751 14.3892 43.3058 14.2727 42.8569 14.2727C42.408 14.2727 42.0387 14.3892 41.7489 14.6222C41.4592 14.8551 41.2447 15.1605 41.1055 15.5384C40.9663 15.9162 40.8967 16.3239 40.8967 16.7614C40.8967 17.1989 40.9663 17.6051 41.1055 17.9801C41.2447 18.3551 41.4592 18.6577 41.7489 18.8878C42.0387 19.1179 42.408 19.233 42.8569 19.233ZM50.9375 18.6364L53.2216 13.4545H54.1761L51.3466 20H50.5284L47.75 13.4545H48.6875L50.9375 18.6364ZM48.3636 13.4545V20H47.358V13.4545H48.3636ZM53.5114 20V13.4545H54.517V20H53.5114ZM59.9375 18.6364L62.2216 13.4545H63.1761L60.3466 20H59.5284L56.75 13.4545H57.6875L59.9375 18.6364ZM57.3636 13.4545V20H56.358V13.4545H57.3636ZM62.5114 20V13.4545H63.517V20H62.5114ZM68.1023 20.1364C67.4716 20.1364 66.9276 19.9972 66.4702 19.7188C66.0156 19.4375 65.6648 19.0455 65.4176 18.5426C65.1733 18.0369 65.0511 17.4489 65.0511 16.7784C65.0511 16.108 65.1733 15.517 65.4176 15.0057C65.6648 14.4915 66.0085 14.0909 66.4489 13.804C66.892 13.5142 67.4091 13.3693 68 13.3693C68.3409 13.3693 68.6776 13.4261 69.0099 13.5398C69.3423 13.6534 69.6449 13.8381 69.9176 14.0938C70.1903 14.3466 70.4077 14.6818 70.5696 15.0994C70.7315 15.517 70.8125 16.0312 70.8125 16.642V17.0682H65.767V16.1989H69.7898C69.7898 15.8295 69.7159 15.5 69.5682 15.2102C69.4233 14.9205 69.2159 14.6918 68.946 14.5241C68.679 14.3565 68.3636 14.2727 68 14.2727C67.5994 14.2727 67.2528 14.3722 66.9602 14.571C66.6705 14.767 66.4474 15.0227 66.2912 15.3381C66.1349 15.6534 66.0568 15.9915 66.0568 16.3523V16.9318C66.0568 17.4261 66.142 17.8452 66.3125 18.1889C66.4858 18.5298 66.7259 18.7898 67.0327 18.9688C67.3395 19.1449 67.696 19.233 68.1023 19.233C68.3665 19.233 68.6051 19.196 68.8182 19.1222C69.0341 19.0455 69.2202 18.9318 69.3764 18.7812C69.5327 18.6278 69.6534 18.4375 69.7386 18.2102L70.7102 18.483C70.608 18.8125 70.4361 19.1023 70.1946 19.3523C69.9531 19.5994 69.6548 19.7926 69.2997 19.9318C68.9446 20.0682 68.5455 20.1364 68.1023 20.1364ZM72.3423 22.4545V13.4545H73.3139V14.4943H73.4332C73.5071 14.3807 73.6094 14.2358 73.7401 14.0597C73.8736 13.8807 74.0639 13.7216 74.3111 13.5824C74.5611 13.4403 74.8991 13.3693 75.3253 13.3693C75.8764 13.3693 76.3622 13.5071 76.7827 13.7827C77.2031 14.0582 77.5313 14.4489 77.767 14.9545C78.0028 15.4602 78.1207 16.0568 78.1207 16.7443C78.1207 17.4375 78.0028 18.0384 77.767 18.5469C77.5313 19.0526 77.2045 19.4446 76.7869 19.723C76.3693 19.9986 75.8878 20.1364 75.3423 20.1364C74.9219 20.1364 74.5852 20.0668 74.3324 19.9276C74.0795 19.7855 73.8849 19.625 73.7486 19.446C73.6122 19.2642 73.5071 19.1136 73.4332 18.9943H73.348V22.4545H72.3423ZM73.331 16.7273C73.331 17.2216 73.4034 17.6577 73.5483 18.0355C73.6932 18.4105 73.9048 18.7045 74.1832 18.9176C74.4616 19.1278 74.8026 19.233 75.206 19.233C75.6264 19.233 75.9773 19.1222 76.2585 18.9006C76.5426 18.6761 76.7557 18.375 76.8977 17.9972C77.0426 17.6165 77.1151 17.1932 77.1151 16.7273C77.1151 16.267 77.044 15.8523 76.902 15.483C76.7628 15.1108 76.5511 14.8168 76.267 14.6009C75.9858 14.3821 75.6321 14.2727 75.206 14.2727C74.7969 14.2727 74.4531 14.3764 74.1747 14.5838C73.8963 14.7884 73.6861 15.0753 73.544 15.4446C73.402 15.8111 73.331 16.2386 73.331 16.7273ZM84.8026 13.4545V19.0625H85.723V22.1136H84.7173V20H79.6548V13.4545H80.6605V19.0625H83.7969V13.4545H84.8026ZM88.2777 18.517L91.4311 13.4545H92.5902V20H91.5845V14.9375L88.4482 20H87.272V13.4545H88.2777V18.517ZM98.3697 20V14.375H96.631C96.239 14.375 95.9308 14.4659 95.7063 14.6477C95.4819 14.8295 95.3697 15.0795 95.3697 15.3977C95.3697 15.7102 95.4705 15.956 95.6722 16.1349C95.8768 16.3139 96.1566 16.4034 96.5117 16.4034H98.6254V17.3409H96.5117C96.0685 17.3409 95.6864 17.2628 95.3654 17.1065C95.0444 16.9503 94.7972 16.7273 94.6239 16.4375C94.4506 16.1449 94.364 15.7983 94.364 15.3977C94.364 14.9943 94.4549 14.6477 94.6367 14.358C94.8185 14.0682 95.0785 13.8452 95.4165 13.6889C95.7575 13.5327 96.1623 13.4545 96.631 13.4545H99.3242V20H98.3697ZM94.006 20L95.864 16.7443H96.9549L95.0969 20H94.006Z" fill="white"/>
</svg>
