<svg width="109" height="32" viewBox="0 0 109 32" fill="none" xmlns="http://www.w3.org/2000/svg">
<rect x="0.5" y="0.5" width="108" height="31" rx="15.5" stroke="#525252"/>
<path d="M30 14H18M18 13.2L18 18.8C18 19.9201 18 20.4802 18.1962 20.908C18.3688 21.2843 18.6441 21.5903 18.9828 21.782C19.3679 22 19.8719 22 20.88 22H27.12C28.1281 22 28.6321 22 29.0172 21.782C29.3559 21.5903 29.6312 21.2843 29.8038 20.908C30 20.4802 30 19.9201 30 18.8V13.2C30 12.0799 30 11.5198 29.8038 11.092C29.6312 10.7157 29.3559 10.4097 29.0172 10.218C28.6321 10 28.1281 10 27.12 10L20.88 10C19.8719 10 19.3679 10 18.9828 10.218C18.6441 10.4097 18.3688 10.7157 18.1962 11.092C18 11.5198 18 12.0799 18 13.2Z" stroke="white" stroke-linecap="round" stroke-linejoin="round"/>
<path d="M36.3068 20V19.0284H36.5625C36.9261 19.0284 37.2088 18.9119 37.4105 18.679C37.6122 18.446 37.7571 18.0696 37.8452 17.5497C37.9361 17.0298 37.9972 16.3409 38.0284 15.483L38.1818 11.2727H43.5V20H42.4432V12.2102H39.1875L39.0511 15.6875C39.017 16.6023 38.9332 17.3807 38.7997 18.0227C38.6662 18.6648 38.4318 19.1548 38.0966 19.4929C37.7614 19.831 37.2727 20 36.6307 20H36.3068ZM48.2195 20.1364C47.5888 20.1364 47.0447 19.9972 46.5874 19.7188C46.1328 19.4375 45.782 19.0455 45.5348 18.5426C45.2905 18.0369 45.1683 17.4489 45.1683 16.7784C45.1683 16.108 45.2905 15.517 45.5348 15.0057C45.782 14.4915 46.1257 14.0909 46.5661 13.804C47.0092 13.5142 47.5263 13.3693 48.1172 13.3693C48.4581 13.3693 48.7947 13.4261 49.1271 13.5398C49.4595 13.6534 49.7621 13.8381 50.0348 14.0938C50.3075 14.3466 50.5249 14.6818 50.6868 15.0994C50.8487 15.517 50.9297 16.0312 50.9297 16.642V17.0682H45.8842V16.1989H49.907C49.907 15.8295 49.8331 15.5 49.6854 15.2102C49.5405 14.9205 49.3331 14.6918 49.0632 14.5241C48.7962 14.3565 48.4808 14.2727 48.1172 14.2727C47.7166 14.2727 47.37 14.3722 47.0774 14.571C46.7876 14.767 46.5646 15.0227 46.4084 15.3381C46.2521 15.6534 46.174 15.9915 46.174 16.3523V16.9318C46.174 17.4261 46.2592 17.8452 46.4297 18.1889C46.603 18.5298 46.843 18.7898 47.1499 18.9688C47.4567 19.1449 47.8132 19.233 48.2195 19.233C48.4837 19.233 48.7223 19.196 48.9354 19.1222C49.1513 19.0455 49.3374 18.9318 49.4936 18.7812C49.6499 18.6278 49.7706 18.4375 49.8558 18.2102L50.8274 18.483C50.7251 18.8125 50.5533 19.1023 50.3118 19.3523C50.0703 19.5994 49.772 19.7926 49.4169 19.9318C49.0618 20.0682 48.6626 20.1364 48.2195 20.1364ZM56.8402 16.267V17.2045H53.2266V16.267H56.8402ZM53.4652 13.4545V20H52.4595V13.4545H53.4652ZM57.6072 13.4545V20H56.6016V13.4545H57.6072ZM58.745 21.875V19.0625H59.2905C59.424 18.9233 59.5391 18.7727 59.6357 18.6108C59.7322 18.4489 59.8161 18.2571 59.8871 18.0355C59.9609 17.8111 60.0234 17.5384 60.0746 17.2173C60.1257 16.8935 60.1712 16.5028 60.2109 16.0455L60.4325 13.4545H64.5916V19.0625H65.5973V21.875H64.5916V20H59.7507V21.875H58.745ZM60.4325 19.0625H63.5859V14.392H61.37L61.1996 16.0455C61.1286 16.7301 61.0405 17.3281 60.9354 17.8395C60.8303 18.3509 60.6626 18.7585 60.4325 19.0625ZM67.9379 18.517L71.0913 13.4545H72.2504V20H71.2447V14.9375L68.1083 20H66.9322V13.4545H67.9379V18.517ZM78.473 16.267V17.2045H74.8594V16.267H78.473ZM75.098 13.4545V20H74.0923V13.4545H75.098ZM79.2401 13.4545V20H78.2344V13.4545H79.2401ZM85.1165 13.4545V14.392H82.0824V20H81.0767V13.4545H85.1165ZM87.5902 18.517L90.7436 13.4545H91.9027V20H90.897V14.9375L87.7607 20H86.5845V13.4545H87.5902V18.517Z" fill="white"/>
</svg>
