<svg width="110" height="32" viewBox="0 0 110 32" fill="none" xmlns="http://www.w3.org/2000/svg">
<rect x="0.5" y="0.5" width="109" height="31" rx="15.5" stroke="#525252"/>
<path d="M31.1429 16.1421C31.1429 20.0186 28.0193 23.1442 24.1467 23.1427C20.2636 23.1412 17.1414 20.0161 17.1429 16.1326C17.1444 12.274 20.2846 9.14089 24.1485 9.14285C28.0138 9.14482 31.1427 12.276 31.1429 16.1419V16.1421ZM29.7828 16.1491C29.7844 13.0313 27.2706 10.5101 24.1557 10.5052C21.0389 10.5004 18.5045 13.0236 18.5022 16.1335C18.5 19.2503 21.0237 21.7809 24.1362 21.7829C27.257 21.7849 29.7811 19.2665 29.7828 16.1489V16.1491Z" fill="white"/>
<path d="M24.1288 12.0799C24.1637 12.0798 24.1831 12.088 24.1962 12.0985C24.2104 12.1098 24.2233 12.1289 24.2362 12.162C24.5434 12.9474 24.8523 13.7325 25.161 14.5174L26.2782 17.3573C26.3094 17.4368 26.3401 17.5167 26.371 17.5965C26.4018 17.6764 26.4324 17.7569 26.4637 17.8368C26.4759 17.8676 26.4879 17.8945 26.5009 17.9159C26.5141 17.9377 26.532 17.9585 26.5575 17.9706C26.5829 17.9824 26.6097 17.983 26.6346 17.9793C26.6592 17.9757 26.6869 17.9669 26.7177 17.9569C27 17.8644 27.2826 17.7721 27.5653 17.6805C27.5892 17.6728 27.6043 17.6683 27.6151 17.6659C27.619 17.6754 27.6231 17.6895 27.6298 17.7118C27.7235 18.0236 27.817 18.3362 27.91 18.6483C27.6721 18.7197 27.4384 18.7915 27.204 18.8612C26.7069 19.0088 26.2084 19.1542 25.7118 19.3045C25.6846 19.3128 25.6802 19.3093 25.6825 19.3104C25.682 19.3099 25.6815 19.3088 25.6805 19.3075C25.6775 19.303 25.6737 19.2954 25.6688 19.2831C25.2326 18.1721 24.7943 17.0614 24.3563 15.951C24.3395 15.9085 24.3197 15.8655 24.2968 15.8123L24.2616 15.7313L24.2098 15.8036C24.1766 15.8499 24.1431 15.8919 24.1161 15.9344C23.6258 16.7057 23.136 17.4772 22.6464 18.2489C22.4211 18.6041 22.1975 18.9597 21.9706 19.3133C21.9671 19.3187 21.9591 19.3271 21.9491 19.3338L21.9315 19.3426C21.5052 19.3455 21.0788 19.3431 20.6522 19.3426C20.6615 19.3263 20.6707 19.3105 20.6805 19.2948C21.6794 17.6834 22.6783 16.0715 23.6796 14.4618C23.7179 14.4002 23.7416 14.3382 23.7479 14.2733C23.7541 14.2086 23.7431 14.1439 23.7167 14.076C23.6257 13.843 23.5473 13.6049 23.4647 13.3661V13.3651C23.4427 13.3015 23.4189 13.249 23.3739 13.2166C23.3288 13.1843 23.2715 13.1784 23.203 13.1786C22.8858 13.179 22.5676 13.1789 22.2499 13.1815C22.2371 13.1816 22.229 13.1806 22.2245 13.1795L22.2225 13.1551C22.2253 12.8049 22.2248 12.4546 22.2225 12.1043C22.2225 12.0926 22.2226 12.0854 22.2235 12.0819L22.246 12.0809C22.8733 12.0823 23.5013 12.0828 24.1288 12.0799Z" fill="white" stroke="white" stroke-width="0.1"/>
<path d="M36.3068 20V19.0284H36.5625C36.9261 19.0284 37.2088 18.9119 37.4105 18.679C37.6122 18.446 37.7571 18.0696 37.8452 17.5497C37.9361 17.0298 37.9972 16.3409 38.0284 15.483L38.1818 11.2727H43.5V20H42.4432V12.2102H39.1875L39.0511 15.6875C39.017 16.6023 38.9332 17.3807 38.7997 18.0227C38.6662 18.6648 38.4318 19.1548 38.0966 19.4929C37.7614 19.831 37.2727 20 36.6307 20H36.3068ZM48.1342 20.1364C47.5433 20.1364 47.0249 19.9957 46.5788 19.7145C46.1357 19.4332 45.7891 19.0398 45.5391 18.5341C45.2919 18.0284 45.1683 17.4375 45.1683 16.7614C45.1683 16.0795 45.2919 15.4844 45.5391 14.9759C45.7891 14.4673 46.1357 14.0724 46.5788 13.7912C47.0249 13.5099 47.5433 13.3693 48.1342 13.3693C48.7251 13.3693 49.2422 13.5099 49.6854 13.7912C50.1314 14.0724 50.478 14.4673 50.7251 14.9759C50.9751 15.4844 51.1001 16.0795 51.1001 16.7614C51.1001 17.4375 50.9751 18.0284 50.7251 18.5341C50.478 19.0398 50.1314 19.4332 49.6854 19.7145C49.2422 19.9957 48.7251 20.1364 48.1342 20.1364ZM48.1342 19.233C48.5831 19.233 48.9524 19.1179 49.2422 18.8878C49.532 18.6577 49.7464 18.3551 49.8857 17.9801C50.0249 17.6051 50.0945 17.1989 50.0945 16.7614C50.0945 16.3239 50.0249 15.9162 49.8857 15.5384C49.7464 15.1605 49.532 14.8551 49.2422 14.6222C48.9524 14.3892 48.5831 14.2727 48.1342 14.2727C47.6854 14.2727 47.3161 14.3892 47.0263 14.6222C46.7365 14.8551 46.522 15.1605 46.3828 15.5384C46.2436 15.9162 46.174 16.3239 46.174 16.7614C46.174 17.1989 46.2436 17.6051 46.3828 17.9801C46.522 18.3551 46.7365 18.6577 47.0263 18.8878C47.3161 19.1179 47.6854 19.233 48.1342 19.233ZM56.6751 13.4545V14.392H53.641V20H52.6353V13.4545H56.6751ZM60.4624 20.1364C59.8714 20.1364 59.353 19.9957 58.907 19.7145C58.4638 19.4332 58.1172 19.0398 57.8672 18.5341C57.62 18.0284 57.4964 17.4375 57.4964 16.7614C57.4964 16.0795 57.62 15.4844 57.8672 14.9759C58.1172 14.4673 58.4638 14.0724 58.907 13.7912C59.353 13.5099 59.8714 13.3693 60.4624 13.3693C61.0533 13.3693 61.5703 13.5099 62.0135 13.7912C62.4595 14.0724 62.8061 14.4673 63.0533 14.9759C63.3033 15.4844 63.4283 16.0795 63.4283 16.7614C63.4283 17.4375 63.3033 18.0284 63.0533 18.5341C62.8061 19.0398 62.4595 19.4332 62.0135 19.7145C61.5703 19.9957 61.0533 20.1364 60.4624 20.1364ZM60.4624 19.233C60.9112 19.233 61.2805 19.1179 61.5703 18.8878C61.8601 18.6577 62.0746 18.3551 62.2138 17.9801C62.353 17.6051 62.4226 17.1989 62.4226 16.7614C62.4226 16.3239 62.353 15.9162 62.2138 15.5384C62.0746 15.1605 61.8601 14.8551 61.5703 14.6222C61.2805 14.3892 60.9112 14.2727 60.4624 14.2727C60.0135 14.2727 59.6442 14.3892 59.3544 14.6222C59.0646 14.8551 58.8501 15.1605 58.7109 15.5384C58.5717 15.9162 58.5021 16.3239 58.5021 16.7614C58.5021 17.1989 58.5717 17.6051 58.7109 17.9801C58.8501 18.3551 59.0646 18.6577 59.3544 18.8878C59.6442 19.1179 60.0135 19.233 60.4624 19.233ZM64.108 14.392V13.4545H69.4261V14.392H67.2784V20H66.2727V14.392H64.108ZM71.8988 18.517L75.0522 13.4545H76.2113V20H75.2056V14.9375L72.0692 20H70.8931V13.4545H71.8988V18.517ZM78.0533 20V13.4545H83.201V20H82.1953V14.392H79.0589V20H78.0533ZM85.907 15.8239H87.782C88.549 15.8239 89.1357 16.0185 89.5419 16.4077C89.9482 16.7969 90.1513 17.2898 90.1513 17.8864C90.1513 18.2784 90.0604 18.6349 89.8786 18.956C89.6967 19.2741 89.4297 19.5284 89.0774 19.7188C88.7251 19.9062 88.2933 20 87.782 20H85.0376V13.4545H86.0433V19.0625H87.782C88.1797 19.0625 88.5064 18.9574 88.7621 18.7472C89.0178 18.5369 89.1456 18.267 89.1456 17.9375C89.1456 17.5909 89.0178 17.3082 88.7621 17.0895C88.5064 16.8707 88.1797 16.7614 87.782 16.7614H85.907V15.8239ZM91.1911 20V13.4545H92.1967V20H91.1911Z" fill="white"/>
</svg>
