<svg width="136" height="32" viewBox="0 0 136 32" fill="none" xmlns="http://www.w3.org/2000/svg">
<rect x="0.5" y="0.5" width="135" height="31" rx="15.5" stroke="#525252"/>
<path d="M30 14H18M18 13.2L18 18.8C18 19.9201 18 20.4802 18.1962 20.908C18.3688 21.2843 18.6441 21.5903 18.9828 21.782C19.3679 22 19.8719 22 20.88 22H27.12C28.1281 22 28.6321 22 29.0172 21.782C29.3559 21.5903 29.6312 21.2843 29.8038 20.908C30 20.4802 30 19.9201 30 18.8V13.2C30 12.0799 30 11.5198 29.8038 11.092C29.6312 10.7157 29.3559 10.4097 29.0172 10.218C28.6321 10 28.1281 10 27.12 10L20.88 10C19.8719 10 19.3679 10 18.9828 10.218C18.6441 10.4097 18.3688 10.7157 18.1962 11.092C18 11.5198 18 12.0799 18 13.2Z" stroke="white" stroke-linecap="round" stroke-linejoin="round"/>
<path d="M37.0568 20V11.2727H38.1136V19.0625H42.1705V20H37.0568ZM45.5966 20.1534C45.1818 20.1534 44.8054 20.0753 44.4673 19.919C44.1293 19.7599 43.8608 19.5312 43.6619 19.233C43.4631 18.9318 43.3636 18.5682 43.3636 18.142C43.3636 17.767 43.4375 17.4631 43.5852 17.2301C43.733 16.9943 43.9304 16.8097 44.1776 16.6761C44.4247 16.5426 44.6974 16.4432 44.9957 16.3778C45.2969 16.3097 45.5994 16.2557 45.9034 16.2159C46.3011 16.1648 46.6236 16.1264 46.8707 16.1009C47.1207 16.0724 47.3026 16.0256 47.4162 15.9602C47.5327 15.8949 47.5909 15.7812 47.5909 15.6193V15.5852C47.5909 15.1648 47.4759 14.8381 47.2457 14.6051C47.0185 14.3722 46.6733 14.2557 46.2102 14.2557C45.7301 14.2557 45.3537 14.3608 45.081 14.571C44.8082 14.7812 44.6165 15.0057 44.5057 15.2443L43.5511 14.9034C43.7216 14.5057 43.9489 14.196 44.233 13.9744C44.5199 13.75 44.8324 13.5937 45.1705 13.5057C45.5114 13.4148 45.8466 13.3693 46.1761 13.3693C46.3864 13.3693 46.6278 13.3949 46.9006 13.446C47.1761 13.4943 47.4418 13.5952 47.6974 13.7486C47.956 13.902 48.1705 14.1335 48.3409 14.4432C48.5114 14.7528 48.5966 15.1676 48.5966 15.6875V20H47.5909V19.1136H47.5398C47.4716 19.2557 47.358 19.4077 47.1989 19.5696C47.0398 19.7315 46.8281 19.8693 46.5639 19.983C46.2997 20.0966 45.9773 20.1534 45.5966 20.1534ZM45.75 19.25C46.1477 19.25 46.483 19.1719 46.7557 19.0156C47.0313 18.8594 47.2386 18.6577 47.3778 18.4105C47.5199 18.1634 47.5909 17.9034 47.5909 17.6307V16.7102C47.5483 16.7614 47.4545 16.8082 47.3097 16.8509C47.1676 16.8906 47.0028 16.9261 46.8153 16.9574C46.6307 16.9858 46.4503 17.0114 46.2741 17.0341C46.1009 17.054 45.9602 17.071 45.8523 17.0852C45.5909 17.1193 45.3466 17.1747 45.1193 17.2514C44.8949 17.3253 44.7131 17.4375 44.5739 17.5881C44.4375 17.7358 44.3693 17.9375 44.3693 18.1932C44.3693 18.5426 44.4986 18.8068 44.7571 18.9858C45.0185 19.1619 45.3494 19.25 45.75 19.25ZM51.4379 16.0625V20H50.4322V13.4545H51.4038V14.4773H51.489C51.6424 14.1449 51.8754 13.8778 52.1879 13.6761C52.5004 13.4716 52.9038 13.3693 53.3981 13.3693C53.8413 13.3693 54.229 13.4602 54.5614 13.642C54.8938 13.821 55.1523 14.0938 55.337 14.4602C55.5217 14.8239 55.614 15.2841 55.614 15.8409V20H54.6083V15.9091C54.6083 15.3949 54.4748 14.9943 54.2077 14.7074C53.9407 14.4176 53.5742 14.2727 53.1083 14.2727C52.7873 14.2727 52.5004 14.3423 52.2475 14.4815C51.9975 14.6207 51.8001 14.8239 51.6552 15.0909C51.5103 15.358 51.4379 15.6818 51.4379 16.0625ZM59.9233 20.1364C59.3778 20.1364 58.8963 19.9986 58.4787 19.723C58.0611 19.4446 57.7344 19.0526 57.4986 18.5469C57.2628 18.0384 57.1449 17.4375 57.1449 16.7443C57.1449 16.0568 57.2628 15.4602 57.4986 14.9545C57.7344 14.4489 58.0625 14.0582 58.483 13.7827C58.9034 13.5071 59.3892 13.3693 59.9403 13.3693C60.3665 13.3693 60.7031 13.4403 60.9503 13.5824C61.2003 13.7216 61.3906 13.8807 61.5213 14.0597C61.6548 14.2358 61.7585 14.3807 61.8324 14.4943H61.9176V11.2727H62.9233V20H61.9517V18.9943H61.8324C61.7585 19.1136 61.6534 19.2642 61.517 19.446C61.3807 19.625 61.1861 19.7855 60.9332 19.9276C60.6804 20.0668 60.3438 20.1364 59.9233 20.1364ZM60.0597 19.233C60.4631 19.233 60.804 19.1278 61.0824 18.9176C61.3608 18.7045 61.5724 18.4105 61.7173 18.0355C61.8622 17.6577 61.9347 17.2216 61.9347 16.7273C61.9347 16.2386 61.8636 15.8111 61.7216 15.4446C61.5795 15.0753 61.3693 14.7884 61.0909 14.5838C60.8125 14.3764 60.4688 14.2727 60.0597 14.2727C59.6335 14.2727 59.2784 14.3821 58.9943 14.6009C58.7131 14.8168 58.5014 15.1108 58.3594 15.483C58.2202 15.8523 58.1506 16.267 58.1506 16.7273C58.1506 17.1932 58.2216 17.6165 58.3636 17.9972C58.5085 18.375 58.7216 18.6761 59.0028 18.9006C59.2869 19.1222 59.6392 19.233 60.0597 19.233ZM64.9048 20V13.4545H65.9105V20H64.9048ZM65.4162 12.3636C65.2202 12.3636 65.0511 12.2969 64.9091 12.1634C64.7699 12.0298 64.7003 11.8693 64.7003 11.6818C64.7003 11.4943 64.7699 11.3338 64.9091 11.2003C65.0511 11.0668 65.2202 11 65.4162 11C65.6122 11 65.7798 11.0668 65.919 11.2003C66.0611 11.3338 66.1321 11.4943 66.1321 11.6818C66.1321 11.8693 66.0611 12.0298 65.919 12.1634C65.7798 12.2969 65.6122 12.3636 65.4162 12.3636ZM68.7582 16.0625V20H67.7525V13.4545H68.7241V14.4773H68.8093C68.9627 14.1449 69.1957 13.8778 69.5082 13.6761C69.8207 13.4716 70.2241 13.3693 70.7184 13.3693C71.1616 13.3693 71.5494 13.4602 71.8817 13.642C72.2141 13.821 72.4727 14.0938 72.6573 14.4602C72.842 14.8239 72.9343 15.2841 72.9343 15.8409V20H71.9286V15.9091C71.9286 15.3949 71.7951 14.9943 71.5281 14.7074C71.261 14.4176 70.8945 14.2727 70.4286 14.2727C70.1076 14.2727 69.8207 14.3423 69.5678 14.4815C69.3178 14.6207 69.1204 14.8239 68.9755 15.0909C68.8306 15.358 68.7582 15.6818 68.7582 16.0625ZM77.4141 22.5909C76.9283 22.5909 76.5107 22.5284 76.1612 22.4034C75.8118 22.2812 75.5206 22.1193 75.2876 21.9176C75.0575 21.7188 74.8743 21.5057 74.7379 21.2784L75.5391 20.7159C75.63 20.8352 75.745 20.9716 75.8842 21.125C76.0234 21.2812 76.2138 21.4162 76.4553 21.5298C76.6996 21.6463 77.0192 21.7045 77.4141 21.7045C77.9425 21.7045 78.3786 21.5767 78.7223 21.321C79.0661 21.0653 79.2379 20.6648 79.2379 20.1193V18.7898H79.1527C79.0788 18.9091 78.9737 19.0568 78.8374 19.233C78.7038 19.4062 78.5107 19.5611 78.2578 19.6974C78.0078 19.831 77.6697 19.8977 77.2436 19.8977C76.7152 19.8977 76.2408 19.7727 75.8203 19.5227C75.4027 19.2727 75.0717 18.9091 74.8274 18.4318C74.5859 17.9545 74.4652 17.375 74.4652 16.6932C74.4652 16.0227 74.5831 15.4389 74.8189 14.9418C75.0547 14.4418 75.3828 14.0554 75.8033 13.7827C76.2237 13.5071 76.7095 13.3693 77.2607 13.3693C77.6868 13.3693 78.0249 13.4403 78.2749 13.5824C78.5277 13.7216 78.7209 13.8807 78.8544 14.0597C78.9908 14.2358 79.0959 14.3807 79.1697 14.4943H79.272V13.4545H80.2436V20.1875C80.2436 20.75 80.1158 21.2074 79.8601 21.5597C79.6072 21.9148 79.2663 22.1747 78.8374 22.3395C78.4112 22.5071 77.9368 22.5909 77.4141 22.5909ZM77.38 18.9943C77.7834 18.9943 78.1243 18.902 78.4027 18.7173C78.6811 18.5327 78.8928 18.267 79.0376 17.9205C79.1825 17.5739 79.255 17.1591 79.255 16.6761C79.255 16.2045 79.1839 15.7884 79.0419 15.4276C78.8999 15.0668 78.6896 14.7841 78.4112 14.5795C78.1328 14.375 77.7891 14.2727 77.38 14.2727C76.9538 14.2727 76.5987 14.3807 76.3146 14.5966C76.0334 14.8125 75.8217 15.1023 75.6797 15.4659C75.5405 15.8295 75.4709 16.233 75.4709 16.6761C75.4709 17.1307 75.5419 17.5327 75.6839 17.8821C75.8288 18.2287 76.0419 18.5014 76.3232 18.7003C76.6072 18.8963 76.9595 18.9943 77.38 18.9943ZM85.5959 20V11.2727H88.5447C89.2294 11.2727 89.7891 11.3963 90.2237 11.6435C90.6612 11.8878 90.9851 12.2188 91.1953 12.6364C91.4055 13.054 91.5107 13.5199 91.5107 14.0341C91.5107 14.5483 91.4055 15.0156 91.1953 15.4361C90.9879 15.8565 90.6669 16.1918 90.2322 16.4418C89.7976 16.6889 89.2408 16.8125 88.5618 16.8125H86.4482V15.875H88.5277C88.9964 15.875 89.3729 15.794 89.657 15.6321C89.9411 15.4702 90.147 15.2514 90.2749 14.9759C90.4055 14.6974 90.4709 14.3835 90.4709 14.0341C90.4709 13.6847 90.4055 13.3722 90.2749 13.0966C90.147 12.821 89.9396 12.6051 89.6527 12.4489C89.3658 12.2898 88.9851 12.2102 88.5107 12.2102H86.6527V20H85.5959ZM95.0028 20.1534C94.5881 20.1534 94.2116 20.0753 93.8736 19.919C93.5355 19.7599 93.267 19.5312 93.0682 19.233C92.8693 18.9318 92.7699 18.5682 92.7699 18.142C92.7699 17.767 92.8438 17.4631 92.9915 17.2301C93.1392 16.9943 93.3366 16.8097 93.5838 16.6761C93.831 16.5426 94.1037 16.4432 94.402 16.3778C94.7031 16.3097 95.0057 16.2557 95.3097 16.2159C95.7074 16.1648 96.0298 16.1264 96.277 16.1009C96.527 16.0724 96.7088 16.0256 96.8224 15.9602C96.9389 15.8949 96.9972 15.7812 96.9972 15.6193V15.5852C96.9972 15.1648 96.8821 14.8381 96.652 14.6051C96.4247 14.3722 96.0795 14.2557 95.6165 14.2557C95.1364 14.2557 94.7599 14.3608 94.4872 14.571C94.2145 14.7812 94.0227 15.0057 93.9119 15.2443L92.9574 14.9034C93.1278 14.5057 93.3551 14.196 93.6392 13.9744C93.9261 13.75 94.2386 13.5937 94.5767 13.5057C94.9176 13.4148 95.2528 13.3693 95.5824 13.3693C95.7926 13.3693 96.0341 13.3949 96.3068 13.446C96.5824 13.4943 96.848 13.5952 97.1037 13.7486C97.3622 13.902 97.5767 14.1335 97.7472 14.4432C97.9176 14.7528 98.0028 15.1676 98.0028 15.6875V20H96.9972V19.1136H96.946C96.8778 19.2557 96.7642 19.4077 96.6051 19.5696C96.446 19.7315 96.2344 19.8693 95.9702 19.983C95.706 20.0966 95.3835 20.1534 95.0028 20.1534ZM95.1562 19.25C95.554 19.25 95.8892 19.1719 96.1619 19.0156C96.4375 18.8594 96.6449 18.6577 96.7841 18.4105C96.9261 18.1634 96.9972 17.9034 96.9972 17.6307V16.7102C96.9545 16.7614 96.8608 16.8082 96.7159 16.8509C96.5739 16.8906 96.4091 16.9261 96.2216 16.9574C96.0369 16.9858 95.8565 17.0114 95.6804 17.0341C95.5071 17.054 95.3665 17.071 95.2585 17.0852C94.9972 17.1193 94.7528 17.1747 94.5256 17.2514C94.3011 17.3253 94.1193 17.4375 93.9801 17.5881C93.8438 17.7358 93.7756 17.9375 93.7756 18.1932C93.7756 18.5426 93.9048 18.8068 94.1634 18.9858C94.4247 19.1619 94.7557 19.25 95.1562 19.25ZM102.48 22.5909C101.995 22.5909 101.577 22.5284 101.228 22.4034C100.878 22.2812 100.587 22.1193 100.354 21.9176C100.124 21.7188 99.9407 21.5057 99.8043 21.2784L100.605 20.7159C100.696 20.8352 100.811 20.9716 100.951 21.125C101.09 21.2812 101.28 21.4162 101.522 21.5298C101.766 21.6463 102.086 21.7045 102.48 21.7045C103.009 21.7045 103.445 21.5767 103.789 21.321C104.132 21.0653 104.304 20.6648 104.304 20.1193V18.7898H104.219C104.145 18.9091 104.04 19.0568 103.904 19.233C103.77 19.4062 103.577 19.5611 103.324 19.6974C103.074 19.831 102.736 19.8977 102.31 19.8977C101.782 19.8977 101.307 19.7727 100.887 19.5227C100.469 19.2727 100.138 18.9091 99.8938 18.4318C99.6523 17.9545 99.5316 17.375 99.5316 16.6932C99.5316 16.0227 99.6495 15.4389 99.8853 14.9418C100.121 14.4418 100.449 14.0554 100.87 13.7827C101.29 13.5071 101.776 13.3693 102.327 13.3693C102.753 13.3693 103.091 13.4403 103.341 13.5824C103.594 13.7216 103.787 13.8807 103.921 14.0597C104.057 14.2358 104.162 14.3807 104.236 14.4943H104.338V13.4545H105.31V20.1875C105.31 20.75 105.182 21.2074 104.926 21.5597C104.674 21.9148 104.333 22.1747 103.904 22.3395C103.478 22.5071 103.003 22.5909 102.48 22.5909ZM102.446 18.9943C102.85 18.9943 103.191 18.902 103.469 18.7173C103.748 18.5327 103.959 18.267 104.104 17.9205C104.249 17.5739 104.321 17.1591 104.321 16.6761C104.321 16.2045 104.25 15.7884 104.108 15.4276C103.966 15.0668 103.756 14.7841 103.478 14.5795C103.199 14.375 102.855 14.2727 102.446 14.2727C102.02 14.2727 101.665 14.3807 101.381 14.5966C101.1 14.8125 100.888 15.1023 100.746 15.4659C100.607 15.8295 100.537 16.233 100.537 16.6761C100.537 17.1307 100.608 17.5327 100.75 17.8821C100.895 18.2287 101.108 18.5014 101.39 18.7003C101.674 18.8963 102.026 18.9943 102.446 18.9943ZM109.895 20.1364C109.265 20.1364 108.721 19.9972 108.263 19.7188C107.809 19.4375 107.458 19.0455 107.211 18.5426C106.966 18.0369 106.844 17.4489 106.844 16.7784C106.844 16.108 106.966 15.517 107.211 15.0057C107.458 14.4915 107.801 14.0909 108.242 13.804C108.685 13.5142 109.202 13.3693 109.793 13.3693C110.134 13.3693 110.471 13.4261 110.803 13.5398C111.135 13.6534 111.438 13.8381 111.711 14.0938C111.983 14.3466 112.201 14.6818 112.363 15.0994C112.525 15.517 112.605 16.0312 112.605 16.642V17.0682H107.56V16.1989H111.583C111.583 15.8295 111.509 15.5 111.361 15.2102C111.216 14.9205 111.009 14.6918 110.739 14.5241C110.472 14.3565 110.157 14.2727 109.793 14.2727C109.392 14.2727 109.046 14.3722 108.753 14.571C108.463 14.767 108.24 15.0227 108.084 15.3381C107.928 15.6534 107.85 15.9915 107.85 16.3523V16.9318C107.85 17.4261 107.935 17.8452 108.105 18.1889C108.279 18.5298 108.519 18.7898 108.826 18.9688C109.132 19.1449 109.489 19.233 109.895 19.233C110.159 19.233 110.398 19.196 110.611 19.1222C110.827 19.0455 111.013 18.9318 111.169 18.7812C111.326 18.6278 111.446 18.4375 111.532 18.2102L112.503 18.483C112.401 18.8125 112.229 19.1023 111.988 19.3523C111.746 19.5994 111.448 19.7926 111.093 19.9318C110.738 20.0682 110.338 20.1364 109.895 20.1364ZM118.772 14.9205L117.868 15.1761C117.811 15.0256 117.728 14.8793 117.617 14.7372C117.509 14.5923 117.361 14.473 117.174 14.3793C116.986 14.2855 116.746 14.2386 116.453 14.2386C116.053 14.2386 115.719 14.331 115.452 14.5156C115.188 14.6974 115.056 14.929 115.056 15.2102C115.056 15.4602 115.147 15.6577 115.328 15.8026C115.51 15.9474 115.794 16.0682 116.181 16.1648L117.152 16.4034C117.738 16.5455 118.174 16.7628 118.461 17.0554C118.748 17.3452 118.891 17.7187 118.891 18.1761C118.891 18.5511 118.783 18.8864 118.567 19.1818C118.354 19.4773 118.056 19.7102 117.672 19.8807C117.289 20.0511 116.843 20.1364 116.334 20.1364C115.667 20.1364 115.114 19.9915 114.676 19.7017C114.239 19.4119 113.962 18.9886 113.846 18.4318L114.8 18.1932C114.891 18.5455 115.063 18.8097 115.316 18.9858C115.571 19.1619 115.905 19.25 116.317 19.25C116.786 19.25 117.158 19.1506 117.434 18.9517C117.712 18.75 117.851 18.5085 117.851 18.2273C117.851 18 117.772 17.8097 117.613 17.6562C117.453 17.5 117.209 17.3835 116.88 17.3068L115.789 17.0511C115.189 16.9091 114.749 16.6889 114.468 16.3906C114.189 16.0895 114.05 15.7131 114.05 15.2614C114.05 14.892 114.154 14.5653 114.361 14.2812C114.571 13.9972 114.857 13.7741 115.218 13.6122C115.581 13.4503 115.993 13.3693 116.453 13.3693C117.101 13.3693 117.61 13.5114 117.979 13.7955C118.351 14.0795 118.615 14.4545 118.772 14.9205Z" fill="white"/>
</svg>
