<svg width="121" height="32" viewBox="0 0 121 32" fill="none" xmlns="http://www.w3.org/2000/svg">
<rect x="0.5" y="0.5" width="120" height="31" rx="15.5" stroke="#525252"/>
<path d="M21.3333 16.6667V19.3333M26.6667 15.3333V19.3333M24 12.6667V19.3333M21.2 22H26.8C27.9201 22 28.4802 22 28.908 21.782C29.2843 21.5903 29.5903 21.2843 29.782 20.908C30 20.4802 30 19.9201 30 18.8V13.2C30 12.0799 30 11.5198 29.782 11.092C29.5903 10.7157 29.2843 10.4097 28.908 10.218C28.4802 10 27.9201 10 26.8 10H21.2C20.0799 10 19.5198 10 19.092 10.218C18.7157 10.4097 18.4097 10.7157 18.218 11.092C18 11.5198 18 12.0799 18 13.2V18.8C18 19.9201 18 20.4802 18.218 20.908C18.4097 21.2843 18.7157 21.5903 19.092 21.782C19.5198 22 20.0799 22 21.2 22Z" stroke="white" stroke-linecap="round" stroke-linejoin="round"/>
<path d="M39.75 20H37.0568V11.2727H39.8693C40.7159 11.2727 41.4403 11.4474 42.0426 11.7969C42.6449 12.1435 43.1065 12.642 43.4276 13.2926C43.7486 13.9403 43.9091 14.7159 43.9091 15.6193C43.9091 16.5284 43.7472 17.3111 43.4233 17.9673C43.0994 18.6207 42.6278 19.1236 42.0085 19.4759C41.3892 19.8253 40.6364 20 39.75 20ZM38.1136 19.0625H39.6818C40.4034 19.0625 41.0014 18.9233 41.4759 18.6449C41.9503 18.3665 42.304 17.9702 42.5369 17.456C42.7699 16.9418 42.8864 16.3295 42.8864 15.6193C42.8864 14.9148 42.7713 14.3082 42.5412 13.7997C42.3111 13.2884 41.9673 12.8963 41.5099 12.6236C41.0526 12.348 40.483 12.2102 39.8011 12.2102H38.1136V19.0625ZM47.4716 20.1534C47.0568 20.1534 46.6804 20.0753 46.3423 19.919C46.0043 19.7599 45.7358 19.5312 45.5369 19.233C45.3381 18.9318 45.2386 18.5682 45.2386 18.142C45.2386 17.767 45.3125 17.4631 45.4602 17.2301C45.608 16.9943 45.8054 16.8097 46.0526 16.6761C46.2997 16.5426 46.5724 16.4432 46.8707 16.3778C47.1719 16.3097 47.4744 16.2557 47.7784 16.2159C48.1761 16.1648 48.4986 16.1264 48.7457 16.1009C48.9957 16.0724 49.1776 16.0256 49.2912 15.9602C49.4077 15.8949 49.4659 15.7812 49.4659 15.6193V15.5852C49.4659 15.1648 49.3509 14.8381 49.1207 14.6051C48.8935 14.3722 48.5483 14.2557 48.0852 14.2557C47.6051 14.2557 47.2287 14.3608 46.956 14.571C46.6832 14.7812 46.4915 15.0057 46.3807 15.2443L45.4261 14.9034C45.5966 14.5057 45.8239 14.196 46.108 13.9744C46.3949 13.75 46.7074 13.5937 47.0455 13.5057C47.3864 13.4148 47.7216 13.3693 48.0511 13.3693C48.2614 13.3693 48.5028 13.3949 48.7756 13.446C49.0511 13.4943 49.3168 13.5952 49.5724 13.7486C49.831 13.902 50.0455 14.1335 50.2159 14.4432C50.3864 14.7528 50.4716 15.1676 50.4716 15.6875V20H49.4659V19.1136H49.4148C49.3466 19.2557 49.233 19.4077 49.0739 19.5696C48.9148 19.7315 48.7031 19.8693 48.4389 19.983C48.1747 20.0966 47.8523 20.1534 47.4716 20.1534ZM47.625 19.25C48.0227 19.25 48.358 19.1719 48.6307 19.0156C48.9063 18.8594 49.1136 18.6577 49.2528 18.4105C49.3949 18.1634 49.4659 17.9034 49.4659 17.6307V16.7102C49.4233 16.7614 49.3295 16.8082 49.1847 16.8509C49.0426 16.8906 48.8778 16.9261 48.6903 16.9574C48.5057 16.9858 48.3253 17.0114 48.1491 17.0341C47.9759 17.054 47.8352 17.071 47.7273 17.0852C47.4659 17.1193 47.2216 17.1747 46.9943 17.2514C46.7699 17.3253 46.5881 17.4375 46.4489 17.5881C46.3125 17.7358 46.2443 17.9375 46.2443 18.1932C46.2443 18.5426 46.3736 18.8068 46.6321 18.9858C46.8935 19.1619 47.2244 19.25 47.625 19.25ZM56.9435 14.9205L56.0401 15.1761C55.9833 15.0256 55.8995 14.8793 55.7887 14.7372C55.6808 14.5923 55.533 14.473 55.3455 14.3793C55.158 14.2855 54.918 14.2386 54.6254 14.2386C54.2248 14.2386 53.891 14.331 53.6239 14.5156C53.3597 14.6974 53.2276 14.929 53.2276 15.2102C53.2276 15.4602 53.3185 15.6577 53.5004 15.8026C53.6822 15.9474 53.9663 16.0682 54.3526 16.1648L55.3242 16.4034C55.9094 16.5455 56.3455 16.7628 56.6325 17.0554C56.9194 17.3452 57.0629 17.7187 57.0629 18.1761C57.0629 18.5511 56.9549 18.8864 56.739 19.1818C56.5259 19.4773 56.2276 19.7102 55.8441 19.8807C55.4606 20.0511 55.0146 20.1364 54.506 20.1364C53.8384 20.1364 53.2859 19.9915 52.8484 19.7017C52.4109 19.4119 52.1339 18.9886 52.0174 18.4318L52.9719 18.1932C53.0629 18.5455 53.2347 18.8097 53.4876 18.9858C53.7433 19.1619 54.0771 19.25 54.489 19.25C54.9577 19.25 55.3299 19.1506 55.6055 18.9517C55.8839 18.75 56.0231 18.5085 56.0231 18.2273C56.0231 18 55.9435 17.8097 55.7844 17.6562C55.6254 17.5 55.381 17.3835 55.0515 17.3068L53.9606 17.0511C53.3612 16.9091 52.9208 16.6889 52.6396 16.3906C52.3612 16.0895 52.2219 15.7131 52.2219 15.2614C52.2219 14.892 52.3256 14.5653 52.533 14.2812C52.7433 13.9972 53.0288 13.7741 53.3896 13.6122C53.7532 13.4503 54.1651 13.3693 54.6254 13.3693C55.2731 13.3693 55.7816 13.5114 56.1509 13.7955C56.5231 14.0795 56.7873 14.4545 56.9435 14.9205ZM59.5824 16.0625V20H58.5767V11.2727H59.5824V14.4773H59.6676C59.821 14.1392 60.0511 13.8707 60.358 13.6719C60.6676 13.4702 61.0795 13.3693 61.5938 13.3693C62.0398 13.3693 62.4304 13.4588 62.7656 13.6378C63.1009 13.8139 63.3608 14.0852 63.5455 14.4517C63.733 14.8153 63.8267 15.2784 63.8267 15.8409V20H62.821V15.9091C62.821 15.3892 62.6861 14.9872 62.4162 14.7031C62.1491 14.4162 61.7784 14.2727 61.304 14.2727C60.9744 14.2727 60.679 14.3423 60.4176 14.4815C60.1591 14.6207 59.9545 14.8239 59.804 15.0909C59.6563 15.358 59.5824 15.6818 59.5824 16.0625ZM65.8029 20V11.2727H66.8086V14.4943H66.8938C66.9677 14.3807 67.07 14.2358 67.2006 14.0597C67.3342 13.8807 67.5245 13.7216 67.7717 13.5824C68.0217 13.4403 68.3597 13.3693 68.7859 13.3693C69.337 13.3693 69.8228 13.5071 70.2433 13.7827C70.6637 14.0582 70.9918 14.4489 71.2276 14.9545C71.4634 15.4602 71.5813 16.0568 71.5813 16.7443C71.5813 17.4375 71.4634 18.0384 71.2276 18.5469C70.9918 19.0526 70.6651 19.4446 70.2475 19.723C69.8299 19.9986 69.3484 20.1364 68.8029 20.1364C68.3825 20.1364 68.0458 20.0668 67.793 19.9276C67.5401 19.7855 67.3455 19.625 67.2092 19.446C67.0728 19.2642 66.9677 19.1136 66.8938 18.9943H66.7745V20H65.8029ZM66.7915 16.7273C66.7915 17.2216 66.864 17.6577 67.0089 18.0355C67.1538 18.4105 67.3654 18.7045 67.6438 18.9176C67.9222 19.1278 68.2631 19.233 68.6665 19.233C69.087 19.233 69.4379 19.1222 69.7191 18.9006C70.0032 18.6761 70.2163 18.375 70.3583 17.9972C70.5032 17.6165 70.5756 17.1932 70.5756 16.7273C70.5756 16.267 70.5046 15.8523 70.3626 15.483C70.2234 15.1108 70.0117 14.8168 69.7276 14.6009C69.4464 14.3821 69.0927 14.2727 68.6665 14.2727C68.2575 14.2727 67.9137 14.3764 67.6353 14.5838C67.3569 14.7884 67.1467 15.0753 67.0046 15.4446C66.8626 15.8111 66.7915 16.2386 66.7915 16.7273ZM75.7788 20.1364C75.1879 20.1364 74.6694 19.9957 74.2234 19.7145C73.7802 19.4332 73.4336 19.0398 73.1836 18.5341C72.9364 18.0284 72.8129 17.4375 72.8129 16.7614C72.8129 16.0795 72.9364 15.4844 73.1836 14.9759C73.4336 14.4673 73.7802 14.0724 74.2234 13.7912C74.6694 13.5099 75.1879 13.3693 75.7788 13.3693C76.3697 13.3693 76.8867 13.5099 77.3299 13.7912C77.7759 14.0724 78.1225 14.4673 78.3697 14.9759C78.6197 15.4844 78.7447 16.0795 78.7447 16.7614C78.7447 17.4375 78.6197 18.0284 78.3697 18.5341C78.1225 19.0398 77.7759 19.4332 77.3299 19.7145C76.8867 19.9957 76.3697 20.1364 75.7788 20.1364ZM75.7788 19.233C76.2276 19.233 76.5969 19.1179 76.8867 18.8878C77.1765 18.6577 77.391 18.3551 77.5302 17.9801C77.6694 17.6051 77.739 17.1989 77.739 16.7614C77.739 16.3239 77.6694 15.9162 77.5302 15.5384C77.391 15.1605 77.1765 14.8551 76.8867 14.6222C76.5969 14.3892 76.2276 14.2727 75.7788 14.2727C75.3299 14.2727 74.9606 14.3892 74.6708 14.6222C74.381 14.8551 74.1665 15.1605 74.0273 15.5384C73.8881 15.9162 73.8185 16.3239 73.8185 16.7614C73.8185 17.1989 73.8881 17.6051 74.0273 17.9801C74.1665 18.3551 74.381 18.6577 74.6708 18.8878C74.9606 19.1179 75.3299 19.233 75.7788 19.233ZM82.206 20.1534C81.7912 20.1534 81.4148 20.0753 81.0767 19.919C80.7386 19.7599 80.4702 19.5312 80.2713 19.233C80.0724 18.9318 79.973 18.5682 79.973 18.142C79.973 17.767 80.0469 17.4631 80.1946 17.2301C80.3423 16.9943 80.5398 16.8097 80.7869 16.6761C81.0341 16.5426 81.3068 16.4432 81.6051 16.3778C81.9063 16.3097 82.2088 16.2557 82.5128 16.2159C82.9105 16.1648 83.233 16.1264 83.4801 16.1009C83.7301 16.0724 83.9119 16.0256 84.0256 15.9602C84.142 15.8949 84.2003 15.7812 84.2003 15.6193V15.5852C84.2003 15.1648 84.0852 14.8381 83.8551 14.6051C83.6278 14.3722 83.2827 14.2557 82.8196 14.2557C82.3395 14.2557 81.9631 14.3608 81.6903 14.571C81.4176 14.7812 81.2259 15.0057 81.1151 15.2443L80.1605 14.9034C80.331 14.5057 80.5582 14.196 80.8423 13.9744C81.1293 13.75 81.4418 13.5937 81.7798 13.5057C82.1207 13.4148 82.456 13.3693 82.7855 13.3693C82.9957 13.3693 83.2372 13.3949 83.5099 13.446C83.7855 13.4943 84.0511 13.5952 84.3068 13.7486C84.5653 13.902 84.7798 14.1335 84.9503 14.4432C85.1207 14.7528 85.206 15.1676 85.206 15.6875V20H84.2003V19.1136H84.1491C84.081 19.2557 83.9673 19.4077 83.8082 19.5696C83.6491 19.7315 83.4375 19.8693 83.1733 19.983C82.9091 20.0966 82.5866 20.1534 82.206 20.1534ZM82.3594 19.25C82.7571 19.25 83.0923 19.1719 83.3651 19.0156C83.6406 18.8594 83.848 18.6577 83.9872 18.4105C84.1293 18.1634 84.2003 17.9034 84.2003 17.6307V16.7102C84.1577 16.7614 84.0639 16.8082 83.919 16.8509C83.777 16.8906 83.6122 16.9261 83.4247 16.9574C83.2401 16.9858 83.0597 17.0114 82.8835 17.0341C82.7102 17.054 82.5696 17.071 82.4616 17.0852C82.2003 17.1193 81.956 17.1747 81.7287 17.2514C81.5043 17.3253 81.3224 17.4375 81.1832 17.5881C81.0469 17.7358 80.9787 17.9375 80.9787 18.1932C80.9787 18.5426 81.108 18.8068 81.3665 18.9858C81.6278 19.1619 81.9588 19.25 82.3594 19.25ZM87.0415 20V13.4545H88.0131V14.4432H88.0813C88.2006 14.1193 88.4165 13.8565 88.729 13.6548C89.0415 13.4531 89.3938 13.3523 89.7859 13.3523C89.8597 13.3523 89.9521 13.3537 90.0629 13.3565C90.1737 13.3594 90.2575 13.3636 90.3143 13.3693V14.392C90.2802 14.3835 90.2021 14.3707 90.0799 14.3537C89.9606 14.3338 89.8342 14.3239 89.7006 14.3239C89.3825 14.3239 89.0984 14.3906 88.8484 14.5241C88.6012 14.6548 88.4052 14.8366 88.2603 15.0696C88.1183 15.2997 88.0472 15.5625 88.0472 15.858V20H87.0415ZM93.7788 20.1364C93.2333 20.1364 92.7518 19.9986 92.3342 19.723C91.9165 19.4446 91.5898 19.0526 91.354 18.5469C91.1183 18.0384 91.0004 17.4375 91.0004 16.7443C91.0004 16.0568 91.1183 15.4602 91.354 14.9545C91.5898 14.4489 91.918 14.0582 92.3384 13.7827C92.7589 13.5071 93.2447 13.3693 93.7958 13.3693C94.2219 13.3693 94.5586 13.4403 94.8058 13.5824C95.0558 13.7216 95.2461 13.8807 95.3768 14.0597C95.5103 14.2358 95.614 14.3807 95.6879 14.4943H95.7731V11.2727H96.7788V20H95.8072V18.9943H95.6879C95.614 19.1136 95.5089 19.2642 95.3725 19.446C95.2362 19.625 95.0415 19.7855 94.7887 19.9276C94.5359 20.0668 94.1992 20.1364 93.7788 20.1364ZM93.9151 19.233C94.3185 19.233 94.6594 19.1278 94.9379 18.9176C95.2163 18.7045 95.4279 18.4105 95.5728 18.0355C95.7177 17.6577 95.7901 17.2216 95.7901 16.7273C95.7901 16.2386 95.7191 15.8111 95.5771 15.4446C95.435 15.0753 95.2248 14.7884 94.9464 14.5838C94.668 14.3764 94.3242 14.2727 93.9151 14.2727C93.489 14.2727 93.1339 14.3821 92.8498 14.6009C92.5685 14.8168 92.3569 15.1108 92.2148 15.483C92.0756 15.8523 92.006 16.267 92.006 16.7273C92.006 17.1932 92.0771 17.6165 92.2191 17.9972C92.364 18.375 92.5771 18.6761 92.8583 18.9006C93.1424 19.1222 93.4947 19.233 93.9151 19.233ZM103.397 14.9205L102.493 15.1761C102.436 15.0256 102.353 14.8793 102.242 14.7372C102.134 14.5923 101.986 14.473 101.799 14.3793C101.611 14.2855 101.371 14.2386 101.078 14.2386C100.678 14.2386 100.344 14.331 100.077 14.5156C99.8129 14.6974 99.6808 14.929 99.6808 15.2102C99.6808 15.4602 99.7717 15.6577 99.9535 15.8026C100.135 15.9474 100.419 16.0682 100.806 16.1648L101.777 16.4034C102.363 16.5455 102.799 16.7628 103.086 17.0554C103.373 17.3452 103.516 17.7187 103.516 18.1761C103.516 18.5511 103.408 18.8864 103.192 19.1818C102.979 19.4773 102.681 19.7102 102.297 19.8807C101.914 20.0511 101.468 20.1364 100.959 20.1364C100.292 20.1364 99.739 19.9915 99.3015 19.7017C98.864 19.4119 98.587 18.9886 98.4705 18.4318L99.4251 18.1932C99.516 18.5455 99.6879 18.8097 99.9407 18.9858C100.196 19.1619 100.53 19.25 100.942 19.25C101.411 19.25 101.783 19.1506 102.059 18.9517C102.337 18.75 102.476 18.5085 102.476 18.2273C102.476 18 102.397 17.8097 102.238 17.6562C102.078 17.5 101.834 17.3835 101.505 17.3068L100.414 17.0511C99.8143 16.9091 99.3739 16.6889 99.0927 16.3906C98.8143 16.0895 98.6751 15.7131 98.6751 15.2614C98.6751 14.892 98.7788 14.5653 98.9862 14.2812C99.1964 13.9972 99.4819 13.7741 99.8427 13.6122C100.206 13.4503 100.618 13.3693 101.078 13.3693C101.726 13.3693 102.235 13.5114 102.604 13.7955C102.976 14.0795 103.24 14.4545 103.397 14.9205Z" fill="white"/>
</svg>
