<svg width="78" height="32" viewBox="0 0 78 32" fill="none" xmlns="http://www.w3.org/2000/svg">
<rect x="0.5" y="0.5" width="77" height="31" rx="15.5" stroke="#525252"/>
<g clip-path="url(#clip0_655_122)">
<path d="M24.1429 8.85718V9.85718C24.1429 9.88245 24.1429 9.90624 24.1429 9.92863C24.1429 10.1259 23.983 10.2857 23.7857 10.2857V10.2857C23.7857 10.2857 23.4715 10.2857 23.0714 10.2857H20.9286C20.5285 10.2857 20.2143 10.2857 20.2143 10.2857V10.2857C20.017 10.2857 19.8571 10.1259 19.8571 9.92863C19.8571 9.90624 19.8571 9.88245 19.8571 9.85718V8.85718M19.2857 23.1429H24.7143C25.5144 23.1429 25.9144 23.1429 26.22 22.9872C26.4888 22.8502 26.7073 22.6317 26.8443 22.3629C27 22.0573 27 21.6573 27 20.8572V11.1429C27 10.3428 27 9.94278 26.8443 9.63719C26.7073 9.36839 26.4888 9.14984 26.22 9.01288C25.9144 8.85718 25.5144 8.85718 24.7143 8.85718H19.2857C18.4856 8.85718 18.0856 8.85718 17.78 9.01288C17.5112 9.14984 17.2927 9.36839 17.1557 9.63719C17 9.94278 17 10.3428 17 11.1429V20.8572C17 21.6573 17 22.0573 17.1557 22.3629C17.2927 22.6317 17.5112 22.8502 17.78 22.9872C18.0856 23.1429 18.4856 23.1429 19.2857 23.1429Z" stroke="white" stroke-linecap="round" stroke-linejoin="round"/>
<path d="M22 20.5H22.01M22.5 20.5C22.5 20.7761 22.2761 21 22 21C21.7239 21 21.5 20.7761 21.5 20.5C21.5 20.2239 21.7239 20 22 20C22.2761 20 22.5 20.2239 22.5 20.5Z" stroke="white" stroke-width="0.5" stroke-linecap="round" stroke-linejoin="round"/>
</g>
<path d="M33.4148 20H32.3068L35.5114 11.2727H36.6023L39.8068 20H38.6989L36.0909 12.6534H36.0227L33.4148 20ZM33.8239 16.5909H38.2898V17.5284H33.8239V16.5909ZM41.0298 22.4545V13.4545H42.0014V14.4943H42.1207C42.1946 14.3807 42.2969 14.2358 42.4276 14.0597C42.5611 13.8807 42.7514 13.7216 42.9986 13.5824C43.2486 13.4403 43.5866 13.3693 44.0128 13.3693C44.5639 13.3693 45.0497 13.5071 45.4702 13.7827C45.8906 14.0582 46.2188 14.4489 46.4545 14.9545C46.6903 15.4602 46.8082 16.0568 46.8082 16.7443C46.8082 17.4375 46.6903 18.0384 46.4545 18.5469C46.2188 19.0526 45.892 19.4446 45.4744 19.723C45.0568 19.9986 44.5753 20.1364 44.0298 20.1364C43.6094 20.1364 43.2727 20.0668 43.0199 19.9276C42.767 19.7855 42.5724 19.625 42.4361 19.446C42.2997 19.2642 42.1946 19.1136 42.1207 18.9943H42.0355V22.4545H41.0298ZM42.0185 16.7273C42.0185 17.2216 42.0909 17.6577 42.2358 18.0355C42.3807 18.4105 42.5923 18.7045 42.8707 18.9176C43.1491 19.1278 43.4901 19.233 43.8935 19.233C44.3139 19.233 44.6648 19.1222 44.946 18.9006C45.2301 18.6761 45.4432 18.375 45.5852 17.9972C45.7301 17.6165 45.8026 17.1932 45.8026 16.7273C45.8026 16.267 45.7315 15.8523 45.5895 15.483C45.4503 15.1108 45.2386 14.8168 44.9545 14.6009C44.6733 14.3821 44.3196 14.2727 43.8935 14.2727C43.4844 14.2727 43.1406 14.3764 42.8622 14.5838C42.5838 14.7884 42.3736 15.0753 42.2315 15.4446C42.0895 15.8111 42.0185 16.2386 42.0185 16.7273ZM48.3423 22.4545V13.4545H49.3139V14.4943H49.4332C49.5071 14.3807 49.6094 14.2358 49.7401 14.0597C49.8736 13.8807 50.0639 13.7216 50.3111 13.5824C50.5611 13.4403 50.8991 13.3693 51.3253 13.3693C51.8764 13.3693 52.3622 13.5071 52.7827 13.7827C53.2031 14.0582 53.5313 14.4489 53.767 14.9545C54.0028 15.4602 54.1207 16.0568 54.1207 16.7443C54.1207 17.4375 54.0028 18.0384 53.767 18.5469C53.5313 19.0526 53.2045 19.4446 52.7869 19.723C52.3693 19.9986 51.8878 20.1364 51.3423 20.1364C50.9219 20.1364 50.5852 20.0668 50.3324 19.9276C50.0795 19.7855 49.8849 19.625 49.7486 19.446C49.6122 19.2642 49.5071 19.1136 49.4332 18.9943H49.348V22.4545H48.3423ZM49.331 16.7273C49.331 17.2216 49.4034 17.6577 49.5483 18.0355C49.6932 18.4105 49.9048 18.7045 50.1832 18.9176C50.4616 19.1278 50.8026 19.233 51.206 19.233C51.6264 19.233 51.9773 19.1222 52.2585 18.9006C52.5426 18.6761 52.7557 18.375 52.8977 17.9972C53.0426 17.6165 53.1151 17.1932 53.1151 16.7273C53.1151 16.267 53.044 15.8523 52.902 15.483C52.7628 15.1108 52.5511 14.8168 52.267 14.6009C51.9858 14.3821 51.6321 14.2727 51.206 14.2727C50.7969 14.2727 50.4531 14.3764 50.1747 14.5838C49.8963 14.7884 49.6861 15.0753 49.544 15.4446C49.402 15.8111 49.331 16.2386 49.331 16.7273ZM60.2912 14.9205L59.3878 15.1761C59.331 15.0256 59.2472 14.8793 59.1364 14.7372C59.0284 14.5923 58.8807 14.473 58.6932 14.3793C58.5057 14.2855 58.2656 14.2386 57.973 14.2386C57.5724 14.2386 57.2386 14.331 56.9716 14.5156C56.7074 14.6974 56.5753 14.929 56.5753 15.2102C56.5753 15.4602 56.6662 15.6577 56.848 15.8026C57.0298 15.9474 57.3139 16.0682 57.7003 16.1648L58.6719 16.4034C59.2571 16.5455 59.6932 16.7628 59.9801 17.0554C60.267 17.3452 60.4105 17.7187 60.4105 18.1761C60.4105 18.5511 60.3026 18.8864 60.0866 19.1818C59.8736 19.4773 59.5753 19.7102 59.1918 19.8807C58.8082 20.0511 58.3622 20.1364 57.8537 20.1364C57.1861 20.1364 56.6335 19.9915 56.196 19.7017C55.7585 19.4119 55.4815 18.9886 55.3651 18.4318L56.3196 18.1932C56.4105 18.5455 56.5824 18.8097 56.8352 18.9858C57.0909 19.1619 57.4247 19.25 57.8366 19.25C58.3054 19.25 58.6776 19.1506 58.9531 18.9517C59.2315 18.75 59.3707 18.5085 59.3707 18.2273C59.3707 18 59.2912 17.8097 59.1321 17.6562C58.973 17.5 58.7287 17.3835 58.3991 17.3068L57.3082 17.0511C56.7088 16.9091 56.2685 16.6889 55.9872 16.3906C55.7088 16.0895 55.5696 15.7131 55.5696 15.2614C55.5696 14.892 55.6733 14.5653 55.8807 14.2812C56.0909 13.9972 56.3764 13.7741 56.7372 13.6122C57.1009 13.4503 57.5128 13.3693 57.973 13.3693C58.6207 13.3693 59.1293 13.5114 59.4986 13.7955C59.8707 14.0795 60.1349 14.4545 60.2912 14.9205Z" fill="white"/>
<defs>
<clipPath id="clip0_655_122">
<rect width="12" height="16" fill="white" transform="translate(16 8)"/>
</clipPath>
</defs>
</svg>
