<svg width="121" height="32" viewBox="0 0 121 32" fill="none" xmlns="http://www.w3.org/2000/svg">
<rect x="0.5" y="0.5" width="120" height="31" rx="15.5" stroke="#525252"/>
<path d="M24.1828 14.2V12.4C24.1828 11.0745 23.2055 10 22 10C20.7945 10 19.8172 11.0745 19.8172 12.4V14.2M17.4117 15.0112L17.0843 18.8512C16.9912 19.943 16.9447 20.4889 17.1094 20.9106C17.2542 21.281 17.5078 21.5872 17.8297 21.7803C18.1962 22 18.6949 22 19.6922 22H24.3078C25.3051 22 25.8038 22 26.1703 21.7803C26.4922 21.5872 26.7458 21.281 26.8906 20.9106C27.0553 20.4889 27.0088 19.943 26.9157 18.8512L26.5883 15.0112C26.5097 14.0892 26.4704 13.6282 26.2818 13.2797C26.1157 12.9728 25.8703 12.7271 25.5769 12.5739C25.2437 12.4 24.8225 12.4 23.9803 12.4L20.0197 12.4C19.1775 12.4 18.7563 12.4 18.4231 12.5739C18.1297 12.7271 17.8843 12.9728 17.7182 13.2797C17.5296 13.6282 17.4903 14.0892 17.4117 15.0112Z" stroke="white" stroke-linecap="round" stroke-linejoin="round"/>
<path d="M33.0568 20V11.2727H38.3239V12.2102H34.1136V15.1591H38.0511V16.0966H34.1136V19.0625H38.392V20H33.0568ZM43.8423 15.7898V16.7273H40.0241V15.7898H43.8423ZM48.271 20.1364C47.6573 20.1364 47.1289 19.9915 46.6857 19.7017C46.2425 19.4119 45.9016 19.0128 45.663 18.5043C45.4244 17.9957 45.305 17.4148 45.305 16.7614C45.305 16.0966 45.4272 15.5099 45.6715 15.0014C45.9187 14.4901 46.2624 14.0909 46.7028 13.804C47.146 13.5142 47.663 13.3693 48.2539 13.3693C48.7141 13.3693 49.1289 13.4545 49.4982 13.625C49.8675 13.7955 50.1701 14.0341 50.4059 14.3409C50.6417 14.6477 50.788 15.0057 50.8448 15.4148H49.8391C49.7624 15.1165 49.592 14.8523 49.3278 14.6222C49.0664 14.3892 48.7141 14.2727 48.271 14.2727C47.8789 14.2727 47.5352 14.375 47.2397 14.5795C46.9471 14.7812 46.7184 15.0668 46.5536 15.4361C46.3917 15.8026 46.3107 16.233 46.3107 16.7273C46.3107 17.233 46.3903 17.6733 46.5494 18.0483C46.7113 18.4233 46.9386 18.7145 47.2312 18.9219C47.5266 19.1293 47.8732 19.233 48.271 19.233C48.5323 19.233 48.7695 19.1875 48.9826 19.0966C49.1957 19.0057 49.3761 18.875 49.5238 18.7045C49.6715 18.5341 49.7766 18.3295 49.8391 18.0909H50.8448C50.788 18.4773 50.6474 18.8253 50.4229 19.1349C50.2013 19.4418 49.9073 19.6861 49.5408 19.8679C49.1772 20.0469 48.7539 20.1364 48.271 20.1364ZM54.9741 20.1364C54.3832 20.1364 53.8647 19.9957 53.4187 19.7145C52.9755 19.4332 52.6289 19.0398 52.3789 18.5341C52.1317 18.0284 52.0082 17.4375 52.0082 16.7614C52.0082 16.0795 52.1317 15.4844 52.3789 14.9759C52.6289 14.4673 52.9755 14.0724 53.4187 13.7912C53.8647 13.5099 54.3832 13.3693 54.9741 13.3693C55.565 13.3693 56.082 13.5099 56.5252 13.7912C56.9712 14.0724 57.3178 14.4673 57.565 14.9759C57.815 15.4844 57.94 16.0795 57.94 16.7614C57.94 17.4375 57.815 18.0284 57.565 18.5341C57.3178 19.0398 56.9712 19.4332 56.5252 19.7145C56.082 19.9957 55.565 20.1364 54.9741 20.1364ZM54.9741 19.233C55.4229 19.233 55.7923 19.1179 56.082 18.8878C56.3718 18.6577 56.5863 18.3551 56.7255 17.9801C56.8647 17.6051 56.9343 17.1989 56.9343 16.7614C56.9343 16.3239 56.8647 15.9162 56.7255 15.5384C56.5863 15.1605 56.3718 14.8551 56.082 14.6222C55.7923 14.3892 55.4229 14.2727 54.9741 14.2727C54.5252 14.2727 54.1559 14.3892 53.8661 14.6222C53.5763 14.8551 53.3619 15.1605 53.2227 15.5384C53.0835 15.9162 53.0138 16.3239 53.0138 16.7614C53.0138 17.1989 53.0835 17.6051 53.2227 17.9801C53.3619 18.3551 53.5763 18.6577 53.8661 18.8878C54.1559 19.1179 54.5252 19.233 54.9741 19.233ZM59.4751 20V13.4545H60.4467V14.4773H60.532C60.6683 14.1278 60.8885 13.8565 61.1925 13.6634C61.4964 13.4673 61.8615 13.3693 62.2876 13.3693C62.7195 13.3693 63.0788 13.4673 63.3658 13.6634C63.6555 13.8565 63.8814 14.1278 64.0433 14.4773H64.1115C64.2791 14.1392 64.5305 13.8707 64.8658 13.6719C65.201 13.4702 65.603 13.3693 66.0717 13.3693C66.657 13.3693 67.1357 13.5526 67.5078 13.919C67.88 14.2827 68.0661 14.8494 68.0661 15.6193V20H67.0604V15.6193C67.0604 15.1364 66.9283 14.7912 66.6641 14.5838C66.3999 14.3764 66.0888 14.2727 65.7308 14.2727C65.2706 14.2727 64.9141 14.4119 64.6612 14.6903C64.4084 14.9659 64.282 15.3153 64.282 15.7386V20H63.2592V15.517C63.2592 15.1449 63.1385 14.8452 62.897 14.6179C62.6555 14.3878 62.3445 14.2727 61.9638 14.2727C61.7024 14.2727 61.4581 14.3423 61.2308 14.4815C61.0064 14.6207 60.8246 14.8139 60.6854 15.0611C60.549 15.3054 60.4808 15.5881 60.4808 15.9091V20H59.4751ZM69.9048 20V13.4545H70.8764V14.4773H70.9616C71.098 14.1278 71.3182 13.8565 71.6222 13.6634C71.9261 13.4673 72.2912 13.3693 72.7173 13.3693C73.1491 13.3693 73.5085 13.4673 73.7955 13.6634C74.0852 13.8565 74.3111 14.1278 74.473 14.4773H74.5412C74.7088 14.1392 74.9602 13.8707 75.2955 13.6719C75.6307 13.4702 76.0327 13.3693 76.5014 13.3693C77.0866 13.3693 77.5653 13.5526 77.9375 13.919C78.3097 14.2827 78.4957 14.8494 78.4957 15.6193V20H77.4901V15.6193C77.4901 15.1364 77.358 14.7912 77.0938 14.5838C76.8295 14.3764 76.5185 14.2727 76.1605 14.2727C75.7003 14.2727 75.3438 14.4119 75.0909 14.6903C74.8381 14.9659 74.7116 15.3153 74.7116 15.7386V20H73.6889V15.517C73.6889 15.1449 73.5682 14.8452 73.3267 14.6179C73.0852 14.3878 72.7741 14.2727 72.3935 14.2727C72.1321 14.2727 71.8878 14.3423 71.6605 14.4815C71.4361 14.6207 71.2543 14.8139 71.1151 15.0611C70.9787 15.3054 70.9105 15.5881 70.9105 15.9091V20H69.9048ZM83.0788 20.1364C82.4482 20.1364 81.9041 19.9972 81.4467 19.7188C80.9922 19.4375 80.6413 19.0455 80.3942 18.5426C80.1499 18.0369 80.0277 17.4489 80.0277 16.7784C80.0277 16.108 80.1499 15.517 80.3942 15.0057C80.6413 14.4915 80.9851 14.0909 81.4254 13.804C81.8686 13.5142 82.3857 13.3693 82.9766 13.3693C83.3175 13.3693 83.6541 13.4261 83.9865 13.5398C84.3189 13.6534 84.6214 13.8381 84.8942 14.0938C85.1669 14.3466 85.3842 14.6818 85.5462 15.0994C85.7081 15.517 85.7891 16.0312 85.7891 16.642V17.0682H80.7436V16.1989H84.7663C84.7663 15.8295 84.6925 15.5 84.5447 15.2102C84.3999 14.9205 84.1925 14.6918 83.9226 14.5241C83.6555 14.3565 83.3402 14.2727 82.9766 14.2727C82.576 14.2727 82.2294 14.3722 81.9368 14.571C81.647 14.767 81.424 15.0227 81.2678 15.3381C81.1115 15.6534 81.0334 15.9915 81.0334 16.3523V16.9318C81.0334 17.4261 81.1186 17.8452 81.2891 18.1889C81.4624 18.5298 81.7024 18.7898 82.0092 18.9688C82.3161 19.1449 82.6726 19.233 83.0788 19.233C83.343 19.233 83.5817 19.196 83.7947 19.1222C84.0107 19.0455 84.1967 18.9318 84.353 18.7812C84.5092 18.6278 84.63 18.4375 84.7152 18.2102L85.6868 18.483C85.5845 18.8125 85.4126 19.1023 85.1712 19.3523C84.9297 19.5994 84.6314 19.7926 84.2763 19.9318C83.9212 20.0682 83.522 20.1364 83.0788 20.1364ZM87.3189 20V13.4545H88.2905V14.4432H88.3587C88.478 14.1193 88.6939 13.8565 89.0064 13.6548C89.3189 13.4531 89.6712 13.3523 90.0632 13.3523C90.1371 13.3523 90.2294 13.3537 90.3402 13.3565C90.451 13.3594 90.5348 13.3636 90.5916 13.3693V14.392C90.5575 14.3835 90.4794 14.3707 90.3572 14.3537C90.2379 14.3338 90.1115 14.3239 89.978 14.3239C89.6598 14.3239 89.3757 14.3906 89.1257 14.5241C88.8786 14.6548 88.6825 14.8366 88.5376 15.0696C88.3956 15.2997 88.3246 15.5625 88.3246 15.858V20H87.3189ZM94.2436 20.1364C93.63 20.1364 93.1016 19.9915 92.6584 19.7017C92.2152 19.4119 91.8743 19.0128 91.6357 18.5043C91.397 17.9957 91.2777 17.4148 91.2777 16.7614C91.2777 16.0966 91.3999 15.5099 91.6442 15.0014C91.8913 14.4901 92.2351 14.0909 92.6754 13.804C93.1186 13.5142 93.6357 13.3693 94.2266 13.3693C94.6868 13.3693 95.1016 13.4545 95.4709 13.625C95.8402 13.7955 96.1428 14.0341 96.3786 14.3409C96.6143 14.6477 96.7607 15.0057 96.8175 15.4148H95.8118C95.7351 15.1165 95.5646 14.8523 95.3004 14.6222C95.0391 14.3892 94.6868 14.2727 94.2436 14.2727C93.8516 14.2727 93.5078 14.375 93.2124 14.5795C92.9197 14.7812 92.6911 15.0668 92.5263 15.4361C92.3643 15.8026 92.2834 16.233 92.2834 16.7273C92.2834 17.233 92.3629 17.6733 92.522 18.0483C92.6839 18.4233 92.9112 18.7145 93.2038 18.9219C93.4993 19.1293 93.8459 19.233 94.2436 19.233C94.505 19.233 94.7422 19.1875 94.9553 19.0966C95.1683 19.0057 95.3487 18.875 95.4964 18.7045C95.6442 18.5341 95.7493 18.3295 95.8118 18.0909H96.8175C96.7607 18.4773 96.62 18.8253 96.3956 19.1349C96.174 19.4418 95.88 19.6861 95.5135 19.8679C95.1499 20.0469 94.7266 20.1364 94.2436 20.1364ZM101.032 20.1364C100.401 20.1364 99.8572 19.9972 99.3999 19.7188C98.9453 19.4375 98.5945 19.0455 98.3473 18.5426C98.103 18.0369 97.9808 17.4489 97.9808 16.7784C97.9808 16.108 98.103 15.517 98.3473 15.0057C98.5945 14.4915 98.9382 14.0909 99.3786 13.804C99.8217 13.5142 100.339 13.3693 100.93 13.3693C101.271 13.3693 101.607 13.4261 101.94 13.5398C102.272 13.6534 102.575 13.8381 102.847 14.0938C103.12 14.3466 103.337 14.6818 103.499 15.0994C103.661 15.517 103.742 16.0312 103.742 16.642V17.0682H98.6967V16.1989H102.719C102.719 15.8295 102.646 15.5 102.498 15.2102C102.353 14.9205 102.146 14.6918 101.876 14.5241C101.609 14.3565 101.293 14.2727 100.93 14.2727C100.529 14.2727 100.183 14.3722 99.8899 14.571C99.6001 14.767 99.3771 15.0227 99.2209 15.3381C99.0646 15.6534 98.9865 15.9915 98.9865 16.3523V16.9318C98.9865 17.4261 99.0717 17.8452 99.2422 18.1889C99.4155 18.5298 99.6555 18.7898 99.9624 18.9688C100.269 19.1449 100.626 19.233 101.032 19.233C101.296 19.233 101.535 19.196 101.748 19.1222C101.964 19.0455 102.15 18.9318 102.306 18.7812C102.462 18.6278 102.583 18.4375 102.668 18.2102L103.64 18.483C103.538 18.8125 103.366 19.1023 103.124 19.3523C102.883 19.5994 102.585 19.7926 102.229 19.9318C101.874 20.0682 101.475 20.1364 101.032 20.1364Z" fill="white"/>
</svg>
