<svg width="928" height="184" viewBox="0 0 928 184" fill="none" xmlns="http://www.w3.org/2000/svg">
<path d="M3.71804 18L0.536222 6.36364H1.96804L4.39986 15.8409H4.51349L6.99077 6.36364H8.58168L11.0589 15.8409H11.1726L13.6044 6.36364H15.0362L11.8544 18H10.3999L7.83168 8.72727H7.74077L5.17259 18H3.71804ZM18.3658 18.2045C17.8127 18.2045 17.3108 18.1004 16.8601 17.892C16.4093 17.6799 16.0514 17.375 15.7862 16.9773C15.5211 16.5758 15.3885 16.0909 15.3885 15.5227C15.3885 15.0227 15.487 14.6174 15.6839 14.3068C15.8809 13.9924 16.1442 13.7462 16.4737 13.5682C16.8033 13.3902 17.1669 13.2576 17.5646 13.1705C17.9661 13.0795 18.3696 13.0076 18.7749 12.9545C19.3052 12.8864 19.7351 12.8352 20.0646 12.8011C20.398 12.7633 20.6404 12.7008 20.7919 12.6136C20.9472 12.5265 21.0249 12.375 21.0249 12.1591V12.1136C21.0249 11.553 20.8714 11.1174 20.5646 10.8068C20.2616 10.4962 19.8014 10.3409 19.1839 10.3409C18.5438 10.3409 18.0419 10.4811 17.6783 10.7614C17.3146 11.0417 17.0589 11.3409 16.9112 11.6591L15.6385 11.2045C15.8658 10.6742 16.1688 10.2614 16.5476 9.96591C16.9302 9.66667 17.3468 9.45833 17.7976 9.34091C18.2521 9.2197 18.6991 9.15909 19.1385 9.15909C19.4188 9.15909 19.7408 9.19318 20.1044 9.26136C20.4718 9.32576 20.826 9.46023 21.1669 9.66477C21.5116 9.86932 21.7976 10.178 22.0249 10.5909C22.2521 11.0038 22.3658 11.5568 22.3658 12.25V18H21.0249V16.8182H20.9567C20.8658 17.0076 20.7143 17.2102 20.5021 17.4261C20.29 17.642 20.0078 17.8258 19.6555 17.9773C19.3033 18.1288 18.8733 18.2045 18.3658 18.2045ZM18.5703 17C19.1006 17 19.5476 16.8958 19.9112 16.6875C20.2786 16.4792 20.5552 16.2102 20.7408 15.8807C20.9302 15.5511 21.0249 15.2045 21.0249 14.8409V13.6136C20.968 13.6818 20.843 13.7443 20.6499 13.8011C20.4605 13.8542 20.2408 13.9015 19.9908 13.9432C19.7446 13.9811 19.504 14.0152 19.2692 14.0455C19.0381 14.072 18.8506 14.0947 18.7067 14.1136C18.3582 14.1591 18.0324 14.233 17.7294 14.3352C17.4302 14.4337 17.1877 14.5833 17.0021 14.7841C16.8203 14.9811 16.7294 15.25 16.7294 15.5909C16.7294 16.0568 16.9018 16.4091 17.2464 16.6477C17.5949 16.8826 18.0362 17 18.5703 17ZM24.8132 18V9.27273H26.1087V10.5909H26.1996C26.3587 10.1591 26.6465 9.80871 27.0632 9.53977C27.4799 9.27083 27.9496 9.13636 28.4723 9.13636C28.5708 9.13636 28.6939 9.13826 28.8416 9.14205C28.9893 9.14583 29.1011 9.15152 29.1768 9.15909V10.5227C29.1314 10.5114 29.0272 10.4943 28.8643 10.4716C28.7053 10.4451 28.5367 10.4318 28.3587 10.4318C27.9344 10.4318 27.5556 10.5208 27.2223 10.6989C26.8928 10.8731 26.6314 11.1155 26.4382 11.4261C26.2488 11.733 26.1541 12.0833 26.1541 12.4773V18H24.8132ZM32.1072 12.75V18H30.7663V9.27273H32.0618V10.6364H32.1754C32.38 10.1932 32.6906 9.83712 33.1072 9.56818C33.5239 9.29545 34.0618 9.15909 34.7209 9.15909C35.3118 9.15909 35.8288 9.2803 36.272 9.52273C36.7152 9.76136 37.0599 10.125 37.3061 10.6136C37.5523 11.0985 37.6754 11.7121 37.6754 12.4545V18H36.3345V12.5455C36.3345 11.8598 36.1565 11.3258 35.8004 10.9432C35.4444 10.5568 34.9557 10.3636 34.3345 10.3636C33.9065 10.3636 33.5239 10.4564 33.1868 10.642C32.8535 10.8277 32.5902 11.0985 32.397 11.4545C32.2038 11.8106 32.1072 12.2424 32.1072 12.75ZM40.1257 18V9.27273H41.4666V18H40.1257ZM40.8075 7.81818C40.5462 7.81818 40.3208 7.72917 40.1314 7.55114C39.9458 7.37311 39.853 7.15909 39.853 6.90909C39.853 6.65909 39.9458 6.44508 40.1314 6.26705C40.3208 6.08902 40.5462 6 40.8075 6C41.0689 6 41.2924 6.08902 41.478 6.26705C41.6674 6.44508 41.7621 6.65909 41.7621 6.90909C41.7621 7.15909 41.6674 7.37311 41.478 7.55114C41.2924 7.72917 41.0689 7.81818 40.8075 7.81818ZM45.2635 12.75V18H43.9226V9.27273H45.218V10.6364H45.3317C45.5362 10.1932 45.8468 9.83712 46.2635 9.56818C46.6802 9.29545 47.218 9.15909 47.8771 9.15909C48.468 9.15909 48.9851 9.2803 49.4283 9.52273C49.8714 9.76136 50.2161 10.125 50.4624 10.6136C50.7086 11.0985 50.8317 11.7121 50.8317 12.4545V18H49.4908V12.5455C49.4908 11.8598 49.3127 11.3258 48.9567 10.9432C48.6006 10.5568 48.112 10.3636 47.4908 10.3636C47.0627 10.3636 46.6802 10.4564 46.343 10.642C46.0097 10.8277 45.7464 11.0985 45.5533 11.4545C45.3601 11.8106 45.2635 12.2424 45.2635 12.75ZM56.8047 21.4545C56.157 21.4545 55.6001 21.3712 55.1342 21.2045C54.6683 21.0417 54.2801 20.8258 53.9695 20.5568C53.6626 20.2917 53.4183 20.0076 53.2365 19.7045L54.3047 18.9545C54.4259 19.1136 54.5793 19.2955 54.7649 19.5C54.9505 19.7083 55.2043 19.8883 55.5263 20.0398C55.852 20.1951 56.2782 20.2727 56.8047 20.2727C57.5092 20.2727 58.0907 20.1023 58.549 19.7614C59.0073 19.4205 59.2365 18.8864 59.2365 18.1591V16.3864H59.1229C59.0244 16.5455 58.8842 16.7424 58.7024 16.9773C58.5244 17.2083 58.2668 17.4148 57.9297 17.5966C57.5964 17.7746 57.1456 17.8636 56.5774 17.8636C55.8729 17.8636 55.2403 17.697 54.6797 17.3636C54.1229 17.0303 53.6816 16.5455 53.3558 15.9091C53.0339 15.2727 52.8729 14.5 52.8729 13.5909C52.8729 12.697 53.0301 11.9186 53.3445 11.2557C53.6589 10.589 54.0964 10.0739 54.657 9.71023C55.2176 9.3428 55.8653 9.15909 56.6001 9.15909C57.1683 9.15909 57.6191 9.25379 57.9524 9.44318C58.2895 9.62879 58.5471 9.84091 58.7251 10.0795C58.907 10.3144 59.0471 10.5076 59.1456 10.6591H59.282V9.27273H60.5774V18.25C60.5774 19 60.407 19.6098 60.0661 20.0795C59.7289 20.553 59.2744 20.8996 58.7024 21.1193C58.1342 21.3428 57.5017 21.4545 56.8047 21.4545ZM56.7592 16.6591C57.2971 16.6591 57.7517 16.536 58.1229 16.2898C58.4941 16.0436 58.7763 15.6894 58.9695 15.2273C59.1626 14.7652 59.2592 14.2121 59.2592 13.5682C59.2592 12.9394 59.1645 12.3845 58.9751 11.9034C58.7857 11.4223 58.5054 11.0455 58.1342 10.7727C57.763 10.5 57.3047 10.3636 56.7592 10.3636C56.1911 10.3636 55.7176 10.5076 55.3388 10.7955C54.9638 11.0833 54.6816 11.4697 54.4922 11.9545C54.3066 12.4394 54.2138 12.9773 54.2138 13.5682C54.2138 14.1742 54.3085 14.7102 54.4979 15.1761C54.6911 15.6383 54.9751 16.0019 55.3501 16.267C55.7289 16.5284 56.1986 16.6591 56.7592 16.6591Z" fill="white"/>
<rect y="40" width="64" height="80" rx="20" fill="#F9FFC1"/>
<path d="M23.5767 134.364V146H22.1676V135.841H22.0994L19.2585 137.727V136.295L22.1676 134.364H23.5767ZM30.7188 146.159C29.8627 146.159 29.1335 145.926 28.5312 145.46C27.929 144.991 27.4688 144.311 27.1506 143.42C26.8324 142.527 26.6733 141.447 26.6733 140.182C26.6733 138.924 26.8324 137.85 27.1506 136.96C27.4725 136.066 27.9347 135.384 28.5369 134.915C29.143 134.441 29.8703 134.205 30.7188 134.205C31.5672 134.205 32.2926 134.441 32.8949 134.915C33.5009 135.384 33.9631 136.066 34.2812 136.96C34.6032 137.85 34.7642 138.924 34.7642 140.182C34.7642 141.447 34.6051 142.527 34.2869 143.42C33.9688 144.311 33.5085 144.991 32.9062 145.46C32.304 145.926 31.5748 146.159 30.7188 146.159ZM30.7188 144.909C31.5672 144.909 32.2263 144.5 32.696 143.682C33.1657 142.864 33.4006 141.697 33.4006 140.182C33.4006 139.174 33.2926 138.316 33.0767 137.608C32.8646 136.9 32.5578 136.36 32.1562 135.989C31.7585 135.617 31.2794 135.432 30.7188 135.432C29.8778 135.432 29.2206 135.847 28.7472 136.676C28.2737 137.502 28.0369 138.67 28.0369 140.182C28.0369 141.189 28.143 142.045 28.3551 142.75C28.5672 143.455 28.8722 143.991 29.2699 144.358C29.6714 144.725 30.1544 144.909 30.7188 144.909ZM40.7188 146.159C39.8627 146.159 39.1335 145.926 38.5312 145.46C37.929 144.991 37.4688 144.311 37.1506 143.42C36.8324 142.527 36.6733 141.447 36.6733 140.182C36.6733 138.924 36.8324 137.85 37.1506 136.96C37.4725 136.066 37.9347 135.384 38.5369 134.915C39.143 134.441 39.8703 134.205 40.7188 134.205C41.5672 134.205 42.2926 134.441 42.8949 134.915C43.5009 135.384 43.9631 136.066 44.2812 136.96C44.6032 137.85 44.7642 138.924 44.7642 140.182C44.7642 141.447 44.6051 142.527 44.2869 143.42C43.9688 144.311 43.5085 144.991 42.9062 145.46C42.304 145.926 41.5748 146.159 40.7188 146.159ZM40.7188 144.909C41.5672 144.909 42.2263 144.5 42.696 143.682C43.1657 142.864 43.4006 141.697 43.4006 140.182C43.4006 139.174 43.2926 138.316 43.0767 137.608C42.8646 136.9 42.5578 136.36 42.1562 135.989C41.7585 135.617 41.2794 135.432 40.7188 135.432C39.8778 135.432 39.2206 135.847 38.7472 136.676C38.2737 137.502 38.0369 138.67 38.0369 140.182C38.0369 141.189 38.143 142.045 38.3551 142.75C38.5672 143.455 38.8722 143.991 39.2699 144.358C39.6714 144.725 40.1544 144.909 40.7188 144.909Z" fill="white"/>
<path d="M4.7919 178V166.364H11.7692V167.614H6.20099V171.545H11.2464V172.795H6.20099V178H4.7919ZM17.6825 166.205C18.1598 166.208 18.6371 166.299 19.1143 166.477C19.5916 166.655 20.0272 166.951 20.4212 167.364C20.8151 167.773 21.1314 168.331 21.37 169.04C21.6087 169.748 21.728 170.636 21.728 171.705C21.728 172.739 21.6295 173.657 21.4325 174.46C21.2393 175.259 20.959 175.934 20.5916 176.483C20.228 177.032 19.7848 177.449 19.2621 177.733C18.7431 178.017 18.156 178.159 17.5007 178.159C16.8492 178.159 16.2678 178.03 15.7564 177.773C15.2488 177.511 14.8321 177.15 14.5064 176.688C14.1844 176.222 13.978 175.682 13.8871 175.068H15.2734C15.3984 175.602 15.6465 176.044 16.0178 176.392C16.3928 176.737 16.8871 176.909 17.5007 176.909C18.3984 176.909 19.1068 176.517 19.6257 175.733C20.1484 174.949 20.4098 173.841 20.4098 172.409H20.3189C20.1068 172.727 19.8549 173.002 19.5632 173.233C19.2715 173.464 18.9477 173.642 18.5916 173.767C18.2356 173.892 17.8568 173.955 17.4553 173.955C16.7886 173.955 16.1768 173.79 15.62 173.46C15.067 173.127 14.6238 172.67 14.2905 172.091C13.9609 171.508 13.7962 170.841 13.7962 170.091C13.7962 169.379 13.9553 168.727 14.2734 168.136C14.5954 167.542 15.0462 167.068 15.6257 166.716C16.209 166.364 16.8946 166.193 17.6825 166.205ZM17.6825 167.455C17.2053 167.455 16.7753 167.574 16.3928 167.812C16.014 168.047 15.7128 168.366 15.4893 168.767C15.2696 169.165 15.1598 169.606 15.1598 170.091C15.1598 170.576 15.2659 171.017 15.478 171.415C15.6939 171.809 15.9875 172.123 16.3587 172.358C16.7337 172.589 17.1598 172.705 17.6371 172.705C17.9969 172.705 18.3321 172.634 18.6428 172.494C18.9534 172.35 19.2242 172.155 19.4553 171.909C19.6901 171.659 19.8738 171.377 20.0064 171.062C20.139 170.744 20.2053 170.413 20.2053 170.068C20.2053 169.614 20.0954 169.187 19.8757 168.79C19.6598 168.392 19.3606 168.07 18.978 167.824C18.5992 167.578 18.1674 167.455 17.6825 167.455ZM24.1669 178V166.364H31.1442V167.614H25.576V171.545H30.6214V172.795H25.576V178H24.1669ZM33.5575 178V166.364H40.5348V167.614H34.9666V171.545H40.0121V172.795H34.9666V178H33.5575ZM52.3118 170H50.9027C50.8194 169.595 50.6735 169.239 50.4652 168.932C50.2607 168.625 50.0107 168.367 49.7152 168.159C49.4235 167.947 49.0997 167.788 48.7436 167.682C48.3875 167.576 48.0163 167.523 47.63 167.523C46.9254 167.523 46.2872 167.701 45.7152 168.057C45.147 168.413 44.6944 168.938 44.3572 169.631C44.0239 170.324 43.8572 171.174 43.8572 172.182C43.8572 173.189 44.0239 174.04 44.3572 174.733C44.6944 175.426 45.147 175.951 45.7152 176.307C46.2872 176.663 46.9254 176.841 47.63 176.841C48.0163 176.841 48.3875 176.788 48.7436 176.682C49.0997 176.576 49.4235 176.419 49.7152 176.21C50.0107 175.998 50.2607 175.739 50.4652 175.432C50.6735 175.121 50.8194 174.765 50.9027 174.364H52.3118C52.2057 174.958 52.0125 175.491 51.7322 175.96C51.4519 176.43 51.1035 176.83 50.6868 177.159C50.2701 177.485 49.8023 177.733 49.2834 177.903C48.7682 178.074 48.2171 178.159 47.63 178.159C46.6375 178.159 45.755 177.917 44.9822 177.432C44.2095 176.947 43.6016 176.258 43.1584 175.364C42.7152 174.47 42.4936 173.409 42.4936 172.182C42.4936 170.955 42.7152 169.894 43.1584 169C43.6016 168.106 44.2095 167.417 44.9822 166.932C45.755 166.447 46.6375 166.205 47.63 166.205C48.2171 166.205 48.7682 166.29 49.2834 166.46C49.8023 166.631 50.2701 166.881 50.6868 167.21C51.1035 167.536 51.4519 167.934 51.7322 168.403C52.0125 168.869 52.2057 169.402 52.3118 170ZM58.4751 166.364V178H57.0661V167.841H56.9979L54.157 169.727V168.295L57.0661 166.364H58.4751Z" fill="white"/>
<rect x="96" y="40" width="64" height="80" rx="20" fill="#F8FF86"/>
<path d="M114.361 146V144.977L118.202 140.773C118.652 140.28 119.024 139.852 119.315 139.489C119.607 139.121 119.823 138.777 119.963 138.455C120.107 138.129 120.179 137.788 120.179 137.432C120.179 137.023 120.08 136.669 119.884 136.369C119.69 136.07 119.425 135.839 119.088 135.676C118.751 135.513 118.372 135.432 117.952 135.432C117.505 135.432 117.115 135.525 116.781 135.71C116.452 135.892 116.196 136.148 116.014 136.477C115.836 136.807 115.747 137.193 115.747 137.636H114.406C114.406 136.955 114.563 136.356 114.878 135.841C115.192 135.326 115.62 134.924 116.162 134.636C116.707 134.348 117.319 134.205 117.997 134.205C118.679 134.205 119.283 134.348 119.81 134.636C120.336 134.924 120.749 135.312 121.048 135.801C121.348 136.29 121.497 136.833 121.497 137.432C121.497 137.86 121.42 138.278 121.264 138.688C121.113 139.093 120.848 139.545 120.469 140.045C120.094 140.542 119.573 141.148 118.906 141.864L116.293 144.659V144.75H121.702V146H114.361ZM127.844 146.159C126.988 146.159 126.259 145.926 125.656 145.46C125.054 144.991 124.594 144.311 124.276 143.42C123.957 142.527 123.798 141.447 123.798 140.182C123.798 138.924 123.957 137.85 124.276 136.96C124.598 136.066 125.06 135.384 125.662 134.915C126.268 134.441 126.995 134.205 127.844 134.205C128.692 134.205 129.418 134.441 130.02 134.915C130.626 135.384 131.088 136.066 131.406 136.96C131.728 137.85 131.889 138.924 131.889 140.182C131.889 141.447 131.73 142.527 131.412 143.42C131.094 144.311 130.634 144.991 130.031 145.46C129.429 145.926 128.7 146.159 127.844 146.159ZM127.844 144.909C128.692 144.909 129.351 144.5 129.821 143.682C130.291 142.864 130.526 141.697 130.526 140.182C130.526 139.174 130.418 138.316 130.202 137.608C129.99 136.9 129.683 136.36 129.281 135.989C128.884 135.617 128.404 135.432 127.844 135.432C127.003 135.432 126.346 135.847 125.872 136.676C125.399 137.502 125.162 138.67 125.162 140.182C125.162 141.189 125.268 142.045 125.48 142.75C125.692 143.455 125.997 143.991 126.395 144.358C126.796 144.725 127.279 144.909 127.844 144.909ZM137.844 146.159C136.988 146.159 136.259 145.926 135.656 145.46C135.054 144.991 134.594 144.311 134.276 143.42C133.957 142.527 133.798 141.447 133.798 140.182C133.798 138.924 133.957 137.85 134.276 136.96C134.598 136.066 135.06 135.384 135.662 134.915C136.268 134.441 136.995 134.205 137.844 134.205C138.692 134.205 139.418 134.441 140.02 134.915C140.626 135.384 141.088 136.066 141.406 136.96C141.728 137.85 141.889 138.924 141.889 140.182C141.889 141.447 141.73 142.527 141.412 143.42C141.094 144.311 140.634 144.991 140.031 145.46C139.429 145.926 138.7 146.159 137.844 146.159ZM137.844 144.909C138.692 144.909 139.351 144.5 139.821 143.682C140.291 142.864 140.526 141.697 140.526 140.182C140.526 139.174 140.418 138.316 140.202 137.608C139.99 136.9 139.683 136.36 139.281 135.989C138.884 135.617 138.404 135.432 137.844 135.432C137.003 135.432 136.346 135.847 135.872 136.676C135.399 137.502 135.162 138.67 135.162 140.182C135.162 141.189 135.268 142.045 135.48 142.75C135.692 143.455 135.997 143.991 136.395 144.358C136.796 144.725 137.279 144.909 137.844 144.909Z" fill="white"/>
<path d="M100.472 178V166.364H107.449V167.614H101.881V171.545H106.926V172.795H101.881V178H100.472ZM113.385 178.159C112.605 178.159 111.915 178.021 111.317 177.744C110.722 177.464 110.258 177.08 109.925 176.591C109.591 176.098 109.427 175.538 109.43 174.909C109.427 174.417 109.523 173.962 109.72 173.545C109.917 173.125 110.186 172.775 110.527 172.494C110.872 172.21 111.256 172.03 111.68 171.955V171.886C111.124 171.742 110.68 171.43 110.351 170.949C110.021 170.464 109.858 169.913 109.862 169.295C109.858 168.705 110.008 168.176 110.311 167.71C110.614 167.244 111.031 166.877 111.561 166.608C112.095 166.339 112.703 166.205 113.385 166.205C114.059 166.205 114.661 166.339 115.192 166.608C115.722 166.877 116.139 167.244 116.442 167.71C116.749 168.176 116.904 168.705 116.908 169.295C116.904 169.913 116.735 170.464 116.402 170.949C116.072 171.43 115.635 171.742 115.089 171.886V171.955C115.51 172.03 115.889 172.21 116.226 172.494C116.563 172.775 116.832 173.125 117.033 173.545C117.233 173.962 117.336 174.417 117.339 174.909C117.336 175.538 117.165 176.098 116.828 176.591C116.495 177.08 116.031 177.464 115.436 177.744C114.845 178.021 114.161 178.159 113.385 178.159ZM113.385 176.909C113.911 176.909 114.366 176.824 114.749 176.653C115.131 176.483 115.427 176.242 115.635 175.932C115.843 175.621 115.949 175.258 115.953 174.841C115.949 174.402 115.836 174.013 115.612 173.676C115.389 173.339 115.084 173.074 114.697 172.881C114.315 172.687 113.877 172.591 113.385 172.591C112.889 172.591 112.446 172.687 112.055 172.881C111.669 173.074 111.364 173.339 111.141 173.676C110.921 174.013 110.813 174.402 110.817 174.841C110.813 175.258 110.913 175.621 111.118 175.932C111.326 176.242 111.624 176.483 112.01 176.653C112.396 176.824 112.855 176.909 113.385 176.909ZM113.385 171.386C113.802 171.386 114.171 171.303 114.493 171.136C114.819 170.97 115.074 170.737 115.26 170.438C115.446 170.138 115.54 169.788 115.544 169.386C115.54 168.992 115.447 168.65 115.266 168.358C115.084 168.062 114.832 167.835 114.51 167.676C114.188 167.513 113.813 167.432 113.385 167.432C112.949 167.432 112.569 167.513 112.243 167.676C111.917 167.835 111.665 168.062 111.487 168.358C111.309 168.65 111.222 168.992 111.226 169.386C111.222 169.788 111.311 170.138 111.493 170.438C111.679 170.737 111.934 170.97 112.26 171.136C112.586 171.303 112.961 171.386 113.385 171.386ZM119.722 178V166.364H126.699V167.614H121.131V171.545H126.176V172.795H121.131V178H119.722ZM129.112 178V166.364H136.089V167.614H130.521V171.545H135.567V172.795H130.521V178H129.112ZM142.026 178.159C141.245 178.159 140.556 178.021 139.957 177.744C139.363 177.464 138.899 177.08 138.565 176.591C138.232 176.098 138.067 175.538 138.071 174.909C138.067 174.417 138.164 173.962 138.361 173.545C138.558 173.125 138.827 172.775 139.168 172.494C139.512 172.21 139.897 172.03 140.321 171.955V171.886C139.764 171.742 139.321 171.43 138.991 170.949C138.662 170.464 138.499 169.913 138.503 169.295C138.499 168.705 138.649 168.176 138.952 167.71C139.255 167.244 139.671 166.877 140.202 166.608C140.736 166.339 141.344 166.205 142.026 166.205C142.7 166.205 143.302 166.339 143.832 166.608C144.363 166.877 144.779 167.244 145.082 167.71C145.389 168.176 145.545 168.705 145.548 169.295C145.545 169.913 145.376 170.464 145.043 170.949C144.713 171.43 144.276 171.742 143.73 171.886V171.955C144.151 172.03 144.529 172.21 144.866 172.494C145.204 172.775 145.473 173.125 145.673 173.545C145.874 173.962 145.976 174.417 145.98 174.909C145.976 175.538 145.806 176.098 145.469 176.591C145.135 177.08 144.671 177.464 144.077 177.744C143.486 178.021 142.802 178.159 142.026 178.159ZM142.026 176.909C142.552 176.909 143.007 176.824 143.389 176.653C143.772 176.483 144.067 176.242 144.276 175.932C144.484 175.621 144.59 175.258 144.594 174.841C144.59 174.402 144.476 174.013 144.253 173.676C144.029 173.339 143.724 173.074 143.338 172.881C142.955 172.687 142.518 172.591 142.026 172.591C141.529 172.591 141.086 172.687 140.696 172.881C140.31 173.074 140.005 173.339 139.781 173.676C139.562 174.013 139.454 174.402 139.457 174.841C139.454 175.258 139.554 175.621 139.759 175.932C139.967 176.242 140.264 176.483 140.651 176.653C141.037 176.824 141.495 176.909 142.026 176.909ZM142.026 171.386C142.442 171.386 142.812 171.303 143.134 171.136C143.459 170.97 143.715 170.737 143.901 170.438C144.086 170.138 144.181 169.788 144.185 169.386C144.181 168.992 144.088 168.65 143.906 168.358C143.724 168.062 143.473 167.835 143.151 167.676C142.829 167.513 142.454 167.432 142.026 167.432C141.59 167.432 141.209 167.513 140.884 167.676C140.558 167.835 140.306 168.062 140.128 168.358C139.95 168.65 139.863 168.992 139.866 169.386C139.863 169.788 139.952 170.138 140.134 170.438C140.319 170.737 140.575 170.97 140.901 171.136C141.226 171.303 141.601 171.386 142.026 171.386ZM152.021 178.159C151.544 178.152 151.067 178.061 150.589 177.886C150.112 177.712 149.677 177.419 149.283 177.006C148.889 176.589 148.572 176.027 148.334 175.318C148.095 174.606 147.976 173.712 147.976 172.636C147.976 171.606 148.072 170.693 148.266 169.898C148.459 169.098 148.739 168.426 149.107 167.881C149.474 167.331 149.917 166.915 150.436 166.631C150.959 166.347 151.548 166.205 152.203 166.205C152.855 166.205 153.434 166.335 153.942 166.597C154.453 166.854 154.87 167.214 155.192 167.676C155.514 168.138 155.722 168.67 155.817 169.273H154.43C154.302 168.75 154.052 168.316 153.68 167.972C153.309 167.627 152.817 167.455 152.203 167.455C151.302 167.455 150.591 167.847 150.072 168.631C149.557 169.415 149.298 170.515 149.294 171.932H149.385C149.597 171.61 149.849 171.335 150.141 171.108C150.436 170.877 150.762 170.699 151.118 170.574C151.474 170.449 151.851 170.386 152.249 170.386C152.915 170.386 153.525 170.553 154.078 170.886C154.631 171.216 155.074 171.672 155.408 172.256C155.741 172.835 155.908 173.5 155.908 174.25C155.908 174.97 155.747 175.629 155.425 176.227C155.103 176.822 154.65 177.295 154.067 177.648C153.487 177.996 152.805 178.167 152.021 178.159ZM152.021 176.909C152.499 176.909 152.927 176.79 153.305 176.551C153.688 176.312 153.989 175.992 154.209 175.591C154.432 175.189 154.544 174.742 154.544 174.25C154.544 173.769 154.436 173.331 154.22 172.938C154.008 172.54 153.714 172.223 153.339 171.989C152.968 171.754 152.544 171.636 152.067 171.636C151.707 171.636 151.372 171.708 151.061 171.852C150.75 171.992 150.478 172.186 150.243 172.432C150.012 172.678 149.83 172.96 149.697 173.278C149.565 173.593 149.499 173.924 149.499 174.273C149.499 174.735 149.607 175.167 149.822 175.568C150.042 175.97 150.341 176.294 150.72 176.54C151.103 176.786 151.536 176.909 152.021 176.909Z" fill="white"/>
<rect x="192" y="40" width="64" height="80" rx="20" fill="#FBFF41"/>
<path d="M214.043 146.159C213.293 146.159 212.624 146.03 212.037 145.773C211.454 145.515 210.99 145.157 210.645 144.699C210.304 144.237 210.118 143.701 210.088 143.091H211.52C211.55 143.466 211.679 143.79 211.906 144.062C212.134 144.331 212.431 144.54 212.798 144.688C213.166 144.835 213.573 144.909 214.02 144.909C214.52 144.909 214.963 144.822 215.349 144.648C215.736 144.473 216.039 144.231 216.259 143.92C216.478 143.61 216.588 143.25 216.588 142.841C216.588 142.413 216.482 142.036 216.27 141.71C216.058 141.381 215.747 141.123 215.338 140.938C214.929 140.752 214.429 140.659 213.838 140.659H212.906V139.409H213.838C214.3 139.409 214.705 139.326 215.054 139.159C215.406 138.992 215.681 138.758 215.878 138.455C216.079 138.152 216.179 137.795 216.179 137.386C216.179 136.992 216.092 136.65 215.918 136.358C215.743 136.066 215.497 135.839 215.179 135.676C214.865 135.513 214.493 135.432 214.065 135.432C213.664 135.432 213.285 135.506 212.929 135.653C212.577 135.797 212.289 136.008 212.065 136.284C211.842 136.557 211.721 136.886 211.702 137.273H210.338C210.361 136.663 210.545 136.129 210.889 135.67C211.234 135.208 211.685 134.848 212.241 134.591C212.802 134.333 213.418 134.205 214.088 134.205C214.808 134.205 215.425 134.35 215.94 134.642C216.455 134.93 216.851 135.311 217.128 135.784C217.404 136.258 217.543 136.769 217.543 137.318C217.543 137.973 217.37 138.532 217.026 138.994C216.685 139.456 216.221 139.777 215.634 139.955V140.045C216.368 140.167 216.942 140.479 217.355 140.983C217.768 141.483 217.974 142.102 217.974 142.841C217.974 143.473 217.802 144.042 217.457 144.545C217.116 145.045 216.651 145.439 216.06 145.727C215.469 146.015 214.796 146.159 214.043 146.159ZM224.094 146.159C223.238 146.159 222.509 145.926 221.906 145.46C221.304 144.991 220.844 144.311 220.526 143.42C220.207 142.527 220.048 141.447 220.048 140.182C220.048 138.924 220.207 137.85 220.526 136.96C220.848 136.066 221.31 135.384 221.912 134.915C222.518 134.441 223.245 134.205 224.094 134.205C224.942 134.205 225.668 134.441 226.27 134.915C226.876 135.384 227.338 136.066 227.656 136.96C227.978 137.85 228.139 138.924 228.139 140.182C228.139 141.447 227.98 142.527 227.662 143.42C227.344 144.311 226.884 144.991 226.281 145.46C225.679 145.926 224.95 146.159 224.094 146.159ZM224.094 144.909C224.942 144.909 225.601 144.5 226.071 143.682C226.541 142.864 226.776 141.697 226.776 140.182C226.776 139.174 226.668 138.316 226.452 137.608C226.24 136.9 225.933 136.36 225.531 135.989C225.134 135.617 224.654 135.432 224.094 135.432C223.253 135.432 222.596 135.847 222.122 136.676C221.649 137.502 221.412 138.67 221.412 140.182C221.412 141.189 221.518 142.045 221.73 142.75C221.942 143.455 222.247 143.991 222.645 144.358C223.046 144.725 223.529 144.909 224.094 144.909ZM234.094 146.159C233.238 146.159 232.509 145.926 231.906 145.46C231.304 144.991 230.844 144.311 230.526 143.42C230.207 142.527 230.048 141.447 230.048 140.182C230.048 138.924 230.207 137.85 230.526 136.96C230.848 136.066 231.31 135.384 231.912 134.915C232.518 134.441 233.245 134.205 234.094 134.205C234.942 134.205 235.668 134.441 236.27 134.915C236.876 135.384 237.338 136.066 237.656 136.96C237.978 137.85 238.139 138.924 238.139 140.182C238.139 141.447 237.98 142.527 237.662 143.42C237.344 144.311 236.884 144.991 236.281 145.46C235.679 145.926 234.95 146.159 234.094 146.159ZM234.094 144.909C234.942 144.909 235.601 144.5 236.071 143.682C236.541 142.864 236.776 141.697 236.776 140.182C236.776 139.174 236.668 138.316 236.452 137.608C236.24 136.9 235.933 136.36 235.531 135.989C235.134 135.617 234.654 135.432 234.094 135.432C233.253 135.432 232.596 135.847 232.122 136.676C231.649 137.502 231.412 138.67 231.412 140.182C231.412 141.189 231.518 142.045 231.73 142.75C231.942 143.455 232.247 143.991 232.645 144.358C233.046 144.725 233.529 144.909 234.094 144.909Z" fill="white"/>
<path d="M197.347 178V166.364H204.324V167.614H198.756V171.545H203.801V172.795H198.756V178H197.347ZM206.737 178V166.364H210.805C211.616 166.364 212.285 166.504 212.811 166.784C213.338 167.061 213.73 167.434 213.987 167.903C214.245 168.369 214.374 168.886 214.374 169.455C214.374 169.955 214.285 170.367 214.107 170.693C213.932 171.019 213.701 171.277 213.413 171.466C213.129 171.655 212.821 171.795 212.487 171.886V172C212.843 172.023 213.201 172.148 213.561 172.375C213.921 172.602 214.222 172.928 214.464 173.352C214.707 173.777 214.828 174.295 214.828 174.909C214.828 175.492 214.696 176.017 214.43 176.483C214.165 176.949 213.747 177.318 213.175 177.591C212.603 177.864 211.858 178 210.942 178H206.737ZM208.146 176.75H210.942C211.862 176.75 212.516 176.572 212.902 176.216C213.292 175.856 213.487 175.42 213.487 174.909C213.487 174.515 213.387 174.152 213.186 173.818C212.985 173.481 212.699 173.212 212.328 173.011C211.957 172.807 211.518 172.705 211.01 172.705H208.146V176.75ZM208.146 171.477H210.76C211.184 171.477 211.567 171.394 211.908 171.227C212.252 171.061 212.525 170.826 212.726 170.523C212.93 170.22 213.033 169.864 213.033 169.455C213.033 168.943 212.855 168.509 212.499 168.153C212.143 167.794 211.578 167.614 210.805 167.614H208.146V171.477ZM217.143 178V166.364H224.121V167.614H218.553V171.545H223.598V172.795H218.553V178H217.143ZM226.534 178V166.364H233.511V167.614H227.943V171.545H232.989V172.795H227.943V178H226.534ZM235.447 175.614V174.455L240.561 166.364H241.402V168.159H240.834L236.97 174.273V174.364H243.857V175.614H235.447ZM240.925 178V175.261V174.722V166.364H242.266V178H240.925ZM249.92 166.364V178H248.511V167.841H248.443L245.602 169.727V168.295L248.511 166.364H249.92Z" fill="white"/>
<rect x="288" y="40" width="64" height="80" rx="20" fill="#FFF80D"/>
<path d="M305.799 143.614V142.455L310.913 134.364H311.754V136.159H311.185L307.322 142.273V142.364H314.208V143.614H305.799ZM311.276 146V143.261V142.722V134.364H312.617V146H311.276ZM320.133 146.159C319.277 146.159 318.548 145.926 317.945 145.46C317.343 144.991 316.883 144.311 316.565 143.42C316.246 142.527 316.087 141.447 316.087 140.182C316.087 138.924 316.246 137.85 316.565 136.96C316.887 136.066 317.349 135.384 317.951 134.915C318.557 134.441 319.284 134.205 320.133 134.205C320.981 134.205 321.707 134.441 322.309 134.915C322.915 135.384 323.377 136.066 323.695 136.96C324.017 137.85 324.178 138.924 324.178 140.182C324.178 141.447 324.019 142.527 323.701 143.42C323.383 144.311 322.923 144.991 322.32 145.46C321.718 145.926 320.989 146.159 320.133 146.159ZM320.133 144.909C320.981 144.909 321.64 144.5 322.11 143.682C322.58 142.864 322.815 141.697 322.815 140.182C322.815 139.174 322.707 138.316 322.491 137.608C322.279 136.9 321.972 136.36 321.57 135.989C321.173 135.617 320.693 135.432 320.133 135.432C319.292 135.432 318.635 135.847 318.161 136.676C317.688 137.502 317.451 138.67 317.451 140.182C317.451 141.189 317.557 142.045 317.769 142.75C317.981 143.455 318.286 143.991 318.684 144.358C319.085 144.725 319.568 144.909 320.133 144.909ZM330.133 146.159C329.277 146.159 328.548 145.926 327.945 145.46C327.343 144.991 326.883 144.311 326.565 143.42C326.246 142.527 326.087 141.447 326.087 140.182C326.087 138.924 326.246 137.85 326.565 136.96C326.887 136.066 327.349 135.384 327.951 134.915C328.557 134.441 329.284 134.205 330.133 134.205C330.981 134.205 331.707 134.441 332.309 134.915C332.915 135.384 333.377 136.066 333.695 136.96C334.017 137.85 334.178 138.924 334.178 140.182C334.178 141.447 334.019 142.527 333.701 143.42C333.383 144.311 332.923 144.991 332.32 145.46C331.718 145.926 330.989 146.159 330.133 146.159ZM330.133 144.909C330.981 144.909 331.64 144.5 332.11 143.682C332.58 142.864 332.815 141.697 332.815 140.182C332.815 139.174 332.707 138.316 332.491 137.608C332.279 136.9 331.972 136.36 331.57 135.989C331.173 135.617 330.693 135.432 330.133 135.432C329.292 135.432 328.635 135.847 328.161 136.676C327.688 137.502 327.451 138.67 327.451 140.182C327.451 141.189 327.557 142.045 327.769 142.75C327.981 143.455 328.286 143.991 328.684 144.358C329.085 144.725 329.568 144.909 330.133 144.909Z" fill="white"/>
<path d="M291.643 178V166.364H298.621V167.614H293.053V171.545H298.098V172.795H293.053V178H291.643ZM301.034 178V166.364H308.011V167.614H302.443V171.545H307.489V172.795H302.443V178H301.034ZM310.425 178V166.364H317.402V167.614H311.834V171.545H316.879V172.795H311.834V178H310.425ZM323.338 178.159C322.558 178.159 321.868 178.021 321.27 177.744C320.675 177.464 320.211 177.08 319.878 176.591C319.545 176.098 319.38 175.538 319.384 174.909C319.38 174.417 319.476 173.962 319.673 173.545C319.87 173.125 320.139 172.775 320.48 172.494C320.825 172.21 321.209 172.03 321.634 171.955V171.886C321.077 171.742 320.634 171.43 320.304 170.949C319.974 170.464 319.812 169.913 319.815 169.295C319.812 168.705 319.961 168.176 320.264 167.71C320.567 167.244 320.984 166.877 321.514 166.608C322.048 166.339 322.656 166.205 323.338 166.205C324.012 166.205 324.615 166.339 325.145 166.608C325.675 166.877 326.092 167.244 326.395 167.71C326.702 168.176 326.857 168.705 326.861 169.295C326.857 169.913 326.688 170.464 326.355 170.949C326.026 171.43 325.588 171.742 325.043 171.886V171.955C325.463 172.03 325.842 172.21 326.179 172.494C326.516 172.775 326.785 173.125 326.986 173.545C327.187 173.962 327.289 174.417 327.293 174.909C327.289 175.538 327.118 176.098 326.781 176.591C326.448 177.08 325.984 177.464 325.389 177.744C324.798 178.021 324.115 178.159 323.338 178.159ZM323.338 176.909C323.865 176.909 324.319 176.824 324.702 176.653C325.084 176.483 325.38 176.242 325.588 175.932C325.796 175.621 325.902 175.258 325.906 174.841C325.902 174.402 325.789 174.013 325.565 173.676C325.342 173.339 325.037 173.074 324.651 172.881C324.268 172.687 323.83 172.591 323.338 172.591C322.842 172.591 322.399 172.687 322.009 172.881C321.622 173.074 321.317 173.339 321.094 173.676C320.874 174.013 320.766 174.402 320.77 174.841C320.766 175.258 320.866 175.621 321.071 175.932C321.279 176.242 321.577 176.483 321.963 176.653C322.349 176.824 322.808 176.909 323.338 176.909ZM323.338 171.386C323.755 171.386 324.124 171.303 324.446 171.136C324.772 170.97 325.027 170.737 325.213 170.438C325.399 170.138 325.493 169.788 325.497 169.386C325.493 168.992 325.401 168.65 325.219 168.358C325.037 168.062 324.785 167.835 324.463 167.676C324.141 167.513 323.766 167.432 323.338 167.432C322.902 167.432 322.522 167.513 322.196 167.676C321.87 167.835 321.618 168.062 321.44 168.358C321.262 168.65 321.175 168.992 321.179 169.386C321.175 169.788 321.264 170.138 321.446 170.438C321.632 170.737 321.887 170.97 322.213 171.136C322.539 171.303 322.914 171.386 323.338 171.386ZM333.266 178.159C332.41 178.159 331.68 177.926 331.078 177.46C330.476 176.991 330.016 176.311 329.697 175.42C329.379 174.527 329.22 173.447 329.22 172.182C329.22 170.924 329.379 169.85 329.697 168.96C330.019 168.066 330.482 167.384 331.084 166.915C331.69 166.441 332.417 166.205 333.266 166.205C334.114 166.205 334.839 166.441 335.442 166.915C336.048 167.384 336.51 168.066 336.828 168.96C337.15 169.85 337.311 170.924 337.311 172.182C337.311 173.447 337.152 174.527 336.834 175.42C336.516 176.311 336.055 176.991 335.453 177.46C334.851 177.926 334.122 178.159 333.266 178.159ZM333.266 176.909C334.114 176.909 334.773 176.5 335.243 175.682C335.713 174.864 335.947 173.697 335.947 172.182C335.947 171.174 335.839 170.316 335.624 169.608C335.411 168.9 335.105 168.36 334.703 167.989C334.305 167.617 333.826 167.432 333.266 167.432C332.425 167.432 331.768 167.847 331.294 168.676C330.821 169.502 330.584 170.67 330.584 172.182C330.584 173.189 330.69 174.045 330.902 174.75C331.114 175.455 331.419 175.991 331.817 176.358C332.218 176.725 332.701 176.909 333.266 176.909ZM343.266 178H339.675V166.364H343.425C344.554 166.364 345.519 166.597 346.322 167.062C347.125 167.525 347.741 168.189 348.169 169.057C348.597 169.92 348.811 170.955 348.811 172.159C348.811 173.371 348.595 174.415 348.163 175.29C347.732 176.161 347.103 176.831 346.277 177.301C345.451 177.767 344.447 178 343.266 178ZM341.084 176.75H343.175C344.137 176.75 344.934 176.564 345.567 176.193C346.199 175.822 346.671 175.294 346.982 174.608C347.292 173.922 347.447 173.106 347.447 172.159C347.447 171.22 347.294 170.411 346.987 169.733C346.68 169.051 346.222 168.528 345.612 168.165C345.002 167.797 344.243 167.614 343.334 167.614H341.084V176.75Z" fill="white"/>
<rect x="384" y="40" width="64" height="80" rx="20" fill="#FFEA00"/>
<path d="M405.974 146.159C405.307 146.159 404.707 146.027 404.173 145.761C403.638 145.496 403.21 145.133 402.888 144.67C402.567 144.208 402.39 143.682 402.36 143.091H403.724C403.777 143.617 404.015 144.053 404.44 144.398C404.868 144.739 405.379 144.909 405.974 144.909C406.451 144.909 406.875 144.797 407.246 144.574C407.621 144.35 407.915 144.044 408.127 143.653C408.343 143.259 408.451 142.814 408.451 142.318C408.451 141.811 408.339 141.358 408.116 140.96C407.896 140.559 407.593 140.242 407.207 140.011C406.82 139.78 406.379 139.663 405.883 139.659C405.527 139.655 405.161 139.71 404.786 139.824C404.411 139.934 404.103 140.076 403.86 140.25L402.542 140.091L403.246 134.364H409.292V135.614H404.428L404.019 139.045H404.087C404.326 138.856 404.625 138.699 404.985 138.574C405.345 138.449 405.72 138.386 406.11 138.386C406.822 138.386 407.457 138.557 408.013 138.898C408.574 139.235 409.013 139.697 409.332 140.284C409.654 140.871 409.815 141.542 409.815 142.295C409.815 143.038 409.648 143.701 409.315 144.284C408.985 144.864 408.531 145.322 407.951 145.659C407.371 145.992 406.712 146.159 405.974 146.159ZM415.867 146.159C415.011 146.159 414.282 145.926 413.68 145.46C413.077 144.991 412.617 144.311 412.299 143.42C411.981 142.527 411.822 141.447 411.822 140.182C411.822 138.924 411.981 137.85 412.299 136.96C412.621 136.066 413.083 135.384 413.685 134.915C414.291 134.441 415.019 134.205 415.867 134.205C416.716 134.205 417.441 134.441 418.043 134.915C418.649 135.384 419.112 136.066 419.43 136.96C419.752 137.85 419.913 138.924 419.913 140.182C419.913 141.447 419.754 142.527 419.435 143.42C419.117 144.311 418.657 144.991 418.055 145.46C417.452 145.926 416.723 146.159 415.867 146.159ZM415.867 144.909C416.716 144.909 417.375 144.5 417.844 143.682C418.314 142.864 418.549 141.697 418.549 140.182C418.549 139.174 418.441 138.316 418.225 137.608C418.013 136.9 417.706 136.36 417.305 135.989C416.907 135.617 416.428 135.432 415.867 135.432C415.026 135.432 414.369 135.847 413.896 136.676C413.422 137.502 413.185 138.67 413.185 140.182C413.185 141.189 413.291 142.045 413.504 142.75C413.716 143.455 414.021 143.991 414.418 144.358C414.82 144.725 415.303 144.909 415.867 144.909ZM425.867 146.159C425.011 146.159 424.282 145.926 423.68 145.46C423.077 144.991 422.617 144.311 422.299 143.42C421.981 142.527 421.822 141.447 421.822 140.182C421.822 138.924 421.981 137.85 422.299 136.96C422.621 136.066 423.083 135.384 423.685 134.915C424.291 134.441 425.019 134.205 425.867 134.205C426.716 134.205 427.441 134.441 428.043 134.915C428.649 135.384 429.112 136.066 429.43 136.96C429.752 137.85 429.913 138.924 429.913 140.182C429.913 141.447 429.754 142.527 429.435 143.42C429.117 144.311 428.657 144.991 428.055 145.46C427.452 145.926 426.723 146.159 425.867 146.159ZM425.867 144.909C426.716 144.909 427.375 144.5 427.844 143.682C428.314 142.864 428.549 141.697 428.549 140.182C428.549 139.174 428.441 138.316 428.225 137.608C428.013 136.9 427.706 136.36 427.305 135.989C426.907 135.617 426.428 135.432 425.867 135.432C425.026 135.432 424.369 135.847 423.896 136.676C423.422 137.502 423.185 138.67 423.185 140.182C423.185 141.189 423.291 142.045 423.504 142.75C423.716 143.455 424.021 143.991 424.418 144.358C424.82 144.725 425.303 144.909 425.867 144.909Z" fill="white"/>
<path d="M387.831 178V166.364H394.808V167.614H389.24V171.545H394.286V172.795H389.24V178H387.831ZM397.222 178V166.364H404.199V167.614H398.631V171.545H403.676V172.795H398.631V178H397.222ZM406.612 178V166.364H413.635V167.614H408.021V171.545H413.271V172.795H408.021V176.75H413.726V178H406.612ZM416.652 178H415.175L419.447 166.364H420.902L425.175 178H423.697L420.22 168.205H420.129L416.652 178ZM417.197 173.455H423.152V174.705H417.197V173.455ZM430.578 178.159C429.722 178.159 428.993 177.926 428.391 177.46C427.788 176.991 427.328 176.311 427.01 175.42C426.692 174.527 426.533 173.447 426.533 172.182C426.533 170.924 426.692 169.85 427.01 168.96C427.332 168.066 427.794 167.384 428.396 166.915C429.002 166.441 429.73 166.205 430.578 166.205C431.427 166.205 432.152 166.441 432.754 166.915C433.36 167.384 433.822 168.066 434.141 168.96C434.463 169.85 434.624 170.924 434.624 172.182C434.624 173.447 434.464 174.527 434.146 175.42C433.828 176.311 433.368 176.991 432.766 177.46C432.163 177.926 431.434 178.159 430.578 178.159ZM430.578 176.909C431.427 176.909 432.086 176.5 432.555 175.682C433.025 174.864 433.26 173.697 433.26 172.182C433.26 171.174 433.152 170.316 432.936 169.608C432.724 168.9 432.417 168.36 432.016 167.989C431.618 167.617 431.139 167.432 430.578 167.432C429.737 167.432 429.08 167.847 428.607 168.676C428.133 169.502 427.896 170.67 427.896 172.182C427.896 173.189 428.002 174.045 428.214 174.75C428.427 175.455 428.732 175.991 429.129 176.358C429.531 176.725 430.014 176.909 430.578 176.909ZM440.578 178.159C439.722 178.159 438.993 177.926 438.391 177.46C437.788 176.991 437.328 176.311 437.01 175.42C436.692 174.527 436.533 173.447 436.533 172.182C436.533 170.924 436.692 169.85 437.01 168.96C437.332 168.066 437.794 167.384 438.396 166.915C439.002 166.441 439.73 166.205 440.578 166.205C441.427 166.205 442.152 166.441 442.754 166.915C443.36 167.384 443.822 168.066 444.141 168.96C444.463 169.85 444.624 170.924 444.624 172.182C444.624 173.447 444.464 174.527 444.146 175.42C443.828 176.311 443.368 176.991 442.766 177.46C442.163 177.926 441.434 178.159 440.578 178.159ZM440.578 176.909C441.427 176.909 442.086 176.5 442.555 175.682C443.025 174.864 443.26 173.697 443.26 172.182C443.26 171.174 443.152 170.316 442.936 169.608C442.724 168.9 442.417 168.36 442.016 167.989C441.618 167.617 441.139 167.432 440.578 167.432C439.737 167.432 439.08 167.847 438.607 168.676C438.133 169.502 437.896 170.67 437.896 172.182C437.896 173.189 438.002 174.045 438.214 174.75C438.427 175.455 438.732 175.991 439.129 176.358C439.531 176.725 440.014 176.909 440.578 176.909Z" fill="white"/>
<rect x="480" y="40" width="64" height="80" rx="20" fill="#D1AE00"/>
<path d="M502.076 146.159C501.599 146.152 501.121 146.061 500.644 145.886C500.167 145.712 499.731 145.419 499.337 145.006C498.943 144.589 498.627 144.027 498.388 143.318C498.15 142.606 498.031 141.712 498.031 140.636C498.031 139.606 498.127 138.693 498.32 137.898C498.513 137.098 498.794 136.426 499.161 135.881C499.529 135.331 499.972 134.915 500.491 134.631C501.013 134.347 501.603 134.205 502.258 134.205C502.909 134.205 503.489 134.335 503.996 134.597C504.508 134.854 504.924 135.214 505.246 135.676C505.568 136.138 505.777 136.67 505.871 137.273H504.485C504.356 136.75 504.106 136.316 503.735 135.972C503.364 135.627 502.871 135.455 502.258 135.455C501.356 135.455 500.646 135.847 500.127 136.631C499.612 137.415 499.353 138.515 499.349 139.932H499.44C499.652 139.61 499.904 139.335 500.195 139.108C500.491 138.877 500.817 138.699 501.173 138.574C501.529 138.449 501.906 138.386 502.303 138.386C502.97 138.386 503.58 138.553 504.133 138.886C504.686 139.216 505.129 139.672 505.462 140.256C505.796 140.835 505.962 141.5 505.962 142.25C505.962 142.97 505.801 143.629 505.479 144.227C505.157 144.822 504.705 145.295 504.121 145.648C503.542 145.996 502.86 146.167 502.076 146.159ZM502.076 144.909C502.553 144.909 502.981 144.79 503.36 144.551C503.743 144.312 504.044 143.992 504.263 143.591C504.487 143.189 504.599 142.742 504.599 142.25C504.599 141.769 504.491 141.331 504.275 140.938C504.063 140.54 503.769 140.223 503.394 139.989C503.023 139.754 502.599 139.636 502.121 139.636C501.762 139.636 501.426 139.708 501.116 139.852C500.805 139.992 500.532 140.186 500.298 140.432C500.067 140.678 499.885 140.96 499.752 141.278C499.62 141.593 499.553 141.924 499.553 142.273C499.553 142.735 499.661 143.167 499.877 143.568C500.097 143.97 500.396 144.294 500.775 144.54C501.157 144.786 501.591 144.909 502.076 144.909ZM511.992 146.159C511.136 146.159 510.407 145.926 509.805 145.46C509.202 144.991 508.742 144.311 508.424 143.42C508.106 142.527 507.947 141.447 507.947 140.182C507.947 138.924 508.106 137.85 508.424 136.96C508.746 136.066 509.208 135.384 509.81 134.915C510.416 134.441 511.144 134.205 511.992 134.205C512.841 134.205 513.566 134.441 514.168 134.915C514.774 135.384 515.237 136.066 515.555 136.96C515.877 137.85 516.038 138.924 516.038 140.182C516.038 141.447 515.879 142.527 515.56 143.42C515.242 144.311 514.782 144.991 514.18 145.46C513.577 145.926 512.848 146.159 511.992 146.159ZM511.992 144.909C512.841 144.909 513.5 144.5 513.969 143.682C514.439 142.864 514.674 141.697 514.674 140.182C514.674 139.174 514.566 138.316 514.35 137.608C514.138 136.9 513.831 136.36 513.43 135.989C513.032 135.617 512.553 135.432 511.992 135.432C511.151 135.432 510.494 135.847 510.021 136.676C509.547 137.502 509.31 138.67 509.31 140.182C509.31 141.189 509.416 142.045 509.629 142.75C509.841 143.455 510.146 143.991 510.543 144.358C510.945 144.725 511.428 144.909 511.992 144.909ZM521.992 146.159C521.136 146.159 520.407 145.926 519.805 145.46C519.202 144.991 518.742 144.311 518.424 143.42C518.106 142.527 517.947 141.447 517.947 140.182C517.947 138.924 518.106 137.85 518.424 136.96C518.746 136.066 519.208 135.384 519.81 134.915C520.416 134.441 521.144 134.205 521.992 134.205C522.841 134.205 523.566 134.441 524.168 134.915C524.774 135.384 525.237 136.066 525.555 136.96C525.877 137.85 526.038 138.924 526.038 140.182C526.038 141.447 525.879 142.527 525.56 143.42C525.242 144.311 524.782 144.991 524.18 145.46C523.577 145.926 522.848 146.159 521.992 146.159ZM521.992 144.909C522.841 144.909 523.5 144.5 523.969 143.682C524.439 142.864 524.674 141.697 524.674 140.182C524.674 139.174 524.566 138.316 524.35 137.608C524.138 136.9 523.831 136.36 523.43 135.989C523.032 135.617 522.553 135.432 521.992 135.432C521.151 135.432 520.494 135.847 520.021 136.676C519.547 137.502 519.31 138.67 519.31 140.182C519.31 141.189 519.416 142.045 519.629 142.75C519.841 143.455 520.146 143.991 520.543 144.358C520.945 144.725 521.428 144.909 521.992 144.909Z" fill="white"/>
<path d="M487.344 178H483.753V166.364H487.503C488.632 166.364 489.598 166.597 490.401 167.062C491.204 167.525 491.819 168.189 492.247 169.057C492.675 169.92 492.889 170.955 492.889 172.159C492.889 173.371 492.673 174.415 492.241 175.29C491.81 176.161 491.181 176.831 490.355 177.301C489.529 177.767 488.526 178 487.344 178ZM485.162 176.75H487.253C488.215 176.75 489.012 176.564 489.645 176.193C490.277 175.822 490.749 175.294 491.06 174.608C491.37 173.922 491.526 173.106 491.526 172.159C491.526 171.22 491.372 170.411 491.065 169.733C490.759 169.051 490.3 168.528 489.69 168.165C489.08 167.797 488.321 167.614 487.412 167.614H485.162V176.75ZM499.139 166.364V178H497.73V167.841H497.662L494.821 169.727V168.295L497.73 166.364H499.139ZM503.168 178H501.69L505.963 166.364H507.418L511.69 178H510.213L506.736 168.205H506.645L503.168 178ZM503.713 173.455H509.668V174.705H503.713V173.455ZM513.503 178V166.364H520.526V167.614H514.912V171.545H520.162V172.795H514.912V176.75H520.616V178H513.503ZM526.656 178.159C525.8 178.159 525.071 177.926 524.469 177.46C523.866 176.991 523.406 176.311 523.088 175.42C522.77 174.527 522.611 173.447 522.611 172.182C522.611 170.924 522.77 169.85 523.088 168.96C523.41 168.066 523.872 167.384 524.474 166.915C525.08 166.441 525.808 166.205 526.656 166.205C527.505 166.205 528.23 166.441 528.832 166.915C529.438 167.384 529.901 168.066 530.219 168.96C530.541 169.85 530.702 170.924 530.702 172.182C530.702 173.447 530.543 174.527 530.224 175.42C529.906 176.311 529.446 176.991 528.844 177.46C528.241 177.926 527.512 178.159 526.656 178.159ZM526.656 176.909C527.505 176.909 528.164 176.5 528.634 175.682C529.103 174.864 529.338 173.697 529.338 172.182C529.338 171.174 529.23 170.316 529.014 169.608C528.802 168.9 528.495 168.36 528.094 167.989C527.696 167.617 527.217 167.432 526.656 167.432C525.815 167.432 525.158 167.847 524.685 168.676C524.211 169.502 523.974 170.67 523.974 172.182C523.974 173.189 524.08 174.045 524.293 174.75C524.505 175.455 524.81 175.991 525.207 176.358C525.609 176.725 526.092 176.909 526.656 176.909ZM536.656 178.159C535.8 178.159 535.071 177.926 534.469 177.46C533.866 176.991 533.406 176.311 533.088 175.42C532.77 174.527 532.611 173.447 532.611 172.182C532.611 170.924 532.77 169.85 533.088 168.96C533.41 168.066 533.872 167.384 534.474 166.915C535.08 166.441 535.808 166.205 536.656 166.205C537.505 166.205 538.23 166.441 538.832 166.915C539.438 167.384 539.901 168.066 540.219 168.96C540.541 169.85 540.702 170.924 540.702 172.182C540.702 173.447 540.543 174.527 540.224 175.42C539.906 176.311 539.446 176.991 538.844 177.46C538.241 177.926 537.512 178.159 536.656 178.159ZM536.656 176.909C537.505 176.909 538.164 176.5 538.634 175.682C539.103 174.864 539.338 173.697 539.338 172.182C539.338 171.174 539.23 170.316 539.014 169.608C538.802 168.9 538.495 168.36 538.094 167.989C537.696 167.617 537.217 167.432 536.656 167.432C535.815 167.432 535.158 167.847 534.685 168.676C534.211 169.502 533.974 170.67 533.974 172.182C533.974 173.189 534.08 174.045 534.293 174.75C534.505 175.455 534.81 175.991 535.207 176.358C535.609 176.725 536.092 176.909 536.656 176.909Z" fill="white"/>
<rect x="576" y="40" width="64" height="80" rx="20" fill="#A67D02"/>
<path d="M595.123 146L600.327 135.705V135.614H594.327V134.364H601.782V135.682L596.6 146H595.123ZM607.445 146.159C606.589 146.159 605.86 145.926 605.258 145.46C604.656 144.991 604.195 144.311 603.877 143.42C603.559 142.527 603.4 141.447 603.4 140.182C603.4 138.924 603.559 137.85 603.877 136.96C604.199 136.066 604.661 135.384 605.263 134.915C605.87 134.441 606.597 134.205 607.445 134.205C608.294 134.205 609.019 134.441 609.621 134.915C610.228 135.384 610.69 136.066 611.008 136.96C611.33 137.85 611.491 138.924 611.491 140.182C611.491 141.447 611.332 142.527 611.013 143.42C610.695 144.311 610.235 144.991 609.633 145.46C609.031 145.926 608.301 146.159 607.445 146.159ZM607.445 144.909C608.294 144.909 608.953 144.5 609.423 143.682C609.892 142.864 610.127 141.697 610.127 140.182C610.127 139.174 610.019 138.316 609.803 137.608C609.591 136.9 609.284 136.36 608.883 135.989C608.485 135.617 608.006 135.432 607.445 135.432C606.604 135.432 605.947 135.847 605.474 136.676C605 137.502 604.763 138.67 604.763 140.182C604.763 141.189 604.87 142.045 605.082 142.75C605.294 143.455 605.599 143.991 605.996 144.358C606.398 144.725 606.881 144.909 607.445 144.909ZM617.445 146.159C616.589 146.159 615.86 145.926 615.258 145.46C614.656 144.991 614.195 144.311 613.877 143.42C613.559 142.527 613.4 141.447 613.4 140.182C613.4 138.924 613.559 137.85 613.877 136.96C614.199 136.066 614.661 135.384 615.263 134.915C615.87 134.441 616.597 134.205 617.445 134.205C618.294 134.205 619.019 134.441 619.621 134.915C620.228 135.384 620.69 136.066 621.008 136.96C621.33 137.85 621.491 138.924 621.491 140.182C621.491 141.447 621.332 142.527 621.013 143.42C620.695 144.311 620.235 144.991 619.633 145.46C619.031 145.926 618.301 146.159 617.445 146.159ZM617.445 144.909C618.294 144.909 618.953 144.5 619.423 143.682C619.892 142.864 620.127 141.697 620.127 140.182C620.127 139.174 620.019 138.316 619.803 137.608C619.591 136.9 619.284 136.36 618.883 135.989C618.485 135.617 618.006 135.432 617.445 135.432C616.604 135.432 615.947 135.847 615.474 136.676C615 137.502 614.763 138.67 614.763 140.182C614.763 141.189 614.87 142.045 615.082 142.75C615.294 143.455 615.599 143.991 615.996 144.358C616.398 144.725 616.881 144.909 617.445 144.909Z" fill="white"/>
<path d="M579.324 178H577.847L582.119 166.364H583.574L587.847 178H586.369L582.892 168.205H582.801L579.324 178ZM579.869 173.455H585.824V174.705H579.869V173.455ZM593.318 178.159C592.841 178.152 592.364 178.061 591.886 177.886C591.409 177.712 590.973 177.419 590.58 177.006C590.186 176.589 589.869 176.027 589.631 175.318C589.392 174.606 589.273 173.712 589.273 172.636C589.273 171.606 589.369 170.693 589.562 169.898C589.756 169.098 590.036 168.426 590.403 167.881C590.771 167.331 591.214 166.915 591.733 166.631C592.256 166.347 592.845 166.205 593.5 166.205C594.152 166.205 594.731 166.335 595.239 166.597C595.75 166.854 596.167 167.214 596.489 167.676C596.811 168.138 597.019 168.67 597.114 169.273H595.727C595.598 168.75 595.348 168.316 594.977 167.972C594.606 167.627 594.114 167.455 593.5 167.455C592.598 167.455 591.888 167.847 591.369 168.631C590.854 169.415 590.595 170.515 590.591 171.932H590.682C590.894 171.61 591.146 171.335 591.438 171.108C591.733 170.877 592.059 170.699 592.415 170.574C592.771 170.449 593.148 170.386 593.545 170.386C594.212 170.386 594.822 170.553 595.375 170.886C595.928 171.216 596.371 171.672 596.705 172.256C597.038 172.835 597.205 173.5 597.205 174.25C597.205 174.97 597.044 175.629 596.722 176.227C596.4 176.822 595.947 177.295 595.364 177.648C594.784 177.996 594.102 178.167 593.318 178.159ZM593.318 176.909C593.795 176.909 594.223 176.79 594.602 176.551C594.985 176.312 595.286 175.992 595.506 175.591C595.729 175.189 595.841 174.742 595.841 174.25C595.841 173.769 595.733 173.331 595.517 172.938C595.305 172.54 595.011 172.223 594.636 171.989C594.265 171.754 593.841 171.636 593.364 171.636C593.004 171.636 592.669 171.708 592.358 171.852C592.047 171.992 591.775 172.186 591.54 172.432C591.309 172.678 591.127 172.96 590.994 173.278C590.862 173.593 590.795 173.924 590.795 174.273C590.795 174.735 590.903 175.167 591.119 175.568C591.339 175.97 591.638 176.294 592.017 176.54C592.4 176.786 592.833 176.909 593.318 176.909ZM599.803 178L605.007 167.705V167.614H599.007V166.364H606.462V167.682L601.28 178H599.803ZM612.375 178H608.784V166.364H612.534C613.663 166.364 614.629 166.597 615.432 167.062C616.235 167.525 616.85 168.189 617.278 169.057C617.706 169.92 617.92 170.955 617.92 172.159C617.92 173.371 617.705 174.415 617.273 175.29C616.841 176.161 616.212 176.831 615.386 177.301C614.561 177.767 613.557 178 612.375 178ZM610.193 176.75H612.284C613.246 176.75 614.044 176.564 614.676 176.193C615.309 175.822 615.78 175.294 616.091 174.608C616.402 173.922 616.557 173.106 616.557 172.159C616.557 171.22 616.403 170.411 616.097 169.733C615.79 169.051 615.331 168.528 614.722 168.165C614.112 167.797 613.352 167.614 612.443 167.614H610.193V176.75ZM623.875 178.159C623.019 178.159 622.29 177.926 621.688 177.46C621.085 176.991 620.625 176.311 620.307 175.42C619.989 174.527 619.83 173.447 619.83 172.182C619.83 170.924 619.989 169.85 620.307 168.96C620.629 168.066 621.091 167.384 621.693 166.915C622.299 166.441 623.027 166.205 623.875 166.205C624.723 166.205 625.449 166.441 626.051 166.915C626.657 167.384 627.119 168.066 627.438 168.96C627.759 169.85 627.92 170.924 627.92 172.182C627.92 173.447 627.761 174.527 627.443 175.42C627.125 176.311 626.665 176.991 626.062 177.46C625.46 177.926 624.731 178.159 623.875 178.159ZM623.875 176.909C624.723 176.909 625.383 176.5 625.852 175.682C626.322 174.864 626.557 173.697 626.557 172.182C626.557 171.174 626.449 170.316 626.233 169.608C626.021 168.9 625.714 168.36 625.312 167.989C624.915 167.617 624.436 167.432 623.875 167.432C623.034 167.432 622.377 167.847 621.903 168.676C621.43 169.502 621.193 170.67 621.193 172.182C621.193 173.189 621.299 174.045 621.511 174.75C621.723 175.455 622.028 175.991 622.426 176.358C622.828 176.725 623.311 176.909 623.875 176.909ZM630.08 178V176.977L633.92 172.773C634.371 172.28 634.742 171.852 635.034 171.489C635.326 171.121 635.542 170.777 635.682 170.455C635.826 170.129 635.898 169.788 635.898 169.432C635.898 169.023 635.799 168.669 635.602 168.369C635.409 168.07 635.144 167.839 634.807 167.676C634.47 167.513 634.091 167.432 633.67 167.432C633.223 167.432 632.833 167.525 632.5 167.71C632.17 167.892 631.915 168.148 631.733 168.477C631.555 168.807 631.466 169.193 631.466 169.636H630.125C630.125 168.955 630.282 168.356 630.597 167.841C630.911 167.326 631.339 166.924 631.881 166.636C632.426 166.348 633.038 166.205 633.716 166.205C634.398 166.205 635.002 166.348 635.528 166.636C636.055 166.924 636.468 167.312 636.767 167.801C637.066 168.29 637.216 168.833 637.216 169.432C637.216 169.86 637.138 170.278 636.983 170.688C636.831 171.093 636.566 171.545 636.188 172.045C635.812 172.542 635.292 173.148 634.625 173.864L632.011 176.659V176.75H637.42V178H630.08Z" fill="white"/>
<rect x="672" y="40" width="64" height="80" rx="20" fill="#89610A"/>
<path d="M694.002 146.159C693.222 146.159 692.532 146.021 691.934 145.744C691.339 145.464 690.875 145.08 690.542 144.591C690.209 144.098 690.044 143.538 690.048 142.909C690.044 142.417 690.14 141.962 690.337 141.545C690.534 141.125 690.803 140.775 691.144 140.494C691.489 140.21 691.873 140.03 692.298 139.955V139.886C691.741 139.742 691.298 139.43 690.968 138.949C690.638 138.464 690.476 137.913 690.479 137.295C690.476 136.705 690.625 136.176 690.928 135.71C691.231 135.244 691.648 134.877 692.178 134.608C692.712 134.339 693.32 134.205 694.002 134.205C694.676 134.205 695.279 134.339 695.809 134.608C696.339 134.877 696.756 135.244 697.059 135.71C697.366 136.176 697.521 136.705 697.525 137.295C697.521 137.913 697.353 138.464 697.019 138.949C696.69 139.43 696.252 139.742 695.707 139.886V139.955C696.127 140.03 696.506 140.21 696.843 140.494C697.18 140.775 697.449 141.125 697.65 141.545C697.851 141.962 697.953 142.417 697.957 142.909C697.953 143.538 697.782 144.098 697.445 144.591C697.112 145.08 696.648 145.464 696.053 145.744C695.462 146.021 694.779 146.159 694.002 146.159ZM694.002 144.909C694.529 144.909 694.983 144.824 695.366 144.653C695.748 144.483 696.044 144.242 696.252 143.932C696.46 143.621 696.567 143.258 696.57 142.841C696.567 142.402 696.453 142.013 696.229 141.676C696.006 141.339 695.701 141.074 695.315 140.881C694.932 140.687 694.495 140.591 694.002 140.591C693.506 140.591 693.063 140.687 692.673 140.881C692.286 141.074 691.981 141.339 691.758 141.676C691.538 142.013 691.43 142.402 691.434 142.841C691.43 143.258 691.531 143.621 691.735 143.932C691.943 144.242 692.241 144.483 692.627 144.653C693.013 144.824 693.472 144.909 694.002 144.909ZM694.002 139.386C694.419 139.386 694.788 139.303 695.11 139.136C695.436 138.97 695.692 138.737 695.877 138.438C696.063 138.138 696.157 137.788 696.161 137.386C696.157 136.992 696.065 136.65 695.883 136.358C695.701 136.062 695.449 135.835 695.127 135.676C694.805 135.513 694.43 135.432 694.002 135.432C693.567 135.432 693.186 135.513 692.86 135.676C692.534 135.835 692.282 136.062 692.104 136.358C691.926 136.65 691.839 136.992 691.843 137.386C691.839 137.788 691.928 138.138 692.11 138.438C692.296 138.737 692.551 138.97 692.877 139.136C693.203 139.303 693.578 139.386 694.002 139.386ZM703.93 146.159C703.074 146.159 702.344 145.926 701.742 145.46C701.14 144.991 700.68 144.311 700.362 143.42C700.043 142.527 699.884 141.447 699.884 140.182C699.884 138.924 700.043 137.85 700.362 136.96C700.683 136.066 701.146 135.384 701.748 134.915C702.354 134.441 703.081 134.205 703.93 134.205C704.778 134.205 705.504 134.441 706.106 134.915C706.712 135.384 707.174 136.066 707.492 136.96C707.814 137.85 707.975 138.924 707.975 140.182C707.975 141.447 707.816 142.527 707.498 143.42C707.18 144.311 706.719 144.991 706.117 145.46C705.515 145.926 704.786 146.159 703.93 146.159ZM703.93 144.909C704.778 144.909 705.437 144.5 705.907 143.682C706.377 142.864 706.612 141.697 706.612 140.182C706.612 139.174 706.504 138.316 706.288 137.608C706.076 136.9 705.769 136.36 705.367 135.989C704.969 135.617 704.49 135.432 703.93 135.432C703.089 135.432 702.432 135.847 701.958 136.676C701.485 137.502 701.248 138.67 701.248 140.182C701.248 141.189 701.354 142.045 701.566 142.75C701.778 143.455 702.083 143.991 702.481 144.358C702.882 144.725 703.365 144.909 703.93 144.909ZM713.93 146.159C713.074 146.159 712.344 145.926 711.742 145.46C711.14 144.991 710.68 144.311 710.362 143.42C710.043 142.527 709.884 141.447 709.884 140.182C709.884 138.924 710.043 137.85 710.362 136.96C710.683 136.066 711.146 135.384 711.748 134.915C712.354 134.441 713.081 134.205 713.93 134.205C714.778 134.205 715.504 134.441 716.106 134.915C716.712 135.384 717.174 136.066 717.492 136.96C717.814 137.85 717.975 138.924 717.975 140.182C717.975 141.447 717.816 142.527 717.498 143.42C717.18 144.311 716.719 144.991 716.117 145.46C715.515 145.926 714.786 146.159 713.93 146.159ZM713.93 144.909C714.778 144.909 715.437 144.5 715.907 143.682C716.377 142.864 716.612 141.697 716.612 140.182C716.612 139.174 716.504 138.316 716.288 137.608C716.076 136.9 715.769 136.36 715.367 135.989C714.969 135.617 714.49 135.432 713.93 135.432C713.089 135.432 712.432 135.847 711.958 136.676C711.485 137.502 711.248 138.67 711.248 140.182C711.248 141.189 711.354 142.045 711.566 142.75C711.778 143.455 712.083 143.991 712.481 144.358C712.882 144.725 713.365 144.909 713.93 144.909Z" fill="white"/>
<path d="M679.893 178.159C679.112 178.159 678.423 178.021 677.825 177.744C677.23 177.464 676.766 177.08 676.433 176.591C676.099 176.098 675.934 175.538 675.938 174.909C675.934 174.417 676.031 173.962 676.228 173.545C676.425 173.125 676.694 172.775 677.035 172.494C677.379 172.21 677.764 172.03 678.188 171.955V171.886C677.631 171.742 677.188 171.43 676.859 170.949C676.529 170.464 676.366 169.913 676.37 169.295C676.366 168.705 676.516 168.176 676.819 167.71C677.122 167.244 677.539 166.877 678.069 166.608C678.603 166.339 679.211 166.205 679.893 166.205C680.567 166.205 681.169 166.339 681.7 166.608C682.23 166.877 682.647 167.244 682.95 167.71C683.256 168.176 683.412 168.705 683.415 169.295C683.412 169.913 683.243 170.464 682.91 170.949C682.58 171.43 682.143 171.742 681.597 171.886V171.955C682.018 172.03 682.397 172.21 682.734 172.494C683.071 172.775 683.34 173.125 683.54 173.545C683.741 173.962 683.844 174.417 683.847 174.909C683.844 175.538 683.673 176.098 683.336 176.591C683.003 177.08 682.539 177.464 681.944 177.744C681.353 178.021 680.669 178.159 679.893 178.159ZM679.893 176.909C680.419 176.909 680.874 176.824 681.256 176.653C681.639 176.483 681.934 176.242 682.143 175.932C682.351 175.621 682.457 175.258 682.461 174.841C682.457 174.402 682.344 174.013 682.12 173.676C681.897 173.339 681.592 173.074 681.205 172.881C680.823 172.687 680.385 172.591 679.893 172.591C679.397 172.591 678.953 172.687 678.563 172.881C678.177 173.074 677.872 173.339 677.648 173.676C677.429 174.013 677.321 174.402 677.325 174.841C677.321 175.258 677.421 175.621 677.626 175.932C677.834 176.242 678.131 176.483 678.518 176.653C678.904 176.824 679.362 176.909 679.893 176.909ZM679.893 171.386C680.309 171.386 680.679 171.303 681.001 171.136C681.326 170.97 681.582 170.737 681.768 170.438C681.953 170.138 682.048 169.788 682.052 169.386C682.048 168.992 681.955 168.65 681.773 168.358C681.592 168.062 681.34 167.835 681.018 167.676C680.696 167.513 680.321 167.432 679.893 167.432C679.457 167.432 679.076 167.513 678.751 167.676C678.425 167.835 678.173 168.062 677.995 168.358C677.817 168.65 677.73 168.992 677.734 169.386C677.73 169.788 677.819 170.138 678.001 170.438C678.186 170.737 678.442 170.97 678.768 171.136C679.094 171.303 679.469 171.386 679.893 171.386ZM689.729 166.205C690.207 166.208 690.684 166.299 691.161 166.477C691.638 166.655 692.074 166.951 692.468 167.364C692.862 167.773 693.178 168.331 693.417 169.04C693.656 169.748 693.775 170.636 693.775 171.705C693.775 172.739 693.676 173.657 693.479 174.46C693.286 175.259 693.006 175.934 692.638 176.483C692.275 177.032 691.832 177.449 691.309 177.733C690.79 178.017 690.203 178.159 689.548 178.159C688.896 178.159 688.315 178.03 687.803 177.773C687.296 177.511 686.879 177.15 686.553 176.688C686.231 176.222 686.025 175.682 685.934 175.068H687.32C687.445 175.602 687.693 176.044 688.065 176.392C688.44 176.737 688.934 176.909 689.548 176.909C690.445 176.909 691.154 176.517 691.673 175.733C692.195 174.949 692.457 173.841 692.457 172.409H692.366C692.154 172.727 691.902 173.002 691.61 173.233C691.318 173.464 690.995 173.642 690.638 173.767C690.282 173.892 689.904 173.955 689.502 173.955C688.835 173.955 688.224 173.79 687.667 173.46C687.114 173.127 686.671 172.67 686.337 172.091C686.008 171.508 685.843 170.841 685.843 170.091C685.843 169.379 686.002 168.727 686.32 168.136C686.642 167.542 687.093 167.068 687.673 166.716C688.256 166.364 688.942 166.193 689.729 166.205ZM689.729 167.455C689.252 167.455 688.822 167.574 688.44 167.812C688.061 168.047 687.76 168.366 687.536 168.767C687.317 169.165 687.207 169.606 687.207 170.091C687.207 170.576 687.313 171.017 687.525 171.415C687.741 171.809 688.034 172.123 688.406 172.358C688.781 172.589 689.207 172.705 689.684 172.705C690.044 172.705 690.379 172.634 690.69 172.494C691 172.35 691.271 172.155 691.502 171.909C691.737 171.659 691.921 171.377 692.053 171.062C692.186 170.744 692.252 170.413 692.252 170.068C692.252 169.614 692.142 169.187 691.923 168.79C691.707 168.392 691.407 168.07 691.025 167.824C690.646 167.578 690.214 167.455 689.729 167.455ZM699.873 178.159C699.396 178.152 698.918 178.061 698.441 177.886C697.964 177.712 697.528 177.419 697.134 177.006C696.74 176.589 696.424 176.027 696.185 175.318C695.947 174.606 695.827 173.712 695.827 172.636C695.827 171.606 695.924 170.693 696.117 169.898C696.31 169.098 696.591 168.426 696.958 167.881C697.326 167.331 697.769 166.915 698.288 166.631C698.81 166.347 699.399 166.205 700.055 166.205C700.706 166.205 701.286 166.335 701.793 166.597C702.305 166.854 702.721 167.214 703.043 167.676C703.365 168.138 703.574 168.67 703.668 169.273H702.282C702.153 168.75 701.903 168.316 701.532 167.972C701.161 167.627 700.668 167.455 700.055 167.455C699.153 167.455 698.443 167.847 697.924 168.631C697.409 169.415 697.149 170.515 697.146 171.932H697.237C697.449 171.61 697.701 171.335 697.992 171.108C698.288 170.877 698.613 170.699 698.969 170.574C699.326 170.449 699.702 170.386 700.1 170.386C700.767 170.386 701.377 170.553 701.93 170.886C702.483 171.216 702.926 171.672 703.259 172.256C703.593 172.835 703.759 173.5 703.759 174.25C703.759 174.97 703.598 175.629 703.276 176.227C702.954 176.822 702.502 177.295 701.918 177.648C701.339 177.996 700.657 178.167 699.873 178.159ZM699.873 176.909C700.35 176.909 700.778 176.79 701.157 176.551C701.54 176.312 701.841 175.992 702.06 175.591C702.284 175.189 702.396 174.742 702.396 174.25C702.396 173.769 702.288 173.331 702.072 172.938C701.86 172.54 701.566 172.223 701.191 171.989C700.82 171.754 700.396 171.636 699.918 171.636C699.558 171.636 699.223 171.708 698.913 171.852C698.602 171.992 698.329 172.186 698.094 172.432C697.863 172.678 697.682 172.96 697.549 173.278C697.416 173.593 697.35 173.924 697.35 174.273C697.35 174.735 697.458 175.167 697.674 175.568C697.894 175.97 698.193 176.294 698.572 176.54C698.954 176.786 699.388 176.909 699.873 176.909ZM710.085 166.364V178H708.675V167.841H708.607L705.766 169.727V168.295L708.675 166.364H710.085ZM717.227 178.159C716.371 178.159 715.641 177.926 715.039 177.46C714.437 176.991 713.977 176.311 713.658 175.42C713.34 174.527 713.181 173.447 713.181 172.182C713.181 170.924 713.34 169.85 713.658 168.96C713.98 168.066 714.442 167.384 715.045 166.915C715.651 166.441 716.378 166.205 717.227 166.205C718.075 166.205 718.8 166.441 719.403 166.915C720.009 167.384 720.471 168.066 720.789 168.96C721.111 169.85 721.272 170.924 721.272 172.182C721.272 173.447 721.113 174.527 720.795 175.42C720.477 176.311 720.016 176.991 719.414 177.46C718.812 177.926 718.083 178.159 717.227 178.159ZM717.227 176.909C718.075 176.909 718.734 176.5 719.204 175.682C719.674 174.864 719.908 173.697 719.908 172.182C719.908 171.174 719.8 170.316 719.585 169.608C719.372 168.9 719.066 168.36 718.664 167.989C718.266 167.617 717.787 167.432 717.227 167.432C716.386 167.432 715.728 167.847 715.255 168.676C714.781 169.502 714.545 170.67 714.545 172.182C714.545 173.189 714.651 174.045 714.863 174.75C715.075 175.455 715.38 175.991 715.778 176.358C716.179 176.725 716.662 176.909 717.227 176.909ZM724.113 178H722.636L726.908 166.364H728.363L732.636 178H731.158L727.681 168.205H727.59L724.113 178ZM724.658 173.455H730.613V174.705H724.658V173.455Z" fill="white"/>
<rect x="768" y="40" width="64" height="80" rx="20" fill="#744F0F"/>
<path d="M789.917 134.205C790.394 134.208 790.871 134.299 791.349 134.477C791.826 134.655 792.262 134.951 792.656 135.364C793.049 135.773 793.366 136.331 793.604 137.04C793.843 137.748 793.962 138.636 793.962 139.705C793.962 140.739 793.864 141.657 793.667 142.46C793.474 143.259 793.193 143.934 792.826 144.483C792.462 145.032 792.019 145.449 791.496 145.733C790.978 146.017 790.39 146.159 789.735 146.159C789.084 146.159 788.502 146.03 787.991 145.773C787.483 145.511 787.067 145.15 786.741 144.688C786.419 144.222 786.212 143.682 786.121 143.068H787.508C787.633 143.602 787.881 144.044 788.252 144.392C788.627 144.737 789.121 144.909 789.735 144.909C790.633 144.909 791.341 144.517 791.86 143.733C792.383 142.949 792.644 141.841 792.644 140.409H792.553C792.341 140.727 792.089 141.002 791.798 141.233C791.506 141.464 791.182 141.642 790.826 141.767C790.47 141.892 790.091 141.955 789.69 141.955C789.023 141.955 788.411 141.79 787.854 141.46C787.301 141.127 786.858 140.67 786.525 140.091C786.195 139.508 786.031 138.841 786.031 138.091C786.031 137.379 786.19 136.727 786.508 136.136C786.83 135.542 787.281 135.068 787.86 134.716C788.443 134.364 789.129 134.193 789.917 134.205ZM789.917 135.455C789.44 135.455 789.01 135.574 788.627 135.812C788.248 136.047 787.947 136.366 787.724 136.767C787.504 137.165 787.394 137.606 787.394 138.091C787.394 138.576 787.5 139.017 787.712 139.415C787.928 139.809 788.222 140.123 788.593 140.358C788.968 140.589 789.394 140.705 789.871 140.705C790.231 140.705 790.567 140.634 790.877 140.494C791.188 140.35 791.459 140.155 791.69 139.909C791.924 139.659 792.108 139.377 792.241 139.062C792.373 138.744 792.44 138.413 792.44 138.068C792.44 137.614 792.33 137.187 792.11 136.79C791.894 136.392 791.595 136.07 791.212 135.824C790.834 135.578 790.402 135.455 789.917 135.455ZM799.992 146.159C799.136 146.159 798.407 145.926 797.805 145.46C797.202 144.991 796.742 144.311 796.424 143.42C796.106 142.527 795.947 141.447 795.947 140.182C795.947 138.924 796.106 137.85 796.424 136.96C796.746 136.066 797.208 135.384 797.81 134.915C798.416 134.441 799.144 134.205 799.992 134.205C800.841 134.205 801.566 134.441 802.168 134.915C802.774 135.384 803.237 136.066 803.555 136.96C803.877 137.85 804.038 138.924 804.038 140.182C804.038 141.447 803.879 142.527 803.56 143.42C803.242 144.311 802.782 144.991 802.18 145.46C801.577 145.926 800.848 146.159 799.992 146.159ZM799.992 144.909C800.841 144.909 801.5 144.5 801.969 143.682C802.439 142.864 802.674 141.697 802.674 140.182C802.674 139.174 802.566 138.316 802.35 137.608C802.138 136.9 801.831 136.36 801.43 135.989C801.032 135.617 800.553 135.432 799.992 135.432C799.151 135.432 798.494 135.847 798.021 136.676C797.547 137.502 797.31 138.67 797.31 140.182C797.31 141.189 797.416 142.045 797.629 142.75C797.841 143.455 798.146 143.991 798.543 144.358C798.945 144.725 799.428 144.909 799.992 144.909ZM809.992 146.159C809.136 146.159 808.407 145.926 807.805 145.46C807.202 144.991 806.742 144.311 806.424 143.42C806.106 142.527 805.947 141.447 805.947 140.182C805.947 138.924 806.106 137.85 806.424 136.96C806.746 136.066 807.208 135.384 807.81 134.915C808.416 134.441 809.144 134.205 809.992 134.205C810.841 134.205 811.566 134.441 812.168 134.915C812.774 135.384 813.237 136.066 813.555 136.96C813.877 137.85 814.038 138.924 814.038 140.182C814.038 141.447 813.879 142.527 813.56 143.42C813.242 144.311 812.782 144.991 812.18 145.46C811.577 145.926 810.848 146.159 809.992 146.159ZM809.992 144.909C810.841 144.909 811.5 144.5 811.969 143.682C812.439 142.864 812.674 141.697 812.674 140.182C812.674 139.174 812.566 138.316 812.35 137.608C812.138 136.9 811.831 136.36 811.43 135.989C811.032 135.617 810.553 135.432 809.992 135.432C809.151 135.432 808.494 135.847 808.021 136.676C807.547 137.502 807.31 138.67 807.31 140.182C807.31 141.189 807.416 142.045 807.629 142.75C807.841 143.455 808.146 143.991 808.543 144.358C808.945 144.725 809.428 144.909 809.992 144.909Z" fill="white"/>
<path d="M772.81 178L778.015 167.705V167.614H772.015V166.364H779.469V167.682L774.288 178H772.81ZM780.377 175.614V174.455L785.491 166.364H786.332V168.159H785.763L781.9 174.273V174.364H788.786V175.614H780.377ZM785.854 178V175.261V174.722V166.364H787.195V178H785.854ZM790.643 175.614V174.455L795.756 166.364H796.597V168.159H796.029L792.165 174.273V174.364H799.052V175.614H790.643ZM796.12 178V175.261V174.722V166.364H797.461V178H796.12ZM801.386 178V166.364H808.363V167.614H802.795V171.545H807.84V172.795H802.795V178H801.386ZM814.367 178.159C813.511 178.159 812.782 177.926 812.18 177.46C811.577 176.991 811.117 176.311 810.799 175.42C810.481 174.527 810.322 173.447 810.322 172.182C810.322 170.924 810.481 169.85 810.799 168.96C811.121 168.066 811.583 167.384 812.185 166.915C812.791 166.441 813.519 166.205 814.367 166.205C815.216 166.205 815.941 166.441 816.543 166.915C817.149 167.384 817.612 168.066 817.93 168.96C818.252 169.85 818.413 170.924 818.413 172.182C818.413 173.447 818.254 174.527 817.935 175.42C817.617 176.311 817.157 176.991 816.555 177.46C815.952 177.926 815.223 178.159 814.367 178.159ZM814.367 176.909C815.216 176.909 815.875 176.5 816.344 175.682C816.814 174.864 817.049 173.697 817.049 172.182C817.049 171.174 816.941 170.316 816.725 169.608C816.513 168.9 816.206 168.36 815.805 167.989C815.407 167.617 814.928 167.432 814.367 167.432C813.526 167.432 812.869 167.847 812.396 168.676C811.922 169.502 811.685 170.67 811.685 172.182C811.685 173.189 811.791 174.045 812.004 174.75C812.216 175.455 812.521 175.991 812.918 176.358C813.32 176.725 813.803 176.909 814.367 176.909ZM820.776 178V166.364H827.754V167.614H822.185V171.545H827.231V172.795H822.185V178H820.776Z" fill="white"/>
<rect x="864" y="40" width="64" height="80" rx="20" fill="#442A04"/>
<path d="M886.05 134.205C886.527 134.208 887.004 134.299 887.482 134.477C887.959 134.655 888.394 134.951 888.788 135.364C889.182 135.773 889.499 136.331 889.737 137.04C889.976 137.748 890.095 138.636 890.095 139.705C890.095 140.739 889.997 141.657 889.8 142.46C889.607 143.259 889.326 143.934 888.959 144.483C888.595 145.032 888.152 145.449 887.629 145.733C887.11 146.017 886.523 146.159 885.868 146.159C885.216 146.159 884.635 146.03 884.124 145.773C883.616 145.511 883.199 145.15 882.874 144.688C882.552 144.222 882.345 143.682 882.254 143.068H883.641C883.766 143.602 884.014 144.044 884.385 144.392C884.76 144.737 885.254 144.909 885.868 144.909C886.766 144.909 887.474 144.517 887.993 143.733C888.516 142.949 888.777 141.841 888.777 140.409H888.686C888.474 140.727 888.222 141.002 887.93 141.233C887.639 141.464 887.315 141.642 886.959 141.767C886.603 141.892 886.224 141.955 885.822 141.955C885.156 141.955 884.544 141.79 883.987 141.46C883.434 141.127 882.991 140.67 882.658 140.091C882.328 139.508 882.163 138.841 882.163 138.091C882.163 137.379 882.322 136.727 882.641 136.136C882.963 135.542 883.413 135.068 883.993 134.716C884.576 134.364 885.262 134.193 886.05 134.205ZM886.05 135.455C885.572 135.455 885.143 135.574 884.76 135.812C884.381 136.047 884.08 136.366 883.857 136.767C883.637 137.165 883.527 137.606 883.527 138.091C883.527 138.576 883.633 139.017 883.845 139.415C884.061 139.809 884.355 140.123 884.726 140.358C885.101 140.589 885.527 140.705 886.004 140.705C886.364 140.705 886.699 140.634 887.01 140.494C887.321 140.35 887.591 140.155 887.822 139.909C888.057 139.659 888.241 139.377 888.374 139.062C888.506 138.744 888.572 138.413 888.572 138.068C888.572 137.614 888.463 137.187 888.243 136.79C888.027 136.392 887.728 136.07 887.345 135.824C886.966 135.578 886.535 135.455 886.05 135.455ZM895.966 146.159C895.299 146.159 894.699 146.027 894.165 145.761C893.631 145.496 893.203 145.133 892.881 144.67C892.559 144.208 892.383 143.682 892.352 143.091H893.716C893.769 143.617 894.008 144.053 894.432 144.398C894.86 144.739 895.371 144.909 895.966 144.909C896.443 144.909 896.867 144.797 897.239 144.574C897.614 144.35 897.907 144.044 898.119 143.653C898.335 143.259 898.443 142.814 898.443 142.318C898.443 141.811 898.331 141.358 898.108 140.96C897.888 140.559 897.585 140.242 897.199 140.011C896.813 139.78 896.371 139.663 895.875 139.659C895.519 139.655 895.153 139.71 894.778 139.824C894.403 139.934 894.095 140.076 893.852 140.25L892.534 140.091L893.239 134.364H899.284V135.614H894.42L894.011 139.045H894.08C894.318 138.856 894.617 138.699 894.977 138.574C895.337 138.449 895.712 138.386 896.102 138.386C896.814 138.386 897.449 138.557 898.006 138.898C898.566 139.235 899.006 139.697 899.324 140.284C899.646 140.871 899.807 141.542 899.807 142.295C899.807 143.038 899.64 143.701 899.307 144.284C898.977 144.864 898.523 145.322 897.943 145.659C897.364 145.992 896.705 146.159 895.966 146.159ZM905.859 146.159C905.003 146.159 904.274 145.926 903.672 145.46C903.07 144.991 902.609 144.311 902.291 143.42C901.973 142.527 901.814 141.447 901.814 140.182C901.814 138.924 901.973 137.85 902.291 136.96C902.613 136.066 903.075 135.384 903.678 134.915C904.284 134.441 905.011 134.205 905.859 134.205C906.708 134.205 907.433 134.441 908.036 134.915C908.642 135.384 909.104 136.066 909.422 136.96C909.744 137.85 909.905 138.924 909.905 140.182C909.905 141.447 909.746 142.527 909.428 143.42C909.109 144.311 908.649 144.991 908.047 145.46C907.445 145.926 906.715 146.159 905.859 146.159ZM905.859 144.909C906.708 144.909 907.367 144.5 907.837 143.682C908.306 142.864 908.541 141.697 908.541 140.182C908.541 139.174 908.433 138.316 908.217 137.608C908.005 136.9 907.698 136.36 907.297 135.989C906.899 135.617 906.42 135.432 905.859 135.432C905.018 135.432 904.361 135.847 903.888 136.676C903.414 137.502 903.178 138.67 903.178 140.182C903.178 141.189 903.284 142.045 903.496 142.75C903.708 143.455 904.013 143.991 904.411 144.358C904.812 144.725 905.295 144.909 905.859 144.909Z" fill="white"/>
<path d="M866.283 175.614V174.455L871.397 166.364H872.238V168.159H871.67L867.806 174.273V174.364H874.692V175.614H866.283ZM871.761 178V175.261V174.722V166.364H873.102V178H871.761ZM876.549 175.614V174.455L881.663 166.364H882.504V168.159H881.935L878.072 174.273V174.364H884.958V175.614H876.549ZM882.026 178V175.261V174.722V166.364H883.367V178H882.026ZM887.087 178V176.977L890.928 172.773C891.379 172.28 891.75 171.852 892.042 171.489C892.334 171.121 892.549 170.777 892.69 170.455C892.834 170.129 892.906 169.788 892.906 169.432C892.906 169.023 892.807 168.669 892.61 168.369C892.417 168.07 892.152 167.839 891.815 167.676C891.478 167.513 891.099 167.432 890.678 167.432C890.231 167.432 889.841 167.525 889.508 167.71C889.178 167.892 888.923 168.148 888.741 168.477C888.563 168.807 888.474 169.193 888.474 169.636H887.133C887.133 168.955 887.29 168.356 887.604 167.841C887.919 167.326 888.347 166.924 888.888 166.636C889.434 166.348 890.046 166.205 890.724 166.205C891.406 166.205 892.01 166.348 892.536 166.636C893.063 166.924 893.476 167.312 893.775 167.801C894.074 168.29 894.224 168.833 894.224 169.432C894.224 169.86 894.146 170.278 893.991 170.688C893.839 171.093 893.574 171.545 893.195 172.045C892.82 172.542 892.299 173.148 891.633 173.864L889.019 176.659V176.75H894.428V178H887.087ZM897.457 178H895.979L900.252 166.364H901.707L905.979 178H904.502L901.025 168.205H900.934L897.457 178ZM898.002 173.455H903.957V174.705H898.002V173.455ZM911.383 178.159C910.527 178.159 909.798 177.926 909.195 177.46C908.593 176.991 908.133 176.311 907.815 175.42C907.496 174.527 907.337 173.447 907.337 172.182C907.337 170.924 907.496 169.85 907.815 168.96C908.137 168.066 908.599 167.384 909.201 166.915C909.807 166.441 910.534 166.205 911.383 166.205C912.231 166.205 912.957 166.441 913.559 166.915C914.165 167.384 914.627 168.066 914.945 168.96C915.267 169.85 915.428 170.924 915.428 172.182C915.428 173.447 915.269 174.527 914.951 175.42C914.633 176.311 914.173 176.991 913.57 177.46C912.968 177.926 912.239 178.159 911.383 178.159ZM911.383 176.909C912.231 176.909 912.89 176.5 913.36 175.682C913.83 174.864 914.065 173.697 914.065 172.182C914.065 171.174 913.957 170.316 913.741 169.608C913.529 168.9 913.222 168.36 912.82 167.989C912.423 167.617 911.943 167.432 911.383 167.432C910.542 167.432 909.885 167.847 909.411 168.676C908.938 169.502 908.701 170.67 908.701 172.182C908.701 173.189 908.807 174.045 909.019 174.75C909.231 175.455 909.536 175.991 909.934 176.358C910.335 176.725 910.818 176.909 911.383 176.909ZM917.315 175.614V174.455L922.428 166.364H923.269V168.159H922.701L918.837 174.273V174.364H925.724V175.614H917.315ZM922.792 178V175.261V174.722V166.364H924.133V178H922.792Z" fill="white"/>
</svg>
