<svg width="928" height="184" viewBox="0 0 928 184" fill="none" xmlns="http://www.w3.org/2000/svg">
<path d="M8.0696 9.27273C8.00142 8.69697 7.72491 8.25 7.24006 7.93182C6.75521 7.61364 6.16051 7.45455 5.45597 7.45455C4.94081 7.45455 4.49006 7.53788 4.10369 7.70455C3.72112 7.87121 3.42188 8.10038 3.20597 8.39205C2.99384 8.68371 2.88778 9.01515 2.88778 9.38636C2.88778 9.69697 2.96165 9.96401 3.10938 10.1875C3.26089 10.4072 3.45407 10.5909 3.68892 10.7386C3.92377 10.8826 4.16998 11.0019 4.42756 11.0966C4.68513 11.1875 4.92188 11.2614 5.13778 11.3182L6.3196 11.6364C6.62263 11.7159 6.95975 11.8258 7.33097 11.9659C7.70597 12.1061 8.06392 12.2973 8.40483 12.5398C8.74953 12.7784 9.03362 13.0852 9.2571 13.4602C9.48059 13.8352 9.59233 14.2955 9.59233 14.8409C9.59233 15.4697 9.42756 16.0379 9.09801 16.5455C8.77225 17.053 8.29498 17.4564 7.66619 17.7557C7.04119 18.0549 6.28172 18.2045 5.38778 18.2045C4.55445 18.2045 3.83286 18.0701 3.22301 17.8011C2.61695 17.5322 2.13968 17.1572 1.79119 16.6761C1.4465 16.1951 1.25142 15.6364 1.20597 15H2.66051C2.69839 15.4394 2.84612 15.803 3.10369 16.0909C3.36506 16.375 3.6946 16.5871 4.09233 16.7273C4.49384 16.8636 4.92566 16.9318 5.38778 16.9318C5.92566 16.9318 6.40862 16.8447 6.83665 16.6705C7.26468 16.4924 7.60369 16.2462 7.85369 15.9318C8.10369 15.6136 8.22869 15.2424 8.22869 14.8182C8.22869 14.4318 8.12074 14.1174 7.90483 13.875C7.68892 13.6326 7.40483 13.4356 7.05256 13.2841C6.70028 13.1326 6.3196 13 5.91051 12.8864L4.47869 12.4773C3.5696 12.2159 2.84991 11.8428 2.3196 11.358C1.7893 10.8731 1.52415 10.2386 1.52415 9.45455C1.52415 8.80303 1.70028 8.23485 2.05256 7.75C2.40862 7.26136 2.88589 6.88258 3.48438 6.61364C4.08665 6.34091 4.759 6.20455 5.50142 6.20455C6.25142 6.20455 6.91809 6.33901 7.50142 6.60795C8.08475 6.87311 8.54688 7.23674 8.88778 7.69886C9.23248 8.16098 9.4143 8.68561 9.43324 9.27273H8.0696ZM17.2273 14.4318V9.27273H18.5682V18H17.2273V16.5227H17.1364C16.9318 16.9659 16.6136 17.3428 16.1818 17.6534C15.75 17.9602 15.2045 18.1136 14.5455 18.1136C14 18.1136 13.5152 17.9943 13.0909 17.7557C12.6667 17.5133 12.3333 17.1496 12.0909 16.6648C11.8485 16.1761 11.7273 15.5606 11.7273 14.8182V9.27273H13.0682V14.7273C13.0682 15.3636 13.2462 15.8712 13.6023 16.25C13.9621 16.6288 14.4205 16.8182 14.9773 16.8182C15.3106 16.8182 15.6496 16.733 15.9943 16.5625C16.3428 16.392 16.6345 16.1307 16.8693 15.7784C17.108 15.4261 17.2273 14.9773 17.2273 14.4318ZM24.5696 18.1818C23.7514 18.1818 23.0469 17.9886 22.456 17.6023C21.8651 17.2159 21.4105 16.6837 21.0923 16.0057C20.7741 15.3277 20.6151 14.553 20.6151 13.6818C20.6151 12.7955 20.7779 12.0133 21.1037 11.3352C21.4332 10.6534 21.8916 10.1212 22.4787 9.73864C23.0696 9.35227 23.759 9.15909 24.5469 9.15909C25.1605 9.15909 25.7135 9.27273 26.206 9.5C26.6984 9.72727 27.1018 10.0455 27.4162 10.4545C27.7306 10.8636 27.9257 11.3409 28.0014 11.8864H26.6605C26.5582 11.4886 26.331 11.1364 25.9787 10.8295C25.6302 10.5189 25.1605 10.3636 24.5696 10.3636C24.0469 10.3636 23.5885 10.5 23.1946 10.7727C22.8045 11.0417 22.4995 11.4223 22.2798 11.9148C22.0639 12.4034 21.956 12.9773 21.956 13.6364C21.956 14.3106 22.062 14.8977 22.2741 15.3977C22.4901 15.8977 22.7931 16.286 23.1832 16.5625C23.5772 16.839 24.0393 16.9773 24.5696 16.9773C24.9181 16.9773 25.2344 16.9167 25.5185 16.7955C25.8026 16.6742 26.0431 16.5 26.2401 16.2727C26.437 16.0455 26.5772 15.7727 26.6605 15.4545H28.0014C27.9257 15.9697 27.7382 16.4337 27.4389 16.8466C27.1435 17.2557 26.7514 17.5814 26.2628 17.8239C25.7779 18.0625 25.2135 18.1818 24.5696 18.1818ZM33.5071 18.1818C32.6889 18.1818 31.9844 17.9886 31.3935 17.6023C30.8026 17.2159 30.348 16.6837 30.0298 16.0057C29.7116 15.3277 29.5526 14.553 29.5526 13.6818C29.5526 12.7955 29.7154 12.0133 30.0412 11.3352C30.3707 10.6534 30.8291 10.1212 31.4162 9.73864C32.0071 9.35227 32.6965 9.15909 33.4844 9.15909C34.098 9.15909 34.651 9.27273 35.1435 9.5C35.6359 9.72727 36.0393 10.0455 36.3537 10.4545C36.6681 10.8636 36.8632 11.3409 36.9389 11.8864H35.598C35.4957 11.4886 35.2685 11.1364 34.9162 10.8295C34.5677 10.5189 34.098 10.3636 33.5071 10.3636C32.9844 10.3636 32.526 10.5 32.1321 10.7727C31.742 11.0417 31.437 11.4223 31.2173 11.9148C31.0014 12.4034 30.8935 12.9773 30.8935 13.6364C30.8935 14.3106 30.9995 14.8977 31.2116 15.3977C31.4276 15.8977 31.7306 16.286 32.1207 16.5625C32.5147 16.839 32.9768 16.9773 33.5071 16.9773C33.8556 16.9773 34.1719 16.9167 34.456 16.7955C34.7401 16.6742 34.9806 16.5 35.1776 16.2727C35.3745 16.0455 35.5147 15.7727 35.598 15.4545H36.9389C36.8632 15.9697 36.6757 16.4337 36.3764 16.8466C36.081 17.2557 35.6889 17.5814 35.2003 17.8239C34.7154 18.0625 34.151 18.1818 33.5071 18.1818ZM42.5582 18.1818C41.7173 18.1818 40.992 17.9962 40.3821 17.625C39.776 17.25 39.3082 16.7273 38.9787 16.0568C38.6529 15.3826 38.4901 14.5985 38.4901 13.7045C38.4901 12.8106 38.6529 12.0227 38.9787 11.3409C39.3082 10.6553 39.7666 10.1212 40.3537 9.73864C40.9446 9.35227 41.634 9.15909 42.4219 9.15909C42.8764 9.15909 43.3253 9.23485 43.7685 9.38636C44.2116 9.53788 44.6151 9.78409 44.9787 10.125C45.3423 10.4621 45.6321 10.9091 45.848 11.4659C46.0639 12.0227 46.1719 12.7083 46.1719 13.5227V14.0909H39.4446V12.9318H44.8082C44.8082 12.4394 44.7098 12 44.5128 11.6136C44.3196 11.2273 44.0431 10.9223 43.6832 10.6989C43.3272 10.4754 42.9067 10.3636 42.4219 10.3636C41.8878 10.3636 41.4257 10.4962 41.0355 10.7614C40.6491 11.0227 40.3518 11.3636 40.1435 11.7841C39.9351 12.2045 39.831 12.6553 39.831 13.1364V13.9091C39.831 14.5682 39.9446 15.1269 40.1719 15.5852C40.4029 16.0398 40.723 16.3864 41.1321 16.625C41.5412 16.8598 42.0166 16.9773 42.5582 16.9773C42.9105 16.9773 43.2287 16.928 43.5128 16.8295C43.8007 16.7273 44.0488 16.5758 44.2571 16.375C44.4654 16.1705 44.6264 15.9167 44.7401 15.6136L46.0355 15.9773C45.8991 16.4167 45.67 16.803 45.348 17.1364C45.026 17.4659 44.6283 17.7235 44.1548 17.9091C43.6813 18.0909 43.1491 18.1818 42.5582 18.1818ZM54.3935 11.2273L53.1889 11.5682C53.1132 11.3674 53.0014 11.1723 52.8537 10.983C52.7098 10.7898 52.5128 10.6307 52.2628 10.5057C52.0128 10.3807 51.6927 10.3182 51.3026 10.3182C50.7685 10.3182 50.3234 10.4413 49.9673 10.6875C49.6151 10.9299 49.4389 11.2386 49.4389 11.6136C49.4389 11.947 49.5601 12.2102 49.8026 12.4034C50.045 12.5966 50.4238 12.7576 50.9389 12.8864L52.2344 13.2045C53.0147 13.3939 53.5961 13.6837 53.9787 14.0739C54.3613 14.4602 54.5526 14.9583 54.5526 15.5682C54.5526 16.0682 54.4086 16.5152 54.1207 16.9091C53.8366 17.303 53.4389 17.6136 52.9276 17.8409C52.4162 18.0682 51.8215 18.1818 51.1435 18.1818C50.2533 18.1818 49.5166 17.9886 48.9332 17.6023C48.3499 17.2159 47.9806 16.6515 47.8253 15.9091L49.098 15.5909C49.2192 16.0606 49.4484 16.4129 49.7855 16.6477C50.1264 16.8826 50.5715 17 51.1207 17C51.7457 17 52.242 16.8674 52.6094 16.6023C52.9806 16.3333 53.1662 16.0114 53.1662 15.6364C53.1662 15.3333 53.0601 15.0795 52.848 14.875C52.6359 14.6667 52.3101 14.5114 51.8707 14.4091L50.4162 14.0682C49.617 13.8788 49.0298 13.5852 48.6548 13.1875C48.2836 12.786 48.098 12.2841 48.098 11.6818C48.098 11.1894 48.2363 10.7538 48.5128 10.375C48.7931 9.99621 49.1738 9.69886 49.6548 9.48295C50.1397 9.26705 50.6889 9.15909 51.3026 9.15909C52.1662 9.15909 52.8442 9.34848 53.3366 9.72727C53.8329 10.1061 54.1851 10.6061 54.3935 11.2273ZM62.7528 11.2273L61.5483 11.5682C61.4725 11.3674 61.3608 11.1723 61.2131 10.983C61.0691 10.7898 60.8722 10.6307 60.6222 10.5057C60.3722 10.3807 60.0521 10.3182 59.6619 10.3182C59.1278 10.3182 58.6828 10.4413 58.3267 10.6875C57.9744 10.9299 57.7983 11.2386 57.7983 11.6136C57.7983 11.947 57.9195 12.2102 58.1619 12.4034C58.4044 12.5966 58.7831 12.7576 59.2983 12.8864L60.5938 13.2045C61.3741 13.3939 61.9555 13.6837 62.3381 14.0739C62.7206 14.4602 62.9119 14.9583 62.9119 15.5682C62.9119 16.0682 62.768 16.5152 62.4801 16.9091C62.196 17.303 61.7983 17.6136 61.2869 17.8409C60.7756 18.0682 60.1809 18.1818 59.5028 18.1818C58.6127 18.1818 57.8759 17.9886 57.2926 17.6023C56.7093 17.2159 56.34 16.6515 56.1847 15.9091L57.4574 15.5909C57.5786 16.0606 57.8078 16.4129 58.1449 16.6477C58.4858 16.8826 58.9309 17 59.4801 17C60.1051 17 60.6013 16.8674 60.9688 16.6023C61.34 16.3333 61.5256 16.0114 61.5256 15.6364C61.5256 15.3333 61.4195 15.0795 61.2074 14.875C60.9953 14.6667 60.6695 14.5114 60.2301 14.4091L58.7756 14.0682C57.9763 13.8788 57.3892 13.5852 57.0142 13.1875C56.643 12.786 56.4574 12.2841 56.4574 11.6818C56.4574 11.1894 56.5956 10.7538 56.8722 10.375C57.1525 9.99621 57.5331 9.69886 58.0142 9.48295C58.4991 9.26705 59.0483 9.15909 59.6619 9.15909C60.5256 9.15909 61.2036 9.34848 61.696 9.72727C62.1922 10.1061 62.5445 10.6061 62.7528 11.2273Z" fill="white"/>
<rect y="40" width="64" height="80" rx="20" fill="#CDFEE7"/>
<path d="M23.5767 134.364V146H22.1676V135.841H22.0994L19.2585 137.727V136.295L22.1676 134.364H23.5767ZM30.7188 146.159C29.8627 146.159 29.1335 145.926 28.5312 145.46C27.929 144.991 27.4688 144.311 27.1506 143.42C26.8324 142.527 26.6733 141.447 26.6733 140.182C26.6733 138.924 26.8324 137.85 27.1506 136.96C27.4725 136.066 27.9347 135.384 28.5369 134.915C29.143 134.441 29.8703 134.205 30.7188 134.205C31.5672 134.205 32.2926 134.441 32.8949 134.915C33.5009 135.384 33.9631 136.066 34.2812 136.96C34.6032 137.85 34.7642 138.924 34.7642 140.182C34.7642 141.447 34.6051 142.527 34.2869 143.42C33.9688 144.311 33.5085 144.991 32.9062 145.46C32.304 145.926 31.5748 146.159 30.7188 146.159ZM30.7188 144.909C31.5672 144.909 32.2263 144.5 32.696 143.682C33.1657 142.864 33.4006 141.697 33.4006 140.182C33.4006 139.174 33.2926 138.316 33.0767 137.608C32.8646 136.9 32.5578 136.36 32.1562 135.989C31.7585 135.617 31.2794 135.432 30.7188 135.432C29.8778 135.432 29.2206 135.847 28.7472 136.676C28.2737 137.502 28.0369 138.67 28.0369 140.182C28.0369 141.189 28.143 142.045 28.3551 142.75C28.5672 143.455 28.8722 143.991 29.2699 144.358C29.6714 144.725 30.1544 144.909 30.7188 144.909ZM40.7188 146.159C39.8627 146.159 39.1335 145.926 38.5312 145.46C37.929 144.991 37.4688 144.311 37.1506 143.42C36.8324 142.527 36.6733 141.447 36.6733 140.182C36.6733 138.924 36.8324 137.85 37.1506 136.96C37.4725 136.066 37.9347 135.384 38.5369 134.915C39.143 134.441 39.8703 134.205 40.7188 134.205C41.5672 134.205 42.2926 134.441 42.8949 134.915C43.5009 135.384 43.9631 136.066 44.2812 136.96C44.6032 137.85 44.7642 138.924 44.7642 140.182C44.7642 141.447 44.6051 142.527 44.2869 143.42C43.9688 144.311 43.5085 144.991 42.9062 145.46C42.304 145.926 41.5748 146.159 40.7188 146.159ZM40.7188 144.909C41.5672 144.909 42.2263 144.5 42.696 143.682C43.1657 142.864 43.4006 141.697 43.4006 140.182C43.4006 139.174 43.2926 138.316 43.0767 137.608C42.8646 136.9 42.5578 136.36 42.1562 135.989C41.7585 135.617 41.2794 135.432 40.7188 135.432C39.8778 135.432 39.2206 135.847 38.7472 136.676C38.2737 137.502 38.0369 138.67 38.0369 140.182C38.0369 141.189 38.143 142.045 38.3551 142.75C38.5672 143.455 38.8722 143.991 39.2699 144.358C39.6714 144.725 40.1544 144.909 40.7188 144.909Z" fill="white"/>
<path d="M12.3743 170H10.9652C10.8819 169.595 10.736 169.239 10.5277 168.932C10.3232 168.625 10.0732 168.367 9.7777 168.159C9.48603 167.947 9.16217 167.788 8.80611 167.682C8.45005 167.576 8.07884 167.523 7.69247 167.523C6.98793 167.523 6.34967 167.701 5.7777 168.057C5.20952 168.413 4.75687 168.938 4.41974 169.631C4.08641 170.324 3.91974 171.174 3.91974 172.182C3.91974 173.189 4.08641 174.04 4.41974 174.733C4.75687 175.426 5.20952 175.951 5.7777 176.307C6.34967 176.663 6.98793 176.841 7.69247 176.841C8.07884 176.841 8.45005 176.788 8.80611 176.682C9.16217 176.576 9.48603 176.419 9.7777 176.21C10.0732 175.998 10.3232 175.739 10.5277 175.432C10.736 175.121 10.8819 174.765 10.9652 174.364H12.3743C12.2682 174.958 12.075 175.491 11.7947 175.96C11.5144 176.43 11.166 176.83 10.7493 177.159C10.3326 177.485 9.86482 177.733 9.34588 177.903C8.83073 178.074 8.27959 178.159 7.69247 178.159C6.70005 178.159 5.81747 177.917 5.04474 177.432C4.27202 176.947 3.66406 176.258 3.22088 175.364C2.7777 174.47 2.55611 173.409 2.55611 172.182C2.55611 170.955 2.7777 169.894 3.22088 169C3.66406 168.106 4.27202 167.417 5.04474 166.932C5.81747 166.447 6.70005 166.205 7.69247 166.205C8.27959 166.205 8.83073 166.29 9.34588 166.46C9.86482 166.631 10.3326 166.881 10.7493 167.21C11.166 167.536 11.5144 167.934 11.7947 168.403C12.075 168.869 12.2682 169.402 12.3743 170ZM18.2422 178H14.6513V166.364H18.4013C19.5301 166.364 20.496 166.597 21.299 167.062C22.102 167.525 22.7176 168.189 23.1456 169.057C23.5736 169.92 23.7876 170.955 23.7876 172.159C23.7876 173.371 23.5717 174.415 23.1399 175.29C22.7081 176.161 22.0793 176.831 21.2536 177.301C20.4278 177.767 19.424 178 18.2422 178ZM16.0604 176.75H18.1513C19.1134 176.75 19.9107 176.564 20.5433 176.193C21.1759 175.822 21.6475 175.294 21.9581 174.608C22.2687 173.922 22.424 173.106 22.424 172.159C22.424 171.22 22.2706 170.411 21.9638 169.733C21.657 169.051 21.1986 168.528 20.5888 168.165C19.9789 167.797 19.2195 167.614 18.3104 167.614H16.0604V176.75ZM26.1513 178V166.364H33.1286V167.614H27.5604V171.545H32.6058V172.795H27.5604V178H26.1513ZM35.5419 178V166.364H42.5646V167.614H36.951V171.545H42.201V172.795H36.951V176.75H42.6555V178H35.5419ZM45.1044 178V166.364H52.1271V167.614H46.5135V171.545H51.7635V172.795H46.5135V176.75H52.218V178H45.1044ZM54.826 178L60.0305 167.705V167.614H54.0305V166.364H61.4851V167.682L56.3033 178H54.826Z" fill="white"/>
<rect x="96" y="40" width="64" height="80" rx="20" fill="#A0FAD4"/>
<path d="M114.361 146V144.977L118.202 140.773C118.652 140.28 119.024 139.852 119.315 139.489C119.607 139.121 119.823 138.777 119.963 138.455C120.107 138.129 120.179 137.788 120.179 137.432C120.179 137.023 120.08 136.669 119.884 136.369C119.69 136.07 119.425 135.839 119.088 135.676C118.751 135.513 118.372 135.432 117.952 135.432C117.505 135.432 117.115 135.525 116.781 135.71C116.452 135.892 116.196 136.148 116.014 136.477C115.836 136.807 115.747 137.193 115.747 137.636H114.406C114.406 136.955 114.563 136.356 114.878 135.841C115.192 135.326 115.62 134.924 116.162 134.636C116.707 134.348 117.319 134.205 117.997 134.205C118.679 134.205 119.283 134.348 119.81 134.636C120.336 134.924 120.749 135.312 121.048 135.801C121.348 136.29 121.497 136.833 121.497 137.432C121.497 137.86 121.42 138.278 121.264 138.688C121.113 139.093 120.848 139.545 120.469 140.045C120.094 140.542 119.573 141.148 118.906 141.864L116.293 144.659V144.75H121.702V146H114.361ZM127.844 146.159C126.988 146.159 126.259 145.926 125.656 145.46C125.054 144.991 124.594 144.311 124.276 143.42C123.957 142.527 123.798 141.447 123.798 140.182C123.798 138.924 123.957 137.85 124.276 136.96C124.598 136.066 125.06 135.384 125.662 134.915C126.268 134.441 126.995 134.205 127.844 134.205C128.692 134.205 129.418 134.441 130.02 134.915C130.626 135.384 131.088 136.066 131.406 136.96C131.728 137.85 131.889 138.924 131.889 140.182C131.889 141.447 131.73 142.527 131.412 143.42C131.094 144.311 130.634 144.991 130.031 145.46C129.429 145.926 128.7 146.159 127.844 146.159ZM127.844 144.909C128.692 144.909 129.351 144.5 129.821 143.682C130.291 142.864 130.526 141.697 130.526 140.182C130.526 139.174 130.418 138.316 130.202 137.608C129.99 136.9 129.683 136.36 129.281 135.989C128.884 135.617 128.404 135.432 127.844 135.432C127.003 135.432 126.346 135.847 125.872 136.676C125.399 137.502 125.162 138.67 125.162 140.182C125.162 141.189 125.268 142.045 125.48 142.75C125.692 143.455 125.997 143.991 126.395 144.358C126.796 144.725 127.279 144.909 127.844 144.909ZM137.844 146.159C136.988 146.159 136.259 145.926 135.656 145.46C135.054 144.991 134.594 144.311 134.276 143.42C133.957 142.527 133.798 141.447 133.798 140.182C133.798 138.924 133.957 137.85 134.276 136.96C134.598 136.066 135.06 135.384 135.662 134.915C136.268 134.441 136.995 134.205 137.844 134.205C138.692 134.205 139.418 134.441 140.02 134.915C140.626 135.384 141.088 136.066 141.406 136.96C141.728 137.85 141.889 138.924 141.889 140.182C141.889 141.447 141.73 142.527 141.412 143.42C141.094 144.311 140.634 144.991 140.031 145.46C139.429 145.926 138.7 146.159 137.844 146.159ZM137.844 144.909C138.692 144.909 139.351 144.5 139.821 143.682C140.291 142.864 140.526 141.697 140.526 140.182C140.526 139.174 140.418 138.316 140.202 137.608C139.99 136.9 139.683 136.36 139.281 135.989C138.884 135.617 138.404 135.432 137.844 135.432C137.003 135.432 136.346 135.847 135.872 136.676C135.399 137.502 135.162 138.67 135.162 140.182C135.162 141.189 135.268 142.045 135.48 142.75C135.692 143.455 135.997 143.991 136.395 144.358C136.796 144.725 137.279 144.909 137.844 144.909Z" fill="white"/>
<path d="M99.2223 178H97.745L102.018 166.364H103.472L107.745 178H106.268L102.79 168.205H102.7L99.2223 178ZM99.7678 173.455H105.722V174.705H99.7678V173.455ZM113.148 178.159C112.292 178.159 111.563 177.926 110.961 177.46C110.359 176.991 109.898 176.311 109.58 175.42C109.262 174.527 109.103 173.447 109.103 172.182C109.103 170.924 109.262 169.85 109.58 168.96C109.902 168.066 110.364 167.384 110.967 166.915C111.573 166.441 112.3 166.205 113.148 166.205C113.997 166.205 114.722 166.441 115.325 166.915C115.931 167.384 116.393 168.066 116.711 168.96C117.033 169.85 117.194 170.924 117.194 172.182C117.194 173.447 117.035 174.527 116.717 175.42C116.398 176.311 115.938 176.991 115.336 177.46C114.734 177.926 114.004 178.159 113.148 178.159ZM113.148 176.909C113.997 176.909 114.656 176.5 115.126 175.682C115.595 174.864 115.83 173.697 115.83 172.182C115.83 171.174 115.722 170.316 115.506 169.608C115.294 168.9 114.987 168.36 114.586 167.989C114.188 167.617 113.709 167.432 113.148 167.432C112.308 167.432 111.65 167.847 111.177 168.676C110.703 169.502 110.467 170.67 110.467 172.182C110.467 173.189 110.573 174.045 110.785 174.75C110.997 175.455 111.302 175.991 111.7 176.358C112.101 176.725 112.584 176.909 113.148 176.909ZM119.558 178V166.364H126.535V167.614H120.967V171.545H126.012V172.795H120.967V178H119.558ZM127.972 178H126.495L130.768 166.364H132.222L136.495 178H135.018L131.54 168.205H131.45L127.972 178ZM128.518 173.455H134.472V174.705H128.518V173.455ZM141.898 178H138.308V166.364H142.058C143.186 166.364 144.152 166.597 144.955 167.062C145.758 167.525 146.374 168.189 146.802 169.057C147.23 169.92 147.444 170.955 147.444 172.159C147.444 173.371 147.228 174.415 146.796 175.29C146.364 176.161 145.736 176.831 144.91 177.301C144.084 177.767 143.08 178 141.898 178ZM139.717 176.75H141.808C142.77 176.75 143.567 176.564 144.2 176.193C144.832 175.822 145.304 175.294 145.614 174.608C145.925 173.922 146.08 173.106 146.08 172.159C146.08 171.22 145.927 170.411 145.62 169.733C145.313 169.051 144.855 168.528 144.245 168.165C143.635 167.797 142.876 167.614 141.967 167.614H139.717V176.75ZM149.33 175.614V174.455L154.444 166.364H155.285V168.159H154.717L150.853 174.273V174.364H157.739V175.614H149.33ZM154.808 178V175.261V174.722V166.364H156.148V178H154.808Z" fill="white"/>
<rect x="192" y="40" width="64" height="80" rx="20" fill="#63F2BE"/>
<path d="M214.043 146.159C213.293 146.159 212.624 146.03 212.037 145.773C211.454 145.515 210.99 145.157 210.645 144.699C210.304 144.237 210.118 143.701 210.088 143.091H211.52C211.55 143.466 211.679 143.79 211.906 144.062C212.134 144.331 212.431 144.54 212.798 144.688C213.166 144.835 213.573 144.909 214.02 144.909C214.52 144.909 214.963 144.822 215.349 144.648C215.736 144.473 216.039 144.231 216.259 143.92C216.478 143.61 216.588 143.25 216.588 142.841C216.588 142.413 216.482 142.036 216.27 141.71C216.058 141.381 215.747 141.123 215.338 140.938C214.929 140.752 214.429 140.659 213.838 140.659H212.906V139.409H213.838C214.3 139.409 214.705 139.326 215.054 139.159C215.406 138.992 215.681 138.758 215.878 138.455C216.079 138.152 216.179 137.795 216.179 137.386C216.179 136.992 216.092 136.65 215.918 136.358C215.743 136.066 215.497 135.839 215.179 135.676C214.865 135.513 214.493 135.432 214.065 135.432C213.664 135.432 213.285 135.506 212.929 135.653C212.577 135.797 212.289 136.008 212.065 136.284C211.842 136.557 211.721 136.886 211.702 137.273H210.338C210.361 136.663 210.545 136.129 210.889 135.67C211.234 135.208 211.685 134.848 212.241 134.591C212.802 134.333 213.418 134.205 214.088 134.205C214.808 134.205 215.425 134.35 215.94 134.642C216.455 134.93 216.851 135.311 217.128 135.784C217.404 136.258 217.543 136.769 217.543 137.318C217.543 137.973 217.37 138.532 217.026 138.994C216.685 139.456 216.221 139.777 215.634 139.955V140.045C216.368 140.167 216.942 140.479 217.355 140.983C217.768 141.483 217.974 142.102 217.974 142.841C217.974 143.473 217.802 144.042 217.457 144.545C217.116 145.045 216.651 145.439 216.06 145.727C215.469 146.015 214.796 146.159 214.043 146.159ZM224.094 146.159C223.238 146.159 222.509 145.926 221.906 145.46C221.304 144.991 220.844 144.311 220.526 143.42C220.207 142.527 220.048 141.447 220.048 140.182C220.048 138.924 220.207 137.85 220.526 136.96C220.848 136.066 221.31 135.384 221.912 134.915C222.518 134.441 223.245 134.205 224.094 134.205C224.942 134.205 225.668 134.441 226.27 134.915C226.876 135.384 227.338 136.066 227.656 136.96C227.978 137.85 228.139 138.924 228.139 140.182C228.139 141.447 227.98 142.527 227.662 143.42C227.344 144.311 226.884 144.991 226.281 145.46C225.679 145.926 224.95 146.159 224.094 146.159ZM224.094 144.909C224.942 144.909 225.601 144.5 226.071 143.682C226.541 142.864 226.776 141.697 226.776 140.182C226.776 139.174 226.668 138.316 226.452 137.608C226.24 136.9 225.933 136.36 225.531 135.989C225.134 135.617 224.654 135.432 224.094 135.432C223.253 135.432 222.596 135.847 222.122 136.676C221.649 137.502 221.412 138.67 221.412 140.182C221.412 141.189 221.518 142.045 221.73 142.75C221.942 143.455 222.247 143.991 222.645 144.358C223.046 144.725 223.529 144.909 224.094 144.909ZM234.094 146.159C233.238 146.159 232.509 145.926 231.906 145.46C231.304 144.991 230.844 144.311 230.526 143.42C230.207 142.527 230.048 141.447 230.048 140.182C230.048 138.924 230.207 137.85 230.526 136.96C230.848 136.066 231.31 135.384 231.912 134.915C232.518 134.441 233.245 134.205 234.094 134.205C234.942 134.205 235.668 134.441 236.27 134.915C236.876 135.384 237.338 136.066 237.656 136.96C237.978 137.85 238.139 138.924 238.139 140.182C238.139 141.447 237.98 142.527 237.662 143.42C237.344 144.311 236.884 144.991 236.281 145.46C235.679 145.926 234.95 146.159 234.094 146.159ZM234.094 144.909C234.942 144.909 235.601 144.5 236.071 143.682C236.541 142.864 236.776 141.697 236.776 140.182C236.776 139.174 236.668 138.316 236.452 137.608C236.24 136.9 235.933 136.36 235.531 135.989C235.134 135.617 234.654 135.432 234.094 135.432C233.253 135.432 232.596 135.847 232.122 136.676C231.649 137.502 231.412 138.67 231.412 140.182C231.412 141.189 231.518 142.045 231.73 142.75C231.942 143.455 232.247 143.991 232.645 144.358C233.046 144.725 233.529 144.909 234.094 144.909Z" fill="white"/>
<path d="M199.459 178.159C198.982 178.152 198.504 178.061 198.027 177.886C197.55 177.712 197.114 177.419 196.72 177.006C196.326 176.589 196.01 176.027 195.771 175.318C195.533 174.606 195.413 173.712 195.413 172.636C195.413 171.606 195.51 170.693 195.703 169.898C195.896 169.098 196.177 168.426 196.544 167.881C196.911 167.331 197.355 166.915 197.874 166.631C198.396 166.347 198.985 166.205 199.641 166.205C200.292 166.205 200.872 166.335 201.379 166.597C201.891 166.854 202.307 167.214 202.629 167.676C202.951 168.138 203.16 168.67 203.254 169.273H201.868C201.739 168.75 201.489 168.316 201.118 167.972C200.747 167.627 200.254 167.455 199.641 167.455C198.739 167.455 198.029 167.847 197.51 168.631C196.995 169.415 196.735 170.515 196.732 171.932H196.822C197.035 171.61 197.286 171.335 197.578 171.108C197.874 170.877 198.199 170.699 198.555 170.574C198.911 170.449 199.288 170.386 199.686 170.386C200.353 170.386 200.963 170.553 201.516 170.886C202.069 171.216 202.512 171.672 202.845 172.256C203.179 172.835 203.345 173.5 203.345 174.25C203.345 174.97 203.184 175.629 202.862 176.227C202.54 176.822 202.088 177.295 201.504 177.648C200.925 177.996 200.243 178.167 199.459 178.159ZM199.459 176.909C199.936 176.909 200.364 176.79 200.743 176.551C201.125 176.312 201.427 175.992 201.646 175.591C201.87 175.189 201.982 174.742 201.982 174.25C201.982 173.769 201.874 173.331 201.658 172.938C201.446 172.54 201.152 172.223 200.777 171.989C200.406 171.754 199.982 171.636 199.504 171.636C199.144 171.636 198.809 171.708 198.499 171.852C198.188 171.992 197.915 172.186 197.68 172.432C197.449 172.678 197.268 172.96 197.135 173.278C197.002 173.593 196.936 173.924 196.936 174.273C196.936 174.735 197.044 175.167 197.26 175.568C197.48 175.97 197.779 176.294 198.158 176.54C198.54 176.786 198.974 176.909 199.459 176.909ZM209.511 178.159C208.761 178.159 208.093 178.03 207.506 177.773C206.922 177.515 206.458 177.157 206.114 176.699C205.773 176.237 205.587 175.701 205.557 175.091H206.989C207.019 175.466 207.148 175.79 207.375 176.062C207.602 176.331 207.9 176.54 208.267 176.688C208.634 176.835 209.042 176.909 209.489 176.909C209.989 176.909 210.432 176.822 210.818 176.648C211.205 176.473 211.508 176.231 211.727 175.92C211.947 175.61 212.057 175.25 212.057 174.841C212.057 174.413 211.951 174.036 211.739 173.71C211.527 173.381 211.216 173.123 210.807 172.938C210.398 172.752 209.898 172.659 209.307 172.659H208.375V171.409H209.307C209.769 171.409 210.174 171.326 210.523 171.159C210.875 170.992 211.15 170.758 211.347 170.455C211.547 170.152 211.648 169.795 211.648 169.386C211.648 168.992 211.561 168.65 211.386 168.358C211.212 168.066 210.966 167.839 210.648 167.676C210.333 167.513 209.962 167.432 209.534 167.432C209.133 167.432 208.754 167.506 208.398 167.653C208.045 167.797 207.758 168.008 207.534 168.284C207.311 168.557 207.189 168.886 207.17 169.273H205.807C205.83 168.663 206.013 168.129 206.358 167.67C206.703 167.208 207.153 166.848 207.71 166.591C208.271 166.333 208.886 166.205 209.557 166.205C210.277 166.205 210.894 166.35 211.409 166.642C211.924 166.93 212.32 167.311 212.597 167.784C212.873 168.258 213.011 168.769 213.011 169.318C213.011 169.973 212.839 170.532 212.494 170.994C212.153 171.456 211.689 171.777 211.102 171.955V172.045C211.837 172.167 212.411 172.479 212.824 172.983C213.237 173.483 213.443 174.102 213.443 174.841C213.443 175.473 213.271 176.042 212.926 176.545C212.585 177.045 212.119 177.439 211.528 177.727C210.938 178.015 210.265 178.159 209.511 178.159ZM215.972 178V166.364H222.949V167.614H217.381V171.545H222.426V172.795H217.381V178H215.972ZM225.158 178V176.977L228.999 172.773C229.449 172.28 229.821 171.852 230.112 171.489C230.404 171.121 230.62 170.777 230.76 170.455C230.904 170.129 230.976 169.788 230.976 169.432C230.976 169.023 230.877 168.669 230.68 168.369C230.487 168.07 230.222 167.839 229.885 167.676C229.548 167.513 229.169 167.432 228.749 167.432C228.302 167.432 227.911 167.525 227.578 167.71C227.249 167.892 226.993 168.148 226.811 168.477C226.633 168.807 226.544 169.193 226.544 169.636H225.203C225.203 168.955 225.36 168.356 225.675 167.841C225.989 167.326 226.417 166.924 226.959 166.636C227.504 166.348 228.116 166.205 228.794 166.205C229.476 166.205 230.08 166.348 230.607 166.636C231.133 166.924 231.546 167.312 231.845 167.801C232.144 168.29 232.294 168.833 232.294 169.432C232.294 169.86 232.216 170.278 232.061 170.688C231.91 171.093 231.644 171.545 231.266 172.045C230.891 172.542 230.37 173.148 229.703 173.864L227.089 176.659V176.75H232.499V178H225.158ZM235.05 178V166.364H239.118C239.929 166.364 240.597 166.504 241.124 166.784C241.65 167.061 242.042 167.434 242.3 167.903C242.557 168.369 242.686 168.886 242.686 169.455C242.686 169.955 242.597 170.367 242.419 170.693C242.245 171.019 242.014 171.277 241.726 171.466C241.442 171.655 241.133 171.795 240.8 171.886V172C241.156 172.023 241.514 172.148 241.874 172.375C242.233 172.602 242.535 172.928 242.777 173.352C243.019 173.777 243.141 174.295 243.141 174.909C243.141 175.492 243.008 176.017 242.743 176.483C242.478 176.949 242.059 177.318 241.487 177.591C240.915 177.864 240.171 178 239.254 178H235.05ZM236.459 176.75H239.254C240.175 176.75 240.828 176.572 241.214 176.216C241.605 175.856 241.8 175.42 241.8 174.909C241.8 174.515 241.699 174.152 241.499 173.818C241.298 173.481 241.012 173.212 240.641 173.011C240.269 172.807 239.83 172.705 239.322 172.705H236.459V176.75ZM236.459 171.477H239.072C239.497 171.477 239.879 171.394 240.22 171.227C240.565 171.061 240.838 170.826 241.038 170.523C241.243 170.22 241.345 169.864 241.345 169.455C241.345 168.943 241.167 168.509 240.811 168.153C240.455 167.794 239.891 167.614 239.118 167.614H236.459V171.477ZM245.456 178V166.364H252.479V167.614H246.865V171.545H252.115V172.795H246.865V176.75H252.57V178H245.456Z" fill="white"/>
<rect x="288" y="40" width="64" height="80" rx="20" fill="#25E2A4"/>
<path d="M305.799 143.614V142.455L310.913 134.364H311.754V136.159H311.185L307.322 142.273V142.364H314.208V143.614H305.799ZM311.276 146V143.261V142.722V134.364H312.617V146H311.276ZM320.133 146.159C319.277 146.159 318.548 145.926 317.945 145.46C317.343 144.991 316.883 144.311 316.565 143.42C316.246 142.527 316.087 141.447 316.087 140.182C316.087 138.924 316.246 137.85 316.565 136.96C316.887 136.066 317.349 135.384 317.951 134.915C318.557 134.441 319.284 134.205 320.133 134.205C320.981 134.205 321.707 134.441 322.309 134.915C322.915 135.384 323.377 136.066 323.695 136.96C324.017 137.85 324.178 138.924 324.178 140.182C324.178 141.447 324.019 142.527 323.701 143.42C323.383 144.311 322.923 144.991 322.32 145.46C321.718 145.926 320.989 146.159 320.133 146.159ZM320.133 144.909C320.981 144.909 321.64 144.5 322.11 143.682C322.58 142.864 322.815 141.697 322.815 140.182C322.815 139.174 322.707 138.316 322.491 137.608C322.279 136.9 321.972 136.36 321.57 135.989C321.173 135.617 320.693 135.432 320.133 135.432C319.292 135.432 318.635 135.847 318.161 136.676C317.688 137.502 317.451 138.67 317.451 140.182C317.451 141.189 317.557 142.045 317.769 142.75C317.981 143.455 318.286 143.991 318.684 144.358C319.085 144.725 319.568 144.909 320.133 144.909ZM330.133 146.159C329.277 146.159 328.548 145.926 327.945 145.46C327.343 144.991 326.883 144.311 326.565 143.42C326.246 142.527 326.087 141.447 326.087 140.182C326.087 138.924 326.246 137.85 326.565 136.96C326.887 136.066 327.349 135.384 327.951 134.915C328.557 134.441 329.284 134.205 330.133 134.205C330.981 134.205 331.707 134.441 332.309 134.915C332.915 135.384 333.377 136.066 333.695 136.96C334.017 137.85 334.178 138.924 334.178 140.182C334.178 141.447 334.019 142.527 333.701 143.42C333.383 144.311 332.923 144.991 332.32 145.46C331.718 145.926 330.989 146.159 330.133 146.159ZM330.133 144.909C330.981 144.909 331.64 144.5 332.11 143.682C332.58 142.864 332.815 141.697 332.815 140.182C332.815 139.174 332.707 138.316 332.491 137.608C332.279 136.9 331.972 136.36 331.57 135.989C331.173 135.617 330.693 135.432 330.133 135.432C329.292 135.432 328.635 135.847 328.161 136.676C327.688 137.502 327.451 138.67 327.451 140.182C327.451 141.189 327.557 142.045 327.769 142.75C327.981 143.455 328.286 143.991 328.684 144.358C329.085 144.725 329.568 144.909 330.133 144.909Z" fill="white"/>
<path d="M291.33 178V176.977L295.17 172.773C295.621 172.28 295.992 171.852 296.284 171.489C296.576 171.121 296.792 170.777 296.932 170.455C297.076 170.129 297.148 169.788 297.148 169.432C297.148 169.023 297.049 168.669 296.852 168.369C296.659 168.07 296.394 167.839 296.057 167.676C295.72 167.513 295.341 167.432 294.92 167.432C294.473 167.432 294.083 167.525 293.75 167.71C293.42 167.892 293.165 168.148 292.983 168.477C292.805 168.807 292.716 169.193 292.716 169.636H291.375C291.375 168.955 291.532 168.356 291.847 167.841C292.161 167.326 292.589 166.924 293.131 166.636C293.676 166.348 294.288 166.205 294.966 166.205C295.648 166.205 296.252 166.348 296.778 166.636C297.305 166.924 297.718 167.312 298.017 167.801C298.316 168.29 298.466 168.833 298.466 169.432C298.466 169.86 298.388 170.278 298.233 170.688C298.081 171.093 297.816 171.545 297.438 172.045C297.062 172.542 296.542 173.148 295.875 173.864L293.261 176.659V176.75H298.67V178H291.33ZM304.653 178.159C303.987 178.159 303.386 178.027 302.852 177.761C302.318 177.496 301.89 177.133 301.568 176.67C301.246 176.208 301.07 175.682 301.04 175.091H302.403C302.456 175.617 302.695 176.053 303.119 176.398C303.547 176.739 304.059 176.909 304.653 176.909C305.131 176.909 305.555 176.797 305.926 176.574C306.301 176.35 306.595 176.044 306.807 175.653C307.023 175.259 307.131 174.814 307.131 174.318C307.131 173.811 307.019 173.358 306.795 172.96C306.576 172.559 306.273 172.242 305.886 172.011C305.5 171.78 305.059 171.663 304.562 171.659C304.206 171.655 303.841 171.71 303.466 171.824C303.091 171.934 302.782 172.076 302.54 172.25L301.222 172.091L301.926 166.364H307.972V167.614H303.108L302.699 171.045H302.767C303.006 170.856 303.305 170.699 303.665 170.574C304.025 170.449 304.4 170.386 304.79 170.386C305.502 170.386 306.136 170.557 306.693 170.898C307.254 171.235 307.693 171.697 308.011 172.284C308.333 172.871 308.494 173.542 308.494 174.295C308.494 175.038 308.328 175.701 307.994 176.284C307.665 176.864 307.21 177.322 306.631 177.659C306.051 177.992 305.392 178.159 304.653 178.159ZM310.956 178V166.364H317.979V167.614H312.365V171.545H317.615V172.795H312.365V176.75H318.07V178H310.956ZM320.314 178V176.977L324.155 172.773C324.606 172.28 324.977 171.852 325.268 171.489C325.56 171.121 325.776 170.777 325.916 170.455C326.06 170.129 326.132 169.788 326.132 169.432C326.132 169.023 326.034 168.669 325.837 168.369C325.643 168.07 325.378 167.839 325.041 167.676C324.704 167.513 324.325 167.432 323.905 167.432C323.458 167.432 323.068 167.525 322.734 167.71C322.405 167.892 322.149 168.148 321.967 168.477C321.789 168.807 321.7 169.193 321.7 169.636H320.359C320.359 168.955 320.517 168.356 320.831 167.841C321.145 167.326 321.573 166.924 322.115 166.636C322.661 166.348 323.272 166.205 323.95 166.205C324.632 166.205 325.236 166.348 325.763 166.636C326.289 166.924 326.702 167.312 327.001 167.801C327.301 168.29 327.45 168.833 327.45 169.432C327.45 169.86 327.373 170.278 327.217 170.688C327.066 171.093 326.801 171.545 326.422 172.045C326.047 172.542 325.526 173.148 324.859 173.864L322.246 176.659V176.75H327.655V178H320.314ZM330.683 178H329.206L333.479 166.364H334.933L339.206 178H337.729L334.251 168.205H334.161L330.683 178ZM331.229 173.455H337.183V174.705H331.229V173.455ZM340.541 175.614V174.455L345.655 166.364H346.496V168.159H345.928L342.064 174.273V174.364H348.95V175.614H340.541ZM346.018 178V175.261V174.722V166.364H347.359V178H346.018Z" fill="white"/>
<rect x="384" y="40" width="64" height="80" rx="20" fill="#00CB8F"/>
<path d="M405.974 146.159C405.307 146.159 404.707 146.027 404.173 145.761C403.638 145.496 403.21 145.133 402.888 144.67C402.567 144.208 402.39 143.682 402.36 143.091H403.724C403.777 143.617 404.015 144.053 404.44 144.398C404.868 144.739 405.379 144.909 405.974 144.909C406.451 144.909 406.875 144.797 407.246 144.574C407.621 144.35 407.915 144.044 408.127 143.653C408.343 143.259 408.451 142.814 408.451 142.318C408.451 141.811 408.339 141.358 408.116 140.96C407.896 140.559 407.593 140.242 407.207 140.011C406.82 139.78 406.379 139.663 405.883 139.659C405.527 139.655 405.161 139.71 404.786 139.824C404.411 139.934 404.103 140.076 403.86 140.25L402.542 140.091L403.246 134.364H409.292V135.614H404.428L404.019 139.045H404.087C404.326 138.856 404.625 138.699 404.985 138.574C405.345 138.449 405.72 138.386 406.11 138.386C406.822 138.386 407.457 138.557 408.013 138.898C408.574 139.235 409.013 139.697 409.332 140.284C409.654 140.871 409.815 141.542 409.815 142.295C409.815 143.038 409.648 143.701 409.315 144.284C408.985 144.864 408.531 145.322 407.951 145.659C407.371 145.992 406.712 146.159 405.974 146.159ZM415.867 146.159C415.011 146.159 414.282 145.926 413.68 145.46C413.077 144.991 412.617 144.311 412.299 143.42C411.981 142.527 411.822 141.447 411.822 140.182C411.822 138.924 411.981 137.85 412.299 136.96C412.621 136.066 413.083 135.384 413.685 134.915C414.291 134.441 415.019 134.205 415.867 134.205C416.716 134.205 417.441 134.441 418.043 134.915C418.649 135.384 419.112 136.066 419.43 136.96C419.752 137.85 419.913 138.924 419.913 140.182C419.913 141.447 419.754 142.527 419.435 143.42C419.117 144.311 418.657 144.991 418.055 145.46C417.452 145.926 416.723 146.159 415.867 146.159ZM415.867 144.909C416.716 144.909 417.375 144.5 417.844 143.682C418.314 142.864 418.549 141.697 418.549 140.182C418.549 139.174 418.441 138.316 418.225 137.608C418.013 136.9 417.706 136.36 417.305 135.989C416.907 135.617 416.428 135.432 415.867 135.432C415.026 135.432 414.369 135.847 413.896 136.676C413.422 137.502 413.185 138.67 413.185 140.182C413.185 141.189 413.291 142.045 413.504 142.75C413.716 143.455 414.021 143.991 414.418 144.358C414.82 144.725 415.303 144.909 415.867 144.909ZM425.867 146.159C425.011 146.159 424.282 145.926 423.68 145.46C423.077 144.991 422.617 144.311 422.299 143.42C421.981 142.527 421.822 141.447 421.822 140.182C421.822 138.924 421.981 137.85 422.299 136.96C422.621 136.066 423.083 135.384 423.685 134.915C424.291 134.441 425.019 134.205 425.867 134.205C426.716 134.205 427.441 134.441 428.043 134.915C428.649 135.384 429.112 136.066 429.43 136.96C429.752 137.85 429.913 138.924 429.913 140.182C429.913 141.447 429.754 142.527 429.435 143.42C429.117 144.311 428.657 144.991 428.055 145.46C427.452 145.926 426.723 146.159 425.867 146.159ZM425.867 144.909C426.716 144.909 427.375 144.5 427.844 143.682C428.314 142.864 428.549 141.697 428.549 140.182C428.549 139.174 428.441 138.316 428.225 137.608C428.013 136.9 427.706 136.36 427.305 135.989C426.907 135.617 426.428 135.432 425.867 135.432C425.026 135.432 424.369 135.847 423.896 136.676C423.422 137.502 423.185 138.67 423.185 140.182C423.185 141.189 423.291 142.045 423.504 142.75C423.716 143.455 424.021 143.991 424.418 144.358C424.82 144.725 425.303 144.909 425.867 144.909Z" fill="white"/>
<path d="M390.352 178.159C389.496 178.159 388.766 177.926 388.164 177.46C387.562 176.991 387.102 176.311 386.783 175.42C386.465 174.527 386.306 173.447 386.306 172.182C386.306 170.924 386.465 169.85 386.783 168.96C387.105 168.066 387.567 167.384 388.17 166.915C388.776 166.441 389.503 166.205 390.352 166.205C391.2 166.205 391.925 166.441 392.528 166.915C393.134 167.384 393.596 168.066 393.914 168.96C394.236 169.85 394.397 170.924 394.397 172.182C394.397 173.447 394.238 174.527 393.92 175.42C393.602 176.311 393.141 176.991 392.539 177.46C391.937 177.926 391.208 178.159 390.352 178.159ZM390.352 176.909C391.2 176.909 391.859 176.5 392.329 175.682C392.799 174.864 393.033 173.697 393.033 172.182C393.033 171.174 392.925 170.316 392.71 169.608C392.497 168.9 392.191 168.36 391.789 167.989C391.391 167.617 390.912 167.432 390.352 167.432C389.511 167.432 388.853 167.847 388.38 168.676C387.906 169.502 387.67 170.67 387.67 172.182C387.67 173.189 387.776 174.045 387.988 174.75C388.2 175.455 388.505 175.991 388.903 176.358C389.304 176.725 389.787 176.909 390.352 176.909ZM400.352 178.159C399.496 178.159 398.766 177.926 398.164 177.46C397.562 176.991 397.102 176.311 396.783 175.42C396.465 174.527 396.306 173.447 396.306 172.182C396.306 170.924 396.465 169.85 396.783 168.96C397.105 168.066 397.567 167.384 398.17 166.915C398.776 166.441 399.503 166.205 400.352 166.205C401.2 166.205 401.925 166.441 402.528 166.915C403.134 167.384 403.596 168.066 403.914 168.96C404.236 169.85 404.397 170.924 404.397 172.182C404.397 173.447 404.238 174.527 403.92 175.42C403.602 176.311 403.141 176.991 402.539 177.46C401.937 177.926 401.208 178.159 400.352 178.159ZM400.352 176.909C401.2 176.909 401.859 176.5 402.329 175.682C402.799 174.864 403.033 173.697 403.033 172.182C403.033 171.174 402.925 170.316 402.71 169.608C402.497 168.9 402.191 168.36 401.789 167.989C401.391 167.617 400.912 167.432 400.352 167.432C399.511 167.432 398.853 167.847 398.38 168.676C397.906 169.502 397.67 170.67 397.67 172.182C397.67 173.189 397.776 174.045 397.988 174.75C398.2 175.455 398.505 175.991 398.903 176.358C399.304 176.725 399.787 176.909 400.352 176.909ZM416.124 170H414.715C414.632 169.595 414.486 169.239 414.278 168.932C414.073 168.625 413.823 168.367 413.528 168.159C413.236 167.947 412.912 167.788 412.556 167.682C412.2 167.576 411.829 167.523 411.442 167.523C410.738 167.523 410.1 167.701 409.528 168.057C408.96 168.413 408.507 168.938 408.17 169.631C407.836 170.324 407.67 171.174 407.67 172.182C407.67 173.189 407.836 174.04 408.17 174.733C408.507 175.426 408.96 175.951 409.528 176.307C410.1 176.663 410.738 176.841 411.442 176.841C411.829 176.841 412.2 176.788 412.556 176.682C412.912 176.576 413.236 176.419 413.528 176.21C413.823 175.998 414.073 175.739 414.278 175.432C414.486 175.121 414.632 174.765 414.715 174.364H416.124C416.018 174.958 415.825 175.491 415.545 175.96C415.264 176.43 414.916 176.83 414.499 177.159C414.083 177.485 413.615 177.733 413.096 177.903C412.581 178.074 412.03 178.159 411.442 178.159C410.45 178.159 409.567 177.917 408.795 177.432C408.022 176.947 407.414 176.258 406.971 175.364C406.528 174.47 406.306 173.409 406.306 172.182C406.306 170.955 406.528 169.894 406.971 169C407.414 168.106 408.022 167.417 408.795 166.932C409.567 166.447 410.45 166.205 411.442 166.205C412.03 166.205 412.581 166.29 413.096 166.46C413.615 166.631 414.083 166.881 414.499 167.21C414.916 167.536 415.264 167.934 415.545 168.403C415.825 168.869 416.018 169.402 416.124 170ZM418.401 178V166.364H422.469C423.28 166.364 423.949 166.504 424.475 166.784C425.002 167.061 425.394 167.434 425.651 167.903C425.909 168.369 426.038 168.886 426.038 169.455C426.038 169.955 425.949 170.367 425.771 170.693C425.596 171.019 425.365 171.277 425.077 171.466C424.793 171.655 424.485 171.795 424.151 171.886V172C424.507 172.023 424.865 172.148 425.225 172.375C425.585 172.602 425.886 172.928 426.129 173.352C426.371 173.777 426.492 174.295 426.492 174.909C426.492 175.492 426.36 176.017 426.094 176.483C425.829 176.949 425.411 177.318 424.839 177.591C424.267 177.864 423.522 178 422.606 178H418.401ZM419.81 176.75H422.606C423.526 176.75 424.18 176.572 424.566 176.216C424.956 175.856 425.151 175.42 425.151 174.909C425.151 174.515 425.051 174.152 424.85 173.818C424.649 173.481 424.363 173.212 423.992 173.011C423.621 172.807 423.182 172.705 422.674 172.705H419.81V176.75ZM419.81 171.477H422.424C422.848 171.477 423.231 171.394 423.572 171.227C423.916 171.061 424.189 170.826 424.39 170.523C424.594 170.22 424.697 169.864 424.697 169.455C424.697 168.943 424.519 168.509 424.163 168.153C423.807 167.794 423.242 167.614 422.469 167.614H419.81V171.477ZM432.33 178.159C431.55 178.159 430.861 178.021 430.262 177.744C429.667 177.464 429.203 177.08 428.87 176.591C428.537 176.098 428.372 175.538 428.376 174.909C428.372 174.417 428.469 173.962 428.665 173.545C428.862 173.125 429.131 172.775 429.472 172.494C429.817 172.21 430.201 172.03 430.626 171.955V171.886C430.069 171.742 429.626 171.43 429.296 170.949C428.967 170.464 428.804 169.913 428.808 169.295C428.804 168.705 428.953 168.176 429.256 167.71C429.559 167.244 429.976 166.877 430.506 166.608C431.04 166.339 431.648 166.205 432.33 166.205C433.004 166.205 433.607 166.339 434.137 166.608C434.667 166.877 435.084 167.244 435.387 167.71C435.694 168.176 435.849 168.705 435.853 169.295C435.849 169.913 435.681 170.464 435.347 170.949C435.018 171.43 434.58 171.742 434.035 171.886V171.955C434.455 172.03 434.834 172.21 435.171 172.494C435.508 172.775 435.777 173.125 435.978 173.545C436.179 173.962 436.281 174.417 436.285 174.909C436.281 175.538 436.111 176.098 435.773 176.591C435.44 177.08 434.976 177.464 434.381 177.744C433.79 178.021 433.107 178.159 432.33 178.159ZM432.33 176.909C432.857 176.909 433.311 176.824 433.694 176.653C434.076 176.483 434.372 176.242 434.58 175.932C434.789 175.621 434.895 175.258 434.898 174.841C434.895 174.402 434.781 174.013 434.558 173.676C434.334 173.339 434.029 173.074 433.643 172.881C433.26 172.687 432.823 172.591 432.33 172.591C431.834 172.591 431.391 172.687 431.001 172.881C430.614 173.074 430.309 173.339 430.086 173.676C429.866 174.013 429.758 174.402 429.762 174.841C429.758 175.258 429.859 175.621 430.063 175.932C430.272 176.242 430.569 176.483 430.955 176.653C431.342 176.824 431.8 176.909 432.33 176.909ZM432.33 171.386C432.747 171.386 433.116 171.303 433.438 171.136C433.764 170.97 434.02 170.737 434.205 170.438C434.391 170.138 434.486 169.788 434.489 169.386C434.486 168.992 434.393 168.65 434.211 168.358C434.029 168.062 433.777 167.835 433.455 167.676C433.133 167.513 432.758 167.432 432.33 167.432C431.895 167.432 431.514 167.513 431.188 167.676C430.862 167.835 430.611 168.062 430.433 168.358C430.254 168.65 430.167 168.992 430.171 169.386C430.167 169.788 430.256 170.138 430.438 170.438C430.624 170.737 430.879 170.97 431.205 171.136C431.531 171.303 431.906 171.386 432.33 171.386ZM438.667 178V166.364H445.644V167.614H440.076V171.545H445.121V172.795H440.076V178H438.667Z" fill="white"/>
<rect x="480" y="40" width="64" height="80" rx="20" fill="#00A474"/>
<path d="M502.076 146.159C501.599 146.152 501.121 146.061 500.644 145.886C500.167 145.712 499.731 145.419 499.337 145.006C498.943 144.589 498.627 144.027 498.388 143.318C498.15 142.606 498.031 141.712 498.031 140.636C498.031 139.606 498.127 138.693 498.32 137.898C498.513 137.098 498.794 136.426 499.161 135.881C499.529 135.331 499.972 134.915 500.491 134.631C501.013 134.347 501.603 134.205 502.258 134.205C502.909 134.205 503.489 134.335 503.996 134.597C504.508 134.854 504.924 135.214 505.246 135.676C505.568 136.138 505.777 136.67 505.871 137.273H504.485C504.356 136.75 504.106 136.316 503.735 135.972C503.364 135.627 502.871 135.455 502.258 135.455C501.356 135.455 500.646 135.847 500.127 136.631C499.612 137.415 499.353 138.515 499.349 139.932H499.44C499.652 139.61 499.904 139.335 500.195 139.108C500.491 138.877 500.817 138.699 501.173 138.574C501.529 138.449 501.906 138.386 502.303 138.386C502.97 138.386 503.58 138.553 504.133 138.886C504.686 139.216 505.129 139.672 505.462 140.256C505.796 140.835 505.962 141.5 505.962 142.25C505.962 142.97 505.801 143.629 505.479 144.227C505.157 144.822 504.705 145.295 504.121 145.648C503.542 145.996 502.86 146.167 502.076 146.159ZM502.076 144.909C502.553 144.909 502.981 144.79 503.36 144.551C503.743 144.312 504.044 143.992 504.263 143.591C504.487 143.189 504.599 142.742 504.599 142.25C504.599 141.769 504.491 141.331 504.275 140.938C504.063 140.54 503.769 140.223 503.394 139.989C503.023 139.754 502.599 139.636 502.121 139.636C501.762 139.636 501.426 139.708 501.116 139.852C500.805 139.992 500.532 140.186 500.298 140.432C500.067 140.678 499.885 140.96 499.752 141.278C499.62 141.593 499.553 141.924 499.553 142.273C499.553 142.735 499.661 143.167 499.877 143.568C500.097 143.97 500.396 144.294 500.775 144.54C501.157 144.786 501.591 144.909 502.076 144.909ZM511.992 146.159C511.136 146.159 510.407 145.926 509.805 145.46C509.202 144.991 508.742 144.311 508.424 143.42C508.106 142.527 507.947 141.447 507.947 140.182C507.947 138.924 508.106 137.85 508.424 136.96C508.746 136.066 509.208 135.384 509.81 134.915C510.416 134.441 511.144 134.205 511.992 134.205C512.841 134.205 513.566 134.441 514.168 134.915C514.774 135.384 515.237 136.066 515.555 136.96C515.877 137.85 516.038 138.924 516.038 140.182C516.038 141.447 515.879 142.527 515.56 143.42C515.242 144.311 514.782 144.991 514.18 145.46C513.577 145.926 512.848 146.159 511.992 146.159ZM511.992 144.909C512.841 144.909 513.5 144.5 513.969 143.682C514.439 142.864 514.674 141.697 514.674 140.182C514.674 139.174 514.566 138.316 514.35 137.608C514.138 136.9 513.831 136.36 513.43 135.989C513.032 135.617 512.553 135.432 511.992 135.432C511.151 135.432 510.494 135.847 510.021 136.676C509.547 137.502 509.31 138.67 509.31 140.182C509.31 141.189 509.416 142.045 509.629 142.75C509.841 143.455 510.146 143.991 510.543 144.358C510.945 144.725 511.428 144.909 511.992 144.909ZM521.992 146.159C521.136 146.159 520.407 145.926 519.805 145.46C519.202 144.991 518.742 144.311 518.424 143.42C518.106 142.527 517.947 141.447 517.947 140.182C517.947 138.924 518.106 137.85 518.424 136.96C518.746 136.066 519.208 135.384 519.81 134.915C520.416 134.441 521.144 134.205 521.992 134.205C522.841 134.205 523.566 134.441 524.168 134.915C524.774 135.384 525.237 136.066 525.555 136.96C525.877 137.85 526.038 138.924 526.038 140.182C526.038 141.447 525.879 142.527 525.56 143.42C525.242 144.311 524.782 144.991 524.18 145.46C523.577 145.926 522.848 146.159 521.992 146.159ZM521.992 144.909C522.841 144.909 523.5 144.5 523.969 143.682C524.439 142.864 524.674 141.697 524.674 140.182C524.674 139.174 524.566 138.316 524.35 137.608C524.138 136.9 523.831 136.36 523.43 135.989C523.032 135.617 522.553 135.432 521.992 135.432C521.151 135.432 520.494 135.847 520.021 136.676C519.547 137.502 519.31 138.67 519.31 140.182C519.31 141.189 519.416 142.045 519.629 142.75C519.841 143.455 520.146 143.991 520.543 144.358C520.945 144.725 521.428 144.909 521.992 144.909Z" fill="white"/>
<path d="M487.227 178.159C486.371 178.159 485.641 177.926 485.039 177.46C484.437 176.991 483.977 176.311 483.658 175.42C483.34 174.527 483.181 173.447 483.181 172.182C483.181 170.924 483.34 169.85 483.658 168.96C483.98 168.066 484.442 167.384 485.045 166.915C485.651 166.441 486.378 166.205 487.227 166.205C488.075 166.205 488.8 166.441 489.403 166.915C490.009 167.384 490.471 168.066 490.789 168.96C491.111 169.85 491.272 170.924 491.272 172.182C491.272 173.447 491.113 174.527 490.795 175.42C490.477 176.311 490.016 176.991 489.414 177.46C488.812 177.926 488.083 178.159 487.227 178.159ZM487.227 176.909C488.075 176.909 488.734 176.5 489.204 175.682C489.674 174.864 489.908 173.697 489.908 172.182C489.908 171.174 489.8 170.316 489.585 169.608C489.372 168.9 489.066 168.36 488.664 167.989C488.266 167.617 487.787 167.432 487.227 167.432C486.386 167.432 485.728 167.847 485.255 168.676C484.781 169.502 484.545 170.67 484.545 172.182C484.545 173.189 484.651 174.045 484.863 174.75C485.075 175.455 485.38 175.991 485.778 176.358C486.179 176.725 486.662 176.909 487.227 176.909ZM497.227 178.159C496.371 178.159 495.641 177.926 495.039 177.46C494.437 176.991 493.977 176.311 493.658 175.42C493.34 174.527 493.181 173.447 493.181 172.182C493.181 170.924 493.34 169.85 493.658 168.96C493.98 168.066 494.442 167.384 495.045 166.915C495.651 166.441 496.378 166.205 497.227 166.205C498.075 166.205 498.8 166.441 499.403 166.915C500.009 167.384 500.471 168.066 500.789 168.96C501.111 169.85 501.272 170.924 501.272 172.182C501.272 173.447 501.113 174.527 500.795 175.42C500.477 176.311 500.016 176.991 499.414 177.46C498.812 177.926 498.083 178.159 497.227 178.159ZM497.227 176.909C498.075 176.909 498.734 176.5 499.204 175.682C499.674 174.864 499.908 173.697 499.908 172.182C499.908 171.174 499.8 170.316 499.585 169.608C499.372 168.9 499.066 168.36 498.664 167.989C498.266 167.617 497.787 167.432 497.227 167.432C496.386 167.432 495.728 167.847 495.255 168.676C494.781 169.502 494.545 170.67 494.545 172.182C494.545 173.189 494.651 174.045 494.863 174.75C495.075 175.455 495.38 175.991 495.778 176.358C496.179 176.725 496.662 176.909 497.227 176.909ZM504.113 178H502.636L506.908 166.364H508.363L512.636 178H511.158L507.681 168.205H507.59L504.113 178ZM504.658 173.455H510.613V174.705H504.658V173.455ZM513.971 175.614V174.455L519.085 166.364H519.925V168.159H519.357L515.494 174.273V174.364H522.38V175.614H513.971ZM519.448 178V175.261V174.722V166.364H520.789V178H519.448ZM524.873 178L530.077 167.705V167.614H524.077V166.364H531.532V167.682L526.35 178H524.873ZM532.44 175.614V174.455L537.553 166.364H538.394V168.159H537.826L533.962 174.273V174.364H540.849V175.614H532.44ZM537.917 178V175.261V174.722V166.364H539.258V178H537.917Z" fill="white"/>
<rect x="576" y="40" width="64" height="80" rx="20" fill="#008361"/>
<path d="M595.123 146L600.327 135.705V135.614H594.327V134.364H601.782V135.682L596.6 146H595.123ZM607.445 146.159C606.589 146.159 605.86 145.926 605.258 145.46C604.656 144.991 604.195 144.311 603.877 143.42C603.559 142.527 603.4 141.447 603.4 140.182C603.4 138.924 603.559 137.85 603.877 136.96C604.199 136.066 604.661 135.384 605.263 134.915C605.87 134.441 606.597 134.205 607.445 134.205C608.294 134.205 609.019 134.441 609.621 134.915C610.228 135.384 610.69 136.066 611.008 136.96C611.33 137.85 611.491 138.924 611.491 140.182C611.491 141.447 611.332 142.527 611.013 143.42C610.695 144.311 610.235 144.991 609.633 145.46C609.031 145.926 608.301 146.159 607.445 146.159ZM607.445 144.909C608.294 144.909 608.953 144.5 609.423 143.682C609.892 142.864 610.127 141.697 610.127 140.182C610.127 139.174 610.019 138.316 609.803 137.608C609.591 136.9 609.284 136.36 608.883 135.989C608.485 135.617 608.006 135.432 607.445 135.432C606.604 135.432 605.947 135.847 605.474 136.676C605 137.502 604.763 138.67 604.763 140.182C604.763 141.189 604.87 142.045 605.082 142.75C605.294 143.455 605.599 143.991 605.996 144.358C606.398 144.725 606.881 144.909 607.445 144.909ZM617.445 146.159C616.589 146.159 615.86 145.926 615.258 145.46C614.656 144.991 614.195 144.311 613.877 143.42C613.559 142.527 613.4 141.447 613.4 140.182C613.4 138.924 613.559 137.85 613.877 136.96C614.199 136.066 614.661 135.384 615.263 134.915C615.87 134.441 616.597 134.205 617.445 134.205C618.294 134.205 619.019 134.441 619.621 134.915C620.228 135.384 620.69 136.066 621.008 136.96C621.33 137.85 621.491 138.924 621.491 140.182C621.491 141.447 621.332 142.527 621.013 143.42C620.695 144.311 620.235 144.991 619.633 145.46C619.031 145.926 618.301 146.159 617.445 146.159ZM617.445 144.909C618.294 144.909 618.953 144.5 619.423 143.682C619.892 142.864 620.127 141.697 620.127 140.182C620.127 139.174 620.019 138.316 619.803 137.608C619.591 136.9 619.284 136.36 618.883 135.989C618.485 135.617 618.006 135.432 617.445 135.432C616.604 135.432 615.947 135.847 615.474 136.676C615 137.502 614.763 138.67 614.763 140.182C614.763 141.189 614.87 142.045 615.082 142.75C615.294 143.455 615.599 143.991 615.996 144.358C616.398 144.725 616.881 144.909 617.445 144.909Z" fill="white"/>
<path d="M584.266 178.159C583.41 178.159 582.68 177.926 582.078 177.46C581.476 176.991 581.016 176.311 580.697 175.42C580.379 174.527 580.22 173.447 580.22 172.182C580.22 170.924 580.379 169.85 580.697 168.96C581.019 168.066 581.482 167.384 582.084 166.915C582.69 166.441 583.417 166.205 584.266 166.205C585.114 166.205 585.839 166.441 586.442 166.915C587.048 167.384 587.51 168.066 587.828 168.96C588.15 169.85 588.311 170.924 588.311 172.182C588.311 173.447 588.152 174.527 587.834 175.42C587.516 176.311 587.055 176.991 586.453 177.46C585.851 177.926 585.122 178.159 584.266 178.159ZM584.266 176.909C585.114 176.909 585.773 176.5 586.243 175.682C586.713 174.864 586.947 173.697 586.947 172.182C586.947 171.174 586.839 170.316 586.624 169.608C586.411 168.9 586.105 168.36 585.703 167.989C585.305 167.617 584.826 167.432 584.266 167.432C583.425 167.432 582.768 167.847 582.294 168.676C581.821 169.502 581.584 170.67 581.584 172.182C581.584 173.189 581.69 174.045 581.902 174.75C582.114 175.455 582.419 175.991 582.817 176.358C583.218 176.725 583.701 176.909 584.266 176.909ZM594.266 178.159C593.41 178.159 592.68 177.926 592.078 177.46C591.476 176.991 591.016 176.311 590.697 175.42C590.379 174.527 590.22 173.447 590.22 172.182C590.22 170.924 590.379 169.85 590.697 168.96C591.019 168.066 591.482 167.384 592.084 166.915C592.69 166.441 593.417 166.205 594.266 166.205C595.114 166.205 595.839 166.441 596.442 166.915C597.048 167.384 597.51 168.066 597.828 168.96C598.15 169.85 598.311 170.924 598.311 172.182C598.311 173.447 598.152 174.527 597.834 175.42C597.516 176.311 597.055 176.991 596.453 177.46C595.851 177.926 595.122 178.159 594.266 178.159ZM594.266 176.909C595.114 176.909 595.773 176.5 596.243 175.682C596.713 174.864 596.947 173.697 596.947 172.182C596.947 171.174 596.839 170.316 596.624 169.608C596.411 168.9 596.105 168.36 595.703 167.989C595.305 167.617 594.826 167.432 594.266 167.432C593.425 167.432 592.768 167.847 592.294 168.676C591.821 169.502 591.584 170.67 591.584 172.182C591.584 173.189 591.69 174.045 591.902 174.75C592.114 175.455 592.419 175.991 592.817 176.358C593.218 176.725 593.701 176.909 594.266 176.909ZM604.197 178.159C603.417 178.159 602.728 178.021 602.129 177.744C601.535 177.464 601.071 177.08 600.737 176.591C600.404 176.098 600.239 175.538 600.243 174.909C600.239 174.417 600.336 173.962 600.533 173.545C600.73 173.125 600.999 172.775 601.339 172.494C601.684 172.21 602.069 172.03 602.493 171.955V171.886C601.936 171.742 601.493 171.43 601.163 170.949C600.834 170.464 600.671 169.913 600.675 169.295C600.671 168.705 600.821 168.176 601.124 167.71C601.427 167.244 601.843 166.877 602.374 166.608C602.908 166.339 603.516 166.205 604.197 166.205C604.872 166.205 605.474 166.339 606.004 166.608C606.535 166.877 606.951 167.244 607.254 167.71C607.561 168.176 607.716 168.705 607.72 169.295C607.716 169.913 607.548 170.464 607.214 170.949C606.885 171.43 606.447 171.742 605.902 171.886V171.955C606.322 172.03 606.701 172.21 607.038 172.494C607.375 172.775 607.644 173.125 607.845 173.545C608.046 173.962 608.148 174.417 608.152 174.909C608.148 175.538 607.978 176.098 607.641 176.591C607.307 177.08 606.843 177.464 606.249 177.744C605.658 178.021 604.974 178.159 604.197 178.159ZM604.197 176.909C604.724 176.909 605.179 176.824 605.561 176.653C605.944 176.483 606.239 176.242 606.447 175.932C606.656 175.621 606.762 175.258 606.766 174.841C606.762 174.402 606.648 174.013 606.425 173.676C606.201 173.339 605.896 173.074 605.51 172.881C605.127 172.687 604.69 172.591 604.197 172.591C603.701 172.591 603.258 172.687 602.868 172.881C602.482 173.074 602.177 173.339 601.953 173.676C601.733 174.013 601.625 174.402 601.629 174.841C601.625 175.258 601.726 175.621 601.93 175.932C602.139 176.242 602.436 176.483 602.822 176.653C603.209 176.824 603.667 176.909 604.197 176.909ZM604.197 171.386C604.614 171.386 604.983 171.303 605.305 171.136C605.631 170.97 605.887 170.737 606.072 170.438C606.258 170.138 606.353 169.788 606.357 169.386C606.353 168.992 606.26 168.65 606.078 168.358C605.896 168.062 605.644 167.835 605.322 167.676C605 167.513 604.625 167.432 604.197 167.432C603.762 167.432 603.381 167.513 603.055 167.676C602.73 167.835 602.478 168.062 602.3 168.358C602.122 168.65 602.035 168.992 602.038 169.386C602.035 169.788 602.124 170.138 602.305 170.438C602.491 170.737 602.747 170.97 603.072 171.136C603.398 171.303 603.773 171.386 604.197 171.386ZM614.261 178.159C613.511 178.159 612.843 178.03 612.256 177.773C611.672 177.515 611.208 177.157 610.864 176.699C610.523 176.237 610.337 175.701 610.307 175.091H611.739C611.769 175.466 611.898 175.79 612.125 176.062C612.352 176.331 612.65 176.54 613.017 176.688C613.384 176.835 613.792 176.909 614.239 176.909C614.739 176.909 615.182 176.822 615.568 176.648C615.955 176.473 616.258 176.231 616.477 175.92C616.697 175.61 616.807 175.25 616.807 174.841C616.807 174.413 616.701 174.036 616.489 173.71C616.277 173.381 615.966 173.123 615.557 172.938C615.148 172.752 614.648 172.659 614.057 172.659H613.125V171.409H614.057C614.519 171.409 614.924 171.326 615.273 171.159C615.625 170.992 615.9 170.758 616.097 170.455C616.297 170.152 616.398 169.795 616.398 169.386C616.398 168.992 616.311 168.65 616.136 168.358C615.962 168.066 615.716 167.839 615.398 167.676C615.083 167.513 614.712 167.432 614.284 167.432C613.883 167.432 613.504 167.506 613.148 167.653C612.795 167.797 612.508 168.008 612.284 168.284C612.061 168.557 611.939 168.886 611.92 169.273H610.557C610.58 168.663 610.763 168.129 611.108 167.67C611.453 167.208 611.903 166.848 612.46 166.591C613.021 166.333 613.636 166.205 614.307 166.205C615.027 166.205 615.644 166.35 616.159 166.642C616.674 166.93 617.07 167.311 617.347 167.784C617.623 168.258 617.761 168.769 617.761 169.318C617.761 169.973 617.589 170.532 617.244 170.994C616.903 171.456 616.439 171.777 615.852 171.955V172.045C616.587 172.167 617.161 172.479 617.574 172.983C617.987 173.483 618.193 174.102 618.193 174.841C618.193 175.473 618.021 176.042 617.676 176.545C617.335 177.045 616.869 177.439 616.278 177.727C615.688 178.015 615.015 178.159 614.261 178.159ZM624.381 178.159C623.903 178.152 623.426 178.061 622.949 177.886C622.472 177.712 622.036 177.419 621.642 177.006C621.248 176.589 620.932 176.027 620.693 175.318C620.455 174.606 620.335 173.712 620.335 172.636C620.335 171.606 620.432 170.693 620.625 169.898C620.818 169.098 621.098 168.426 621.466 167.881C621.833 167.331 622.277 166.915 622.795 166.631C623.318 166.347 623.907 166.205 624.562 166.205C625.214 166.205 625.794 166.335 626.301 166.597C626.813 166.854 627.229 167.214 627.551 167.676C627.873 168.138 628.081 168.67 628.176 169.273H626.79C626.661 168.75 626.411 168.316 626.04 167.972C625.669 167.627 625.176 167.455 624.562 167.455C623.661 167.455 622.951 167.847 622.432 168.631C621.917 169.415 621.657 170.515 621.653 171.932H621.744C621.956 171.61 622.208 171.335 622.5 171.108C622.795 170.877 623.121 170.699 623.477 170.574C623.833 170.449 624.21 170.386 624.608 170.386C625.275 170.386 625.884 170.553 626.438 170.886C626.991 171.216 627.434 171.672 627.767 172.256C628.1 172.835 628.267 173.5 628.267 174.25C628.267 174.97 628.106 175.629 627.784 176.227C627.462 176.822 627.009 177.295 626.426 177.648C625.847 177.996 625.165 178.167 624.381 178.159ZM624.381 176.909C624.858 176.909 625.286 176.79 625.665 176.551C626.047 176.312 626.348 175.992 626.568 175.591C626.792 175.189 626.903 174.742 626.903 174.25C626.903 173.769 626.795 173.331 626.58 172.938C626.367 172.54 626.074 172.223 625.699 171.989C625.328 171.754 624.903 171.636 624.426 171.636C624.066 171.636 623.731 171.708 623.42 171.852C623.11 171.992 622.837 172.186 622.602 172.432C622.371 172.678 622.189 172.96 622.057 173.278C621.924 173.593 621.858 173.924 621.858 174.273C621.858 174.735 621.966 175.167 622.182 175.568C622.402 175.97 622.701 176.294 623.08 176.54C623.462 176.786 623.896 176.909 624.381 176.909ZM634.592 166.364V178H633.183V167.841H633.115L630.274 169.727V168.295L633.183 166.364H634.592Z" fill="white"/>
<rect x="672" y="40" width="64" height="80" rx="20" fill="#00674E"/>
<path d="M694.002 146.159C693.222 146.159 692.532 146.021 691.934 145.744C691.339 145.464 690.875 145.08 690.542 144.591C690.209 144.098 690.044 143.538 690.048 142.909C690.044 142.417 690.14 141.962 690.337 141.545C690.534 141.125 690.803 140.775 691.144 140.494C691.489 140.21 691.873 140.03 692.298 139.955V139.886C691.741 139.742 691.298 139.43 690.968 138.949C690.638 138.464 690.476 137.913 690.479 137.295C690.476 136.705 690.625 136.176 690.928 135.71C691.231 135.244 691.648 134.877 692.178 134.608C692.712 134.339 693.32 134.205 694.002 134.205C694.676 134.205 695.279 134.339 695.809 134.608C696.339 134.877 696.756 135.244 697.059 135.71C697.366 136.176 697.521 136.705 697.525 137.295C697.521 137.913 697.353 138.464 697.019 138.949C696.69 139.43 696.252 139.742 695.707 139.886V139.955C696.127 140.03 696.506 140.21 696.843 140.494C697.18 140.775 697.449 141.125 697.65 141.545C697.851 141.962 697.953 142.417 697.957 142.909C697.953 143.538 697.782 144.098 697.445 144.591C697.112 145.08 696.648 145.464 696.053 145.744C695.462 146.021 694.779 146.159 694.002 146.159ZM694.002 144.909C694.529 144.909 694.983 144.824 695.366 144.653C695.748 144.483 696.044 144.242 696.252 143.932C696.46 143.621 696.567 143.258 696.57 142.841C696.567 142.402 696.453 142.013 696.229 141.676C696.006 141.339 695.701 141.074 695.315 140.881C694.932 140.687 694.495 140.591 694.002 140.591C693.506 140.591 693.063 140.687 692.673 140.881C692.286 141.074 691.981 141.339 691.758 141.676C691.538 142.013 691.43 142.402 691.434 142.841C691.43 143.258 691.531 143.621 691.735 143.932C691.943 144.242 692.241 144.483 692.627 144.653C693.013 144.824 693.472 144.909 694.002 144.909ZM694.002 139.386C694.419 139.386 694.788 139.303 695.11 139.136C695.436 138.97 695.692 138.737 695.877 138.438C696.063 138.138 696.157 137.788 696.161 137.386C696.157 136.992 696.065 136.65 695.883 136.358C695.701 136.062 695.449 135.835 695.127 135.676C694.805 135.513 694.43 135.432 694.002 135.432C693.567 135.432 693.186 135.513 692.86 135.676C692.534 135.835 692.282 136.062 692.104 136.358C691.926 136.65 691.839 136.992 691.843 137.386C691.839 137.788 691.928 138.138 692.11 138.438C692.296 138.737 692.551 138.97 692.877 139.136C693.203 139.303 693.578 139.386 694.002 139.386ZM703.93 146.159C703.074 146.159 702.344 145.926 701.742 145.46C701.14 144.991 700.68 144.311 700.362 143.42C700.043 142.527 699.884 141.447 699.884 140.182C699.884 138.924 700.043 137.85 700.362 136.96C700.683 136.066 701.146 135.384 701.748 134.915C702.354 134.441 703.081 134.205 703.93 134.205C704.778 134.205 705.504 134.441 706.106 134.915C706.712 135.384 707.174 136.066 707.492 136.96C707.814 137.85 707.975 138.924 707.975 140.182C707.975 141.447 707.816 142.527 707.498 143.42C707.18 144.311 706.719 144.991 706.117 145.46C705.515 145.926 704.786 146.159 703.93 146.159ZM703.93 144.909C704.778 144.909 705.437 144.5 705.907 143.682C706.377 142.864 706.612 141.697 706.612 140.182C706.612 139.174 706.504 138.316 706.288 137.608C706.076 136.9 705.769 136.36 705.367 135.989C704.969 135.617 704.49 135.432 703.93 135.432C703.089 135.432 702.432 135.847 701.958 136.676C701.485 137.502 701.248 138.67 701.248 140.182C701.248 141.189 701.354 142.045 701.566 142.75C701.778 143.455 702.083 143.991 702.481 144.358C702.882 144.725 703.365 144.909 703.93 144.909ZM713.93 146.159C713.074 146.159 712.344 145.926 711.742 145.46C711.14 144.991 710.68 144.311 710.362 143.42C710.043 142.527 709.884 141.447 709.884 140.182C709.884 138.924 710.043 137.85 710.362 136.96C710.683 136.066 711.146 135.384 711.748 134.915C712.354 134.441 713.081 134.205 713.93 134.205C714.778 134.205 715.504 134.441 716.106 134.915C716.712 135.384 717.174 136.066 717.492 136.96C717.814 137.85 717.975 138.924 717.975 140.182C717.975 141.447 717.816 142.527 717.498 143.42C717.18 144.311 716.719 144.991 716.117 145.46C715.515 145.926 714.786 146.159 713.93 146.159ZM713.93 144.909C714.778 144.909 715.437 144.5 715.907 143.682C716.377 142.864 716.612 141.697 716.612 140.182C716.612 139.174 716.504 138.316 716.288 137.608C716.076 136.9 715.769 136.36 715.367 135.989C714.969 135.617 714.49 135.432 713.93 135.432C713.089 135.432 712.432 135.847 711.958 136.676C711.485 137.502 711.248 138.67 711.248 140.182C711.248 141.189 711.354 142.045 711.566 142.75C711.778 143.455 712.083 143.991 712.481 144.358C712.882 144.725 713.365 144.909 713.93 144.909Z" fill="white"/>
<path d="M679.992 178.159C679.136 178.159 678.407 177.926 677.805 177.46C677.202 176.991 676.742 176.311 676.424 175.42C676.106 174.527 675.947 173.447 675.947 172.182C675.947 170.924 676.106 169.85 676.424 168.96C676.746 168.066 677.208 167.384 677.81 166.915C678.416 166.441 679.144 166.205 679.992 166.205C680.841 166.205 681.566 166.441 682.168 166.915C682.774 167.384 683.237 168.066 683.555 168.96C683.877 169.85 684.038 170.924 684.038 172.182C684.038 173.447 683.879 174.527 683.56 175.42C683.242 176.311 682.782 176.991 682.18 177.46C681.577 177.926 680.848 178.159 679.992 178.159ZM679.992 176.909C680.841 176.909 681.5 176.5 681.969 175.682C682.439 174.864 682.674 173.697 682.674 172.182C682.674 171.174 682.566 170.316 682.35 169.608C682.138 168.9 681.831 168.36 681.43 167.989C681.032 167.617 680.553 167.432 679.992 167.432C679.151 167.432 678.494 167.847 678.021 168.676C677.547 169.502 677.31 170.67 677.31 172.182C677.31 173.189 677.416 174.045 677.629 174.75C677.841 175.455 678.146 175.991 678.543 176.358C678.945 176.725 679.428 176.909 679.992 176.909ZM689.992 178.159C689.136 178.159 688.407 177.926 687.805 177.46C687.202 176.991 686.742 176.311 686.424 175.42C686.106 174.527 685.947 173.447 685.947 172.182C685.947 170.924 686.106 169.85 686.424 168.96C686.746 168.066 687.208 167.384 687.81 166.915C688.416 166.441 689.144 166.205 689.992 166.205C690.841 166.205 691.566 166.441 692.168 166.915C692.774 167.384 693.237 168.066 693.555 168.96C693.877 169.85 694.038 170.924 694.038 172.182C694.038 173.447 693.879 174.527 693.56 175.42C693.242 176.311 692.782 176.991 692.18 177.46C691.577 177.926 690.848 178.159 689.992 178.159ZM689.992 176.909C690.841 176.909 691.5 176.5 691.969 175.682C692.439 174.864 692.674 173.697 692.674 172.182C692.674 171.174 692.566 170.316 692.35 169.608C692.138 168.9 691.831 168.36 691.43 167.989C691.032 167.617 690.553 167.432 689.992 167.432C689.151 167.432 688.494 167.847 688.021 168.676C687.547 169.502 687.31 170.67 687.31 172.182C687.31 173.189 687.416 174.045 687.629 174.75C687.841 175.455 688.146 175.991 688.543 176.358C688.945 176.725 689.428 176.909 689.992 176.909ZM700.06 178.159C699.583 178.152 699.106 178.061 698.629 177.886C698.151 177.712 697.716 177.419 697.322 177.006C696.928 176.589 696.612 176.027 696.373 175.318C696.134 174.606 696.015 173.712 696.015 172.636C696.015 171.606 696.112 170.693 696.305 169.898C696.498 169.098 696.778 168.426 697.146 167.881C697.513 167.331 697.956 166.915 698.475 166.631C698.998 166.347 699.587 166.205 700.242 166.205C700.894 166.205 701.473 166.335 701.981 166.597C702.492 166.854 702.909 167.214 703.231 167.676C703.553 168.138 703.761 168.67 703.856 169.273H702.469C702.341 168.75 702.091 168.316 701.719 167.972C701.348 167.627 700.856 167.455 700.242 167.455C699.341 167.455 698.63 167.847 698.112 168.631C697.596 169.415 697.337 170.515 697.333 171.932H697.424C697.636 171.61 697.888 171.335 698.18 171.108C698.475 170.877 698.801 170.699 699.157 170.574C699.513 170.449 699.89 170.386 700.288 170.386C700.954 170.386 701.564 170.553 702.117 170.886C702.67 171.216 703.113 171.672 703.447 172.256C703.78 172.835 703.947 173.5 703.947 174.25C703.947 174.97 703.786 175.629 703.464 176.227C703.142 176.822 702.689 177.295 702.106 177.648C701.526 177.996 700.844 178.167 700.06 178.159ZM700.06 176.909C700.538 176.909 700.966 176.79 701.344 176.551C701.727 176.312 702.028 175.992 702.248 175.591C702.471 175.189 702.583 174.742 702.583 174.25C702.583 173.769 702.475 173.331 702.259 172.938C702.047 172.54 701.754 172.223 701.379 171.989C701.007 171.754 700.583 171.636 700.106 171.636C699.746 171.636 699.411 171.708 699.1 171.852C698.79 171.992 698.517 172.186 698.282 172.432C698.051 172.678 697.869 172.96 697.737 173.278C697.604 173.593 697.538 173.924 697.538 174.273C697.538 174.735 697.646 175.167 697.862 175.568C698.081 175.97 698.38 176.294 698.759 176.54C699.142 176.786 699.576 176.909 700.06 176.909ZM706.545 178L711.749 167.705V167.614H705.749V166.364H713.204V167.682L708.022 178H706.545ZM714.112 175.614V174.455L719.225 166.364H720.066V168.159H719.498L715.634 174.273V174.364H722.521V175.614H714.112ZM719.589 178V175.261V174.722V166.364H720.93V178H719.589ZM724.854 178V166.364H731.877V167.614H726.263V171.545H731.513V172.795H726.263V176.75H731.968V178H724.854Z" fill="white"/>
<rect x="768" y="40" width="64" height="80" rx="20" fill="#005541"/>
<path d="M789.917 134.205C790.394 134.208 790.871 134.299 791.349 134.477C791.826 134.655 792.262 134.951 792.656 135.364C793.049 135.773 793.366 136.331 793.604 137.04C793.843 137.748 793.962 138.636 793.962 139.705C793.962 140.739 793.864 141.657 793.667 142.46C793.474 143.259 793.193 143.934 792.826 144.483C792.462 145.032 792.019 145.449 791.496 145.733C790.978 146.017 790.39 146.159 789.735 146.159C789.084 146.159 788.502 146.03 787.991 145.773C787.483 145.511 787.067 145.15 786.741 144.688C786.419 144.222 786.212 143.682 786.121 143.068H787.508C787.633 143.602 787.881 144.044 788.252 144.392C788.627 144.737 789.121 144.909 789.735 144.909C790.633 144.909 791.341 144.517 791.86 143.733C792.383 142.949 792.644 141.841 792.644 140.409H792.553C792.341 140.727 792.089 141.002 791.798 141.233C791.506 141.464 791.182 141.642 790.826 141.767C790.47 141.892 790.091 141.955 789.69 141.955C789.023 141.955 788.411 141.79 787.854 141.46C787.301 141.127 786.858 140.67 786.525 140.091C786.195 139.508 786.031 138.841 786.031 138.091C786.031 137.379 786.19 136.727 786.508 136.136C786.83 135.542 787.281 135.068 787.86 134.716C788.443 134.364 789.129 134.193 789.917 134.205ZM789.917 135.455C789.44 135.455 789.01 135.574 788.627 135.812C788.248 136.047 787.947 136.366 787.724 136.767C787.504 137.165 787.394 137.606 787.394 138.091C787.394 138.576 787.5 139.017 787.712 139.415C787.928 139.809 788.222 140.123 788.593 140.358C788.968 140.589 789.394 140.705 789.871 140.705C790.231 140.705 790.567 140.634 790.877 140.494C791.188 140.35 791.459 140.155 791.69 139.909C791.924 139.659 792.108 139.377 792.241 139.062C792.373 138.744 792.44 138.413 792.44 138.068C792.44 137.614 792.33 137.187 792.11 136.79C791.894 136.392 791.595 136.07 791.212 135.824C790.834 135.578 790.402 135.455 789.917 135.455ZM799.992 146.159C799.136 146.159 798.407 145.926 797.805 145.46C797.202 144.991 796.742 144.311 796.424 143.42C796.106 142.527 795.947 141.447 795.947 140.182C795.947 138.924 796.106 137.85 796.424 136.96C796.746 136.066 797.208 135.384 797.81 134.915C798.416 134.441 799.144 134.205 799.992 134.205C800.841 134.205 801.566 134.441 802.168 134.915C802.774 135.384 803.237 136.066 803.555 136.96C803.877 137.85 804.038 138.924 804.038 140.182C804.038 141.447 803.879 142.527 803.56 143.42C803.242 144.311 802.782 144.991 802.18 145.46C801.577 145.926 800.848 146.159 799.992 146.159ZM799.992 144.909C800.841 144.909 801.5 144.5 801.969 143.682C802.439 142.864 802.674 141.697 802.674 140.182C802.674 139.174 802.566 138.316 802.35 137.608C802.138 136.9 801.831 136.36 801.43 135.989C801.032 135.617 800.553 135.432 799.992 135.432C799.151 135.432 798.494 135.847 798.021 136.676C797.547 137.502 797.31 138.67 797.31 140.182C797.31 141.189 797.416 142.045 797.629 142.75C797.841 143.455 798.146 143.991 798.543 144.358C798.945 144.725 799.428 144.909 799.992 144.909ZM809.992 146.159C809.136 146.159 808.407 145.926 807.805 145.46C807.202 144.991 806.742 144.311 806.424 143.42C806.106 142.527 805.947 141.447 805.947 140.182C805.947 138.924 806.106 137.85 806.424 136.96C806.746 136.066 807.208 135.384 807.81 134.915C808.416 134.441 809.144 134.205 809.992 134.205C810.841 134.205 811.566 134.441 812.168 134.915C812.774 135.384 813.237 136.066 813.555 136.96C813.877 137.85 814.038 138.924 814.038 140.182C814.038 141.447 813.879 142.527 813.56 143.42C813.242 144.311 812.782 144.991 812.18 145.46C811.577 145.926 810.848 146.159 809.992 146.159ZM809.992 144.909C810.841 144.909 811.5 144.5 811.969 143.682C812.439 142.864 812.674 141.697 812.674 140.182C812.674 139.174 812.566 138.316 812.35 137.608C812.138 136.9 811.831 136.36 811.43 135.989C811.032 135.617 810.553 135.432 809.992 135.432C809.151 135.432 808.494 135.847 808.021 136.676C807.547 137.502 807.31 138.67 807.31 140.182C807.31 141.189 807.416 142.045 807.629 142.75C807.841 143.455 808.146 143.991 808.543 144.358C808.945 144.725 809.428 144.909 809.992 144.909Z" fill="white"/>
<path d="M776.492 178.159C775.636 178.159 774.907 177.926 774.305 177.46C773.702 176.991 773.242 176.311 772.924 175.42C772.606 174.527 772.447 173.447 772.447 172.182C772.447 170.924 772.606 169.85 772.924 168.96C773.246 168.066 773.708 167.384 774.31 166.915C774.916 166.441 775.644 166.205 776.492 166.205C777.341 166.205 778.066 166.441 778.668 166.915C779.274 167.384 779.737 168.066 780.055 168.96C780.377 169.85 780.538 170.924 780.538 172.182C780.538 173.447 780.379 174.527 780.06 175.42C779.742 176.311 779.282 176.991 778.68 177.46C778.077 177.926 777.348 178.159 776.492 178.159ZM776.492 176.909C777.341 176.909 778 176.5 778.469 175.682C778.939 174.864 779.174 173.697 779.174 172.182C779.174 171.174 779.066 170.316 778.85 169.608C778.638 168.9 778.331 168.36 777.93 167.989C777.532 167.617 777.053 167.432 776.492 167.432C775.651 167.432 774.994 167.847 774.521 168.676C774.047 169.502 773.81 170.67 773.81 172.182C773.81 173.189 773.916 174.045 774.129 174.75C774.341 175.455 774.646 175.991 775.043 176.358C775.445 176.725 775.928 176.909 776.492 176.909ZM786.492 178.159C785.636 178.159 784.907 177.926 784.305 177.46C783.702 176.991 783.242 176.311 782.924 175.42C782.606 174.527 782.447 173.447 782.447 172.182C782.447 170.924 782.606 169.85 782.924 168.96C783.246 168.066 783.708 167.384 784.31 166.915C784.916 166.441 785.644 166.205 786.492 166.205C787.341 166.205 788.066 166.441 788.668 166.915C789.274 167.384 789.737 168.066 790.055 168.96C790.377 169.85 790.538 170.924 790.538 172.182C790.538 173.447 790.379 174.527 790.06 175.42C789.742 176.311 789.282 176.991 788.68 177.46C788.077 177.926 787.348 178.159 786.492 178.159ZM786.492 176.909C787.341 176.909 788 176.5 788.469 175.682C788.939 174.864 789.174 173.697 789.174 172.182C789.174 171.174 789.066 170.316 788.85 169.608C788.638 168.9 788.331 168.36 787.93 167.989C787.532 167.617 787.053 167.432 786.492 167.432C785.651 167.432 784.994 167.847 784.521 168.676C784.047 169.502 783.81 170.67 783.81 172.182C783.81 173.189 783.916 174.045 784.129 174.75C784.341 175.455 784.646 175.991 785.043 176.358C785.445 176.725 785.928 176.909 786.492 176.909ZM796.333 178.159C795.666 178.159 795.066 178.027 794.532 177.761C793.998 177.496 793.57 177.133 793.248 176.67C792.926 176.208 792.75 175.682 792.719 175.091H794.083C794.136 175.617 794.375 176.053 794.799 176.398C795.227 176.739 795.738 176.909 796.333 176.909C796.81 176.909 797.235 176.797 797.606 176.574C797.981 176.35 798.274 176.044 798.487 175.653C798.702 175.259 798.81 174.814 798.81 174.318C798.81 173.811 798.699 173.358 798.475 172.96C798.255 172.559 797.952 172.242 797.566 172.011C797.18 171.78 796.738 171.663 796.242 171.659C795.886 171.655 795.521 171.71 795.146 171.824C794.771 171.934 794.462 172.076 794.219 172.25L792.901 172.091L793.606 166.364H799.651V167.614H794.788L794.379 171.045H794.447C794.685 170.856 794.985 170.699 795.344 170.574C795.704 170.449 796.079 170.386 796.469 170.386C797.182 170.386 797.816 170.557 798.373 170.898C798.933 171.235 799.373 171.697 799.691 172.284C800.013 172.871 800.174 173.542 800.174 174.295C800.174 175.038 800.007 175.701 799.674 176.284C799.344 176.864 798.89 177.322 798.31 177.659C797.731 177.992 797.072 178.159 796.333 178.159ZM806.067 178.159C805.401 178.159 804.8 178.027 804.266 177.761C803.732 177.496 803.304 177.133 802.982 176.67C802.66 176.208 802.484 175.682 802.454 175.091H803.817C803.871 175.617 804.109 176.053 804.533 176.398C804.961 176.739 805.473 176.909 806.067 176.909C806.545 176.909 806.969 176.797 807.34 176.574C807.715 176.35 808.009 176.044 808.221 175.653C808.437 175.259 808.545 174.814 808.545 174.318C808.545 173.811 808.433 173.358 808.21 172.96C807.99 172.559 807.687 172.242 807.3 172.011C806.914 171.78 806.473 171.663 805.977 171.659C805.621 171.655 805.255 171.71 804.88 171.824C804.505 171.934 804.196 172.076 803.954 172.25L802.636 172.091L803.34 166.364H809.386V167.614H804.522L804.113 171.045H804.181C804.42 170.856 804.719 170.699 805.079 170.574C805.439 170.449 805.814 170.386 806.204 170.386C806.916 170.386 807.55 170.557 808.107 170.898C808.668 171.235 809.107 171.697 809.425 172.284C809.747 172.871 809.908 173.542 809.908 174.295C809.908 175.038 809.742 175.701 809.408 176.284C809.079 176.864 808.624 177.322 808.045 177.659C807.465 177.992 806.806 178.159 806.067 178.159ZM811.893 175.614V174.455L817.006 166.364H817.847V168.159H817.279L813.415 174.273V174.364H820.302V175.614H811.893ZM817.37 178V175.261V174.722V166.364H818.711V178H817.37ZM826.366 166.364V178H824.957V167.841H824.888L822.048 169.727V168.295L824.957 166.364H826.366Z" fill="white"/>
<rect x="864" y="40" width="64" height="80" rx="20" fill="#003026"/>
<path d="M886.05 134.205C886.527 134.208 887.004 134.299 887.482 134.477C887.959 134.655 888.394 134.951 888.788 135.364C889.182 135.773 889.499 136.331 889.737 137.04C889.976 137.748 890.095 138.636 890.095 139.705C890.095 140.739 889.997 141.657 889.8 142.46C889.607 143.259 889.326 143.934 888.959 144.483C888.595 145.032 888.152 145.449 887.629 145.733C887.11 146.017 886.523 146.159 885.868 146.159C885.216 146.159 884.635 146.03 884.124 145.773C883.616 145.511 883.199 145.15 882.874 144.688C882.552 144.222 882.345 143.682 882.254 143.068H883.641C883.766 143.602 884.014 144.044 884.385 144.392C884.76 144.737 885.254 144.909 885.868 144.909C886.766 144.909 887.474 144.517 887.993 143.733C888.516 142.949 888.777 141.841 888.777 140.409H888.686C888.474 140.727 888.222 141.002 887.93 141.233C887.639 141.464 887.315 141.642 886.959 141.767C886.603 141.892 886.224 141.955 885.822 141.955C885.156 141.955 884.544 141.79 883.987 141.46C883.434 141.127 882.991 140.67 882.658 140.091C882.328 139.508 882.163 138.841 882.163 138.091C882.163 137.379 882.322 136.727 882.641 136.136C882.963 135.542 883.413 135.068 883.993 134.716C884.576 134.364 885.262 134.193 886.05 134.205ZM886.05 135.455C885.572 135.455 885.143 135.574 884.76 135.812C884.381 136.047 884.08 136.366 883.857 136.767C883.637 137.165 883.527 137.606 883.527 138.091C883.527 138.576 883.633 139.017 883.845 139.415C884.061 139.809 884.355 140.123 884.726 140.358C885.101 140.589 885.527 140.705 886.004 140.705C886.364 140.705 886.699 140.634 887.01 140.494C887.321 140.35 887.591 140.155 887.822 139.909C888.057 139.659 888.241 139.377 888.374 139.062C888.506 138.744 888.572 138.413 888.572 138.068C888.572 137.614 888.463 137.187 888.243 136.79C888.027 136.392 887.728 136.07 887.345 135.824C886.966 135.578 886.535 135.455 886.05 135.455ZM895.966 146.159C895.299 146.159 894.699 146.027 894.165 145.761C893.631 145.496 893.203 145.133 892.881 144.67C892.559 144.208 892.383 143.682 892.352 143.091H893.716C893.769 143.617 894.008 144.053 894.432 144.398C894.86 144.739 895.371 144.909 895.966 144.909C896.443 144.909 896.867 144.797 897.239 144.574C897.614 144.35 897.907 144.044 898.119 143.653C898.335 143.259 898.443 142.814 898.443 142.318C898.443 141.811 898.331 141.358 898.108 140.96C897.888 140.559 897.585 140.242 897.199 140.011C896.813 139.78 896.371 139.663 895.875 139.659C895.519 139.655 895.153 139.71 894.778 139.824C894.403 139.934 894.095 140.076 893.852 140.25L892.534 140.091L893.239 134.364H899.284V135.614H894.42L894.011 139.045H894.08C894.318 138.856 894.617 138.699 894.977 138.574C895.337 138.449 895.712 138.386 896.102 138.386C896.814 138.386 897.449 138.557 898.006 138.898C898.566 139.235 899.006 139.697 899.324 140.284C899.646 140.871 899.807 141.542 899.807 142.295C899.807 143.038 899.64 143.701 899.307 144.284C898.977 144.864 898.523 145.322 897.943 145.659C897.364 145.992 896.705 146.159 895.966 146.159ZM905.859 146.159C905.003 146.159 904.274 145.926 903.672 145.46C903.07 144.991 902.609 144.311 902.291 143.42C901.973 142.527 901.814 141.447 901.814 140.182C901.814 138.924 901.973 137.85 902.291 136.96C902.613 136.066 903.075 135.384 903.678 134.915C904.284 134.441 905.011 134.205 905.859 134.205C906.708 134.205 907.433 134.441 908.036 134.915C908.642 135.384 909.104 136.066 909.422 136.96C909.744 137.85 909.905 138.924 909.905 140.182C909.905 141.447 909.746 142.527 909.428 143.42C909.109 144.311 908.649 144.991 908.047 145.46C907.445 145.926 906.715 146.159 905.859 146.159ZM905.859 144.909C906.708 144.909 907.367 144.5 907.837 143.682C908.306 142.864 908.541 141.697 908.541 140.182C908.541 139.174 908.433 138.316 908.217 137.608C908.005 136.9 907.698 136.36 907.297 135.989C906.899 135.617 906.42 135.432 905.859 135.432C905.018 135.432 904.361 135.847 903.888 136.676C903.414 137.502 903.178 138.67 903.178 140.182C903.178 141.189 903.284 142.045 903.496 142.75C903.708 143.455 904.013 143.991 904.411 144.358C904.812 144.725 905.295 144.909 905.859 144.909Z" fill="white"/>
<path d="M871.07 178.159C870.214 178.159 869.485 177.926 868.883 177.46C868.281 176.991 867.82 176.311 867.502 175.42C867.184 174.527 867.025 173.447 867.025 172.182C867.025 170.924 867.184 169.85 867.502 168.96C867.824 168.066 868.286 167.384 868.888 166.915C869.495 166.441 870.222 166.205 871.07 166.205C871.919 166.205 872.644 166.441 873.246 166.915C873.853 167.384 874.315 168.066 874.633 168.96C874.955 169.85 875.116 170.924 875.116 172.182C875.116 173.447 874.957 174.527 874.638 175.42C874.32 176.311 873.86 176.991 873.258 177.46C872.656 177.926 871.926 178.159 871.07 178.159ZM871.07 176.909C871.919 176.909 872.578 176.5 873.048 175.682C873.517 174.864 873.752 173.697 873.752 172.182C873.752 171.174 873.644 170.316 873.428 169.608C873.216 168.9 872.909 168.36 872.508 167.989C872.11 167.617 871.631 167.432 871.07 167.432C870.229 167.432 869.572 167.847 869.099 168.676C868.625 169.502 868.388 170.67 868.388 172.182C868.388 173.189 868.495 174.045 868.707 174.75C868.919 175.455 869.224 175.991 869.621 176.358C870.023 176.725 870.506 176.909 871.07 176.909ZM881.07 178.159C880.214 178.159 879.485 177.926 878.883 177.46C878.281 176.991 877.82 176.311 877.502 175.42C877.184 174.527 877.025 173.447 877.025 172.182C877.025 170.924 877.184 169.85 877.502 168.96C877.824 168.066 878.286 167.384 878.888 166.915C879.495 166.441 880.222 166.205 881.07 166.205C881.919 166.205 882.644 166.441 883.246 166.915C883.853 167.384 884.315 168.066 884.633 168.96C884.955 169.85 885.116 170.924 885.116 172.182C885.116 173.447 884.957 174.527 884.638 175.42C884.32 176.311 883.86 176.991 883.258 177.46C882.656 177.926 881.926 178.159 881.07 178.159ZM881.07 176.909C881.919 176.909 882.578 176.5 883.048 175.682C883.517 174.864 883.752 173.697 883.752 172.182C883.752 171.174 883.644 170.316 883.428 169.608C883.216 168.9 882.909 168.36 882.508 167.989C882.11 167.617 881.631 167.432 881.07 167.432C880.229 167.432 879.572 167.847 879.099 168.676C878.625 169.502 878.388 170.67 878.388 172.182C878.388 173.189 878.495 174.045 878.707 174.75C878.919 175.455 879.224 175.991 879.621 176.358C880.023 176.725 880.506 176.909 881.07 176.909ZM891.207 178.159C890.457 178.159 889.788 178.03 889.201 177.773C888.618 177.515 888.154 177.157 887.809 176.699C887.468 176.237 887.282 175.701 887.252 175.091H888.684C888.714 175.466 888.843 175.79 889.07 176.062C889.298 176.331 889.595 176.54 889.962 176.688C890.33 176.835 890.737 176.909 891.184 176.909C891.684 176.909 892.127 176.822 892.513 176.648C892.9 176.473 893.203 176.231 893.423 175.92C893.642 175.61 893.752 175.25 893.752 174.841C893.752 174.413 893.646 174.036 893.434 173.71C893.222 173.381 892.911 173.123 892.502 172.938C892.093 172.752 891.593 172.659 891.002 172.659H890.07V171.409H891.002C891.464 171.409 891.87 171.326 892.218 171.159C892.57 170.992 892.845 170.758 893.042 170.455C893.243 170.152 893.343 169.795 893.343 169.386C893.343 168.992 893.256 168.65 893.082 168.358C892.907 168.066 892.661 167.839 892.343 167.676C892.029 167.513 891.657 167.432 891.229 167.432C890.828 167.432 890.449 167.506 890.093 167.653C889.741 167.797 889.453 168.008 889.229 168.284C889.006 168.557 888.885 168.886 888.866 169.273H887.502C887.525 168.663 887.709 168.129 888.053 167.67C888.398 167.208 888.849 166.848 889.406 166.591C889.966 166.333 890.582 166.205 891.252 166.205C891.972 166.205 892.589 166.35 893.104 166.642C893.62 166.93 894.015 167.311 894.292 167.784C894.568 168.258 894.707 168.769 894.707 169.318C894.707 169.973 894.534 170.532 894.19 170.994C893.849 171.456 893.385 171.777 892.798 171.955V172.045C893.532 172.167 894.106 172.479 894.519 172.983C894.932 173.483 895.138 174.102 895.138 174.841C895.138 175.473 894.966 176.042 894.621 176.545C894.281 177.045 893.815 177.439 893.224 177.727C892.633 178.015 891.96 178.159 891.207 178.159ZM901.258 178.159C900.402 178.159 899.673 177.926 899.07 177.46C898.468 176.991 898.008 176.311 897.69 175.42C897.371 174.527 897.212 173.447 897.212 172.182C897.212 170.924 897.371 169.85 897.69 168.96C898.012 168.066 898.474 167.384 899.076 166.915C899.682 166.441 900.409 166.205 901.258 166.205C902.106 166.205 902.832 166.441 903.434 166.915C904.04 167.384 904.502 168.066 904.82 168.96C905.142 169.85 905.303 170.924 905.303 172.182C905.303 173.447 905.144 174.527 904.826 175.42C904.508 176.311 904.048 176.991 903.445 177.46C902.843 177.926 902.114 178.159 901.258 178.159ZM901.258 176.909C902.106 176.909 902.765 176.5 903.235 175.682C903.705 174.864 903.94 173.697 903.94 172.182C903.94 171.174 903.832 170.316 903.616 169.608C903.404 168.9 903.097 168.36 902.695 167.989C902.298 167.617 901.818 167.432 901.258 167.432C900.417 167.432 899.76 167.847 899.286 168.676C898.813 169.502 898.576 170.67 898.576 172.182C898.576 173.189 898.682 174.045 898.894 174.75C899.106 175.455 899.411 175.991 899.809 176.358C900.21 176.725 900.693 176.909 901.258 176.909ZM907.462 178V176.977L911.303 172.773C911.754 172.28 912.125 171.852 912.417 171.489C912.709 171.121 912.924 170.777 913.065 170.455C913.209 170.129 913.281 169.788 913.281 169.432C913.281 169.023 913.182 168.669 912.985 168.369C912.792 168.07 912.527 167.839 912.19 167.676C911.853 167.513 911.474 167.432 911.053 167.432C910.606 167.432 910.216 167.525 909.883 167.71C909.553 167.892 909.298 168.148 909.116 168.477C908.938 168.807 908.849 169.193 908.849 169.636H907.508C907.508 168.955 907.665 168.356 907.979 167.841C908.294 167.326 908.722 166.924 909.263 166.636C909.809 166.348 910.421 166.205 911.099 166.205C911.781 166.205 912.385 166.348 912.911 166.636C913.438 166.924 913.851 167.312 914.15 167.801C914.449 168.29 914.599 168.833 914.599 169.432C914.599 169.86 914.521 170.278 914.366 170.688C914.214 171.093 913.949 171.545 913.57 172.045C913.195 172.542 912.674 173.148 912.008 173.864L909.394 176.659V176.75H914.803V178H907.462ZM921.013 178.159C920.536 178.152 920.059 178.061 919.582 177.886C919.104 177.712 918.669 177.419 918.275 177.006C917.881 176.589 917.565 176.027 917.326 175.318C917.087 174.606 916.968 173.712 916.968 172.636C916.968 171.606 917.065 170.693 917.258 169.898C917.451 169.098 917.731 168.426 918.099 167.881C918.466 167.331 918.909 166.915 919.428 166.631C919.951 166.347 920.54 166.205 921.195 166.205C921.847 166.205 922.426 166.335 922.934 166.597C923.445 166.854 923.862 167.214 924.184 167.676C924.506 168.138 924.714 168.67 924.809 169.273H923.423C923.294 168.75 923.044 168.316 922.673 167.972C922.301 167.627 921.809 167.455 921.195 167.455C920.294 167.455 919.584 167.847 919.065 168.631C918.549 169.415 918.29 170.515 918.286 171.932H918.377C918.589 171.61 918.841 171.335 919.133 171.108C919.428 170.877 919.754 170.699 920.11 170.574C920.466 170.449 920.843 170.386 921.241 170.386C921.907 170.386 922.517 170.553 923.07 170.886C923.623 171.216 924.067 171.672 924.4 172.256C924.733 172.835 924.9 173.5 924.9 174.25C924.9 174.97 924.739 175.629 924.417 176.227C924.095 176.822 923.642 177.295 923.059 177.648C922.479 177.996 921.798 178.167 921.013 178.159ZM921.013 176.909C921.491 176.909 921.919 176.79 922.298 176.551C922.68 176.312 922.981 175.992 923.201 175.591C923.424 175.189 923.536 174.742 923.536 174.25C923.536 173.769 923.428 173.331 923.212 172.938C923 172.54 922.707 172.223 922.332 171.989C921.96 171.754 921.536 171.636 921.059 171.636C920.699 171.636 920.364 171.708 920.053 171.852C919.743 171.992 919.47 172.186 919.235 172.432C919.004 172.678 918.822 172.96 918.69 173.278C918.557 173.593 918.491 173.924 918.491 174.273C918.491 174.735 918.599 175.167 918.815 175.568C919.034 175.97 919.334 176.294 919.712 176.54C920.095 176.786 920.529 176.909 921.013 176.909Z" fill="white"/>
</svg>
