<svg width="32" height="32" viewBox="0 0 32 32" fill="none" xmlns="http://www.w3.org/2000/svg">
<rect x="0.5" y="0.5" width="31" height="31" rx="15.5" stroke="white"/>
<g clip-path="url(#clip0_605_125)">
<path d="M16 24C11.6066 24 8 20.4153 8 16C8 11.5847 11.6066 8 16 8C20.3934 8 24 11.6066 24 16C24 20.3934 20.4153 24 16 24ZM22.7541 17.0929C22.5137 17.0273 20.612 16.459 18.4918 16.8087C19.3661 19.2787 19.7377 21.2459 19.8033 21.6831C21.3552 20.612 22.4262 18.9945 22.7541 17.0929ZM18.6667 22.2951C18.5574 21.6831 18.1639 19.5847 17.2022 17.0929H17.1585C13.3333 18.4481 11.9344 21.1148 11.8033 21.3552C12.9836 22.2514 14.4262 22.8197 16 22.8197C16.9617 22.8197 17.8579 22.6448 18.6667 22.2951ZM10.929 20.5902C11.0601 20.3497 12.9617 17.224 16.4809 16.0874C16.5902 16.0437 16.6557 16.0219 16.765 16.0219C16.5902 15.6284 16.4153 15.235 16.1967 14.8415C12.7869 15.8689 9.48634 15.8251 9.15847 15.8033V16.0219C9.18033 17.7705 9.81421 19.3661 10.929 20.5902ZM9.31148 14.623C9.63934 14.623 12.4372 14.623 15.6284 13.8142C14.4918 11.7814 13.2896 10.1202 13.1148 9.87978C11.1694 10.7541 9.74863 12.4809 9.31148 14.623ZM14.4044 9.39891C14.5792 9.63934 15.8251 11.3443 16.9617 13.377C19.3661 12.459 20.4153 11.1038 20.5464 10.929C19.3443 9.85792 17.7486 9.22404 16.0437 9.22404C15.4317 9.18033 14.9071 9.2459 14.4044 9.39891ZM21.2896 11.694C21.1366 11.8689 20.0219 13.3552 17.4863 14.4044C17.6393 14.7322 17.8142 15.0383 17.9454 15.388C17.9891 15.4973 18.0546 15.6284 18.0984 15.7377C20.3716 15.4536 22.6448 15.9126 22.8634 15.9563C22.8197 14.3388 22.2514 12.8743 21.2896 11.694Z" fill="white"/>
</g>
<defs>
<clipPath id="clip0_605_125">
<rect width="16" height="16" fill="white" transform="translate(8 8)"/>
</clipPath>
</defs>
</svg>
