<svg width="177" height="32" viewBox="0 0 177 32" fill="none" xmlns="http://www.w3.org/2000/svg">
<rect x="0.5" y="0.5" width="176" height="31" rx="15.5" stroke="#525252"/>
<path d="M29.6666 13.1253L24 16M24 16L18.3333 13.1253M24 16L24 21.7833M30 18.4707V13.5293C30 13.3207 30 13.2164 29.9663 13.1234C29.9366 13.0411 29.8879 12.9656 29.8236 12.9018C29.7509 12.8298 29.651 12.7792 29.4514 12.6779L24.518 10.1752C24.329 10.0792 24.2344 10.0313 24.1343 10.0125C24.0457 9.99584 23.9543 9.99584 23.8657 10.0125C23.7656 10.0313 23.6711 10.0792 23.482 10.1752L18.5486 12.6779C18.349 12.7792 18.2491 12.8298 18.1764 12.9018C18.1121 12.9656 18.0634 13.0411 18.0337 13.1234C18 13.2164 18 13.3207 18 13.5293V18.4707C18 18.6793 18 18.7836 18.0337 18.8766C18.0634 18.9589 18.1121 19.0344 18.1764 19.0982C18.2491 19.1702 18.349 19.2208 18.5486 19.3221L23.482 21.8248C23.6711 21.9208 23.7656 21.9687 23.8657 21.9875C23.9543 22.0042 24.0457 22.0042 24.1343 21.9875C24.2344 21.9687 24.3289 21.9208 24.518 21.8248L29.4514 19.3221C29.651 19.2208 29.7509 19.1702 29.8236 19.0982C29.8879 19.0344 29.9366 18.9589 29.9663 18.8766C30 18.7836 30 18.6793 30 18.4707Z" stroke="white" stroke-linecap="round" stroke-linejoin="round"/>
<path d="M43.5852 11.2727V20H42.5284V12.2102H38.1307V20H37.0739V11.2727H43.5852ZM45.5806 22.4545V13.4545H46.5522V14.4943H46.6715C46.7454 14.3807 46.8477 14.2358 46.9783 14.0597C47.1119 13.8807 47.3022 13.7216 47.5494 13.5824C47.7994 13.4403 48.1374 13.3693 48.5636 13.3693C49.1147 13.3693 49.6005 13.5071 50.021 13.7827C50.4414 14.0582 50.7695 14.4489 51.0053 14.9545C51.2411 15.4602 51.359 16.0568 51.359 16.7443C51.359 17.4375 51.2411 18.0384 51.0053 18.5469C50.7695 19.0526 50.4428 19.4446 50.0252 19.723C49.6076 19.9986 49.1261 20.1364 48.5806 20.1364C48.1602 20.1364 47.8235 20.0668 47.5707 19.9276C47.3178 19.7855 47.1232 19.625 46.9869 19.446C46.8505 19.2642 46.7454 19.1136 46.6715 18.9943H46.5863V22.4545H45.5806ZM46.5692 16.7273C46.5692 17.2216 46.6417 17.6577 46.7866 18.0355C46.9315 18.4105 47.1431 18.7045 47.4215 18.9176C47.6999 19.1278 48.0408 19.233 48.4442 19.233C48.8647 19.233 49.2156 19.1222 49.4968 18.9006C49.7809 18.6761 49.994 18.375 50.136 17.9972C50.2809 17.6165 50.3533 17.1932 50.3533 16.7273C50.3533 16.267 50.2823 15.8523 50.1403 15.483C50.0011 15.1108 49.7894 14.8168 49.5053 14.6009C49.2241 14.3821 48.8704 14.2727 48.4442 14.2727C48.0352 14.2727 47.6914 14.3764 47.413 14.5838C47.1346 14.7884 46.9244 15.0753 46.7823 15.4446C46.6403 15.8111 46.5692 16.2386 46.5692 16.7273ZM55.5522 20.1364C54.9613 20.1364 54.4428 19.9957 53.9968 19.7145C53.5536 19.4332 53.207 19.0398 52.957 18.5341C52.7099 18.0284 52.5863 17.4375 52.5863 16.7614C52.5863 16.0795 52.7099 15.4844 52.957 14.9759C53.207 14.4673 53.5536 14.0724 53.9968 13.7912C54.4428 13.5099 54.9613 13.3693 55.5522 13.3693C56.1431 13.3693 56.6602 13.5099 57.1033 13.7912C57.5494 14.0724 57.896 14.4673 58.1431 14.9759C58.3931 15.4844 58.5181 16.0795 58.5181 16.7614C58.5181 17.4375 58.3931 18.0284 58.1431 18.5341C57.896 19.0398 57.5494 19.4332 57.1033 19.7145C56.6602 19.9957 56.1431 20.1364 55.5522 20.1364ZM55.5522 19.233C56.0011 19.233 56.3704 19.1179 56.6602 18.8878C56.9499 18.6577 57.1644 18.3551 57.3036 17.9801C57.4428 17.6051 57.5124 17.1989 57.5124 16.7614C57.5124 16.3239 57.4428 15.9162 57.3036 15.5384C57.1644 15.1605 56.9499 14.8551 56.6602 14.6222C56.3704 14.3892 56.0011 14.2727 55.5522 14.2727C55.1033 14.2727 54.734 14.3892 54.4442 14.6222C54.1545 14.8551 53.94 15.1605 53.8008 15.5384C53.6616 15.9162 53.592 16.3239 53.592 16.7614C53.592 17.1989 53.6616 17.6051 53.8008 17.9801C53.94 18.3551 54.1545 18.6577 54.4442 18.8878C54.734 19.1179 55.1033 19.233 55.5522 19.233ZM59.3544 21.875V19.0625H59.8999C60.0334 18.9233 60.1484 18.7727 60.245 18.6108C60.3416 18.4489 60.4254 18.2571 60.4964 18.0355C60.5703 17.8111 60.6328 17.5384 60.6839 17.2173C60.7351 16.8935 60.7805 16.5028 60.8203 16.0455L61.0419 13.4545H65.201V19.0625H66.2067V21.875H65.201V20H60.3601V21.875H59.3544ZM61.0419 19.0625H64.1953V14.392H61.9794L61.8089 16.0455C61.7379 16.7301 61.6499 17.3281 61.5447 17.8395C61.4396 18.3509 61.272 18.7585 61.0419 19.0625ZM68.1893 22.4545C68.0188 22.4545 67.8668 22.4403 67.7333 22.4119C67.5998 22.3864 67.5075 22.3608 67.4563 22.3352L67.712 21.4489C67.9563 21.5114 68.1722 21.5341 68.3597 21.517C68.5472 21.5 68.7134 21.4162 68.8583 21.2656C69.006 21.1179 69.141 20.8778 69.2631 20.5455L69.4506 20.0341L67.0302 13.4545H68.1211L69.9279 18.6705H69.9961L71.8029 13.4545H72.8938L70.1154 20.9545C69.9904 21.2926 69.8356 21.5724 69.6509 21.794C69.4663 22.0185 69.2518 22.1847 69.0075 22.2926C68.766 22.4006 68.4933 22.4545 68.1893 22.4545ZM74.2212 20V13.4545H75.2269V16.3011H75.8917L78.244 13.4545H79.5394L76.8974 16.608L79.5735 20H78.2781L76.1303 17.2386H75.2269V20H74.2212ZM80.2915 14.392V13.4545H85.6097V14.392H83.462V20H82.4563V14.392H80.2915ZM89.396 20.1364C88.805 20.1364 88.2866 19.9957 87.8406 19.7145C87.3974 19.4332 87.0508 19.0398 86.8008 18.5341C86.5536 18.0284 86.43 17.4375 86.43 16.7614C86.43 16.0795 86.5536 15.4844 86.8008 14.9759C87.0508 14.4673 87.3974 14.0724 87.8406 13.7912C88.2866 13.5099 88.805 13.3693 89.396 13.3693C89.9869 13.3693 90.5039 13.5099 90.9471 13.7912C91.3931 14.0724 91.7397 14.4673 91.9869 14.9759C92.2369 15.4844 92.3619 16.0795 92.3619 16.7614C92.3619 17.4375 92.2369 18.0284 91.9869 18.5341C91.7397 19.0398 91.3931 19.4332 90.9471 19.7145C90.5039 19.9957 89.9869 20.1364 89.396 20.1364ZM89.396 19.233C89.8448 19.233 90.2141 19.1179 90.5039 18.8878C90.7937 18.6577 91.0082 18.3551 91.1474 17.9801C91.2866 17.6051 91.3562 17.1989 91.3562 16.7614C91.3562 16.3239 91.2866 15.9162 91.1474 15.5384C91.0082 15.1605 90.7937 14.8551 90.5039 14.6222C90.2141 14.3892 89.8448 14.2727 89.396 14.2727C88.9471 14.2727 88.5778 14.3892 88.288 14.6222C87.9982 14.8551 87.7837 15.1605 87.6445 15.5384C87.5053 15.9162 87.4357 16.3239 87.4357 16.7614C87.4357 17.1989 87.5053 17.6051 87.6445 17.9801C87.7837 18.3551 87.9982 18.6577 88.288 18.8878C88.5778 19.1179 88.9471 19.233 89.396 19.233ZM93.897 20V13.4545H96.5732C97.2777 13.4545 97.8374 13.6136 98.2521 13.9318C98.6669 14.25 98.8743 14.6705 98.8743 15.1932C98.8743 15.5909 98.7564 15.8991 98.5206 16.1179C98.2848 16.3338 97.9822 16.4801 97.6129 16.5568C97.8544 16.5909 98.0888 16.6761 98.3161 16.8125C98.5462 16.9489 98.7365 17.1364 98.8871 17.375C99.0376 17.6108 99.1129 17.9006 99.1129 18.2443C99.1129 18.5795 99.0277 18.8793 98.8572 19.1435C98.6868 19.4077 98.4425 19.6165 98.1243 19.7699C97.8061 19.9233 97.4254 20 96.9822 20H93.897ZM94.8516 19.0795H96.9822C97.3288 19.0795 97.6001 18.9972 97.7962 18.8324C97.9922 18.6676 98.0902 18.4432 98.0902 18.1591C98.0902 17.821 97.9922 17.5554 97.7962 17.3622C97.6001 17.1662 97.3288 17.0682 96.9822 17.0682H94.8516V19.0795ZM94.8516 16.1989H96.5732C96.843 16.1989 97.0746 16.1619 97.2678 16.0881C97.4609 16.0114 97.6087 15.9034 97.7109 15.7642C97.8161 15.6222 97.8686 15.4545 97.8686 15.2614C97.8686 14.9858 97.7536 14.7699 97.5234 14.6136C97.2933 14.4545 96.9766 14.375 96.5732 14.375H94.8516V16.1989ZM101.505 15.8239H103.38C104.147 15.8239 104.733 16.0185 105.14 16.4077C105.546 16.7969 105.749 17.2898 105.749 17.8864C105.749 18.2784 105.658 18.6349 105.476 18.956C105.294 19.2741 105.027 19.5284 104.675 19.7188C104.323 19.9062 103.891 20 103.38 20H100.635V13.4545H101.641V19.0625H103.38C103.777 19.0625 104.104 18.9574 104.36 18.7472C104.615 18.5369 104.743 18.267 104.743 17.9375C104.743 17.5909 104.615 17.3082 104.36 17.0895C104.104 16.8707 103.777 16.7614 103.38 16.7614H101.505V15.8239ZM106.789 20V13.4545H107.794V20H106.789ZM110.641 18.517L113.794 13.4545H114.953V20H113.948V14.9375L110.811 20H109.635V13.4545H110.641V18.517ZM113.13 11.2727H114.067C114.067 11.733 113.908 12.1094 113.59 12.402C113.272 12.6946 112.84 12.8409 112.294 12.8409C111.757 12.8409 111.33 12.6946 111.012 12.402C110.696 12.1094 110.539 11.733 110.539 11.2727H111.476C111.476 11.4943 111.537 11.6889 111.659 11.8565C111.784 12.0241 111.996 12.108 112.294 12.108C112.593 12.108 112.806 12.0241 112.934 11.8565C113.064 11.6889 113.13 11.4943 113.13 11.2727ZM119.472 21.875V19.0625H120.017C120.151 18.9233 120.266 18.7727 120.362 18.6108C120.459 18.4489 120.543 18.2571 120.614 18.0355C120.688 17.8111 120.75 17.5384 120.801 17.2173C120.852 16.8935 120.898 16.5028 120.938 16.0455L121.159 13.4545H125.318V19.0625H126.324V21.875H125.318V20H120.477V21.875H119.472ZM121.159 19.0625H124.312V14.392H122.097L121.926 16.0455C121.855 16.7301 121.767 17.3281 121.662 17.8395C121.557 18.3509 121.389 18.7585 121.159 19.0625ZM128.664 18.517L131.818 13.4545H132.977V20H131.971V14.9375L128.835 20H127.659V13.4545H128.664V18.517ZM134.41 18.3295H135.484C135.506 18.625 135.64 18.8494 135.884 19.0028C136.131 19.1562 136.452 19.233 136.847 19.233C137.251 19.233 137.596 19.1506 137.883 18.9858C138.17 18.8182 138.313 18.5483 138.313 18.1761C138.313 17.9574 138.259 17.767 138.151 17.6051C138.043 17.4403 137.891 17.3125 137.695 17.2216C137.499 17.1307 137.268 17.0852 137.001 17.0852H135.876V16.1818H137.001C137.401 16.1818 137.697 16.0909 137.887 15.9091C138.08 15.7273 138.177 15.5 138.177 15.2273C138.177 14.9347 138.073 14.7003 137.866 14.5241C137.658 14.3452 137.364 14.2557 136.984 14.2557C136.6 14.2557 136.281 14.3423 136.025 14.5156C135.769 14.6861 135.634 14.9062 135.62 15.1761H134.563C134.575 14.8239 134.683 14.5128 134.887 14.2429C135.092 13.9702 135.37 13.7571 135.722 13.6037C136.075 13.4474 136.478 13.3693 136.933 13.3693C137.393 13.3693 137.792 13.4503 138.13 13.6122C138.471 13.7713 138.734 13.9886 138.918 14.2642C139.106 14.5369 139.2 14.8466 139.2 15.1932C139.2 15.5625 139.096 15.8608 138.888 16.0881C138.681 16.3153 138.421 16.4773 138.109 16.5739V16.642C138.356 16.6591 138.57 16.7386 138.752 16.8807C138.937 17.0199 139.08 17.2031 139.183 17.4304C139.285 17.6548 139.336 17.9034 139.336 18.1761C139.336 18.5739 139.229 18.9205 139.016 19.2159C138.803 19.5085 138.511 19.7358 138.138 19.8977C137.766 20.0568 137.342 20.1364 136.864 20.1364C136.401 20.1364 135.987 20.0611 135.62 19.9105C135.254 19.7571 134.962 19.5455 134.746 19.2756C134.533 19.0028 134.421 18.6875 134.41 18.3295ZM142.675 20.1534C142.26 20.1534 141.884 20.0753 141.545 19.919C141.207 19.7599 140.939 19.5312 140.74 19.233C140.541 18.9318 140.442 18.5682 140.442 18.142C140.442 17.767 140.516 17.4631 140.663 17.2301C140.811 16.9943 141.009 16.8097 141.256 16.6761C141.503 16.5426 141.776 16.4432 142.074 16.3778C142.375 16.3097 142.678 16.2557 142.982 16.2159C143.379 16.1648 143.702 16.1264 143.949 16.1009C144.199 16.0724 144.381 16.0256 144.494 15.9602C144.611 15.8949 144.669 15.7812 144.669 15.6193V15.5852C144.669 15.1648 144.554 14.8381 144.324 14.6051C144.097 14.3722 143.751 14.2557 143.288 14.2557C142.808 14.2557 142.432 14.3608 142.159 14.571C141.886 14.7812 141.695 15.0057 141.584 15.2443L140.629 14.9034C140.8 14.5057 141.027 14.196 141.311 13.9744C141.598 13.75 141.911 13.5937 142.249 13.5057C142.589 13.4148 142.925 13.3693 143.254 13.3693C143.464 13.3693 143.706 13.3949 143.979 13.446C144.254 13.4943 144.52 13.5952 144.776 13.7486C145.034 13.902 145.249 14.1335 145.419 14.4432C145.589 14.7528 145.675 15.1676 145.675 15.6875V20H144.669V19.1136H144.618C144.55 19.2557 144.436 19.4077 144.277 19.5696C144.118 19.7315 143.906 19.8693 143.642 19.983C143.378 20.0966 143.055 20.1534 142.675 20.1534ZM142.828 19.25C143.226 19.25 143.561 19.1719 143.834 19.0156C144.109 18.8594 144.317 18.6577 144.456 18.4105C144.598 18.1634 144.669 17.9034 144.669 17.6307V16.7102C144.626 16.7614 144.533 16.8082 144.388 16.8509C144.246 16.8906 144.081 16.9261 143.893 16.9574C143.709 16.9858 143.528 17.0114 143.352 17.0341C143.179 17.054 143.038 17.071 142.93 17.0852C142.669 17.1193 142.425 17.1747 142.197 17.2514C141.973 17.3253 141.791 17.4375 141.652 17.5881C141.516 17.7358 141.447 17.9375 141.447 18.1932C141.447 18.5426 141.577 18.8068 141.835 18.9858C142.097 19.1619 142.428 19.25 142.828 19.25ZM148.516 18.517L151.669 13.4545H152.828V20H151.823V14.9375L148.686 20H147.51V13.4545H148.516V18.517ZM151.005 11.2727H151.942C151.942 11.733 151.783 12.1094 151.465 12.402C151.147 12.6946 150.715 12.8409 150.169 12.8409C149.632 12.8409 149.205 12.6946 148.887 12.402C148.571 12.1094 148.414 11.733 148.414 11.2727H149.351C149.351 11.4943 149.412 11.6889 149.534 11.8565C149.659 12.0241 149.871 12.108 150.169 12.108C150.468 12.108 150.681 12.0241 150.809 11.8565C150.939 11.6889 151.005 11.4943 151.005 11.2727ZM159.051 16.267V17.2045H155.438V16.267H159.051ZM155.676 13.4545V20H154.67V13.4545H155.676ZM159.818 13.4545V20H158.812V13.4545H159.818Z" fill="white"/>
</svg>
