<svg width="132" height="32" viewBox="0 0 132 32" fill="none" xmlns="http://www.w3.org/2000/svg">
<rect x="0.5" y="0.5" width="131" height="31" rx="15.5" stroke="#525252"/>
<path d="M18 11.92C18 11.2479 18 10.9119 18.1308 10.6552C18.2458 10.4294 18.4294 10.2458 18.6552 10.1308C18.9119 10 19.2479 10 19.92 10H24.48C25.1521 10 25.4881 10 25.7448 10.1308C25.9706 10.2458 26.1542 10.4294 26.2692 10.6552C26.4 10.9119 26.4 11.2479 26.4 11.92V16.48C26.4 17.1521 26.4 17.4881 26.2692 17.7448C26.1542 17.9706 25.9706 18.1542 25.7448 18.2692C25.4881 18.4 25.1521 18.4 24.48 18.4H19.92C19.2479 18.4 18.9119 18.4 18.6552 18.2692C18.4294 18.1542 18.2458 17.9706 18.1308 17.7448C18 17.4881 18 17.1521 18 16.48V11.92Z" stroke="white" stroke-linecap="round" stroke-linejoin="round"/>
<path d="M21.6 15.52C21.6 14.8479 21.6 14.5119 21.7308 14.2552C21.8458 14.0294 22.0294 13.8458 22.2552 13.7308C22.5119 13.6 22.8479 13.6 23.52 13.6H28.08C28.7521 13.6 29.0881 13.6 29.3448 13.7308C29.5706 13.8458 29.7542 14.0294 29.8692 14.2552C30 14.5119 30 14.8479 30 15.52V20.08C30 20.7521 30 21.0881 29.8692 21.3448C29.7542 21.5706 29.5706 21.7542 29.3448 21.8692C29.0881 22 28.7521 22 28.08 22H23.52C22.8479 22 22.5119 22 22.2552 21.8692C22.0294 21.7542 21.8458 21.5706 21.7308 21.3448C21.6 21.0881 21.6 20.7521 21.6 20.08V15.52Z" stroke="white" stroke-linecap="round" stroke-linejoin="round"/>
<path d="M42.7841 11.2727H43.8409V17.0511C43.8409 17.6477 43.7003 18.1804 43.419 18.6491C43.1406 19.1151 42.7472 19.483 42.2386 19.7528C41.7301 20.0199 41.1335 20.1534 40.4489 20.1534C39.7642 20.1534 39.1676 20.0199 38.6591 19.7528C38.1506 19.483 37.7557 19.1151 37.4744 18.6491C37.196 18.1804 37.0568 17.6477 37.0568 17.0511V11.2727H38.1136V16.9659C38.1136 17.392 38.2074 17.7713 38.3949 18.1037C38.5824 18.4332 38.8494 18.6932 39.196 18.8835C39.5455 19.071 39.9631 19.1648 40.4489 19.1648C40.9347 19.1648 41.3523 19.071 41.7017 18.8835C42.0511 18.6932 42.3182 18.4332 42.5028 18.1037C42.6903 17.7713 42.7841 17.392 42.7841 16.9659V11.2727ZM46.4627 11.2727L48.7127 14.9034H48.7809L51.0309 11.2727H52.2752L49.5309 15.6364L52.2752 20H51.0309L48.7809 16.4375H48.7127L46.4627 20H45.2184L48.0309 15.6364L45.2184 11.2727H46.4627ZM56.5994 10.8636L53.7869 21.3125H52.8665L55.679 10.8636H56.5994ZM63.6552 11.2727H64.712V17.0511C64.712 17.6477 64.5714 18.1804 64.2901 18.6491C64.0117 19.1151 63.6183 19.483 63.1097 19.7528C62.6012 20.0199 62.0046 20.1534 61.32 20.1534C60.6353 20.1534 60.0387 20.0199 59.5302 19.7528C59.0217 19.483 58.6268 19.1151 58.3455 18.6491C58.0671 18.1804 57.9279 17.6477 57.9279 17.0511V11.2727H58.9847V16.9659C58.9847 17.392 59.0785 17.7713 59.266 18.1037C59.4535 18.4332 59.7205 18.6932 60.0671 18.8835C60.4165 19.071 60.8342 19.1648 61.32 19.1648C61.8058 19.1648 62.2234 19.071 62.5728 18.8835C62.9222 18.6932 63.1893 18.4332 63.3739 18.1037C63.5614 17.7713 63.6552 17.392 63.6552 16.9659V11.2727ZM67.8793 11.2727V20H66.8224V11.2727H67.8793ZM73.6119 15.1676V16.1051H69.7937V15.1676H73.6119ZM74.6825 21.875V19.0625H75.228C75.3615 18.9233 75.4766 18.7727 75.5732 18.6108C75.6697 18.4489 75.7536 18.2571 75.8246 18.0355C75.8984 17.8111 75.9609 17.5384 76.0121 17.2173C76.0632 16.8935 76.1087 16.5028 76.1484 16.0455L76.37 13.4545H80.5291V19.0625H81.5348V21.875H80.5291V20H75.6882V21.875H74.6825ZM76.37 19.0625H79.5234V14.392H77.3075L77.1371 16.0455C77.0661 16.7301 76.978 17.3281 76.8729 17.8395C76.7678 18.3509 76.6001 18.7585 76.37 19.0625ZM83.8754 18.517L87.0288 13.4545H88.1879V20H87.1822V14.9375L84.0458 20H82.8697V13.4545H83.8754V18.517ZM89.6207 18.3295H90.6946C90.7173 18.625 90.8509 18.8494 91.0952 19.0028C91.3423 19.1562 91.6634 19.233 92.0582 19.233C92.4616 19.233 92.8068 19.1506 93.0938 18.9858C93.3807 18.8182 93.5241 18.5483 93.5241 18.1761C93.5241 17.9574 93.4702 17.767 93.3622 17.6051C93.2543 17.4403 93.1023 17.3125 92.9062 17.2216C92.7102 17.1307 92.4787 17.0852 92.2116 17.0852H91.0866V16.1818H92.2116C92.6122 16.1818 92.9077 16.0909 93.098 15.9091C93.2912 15.7273 93.3878 15.5 93.3878 15.2273C93.3878 14.9347 93.2841 14.7003 93.0767 14.5241C92.8693 14.3452 92.5753 14.2557 92.1946 14.2557C91.8111 14.2557 91.4915 14.3423 91.2358 14.5156C90.9801 14.6861 90.8452 14.9062 90.831 15.1761H89.7741C89.7855 14.8239 89.8935 14.5128 90.098 14.2429C90.3026 13.9702 90.581 13.7571 90.9332 13.6037C91.2855 13.4474 91.6889 13.3693 92.1435 13.3693C92.6037 13.3693 93.0028 13.4503 93.3409 13.6122C93.6818 13.7713 93.9446 13.9886 94.1293 14.2642C94.3168 14.5369 94.4105 14.8466 94.4105 15.1932C94.4105 15.5625 94.3068 15.8608 94.0994 16.0881C93.892 16.3153 93.6321 16.4773 93.3196 16.5739V16.642C93.5668 16.6591 93.7812 16.7386 93.9631 16.8807C94.1477 17.0199 94.2912 17.2031 94.3935 17.4304C94.4957 17.6548 94.5469 17.9034 94.5469 18.1761C94.5469 18.5739 94.4403 18.9205 94.2273 19.2159C94.0142 19.5085 93.7216 19.7358 93.3494 19.8977C92.9773 20.0568 92.5526 20.1364 92.0753 20.1364C91.6122 20.1364 91.1974 20.0611 90.831 19.9105C90.4645 19.7571 90.1733 19.5455 89.9574 19.2756C89.7443 19.0028 89.6321 18.6875 89.6207 18.3295ZM97.8857 20.1534C97.4709 20.1534 97.0945 20.0753 96.7564 19.919C96.4183 19.7599 96.1499 19.5312 95.951 19.233C95.7521 18.9318 95.6527 18.5682 95.6527 18.142C95.6527 17.767 95.7266 17.4631 95.8743 17.2301C96.022 16.9943 96.2195 16.8097 96.4666 16.6761C96.7138 16.5426 96.9865 16.4432 97.2848 16.3778C97.5859 16.3097 97.8885 16.2557 98.1925 16.2159C98.5902 16.1648 98.9126 16.1264 99.1598 16.1009C99.4098 16.0724 99.5916 16.0256 99.7053 15.9602C99.8217 15.8949 99.88 15.7812 99.88 15.6193V15.5852C99.88 15.1648 99.7649 14.8381 99.5348 14.6051C99.3075 14.3722 98.9624 14.2557 98.4993 14.2557C98.0192 14.2557 97.6428 14.3608 97.37 14.571C97.0973 14.7812 96.9055 15.0057 96.7947 15.2443L95.8402 14.9034C96.0107 14.5057 96.2379 14.196 96.522 13.9744C96.8089 13.75 97.1214 13.5937 97.4595 13.5057C97.8004 13.4148 98.1357 13.3693 98.4652 13.3693C98.6754 13.3693 98.9169 13.3949 99.1896 13.446C99.4652 13.4943 99.7308 13.5952 99.9865 13.7486C100.245 13.902 100.46 14.1335 100.63 14.4432C100.8 14.7528 100.886 15.1676 100.886 15.6875V20H99.88V19.1136H99.8288C99.7607 19.2557 99.647 19.4077 99.4879 19.5696C99.3288 19.7315 99.1172 19.8693 98.853 19.983C98.5888 20.0966 98.2663 20.1534 97.8857 20.1534ZM98.0391 19.25C98.4368 19.25 98.772 19.1719 99.0447 19.0156C99.3203 18.8594 99.5277 18.6577 99.6669 18.4105C99.8089 18.1634 99.88 17.9034 99.88 17.6307V16.7102C99.8374 16.7614 99.7436 16.8082 99.5987 16.8509C99.4567 16.8906 99.2919 16.9261 99.1044 16.9574C98.9197 16.9858 98.7393 17.0114 98.5632 17.0341C98.3899 17.054 98.2493 17.071 98.1413 17.0852C97.88 17.1193 97.6357 17.1747 97.4084 17.2514C97.1839 17.3253 97.0021 17.4375 96.8629 17.5881C96.7266 17.7358 96.6584 17.9375 96.6584 18.1932C96.6584 18.5426 96.7876 18.8068 97.0462 18.9858C97.3075 19.1619 97.6385 19.25 98.0391 19.25ZM103.727 18.517L106.88 13.4545H108.039V20H107.034V14.9375L103.897 20H102.721V13.4545H103.727V18.517ZM106.216 11.2727H107.153C107.153 11.733 106.994 12.1094 106.676 12.402C106.358 12.6946 105.926 12.8409 105.38 12.8409C104.843 12.8409 104.416 12.6946 104.098 12.402C103.782 12.1094 103.625 11.733 103.625 11.2727H104.562C104.562 11.4943 104.623 11.6889 104.745 11.8565C104.87 12.0241 105.082 12.108 105.38 12.108C105.679 12.108 105.892 12.0241 106.02 11.8565C106.15 11.6889 106.216 11.4943 106.216 11.2727ZM114.262 16.267V17.2045H110.648V16.267H114.262ZM110.887 13.4545V20H109.881V13.4545H110.887ZM115.029 13.4545V20H114.023V13.4545H115.029Z" fill="white"/>
</svg>
