<svg width="121" height="32" viewBox="0 0 121 32" fill="none" xmlns="http://www.w3.org/2000/svg">
<rect x="0.5" y="0.5" width="120" height="31" rx="15.5" stroke="#525252"/>
<path d="M18 14H30M21.2 10H26.8C27.9201 10 28.4802 10 28.908 10.218C29.2843 10.4097 29.5903 10.7157 29.782 11.092C30 11.5198 30 12.0799 30 13.2V18.8C30 19.9201 30 20.4802 29.782 20.908C29.5903 21.2843 29.2843 21.5903 28.908 21.782C28.4802 22 27.9201 22 26.8 22H21.2C20.0799 22 19.5198 22 19.092 21.782C18.7157 21.5903 18.4097 21.2843 18.218 20.908C18 20.4802 18 19.9201 18 18.8V13.2C18 12.0799 18 11.5198 18.218 11.092C18.4097 10.7157 18.7157 10.4097 19.092 10.218C19.5198 10 20.0799 10 21.2 10Z" stroke="white" stroke-linecap="round" stroke-linejoin="round"/>
<path d="M37.0568 20V11.2727H40.108C40.7159 11.2727 41.2173 11.3778 41.6122 11.5881C42.0071 11.7955 42.3011 12.0753 42.4943 12.4276C42.6875 12.777 42.7841 13.1648 42.7841 13.5909C42.7841 13.9659 42.7173 14.2756 42.5838 14.5199C42.4531 14.7642 42.2798 14.9574 42.0639 15.0994C41.8509 15.2415 41.6193 15.3466 41.3693 15.4148V15.5C41.6364 15.517 41.9048 15.6108 42.1747 15.7812C42.4446 15.9517 42.6705 16.196 42.8523 16.5142C43.0341 16.8324 43.125 17.2216 43.125 17.6818C43.125 18.1193 43.0256 18.5128 42.8267 18.8622C42.6278 19.2116 42.3139 19.4886 41.8849 19.6932C41.456 19.8977 40.8977 20 40.2102 20H37.0568ZM38.1136 19.0625H40.2102C40.9006 19.0625 41.3906 18.929 41.6804 18.6619C41.973 18.392 42.1193 18.0653 42.1193 17.6818C42.1193 17.3864 42.044 17.1136 41.8935 16.8636C41.7429 16.6108 41.5284 16.4091 41.25 16.2585C40.9716 16.1051 40.642 16.0284 40.2614 16.0284H38.1136V19.0625ZM38.1136 15.108H40.0739C40.392 15.108 40.679 15.0455 40.9347 14.9205C41.1932 14.7955 41.3977 14.6193 41.5483 14.392C41.7017 14.1648 41.7784 13.8977 41.7784 13.5909C41.7784 13.2074 41.6449 12.8821 41.3778 12.6151C41.1108 12.3452 40.6875 12.2102 40.108 12.2102H38.1136V15.108ZM47.4695 20.1364C46.8388 20.1364 46.2947 19.9972 45.8374 19.7188C45.3828 19.4375 45.032 19.0455 44.7848 18.5426C44.5405 18.0369 44.4183 17.4489 44.4183 16.7784C44.4183 16.108 44.5405 15.517 44.7848 15.0057C45.032 14.4915 45.3757 14.0909 45.8161 13.804C46.2592 13.5142 46.7763 13.3693 47.3672 13.3693C47.7081 13.3693 48.0447 13.4261 48.3771 13.5398C48.7095 13.6534 49.0121 13.8381 49.2848 14.0938C49.5575 14.3466 49.7749 14.6818 49.9368 15.0994C50.0987 15.517 50.1797 16.0312 50.1797 16.642V17.0682H45.1342V16.1989H49.157C49.157 15.8295 49.0831 15.5 48.9354 15.2102C48.7905 14.9205 48.5831 14.6918 48.3132 14.5241C48.0462 14.3565 47.7308 14.2727 47.3672 14.2727C46.9666 14.2727 46.62 14.3722 46.3274 14.571C46.0376 14.767 45.8146 15.0227 45.6584 15.3381C45.5021 15.6534 45.424 15.9915 45.424 16.3523V16.9318C45.424 17.4261 45.5092 17.8452 45.6797 18.1889C45.853 18.5298 46.093 18.7898 46.3999 18.9688C46.7067 19.1449 47.0632 19.233 47.4695 19.233C47.7337 19.233 47.9723 19.196 48.1854 19.1222C48.4013 19.0455 48.5874 18.9318 48.7436 18.7812C48.8999 18.6278 49.0206 18.4375 49.1058 18.2102L50.0774 18.483C49.9751 18.8125 49.8033 19.1023 49.5618 19.3523C49.3203 19.5994 49.022 19.7926 48.6669 19.9318C48.3118 20.0682 47.9126 20.1364 47.4695 20.1364ZM56.5675 11L57.0788 11.6136C56.88 11.8068 56.6499 11.9418 56.3885 12.0185C56.1271 12.0952 55.8317 12.142 55.5021 12.1591C55.1726 12.1761 54.8061 12.1932 54.4027 12.2102C53.9482 12.2273 53.5717 12.3381 53.2734 12.5426C52.9751 12.7472 52.745 13.0426 52.5831 13.429C52.4212 13.8153 52.3175 14.2898 52.272 14.8523H52.3572C52.5788 14.4432 52.8857 14.142 53.2777 13.9489C53.6697 13.7557 54.0902 13.6591 54.5391 13.6591C55.0504 13.6591 55.5107 13.7784 55.9197 14.017C56.3288 14.2557 56.6527 14.6094 56.8913 15.0781C57.13 15.5469 57.2493 16.125 57.2493 16.8125C57.2493 17.4972 57.1271 18.0881 56.8828 18.5852C56.6413 19.0824 56.3018 19.4659 55.8643 19.7358C55.4297 20.0028 54.9197 20.1364 54.3345 20.1364C53.7493 20.1364 53.2365 19.9986 52.7962 19.723C52.3558 19.4446 52.0135 19.0327 51.7692 18.4872C51.5249 17.9389 51.4027 17.2614 51.4027 16.4545V15.7557C51.4027 14.2983 51.6499 13.1932 52.1442 12.4403C52.6413 11.6875 53.3885 11.2983 54.3857 11.2727C54.7379 11.2614 55.0518 11.2585 55.3274 11.2642C55.603 11.2699 55.843 11.2571 56.0476 11.2259C56.2521 11.1946 56.4254 11.1193 56.5675 11ZM54.3345 19.233C54.7294 19.233 55.0689 19.1335 55.353 18.9347C55.6399 18.7358 55.8601 18.456 56.0135 18.0952C56.1669 17.7315 56.2436 17.304 56.2436 16.8125C56.2436 16.3352 56.1655 15.929 56.0092 15.5938C55.8558 15.2585 55.6357 15.0028 55.3487 14.8267C55.0618 14.6506 54.718 14.5625 54.3175 14.5625C54.0249 14.5625 53.7621 14.6122 53.5291 14.7116C53.2962 14.8111 53.0973 14.9574 52.9325 15.1506C52.7678 15.3437 52.6399 15.5795 52.549 15.858C52.4609 16.1364 52.4141 16.4545 52.4084 16.8125C52.4084 17.5455 52.5803 18.1321 52.924 18.5724C53.2678 19.0128 53.7379 19.233 54.3345 19.233ZM62.5376 15.7898V16.7273H58.7195V15.7898H62.5376ZM63.6083 21.875V19.0625H64.1538C64.2873 18.9233 64.4023 18.7727 64.4989 18.6108C64.5955 18.4489 64.6793 18.2571 64.7504 18.0355C64.8242 17.8111 64.8867 17.5384 64.9379 17.2173C64.989 16.8935 65.0344 16.5028 65.0742 16.0455L65.2958 13.4545H69.4549V19.0625H70.4606V21.875H69.4549V20H64.614V21.875H63.6083ZM65.2958 19.0625H68.4492V14.392H66.2333L66.0629 16.0455C65.9918 16.7301 65.9038 17.3281 65.7987 17.8395C65.6935 18.3509 65.5259 18.7585 65.2958 19.0625ZM72.8011 18.517L75.9545 13.4545H77.1136V20H76.108V14.9375L72.9716 20H71.7955V13.4545H72.8011V18.517ZM78.5465 18.3295H79.6204C79.6431 18.625 79.7766 18.8494 80.021 19.0028C80.2681 19.1562 80.5891 19.233 80.984 19.233C81.3874 19.233 81.7326 19.1506 82.0195 18.9858C82.3065 18.8182 82.4499 18.5483 82.4499 18.1761C82.4499 17.9574 82.396 17.767 82.288 17.6051C82.18 17.4403 82.0281 17.3125 81.832 17.2216C81.636 17.1307 81.4045 17.0852 81.1374 17.0852H80.0124V16.1818H81.1374C81.538 16.1818 81.8335 16.0909 82.0238 15.9091C82.217 15.7273 82.3136 15.5 82.3136 15.2273C82.3136 14.9347 82.2099 14.7003 82.0025 14.5241C81.7951 14.3452 81.5011 14.2557 81.1204 14.2557C80.7369 14.2557 80.4173 14.3423 80.1616 14.5156C79.9059 14.6861 79.771 14.9062 79.7567 15.1761H78.6999C78.7113 14.8239 78.8192 14.5128 79.0238 14.2429C79.2283 13.9702 79.5067 13.7571 79.859 13.6037C80.2113 13.4474 80.6147 13.3693 81.0692 13.3693C81.5295 13.3693 81.9286 13.4503 82.2667 13.6122C82.6076 13.7713 82.8704 13.9886 83.055 14.2642C83.2425 14.5369 83.3363 14.8466 83.3363 15.1932C83.3363 15.5625 83.2326 15.8608 83.0252 16.0881C82.8178 16.3153 82.5579 16.4773 82.2454 16.5739V16.642C82.4925 16.6591 82.707 16.7386 82.8888 16.8807C83.0735 17.0199 83.217 17.2031 83.3192 17.4304C83.4215 17.6548 83.4727 17.9034 83.4727 18.1761C83.4727 18.5739 83.3661 18.9205 83.1531 19.2159C82.94 19.5085 82.6474 19.7358 82.2752 19.8977C81.9031 20.0568 81.4783 20.1364 81.0011 20.1364C80.538 20.1364 80.1232 20.0611 79.7567 19.9105C79.3903 19.7571 79.0991 19.5455 78.8832 19.2756C78.6701 19.0028 78.5579 18.6875 78.5465 18.3295ZM86.8114 20.1534C86.3967 20.1534 86.0202 20.0753 85.6822 19.919C85.3441 19.7599 85.0756 19.5312 84.8768 19.233C84.6779 18.9318 84.5785 18.5682 84.5785 18.142C84.5785 17.767 84.6523 17.4631 84.8001 17.2301C84.9478 16.9943 85.1452 16.8097 85.3924 16.6761C85.6396 16.5426 85.9123 16.4432 86.2106 16.3778C86.5117 16.3097 86.8143 16.2557 87.1183 16.2159C87.516 16.1648 87.8384 16.1264 88.0856 16.1009C88.3356 16.0724 88.5174 16.0256 88.631 15.9602C88.7475 15.8949 88.8058 15.7812 88.8058 15.6193V15.5852C88.8058 15.1648 88.6907 14.8381 88.4606 14.6051C88.2333 14.3722 87.8881 14.2557 87.4251 14.2557C86.945 14.2557 86.5685 14.3608 86.2958 14.571C86.0231 14.7812 85.8313 15.0057 85.7205 15.2443L84.766 14.9034C84.9364 14.5057 85.1637 14.196 85.4478 13.9744C85.7347 13.75 86.0472 13.5937 86.3853 13.5057C86.7262 13.4148 87.0614 13.3693 87.391 13.3693C87.6012 13.3693 87.8427 13.3949 88.1154 13.446C88.391 13.4943 88.6566 13.5952 88.9123 13.7486C89.1708 13.902 89.3853 14.1335 89.5558 14.4432C89.7262 14.7528 89.8114 15.1676 89.8114 15.6875V20H88.8058V19.1136H88.7546C88.6864 19.2557 88.5728 19.4077 88.4137 19.5696C88.2546 19.7315 88.043 19.8693 87.7788 19.983C87.5146 20.0966 87.1921 20.1534 86.8114 20.1534ZM86.9648 19.25C87.3626 19.25 87.6978 19.1719 87.9705 19.0156C88.2461 18.8594 88.4535 18.6577 88.5927 18.4105C88.7347 18.1634 88.8058 17.9034 88.8058 17.6307V16.7102C88.7631 16.7614 88.6694 16.8082 88.5245 16.8509C88.3825 16.8906 88.2177 16.9261 88.0302 16.9574C87.8455 16.9858 87.6651 17.0114 87.489 17.0341C87.3157 17.054 87.1751 17.071 87.0671 17.0852C86.8058 17.1193 86.5614 17.1747 86.3342 17.2514C86.1097 17.3253 85.9279 17.4375 85.7887 17.5881C85.6523 17.7358 85.5842 17.9375 85.5842 18.1932C85.5842 18.5426 85.7134 18.8068 85.9719 18.9858C86.2333 19.1619 86.5643 19.25 86.9648 19.25ZM92.6527 18.517L95.8061 13.4545H96.9652V20H95.9595V14.9375L92.8232 20H91.647V13.4545H92.6527V18.517ZM95.1413 11.2727H96.0788C96.0788 11.733 95.9197 12.1094 95.6016 12.402C95.2834 12.6946 94.8516 12.8409 94.3061 12.8409C93.7692 12.8409 93.3416 12.6946 93.0234 12.402C92.7081 12.1094 92.5504 11.733 92.5504 11.2727H93.4879C93.4879 11.4943 93.549 11.6889 93.6712 11.8565C93.7962 12.0241 94.0078 12.108 94.3061 12.108C94.6044 12.108 94.8175 12.0241 94.9453 11.8565C95.076 11.6889 95.1413 11.4943 95.1413 11.2727ZM103.188 16.267V17.2045H99.5742V16.267H103.188ZM99.8129 13.4545V20H98.8072V13.4545H99.8129ZM103.955 13.4545V20H102.949V13.4545H103.955Z" fill="white"/>
</svg>
