<svg width="157" height="32" viewBox="0 0 157 32" fill="none" xmlns="http://www.w3.org/2000/svg">
<rect x="0.5" y="0.5" width="156" height="31" rx="15.5" stroke="#525252"/>
<path d="M30 22L27.1 19.1M28.6667 15.3333C28.6667 18.2789 26.2789 20.6667 23.3333 20.6667C20.3878 20.6667 18 18.2789 18 15.3333C18 12.3878 20.3878 10 23.3333 10C26.2789 10 28.6667 12.3878 28.6667 15.3333Z" stroke="white" stroke-linecap="round" stroke-linejoin="round"/>
<path d="M42.7841 11.2727H43.8409V17.0511C43.8409 17.6477 43.7003 18.1804 43.419 18.6491C43.1406 19.1151 42.7472 19.483 42.2386 19.7528C41.7301 20.0199 41.1335 20.1534 40.4489 20.1534C39.7642 20.1534 39.1676 20.0199 38.6591 19.7528C38.1506 19.483 37.7557 19.1151 37.4744 18.6491C37.196 18.1804 37.0568 17.6477 37.0568 17.0511V11.2727H38.1136V16.9659C38.1136 17.392 38.2074 17.7713 38.3949 18.1037C38.5824 18.4332 38.8494 18.6932 39.196 18.8835C39.5455 19.071 39.9631 19.1648 40.4489 19.1648C40.9347 19.1648 41.3523 19.071 41.7017 18.8835C42.0511 18.6932 42.3182 18.4332 42.5028 18.1037C42.6903 17.7713 42.7841 17.392 42.7841 16.9659V11.2727ZM46.4627 11.2727L48.7127 14.9034H48.7809L51.0309 11.2727H52.2752L49.5309 15.6364L52.2752 20H51.0309L48.7809 16.4375H48.7127L46.4627 20H45.2184L48.0309 15.6364L45.2184 11.2727H46.4627ZM56.4439 15.1676V16.1051H52.6257V15.1676H56.4439ZM59.2191 18.517L62.3725 13.4545H63.5316V20H62.5259V14.9375L59.3896 20H58.2134V13.4545H59.2191V18.517ZM68.0327 20.1364C67.419 20.1364 66.8906 19.9915 66.4474 19.7017C66.0043 19.4119 65.6634 19.0128 65.4247 18.5043C65.1861 17.9957 65.0668 17.4148 65.0668 16.7614C65.0668 16.0966 65.1889 15.5099 65.4332 15.0014C65.6804 14.4901 66.0241 14.0909 66.4645 13.804C66.9077 13.5142 67.4247 13.3693 68.0156 13.3693C68.4759 13.3693 68.8906 13.4545 69.2599 13.625C69.6293 13.7955 69.9318 14.0341 70.1676 14.3409C70.4034 14.6477 70.5497 15.0057 70.6065 15.4148H69.6009C69.5241 15.1165 69.3537 14.8523 69.0895 14.6222C68.8281 14.3892 68.4759 14.2727 68.0327 14.2727C67.6406 14.2727 67.2969 14.375 67.0014 14.5795C66.7088 14.7812 66.4801 15.0668 66.3153 15.4361C66.1534 15.8026 66.0724 16.233 66.0724 16.7273C66.0724 17.233 66.152 17.6733 66.3111 18.0483C66.473 18.4233 66.7003 18.7145 66.9929 18.9219C67.2884 19.1293 67.6349 19.233 68.0327 19.233C68.294 19.233 68.5312 19.1875 68.7443 19.0966C68.9574 19.0057 69.1378 18.875 69.2855 18.7045C69.4332 18.5341 69.5384 18.3295 69.6009 18.0909H70.6065C70.5497 18.4773 70.4091 18.8253 70.1847 19.1349C69.9631 19.4418 69.669 19.6861 69.3026 19.8679C68.9389 20.0469 68.5156 20.1364 68.0327 20.1364ZM74.7358 20.1364C74.1222 20.1364 73.5938 19.9915 73.1506 19.7017C72.7074 19.4119 72.3665 19.0128 72.1278 18.5043C71.8892 17.9957 71.7699 17.4148 71.7699 16.7614C71.7699 16.0966 71.892 15.5099 72.1364 15.0014C72.3835 14.4901 72.7273 14.0909 73.1676 13.804C73.6108 13.5142 74.1278 13.3693 74.7188 13.3693C75.179 13.3693 75.5938 13.4545 75.9631 13.625C76.3324 13.7955 76.6349 14.0341 76.8707 14.3409C77.1065 14.6477 77.2528 15.0057 77.3097 15.4148H76.304C76.2273 15.1165 76.0568 14.8523 75.7926 14.6222C75.5313 14.3892 75.179 14.2727 74.7358 14.2727C74.3438 14.2727 74 14.375 73.7045 14.5795C73.4119 14.7812 73.1832 15.0668 73.0185 15.4361C72.8565 15.8026 72.7756 16.233 72.7756 16.7273C72.7756 17.233 72.8551 17.6733 73.0142 18.0483C73.1761 18.4233 73.4034 18.7145 73.696 18.9219C73.9915 19.1293 74.3381 19.233 74.7358 19.233C74.9972 19.233 75.2344 19.1875 75.4474 19.0966C75.6605 19.0057 75.8409 18.875 75.9886 18.7045C76.1364 18.5341 76.2415 18.3295 76.304 18.0909H77.3097C77.2528 18.4773 77.1122 18.8253 76.8878 19.1349C76.6662 19.4418 76.3722 19.6861 76.0057 19.8679C75.642 20.0469 75.2188 20.1364 74.7358 20.1364ZM78.2003 20V19.0625H78.4389C78.6349 19.0625 78.7983 19.0241 78.929 18.9474C79.0597 18.8679 79.1648 18.7301 79.2443 18.5341C79.3267 18.3352 79.3892 18.0597 79.4318 17.7074C79.4773 17.3523 79.5099 16.9006 79.5298 16.3523L79.6491 13.4545H84.0128V20H83.0071V14.392H80.6037L80.5014 16.7273C80.4787 17.2642 80.4304 17.7372 80.3565 18.1463C80.2855 18.5526 80.1761 18.8935 80.0284 19.169C79.8835 19.4446 79.6903 19.652 79.4489 19.7912C79.2074 19.9304 78.9048 20 78.5412 20H78.2003ZM88.6023 20.1364C87.9716 20.1364 87.4276 19.9972 86.9702 19.7188C86.5156 19.4375 86.1648 19.0455 85.9176 18.5426C85.6733 18.0369 85.5511 17.4489 85.5511 16.7784C85.5511 16.108 85.6733 15.517 85.9176 15.0057C86.1648 14.4915 86.5085 14.0909 86.9489 13.804C87.392 13.5142 87.9091 13.3693 88.5 13.3693C88.8409 13.3693 89.1776 13.4261 89.5099 13.5398C89.8423 13.6534 90.1449 13.8381 90.4176 14.0938C90.6903 14.3466 90.9077 14.6818 91.0696 15.0994C91.2315 15.517 91.3125 16.0312 91.3125 16.642V17.0682H86.267V16.1989H90.2898C90.2898 15.8295 90.2159 15.5 90.0682 15.2102C89.9233 14.9205 89.7159 14.6918 89.446 14.5241C89.179 14.3565 88.8636 14.2727 88.5 14.2727C88.0994 14.2727 87.7528 14.3722 87.4602 14.571C87.1705 14.767 86.9474 15.0227 86.7912 15.3381C86.6349 15.6534 86.5568 15.9915 86.5568 16.3523V16.9318C86.5568 17.4261 86.642 17.8452 86.8125 18.1889C86.9858 18.5298 87.2259 18.7898 87.5327 18.9688C87.8395 19.1449 88.196 19.233 88.6023 19.233C88.8665 19.233 89.1051 19.196 89.3182 19.1222C89.5341 19.0455 89.7202 18.9318 89.8764 18.7812C90.0327 18.6278 90.1534 18.4375 90.2386 18.2102L91.2102 18.483C91.108 18.8125 90.9361 19.1023 90.6946 19.3523C90.4531 19.5994 90.1548 19.7926 89.7997 19.9318C89.4446 20.0682 89.0455 20.1364 88.6023 20.1364ZM92.1435 21.875V19.0625H92.6889C92.8224 18.9233 92.9375 18.7727 93.0341 18.6108C93.1307 18.4489 93.2145 18.2571 93.2855 18.0355C93.3594 17.8111 93.4219 17.5384 93.473 17.2173C93.5241 16.8935 93.5696 16.5028 93.6094 16.0455L93.831 13.4545H97.9901V19.0625H98.9957V21.875H97.9901V20H93.1491V21.875H92.1435ZM93.831 19.0625H96.9844V14.392H94.7685L94.598 16.0455C94.527 16.7301 94.4389 17.3281 94.3338 17.8395C94.2287 18.3509 94.0611 18.7585 93.831 19.0625ZM102.99 20.1364C102.399 20.1364 101.88 19.9957 101.434 19.7145C100.991 19.4332 100.645 19.0398 100.395 18.5341C100.147 18.0284 100.024 17.4375 100.024 16.7614C100.024 16.0795 100.147 15.4844 100.395 14.9759C100.645 14.4673 100.991 14.0724 101.434 13.7912C101.88 13.5099 102.399 13.3693 102.99 13.3693C103.581 13.3693 104.098 13.5099 104.541 13.7912C104.987 14.0724 105.333 14.4673 105.581 14.9759C105.831 15.4844 105.956 16.0795 105.956 16.7614C105.956 17.4375 105.831 18.0284 105.581 18.5341C105.333 19.0398 104.987 19.4332 104.541 19.7145C104.098 19.9957 103.581 20.1364 102.99 20.1364ZM102.99 19.233C103.439 19.233 103.808 19.1179 104.098 18.8878C104.387 18.6577 104.602 18.3551 104.741 17.9801C104.88 17.6051 104.95 17.1989 104.95 16.7614C104.95 16.3239 104.88 15.9162 104.741 15.5384C104.602 15.1605 104.387 14.8551 104.098 14.6222C103.808 14.3892 103.439 14.2727 102.99 14.2727C102.541 14.2727 102.172 14.3892 101.882 14.6222C101.592 14.8551 101.377 15.1605 101.238 15.5384C101.099 15.9162 101.029 16.3239 101.029 16.7614C101.029 17.1989 101.099 17.6051 101.238 17.9801C101.377 18.3551 101.592 18.6577 101.882 18.8878C102.172 19.1179 102.541 19.233 102.99 19.233ZM107.491 20V13.4545H110.167C110.871 13.4545 111.431 13.6136 111.846 13.9318C112.261 14.25 112.468 14.6705 112.468 15.1932C112.468 15.5909 112.35 15.8991 112.114 16.1179C111.879 16.3338 111.576 16.4801 111.207 16.5568C111.448 16.5909 111.683 16.6761 111.91 16.8125C112.14 16.9489 112.33 17.1364 112.481 17.375C112.631 17.6108 112.707 17.9006 112.707 18.2443C112.707 18.5795 112.621 18.8793 112.451 19.1435C112.281 19.4077 112.036 19.6165 111.718 19.7699C111.4 19.9233 111.019 20 110.576 20H107.491ZM108.445 19.0795H110.576C110.923 19.0795 111.194 18.9972 111.39 18.8324C111.586 18.6676 111.684 18.4432 111.684 18.1591C111.684 17.821 111.586 17.5554 111.39 17.3622C111.194 17.1662 110.923 17.0682 110.576 17.0682H108.445V19.0795ZM108.445 16.1989H110.167C110.437 16.1989 110.668 16.1619 110.862 16.0881C111.055 16.0114 111.202 15.9034 111.305 15.7642C111.41 15.6222 111.462 15.4545 111.462 15.2614C111.462 14.9858 111.347 14.7699 111.117 14.6136C110.887 14.4545 110.57 14.375 110.167 14.375H108.445V16.1989ZM116.155 20.1534C115.74 20.1534 115.364 20.0753 115.026 19.919C114.688 19.7599 114.419 19.5312 114.221 19.233C114.022 18.9318 113.922 18.5682 113.922 18.142C113.922 17.767 113.996 17.4631 114.144 17.2301C114.292 16.9943 114.489 16.8097 114.736 16.6761C114.983 16.5426 115.256 16.4432 115.554 16.3778C115.855 16.3097 116.158 16.2557 116.462 16.2159C116.86 16.1648 117.182 16.1264 117.429 16.1009C117.679 16.0724 117.861 16.0256 117.975 15.9602C118.091 15.8949 118.15 15.7812 118.15 15.6193V15.5852C118.15 15.1648 118.034 14.8381 117.804 14.6051C117.577 14.3722 117.232 14.2557 116.769 14.2557C116.289 14.2557 115.912 14.3608 115.64 14.571C115.367 14.7812 115.175 15.0057 115.064 15.2443L114.11 14.9034C114.28 14.5057 114.507 14.196 114.792 13.9744C115.078 13.75 115.391 13.5937 115.729 13.5057C116.07 13.4148 116.405 13.3693 116.735 13.3693C116.945 13.3693 117.186 13.3949 117.459 13.446C117.735 13.4943 118 13.5952 118.256 13.7486C118.515 13.902 118.729 14.1335 118.9 14.4432C119.07 14.7528 119.155 15.1676 119.155 15.6875V20H118.15V19.1136H118.098C118.03 19.2557 117.917 19.4077 117.757 19.5696C117.598 19.7315 117.387 19.8693 117.123 19.983C116.858 20.0966 116.536 20.1534 116.155 20.1534ZM116.309 19.25C116.706 19.25 117.042 19.1719 117.314 19.0156C117.59 18.8594 117.797 18.6577 117.936 18.4105C118.078 18.1634 118.15 17.9034 118.15 17.6307V16.7102C118.107 16.7614 118.013 16.8082 117.868 16.8509C117.726 16.8906 117.561 16.9261 117.374 16.9574C117.189 16.9858 117.009 17.0114 116.833 17.0341C116.659 17.054 116.519 17.071 116.411 17.0852C116.15 17.1193 115.905 17.1747 115.678 17.2514C115.453 17.3253 115.272 17.4375 115.132 17.5881C114.996 17.7358 114.928 17.9375 114.928 18.1932C114.928 18.5426 115.057 18.8068 115.316 18.9858C115.577 19.1619 115.908 19.25 116.309 19.25ZM125.371 16.267V17.2045H121.758V16.267H125.371ZM121.996 13.4545V20H120.991V13.4545H121.996ZM126.138 13.4545V20H125.133V13.4545H126.138ZM128.981 18.517L132.134 13.4545H133.293V20H132.288V14.9375L129.151 20H127.975V13.4545H128.981V18.517ZM139.073 20V14.375H137.334C136.942 14.375 136.634 14.4659 136.409 14.6477C136.185 14.8295 136.073 15.0795 136.073 15.3977C136.073 15.7102 136.174 15.956 136.375 16.1349C136.58 16.3139 136.86 16.4034 137.215 16.4034H139.328V17.3409H137.215C136.772 17.3409 136.39 17.2628 136.069 17.1065C135.748 16.9503 135.5 16.7273 135.327 16.4375C135.154 16.1449 135.067 15.7983 135.067 15.3977C135.067 14.9943 135.158 14.6477 135.34 14.358C135.522 14.0682 135.782 13.8452 136.12 13.6889C136.461 13.5327 136.865 13.4545 137.334 13.4545H140.027V20H139.073ZM134.709 20L136.567 16.7443H137.658L135.8 20H134.709Z" fill="white"/>
</svg>
