<svg width="144" height="32" viewBox="0 0 144 32" fill="none" xmlns="http://www.w3.org/2000/svg">
<rect x="0.5" y="0.5" width="143" height="31" rx="15.5" stroke="#525252"/>
<path d="M24 18C21.7241 18 19.7001 19.0204 18.4116 20.604C18.1342 20.9448 17.9956 21.1152 18.0001 21.3455C18.0036 21.5235 18.1239 21.7479 18.2747 21.8578C18.4699 22 18.7403 22 19.2812 22H28.7188C29.2597 22 29.5301 22 29.7253 21.8578C29.8761 21.7479 29.9964 21.5235 29.9999 21.3455C30.0044 21.1152 29.8658 20.9448 29.5884 20.604C28.2999 19.0204 26.2759 18 24 18Z" stroke="white" stroke-linecap="round" stroke-linejoin="round"/>
<path d="M24 16C25.7843 16 27.2307 14.6569 27.2307 13C27.2307 11.3431 25.7843 10 24 10C22.2157 10 20.7693 11.3431 20.7693 13C20.7693 14.6569 22.2157 16 24 16Z" stroke="white" stroke-linecap="round" stroke-linejoin="round"/>
<path d="M42.7841 11.2727H43.8409V17.0511C43.8409 17.6477 43.7003 18.1804 43.419 18.6491C43.1406 19.1151 42.7472 19.483 42.2386 19.7528C41.7301 20.0199 41.1335 20.1534 40.4489 20.1534C39.7642 20.1534 39.1676 20.0199 38.6591 19.7528C38.1506 19.483 37.7557 19.1151 37.4744 18.6491C37.196 18.1804 37.0568 17.6477 37.0568 17.0511V11.2727H38.1136V16.9659C38.1136 17.392 38.2074 17.7713 38.3949 18.1037C38.5824 18.4332 38.8494 18.6932 39.196 18.8835C39.5455 19.071 39.9631 19.1648 40.4489 19.1648C40.9347 19.1648 41.3523 19.071 41.7017 18.8835C42.0511 18.6932 42.3182 18.4332 42.5028 18.1037C42.6903 17.7713 42.7841 17.392 42.7841 16.9659V11.2727ZM50.4513 14.9205L49.5479 15.1761C49.4911 15.0256 49.4073 14.8793 49.2965 14.7372C49.1886 14.5923 49.0408 14.473 48.8533 14.3793C48.6658 14.2855 48.4258 14.2386 48.1332 14.2386C47.7326 14.2386 47.3988 14.331 47.1317 14.5156C46.8675 14.6974 46.7354 14.929 46.7354 15.2102C46.7354 15.4602 46.8263 15.6577 47.0082 15.8026C47.19 15.9474 47.4741 16.0682 47.8604 16.1648L48.832 16.4034C49.4173 16.5455 49.8533 16.7628 50.1403 17.0554C50.4272 17.3452 50.5707 17.7187 50.5707 18.1761C50.5707 18.5511 50.4627 18.8864 50.2468 19.1818C50.0337 19.4773 49.7354 19.7102 49.3519 19.8807C48.9684 20.0511 48.5224 20.1364 48.0138 20.1364C47.3462 20.1364 46.7937 19.9915 46.3562 19.7017C45.9187 19.4119 45.6417 18.9886 45.5252 18.4318L46.4798 18.1932C46.5707 18.5455 46.7425 18.8097 46.9954 18.9858C47.2511 19.1619 47.5849 19.25 47.9968 19.25C48.4656 19.25 48.8377 19.1506 49.1133 18.9517C49.3917 18.75 49.5309 18.5085 49.5309 18.2273C49.5309 18 49.4513 17.8097 49.2923 17.6562C49.1332 17.5 48.8888 17.3835 48.5593 17.3068L47.4684 17.0511C46.869 16.9091 46.4286 16.6889 46.1474 16.3906C45.869 16.0895 45.7298 15.7131 45.7298 15.2614C45.7298 14.892 45.8335 14.5653 46.0408 14.2812C46.2511 13.9972 46.5366 13.7741 46.8974 13.6122C47.261 13.4503 47.6729 13.3693 48.1332 13.3693C48.7809 13.3693 49.2894 13.5114 49.6587 13.7955C50.0309 14.0795 50.2951 14.4545 50.4513 14.9205ZM54.0107 20.1534C53.5959 20.1534 53.2195 20.0753 52.8814 19.919C52.5433 19.7599 52.2749 19.5312 52.076 19.233C51.8771 18.9318 51.7777 18.5682 51.7777 18.142C51.7777 17.767 51.8516 17.4631 51.9993 17.2301C52.147 16.9943 52.3445 16.8097 52.5916 16.6761C52.8388 16.5426 53.1115 16.4432 53.4098 16.3778C53.7109 16.3097 54.0135 16.2557 54.3175 16.2159C54.7152 16.1648 55.0376 16.1264 55.2848 16.1009C55.5348 16.0724 55.7166 16.0256 55.8303 15.9602C55.9467 15.8949 56.005 15.7812 56.005 15.6193V15.5852C56.005 15.1648 55.8899 14.8381 55.6598 14.6051C55.4325 14.3722 55.0874 14.2557 54.6243 14.2557C54.1442 14.2557 53.7678 14.3608 53.495 14.571C53.2223 14.7812 53.0305 15.0057 52.9197 15.2443L51.9652 14.9034C52.1357 14.5057 52.3629 14.196 52.647 13.9744C52.9339 13.75 53.2464 13.5937 53.5845 13.5057C53.9254 13.4148 54.2607 13.3693 54.5902 13.3693C54.8004 13.3693 55.0419 13.3949 55.3146 13.446C55.5902 13.4943 55.8558 13.5952 56.1115 13.7486C56.37 13.902 56.5845 14.1335 56.755 14.4432C56.9254 14.7528 57.0107 15.1676 57.0107 15.6875V20H56.005V19.1136H55.9538C55.8857 19.2557 55.772 19.4077 55.6129 19.5696C55.4538 19.7315 55.2422 19.8693 54.978 19.983C54.7138 20.0966 54.3913 20.1534 54.0107 20.1534ZM54.1641 19.25C54.5618 19.25 54.897 19.1719 55.1697 19.0156C55.4453 18.8594 55.6527 18.6577 55.7919 18.4105C55.9339 18.1634 56.005 17.9034 56.005 17.6307V16.7102C55.9624 16.7614 55.8686 16.8082 55.7237 16.8509C55.5817 16.8906 55.4169 16.9261 55.2294 16.9574C55.0447 16.9858 54.8643 17.0114 54.6882 17.0341C54.5149 17.054 54.3743 17.071 54.2663 17.0852C54.005 17.1193 53.7607 17.1747 53.5334 17.2514C53.3089 17.3253 53.1271 17.4375 52.9879 17.5881C52.8516 17.7358 52.7834 17.9375 52.7834 18.1932C52.7834 18.5426 52.9126 18.8068 53.1712 18.9858C53.4325 19.1619 53.7635 19.25 54.1641 19.25ZM58.9826 20V11.2727H59.9883V14.4943H60.0735C60.1474 14.3807 60.2496 14.2358 60.3803 14.0597C60.5138 13.8807 60.7042 13.7216 60.9513 13.5824C61.2013 13.4403 61.5394 13.3693 61.9656 13.3693C62.5167 13.3693 63.0025 13.5071 63.4229 13.7827C63.8434 14.0582 64.1715 14.4489 64.4073 14.9545C64.6431 15.4602 64.761 16.0568 64.761 16.7443C64.761 17.4375 64.6431 18.0384 64.4073 18.5469C64.1715 19.0526 63.8448 19.4446 63.4272 19.723C63.0096 19.9986 62.5281 20.1364 61.9826 20.1364C61.5621 20.1364 61.2255 20.0668 60.9727 19.9276C60.7198 19.7855 60.5252 19.625 60.3888 19.446C60.2525 19.2642 60.1474 19.1136 60.0735 18.9943H59.9542V20H58.9826ZM59.9712 16.7273C59.9712 17.2216 60.0437 17.6577 60.1886 18.0355C60.3335 18.4105 60.5451 18.7045 60.8235 18.9176C61.1019 19.1278 61.4428 19.233 61.8462 19.233C62.2667 19.233 62.6175 19.1222 62.8988 18.9006C63.1829 18.6761 63.396 18.375 63.538 17.9972C63.6829 17.6165 63.7553 17.1932 63.7553 16.7273C63.7553 16.267 63.6843 15.8523 63.5423 15.483C63.4031 15.1108 63.1914 14.8168 62.9073 14.6009C62.6261 14.3821 62.2724 14.2727 61.8462 14.2727C61.4371 14.2727 61.0934 14.3764 60.815 14.5838C60.5366 14.7884 60.3263 15.0753 60.1843 15.4446C60.0423 15.8111 59.9712 16.2386 59.9712 16.7273ZM66.2994 20V13.4545H67.305V20H66.2994ZM66.8107 12.3636C66.6147 12.3636 66.4457 12.2969 66.3036 12.1634C66.1644 12.0298 66.0948 11.8693 66.0948 11.6818C66.0948 11.4943 66.1644 11.3338 66.3036 11.2003C66.4457 11.0668 66.6147 11 66.8107 11C67.0067 11 67.1744 11.0668 67.3136 11.2003C67.4556 11.3338 67.5266 11.4943 67.5266 11.6818C67.5266 11.8693 67.4556 12.0298 67.3136 12.1634C67.1744 12.2969 67.0067 12.3636 66.8107 12.3636ZM70.1527 11.2727V20H69.147V11.2727H70.1527ZM71.9947 20V13.4545H73.0004V20H71.9947ZM72.506 12.3636C72.31 12.3636 72.141 12.2969 71.9989 12.1634C71.8597 12.0298 71.7901 11.8693 71.7901 11.6818C71.7901 11.4943 71.8597 11.3338 71.9989 11.2003C72.141 11.0668 72.31 11 72.506 11C72.7021 11 72.8697 11.0668 73.0089 11.2003C73.1509 11.3338 73.2219 11.4943 73.2219 11.6818C73.2219 11.8693 73.1509 12.0298 73.0089 12.1634C72.8697 12.2969 72.7021 12.3636 72.506 12.3636ZM77.6889 13.4545V14.3068H74.2969V13.4545H77.6889ZM75.2855 11.8864H76.2912V18.125C76.2912 18.4091 76.3324 18.6222 76.4148 18.7642C76.5 18.9034 76.608 18.9972 76.7386 19.0455C76.8722 19.0909 77.0128 19.1136 77.1605 19.1136C77.2713 19.1136 77.3622 19.108 77.4332 19.0966C77.5043 19.0824 77.5611 19.071 77.6037 19.0625L77.8082 19.9659C77.7401 19.9915 77.6449 20.017 77.5227 20.0426C77.4006 20.071 77.2457 20.0852 77.0582 20.0852C76.7741 20.0852 76.4957 20.0241 76.223 19.902C75.9531 19.7798 75.7287 19.5938 75.5497 19.3438C75.3736 19.0938 75.2855 18.7784 75.2855 18.3977V11.8864ZM79.8494 22.4545C79.679 22.4545 79.527 22.4403 79.3935 22.4119C79.2599 22.3864 79.1676 22.3608 79.1165 22.3352L79.3722 21.4489C79.6165 21.5114 79.8324 21.5341 80.0199 21.517C80.2074 21.5 80.3736 21.4162 80.5185 21.2656C80.6662 21.1179 80.8011 20.8778 80.9233 20.5455L81.1108 20.0341L78.6903 13.4545H79.7812L81.5881 18.6705H81.6562L83.4631 13.4545H84.554L81.7756 20.9545C81.6506 21.2926 81.4957 21.5724 81.3111 21.794C81.1264 22.0185 80.9119 22.1847 80.6676 22.2926C80.4261 22.4006 80.1534 22.4545 79.8494 22.4545ZM92.103 13.4545V14.3068H88.7109V13.4545H92.103ZM89.6996 11.8864H90.7053V18.125C90.7053 18.4091 90.7464 18.6222 90.8288 18.7642C90.9141 18.9034 91.022 18.9972 91.1527 19.0455C91.2862 19.0909 91.4268 19.1136 91.5746 19.1136C91.6854 19.1136 91.7763 19.108 91.8473 19.0966C91.9183 19.0824 91.9751 19.071 92.0178 19.0625L92.2223 19.9659C92.1541 19.9915 92.0589 20.017 91.9368 20.0426C91.8146 20.071 91.6598 20.0852 91.4723 20.0852C91.1882 20.0852 90.9098 20.0241 90.6371 19.902C90.3672 19.7798 90.1428 19.5938 89.9638 19.3438C89.7876 19.0938 89.6996 18.7784 89.6996 18.3977V11.8864ZM96.2898 20.1364C95.6591 20.1364 95.1151 19.9972 94.6577 19.7188C94.2031 19.4375 93.8523 19.0455 93.6051 18.5426C93.3608 18.0369 93.2386 17.4489 93.2386 16.7784C93.2386 16.108 93.3608 15.517 93.6051 15.0057C93.8523 14.4915 94.196 14.0909 94.6364 13.804C95.0795 13.5142 95.5966 13.3693 96.1875 13.3693C96.5284 13.3693 96.8651 13.4261 97.1974 13.5398C97.5298 13.6534 97.8324 13.8381 98.1051 14.0938C98.3778 14.3466 98.5952 14.6818 98.7571 15.0994C98.919 15.517 99 16.0312 99 16.642V17.0682H93.9545V16.1989H97.9773C97.9773 15.8295 97.9034 15.5 97.7557 15.2102C97.6108 14.9205 97.4034 14.6918 97.1335 14.5241C96.8665 14.3565 96.5511 14.2727 96.1875 14.2727C95.7869 14.2727 95.4403 14.3722 95.1477 14.571C94.858 14.767 94.6349 15.0227 94.4787 15.3381C94.3224 15.6534 94.2443 15.9915 94.2443 16.3523V16.9318C94.2443 17.4261 94.3295 17.8452 94.5 18.1889C94.6733 18.5298 94.9134 18.7898 95.2202 18.9688C95.527 19.1449 95.8835 19.233 96.2898 19.233C96.554 19.233 96.7926 19.196 97.0057 19.1222C97.2216 19.0455 97.4077 18.9318 97.5639 18.7812C97.7202 18.6278 97.8409 18.4375 97.9261 18.2102L98.8977 18.483C98.7955 18.8125 98.6236 19.1023 98.3821 19.3523C98.1406 19.5994 97.8423 19.7926 97.4872 19.9318C97.1321 20.0682 96.733 20.1364 96.2898 20.1364ZM105.166 14.9205L104.263 15.1761C104.206 15.0256 104.122 14.8793 104.011 14.7372C103.903 14.5923 103.756 14.473 103.568 14.3793C103.381 14.2855 103.141 14.2386 102.848 14.2386C102.447 14.2386 102.114 14.331 101.847 14.5156C101.582 14.6974 101.45 14.929 101.45 15.2102C101.45 15.4602 101.541 15.6577 101.723 15.8026C101.905 15.9474 102.189 16.0682 102.575 16.1648L103.547 16.4034C104.132 16.5455 104.568 16.7628 104.855 17.0554C105.142 17.3452 105.286 17.7187 105.286 18.1761C105.286 18.5511 105.178 18.8864 104.962 19.1818C104.749 19.4773 104.45 19.7102 104.067 19.8807C103.683 20.0511 103.237 20.1364 102.729 20.1364C102.061 20.1364 101.509 19.9915 101.071 19.7017C100.634 19.4119 100.357 18.9886 100.24 18.4318L101.195 18.1932C101.286 18.5455 101.457 18.8097 101.71 18.9858C101.966 19.1619 102.3 19.25 102.712 19.25C103.18 19.25 103.553 19.1506 103.828 18.9517C104.107 18.75 104.246 18.5085 104.246 18.2273C104.246 18 104.166 17.8097 104.007 17.6562C103.848 17.5 103.604 17.3835 103.274 17.3068L102.183 17.0511C101.584 16.9091 101.143 16.6889 100.862 16.3906C100.584 16.0895 100.445 15.7131 100.445 15.2614C100.445 14.892 100.548 14.5653 100.756 14.2812C100.966 13.9972 101.251 13.7741 101.612 13.6122C101.976 13.4503 102.388 13.3693 102.848 13.3693C103.496 13.3693 104.004 13.5114 104.374 13.7955C104.746 14.0795 105.01 14.4545 105.166 14.9205ZM109.646 13.4545V14.3068H106.254V13.4545H109.646ZM107.243 11.8864H108.248V18.125C108.248 18.4091 108.289 18.6222 108.372 18.7642C108.457 18.9034 108.565 18.9972 108.696 19.0455C108.829 19.0909 108.97 19.1136 109.118 19.1136C109.228 19.1136 109.319 19.108 109.39 19.0966C109.461 19.0824 109.518 19.071 109.561 19.0625L109.765 19.9659C109.697 19.9915 109.602 20.017 109.48 20.0426C109.358 20.071 109.203 20.0852 109.015 20.0852C108.731 20.0852 108.453 20.0241 108.18 19.902C107.91 19.7798 107.686 19.5938 107.507 19.3438C107.331 19.0938 107.243 18.7784 107.243 18.3977V11.8864ZM111.159 20V13.4545H112.164V20H111.159ZM111.67 12.3636C111.474 12.3636 111.305 12.2969 111.163 12.1634C111.024 12.0298 110.954 11.8693 110.954 11.6818C110.954 11.4943 111.024 11.3338 111.163 11.2003C111.305 11.0668 111.474 11 111.67 11C111.866 11 112.034 11.0668 112.173 11.2003C112.315 11.3338 112.386 11.4943 112.386 11.6818C112.386 11.8693 112.315 12.0298 112.173 12.1634C112.034 12.2969 111.866 12.3636 111.67 12.3636ZM115.012 16.0625V20H114.006V13.4545H114.978V14.4773H115.063C115.217 14.1449 115.45 13.8778 115.762 13.6761C116.075 13.4716 116.478 13.3693 116.972 13.3693C117.415 13.3693 117.803 13.4602 118.136 13.642C118.468 13.821 118.727 14.0938 118.911 14.4602C119.096 14.8239 119.188 15.2841 119.188 15.8409V20H118.183V15.9091C118.183 15.3949 118.049 14.9943 117.782 14.7074C117.515 14.4176 117.148 14.2727 116.683 14.2727C116.362 14.2727 116.075 14.3423 115.822 14.4815C115.572 14.6207 115.374 14.8239 115.229 15.0909C115.085 15.358 115.012 15.6818 115.012 16.0625ZM123.668 22.5909C123.182 22.5909 122.765 22.5284 122.415 22.4034C122.066 22.2812 121.775 22.1193 121.542 21.9176C121.311 21.7188 121.128 21.5057 120.992 21.2784L121.793 20.7159C121.884 20.8352 121.999 20.9716 122.138 21.125C122.277 21.2812 122.468 21.4162 122.709 21.5298C122.953 21.6463 123.273 21.7045 123.668 21.7045C124.196 21.7045 124.632 21.5767 124.976 21.321C125.32 21.0653 125.492 20.6648 125.492 20.1193V18.7898H125.407C125.333 18.9091 125.228 19.0568 125.091 19.233C124.958 19.4062 124.765 19.5611 124.512 19.6974C124.262 19.831 123.924 19.8977 123.498 19.8977C122.969 19.8977 122.495 19.7727 122.074 19.5227C121.657 19.2727 121.326 18.9091 121.081 18.4318C120.84 17.9545 120.719 17.375 120.719 16.6932C120.719 16.0227 120.837 15.4389 121.073 14.9418C121.309 14.4418 121.637 14.0554 122.057 13.7827C122.478 13.5071 122.963 13.3693 123.515 13.3693C123.941 13.3693 124.279 13.4403 124.529 13.5824C124.782 13.7216 124.975 13.8807 125.108 14.0597C125.245 14.2358 125.35 14.3807 125.424 14.4943H125.526V13.4545H126.498V20.1875C126.498 20.75 126.37 21.2074 126.114 21.5597C125.861 21.9148 125.52 22.1747 125.091 22.3395C124.665 22.5071 124.191 22.5909 123.668 22.5909ZM123.634 18.9943C124.037 18.9943 124.378 18.902 124.657 18.7173C124.935 18.5327 125.147 18.267 125.292 17.9205C125.436 17.5739 125.509 17.1591 125.509 16.6761C125.509 16.2045 125.438 15.7884 125.296 15.4276C125.154 15.0668 124.944 14.7841 124.665 14.5795C124.387 14.375 124.043 14.2727 123.634 14.2727C123.208 14.2727 122.853 14.3807 122.569 14.5966C122.287 14.8125 122.076 15.1023 121.934 15.4659C121.794 15.8295 121.725 16.233 121.725 16.6761C121.725 17.1307 121.796 17.5327 121.938 17.8821C122.083 18.2287 122.296 18.5014 122.577 18.7003C122.861 18.8963 123.213 18.9943 123.634 18.9943Z" fill="white"/>
</svg>
