<svg width="126" height="32" viewBox="0 0 126 32" fill="none" xmlns="http://www.w3.org/2000/svg">
<rect x="0.5" y="0.5" width="125" height="31" rx="15.5" stroke="#525252"/>
<path d="M30 22L27.1 19.1M28.6667 15.3333C28.6667 18.2789 26.2789 20.6667 23.3333 20.6667C20.3878 20.6667 18 18.2789 18 15.3333C18 12.3878 20.3878 10 23.3333 10C26.2789 10 28.6667 12.3878 28.6667 15.3333Z" stroke="white" stroke-linecap="round" stroke-linejoin="round"/>
<path d="M42.7841 11.2727H43.8409V17.0511C43.8409 17.6477 43.7003 18.1804 43.419 18.6491C43.1406 19.1151 42.7472 19.483 42.2386 19.7528C41.7301 20.0199 41.1335 20.1534 40.4489 20.1534C39.7642 20.1534 39.1676 20.0199 38.6591 19.7528C38.1506 19.483 37.7557 19.1151 37.4744 18.6491C37.196 18.1804 37.0568 17.6477 37.0568 17.0511V11.2727H38.1136V16.9659C38.1136 17.392 38.2074 17.7713 38.3949 18.1037C38.5824 18.4332 38.8494 18.6932 39.196 18.8835C39.5455 19.071 39.9631 19.1648 40.4489 19.1648C40.9347 19.1648 41.3523 19.071 41.7017 18.8835C42.0511 18.6932 42.3182 18.4332 42.5028 18.1037C42.6903 17.7713 42.7841 17.392 42.7841 16.9659V11.2727ZM46.4627 11.2727L48.7127 14.9034H48.7809L51.0309 11.2727H52.2752L49.5309 15.6364L52.2752 20H51.0309L48.7809 16.4375H48.7127L46.4627 20H45.2184L48.0309 15.6364L45.2184 11.2727H46.4627ZM56.4439 15.1676V16.1051H52.6257V15.1676H56.4439ZM58.3498 20V11.2727H61.2987C61.9805 11.2727 62.5401 11.3892 62.9776 11.6222C63.4151 11.8523 63.739 12.169 63.9492 12.5724C64.1594 12.9759 64.2646 13.4347 64.2646 13.9489C64.2646 14.4631 64.1594 14.919 63.9492 15.3168C63.739 15.7145 63.4165 16.027 62.9819 16.2543C62.5472 16.4787 61.9918 16.5909 61.3157 16.5909H58.9293V15.6364H61.2816C61.7475 15.6364 62.1225 15.5682 62.4066 15.4318C62.6935 15.2955 62.9009 15.1023 63.0288 14.8523C63.1594 14.5994 63.2248 14.2983 63.2248 13.9489C63.2248 13.5994 63.1594 13.294 63.0288 13.0327C62.8981 12.7713 62.6893 12.5696 62.4023 12.4276C62.1154 12.2827 61.7362 12.2102 61.2646 12.2102H59.4066V20H58.3498ZM62.4577 16.0795L64.6055 20H63.3782L61.2646 16.0795H62.4577ZM68.5632 20.1364C67.9325 20.1364 67.3885 19.9972 66.9311 19.7188C66.4766 19.4375 66.1257 19.0455 65.8786 18.5426C65.6342 18.0369 65.5121 17.4489 65.5121 16.7784C65.5121 16.108 65.6342 15.517 65.8786 15.0057C66.1257 14.4915 66.4695 14.0909 66.9098 13.804C67.353 13.5142 67.87 13.3693 68.4609 13.3693C68.8018 13.3693 69.1385 13.4261 69.4709 13.5398C69.8033 13.6534 70.1058 13.8381 70.3786 14.0938C70.6513 14.3466 70.8686 14.6818 71.0305 15.0994C71.1925 15.517 71.2734 16.0312 71.2734 16.642V17.0682H66.228V16.1989H70.2507C70.2507 15.8295 70.1768 15.5 70.0291 15.2102C69.8842 14.9205 69.6768 14.6918 69.407 14.5241C69.1399 14.3565 68.8246 14.2727 68.4609 14.2727C68.0604 14.2727 67.7138 14.3722 67.4212 14.571C67.1314 14.767 66.9084 15.0227 66.7521 15.3381C66.5959 15.6534 66.5178 15.9915 66.5178 16.3523V16.9318C66.5178 17.4261 66.603 17.8452 66.7734 18.1889C66.9467 18.5298 67.1868 18.7898 67.4936 18.9688C67.8004 19.1449 68.157 19.233 68.5632 19.233C68.8274 19.233 69.0661 19.196 69.2791 19.1222C69.495 19.0455 69.6811 18.9318 69.8374 18.7812C69.9936 18.6278 70.1143 18.4375 70.1996 18.2102L71.1712 18.483C71.0689 18.8125 70.897 19.1023 70.6555 19.3523C70.4141 19.5994 70.1158 19.7926 69.7607 19.9318C69.4055 20.0682 69.0064 20.1364 68.5632 20.1364ZM77.4396 14.9205L76.5362 15.1761C76.4794 15.0256 76.3956 14.8793 76.2848 14.7372C76.1768 14.5923 76.0291 14.473 75.8416 14.3793C75.6541 14.2855 75.4141 14.2386 75.1214 14.2386C74.7209 14.2386 74.3871 14.331 74.12 14.5156C73.8558 14.6974 73.7237 14.929 73.7237 15.2102C73.7237 15.4602 73.8146 15.6577 73.9964 15.8026C74.1783 15.9474 74.4624 16.0682 74.8487 16.1648L75.8203 16.4034C76.4055 16.5455 76.8416 16.7628 77.1286 17.0554C77.4155 17.3452 77.5589 17.7187 77.5589 18.1761C77.5589 18.5511 77.451 18.8864 77.2351 19.1818C77.022 19.4773 76.7237 19.7102 76.3402 19.8807C75.9567 20.0511 75.5107 20.1364 75.0021 20.1364C74.3345 20.1364 73.782 19.9915 73.3445 19.7017C72.907 19.4119 72.63 18.9886 72.5135 18.4318L73.468 18.1932C73.5589 18.5455 73.7308 18.8097 73.9837 18.9858C74.2393 19.1619 74.5732 19.25 74.9851 19.25C75.4538 19.25 75.826 19.1506 76.1016 18.9517C76.38 18.75 76.5192 18.5085 76.5192 18.2273C76.5192 18 76.4396 17.8097 76.2805 17.6562C76.1214 17.5 75.8771 17.3835 75.5476 17.3068L74.4567 17.0511C73.8572 16.9091 73.4169 16.6889 73.1357 16.3906C72.8572 16.0895 72.718 15.7131 72.718 15.2614C72.718 14.892 72.8217 14.5653 73.0291 14.2812C73.2393 13.9972 73.5249 13.7741 73.8857 13.6122C74.2493 13.4503 74.6612 13.3693 75.1214 13.3693C75.7692 13.3693 76.2777 13.5114 76.647 13.7955C77.0192 14.0795 77.2834 14.4545 77.4396 14.9205ZM81.8171 20.1364C81.1864 20.1364 80.6424 19.9972 80.185 19.7188C79.7305 19.4375 79.3796 19.0455 79.1325 18.5426C78.8881 18.0369 78.766 17.4489 78.766 16.7784C78.766 16.108 78.8881 15.517 79.1325 15.0057C79.3796 14.4915 79.7234 14.0909 80.1637 13.804C80.6069 13.5142 81.1239 13.3693 81.7148 13.3693C82.0558 13.3693 82.3924 13.4261 82.7248 13.5398C83.0572 13.6534 83.3597 13.8381 83.6325 14.0938C83.9052 14.3466 84.1225 14.6818 84.2844 15.0994C84.4464 15.517 84.5273 16.0312 84.5273 16.642V17.0682H79.4819V16.1989H83.5046C83.5046 15.8295 83.4308 15.5 83.283 15.2102C83.1381 14.9205 82.9308 14.6918 82.6609 14.5241C82.3938 14.3565 82.0785 14.2727 81.7148 14.2727C81.3143 14.2727 80.9677 14.3722 80.6751 14.571C80.3853 14.767 80.1623 15.0227 80.006 15.3381C79.8498 15.6534 79.7717 15.9915 79.7717 16.3523V16.9318C79.7717 17.4261 79.8569 17.8452 80.0273 18.1889C80.2006 18.5298 80.4407 18.7898 80.7475 18.9688C81.0543 19.1449 81.4109 19.233 81.8171 19.233C82.0813 19.233 82.32 19.196 82.533 19.1222C82.7489 19.0455 82.935 18.9318 83.0913 18.7812C83.2475 18.6278 83.3683 18.4375 83.4535 18.2102L84.4251 18.483C84.3228 18.8125 84.1509 19.1023 83.9094 19.3523C83.668 19.5994 83.3697 19.7926 83.0146 19.9318C82.6594 20.0682 82.2603 20.1364 81.8171 20.1364ZM87.9833 20.1534C87.5685 20.1534 87.1921 20.0753 86.854 19.919C86.516 19.7599 86.2475 19.5312 86.0487 19.233C85.8498 18.9318 85.7504 18.5682 85.7504 18.142C85.7504 17.767 85.8242 17.4631 85.9719 17.2301C86.1197 16.9943 86.3171 16.8097 86.5643 16.6761C86.8114 16.5426 87.0842 16.4432 87.3825 16.3778C87.6836 16.3097 87.9862 16.2557 88.2901 16.2159C88.6879 16.1648 89.0103 16.1264 89.2575 16.1009C89.5075 16.0724 89.6893 16.0256 89.8029 15.9602C89.9194 15.8949 89.9776 15.7812 89.9776 15.6193V15.5852C89.9776 15.1648 89.8626 14.8381 89.6325 14.6051C89.4052 14.3722 89.06 14.2557 88.5969 14.2557C88.1168 14.2557 87.7404 14.3608 87.4677 14.571C87.195 14.7812 87.0032 15.0057 86.8924 15.2443L85.9379 14.9034C86.1083 14.5057 86.3356 14.196 86.6197 13.9744C86.9066 13.75 87.2191 13.5937 87.5572 13.5057C87.8981 13.4148 88.2333 13.3693 88.5629 13.3693C88.7731 13.3693 89.0146 13.3949 89.2873 13.446C89.5629 13.4943 89.8285 13.5952 90.0842 13.7486C90.3427 13.902 90.5572 14.1335 90.7276 14.4432C90.8981 14.7528 90.9833 15.1676 90.9833 15.6875V20H89.9776V19.1136H89.9265C89.8583 19.2557 89.7447 19.4077 89.5856 19.5696C89.4265 19.7315 89.2148 19.8693 88.9506 19.983C88.6864 20.0966 88.364 20.1534 87.9833 20.1534ZM88.1367 19.25C88.5344 19.25 88.8697 19.1719 89.1424 19.0156C89.418 18.8594 89.6254 18.6577 89.7646 18.4105C89.9066 18.1634 89.9776 17.9034 89.9776 17.6307V16.7102C89.935 16.7614 89.8413 16.8082 89.6964 16.8509C89.5543 16.8906 89.3896 16.9261 89.2021 16.9574C89.0174 16.9858 88.837 17.0114 88.6609 17.0341C88.4876 17.054 88.3469 17.071 88.239 17.0852C87.9776 17.1193 87.7333 17.1747 87.506 17.2514C87.2816 17.3253 87.0998 17.4375 86.9606 17.5881C86.8242 17.7358 86.756 17.9375 86.756 18.1932C86.756 18.5426 86.8853 18.8068 87.1438 18.9858C87.4052 19.1619 87.7362 19.25 88.1367 19.25ZM92.8189 20V13.4545H93.7905V14.4432H93.8587C93.978 14.1193 94.1939 13.8565 94.5064 13.6548C94.8189 13.4531 95.1712 13.3523 95.5632 13.3523C95.6371 13.3523 95.7294 13.3537 95.8402 13.3565C95.951 13.3594 96.0348 13.3636 96.0916 13.3693V14.392C96.0575 14.3835 95.9794 14.3707 95.8572 14.3537C95.7379 14.3338 95.6115 14.3239 95.478 14.3239C95.1598 14.3239 94.8757 14.3906 94.6257 14.5241C94.3786 14.6548 94.1825 14.8366 94.0376 15.0696C93.8956 15.2997 93.8246 15.5625 93.8246 15.858V20H92.8189ZM99.7436 20.1364C99.13 20.1364 98.6016 19.9915 98.1584 19.7017C97.7152 19.4119 97.3743 19.0128 97.1357 18.5043C96.897 17.9957 96.7777 17.4148 96.7777 16.7614C96.7777 16.0966 96.8999 15.5099 97.1442 15.0014C97.3913 14.4901 97.7351 14.0909 98.1754 13.804C98.6186 13.5142 99.1357 13.3693 99.7266 13.3693C100.187 13.3693 100.602 13.4545 100.971 13.625C101.34 13.7955 101.643 14.0341 101.879 14.3409C102.114 14.6477 102.261 15.0057 102.317 15.4148H101.312C101.235 15.1165 101.065 14.8523 100.8 14.6222C100.539 14.3892 100.187 14.2727 99.7436 14.2727C99.3516 14.2727 99.0078 14.375 98.7124 14.5795C98.4197 14.7812 98.1911 15.0668 98.0263 15.4361C97.8643 15.8026 97.7834 16.233 97.7834 16.7273C97.7834 17.233 97.8629 17.6733 98.022 18.0483C98.1839 18.4233 98.4112 18.7145 98.7038 18.9219C98.9993 19.1293 99.3459 19.233 99.7436 19.233C100.005 19.233 100.242 19.1875 100.455 19.0966C100.668 19.0057 100.849 18.875 100.996 18.7045C101.144 18.5341 101.249 18.3295 101.312 18.0909H102.317C102.261 18.4773 102.12 18.8253 101.896 19.1349C101.674 19.4418 101.38 19.6861 101.013 19.8679C100.65 20.0469 100.227 20.1364 99.7436 20.1364ZM104.793 16.0625V20H103.788V11.2727H104.793V14.4773H104.879C105.032 14.1392 105.262 13.8707 105.569 13.6719C105.879 13.4702 106.29 13.3693 106.805 13.3693C107.251 13.3693 107.641 13.4588 107.977 13.6378C108.312 13.8139 108.572 14.0852 108.756 14.4517C108.944 14.8153 109.038 15.2784 109.038 15.8409V20H108.032V15.9091C108.032 15.3892 107.897 14.9872 107.627 14.7031C107.36 14.4162 106.989 14.2727 106.515 14.2727C106.185 14.2727 105.89 14.3423 105.629 14.4815C105.37 14.6207 105.165 14.8239 105.015 15.0909C104.867 15.358 104.793 15.6818 104.793 16.0625Z" fill="white"/>
</svg>
