<svg width="128" height="32" viewBox="0 0 128 32" fill="none" xmlns="http://www.w3.org/2000/svg">
<rect x="0.5" y="0.5" width="127" height="31" rx="15.5" stroke="#525252"/>
<path d="M18 11.92C18 11.2479 18 10.9119 18.1308 10.6552C18.2458 10.4294 18.4294 10.2458 18.6552 10.1308C18.9119 10 19.2479 10 19.92 10H24.48C25.1521 10 25.4881 10 25.7448 10.1308C25.9706 10.2458 26.1542 10.4294 26.2692 10.6552C26.4 10.9119 26.4 11.2479 26.4 11.92V16.48C26.4 17.1521 26.4 17.4881 26.2692 17.7448C26.1542 17.9706 25.9706 18.1542 25.7448 18.2692C25.4881 18.4 25.1521 18.4 24.48 18.4H19.92C19.2479 18.4 18.9119 18.4 18.6552 18.2692C18.4294 18.1542 18.2458 17.9706 18.1308 17.7448C18 17.4881 18 17.1521 18 16.48V11.92Z" stroke="white" stroke-linecap="round" stroke-linejoin="round"/>
<path d="M21.6 15.52C21.6 14.8479 21.6 14.5119 21.7308 14.2552C21.8458 14.0294 22.0294 13.8458 22.2552 13.7308C22.5119 13.6 22.8479 13.6 23.52 13.6H28.08C28.7521 13.6 29.0881 13.6 29.3448 13.7308C29.5706 13.8458 29.7542 14.0294 29.8692 14.2552C30 14.5119 30 14.8479 30 15.52V20.08C30 20.7521 30 21.0881 29.8692 21.3448C29.7542 21.5706 29.5706 21.7542 29.3448 21.8692C29.0881 22 28.7521 22 28.08 22H23.52C22.8479 22 22.5119 22 22.2552 21.8692C22.0294 21.7542 21.8458 21.5706 21.7308 21.3448C21.6 21.0881 21.6 20.7521 21.6 20.08V15.52Z" stroke="white" stroke-linecap="round" stroke-linejoin="round"/>
<path d="M42.7841 11.2727H43.8409V17.0511C43.8409 17.6477 43.7003 18.1804 43.419 18.6491C43.1406 19.1151 42.7472 19.483 42.2386 19.7528C41.7301 20.0199 41.1335 20.1534 40.4489 20.1534C39.7642 20.1534 39.1676 20.0199 38.6591 19.7528C38.1506 19.483 37.7557 19.1151 37.4744 18.6491C37.196 18.1804 37.0568 17.6477 37.0568 17.0511V11.2727H38.1136V16.9659C38.1136 17.392 38.2074 17.7713 38.3949 18.1037C38.5824 18.4332 38.8494 18.6932 39.196 18.8835C39.5455 19.071 39.9631 19.1648 40.4489 19.1648C40.9347 19.1648 41.3523 19.071 41.7017 18.8835C42.0511 18.6932 42.3182 18.4332 42.5028 18.1037C42.6903 17.7713 42.7841 17.392 42.7841 16.9659V11.2727ZM46.4627 11.2727L48.7127 14.9034H48.7809L51.0309 11.2727H52.2752L49.5309 15.6364L52.2752 20H51.0309L48.7809 16.4375H48.7127L46.4627 20H45.2184L48.0309 15.6364L45.2184 11.2727H46.4627ZM56.5994 10.8636L53.7869 21.3125H52.8665L55.679 10.8636H56.5994ZM63.6552 11.2727H64.712V17.0511C64.712 17.6477 64.5714 18.1804 64.2901 18.6491C64.0117 19.1151 63.6183 19.483 63.1097 19.7528C62.6012 20.0199 62.0046 20.1534 61.32 20.1534C60.6353 20.1534 60.0387 20.0199 59.5302 19.7528C59.0217 19.483 58.6268 19.1151 58.3455 18.6491C58.0671 18.1804 57.9279 17.6477 57.9279 17.0511V11.2727H58.9847V16.9659C58.9847 17.392 59.0785 17.7713 59.266 18.1037C59.4535 18.4332 59.7205 18.6932 60.0671 18.8835C60.4165 19.071 60.8342 19.1648 61.32 19.1648C61.8058 19.1648 62.2234 19.071 62.5728 18.8835C62.9222 18.6932 63.1893 18.4332 63.3739 18.1037C63.5614 17.7713 63.6552 17.392 63.6552 16.9659V11.2727ZM67.8793 11.2727V20H66.8224V11.2727H67.8793ZM76.0664 20H73.3732V11.2727H76.1857C77.0323 11.2727 77.7567 11.4474 78.359 11.7969C78.9613 12.1435 79.4229 12.642 79.744 13.2926C80.065 13.9403 80.2255 14.7159 80.2255 15.6193C80.2255 16.5284 80.0636 17.3111 79.7397 17.9673C79.4158 18.6207 78.9442 19.1236 78.3249 19.4759C77.7056 19.8253 76.9528 20 76.0664 20ZM74.43 19.0625H75.9982C76.7198 19.0625 77.3178 18.9233 77.7923 18.6449C78.2667 18.3665 78.6204 17.9702 78.8533 17.456C79.0863 16.9418 79.2028 16.3295 79.2028 15.6193C79.2028 14.9148 79.0877 14.3082 78.8576 13.7997C78.6275 13.2884 78.2837 12.8963 77.8263 12.6236C77.369 12.348 76.7994 12.2102 76.1175 12.2102H74.43V19.0625ZM84.6062 20.1364C83.9755 20.1364 83.4315 19.9972 82.9741 19.7188C82.5195 19.4375 82.1687 19.0455 81.9215 18.5426C81.6772 18.0369 81.555 17.4489 81.555 16.7784C81.555 16.108 81.6772 15.517 81.9215 15.0057C82.1687 14.4915 82.5124 14.0909 82.9528 13.804C83.396 13.5142 83.913 13.3693 84.5039 13.3693C84.8448 13.3693 85.1815 13.4261 85.5138 13.5398C85.8462 13.6534 86.1488 13.8381 86.4215 14.0938C86.6942 14.3466 86.9116 14.6818 87.0735 15.0994C87.2354 15.517 87.3164 16.0312 87.3164 16.642V17.0682H82.271V16.1989H86.2937C86.2937 15.8295 86.2198 15.5 86.0721 15.2102C85.9272 14.9205 85.7198 14.6918 85.4499 14.5241C85.1829 14.3565 84.8675 14.2727 84.5039 14.2727C84.1033 14.2727 83.7567 14.3722 83.4641 14.571C83.1744 14.767 82.9513 15.0227 82.7951 15.3381C82.6388 15.6534 82.5607 15.9915 82.5607 16.3523V16.9318C82.5607 17.4261 82.646 17.8452 82.8164 18.1889C82.9897 18.5298 83.2298 18.7898 83.5366 18.9688C83.8434 19.1449 84.1999 19.233 84.6062 19.233C84.8704 19.233 85.109 19.196 85.3221 19.1222C85.538 19.0455 85.7241 18.9318 85.8803 18.7812C86.0366 18.6278 86.1573 18.4375 86.2425 18.2102L87.2141 18.483C87.1119 18.8125 86.94 19.1023 86.6985 19.3523C86.457 19.5994 86.1587 19.7926 85.8036 19.9318C85.4485 20.0682 85.0494 20.1364 84.6062 20.1364ZM93.4826 14.9205L92.5792 15.1761C92.5224 15.0256 92.4386 14.8793 92.3278 14.7372C92.2198 14.5923 92.0721 14.473 91.8846 14.3793C91.6971 14.2855 91.457 14.2386 91.1644 14.2386C90.7638 14.2386 90.43 14.331 90.163 14.5156C89.8988 14.6974 89.7667 14.929 89.7667 15.2102C89.7667 15.4602 89.8576 15.6577 90.0394 15.8026C90.2212 15.9474 90.5053 16.0682 90.8917 16.1648L91.8633 16.4034C92.4485 16.5455 92.8846 16.7628 93.1715 17.0554C93.4585 17.3452 93.6019 17.7187 93.6019 18.1761C93.6019 18.5511 93.494 18.8864 93.2781 19.1818C93.065 19.4773 92.7667 19.7102 92.3832 19.8807C91.9996 20.0511 91.5536 20.1364 91.0451 20.1364C90.3775 20.1364 89.8249 19.9915 89.3874 19.7017C88.9499 19.4119 88.6729 18.9886 88.5565 18.4318L89.511 18.1932C89.6019 18.5455 89.7738 18.8097 90.0266 18.9858C90.2823 19.1619 90.6161 19.25 91.0281 19.25C91.4968 19.25 91.869 19.1506 92.1445 18.9517C92.4229 18.75 92.5621 18.5085 92.5621 18.2273C92.5621 18 92.4826 17.8097 92.3235 17.6562C92.1644 17.5 91.9201 17.3835 91.5906 17.3068L90.4996 17.0511C89.9002 16.9091 89.4599 16.6889 89.1786 16.3906C88.9002 16.0895 88.761 15.7131 88.761 15.2614C88.761 14.892 88.8647 14.5653 89.0721 14.2812C89.2823 13.9972 89.5678 13.7741 89.9286 13.6122C90.2923 13.4503 90.7042 13.3693 91.1644 13.3693C91.8121 13.3693 92.3207 13.5114 92.69 13.7955C93.0621 14.0795 93.3263 14.4545 93.4826 14.9205ZM95.1158 20V13.4545H96.1214V20H95.1158ZM95.6271 12.3636C95.4311 12.3636 95.2621 12.2969 95.12 12.1634C94.9808 12.0298 94.9112 11.8693 94.9112 11.6818C94.9112 11.4943 94.9808 11.3338 95.12 11.2003C95.2621 11.0668 95.4311 11 95.6271 11C95.8232 11 95.9908 11.0668 96.13 11.2003C96.272 11.3338 96.343 11.4943 96.343 11.6818C96.343 11.8693 96.272 12.0298 96.13 12.1634C95.9908 12.2969 95.8232 12.3636 95.6271 12.3636ZM100.605 22.5909C100.12 22.5909 99.7021 22.5284 99.3526 22.4034C99.0032 22.2812 98.712 22.1193 98.479 21.9176C98.2489 21.7188 98.0657 21.5057 97.9293 21.2784L98.7305 20.7159C98.8214 20.8352 98.9364 20.9716 99.0756 21.125C99.2148 21.2812 99.4052 21.4162 99.6467 21.5298C99.891 21.6463 100.211 21.7045 100.605 21.7045C101.134 21.7045 101.57 21.5767 101.914 21.321C102.257 21.0653 102.429 20.6648 102.429 20.1193V18.7898H102.344C102.27 18.9091 102.165 19.0568 102.029 19.233C101.895 19.4062 101.702 19.5611 101.449 19.6974C101.199 19.831 100.861 19.8977 100.435 19.8977C99.9066 19.8977 99.4322 19.7727 99.0117 19.5227C98.5941 19.2727 98.2631 18.9091 98.0188 18.4318C97.7773 17.9545 97.6566 17.375 97.6566 16.6932C97.6566 16.0227 97.7745 15.4389 98.0103 14.9418C98.2461 14.4418 98.5742 14.0554 98.9947 13.7827C99.4151 13.5071 99.9009 13.3693 100.452 13.3693C100.878 13.3693 101.216 13.4403 101.466 13.5824C101.719 13.7216 101.912 13.8807 102.046 14.0597C102.182 14.2358 102.287 14.3807 102.361 14.4943H102.463V13.4545H103.435V20.1875C103.435 20.75 103.307 21.2074 103.051 21.5597C102.799 21.9148 102.458 22.1747 102.029 22.3395C101.603 22.5071 101.128 22.5909 100.605 22.5909ZM100.571 18.9943C100.975 18.9943 101.316 18.902 101.594 18.7173C101.873 18.5327 102.084 18.267 102.229 17.9205C102.374 17.5739 102.446 17.1591 102.446 16.6761C102.446 16.2045 102.375 15.7884 102.233 15.4276C102.091 15.0668 101.881 14.7841 101.603 14.5795C101.324 14.375 100.98 14.2727 100.571 14.2727C100.145 14.2727 99.7901 14.3807 99.506 14.5966C99.2248 14.8125 99.0131 15.1023 98.8711 15.4659C98.7319 15.8295 98.6623 16.233 98.6623 16.6761C98.6623 17.1307 98.7333 17.5327 98.8754 17.8821C99.0202 18.2287 99.2333 18.5014 99.5146 18.7003C99.7987 18.8963 100.151 18.9943 100.571 18.9943ZM106.282 16.0625V20H105.276V13.4545H106.248V14.4773H106.333C106.486 14.1449 106.719 13.8778 107.032 13.6761C107.344 13.4716 107.748 13.3693 108.242 13.3693C108.685 13.3693 109.073 13.4602 109.405 13.642C109.738 13.821 109.996 14.0938 110.181 14.4602C110.365 14.8239 110.458 15.2841 110.458 15.8409V20H109.452V15.9091C109.452 15.3949 109.319 14.9943 109.051 14.7074C108.784 14.4176 108.418 14.2727 107.952 14.2727C107.631 14.2727 107.344 14.3423 107.091 14.4815C106.841 14.6207 106.644 14.8239 106.499 15.0909C106.354 15.358 106.282 15.6818 106.282 16.0625Z" fill="white"/>
</svg>
