<svg width="120" height="32" viewBox="0 0 120 32" fill="none" xmlns="http://www.w3.org/2000/svg">
<rect x="0.5" y="0.5" width="119" height="31" rx="15.5" stroke="#525252"/>
<path d="M18 14H30M21.2 10H26.8C27.9201 10 28.4802 10 28.908 10.218C29.2843 10.4097 29.5903 10.7157 29.782 11.092C30 11.5198 30 12.0799 30 13.2V18.8C30 19.9201 30 20.4802 29.782 20.908C29.5903 21.2843 29.2843 21.5903 28.908 21.782C28.4802 22 27.9201 22 26.8 22H21.2C20.0799 22 19.5198 22 19.092 21.782C18.7157 21.5903 18.4097 21.2843 18.218 20.908C18 20.4802 18 19.9201 18 18.8V13.2C18 12.0799 18 11.5198 18.218 11.092C18.4097 10.7157 18.7157 10.4097 19.092 10.218C19.5198 10 20.0799 10 21.2 10Z" stroke="white" stroke-linecap="round" stroke-linejoin="round"/>
<path d="M38.642 20L36.2557 11.2727H37.3295L39.1534 18.3807H39.2386L41.0966 11.2727H42.2898L44.1477 18.3807H44.233L46.0568 11.2727H47.1307L44.7443 20H43.6534L41.7273 13.0455H41.6591L39.733 20H38.642ZM50.446 20.1364C49.8153 20.1364 49.2713 19.9972 48.8139 19.7188C48.3594 19.4375 48.0085 19.0455 47.7614 18.5426C47.517 18.0369 47.3949 17.4489 47.3949 16.7784C47.3949 16.108 47.517 15.517 47.7614 15.0057C48.0085 14.4915 48.3523 14.0909 48.7926 13.804C49.2358 13.5142 49.7528 13.3693 50.3438 13.3693C50.6847 13.3693 51.0213 13.4261 51.3537 13.5398C51.6861 13.6534 51.9886 13.8381 52.2614 14.0938C52.5341 14.3466 52.7514 14.6818 52.9134 15.0994C53.0753 15.517 53.1562 16.0312 53.1562 16.642V17.0682H48.1108V16.1989H52.1335C52.1335 15.8295 52.0597 15.5 51.9119 15.2102C51.767 14.9205 51.5597 14.6918 51.2898 14.5241C51.0227 14.3565 50.7074 14.2727 50.3438 14.2727C49.9432 14.2727 49.5966 14.3722 49.304 14.571C49.0142 14.767 48.7912 15.0227 48.6349 15.3381C48.4787 15.6534 48.4006 15.9915 48.4006 16.3523V16.9318C48.4006 17.4261 48.4858 17.8452 48.6562 18.1889C48.8295 18.5298 49.0696 18.7898 49.3764 18.9688C49.6832 19.1449 50.0398 19.233 50.446 19.233C50.7102 19.233 50.9489 19.196 51.1619 19.1222C51.3778 19.0455 51.5639 18.9318 51.7202 18.7812C51.8764 18.6278 51.9972 18.4375 52.0824 18.2102L53.054 18.483C52.9517 18.8125 52.7798 19.1023 52.5384 19.3523C52.2969 19.5994 51.9986 19.7926 51.6435 19.9318C51.2884 20.0682 50.8892 20.1364 50.446 20.1364ZM54.8224 20V11.2727H55.8281V14.4943H55.9134C55.9872 14.3807 56.0895 14.2358 56.2202 14.0597C56.3537 13.8807 56.544 13.7216 56.7912 13.5824C57.0412 13.4403 57.3793 13.3693 57.8054 13.3693C58.3565 13.3693 58.8423 13.5071 59.2628 13.7827C59.6832 14.0582 60.0114 14.4489 60.2472 14.9545C60.483 15.4602 60.6009 16.0568 60.6009 16.7443C60.6009 17.4375 60.483 18.0384 60.2472 18.5469C60.0114 19.0526 59.6847 19.4446 59.267 19.723C58.8494 19.9986 58.3679 20.1364 57.8224 20.1364C57.402 20.1364 57.0653 20.0668 56.8125 19.9276C56.5597 19.7855 56.3651 19.625 56.2287 19.446C56.0923 19.2642 55.9872 19.1136 55.9134 18.9943H55.794V20H54.8224ZM55.8111 16.7273C55.8111 17.2216 55.8835 17.6577 56.0284 18.0355C56.1733 18.4105 56.3849 18.7045 56.6634 18.9176C56.9418 19.1278 57.2827 19.233 57.6861 19.233C58.1065 19.233 58.4574 19.1222 58.7386 18.9006C59.0227 18.6761 59.2358 18.375 59.3778 17.9972C59.5227 17.6165 59.5952 17.1932 59.5952 16.7273C59.5952 16.267 59.5241 15.8523 59.3821 15.483C59.2429 15.1108 59.0313 14.8168 58.7472 14.6009C58.4659 14.3821 58.1122 14.2727 57.6861 14.2727C57.277 14.2727 56.9332 14.3764 56.6548 14.5838C56.3764 14.7884 56.1662 15.0753 56.0241 15.4446C55.8821 15.8111 55.8111 16.2386 55.8111 16.7273ZM68.3438 20H65.6506V11.2727H68.4631C69.3097 11.2727 70.0341 11.4474 70.6364 11.7969C71.2386 12.1435 71.7003 12.642 72.0213 13.2926C72.3423 13.9403 72.5028 14.7159 72.5028 15.6193C72.5028 16.5284 72.3409 17.3111 72.017 17.9673C71.6932 18.6207 71.2216 19.1236 70.6023 19.4759C69.983 19.8253 69.2301 20 68.3438 20ZM66.7074 19.0625H68.2756C68.9972 19.0625 69.5952 18.9233 70.0696 18.6449C70.544 18.3665 70.8977 17.9702 71.1307 17.456C71.3636 16.9418 71.4801 16.3295 71.4801 15.6193C71.4801 14.9148 71.3651 14.3082 71.1349 13.7997C70.9048 13.2884 70.5611 12.8963 70.1037 12.6236C69.6463 12.348 69.0767 12.2102 68.3949 12.2102H66.7074V19.0625ZM76.8835 20.1364C76.2528 20.1364 75.7088 19.9972 75.2514 19.7188C74.7969 19.4375 74.446 19.0455 74.1989 18.5426C73.9545 18.0369 73.8324 17.4489 73.8324 16.7784C73.8324 16.108 73.9545 15.517 74.1989 15.0057C74.446 14.4915 74.7898 14.0909 75.2301 13.804C75.6733 13.5142 76.1903 13.3693 76.7812 13.3693C77.1222 13.3693 77.4588 13.4261 77.7912 13.5398C78.1236 13.6534 78.4261 13.8381 78.6989 14.0938C78.9716 14.3466 79.1889 14.6818 79.3509 15.0994C79.5128 15.517 79.5938 16.0312 79.5938 16.642V17.0682H74.5483V16.1989H78.571C78.571 15.8295 78.4972 15.5 78.3494 15.2102C78.2045 14.9205 77.9972 14.6918 77.7273 14.5241C77.4602 14.3565 77.1449 14.2727 76.7812 14.2727C76.3807 14.2727 76.0341 14.3722 75.7415 14.571C75.4517 14.767 75.2287 15.0227 75.0724 15.3381C74.9162 15.6534 74.8381 15.9915 74.8381 16.3523V16.9318C74.8381 17.4261 74.9233 17.8452 75.0938 18.1889C75.267 18.5298 75.5071 18.7898 75.8139 18.9688C76.1207 19.1449 76.4773 19.233 76.8835 19.233C77.1477 19.233 77.3864 19.196 77.5994 19.1222C77.8153 19.0455 78.0014 18.9318 78.1577 18.7812C78.3139 18.6278 78.4347 18.4375 78.5199 18.2102L79.4915 18.483C79.3892 18.8125 79.2173 19.1023 78.9759 19.3523C78.7344 19.5994 78.4361 19.7926 78.081 19.9318C77.7259 20.0682 77.3267 20.1364 76.8835 20.1364ZM85.7599 14.9205L84.8565 15.1761C84.7997 15.0256 84.7159 14.8793 84.6051 14.7372C84.4972 14.5923 84.3494 14.473 84.1619 14.3793C83.9744 14.2855 83.7344 14.2386 83.4418 14.2386C83.0412 14.2386 82.7074 14.331 82.4403 14.5156C82.1761 14.6974 82.044 14.929 82.044 15.2102C82.044 15.4602 82.1349 15.6577 82.3168 15.8026C82.4986 15.9474 82.7827 16.0682 83.169 16.1648L84.1406 16.4034C84.7259 16.5455 85.1619 16.7628 85.4489 17.0554C85.7358 17.3452 85.8793 17.7187 85.8793 18.1761C85.8793 18.5511 85.7713 18.8864 85.5554 19.1818C85.3423 19.4773 85.044 19.7102 84.6605 19.8807C84.277 20.0511 83.831 20.1364 83.3224 20.1364C82.6548 20.1364 82.1023 19.9915 81.6648 19.7017C81.2273 19.4119 80.9503 18.9886 80.8338 18.4318L81.7884 18.1932C81.8793 18.5455 82.0511 18.8097 82.304 18.9858C82.5597 19.1619 82.8935 19.25 83.3054 19.25C83.7741 19.25 84.1463 19.1506 84.4219 18.9517C84.7003 18.75 84.8395 18.5085 84.8395 18.2273C84.8395 18 84.7599 17.8097 84.6009 17.6562C84.4418 17.5 84.1974 17.3835 83.8679 17.3068L82.777 17.0511C82.1776 16.9091 81.7372 16.6889 81.456 16.3906C81.1776 16.0895 81.0384 15.7131 81.0384 15.2614C81.0384 14.892 81.142 14.5653 81.3494 14.2812C81.5597 13.9972 81.8452 13.7741 82.206 13.6122C82.5696 13.4503 82.9815 13.3693 83.4418 13.3693C84.0895 13.3693 84.598 13.5114 84.9673 13.7955C85.3395 14.0795 85.6037 14.4545 85.7599 14.9205ZM87.3931 20V13.4545H88.3988V20H87.3931ZM87.9045 12.3636C87.7085 12.3636 87.5394 12.2969 87.3974 12.1634C87.2582 12.0298 87.1886 11.8693 87.1886 11.6818C87.1886 11.4943 87.2582 11.3338 87.3974 11.2003C87.5394 11.0668 87.7085 11 87.9045 11C88.1005 11 88.2681 11.0668 88.4073 11.2003C88.5494 11.3338 88.6204 11.4943 88.6204 11.6818C88.6204 11.8693 88.5494 12.0298 88.4073 12.1634C88.2681 12.2969 88.1005 12.3636 87.9045 12.3636ZM92.8828 22.5909C92.397 22.5909 91.9794 22.5284 91.63 22.4034C91.2805 22.2812 90.9893 22.1193 90.7564 21.9176C90.5263 21.7188 90.343 21.5057 90.2067 21.2784L91.0078 20.7159C91.0987 20.8352 91.2138 20.9716 91.353 21.125C91.4922 21.2812 91.6825 21.4162 91.924 21.5298C92.1683 21.6463 92.4879 21.7045 92.8828 21.7045C93.4112 21.7045 93.8473 21.5767 94.1911 21.321C94.5348 21.0653 94.7067 20.6648 94.7067 20.1193V18.7898H94.6214C94.5476 18.9091 94.4425 19.0568 94.3061 19.233C94.1726 19.4062 93.9794 19.5611 93.7266 19.6974C93.4766 19.831 93.1385 19.8977 92.7124 19.8977C92.1839 19.8977 91.7095 19.7727 91.2891 19.5227C90.8714 19.2727 90.5405 18.9091 90.2962 18.4318C90.0547 17.9545 89.9339 17.375 89.9339 16.6932C89.9339 16.0227 90.0518 15.4389 90.2876 14.9418C90.5234 14.4418 90.8516 14.0554 91.272 13.7827C91.6925 13.5071 92.1783 13.3693 92.7294 13.3693C93.1555 13.3693 93.4936 13.4403 93.7436 13.5824C93.9964 13.7216 94.1896 13.8807 94.3232 14.0597C94.4595 14.2358 94.5646 14.3807 94.6385 14.4943H94.7408V13.4545H95.7124V20.1875C95.7124 20.75 95.5845 21.2074 95.3288 21.5597C95.076 21.9148 94.7351 22.1747 94.3061 22.3395C93.88 22.5071 93.4055 22.5909 92.8828 22.5909ZM92.8487 18.9943C93.2521 18.9943 93.593 18.902 93.8714 18.7173C94.1499 18.5327 94.3615 18.267 94.5064 17.9205C94.6513 17.5739 94.7237 17.1591 94.7237 16.6761C94.7237 16.2045 94.6527 15.7884 94.5107 15.4276C94.3686 15.0668 94.1584 14.7841 93.88 14.5795C93.6016 14.375 93.2578 14.2727 92.8487 14.2727C92.4226 14.2727 92.0675 14.3807 91.7834 14.5966C91.5021 14.8125 91.2905 15.1023 91.1484 15.4659C91.0092 15.8295 90.9396 16.233 90.9396 16.6761C90.9396 17.1307 91.0107 17.5327 91.1527 17.8821C91.2976 18.2287 91.5107 18.5014 91.7919 18.7003C92.076 18.8963 92.4283 18.9943 92.8487 18.9943ZM98.5589 16.0625V20H97.5533V13.4545H98.5249V14.4773H98.6101C98.7635 14.1449 98.9964 13.8778 99.3089 13.6761C99.6214 13.4716 100.025 13.3693 100.519 13.3693C100.962 13.3693 101.35 13.4602 101.683 13.642C102.015 13.821 102.273 14.0938 102.458 14.4602C102.643 14.8239 102.735 15.2841 102.735 15.8409V20H101.729V15.9091C101.729 15.3949 101.596 14.9943 101.329 14.7074C101.062 14.4176 100.695 14.2727 100.229 14.2727C99.9084 14.2727 99.6214 14.3423 99.3686 14.4815C99.1186 14.6207 98.9212 14.8239 98.7763 15.0909C98.6314 15.358 98.5589 15.6818 98.5589 16.0625Z" fill="white"/>
</svg>
