<svg width="40" height="40" viewBox="0 0 40 40" fill="none" xmlns="http://www.w3.org/2000/svg">
<g clip-path="url(#clip0_107_138)">
<path d="M17.3333 28V21.6796C17.3333 21.2013 17.3333 20.9621 17.4302 20.7794C17.5154 20.6187 17.6514 20.4881 17.8187 20.4062C18.0088 20.3131 18.2577 20.3131 18.7556 20.3131H21.2444C21.7423 20.3131 21.9912 20.3131 22.1813 20.4062C22.3486 20.4881 22.4846 20.6187 22.5698 20.7794C22.6667 20.9621 22.6667 21.2013 22.6667 21.6796V28M19.1268 12.4246L13.0981 16.9301C12.6951 17.2313 12.4936 17.3819 12.3485 17.5705C12.2199 17.7375 12.1241 17.9257 12.0658 18.1258C12 18.3517 12 18.597 12 19.0875V25.2669C12 26.2236 12 26.7019 12.1938 27.0673C12.3642 27.3887 12.6362 27.65 12.9707 27.8138C13.351 28 13.8488 28 14.8444 28H25.1556C26.1512 28 26.649 28 27.0293 27.8138C27.3638 27.65 27.6358 27.3887 27.8062 27.0673C28 26.7019 28 26.2236 28 25.2669V19.0875C28 18.597 28 18.3517 27.9342 18.1258C27.8759 17.9257 27.7801 17.7375 27.6515 17.5705C27.5064 17.3819 27.3049 17.2313 26.9019 16.9301L20.8732 12.4246C20.5609 12.1912 20.4047 12.0745 20.2323 12.0297C20.0802 11.9901 19.9198 11.9901 19.7677 12.0297C19.5953 12.0745 19.4391 12.1912 19.1268 12.4246Z" stroke="white" stroke-width="1.5" stroke-linecap="round" stroke-linejoin="round"/>
</g>
<defs>
<clipPath id="clip0_107_138">
<rect width="40" height="40" rx="20" fill="white"/>
</clipPath>
</defs>
</svg>
