<svg width="64" height="64" viewBox="0 0 64 64" fill="none" xmlns="http://www.w3.org/2000/svg">
<g clip-path="url(#clip0_651_26)">
<path d="M11.3333 0H52.6667C58.9333 0 64 5.19658 64 11.6239V52.3761C64 58.8034 58.9333 64 52.6667 64H11.3333C5.06667 64 0 58.8034 0 52.3761V11.6239C0 5.19658 5.06667 0 11.3333 0Z" fill="#470137"/>
<path d="M33.6532 16.8205L25.6532 30.3589L34.1865 44.7179C34.2399 44.8273 34.2665 44.9367 34.2399 45.0461C34.2132 45.1555 34.1066 45.0735 33.9466 45.1008H27.8399C27.4132 45.1008 27.1199 45.0735 26.9332 44.8C26.3732 43.6512 25.7865 42.5299 25.2265 41.3812C24.6665 40.2598 24.0532 39.1111 23.4132 37.935C22.7732 36.7589 22.1332 35.5829 21.4932 34.3794H21.4399C20.8799 35.5555 20.2665 36.7316 19.6532 37.9077C19.0399 39.0837 18.4265 40.2598 17.8399 41.4085C17.2265 42.5572 16.6132 43.7333 15.9999 44.8547C15.8932 45.1282 15.6799 45.1555 15.3865 45.1555H9.51988C9.41322 45.1555 9.33322 45.2102 9.33322 45.0735C9.30655 44.9641 9.33322 44.8547 9.38655 44.7726L17.6799 30.8239L9.59988 16.7931C9.51988 16.6837 9.49322 16.5743 9.54655 16.5196C9.59988 16.4376 9.70655 16.4102 9.81322 16.4102H15.8665C15.9999 16.4102 16.1332 16.4376 16.2399 16.4649C16.3465 16.5196 16.4265 16.6017 16.5065 16.7111C17.0132 17.8871 17.5999 19.0632 18.2132 20.2393C18.8532 21.4153 19.4665 22.5641 20.1332 23.7128C20.7732 24.8615 21.3599 26.0102 21.9199 27.1863H21.9732C22.5332 25.9829 23.1199 24.8068 23.7065 23.6581C24.2932 22.5094 24.9065 21.3606 25.5199 20.2119C26.1332 19.0632 26.7199 17.8871 27.3065 16.7658C27.3332 16.6564 27.3865 16.547 27.4665 16.4923C27.5732 16.4376 27.6799 16.4102 27.8132 16.4376H33.4399C33.5732 16.4102 33.7066 16.4923 33.7332 16.629C33.7599 16.6564 33.7065 16.7658 33.6532 16.8205Z" fill="#FF61F6"/>
<path d="M45.9733 45.6752C43.9999 45.7025 42.0266 45.2923 40.2399 44.4444C38.5599 43.6513 37.1733 42.3384 36.2133 40.7248C35.2266 39.0564 34.7466 36.9777 34.7466 34.4889C34.7199 32.4649 35.2266 30.4683 36.2133 28.7179C37.2266 26.9401 38.6933 25.4632 40.4533 24.4786C42.3199 23.4119 44.5599 22.8923 47.1999 22.8923C47.3333 22.8923 47.5199 22.8923 47.7599 22.9196C47.9999 22.947 48.2666 22.947 48.5866 22.9743V14.3316C48.5866 14.1401 48.6666 14.0307 48.8533 14.0307H54.2666C54.3999 14.0034 54.5066 14.1128 54.5333 14.2222C54.5333 14.2495 54.5333 14.2769 54.5333 14.2769V40.3145C54.5333 40.8068 54.5599 41.3538 54.5866 41.9555C54.6399 42.5299 54.6666 43.0769 54.6933 43.5418C54.6933 43.7333 54.6133 43.8974 54.4266 43.9795C53.0399 44.5812 51.5733 45.0188 50.0799 45.2923C48.7199 45.5384 47.3599 45.6752 45.9733 45.6752ZM48.5866 40.2051V28.1709C48.3466 28.1162 48.1066 28.0615 47.8666 28.0342C47.5733 28.0068 47.2799 27.9795 46.9866 27.9795C45.9466 27.9795 44.9066 28.1983 43.9733 28.6906C43.0666 29.1555 42.2933 29.8393 41.7066 30.7145C41.1199 31.5897 40.8266 32.7658 40.8266 34.188C40.7999 35.1453 40.9599 36.1025 41.2799 37.0051C41.5466 37.7436 41.9466 38.4 42.4799 38.947C42.9866 39.4393 43.5999 39.8222 44.2933 40.041C45.0133 40.2871 45.7599 40.3966 46.5066 40.3966C46.9066 40.3966 47.2799 40.3692 47.6266 40.3419C47.9733 40.3692 48.2666 40.3145 48.5866 40.2051Z" fill="#FF61F6"/>
</g>
<defs>
<clipPath id="clip0_651_26">
<rect width="64" height="64" fill="white"/>
</clipPath>
</defs>
</svg>
