<svg width="32" height="32" viewBox="0 0 32 32" fill="none" xmlns="http://www.w3.org/2000/svg">
<rect x="0.5" y="0.5" width="31" height="31" rx="15.5" stroke="white"/>
<path d="M16.0007 8C13.8281 8 13.5554 8.0095 12.702 8.04833C11.8504 8.08733 11.269 8.22217 10.7604 8.42001C10.2342 8.62434 9.78785 8.89767 9.34318 9.3425C8.89818 9.78717 8.62484 10.2335 8.41984 10.7595C8.2215 11.2683 8.0865 11.8498 8.04817 12.7012C8.01 13.5545 8 13.8273 8 16C8 18.1727 8.00967 18.4445 8.04833 19.2978C8.0875 20.1495 8.22234 20.7308 8.42 21.2395C8.6245 21.7657 8.89784 22.212 9.34268 22.6567C9.78719 23.1017 10.2335 23.3757 10.7594 23.58C11.2684 23.7778 11.8499 23.9127 12.7014 23.9517C13.5547 23.9905 13.8272 24 15.9997 24C18.1726 24 18.4444 23.9905 19.2978 23.9517C20.1495 23.9127 20.7315 23.7778 21.2405 23.58C21.7665 23.3757 22.2122 23.1017 22.6567 22.6567C23.1017 22.212 23.375 21.7657 23.58 21.2397C23.7767 20.7308 23.9117 20.1493 23.9517 19.298C23.99 18.4447 24 18.1727 24 16C24 13.8273 23.99 13.5547 23.9517 12.7013C23.9117 11.8497 23.7767 11.2683 23.58 10.7597C23.375 10.2335 23.1017 9.78716 22.6567 9.3425C22.2116 8.8975 21.7666 8.62416 21.24 8.42C20.73 8.22217 20.1483 8.08733 19.2966 8.04833C18.4433 8.0095 18.1716 8 15.9983 8H16.0007ZM15.2831 9.44066C15.2831 9.44122 15.2835 9.44167 15.2841 9.44167C15.4968 9.44134 15.7342 9.44167 16.0007 9.44167C18.1368 9.44167 18.3899 9.44934 19.2334 9.48767C20.0135 9.52334 20.4368 9.65366 20.7188 9.76316C21.0921 9.90816 21.3583 10.0815 21.6381 10.3615C21.9181 10.6415 22.0915 10.9082 22.2368 11.2815C22.3463 11.5632 22.4768 11.9865 22.5123 12.7665C22.5507 13.6098 22.559 13.8632 22.559 15.9982C22.559 18.1332 22.5507 18.3865 22.5123 19.2298C22.4766 20.0098 22.3463 20.4332 22.2368 20.7148C22.0918 21.0882 21.9181 21.354 21.6381 21.6338C21.3581 21.9138 21.0923 22.0872 20.7188 22.2322C20.4371 22.3422 20.0135 22.4722 19.2334 22.5078C18.3901 22.5462 18.1368 22.5545 16.0007 22.5545C13.8646 22.5545 13.6114 22.5462 12.768 22.5078C11.988 22.4718 11.5647 22.3415 11.2825 22.232C10.9092 22.087 10.6425 21.9137 10.3625 21.6337C10.0825 21.3537 9.90919 21.0877 9.76385 20.7142C9.65435 20.4325 9.52385 20.0092 9.48835 19.2292C9.45002 18.3858 9.44235 18.1325 9.44235 15.9962C9.44235 13.8598 9.45002 13.6078 9.48835 12.7645C9.52402 11.9845 9.65435 11.5612 9.76385 11.2792C9.90885 10.9058 10.0825 10.6392 10.3625 10.3592C10.6425 10.0792 10.9092 9.90584 11.2825 9.7605C11.5645 9.6505 11.988 9.52051 12.768 9.48466C13.5059 9.45134 13.7919 9.44134 15.282 9.43966C15.2826 9.43966 15.2831 9.44011 15.2831 9.44066ZM20.2711 10.7698C20.2711 10.7699 20.2711 10.77 20.271 10.77C19.741 10.7701 19.3111 11.1996 19.3111 11.7297C19.3111 12.2597 19.7411 12.6897 20.2711 12.6897C20.8011 12.6897 21.2311 12.2597 21.2311 11.7297C21.2311 11.1997 20.8012 10.7698 20.2713 10.7697C20.2712 10.7697 20.2711 10.7697 20.2711 10.7698ZM16.0007 11.8917C13.7319 11.8917 11.8924 13.7312 11.8924 16C11.8924 18.2688 13.7319 20.1075 16.0007 20.1075C18.2696 20.1075 20.1085 18.2688 20.1085 16C20.1085 13.7312 18.2694 11.8917 16.0006 11.8917H16.0007ZM16.0007 13.3333C17.4734 13.3333 18.6674 14.5272 18.6674 16C18.6674 17.4727 17.4734 18.6667 16.0007 18.6667C14.5279 18.6667 13.3341 17.4727 13.3341 16C13.3341 14.5272 14.5279 13.3333 16.0007 13.3333Z" fill="white"/>
</svg>
