<svg width="32" height="32" viewBox="0 0 32 32" fill="none" xmlns="http://www.w3.org/2000/svg">
<rect x="0.5" y="0.5" width="31" height="31" rx="15.5" stroke="white"/>
<path fill-rule="evenodd" clip-rule="evenodd" d="M25 23H21.7125V17.4007C21.7125 15.8655 21.1292 15.0075 19.9141 15.0075C18.5922 15.0075 17.9016 15.9003 17.9016 17.4007V23H14.7333V12.3333H17.9016V13.7701C17.9016 13.7701 18.8542 12.0075 21.1177 12.0075C23.3802 12.0075 25 13.3891 25 16.2465V23ZM10.9536 10.9366C9.87448 10.9366 9 10.0553 9 8.96831C9 7.88134 9.87448 7 10.9536 7C12.0328 7 12.9068 7.88134 12.9068 8.96831C12.9068 10.0553 12.0328 10.9366 10.9536 10.9366ZM9.31771 23H12.6214V12.3333H9.31771V23Z" fill="white"/>
</svg>
