<svg width="32" height="32" viewBox="0 0 32 32" fill="none" xmlns="http://www.w3.org/2000/svg">
<rect x="0.5" y="0.5" width="31" height="31" rx="15.5" stroke="white"/>
<path d="M21.2566 11.4218C21.1475 11.366 21.0414 11.3048 20.9386 11.2385C20.6395 11.0427 20.3653 10.8119 20.1219 10.5512C19.5128 9.86091 19.2853 9.16061 19.2015 8.6703H19.2049C19.1349 8.26332 19.1638 8 19.1682 8H16.3941V18.6255C16.3941 18.7681 16.3941 18.9091 16.388 19.0484C16.388 19.0658 16.3863 19.0818 16.3853 19.1004C16.3853 19.1081 16.3853 19.1161 16.3836 19.1241C16.3836 19.1261 16.3836 19.1281 16.3836 19.1301C16.3544 19.5114 16.231 19.8796 16.0244 20.2026C15.8177 20.5255 15.5341 20.7931 15.1985 20.982C14.8487 21.1791 14.4531 21.2825 14.0506 21.282C12.7581 21.282 11.7106 20.2381 11.7106 18.9488C11.7106 17.6595 12.7581 16.6156 14.0506 16.6156C14.2953 16.6153 14.5385 16.6535 14.7711 16.7286L14.7745 13.9307C14.0683 13.8403 13.3508 13.8959 12.6674 14.094C11.984 14.292 11.3494 14.6282 10.8037 15.0813C10.3256 15.4928 9.92357 15.9838 9.61584 16.5322C9.49874 16.7322 9.05691 17.5359 9.0034 18.8401C8.96975 19.5804 9.1942 20.3474 9.30121 20.6644V20.671C9.36851 20.8577 9.6293 21.4947 10.0543 22.0316C10.397 22.4624 10.8019 22.8407 11.256 23.1546V23.1479L11.2627 23.1546C12.6057 24.0585 14.0947 23.9992 14.0947 23.9992C14.3525 23.9889 15.216 23.9992 16.1965 23.5389C17.2841 23.0286 17.9033 22.2683 17.9033 22.2683C18.2989 21.814 18.6134 21.2963 18.8334 20.7374C19.0844 20.0837 19.1682 19.2998 19.1682 18.9865V13.3494C19.2019 13.3694 19.6501 13.6631 19.6501 13.6631C19.6501 13.6631 20.2958 14.073 21.3033 14.34C22.0262 14.53 23 14.57 23 14.57V11.8421C22.6588 11.8788 21.9659 11.7721 21.2566 11.4218Z" fill="white"/>
</svg>
