<svg width="32" height="32" viewBox="0 0 32 32" fill="none" xmlns="http://www.w3.org/2000/svg">
<rect x="0.5" y="0.5" width="31" height="31" rx="15.5" stroke="white"/>
<path fill-rule="evenodd" clip-rule="evenodd" d="M21.6689 10.3252C20.1648 8.82656 18.1645 8.00084 16.0334 8C11.6423 8 8.06856 11.5564 8.0668 15.9279C8.06621 17.3252 8.43307 18.6892 9.13018 19.8915L8 24L12.2232 22.8975C13.3868 23.5291 14.6969 23.862 16.0302 23.8625H16.0335C20.4241 23.8625 23.9982 20.3056 24 15.9342C24.0008 13.8157 23.173 11.8237 21.6689 10.3252ZM16.0335 22.5235H16.0308C14.8427 22.523 13.6773 22.2054 12.6607 21.6049L12.4189 21.4621L9.91278 22.1164L10.5817 19.6847L10.4243 19.4354C9.76143 18.3861 9.41135 17.1735 9.41187 15.9284C9.41332 12.295 12.3837 9.33905 16.0361 9.33905C17.8047 9.33972 19.4672 10.0261 20.7174 11.2716C21.9675 12.5172 22.6556 14.1729 22.655 15.9337C22.6534 19.5673 19.6831 22.5235 16.0335 22.5235ZM19.6655 17.5881C19.4664 17.489 18.4878 17.0097 18.3053 16.9436C18.1229 16.8775 17.9902 16.8444 17.8575 17.0428C17.7248 17.2411 17.3433 17.6873 17.2271 17.8195C17.111 17.9517 16.9949 17.9683 16.7959 17.8691C16.5968 17.7699 15.9554 17.5607 15.1951 16.8858C14.6034 16.3606 14.2039 15.7118 14.0877 15.5135C13.9716 15.3151 14.0754 15.2079 14.175 15.1092C14.2646 15.0204 14.3741 14.8778 14.4736 14.7621C14.5731 14.6464 14.6063 14.5638 14.6727 14.4316C14.739 14.2994 14.7058 14.1837 14.6561 14.0845C14.6063 13.9854 14.2082 13.0103 14.0423 12.6136C13.8808 12.2273 13.7167 12.2796 13.5945 12.2736C13.4785 12.2678 13.3457 12.2666 13.213 12.2666C13.0803 12.2666 12.8646 12.3162 12.6821 12.5145C12.4997 12.7128 11.9855 13.1921 11.9855 14.1671C11.9855 15.1422 12.6987 16.0842 12.7983 16.2164C12.8978 16.3486 14.2019 18.3496 16.1987 19.2077C16.6736 19.4118 17.0444 19.5337 17.3335 19.6251C17.8104 19.7758 18.2443 19.7545 18.5873 19.7035C18.9697 19.6467 19.765 19.2243 19.9309 18.7615C20.0968 18.2988 20.0968 17.9021 20.047 17.8195C19.9973 17.7369 19.8646 17.6873 19.6655 17.5881Z" fill="white"/>
</svg>
